G75*
%MOIN*%
%OFA0B0*%
%FSLAX24Y24*%
%IPPOS*%
%LPD*%
%AMOC8*
5,1,8,0,0,1.08239X$1,22.5*
%
%ADD10C,0.1700*%
%ADD11C,0.0780*%
%ADD12C,0.0520*%
%ADD13C,0.0650*%
%ADD14R,0.0650X0.0650*%
%ADD15C,0.0740*%
%ADD16R,0.0800X0.0800*%
%ADD17C,0.0800*%
%ADD18C,0.0560*%
%ADD19C,0.0400*%
%ADD20C,0.0320*%
%ADD21C,0.0240*%
%ADD22C,0.0100*%
%ADD23C,0.0320*%
%ADD24C,0.0160*%
%ADD25C,0.0090*%
%ADD26C,0.0200*%
D10*
X003531Y003549D03*
X004713Y001699D03*
X005894Y003549D03*
D11*
X005380Y005916D03*
X009380Y005916D03*
D12*
X010691Y006101D02*
X010691Y005581D01*
X011691Y005581D02*
X011691Y006101D01*
X012691Y006101D02*
X012691Y005581D01*
X013691Y005581D02*
X013691Y006101D01*
X014691Y006101D02*
X014691Y005581D01*
X015691Y005581D02*
X015691Y006101D01*
X016691Y006101D02*
X016691Y005581D01*
X017691Y005581D02*
X017691Y006101D01*
X017691Y003101D02*
X017691Y002581D01*
X016691Y002581D02*
X016691Y003101D01*
X015691Y003101D02*
X015691Y002581D01*
X014691Y002581D02*
X014691Y003101D01*
X013691Y003101D02*
X013691Y002581D01*
X012691Y002581D02*
X012691Y003101D01*
X011691Y003101D02*
X011691Y002581D01*
X010691Y002581D02*
X010691Y003101D01*
D13*
X008901Y002351D03*
D14*
X008901Y001351D03*
D15*
X011303Y001535D03*
X012303Y001535D03*
X013303Y001535D03*
X015032Y001535D03*
X016032Y001535D03*
X015912Y007220D03*
X016912Y007220D03*
X017912Y007220D03*
X017912Y008320D03*
X016912Y008320D03*
X015912Y008320D03*
X014912Y008320D03*
X013912Y008320D03*
X012912Y008320D03*
X011912Y008320D03*
X010912Y008320D03*
X009912Y008320D03*
X008912Y008320D03*
X007912Y008320D03*
X006912Y008320D03*
X005912Y008320D03*
X005912Y007220D03*
X006912Y007220D03*
X007912Y007220D03*
X008912Y007220D03*
X009912Y007220D03*
X010912Y007220D03*
X011912Y007220D03*
X012912Y007220D03*
X013912Y007220D03*
X014912Y007220D03*
X014912Y014320D03*
X013912Y014320D03*
X012912Y014320D03*
X011912Y014320D03*
X010912Y014320D03*
X009912Y014320D03*
X008912Y014320D03*
X007912Y014320D03*
X006912Y014320D03*
X005912Y014320D03*
X005912Y015421D03*
X006912Y015421D03*
X007912Y015421D03*
X008912Y015421D03*
X009912Y015421D03*
X010912Y015421D03*
X011912Y015421D03*
X012912Y015421D03*
X013912Y015421D03*
X014912Y015421D03*
X015912Y015421D03*
X016912Y015421D03*
X017912Y015421D03*
X017912Y014320D03*
X016912Y014320D03*
X015912Y014320D03*
D16*
X002950Y013245D03*
X002950Y008663D03*
D17*
X002950Y006694D03*
X002950Y011276D03*
D18*
X005380Y005916D02*
X005380Y004063D01*
X005894Y003549D01*
D19*
X005912Y007220D02*
X005912Y008320D01*
X007912Y008320D02*
X007912Y007220D01*
X008912Y007220D02*
X008912Y008320D01*
X009912Y008320D02*
X009912Y007220D01*
X010912Y007220D02*
X010912Y008320D01*
X011912Y008320D02*
X011912Y007220D01*
X012912Y007220D02*
X012912Y008320D01*
X013912Y008320D02*
X013912Y007220D01*
X014912Y007220D02*
X014912Y008320D01*
X015912Y008320D02*
X015912Y007220D01*
X016912Y007220D02*
X016912Y008320D01*
X017912Y008320D02*
X017912Y007220D01*
X017691Y005841D02*
X017691Y002841D01*
X017912Y014320D02*
X017912Y015421D01*
X016912Y015421D02*
X016912Y014320D01*
X015912Y014320D02*
X015912Y015421D01*
X014912Y015421D02*
X014912Y014320D01*
X013912Y014320D02*
X013912Y015421D01*
X012912Y015421D02*
X012912Y014320D01*
X011912Y014320D02*
X011912Y015421D01*
X010912Y015421D02*
X010912Y014320D01*
X009912Y014320D02*
X009912Y015421D01*
X008912Y015421D02*
X008912Y014320D01*
X007912Y014320D02*
X007912Y015421D01*
X005912Y015421D02*
X005912Y014570D01*
X005912Y014320D01*
D20*
X005912Y007220D02*
X005910Y007217D01*
X005910Y006750D01*
X006744Y005916D01*
X007260Y005916D01*
X009380Y005916D01*
X009880Y005030D02*
X010691Y005841D01*
X009880Y005030D02*
X009880Y001660D01*
X009571Y001351D01*
X008901Y001351D01*
X013690Y002842D02*
X013691Y002841D01*
X013690Y002842D02*
X013690Y004650D01*
D21*
X011303Y001535D02*
X010560Y000792D01*
X010560Y000790D01*
X007820Y000790D01*
X007090Y001520D01*
X007090Y005746D01*
X007260Y005916D01*
D22*
X001989Y001286D02*
X002056Y001079D01*
X002183Y000903D01*
X002359Y000776D01*
X002566Y000709D01*
X002674Y000700D01*
X004511Y000700D01*
X004146Y000851D01*
X003865Y001132D01*
X003713Y001500D01*
X003713Y001898D01*
X003865Y002265D01*
X004146Y002547D01*
X004514Y002699D01*
X004912Y002699D01*
X005279Y002547D01*
X005560Y002265D01*
X005713Y001898D01*
X005713Y001500D01*
X005560Y001132D01*
X005279Y000851D01*
X004914Y000700D01*
X007528Y000700D01*
X006861Y001367D01*
X006820Y001466D01*
X006820Y003172D01*
X006741Y002983D01*
X006460Y002701D01*
X006093Y002549D01*
X005695Y002549D01*
X005327Y002701D01*
X005046Y002983D01*
X004894Y003350D01*
X004894Y003748D01*
X004969Y003930D01*
X004950Y003978D01*
X004950Y005582D01*
X004922Y005610D01*
X004840Y005808D01*
X004840Y006023D01*
X004922Y006222D01*
X005074Y006373D01*
X005272Y006456D01*
X005487Y006456D01*
X005685Y006373D01*
X005837Y006222D01*
X005920Y006023D01*
X005920Y005808D01*
X005837Y005610D01*
X005810Y005582D01*
X005810Y004549D01*
X006093Y004549D01*
X006460Y004397D01*
X006741Y004116D01*
X006820Y003926D01*
X006820Y005606D01*
X006683Y005606D01*
X006569Y005653D01*
X005734Y006487D01*
X005647Y006574D01*
X005600Y006688D01*
X005600Y006797D01*
X005471Y006925D01*
X005392Y007116D01*
X005392Y007323D01*
X005471Y007514D01*
X005562Y007605D01*
X005562Y007935D01*
X005471Y008026D01*
X005392Y008217D01*
X005392Y008424D01*
X005471Y008615D01*
X005618Y008761D01*
X005809Y008840D01*
X006016Y008840D01*
X006207Y008761D01*
X006353Y008615D01*
X006414Y008469D01*
X006430Y008520D01*
X006468Y008593D01*
X006516Y008659D01*
X006574Y008717D01*
X006640Y008765D01*
X006713Y008802D01*
X006791Y008828D01*
X006862Y008839D01*
X006862Y008370D01*
X006962Y008370D01*
X006962Y008839D01*
X007034Y008828D01*
X007112Y008802D01*
X007185Y008765D01*
X007251Y008717D01*
X007309Y008659D01*
X007357Y008593D01*
X007394Y008520D01*
X007411Y008469D01*
X007471Y008615D01*
X007618Y008761D01*
X007809Y008840D01*
X008016Y008840D01*
X008207Y008761D01*
X008353Y008615D01*
X008412Y008472D01*
X008471Y008615D01*
X008618Y008761D01*
X008809Y008840D01*
X009016Y008840D01*
X009207Y008761D01*
X009353Y008615D01*
X009412Y008472D01*
X009471Y008615D01*
X009618Y008761D01*
X009809Y008840D01*
X010016Y008840D01*
X010207Y008761D01*
X010353Y008615D01*
X010412Y008472D01*
X010471Y008615D01*
X010618Y008761D01*
X010809Y008840D01*
X011016Y008840D01*
X011132Y008792D01*
X010939Y008985D01*
X006529Y008985D01*
X005819Y009695D01*
X005705Y009809D01*
X005705Y013843D01*
X005618Y013879D01*
X005471Y014026D01*
X005392Y014217D01*
X005392Y014424D01*
X005471Y014615D01*
X005562Y014706D01*
X005562Y015035D01*
X005471Y015126D01*
X005392Y015317D01*
X005392Y015524D01*
X005471Y015715D01*
X005618Y015861D01*
X005634Y015868D01*
X003219Y015868D01*
X003342Y015745D01*
X003470Y015436D01*
X003470Y015102D01*
X003342Y014793D01*
X003106Y014557D01*
X002797Y014429D01*
X002463Y014429D01*
X002154Y014557D01*
X001980Y014731D01*
X001980Y001394D01*
X001989Y001286D01*
X001988Y001297D02*
X003797Y001297D01*
X003756Y001395D02*
X001980Y001395D01*
X001980Y001494D02*
X003715Y001494D01*
X003713Y001592D02*
X001980Y001592D01*
X001980Y001691D02*
X003713Y001691D01*
X003713Y001789D02*
X001980Y001789D01*
X001980Y001888D02*
X003713Y001888D01*
X003749Y001986D02*
X001980Y001986D01*
X001980Y002085D02*
X003790Y002085D01*
X003831Y002183D02*
X001980Y002183D01*
X001980Y002282D02*
X003881Y002282D01*
X003980Y002380D02*
X001980Y002380D01*
X001980Y002479D02*
X004078Y002479D01*
X004220Y002577D02*
X003766Y002577D01*
X003809Y002587D02*
X003915Y002624D01*
X004016Y002673D01*
X004111Y002732D01*
X004199Y002802D01*
X004278Y002882D01*
X004348Y002970D01*
X004408Y003065D01*
X004457Y003166D01*
X004494Y003272D01*
X004519Y003381D01*
X004531Y003493D01*
X004531Y003499D01*
X003582Y003499D01*
X003582Y003599D01*
X004531Y003599D01*
X004531Y003605D01*
X004519Y003717D01*
X004494Y003826D01*
X004457Y003932D01*
X004408Y004034D01*
X004348Y004129D01*
X004278Y004217D01*
X004199Y004296D01*
X004111Y004366D01*
X004016Y004426D01*
X003915Y004475D01*
X003809Y004512D01*
X003699Y004537D01*
X003588Y004549D01*
X003581Y004549D01*
X003581Y003599D01*
X003481Y003599D01*
X003481Y003499D01*
X002531Y003499D01*
X002531Y003493D01*
X002544Y003381D01*
X002569Y003272D01*
X002606Y003166D01*
X002655Y003065D01*
X002715Y002970D01*
X002785Y002882D01*
X002864Y002802D01*
X002952Y002732D01*
X003047Y002673D01*
X003148Y002624D01*
X003254Y002587D01*
X003364Y002562D01*
X003475Y002549D01*
X003481Y002549D01*
X003481Y003499D01*
X003581Y003499D01*
X003581Y002549D01*
X003588Y002549D01*
X003699Y002562D01*
X003809Y002587D01*
X003581Y002577D02*
X003481Y002577D01*
X003481Y002676D02*
X003581Y002676D01*
X003581Y002774D02*
X003481Y002774D01*
X003481Y002873D02*
X003581Y002873D01*
X003581Y002971D02*
X003481Y002971D01*
X003481Y003070D02*
X003581Y003070D01*
X003581Y003168D02*
X003481Y003168D01*
X003481Y003267D02*
X003581Y003267D01*
X003581Y003365D02*
X003481Y003365D01*
X003481Y003464D02*
X003581Y003464D01*
X003582Y003562D02*
X004894Y003562D01*
X004894Y003464D02*
X004528Y003464D01*
X004515Y003365D02*
X004894Y003365D01*
X004928Y003267D02*
X004492Y003267D01*
X004458Y003168D02*
X004969Y003168D01*
X005010Y003070D02*
X004410Y003070D01*
X004349Y002971D02*
X005058Y002971D01*
X005156Y002873D02*
X004269Y002873D01*
X004163Y002774D02*
X005255Y002774D01*
X005390Y002676D02*
X004968Y002676D01*
X005206Y002577D02*
X005628Y002577D01*
X005446Y002380D02*
X006820Y002380D01*
X006820Y002282D02*
X005544Y002282D01*
X005594Y002183D02*
X006820Y002183D01*
X006820Y002085D02*
X005635Y002085D01*
X005676Y001986D02*
X006820Y001986D01*
X006820Y001888D02*
X005713Y001888D01*
X005713Y001789D02*
X006820Y001789D01*
X006820Y001691D02*
X005713Y001691D01*
X005713Y001592D02*
X006820Y001592D01*
X006820Y001494D02*
X005710Y001494D01*
X005669Y001395D02*
X006850Y001395D01*
X006932Y001297D02*
X005628Y001297D01*
X005588Y001198D02*
X007030Y001198D01*
X007129Y001100D02*
X005527Y001100D01*
X005429Y001001D02*
X007227Y001001D01*
X007326Y000903D02*
X005330Y000903D01*
X005165Y000804D02*
X007424Y000804D01*
X007523Y000706D02*
X004928Y000706D01*
X004498Y000706D02*
X002604Y000706D01*
X002320Y000804D02*
X004260Y000804D01*
X004095Y000903D02*
X002184Y000903D01*
X002112Y001001D02*
X003996Y001001D01*
X003898Y001100D02*
X002049Y001100D01*
X002017Y001198D02*
X003838Y001198D01*
X005347Y002479D02*
X006820Y002479D01*
X006820Y002577D02*
X006160Y002577D01*
X006398Y002676D02*
X006820Y002676D01*
X006820Y002774D02*
X006533Y002774D01*
X006631Y002873D02*
X006820Y002873D01*
X006820Y002971D02*
X006730Y002971D01*
X006777Y003070D02*
X006820Y003070D01*
X006818Y003168D02*
X006820Y003168D01*
X007360Y003168D02*
X009570Y003168D01*
X009570Y003070D02*
X007360Y003070D01*
X007360Y002971D02*
X009570Y002971D01*
X009570Y002873D02*
X007360Y002873D01*
X007360Y002774D02*
X008684Y002774D01*
X008652Y002758D02*
X008592Y002714D01*
X008539Y002661D01*
X008495Y002600D01*
X008461Y002534D01*
X008438Y002463D01*
X008426Y002389D01*
X008426Y002370D01*
X008882Y002370D01*
X008882Y002333D01*
X008426Y002333D01*
X008426Y002314D01*
X008438Y002240D01*
X008461Y002169D01*
X008495Y002102D01*
X008539Y002042D01*
X008592Y001989D01*
X008652Y001945D01*
X008719Y001911D01*
X008790Y001888D01*
X008864Y001876D01*
X008882Y001876D01*
X008882Y002333D01*
X008920Y002333D01*
X008920Y002370D01*
X009376Y002370D01*
X009376Y002389D01*
X009364Y002463D01*
X009341Y002534D01*
X009307Y002600D01*
X009263Y002661D01*
X009210Y002714D01*
X009150Y002758D01*
X009083Y002792D01*
X009012Y002815D01*
X008938Y002826D01*
X008920Y002826D01*
X008920Y002370D01*
X008882Y002370D01*
X008882Y002826D01*
X008864Y002826D01*
X008790Y002815D01*
X008719Y002792D01*
X008652Y002758D01*
X008553Y002676D02*
X007360Y002676D01*
X007360Y002577D02*
X008483Y002577D01*
X008443Y002479D02*
X007360Y002479D01*
X007360Y002380D02*
X008426Y002380D01*
X008431Y002282D02*
X007360Y002282D01*
X007360Y002183D02*
X008456Y002183D01*
X008508Y002085D02*
X007360Y002085D01*
X007360Y001986D02*
X008596Y001986D01*
X008514Y001826D02*
X008426Y001739D01*
X008426Y001060D01*
X007932Y001060D01*
X007360Y001632D01*
X007360Y005606D01*
X008926Y005606D01*
X009074Y005458D01*
X009272Y005376D01*
X009487Y005376D01*
X009685Y005458D01*
X009837Y005610D01*
X009920Y005808D01*
X009920Y006023D01*
X009837Y006222D01*
X009685Y006373D01*
X009487Y006456D01*
X009272Y006456D01*
X009074Y006373D01*
X008926Y006226D01*
X006873Y006226D01*
X006263Y006835D01*
X006353Y006925D01*
X006414Y007071D01*
X006430Y007020D01*
X006468Y006947D01*
X006516Y006881D01*
X006574Y006823D01*
X006640Y006775D01*
X006713Y006738D01*
X006791Y006713D01*
X006862Y006701D01*
X006862Y007170D01*
X006962Y007170D01*
X006962Y006701D01*
X007034Y006713D01*
X007112Y006738D01*
X007185Y006775D01*
X007251Y006823D01*
X007309Y006881D01*
X007357Y006947D01*
X007394Y007020D01*
X007411Y007071D01*
X007471Y006925D01*
X007618Y006779D01*
X007809Y006700D01*
X008016Y006700D01*
X008207Y006779D01*
X008353Y006925D01*
X008412Y007068D01*
X008471Y006925D01*
X008618Y006779D01*
X008809Y006700D01*
X009016Y006700D01*
X009207Y006779D01*
X009353Y006925D01*
X009412Y007068D01*
X009471Y006925D01*
X009618Y006779D01*
X009809Y006700D01*
X010016Y006700D01*
X010207Y006779D01*
X010353Y006925D01*
X010412Y007068D01*
X010471Y006925D01*
X010618Y006779D01*
X010809Y006700D01*
X011016Y006700D01*
X011030Y006706D01*
X011015Y006691D01*
X011015Y006357D01*
X010924Y006449D01*
X010773Y006511D01*
X010610Y006511D01*
X010459Y006449D01*
X010344Y006333D01*
X010281Y006183D01*
X010281Y005870D01*
X009617Y005205D01*
X009570Y005092D01*
X009570Y004968D01*
X009570Y001788D01*
X009443Y001661D01*
X009376Y001661D01*
X009376Y001739D01*
X009288Y001826D01*
X008514Y001826D01*
X008476Y001789D02*
X007360Y001789D01*
X007360Y001691D02*
X008426Y001691D01*
X008426Y001592D02*
X007400Y001592D01*
X007498Y001494D02*
X008426Y001494D01*
X008426Y001395D02*
X007597Y001395D01*
X007695Y001297D02*
X008426Y001297D01*
X008426Y001198D02*
X007794Y001198D01*
X007892Y001100D02*
X008426Y001100D01*
X008794Y001888D02*
X007360Y001888D01*
X007360Y003267D02*
X009570Y003267D01*
X009570Y003365D02*
X007360Y003365D01*
X007360Y003464D02*
X009570Y003464D01*
X009570Y003562D02*
X007360Y003562D01*
X007360Y003661D02*
X009570Y003661D01*
X009570Y003759D02*
X007360Y003759D01*
X007360Y003858D02*
X009570Y003858D01*
X009570Y003956D02*
X007360Y003956D01*
X007360Y004055D02*
X009570Y004055D01*
X009570Y004153D02*
X007360Y004153D01*
X007360Y004252D02*
X009570Y004252D01*
X009570Y004350D02*
X007360Y004350D01*
X007360Y004449D02*
X009570Y004449D01*
X009570Y004547D02*
X007360Y004547D01*
X007360Y004646D02*
X009570Y004646D01*
X009570Y004744D02*
X007360Y004744D01*
X007360Y004843D02*
X009570Y004843D01*
X009570Y004941D02*
X007360Y004941D01*
X007360Y005040D02*
X009570Y005040D01*
X009589Y005138D02*
X007360Y005138D01*
X007360Y005237D02*
X009648Y005237D01*
X009747Y005335D02*
X007360Y005335D01*
X007360Y005434D02*
X009132Y005434D01*
X009000Y005532D02*
X007360Y005532D01*
X006820Y005532D02*
X005810Y005532D01*
X005810Y005434D02*
X006820Y005434D01*
X006820Y005335D02*
X005810Y005335D01*
X005810Y005237D02*
X006820Y005237D01*
X006820Y005138D02*
X005810Y005138D01*
X005810Y005040D02*
X006820Y005040D01*
X006820Y004941D02*
X005810Y004941D01*
X005810Y004843D02*
X006820Y004843D01*
X006820Y004744D02*
X005810Y004744D01*
X005810Y004646D02*
X006820Y004646D01*
X006820Y004547D02*
X006098Y004547D01*
X006336Y004449D02*
X006820Y004449D01*
X006820Y004350D02*
X006507Y004350D01*
X006606Y004252D02*
X006820Y004252D01*
X006820Y004153D02*
X006704Y004153D01*
X006767Y004055D02*
X006820Y004055D01*
X006808Y003956D02*
X006820Y003956D01*
X006623Y005631D02*
X005846Y005631D01*
X005887Y005729D02*
X006493Y005729D01*
X006394Y005828D02*
X005920Y005828D01*
X005920Y005926D02*
X006296Y005926D01*
X006197Y006025D02*
X005919Y006025D01*
X005878Y006123D02*
X006099Y006123D01*
X006000Y006222D02*
X005837Y006222D01*
X005902Y006320D02*
X005739Y006320D01*
X005803Y006419D02*
X005577Y006419D01*
X005705Y006517D02*
X003472Y006517D01*
X003500Y006585D02*
X003416Y006383D01*
X003261Y006228D01*
X003059Y006144D01*
X002840Y006144D01*
X002638Y006228D01*
X002484Y006383D01*
X002400Y006585D01*
X002400Y006804D01*
X002484Y007006D01*
X002638Y007161D01*
X002840Y007244D01*
X003059Y007244D01*
X003261Y007161D01*
X003416Y007006D01*
X003500Y006804D01*
X003500Y006585D01*
X003500Y006616D02*
X005630Y006616D01*
X005600Y006714D02*
X003500Y006714D01*
X003496Y006813D02*
X005584Y006813D01*
X005486Y006911D02*
X003455Y006911D01*
X003413Y007010D02*
X005437Y007010D01*
X005396Y007108D02*
X003314Y007108D01*
X003151Y007207D02*
X005392Y007207D01*
X005392Y007305D02*
X001980Y007305D01*
X001980Y007207D02*
X002749Y007207D01*
X002586Y007108D02*
X001980Y007108D01*
X001980Y007010D02*
X002487Y007010D01*
X002444Y006911D02*
X001980Y006911D01*
X001980Y006813D02*
X002403Y006813D01*
X002400Y006714D02*
X001980Y006714D01*
X001980Y006616D02*
X002400Y006616D01*
X002428Y006517D02*
X001980Y006517D01*
X001980Y006419D02*
X002469Y006419D01*
X002547Y006320D02*
X001980Y006320D01*
X001980Y006222D02*
X002655Y006222D01*
X003245Y006222D02*
X004922Y006222D01*
X004881Y006123D02*
X001980Y006123D01*
X001980Y006025D02*
X004840Y006025D01*
X004840Y005926D02*
X001980Y005926D01*
X001980Y005828D02*
X004840Y005828D01*
X004872Y005729D02*
X001980Y005729D01*
X001980Y005631D02*
X004913Y005631D01*
X004950Y005532D02*
X001980Y005532D01*
X001980Y005434D02*
X004950Y005434D01*
X004950Y005335D02*
X001980Y005335D01*
X001980Y005237D02*
X004950Y005237D01*
X004950Y005138D02*
X001980Y005138D01*
X001980Y005040D02*
X004950Y005040D01*
X004950Y004941D02*
X001980Y004941D01*
X001980Y004843D02*
X004950Y004843D01*
X004950Y004744D02*
X001980Y004744D01*
X001980Y004646D02*
X004950Y004646D01*
X004950Y004547D02*
X003607Y004547D01*
X003581Y004547D02*
X003481Y004547D01*
X003481Y004549D02*
X003475Y004549D01*
X003364Y004537D01*
X003254Y004512D01*
X003148Y004475D01*
X003047Y004426D01*
X002952Y004366D01*
X002864Y004296D01*
X002785Y004217D01*
X002715Y004129D01*
X002655Y004034D01*
X002606Y003932D01*
X002569Y003826D01*
X002544Y003717D01*
X002531Y003605D01*
X002531Y003599D01*
X003481Y003599D01*
X003481Y004549D01*
X003456Y004547D02*
X001980Y004547D01*
X001980Y004449D02*
X003094Y004449D01*
X002932Y004350D02*
X001980Y004350D01*
X001980Y004252D02*
X002820Y004252D01*
X002734Y004153D02*
X001980Y004153D01*
X001980Y004055D02*
X002668Y004055D01*
X002617Y003956D02*
X001980Y003956D01*
X001980Y003858D02*
X002580Y003858D01*
X002554Y003759D02*
X001980Y003759D01*
X001980Y003661D02*
X002538Y003661D01*
X002535Y003464D02*
X001980Y003464D01*
X001980Y003562D02*
X003481Y003562D01*
X003481Y003661D02*
X003581Y003661D01*
X003581Y003759D02*
X003481Y003759D01*
X003481Y003858D02*
X003581Y003858D01*
X003581Y003956D02*
X003481Y003956D01*
X003481Y004055D02*
X003581Y004055D01*
X003581Y004153D02*
X003481Y004153D01*
X003481Y004252D02*
X003581Y004252D01*
X003581Y004350D02*
X003481Y004350D01*
X003481Y004449D02*
X003581Y004449D01*
X003969Y004449D02*
X004950Y004449D01*
X004950Y004350D02*
X004131Y004350D01*
X004243Y004252D02*
X004950Y004252D01*
X004950Y004153D02*
X004329Y004153D01*
X004395Y004055D02*
X004950Y004055D01*
X004959Y003956D02*
X004446Y003956D01*
X004483Y003858D02*
X004939Y003858D01*
X004898Y003759D02*
X004509Y003759D01*
X004525Y003661D02*
X004894Y003661D01*
X004457Y002676D02*
X004021Y002676D01*
X003297Y002577D02*
X001980Y002577D01*
X001980Y002676D02*
X003042Y002676D01*
X002900Y002774D02*
X001980Y002774D01*
X001980Y002873D02*
X002794Y002873D01*
X002714Y002971D02*
X001980Y002971D01*
X001980Y003070D02*
X002653Y003070D01*
X002605Y003168D02*
X001980Y003168D01*
X001980Y003267D02*
X002571Y003267D01*
X002548Y003365D02*
X001980Y003365D01*
X003353Y006320D02*
X005020Y006320D01*
X005182Y006419D02*
X003431Y006419D01*
X001980Y007404D02*
X005426Y007404D01*
X005466Y007502D02*
X001980Y007502D01*
X001980Y007601D02*
X005558Y007601D01*
X005562Y007699D02*
X001980Y007699D01*
X001980Y007798D02*
X005562Y007798D01*
X005562Y007896D02*
X001980Y007896D01*
X001980Y007995D02*
X005503Y007995D01*
X005444Y008093D02*
X001980Y008093D01*
X001980Y008192D02*
X002409Y008192D01*
X002400Y008201D02*
X002488Y008113D01*
X003412Y008113D01*
X003500Y008201D01*
X003500Y009125D01*
X003412Y009213D01*
X002488Y009213D01*
X002400Y009125D01*
X002400Y008201D01*
X002400Y008290D02*
X001980Y008290D01*
X001980Y008389D02*
X002400Y008389D01*
X002400Y008487D02*
X001980Y008487D01*
X001980Y008586D02*
X002400Y008586D01*
X002400Y008684D02*
X001980Y008684D01*
X001980Y008783D02*
X002400Y008783D01*
X002400Y008881D02*
X001980Y008881D01*
X001980Y008980D02*
X002400Y008980D01*
X002400Y009078D02*
X001980Y009078D01*
X001980Y009177D02*
X002451Y009177D01*
X001980Y009275D02*
X006239Y009275D01*
X006141Y009374D02*
X001980Y009374D01*
X001980Y009472D02*
X006042Y009472D01*
X005944Y009571D02*
X001980Y009571D01*
X001980Y009669D02*
X005845Y009669D01*
X005747Y009768D02*
X001980Y009768D01*
X001980Y009866D02*
X005705Y009866D01*
X005705Y009965D02*
X001980Y009965D01*
X001980Y010063D02*
X005705Y010063D01*
X005705Y010162D02*
X001980Y010162D01*
X001980Y010260D02*
X005705Y010260D01*
X005705Y010359D02*
X001980Y010359D01*
X001980Y010457D02*
X005705Y010457D01*
X005705Y010556D02*
X001980Y010556D01*
X001980Y010654D02*
X005705Y010654D01*
X005705Y010753D02*
X003122Y010753D01*
X003059Y010726D02*
X003261Y010810D01*
X003416Y010965D01*
X003500Y011167D01*
X003500Y011386D01*
X003416Y011588D01*
X003261Y011743D01*
X003059Y011826D01*
X002840Y011826D01*
X002638Y011743D01*
X002484Y011588D01*
X002400Y011386D01*
X002400Y011167D01*
X002484Y010965D01*
X002638Y010810D01*
X002840Y010726D01*
X003059Y010726D01*
X002778Y010753D02*
X001980Y010753D01*
X001980Y010851D02*
X002597Y010851D01*
X002499Y010950D02*
X001980Y010950D01*
X001980Y011048D02*
X002449Y011048D01*
X002408Y011147D02*
X001980Y011147D01*
X001980Y011245D02*
X002400Y011245D01*
X002400Y011344D02*
X001980Y011344D01*
X001980Y011442D02*
X002423Y011442D01*
X002464Y011541D02*
X001980Y011541D01*
X001980Y011639D02*
X002535Y011639D01*
X002633Y011738D02*
X001980Y011738D01*
X001980Y011836D02*
X005705Y011836D01*
X005705Y011738D02*
X003267Y011738D01*
X003365Y011639D02*
X005705Y011639D01*
X005705Y011541D02*
X003436Y011541D01*
X003477Y011442D02*
X005705Y011442D01*
X005705Y011344D02*
X003500Y011344D01*
X003500Y011245D02*
X005705Y011245D01*
X005705Y011147D02*
X003491Y011147D01*
X003451Y011048D02*
X005705Y011048D01*
X005705Y010950D02*
X003401Y010950D01*
X003302Y010851D02*
X005705Y010851D01*
X006095Y010851D02*
X012215Y010851D01*
X012215Y010753D02*
X006095Y010753D01*
X006095Y010654D02*
X012215Y010654D01*
X012215Y010556D02*
X006095Y010556D01*
X006095Y010457D02*
X012215Y010457D01*
X012215Y010359D02*
X006095Y010359D01*
X006095Y010260D02*
X012215Y010260D01*
X012215Y010162D02*
X006095Y010162D01*
X006095Y010063D02*
X012215Y010063D01*
X012215Y009965D02*
X006101Y009965D01*
X006095Y009971D02*
X006095Y013833D01*
X006207Y013879D01*
X006353Y014026D01*
X006414Y014172D01*
X006430Y014121D01*
X006468Y014048D01*
X006516Y013982D01*
X006574Y013924D01*
X006640Y013876D01*
X006713Y013838D01*
X006791Y013813D01*
X006862Y013802D01*
X006862Y014270D01*
X006962Y014270D01*
X006962Y013802D01*
X007034Y013813D01*
X007112Y013838D01*
X007185Y013876D01*
X007251Y013924D01*
X007309Y013982D01*
X007357Y014048D01*
X007394Y014121D01*
X007411Y014172D01*
X007471Y014026D01*
X007618Y013879D01*
X007809Y013800D01*
X008016Y013800D01*
X008207Y013879D01*
X008353Y014026D01*
X008412Y014169D01*
X008471Y014026D01*
X008618Y013879D01*
X008809Y013800D01*
X009016Y013800D01*
X009207Y013879D01*
X009353Y014026D01*
X009412Y014169D01*
X009471Y014026D01*
X009618Y013879D01*
X009809Y013800D01*
X010016Y013800D01*
X010207Y013879D01*
X010353Y014026D01*
X010412Y014169D01*
X010471Y014026D01*
X010618Y013879D01*
X010809Y013800D01*
X011016Y013800D01*
X011207Y013879D01*
X011353Y014026D01*
X011412Y014169D01*
X011471Y014026D01*
X011618Y013879D01*
X011715Y013839D01*
X011715Y013749D01*
X011829Y013635D01*
X012215Y013249D01*
X012215Y008753D01*
X012207Y008761D01*
X012016Y008840D01*
X011809Y008840D01*
X011618Y008761D01*
X011605Y008748D01*
X011605Y008871D01*
X011215Y009261D01*
X011101Y009375D01*
X006691Y009375D01*
X006095Y009971D01*
X006200Y009866D02*
X012215Y009866D01*
X012215Y009768D02*
X006298Y009768D01*
X006397Y009669D02*
X012215Y009669D01*
X012215Y009571D02*
X006495Y009571D01*
X006594Y009472D02*
X012215Y009472D01*
X012215Y009374D02*
X011102Y009374D01*
X011201Y009275D02*
X012215Y009275D01*
X012215Y009177D02*
X011299Y009177D01*
X011398Y009078D02*
X012215Y009078D01*
X012215Y008980D02*
X011496Y008980D01*
X011595Y008881D02*
X012215Y008881D01*
X012215Y008783D02*
X012155Y008783D01*
X011669Y008783D02*
X011605Y008783D01*
X011043Y008881D02*
X003500Y008881D01*
X003500Y008783D02*
X005669Y008783D01*
X005541Y008684D02*
X003500Y008684D01*
X003500Y008586D02*
X005459Y008586D01*
X005418Y008487D02*
X003500Y008487D01*
X003500Y008389D02*
X005392Y008389D01*
X005392Y008290D02*
X003500Y008290D01*
X003490Y008192D02*
X005403Y008192D01*
X006262Y007935D02*
X006262Y007605D01*
X006353Y007514D01*
X006414Y007368D01*
X006430Y007419D01*
X006468Y007492D01*
X006516Y007559D01*
X006574Y007616D01*
X006640Y007665D01*
X006713Y007702D01*
X006791Y007727D01*
X006862Y007738D01*
X006862Y007270D01*
X006962Y007270D01*
X006962Y007738D01*
X007034Y007727D01*
X007112Y007702D01*
X007185Y007665D01*
X007251Y007616D01*
X007309Y007559D01*
X007357Y007492D01*
X007394Y007419D01*
X007411Y007368D01*
X007471Y007514D01*
X007562Y007605D01*
X007562Y007935D01*
X007471Y008026D01*
X007411Y008172D01*
X007394Y008121D01*
X007357Y008048D01*
X007309Y007982D01*
X007251Y007924D01*
X007185Y007876D01*
X007112Y007838D01*
X007034Y007813D01*
X006962Y007802D01*
X006962Y008270D01*
X006862Y008270D01*
X006862Y007802D01*
X006791Y007813D01*
X006713Y007838D01*
X006640Y007876D01*
X006574Y007924D01*
X006516Y007982D01*
X006468Y008048D01*
X006430Y008121D01*
X006414Y008172D01*
X006353Y008026D01*
X006262Y007935D01*
X006262Y007896D02*
X006612Y007896D01*
X006506Y007995D02*
X006322Y007995D01*
X006381Y008093D02*
X006444Y008093D01*
X006262Y007798D02*
X007562Y007798D01*
X007562Y007896D02*
X007213Y007896D01*
X007318Y007995D02*
X007503Y007995D01*
X007444Y008093D02*
X007380Y008093D01*
X006962Y008093D02*
X006862Y008093D01*
X006862Y007995D02*
X006962Y007995D01*
X006962Y007896D02*
X006862Y007896D01*
X006862Y007699D02*
X006962Y007699D01*
X006962Y007601D02*
X006862Y007601D01*
X006862Y007502D02*
X006962Y007502D01*
X006962Y007404D02*
X006862Y007404D01*
X006862Y007305D02*
X006962Y007305D01*
X007267Y007601D02*
X007558Y007601D01*
X007562Y007699D02*
X007117Y007699D01*
X007350Y007502D02*
X007466Y007502D01*
X007426Y007404D02*
X007399Y007404D01*
X007389Y007010D02*
X007437Y007010D01*
X007486Y006911D02*
X007331Y006911D01*
X007236Y006813D02*
X007584Y006813D01*
X007774Y006714D02*
X007039Y006714D01*
X006962Y006714D02*
X006862Y006714D01*
X006786Y006714D02*
X006384Y006714D01*
X006286Y006813D02*
X006588Y006813D01*
X006494Y006911D02*
X006339Y006911D01*
X006388Y007010D02*
X006436Y007010D01*
X006425Y007404D02*
X006399Y007404D01*
X006358Y007502D02*
X006475Y007502D01*
X006558Y007601D02*
X006267Y007601D01*
X006262Y007699D02*
X006707Y007699D01*
X006862Y008192D02*
X006962Y008192D01*
X006962Y008389D02*
X006862Y008389D01*
X006862Y008487D02*
X006962Y008487D01*
X006962Y008586D02*
X006862Y008586D01*
X006862Y008684D02*
X006962Y008684D01*
X006962Y008783D02*
X006862Y008783D01*
X006674Y008783D02*
X006155Y008783D01*
X006284Y008684D02*
X006541Y008684D01*
X006464Y008586D02*
X006365Y008586D01*
X006406Y008487D02*
X006420Y008487D01*
X006436Y009078D02*
X003500Y009078D01*
X003500Y008980D02*
X010945Y008980D01*
X010669Y008783D02*
X010155Y008783D01*
X010284Y008684D02*
X010541Y008684D01*
X010459Y008586D02*
X010365Y008586D01*
X010406Y008487D02*
X010418Y008487D01*
X009669Y008783D02*
X009155Y008783D01*
X009284Y008684D02*
X009541Y008684D01*
X009459Y008586D02*
X009365Y008586D01*
X009406Y008487D02*
X009418Y008487D01*
X008669Y008783D02*
X008155Y008783D01*
X008284Y008684D02*
X008541Y008684D01*
X008459Y008586D02*
X008365Y008586D01*
X008406Y008487D02*
X008418Y008487D01*
X007669Y008783D02*
X007151Y008783D01*
X007284Y008684D02*
X007541Y008684D01*
X007459Y008586D02*
X007361Y008586D01*
X007405Y008487D02*
X007418Y008487D01*
X006338Y009177D02*
X003448Y009177D01*
X006095Y010950D02*
X012215Y010950D01*
X012215Y011048D02*
X006095Y011048D01*
X006095Y011147D02*
X012215Y011147D01*
X012215Y011245D02*
X006095Y011245D01*
X006095Y011344D02*
X012215Y011344D01*
X012215Y011442D02*
X006095Y011442D01*
X006095Y011541D02*
X012215Y011541D01*
X012215Y011639D02*
X006095Y011639D01*
X006095Y011738D02*
X012215Y011738D01*
X012215Y011836D02*
X006095Y011836D01*
X006095Y011935D02*
X012215Y011935D01*
X012215Y012033D02*
X006095Y012033D01*
X006095Y012132D02*
X012215Y012132D01*
X012215Y012230D02*
X006095Y012230D01*
X006095Y012329D02*
X012215Y012329D01*
X012215Y012427D02*
X006095Y012427D01*
X006095Y012526D02*
X012215Y012526D01*
X012215Y012624D02*
X006095Y012624D01*
X006095Y012723D02*
X012215Y012723D01*
X012215Y012821D02*
X006095Y012821D01*
X006095Y012920D02*
X012215Y012920D01*
X012215Y013018D02*
X006095Y013018D01*
X006095Y013117D02*
X012215Y013117D01*
X012215Y013215D02*
X006095Y013215D01*
X006095Y013314D02*
X012151Y013314D01*
X012052Y013412D02*
X006095Y013412D01*
X006095Y013511D02*
X011954Y013511D01*
X011855Y013609D02*
X006095Y013609D01*
X006095Y013708D02*
X011757Y013708D01*
X011715Y013806D02*
X011030Y013806D01*
X011232Y013905D02*
X011593Y013905D01*
X011494Y014003D02*
X011330Y014003D01*
X011385Y014102D02*
X011440Y014102D01*
X011910Y014318D02*
X011912Y014320D01*
X012910Y014318D02*
X012912Y014320D01*
X013385Y014102D02*
X013440Y014102D01*
X013412Y014169D02*
X013471Y014026D01*
X013618Y013879D01*
X013809Y013800D01*
X014016Y013800D01*
X014207Y013879D01*
X014353Y014026D01*
X014412Y014169D01*
X014471Y014026D01*
X014618Y013879D01*
X014809Y013800D01*
X015016Y013800D01*
X015207Y013879D01*
X015353Y014026D01*
X015412Y014169D01*
X015471Y014026D01*
X015618Y013879D01*
X015809Y013800D01*
X016016Y013800D01*
X016207Y013879D01*
X016353Y014026D01*
X016412Y014169D01*
X016471Y014026D01*
X016618Y013879D01*
X016715Y013839D01*
X016715Y013699D01*
X017215Y013199D01*
X017215Y008753D01*
X017207Y008761D01*
X017016Y008840D01*
X016809Y008840D01*
X016618Y008761D01*
X016605Y008748D01*
X016605Y008791D01*
X016105Y009291D01*
X016105Y009291D01*
X015991Y009405D01*
X013941Y009405D01*
X013775Y009571D01*
X013775Y011811D01*
X013105Y012481D01*
X013105Y013837D01*
X013207Y013879D01*
X013353Y014026D01*
X013412Y014169D01*
X013330Y014003D02*
X013494Y014003D01*
X013593Y013905D02*
X013232Y013905D01*
X013105Y013806D02*
X013795Y013806D01*
X014030Y013806D02*
X014795Y013806D01*
X014593Y013905D02*
X014232Y013905D01*
X014330Y014003D02*
X014494Y014003D01*
X014440Y014102D02*
X014385Y014102D01*
X015030Y013806D02*
X015795Y013806D01*
X015593Y013905D02*
X015232Y013905D01*
X015330Y014003D02*
X015494Y014003D01*
X015440Y014102D02*
X015385Y014102D01*
X016030Y013806D02*
X016715Y013806D01*
X016715Y013708D02*
X013105Y013708D01*
X013105Y013609D02*
X016805Y013609D01*
X016904Y013511D02*
X013105Y013511D01*
X013105Y013412D02*
X017002Y013412D01*
X017101Y013314D02*
X013105Y013314D01*
X013105Y013215D02*
X017199Y013215D01*
X017215Y013117D02*
X013105Y013117D01*
X013105Y013018D02*
X017215Y013018D01*
X017215Y012920D02*
X013105Y012920D01*
X013105Y012821D02*
X017215Y012821D01*
X017215Y012723D02*
X013105Y012723D01*
X013105Y012624D02*
X017215Y012624D01*
X017215Y012526D02*
X013105Y012526D01*
X013159Y012427D02*
X017215Y012427D01*
X017215Y012329D02*
X013257Y012329D01*
X013356Y012230D02*
X017215Y012230D01*
X017215Y012132D02*
X013454Y012132D01*
X013553Y012033D02*
X017215Y012033D01*
X017215Y011935D02*
X013651Y011935D01*
X013750Y011836D02*
X017215Y011836D01*
X017215Y011738D02*
X013775Y011738D01*
X013775Y011639D02*
X017215Y011639D01*
X017215Y011541D02*
X013775Y011541D01*
X013775Y011442D02*
X017215Y011442D01*
X017215Y011344D02*
X013775Y011344D01*
X013775Y011245D02*
X017215Y011245D01*
X017215Y011147D02*
X013775Y011147D01*
X013775Y011048D02*
X017215Y011048D01*
X017215Y010950D02*
X013775Y010950D01*
X013775Y010851D02*
X017215Y010851D01*
X017215Y010753D02*
X013775Y010753D01*
X013775Y010654D02*
X017215Y010654D01*
X017215Y010556D02*
X013775Y010556D01*
X013775Y010457D02*
X017215Y010457D01*
X017215Y010359D02*
X013775Y010359D01*
X013775Y010260D02*
X017215Y010260D01*
X017215Y010162D02*
X013775Y010162D01*
X013775Y010063D02*
X017215Y010063D01*
X017215Y009965D02*
X013775Y009965D01*
X013775Y009866D02*
X017215Y009866D01*
X017215Y009768D02*
X013775Y009768D01*
X013775Y009669D02*
X017215Y009669D01*
X017215Y009571D02*
X013775Y009571D01*
X013874Y009472D02*
X017215Y009472D01*
X017215Y009374D02*
X016022Y009374D01*
X016121Y009275D02*
X017215Y009275D01*
X017215Y009177D02*
X016219Y009177D01*
X016318Y009078D02*
X017215Y009078D01*
X017215Y008980D02*
X016416Y008980D01*
X016515Y008881D02*
X017215Y008881D01*
X017215Y008783D02*
X017155Y008783D01*
X016669Y008783D02*
X016605Y008783D01*
X015412Y007068D02*
X015471Y006925D01*
X015618Y006779D01*
X015809Y006700D01*
X016016Y006700D01*
X016025Y006704D01*
X016025Y006347D01*
X015924Y006449D01*
X015773Y006511D01*
X015610Y006511D01*
X015459Y006449D01*
X015344Y006333D01*
X015281Y006183D01*
X015281Y005500D01*
X015344Y005349D01*
X015384Y005308D01*
X015366Y005290D01*
X014980Y005290D01*
X015004Y005314D01*
X015042Y005366D01*
X015071Y005424D01*
X015091Y005485D01*
X015101Y005549D01*
X015101Y005811D01*
X014721Y005811D01*
X014721Y005871D01*
X014661Y005871D01*
X014661Y005811D01*
X014281Y005811D01*
X014281Y005549D01*
X014291Y005485D01*
X014311Y005424D01*
X014341Y005366D01*
X014379Y005314D01*
X014403Y005290D01*
X013980Y005290D01*
X014004Y005314D01*
X014042Y005366D01*
X014071Y005424D01*
X014091Y005485D01*
X014101Y005549D01*
X014101Y005811D01*
X013721Y005811D01*
X013721Y005871D01*
X013661Y005871D01*
X013661Y005811D01*
X013281Y005811D01*
X013281Y005549D01*
X013291Y005485D01*
X013311Y005424D01*
X013341Y005366D01*
X013379Y005314D01*
X013403Y005290D01*
X012980Y005290D01*
X013039Y005349D01*
X013101Y005500D01*
X013101Y006183D01*
X013039Y006333D01*
X012924Y006449D01*
X012773Y006511D01*
X012610Y006511D01*
X012459Y006449D01*
X012415Y006405D01*
X012415Y006599D01*
X012491Y006675D01*
X012605Y006789D01*
X012605Y006792D01*
X012618Y006779D01*
X012809Y006700D01*
X013016Y006700D01*
X013207Y006779D01*
X013353Y006925D01*
X013412Y007068D01*
X013471Y006925D01*
X013618Y006779D01*
X013809Y006700D01*
X014016Y006700D01*
X014207Y006779D01*
X014353Y006925D01*
X014412Y007068D01*
X014471Y006925D01*
X014618Y006779D01*
X014809Y006700D01*
X015016Y006700D01*
X015207Y006779D01*
X015353Y006925D01*
X015412Y007068D01*
X015388Y007010D02*
X015437Y007010D01*
X015486Y006911D02*
X015339Y006911D01*
X015240Y006813D02*
X015584Y006813D01*
X015774Y006714D02*
X015050Y006714D01*
X014774Y006714D02*
X014050Y006714D01*
X014240Y006813D02*
X014584Y006813D01*
X014486Y006911D02*
X014339Y006911D01*
X014388Y007010D02*
X014437Y007010D01*
X014595Y006501D02*
X014534Y006481D01*
X014476Y006452D01*
X014424Y006414D01*
X014379Y006368D01*
X014341Y006316D01*
X014311Y006258D01*
X014291Y006197D01*
X014281Y006133D01*
X014281Y005871D01*
X014661Y005871D01*
X014661Y006511D01*
X014659Y006511D01*
X014595Y006501D01*
X014661Y006419D02*
X014721Y006419D01*
X014721Y006511D02*
X014721Y005871D01*
X015101Y005871D01*
X015101Y006133D01*
X015091Y006197D01*
X015071Y006258D01*
X015042Y006316D01*
X015004Y006368D01*
X014958Y006414D01*
X014906Y006452D01*
X014849Y006481D01*
X014787Y006501D01*
X014724Y006511D01*
X014721Y006511D01*
X014721Y006320D02*
X014661Y006320D01*
X014661Y006222D02*
X014721Y006222D01*
X014721Y006123D02*
X014661Y006123D01*
X014661Y006025D02*
X014721Y006025D01*
X014721Y005926D02*
X014661Y005926D01*
X014661Y005828D02*
X013721Y005828D01*
X013721Y005871D02*
X014101Y005871D01*
X014101Y006133D01*
X014091Y006197D01*
X014071Y006258D01*
X014042Y006316D01*
X014004Y006368D01*
X013958Y006414D01*
X013906Y006452D01*
X013849Y006481D01*
X013787Y006501D01*
X013724Y006511D01*
X013721Y006511D01*
X013721Y005871D01*
X013721Y005926D02*
X013661Y005926D01*
X013661Y005871D02*
X013661Y006511D01*
X013659Y006511D01*
X013595Y006501D01*
X013534Y006481D01*
X013476Y006452D01*
X013424Y006414D01*
X013379Y006368D01*
X013341Y006316D01*
X013311Y006258D01*
X013291Y006197D01*
X013281Y006133D01*
X013281Y005871D01*
X013661Y005871D01*
X013661Y005828D02*
X013101Y005828D01*
X013101Y005926D02*
X013281Y005926D01*
X013281Y006025D02*
X013101Y006025D01*
X013101Y006123D02*
X013281Y006123D01*
X013299Y006222D02*
X013085Y006222D01*
X013044Y006320D02*
X013344Y006320D01*
X013431Y006419D02*
X012954Y006419D01*
X013050Y006714D02*
X013774Y006714D01*
X013584Y006813D02*
X013240Y006813D01*
X013339Y006911D02*
X013486Y006911D01*
X013437Y007010D02*
X013388Y007010D01*
X012774Y006714D02*
X012530Y006714D01*
X012431Y006616D02*
X016025Y006616D01*
X016025Y006517D02*
X012415Y006517D01*
X012415Y006419D02*
X012429Y006419D01*
X013101Y005729D02*
X013281Y005729D01*
X013281Y005631D02*
X013101Y005631D01*
X013101Y005532D02*
X013284Y005532D01*
X013308Y005434D02*
X013074Y005434D01*
X013025Y005335D02*
X013363Y005335D01*
X012888Y004790D02*
X015520Y004790D01*
X015612Y004828D01*
X015832Y005048D01*
X015902Y005118D01*
X015940Y005210D01*
X015940Y005250D01*
X016025Y005335D01*
X016025Y005335D01*
X016025Y003347D01*
X015924Y003449D01*
X015773Y003511D01*
X015610Y003511D01*
X015459Y003449D01*
X015344Y003333D01*
X015281Y003183D01*
X015281Y002500D01*
X015344Y002349D01*
X015353Y002340D01*
X015023Y002340D01*
X015042Y002366D01*
X015071Y002424D01*
X015091Y002485D01*
X015101Y002549D01*
X015101Y002811D01*
X014721Y002811D01*
X014721Y002871D01*
X014661Y002871D01*
X014661Y002811D01*
X014281Y002811D01*
X014281Y002549D01*
X014291Y002485D01*
X014311Y002424D01*
X014341Y002366D01*
X014360Y002340D01*
X014023Y002340D01*
X014042Y002366D01*
X014071Y002424D01*
X014091Y002485D01*
X014101Y002549D01*
X014101Y002811D01*
X013721Y002811D01*
X013721Y002871D01*
X013661Y002871D01*
X013661Y002811D01*
X013281Y002811D01*
X013281Y002549D01*
X013291Y002485D01*
X013311Y002424D01*
X013341Y002366D01*
X013360Y002340D01*
X013030Y002340D01*
X013039Y002349D01*
X013101Y002500D01*
X013101Y003183D01*
X013039Y003333D01*
X012924Y003449D01*
X012773Y003511D01*
X012610Y003511D01*
X012459Y003449D01*
X012344Y003333D01*
X012281Y003183D01*
X012281Y002500D01*
X012344Y002349D01*
X012353Y002340D01*
X012030Y002340D01*
X012039Y002349D01*
X012101Y002500D01*
X012101Y003183D01*
X012039Y003333D01*
X011924Y003449D01*
X011886Y003464D01*
X011886Y004680D01*
X012301Y005095D01*
X012415Y005209D01*
X012415Y005278D01*
X012457Y005235D01*
X012437Y005216D01*
X012390Y005102D01*
X012390Y004978D01*
X012437Y004864D01*
X012524Y004777D01*
X012638Y004730D01*
X012762Y004730D01*
X012876Y004777D01*
X012888Y004790D01*
X012795Y004744D02*
X016025Y004744D01*
X016025Y004646D02*
X011886Y004646D01*
X011886Y004547D02*
X016025Y004547D01*
X016025Y004449D02*
X011886Y004449D01*
X011886Y004350D02*
X016025Y004350D01*
X016025Y004252D02*
X011886Y004252D01*
X011886Y004153D02*
X016025Y004153D01*
X016025Y004055D02*
X011886Y004055D01*
X011886Y003956D02*
X016025Y003956D01*
X016025Y003858D02*
X011886Y003858D01*
X011886Y003759D02*
X016025Y003759D01*
X016025Y003661D02*
X011886Y003661D01*
X011886Y003562D02*
X016025Y003562D01*
X016025Y003464D02*
X015888Y003464D01*
X016007Y003365D02*
X016025Y003365D01*
X015495Y003464D02*
X014883Y003464D01*
X014906Y003452D02*
X014849Y003481D01*
X014787Y003501D01*
X014724Y003511D01*
X014721Y003511D01*
X014721Y002871D01*
X015101Y002871D01*
X015101Y003133D01*
X015091Y003197D01*
X015071Y003258D01*
X015042Y003316D01*
X015004Y003368D01*
X014958Y003414D01*
X014906Y003452D01*
X015006Y003365D02*
X015375Y003365D01*
X015316Y003267D02*
X015067Y003267D01*
X015096Y003168D02*
X015281Y003168D01*
X015281Y003070D02*
X015101Y003070D01*
X015101Y002971D02*
X015281Y002971D01*
X015281Y002873D02*
X015101Y002873D01*
X015101Y002774D02*
X015281Y002774D01*
X015281Y002676D02*
X015101Y002676D01*
X015101Y002577D02*
X015281Y002577D01*
X015290Y002479D02*
X015089Y002479D01*
X015049Y002380D02*
X015331Y002380D01*
X014721Y002873D02*
X014661Y002873D01*
X014661Y002871D02*
X014661Y003511D01*
X014659Y003511D01*
X014595Y003501D01*
X014534Y003481D01*
X014476Y003452D01*
X014424Y003414D01*
X014379Y003368D01*
X014341Y003316D01*
X014311Y003258D01*
X014291Y003197D01*
X014281Y003133D01*
X014281Y002871D01*
X014661Y002871D01*
X014661Y002971D02*
X014721Y002971D01*
X014721Y003070D02*
X014661Y003070D01*
X014661Y003168D02*
X014721Y003168D01*
X014721Y003267D02*
X014661Y003267D01*
X014661Y003365D02*
X014721Y003365D01*
X014721Y003464D02*
X014661Y003464D01*
X014499Y003464D02*
X013883Y003464D01*
X013906Y003452D02*
X013849Y003481D01*
X013787Y003501D01*
X013724Y003511D01*
X013721Y003511D01*
X013721Y002871D01*
X014101Y002871D01*
X014101Y003133D01*
X014091Y003197D01*
X014071Y003258D01*
X014042Y003316D01*
X014004Y003368D01*
X013958Y003414D01*
X013906Y003452D01*
X014006Y003365D02*
X014376Y003365D01*
X014315Y003267D02*
X014067Y003267D01*
X014096Y003168D02*
X014287Y003168D01*
X014281Y003070D02*
X014101Y003070D01*
X014101Y002971D02*
X014281Y002971D01*
X014281Y002873D02*
X014101Y002873D01*
X014101Y002774D02*
X014281Y002774D01*
X014281Y002676D02*
X014101Y002676D01*
X014101Y002577D02*
X014281Y002577D01*
X014293Y002479D02*
X014089Y002479D01*
X014049Y002380D02*
X014334Y002380D01*
X014642Y001880D02*
X013693Y001880D01*
X013744Y001829D01*
X013823Y001638D01*
X013823Y001431D01*
X013744Y001240D01*
X013598Y001094D01*
X013406Y001015D01*
X013200Y001015D01*
X013008Y001094D01*
X012862Y001240D01*
X012803Y001383D01*
X012744Y001240D01*
X012598Y001094D01*
X012406Y001015D01*
X012200Y001015D01*
X012008Y001094D01*
X011862Y001240D01*
X011803Y001383D01*
X011744Y001240D01*
X011598Y001094D01*
X011406Y001015D01*
X011200Y001015D01*
X011175Y001025D01*
X010850Y000700D01*
X017206Y000700D01*
X017002Y000904D01*
X016874Y001213D01*
X016874Y001547D01*
X017002Y001856D01*
X017026Y001880D01*
X016422Y001880D01*
X016429Y001874D01*
X016477Y001807D01*
X016514Y001734D01*
X016539Y001657D01*
X016551Y001585D01*
X016082Y001585D01*
X016082Y001485D01*
X016551Y001485D01*
X016539Y001413D01*
X016514Y001335D01*
X016477Y001262D01*
X016429Y001196D01*
X016371Y001138D01*
X016305Y001090D01*
X016232Y001053D01*
X016154Y001028D01*
X016082Y001016D01*
X016082Y001485D01*
X015982Y001485D01*
X015982Y001016D01*
X015910Y001028D01*
X015832Y001053D01*
X015759Y001090D01*
X015693Y001138D01*
X015635Y001196D01*
X015587Y001262D01*
X015550Y001335D01*
X015533Y001387D01*
X015473Y001240D01*
X015327Y001094D01*
X015135Y001015D01*
X014929Y001015D01*
X014737Y001094D01*
X014591Y001240D01*
X014512Y001431D01*
X014512Y001638D01*
X014591Y001829D01*
X014642Y001880D01*
X014574Y001789D02*
X013761Y001789D01*
X013801Y001691D02*
X014534Y001691D01*
X014512Y001592D02*
X013823Y001592D01*
X013823Y001494D02*
X014512Y001494D01*
X014527Y001395D02*
X013808Y001395D01*
X013767Y001297D02*
X014568Y001297D01*
X014633Y001198D02*
X013702Y001198D01*
X013603Y001100D02*
X014732Y001100D01*
X015332Y001100D02*
X015747Y001100D01*
X015634Y001198D02*
X015431Y001198D01*
X015496Y001297D02*
X015570Y001297D01*
X015982Y001297D02*
X016082Y001297D01*
X016082Y001395D02*
X015982Y001395D01*
X016082Y001494D02*
X016874Y001494D01*
X016874Y001395D02*
X016533Y001395D01*
X016494Y001297D02*
X016874Y001297D01*
X016880Y001198D02*
X016430Y001198D01*
X016317Y001100D02*
X016921Y001100D01*
X016961Y001001D02*
X011151Y001001D01*
X011052Y000903D02*
X017003Y000903D01*
X017102Y000804D02*
X010954Y000804D01*
X010855Y000706D02*
X017200Y000706D01*
X016892Y001592D02*
X016549Y001592D01*
X016528Y001691D02*
X016933Y001691D01*
X016974Y001789D02*
X016486Y001789D01*
X016082Y001198D02*
X015982Y001198D01*
X015982Y001100D02*
X016082Y001100D01*
X013721Y002873D02*
X013661Y002873D01*
X013661Y002871D02*
X013661Y003511D01*
X013659Y003511D01*
X013595Y003501D01*
X013534Y003481D01*
X013476Y003452D01*
X013424Y003414D01*
X013379Y003368D01*
X013341Y003316D01*
X013311Y003258D01*
X013291Y003197D01*
X013281Y003133D01*
X013281Y002871D01*
X013661Y002871D01*
X013661Y002971D02*
X013721Y002971D01*
X013721Y003070D02*
X013661Y003070D01*
X013661Y003168D02*
X013721Y003168D01*
X013721Y003267D02*
X013661Y003267D01*
X013661Y003365D02*
X013721Y003365D01*
X013721Y003464D02*
X013661Y003464D01*
X013499Y003464D02*
X012888Y003464D01*
X013007Y003365D02*
X013376Y003365D01*
X013315Y003267D02*
X013067Y003267D01*
X013101Y003168D02*
X013287Y003168D01*
X013281Y003070D02*
X013101Y003070D01*
X013101Y002971D02*
X013281Y002971D01*
X013281Y002873D02*
X013101Y002873D01*
X013101Y002774D02*
X013281Y002774D01*
X013281Y002676D02*
X013101Y002676D01*
X013101Y002577D02*
X013281Y002577D01*
X013293Y002479D02*
X013093Y002479D01*
X013052Y002380D02*
X013334Y002380D01*
X012331Y002380D02*
X012052Y002380D01*
X012093Y002479D02*
X012290Y002479D01*
X012281Y002577D02*
X012101Y002577D01*
X012101Y002676D02*
X012281Y002676D01*
X012281Y002774D02*
X012101Y002774D01*
X012101Y002873D02*
X012281Y002873D01*
X012281Y002971D02*
X012101Y002971D01*
X012101Y003070D02*
X012281Y003070D01*
X012281Y003168D02*
X012101Y003168D01*
X012067Y003267D02*
X012316Y003267D01*
X012375Y003365D02*
X012007Y003365D01*
X011888Y003464D02*
X012495Y003464D01*
X012605Y004744D02*
X011950Y004744D01*
X012048Y004843D02*
X012459Y004843D01*
X012405Y004941D02*
X012147Y004941D01*
X012245Y005040D02*
X012390Y005040D01*
X012405Y005138D02*
X012344Y005138D01*
X012415Y005237D02*
X012456Y005237D01*
X013661Y006025D02*
X013721Y006025D01*
X013721Y006123D02*
X013661Y006123D01*
X013661Y006222D02*
X013721Y006222D01*
X013721Y006320D02*
X013661Y006320D01*
X013661Y006419D02*
X013721Y006419D01*
X013952Y006419D02*
X014431Y006419D01*
X014344Y006320D02*
X014039Y006320D01*
X014083Y006222D02*
X014299Y006222D01*
X014281Y006123D02*
X014101Y006123D01*
X014101Y006025D02*
X014281Y006025D01*
X014281Y005926D02*
X014101Y005926D01*
X014101Y005729D02*
X014281Y005729D01*
X014281Y005631D02*
X014101Y005631D01*
X014099Y005532D02*
X014284Y005532D01*
X014308Y005434D02*
X014074Y005434D01*
X014019Y005335D02*
X014363Y005335D01*
X014721Y005828D02*
X015281Y005828D01*
X015281Y005926D02*
X015101Y005926D01*
X015101Y006025D02*
X015281Y006025D01*
X015281Y006123D02*
X015101Y006123D01*
X015083Y006222D02*
X015297Y006222D01*
X015338Y006320D02*
X015039Y006320D01*
X014952Y006419D02*
X015429Y006419D01*
X015954Y006419D02*
X016025Y006419D01*
X015281Y005729D02*
X015101Y005729D01*
X015101Y005631D02*
X015281Y005631D01*
X015281Y005532D02*
X015099Y005532D01*
X015074Y005434D02*
X015309Y005434D01*
X015358Y005335D02*
X015019Y005335D01*
X015626Y004843D02*
X016025Y004843D01*
X016025Y004941D02*
X015725Y004941D01*
X015823Y005040D02*
X016025Y005040D01*
X016025Y005138D02*
X015910Y005138D01*
X015940Y005237D02*
X016025Y005237D01*
X017161Y005841D02*
X017230Y005910D01*
X012839Y001297D02*
X012767Y001297D01*
X012702Y001198D02*
X012904Y001198D01*
X013003Y001100D02*
X012603Y001100D01*
X012003Y001100D02*
X011603Y001100D01*
X011702Y001198D02*
X011904Y001198D01*
X011839Y001297D02*
X011767Y001297D01*
X009570Y001789D02*
X009326Y001789D01*
X009376Y001691D02*
X009472Y001691D01*
X009570Y001888D02*
X009008Y001888D01*
X009012Y001888D02*
X009083Y001911D01*
X009150Y001945D01*
X009210Y001989D01*
X009263Y002042D01*
X009307Y002102D01*
X009341Y002169D01*
X009364Y002240D01*
X009376Y002314D01*
X009376Y002333D01*
X008920Y002333D01*
X008920Y001876D01*
X008938Y001876D01*
X009012Y001888D01*
X008920Y001888D02*
X008882Y001888D01*
X008882Y001986D02*
X008920Y001986D01*
X008920Y002085D02*
X008882Y002085D01*
X008882Y002183D02*
X008920Y002183D01*
X008920Y002282D02*
X008882Y002282D01*
X008882Y002380D02*
X008920Y002380D01*
X008920Y002479D02*
X008882Y002479D01*
X008882Y002577D02*
X008920Y002577D01*
X008920Y002676D02*
X008882Y002676D01*
X008882Y002774D02*
X008920Y002774D01*
X009118Y002774D02*
X009570Y002774D01*
X009570Y002676D02*
X009249Y002676D01*
X009319Y002577D02*
X009570Y002577D01*
X009570Y002479D02*
X009359Y002479D01*
X009376Y002380D02*
X009570Y002380D01*
X009570Y002282D02*
X009371Y002282D01*
X009346Y002183D02*
X009570Y002183D01*
X009570Y002085D02*
X009294Y002085D01*
X009206Y001986D02*
X009570Y001986D01*
X009627Y005434D02*
X009845Y005434D01*
X009760Y005532D02*
X009944Y005532D01*
X009846Y005631D02*
X010042Y005631D01*
X010141Y005729D02*
X009887Y005729D01*
X009920Y005828D02*
X010239Y005828D01*
X010281Y005926D02*
X009920Y005926D01*
X009919Y006025D02*
X010281Y006025D01*
X010281Y006123D02*
X009878Y006123D01*
X009837Y006222D02*
X010297Y006222D01*
X010338Y006320D02*
X009739Y006320D01*
X009577Y006419D02*
X010429Y006419D01*
X010774Y006714D02*
X010050Y006714D01*
X010240Y006813D02*
X010584Y006813D01*
X010486Y006911D02*
X010339Y006911D01*
X010388Y007010D02*
X010437Y007010D01*
X011015Y006616D02*
X006483Y006616D01*
X006581Y006517D02*
X011015Y006517D01*
X011015Y006419D02*
X010954Y006419D01*
X009774Y006714D02*
X009050Y006714D01*
X009240Y006813D02*
X009584Y006813D01*
X009486Y006911D02*
X009339Y006911D01*
X009388Y007010D02*
X009437Y007010D01*
X009182Y006419D02*
X006680Y006419D01*
X006778Y006320D02*
X009020Y006320D01*
X008774Y006714D02*
X008050Y006714D01*
X008240Y006813D02*
X008584Y006813D01*
X008486Y006911D02*
X008339Y006911D01*
X008388Y007010D02*
X008437Y007010D01*
X006962Y007010D02*
X006862Y007010D01*
X006862Y007108D02*
X006962Y007108D01*
X006962Y006911D02*
X006862Y006911D01*
X006862Y006813D02*
X006962Y006813D01*
X005705Y011935D02*
X001980Y011935D01*
X001980Y012033D02*
X005705Y012033D01*
X005705Y012132D02*
X001980Y012132D01*
X001980Y012230D02*
X005705Y012230D01*
X005705Y012329D02*
X001980Y012329D01*
X001980Y012427D02*
X005705Y012427D01*
X005705Y012526D02*
X001980Y012526D01*
X001980Y012624D02*
X005705Y012624D01*
X005705Y012723D02*
X003440Y012723D01*
X003412Y012695D02*
X003500Y012783D01*
X003500Y013707D01*
X003412Y013795D01*
X002488Y013795D01*
X002400Y013707D01*
X002400Y012783D01*
X002488Y012695D01*
X003412Y012695D01*
X003500Y012821D02*
X005705Y012821D01*
X005705Y012920D02*
X003500Y012920D01*
X003500Y013018D02*
X005705Y013018D01*
X005705Y013117D02*
X003500Y013117D01*
X003500Y013215D02*
X005705Y013215D01*
X005705Y013314D02*
X003500Y013314D01*
X003500Y013412D02*
X005705Y013412D01*
X005705Y013511D02*
X003500Y013511D01*
X003500Y013609D02*
X005705Y013609D01*
X005705Y013708D02*
X003499Y013708D01*
X003143Y014594D02*
X005463Y014594D01*
X005422Y014496D02*
X002958Y014496D01*
X003241Y014693D02*
X005549Y014693D01*
X005562Y014791D02*
X003340Y014791D01*
X003382Y014890D02*
X005562Y014890D01*
X005562Y014988D02*
X003423Y014988D01*
X003464Y015087D02*
X005511Y015087D01*
X005447Y015185D02*
X003470Y015185D01*
X003470Y015284D02*
X005406Y015284D01*
X005392Y015382D02*
X003470Y015382D01*
X003452Y015481D02*
X005392Y015481D01*
X005415Y015579D02*
X003411Y015579D01*
X003370Y015678D02*
X005456Y015678D01*
X005532Y015776D02*
X003311Y015776D01*
X002302Y014496D02*
X001980Y014496D01*
X001980Y014594D02*
X002117Y014594D01*
X002019Y014693D02*
X001980Y014693D01*
X001980Y014397D02*
X005392Y014397D01*
X005392Y014299D02*
X001980Y014299D01*
X001980Y014200D02*
X005399Y014200D01*
X005440Y014102D02*
X001980Y014102D01*
X001980Y014003D02*
X005494Y014003D01*
X005593Y013905D02*
X001980Y013905D01*
X001980Y013806D02*
X005705Y013806D01*
X006095Y013806D02*
X006835Y013806D01*
X006862Y013806D02*
X006962Y013806D01*
X006989Y013806D02*
X007795Y013806D01*
X007593Y013905D02*
X007225Y013905D01*
X007325Y014003D02*
X007494Y014003D01*
X007440Y014102D02*
X007384Y014102D01*
X007411Y014469D02*
X007394Y014520D01*
X007357Y014593D01*
X007309Y014659D01*
X007251Y014717D01*
X007185Y014765D01*
X007112Y014802D01*
X007034Y014828D01*
X006962Y014839D01*
X006962Y014370D01*
X006862Y014370D01*
X006862Y014839D01*
X006791Y014828D01*
X006713Y014802D01*
X006640Y014765D01*
X006574Y014717D01*
X006516Y014659D01*
X006468Y014593D01*
X006430Y014520D01*
X006414Y014469D01*
X006353Y014615D01*
X006262Y014706D01*
X006262Y015035D01*
X006353Y015126D01*
X006414Y015272D01*
X006430Y015221D01*
X006468Y015148D01*
X006516Y015082D01*
X006574Y015024D01*
X006640Y014976D01*
X006713Y014939D01*
X006791Y014913D01*
X006862Y014902D01*
X006862Y015371D01*
X006962Y015371D01*
X006962Y014902D01*
X007034Y014913D01*
X007112Y014939D01*
X007185Y014976D01*
X007251Y015024D01*
X007309Y015082D01*
X007357Y015148D01*
X007394Y015221D01*
X007411Y015272D01*
X007471Y015126D01*
X007562Y015035D01*
X007562Y014706D01*
X007471Y014615D01*
X007411Y014469D01*
X007402Y014496D02*
X007422Y014496D01*
X007463Y014594D02*
X007356Y014594D01*
X007275Y014693D02*
X007549Y014693D01*
X007562Y014791D02*
X007134Y014791D01*
X006962Y014791D02*
X006862Y014791D01*
X006862Y014693D02*
X006962Y014693D01*
X006962Y014594D02*
X006862Y014594D01*
X006862Y014496D02*
X006962Y014496D01*
X006962Y014397D02*
X006862Y014397D01*
X006862Y014200D02*
X006962Y014200D01*
X006962Y014102D02*
X006862Y014102D01*
X006862Y014003D02*
X006962Y014003D01*
X006962Y013905D02*
X006862Y013905D01*
X006600Y013905D02*
X006232Y013905D01*
X006330Y014003D02*
X006500Y014003D01*
X006440Y014102D02*
X006385Y014102D01*
X006403Y014496D02*
X006422Y014496D01*
X006468Y014594D02*
X006362Y014594D01*
X006275Y014693D02*
X006549Y014693D01*
X006691Y014791D02*
X006262Y014791D01*
X006262Y014890D02*
X007562Y014890D01*
X007562Y014988D02*
X007202Y014988D01*
X007312Y015087D02*
X007511Y015087D01*
X007447Y015185D02*
X007376Y015185D01*
X006962Y015185D02*
X006862Y015185D01*
X006862Y015087D02*
X006962Y015087D01*
X006962Y014988D02*
X006862Y014988D01*
X006623Y014988D02*
X006262Y014988D01*
X006314Y015087D02*
X006512Y015087D01*
X006449Y015185D02*
X006378Y015185D01*
X006862Y015284D02*
X006962Y015284D01*
X005912Y014570D02*
X005900Y014558D01*
X008030Y013806D02*
X008795Y013806D01*
X008593Y013905D02*
X008232Y013905D01*
X008330Y014003D02*
X008494Y014003D01*
X008440Y014102D02*
X008385Y014102D01*
X009030Y013806D02*
X009795Y013806D01*
X009593Y013905D02*
X009232Y013905D01*
X009330Y014003D02*
X009494Y014003D01*
X009440Y014102D02*
X009385Y014102D01*
X010030Y013806D02*
X010795Y013806D01*
X010593Y013905D02*
X010232Y013905D01*
X010330Y014003D02*
X010494Y014003D01*
X010440Y014102D02*
X010385Y014102D01*
X016232Y013905D02*
X016593Y013905D01*
X016494Y014003D02*
X016330Y014003D01*
X016385Y014102D02*
X016440Y014102D01*
X016910Y014318D02*
X016912Y014320D01*
X002400Y013708D02*
X001980Y013708D01*
X001980Y013609D02*
X002400Y013609D01*
X002400Y013511D02*
X001980Y013511D01*
X001980Y013412D02*
X002400Y013412D01*
X002400Y013314D02*
X001980Y013314D01*
X001980Y013215D02*
X002400Y013215D01*
X002400Y013117D02*
X001980Y013117D01*
X001980Y013018D02*
X002400Y013018D01*
X002400Y012920D02*
X001980Y012920D01*
X001980Y012821D02*
X002400Y012821D01*
X002460Y012723D02*
X001980Y012723D01*
D23*
X007590Y004280D03*
X012700Y005040D03*
X013690Y004650D03*
X015220Y006530D03*
X015160Y012890D03*
X013340Y012890D03*
D24*
X010691Y002841D02*
X011422Y002110D01*
X017060Y002110D01*
X017691Y002741D01*
X017691Y002841D01*
D25*
X016691Y002841D02*
X016220Y003312D01*
X016220Y006630D01*
X016410Y006820D01*
X016410Y008710D01*
X015910Y009210D01*
X013860Y009210D01*
X013580Y009490D01*
X013580Y011730D01*
X012910Y012400D01*
X012910Y014318D01*
X011910Y014318D02*
X011910Y013830D01*
X012410Y013330D01*
X012410Y006870D01*
X012220Y006680D01*
X012220Y005290D01*
X011691Y004761D01*
X011691Y002841D01*
X010691Y002841D02*
X010691Y004311D01*
X011210Y004830D01*
X011210Y006610D01*
X011410Y006810D01*
X011410Y008790D01*
X011020Y009180D01*
X006610Y009180D01*
X005900Y009890D01*
X005900Y014558D01*
X016691Y005841D02*
X017161Y005841D01*
X017230Y005910D02*
X017230Y006600D01*
X017410Y006780D01*
X017410Y013280D01*
X016910Y013780D01*
X016910Y014318D01*
D26*
X015691Y005841D02*
X015690Y005840D01*
X015690Y005260D01*
X015470Y005040D01*
X012700Y005040D01*
M02*
