%
M48
M72
T01C0.0160
T02C0.0276
T03C0.0320
T04C0.0394
T05C0.0400
T06C0.0512
T07C0.1180
T08C0.1260
%
T01
X7590Y4280
X12700Y5040
X13690Y4650
X15220Y6530
X15160Y12890
X13340Y12890
T02
X8901Y2351
X8901Y1351
T03
X10691Y2841
X11691Y2841
X12691Y2841
X13691Y2841
X14691Y2841
X15691Y2841
X16691Y2841
X17691Y2841
X17691Y5841
X16691Y5841
X15691Y5841
X14691Y5841
X13691Y5841
X12691Y5841
X11691Y5841
X10691Y5841
T04
X9380Y5916
X5380Y5916
T05
X5912Y7220
X6912Y7220
X7912Y7220
X8912Y7220
X9912Y7220
X10912Y7220
X11912Y7220
X12912Y7220
X13912Y7220
X14912Y7220
X15912Y7220
X16912Y7220
X17912Y7220
X17912Y8320
X16912Y8320
X15912Y8320
X14912Y8320
X13912Y8320
X12912Y8320
X11912Y8320
X10912Y8320
X9912Y8320
X8912Y8320
X7912Y8320
X6912Y8320
X5912Y8320
X5912Y14320
X6912Y14320
X7912Y14320
X8912Y14320
X9912Y14320
X10912Y14320
X11912Y14320
X12912Y14320
X13912Y14320
X14912Y14320
X15912Y14320
X16912Y14320
X17912Y14320
X17912Y15421
X16912Y15421
X15912Y15421
X14912Y15421
X13912Y15421
X12912Y15421
X11912Y15421
X10912Y15421
X9912Y15421
X8912Y15421
X7912Y15421
X6912Y15421
X5912Y15421
X11303Y1535
X12303Y1535
X13303Y1535
X15032Y1535
X16032Y1535
T06
X2950Y6694
X2950Y8663
X2950Y11276
X2950Y13245
T07
X3531Y3549
X4713Y1699
X5894Y3549
T08
X17714Y1380
X2630Y15269
M30
