G75*
%MOIN*%
%OFA0B0*%
%FSLAX24Y24*%
%IPPOS*%
%LPD*%
%AMOC8*
5,1,8,0,0,1.08239X$1,22.5*
%
%ADD10C,0.0000*%
%ADD11C,0.0160*%
%ADD12C,0.0110*%
%ADD13R,0.0036X0.0003*%
%ADD14R,0.0072X0.0003*%
%ADD15R,0.0090X0.0003*%
%ADD16R,0.0108X0.0003*%
%ADD17R,0.0120X0.0003*%
%ADD18R,0.0132X0.0003*%
%ADD19R,0.0144X0.0003*%
%ADD20R,0.0156X0.0003*%
%ADD21R,0.0162X0.0003*%
%ADD22R,0.0171X0.0003*%
%ADD23R,0.0180X0.0003*%
%ADD24R,0.0186X0.0003*%
%ADD25R,0.0192X0.0003*%
%ADD26R,0.0198X0.0003*%
%ADD27R,0.0204X0.0003*%
%ADD28R,0.0210X0.0003*%
%ADD29R,0.0216X0.0003*%
%ADD30R,0.0222X0.0003*%
%ADD31R,0.0228X0.0003*%
%ADD32R,0.0231X0.0003*%
%ADD33R,0.0237X0.0003*%
%ADD34R,0.0243X0.0003*%
%ADD35R,0.0246X0.0003*%
%ADD36R,0.0252X0.0003*%
%ADD37R,0.0258X0.0003*%
%ADD38R,0.0261X0.0003*%
%ADD39R,0.0267X0.0003*%
%ADD40R,0.0270X0.0003*%
%ADD41R,0.0276X0.0003*%
%ADD42R,0.0279X0.0003*%
%ADD43R,0.0285X0.0003*%
%ADD44R,0.0288X0.0003*%
%ADD45R,0.0291X0.0003*%
%ADD46R,0.0297X0.0003*%
%ADD47R,0.0300X0.0003*%
%ADD48R,0.0303X0.0003*%
%ADD49R,0.0306X0.0003*%
%ADD50R,0.0312X0.0003*%
%ADD51R,0.0315X0.0003*%
%ADD52R,0.0318X0.0003*%
%ADD53R,0.0321X0.0003*%
%ADD54R,0.0324X0.0003*%
%ADD55R,0.0327X0.0003*%
%ADD56R,0.0333X0.0003*%
%ADD57R,0.0336X0.0003*%
%ADD58R,0.0339X0.0003*%
%ADD59R,0.0342X0.0003*%
%ADD60R,0.0345X0.0003*%
%ADD61R,0.0348X0.0003*%
%ADD62R,0.0351X0.0003*%
%ADD63R,0.0354X0.0003*%
%ADD64R,0.0357X0.0003*%
%ADD65R,0.0360X0.0003*%
%ADD66R,0.0363X0.0003*%
%ADD67R,0.0369X0.0003*%
%ADD68R,0.0372X0.0003*%
%ADD69R,0.0378X0.0003*%
%ADD70R,0.0381X0.0003*%
%ADD71R,0.0384X0.0003*%
%ADD72R,0.0387X0.0003*%
%ADD73R,0.0387X0.0003*%
%ADD74R,0.0390X0.0003*%
%ADD75R,0.0393X0.0003*%
%ADD76R,0.0396X0.0003*%
%ADD77R,0.0399X0.0003*%
%ADD78R,0.0402X0.0003*%
%ADD79R,0.0405X0.0003*%
%ADD80R,0.0408X0.0003*%
%ADD81R,0.0099X0.0003*%
%ADD82R,0.0141X0.0003*%
%ADD83R,0.0177X0.0003*%
%ADD84R,0.0201X0.0003*%
%ADD85R,0.0249X0.0003*%
%ADD86R,0.0417X0.0003*%
%ADD87R,0.0429X0.0003*%
%ADD88R,0.0435X0.0003*%
%ADD89R,0.0447X0.0003*%
%ADD90R,0.0459X0.0003*%
%ADD91R,0.0471X0.0003*%
%ADD92R,0.0477X0.0003*%
%ADD93R,0.0489X0.0003*%
%ADD94R,0.0495X0.0003*%
%ADD95R,0.0507X0.0003*%
%ADD96R,0.0513X0.0003*%
%ADD97R,0.0525X0.0003*%
%ADD98R,0.0531X0.0003*%
%ADD99R,0.0537X0.0003*%
%ADD100R,0.0549X0.0003*%
%ADD101R,0.0555X0.0003*%
%ADD102R,0.0561X0.0003*%
%ADD103R,0.0570X0.0003*%
%ADD104R,0.0579X0.0003*%
%ADD105R,0.0585X0.0003*%
%ADD106R,0.0591X0.0003*%
%ADD107R,0.0597X0.0003*%
%ADD108R,0.0603X0.0003*%
%ADD109R,0.0609X0.0003*%
%ADD110R,0.0618X0.0003*%
%ADD111R,0.0627X0.0003*%
%ADD112R,0.0633X0.0003*%
%ADD113R,0.0639X0.0003*%
%ADD114R,0.0645X0.0003*%
%ADD115R,0.0651X0.0003*%
%ADD116R,0.0654X0.0003*%
%ADD117R,0.0657X0.0003*%
%ADD118R,0.0663X0.0003*%
%ADD119R,0.0669X0.0003*%
%ADD120R,0.0675X0.0003*%
%ADD121R,0.0681X0.0003*%
%ADD122R,0.0687X0.0003*%
%ADD123R,0.0693X0.0003*%
%ADD124R,0.0699X0.0003*%
%ADD125R,0.0705X0.0003*%
%ADD126R,0.0711X0.0003*%
%ADD127R,0.0717X0.0003*%
%ADD128R,0.0720X0.0003*%
%ADD129R,0.0723X0.0003*%
%ADD130R,0.0729X0.0003*%
%ADD131R,0.0735X0.0003*%
%ADD132R,0.0741X0.0003*%
%ADD133R,0.0747X0.0003*%
%ADD134R,0.0753X0.0003*%
%ADD135R,0.0759X0.0003*%
%ADD136R,0.0765X0.0003*%
%ADD137R,0.0771X0.0003*%
%ADD138R,0.0777X0.0003*%
%ADD139R,0.0783X0.0003*%
%ADD140R,0.0789X0.0003*%
%ADD141R,0.0795X0.0003*%
%ADD142R,0.0801X0.0003*%
%ADD143R,0.0807X0.0003*%
%ADD144R,0.0813X0.0003*%
%ADD145R,0.0819X0.0003*%
%ADD146R,0.0825X0.0003*%
%ADD147R,0.0831X0.0003*%
%ADD148R,0.0837X0.0003*%
%ADD149R,0.0840X0.0003*%
%ADD150R,0.0843X0.0003*%
%ADD151R,0.0849X0.0003*%
%ADD152R,0.0855X0.0003*%
%ADD153R,0.0861X0.0003*%
%ADD154R,0.0867X0.0003*%
%ADD155R,0.0873X0.0003*%
%ADD156R,0.0879X0.0003*%
%ADD157R,0.0885X0.0003*%
%ADD158R,0.0402X0.0003*%
%ADD159R,0.0888X0.0003*%
%ADD160R,0.0891X0.0003*%
%ADD161R,0.0894X0.0003*%
%ADD162R,0.0897X0.0003*%
%ADD163R,0.0384X0.0003*%
%ADD164R,0.0375X0.0003*%
%ADD165R,0.0366X0.0003*%
%ADD166R,0.0903X0.0003*%
%ADD167R,0.0900X0.0003*%
%ADD168R,0.0870X0.0003*%
%ADD169R,0.0726X0.0003*%
%ADD170R,0.0678X0.0003*%
%ADD171R,0.0621X0.0003*%
%ADD172R,0.0615X0.0003*%
%ADD173R,0.0594X0.0003*%
%ADD174R,0.0573X0.0003*%
%ADD175R,0.0567X0.0003*%
%ADD176R,0.0558X0.0003*%
%ADD177R,0.0543X0.0003*%
%ADD178R,0.0519X0.0003*%
%ADD179R,0.0501X0.0003*%
%ADD180R,0.0483X0.0003*%
%ADD181R,0.0462X0.0003*%
%ADD182R,0.0453X0.0003*%
%ADD183R,0.0441X0.0003*%
%ADD184R,0.0327X0.0003*%
%ADD185R,0.0309X0.0003*%
%ADD186R,0.0297X0.0003*%
%ADD187R,0.0255X0.0003*%
%ADD188R,0.0237X0.0003*%
%ADD189R,0.0213X0.0003*%
%ADD190R,0.0189X0.0003*%
%ADD191R,0.0159X0.0003*%
%ADD192R,0.0117X0.0003*%
%ADD193R,0.0051X0.0003*%
%ADD194R,0.0063X0.0003*%
%ADD195R,0.0123X0.0003*%
%ADD196R,0.0411X0.0003*%
%ADD197R,0.0423X0.0003*%
%ADD198R,0.0432X0.0003*%
%ADD199R,0.0465X0.0003*%
%ADD200R,0.0492X0.0003*%
%ADD201R,0.0510X0.0003*%
%ADD202R,0.0774X0.0003*%
%ADD203R,0.0804X0.0003*%
%ADD204R,0.0834X0.0003*%
%ADD205R,0.0852X0.0003*%
%ADD206R,0.0858X0.0003*%
%ADD207R,0.0399X0.0003*%
%ADD208R,0.0882X0.0003*%
%ADD209R,0.0786X0.0003*%
%ADD210R,0.0696X0.0003*%
%ADD211R,0.0522X0.0003*%
%ADD212R,0.0414X0.0003*%
%ADD213R,0.0225X0.0003*%
%ADD214R,0.0093X0.0003*%
%ADD215R,0.0282X0.0003*%
%ADD216R,0.0279X0.0003*%
%ADD217R,0.0252X0.0003*%
%ADD218R,0.0204X0.0003*%
%ADD219R,0.0153X0.0003*%
%ADD220R,0.0144X0.0003*%
%ADD221R,0.0105X0.0003*%
%ADD222R,0.0069X0.0003*%
%ADD223R,0.0033X0.0003*%
D10*
X002000Y015269D02*
X002002Y015319D01*
X002008Y015369D01*
X002018Y015418D01*
X002032Y015466D01*
X002049Y015513D01*
X002070Y015558D01*
X002095Y015602D01*
X002123Y015643D01*
X002155Y015682D01*
X002189Y015719D01*
X002226Y015753D01*
X002266Y015783D01*
X002308Y015810D01*
X002352Y015834D01*
X002398Y015855D01*
X002445Y015871D01*
X002493Y015884D01*
X002543Y015893D01*
X002592Y015898D01*
X002643Y015899D01*
X002693Y015896D01*
X002742Y015889D01*
X002791Y015878D01*
X002839Y015863D01*
X002885Y015845D01*
X002930Y015823D01*
X002973Y015797D01*
X003014Y015768D01*
X003053Y015736D01*
X003089Y015701D01*
X003121Y015663D01*
X003151Y015623D01*
X003178Y015580D01*
X003201Y015536D01*
X003220Y015490D01*
X003236Y015442D01*
X003248Y015393D01*
X003256Y015344D01*
X003260Y015294D01*
X003260Y015244D01*
X003256Y015194D01*
X003248Y015145D01*
X003236Y015096D01*
X003220Y015048D01*
X003201Y015002D01*
X003178Y014958D01*
X003151Y014915D01*
X003121Y014875D01*
X003089Y014837D01*
X003053Y014802D01*
X003014Y014770D01*
X002973Y014741D01*
X002930Y014715D01*
X002885Y014693D01*
X002839Y014675D01*
X002791Y014660D01*
X002742Y014649D01*
X002693Y014642D01*
X002643Y014639D01*
X002592Y014640D01*
X002543Y014645D01*
X002493Y014654D01*
X002445Y014667D01*
X002398Y014683D01*
X002352Y014704D01*
X002308Y014728D01*
X002266Y014755D01*
X002226Y014785D01*
X002189Y014819D01*
X002155Y014856D01*
X002123Y014895D01*
X002095Y014936D01*
X002070Y014980D01*
X002049Y015025D01*
X002032Y015072D01*
X002018Y015120D01*
X002008Y015169D01*
X002002Y015219D01*
X002000Y015269D01*
X017084Y001380D02*
X017086Y001430D01*
X017092Y001480D01*
X017102Y001529D01*
X017116Y001577D01*
X017133Y001624D01*
X017154Y001669D01*
X017179Y001713D01*
X017207Y001754D01*
X017239Y001793D01*
X017273Y001830D01*
X017310Y001864D01*
X017350Y001894D01*
X017392Y001921D01*
X017436Y001945D01*
X017482Y001966D01*
X017529Y001982D01*
X017577Y001995D01*
X017627Y002004D01*
X017676Y002009D01*
X017727Y002010D01*
X017777Y002007D01*
X017826Y002000D01*
X017875Y001989D01*
X017923Y001974D01*
X017969Y001956D01*
X018014Y001934D01*
X018057Y001908D01*
X018098Y001879D01*
X018137Y001847D01*
X018173Y001812D01*
X018205Y001774D01*
X018235Y001734D01*
X018262Y001691D01*
X018285Y001647D01*
X018304Y001601D01*
X018320Y001553D01*
X018332Y001504D01*
X018340Y001455D01*
X018344Y001405D01*
X018344Y001355D01*
X018340Y001305D01*
X018332Y001256D01*
X018320Y001207D01*
X018304Y001159D01*
X018285Y001113D01*
X018262Y001069D01*
X018235Y001026D01*
X018205Y000986D01*
X018173Y000948D01*
X018137Y000913D01*
X018098Y000881D01*
X018057Y000852D01*
X018014Y000826D01*
X017969Y000804D01*
X017923Y000786D01*
X017875Y000771D01*
X017826Y000760D01*
X017777Y000753D01*
X017727Y000750D01*
X017676Y000751D01*
X017627Y000756D01*
X017577Y000765D01*
X017529Y000778D01*
X017482Y000794D01*
X017436Y000815D01*
X017392Y000839D01*
X017350Y000866D01*
X017310Y000896D01*
X017273Y000930D01*
X017239Y000967D01*
X017207Y001006D01*
X017179Y001047D01*
X017154Y001091D01*
X017133Y001136D01*
X017116Y001183D01*
X017102Y001231D01*
X017092Y001280D01*
X017086Y001330D01*
X017084Y001380D01*
D11*
X001690Y001394D02*
X001690Y015174D01*
X001692Y015236D01*
X001698Y015297D01*
X001707Y015358D01*
X001721Y015419D01*
X001738Y015478D01*
X001759Y015536D01*
X001784Y015593D01*
X001812Y015648D01*
X001843Y015701D01*
X001878Y015752D01*
X001916Y015801D01*
X001957Y015848D01*
X002000Y015891D01*
X002047Y015932D01*
X002096Y015970D01*
X002147Y016005D01*
X002200Y016036D01*
X002255Y016064D01*
X002312Y016089D01*
X002370Y016110D01*
X002429Y016127D01*
X002490Y016141D01*
X002551Y016150D01*
X002612Y016156D01*
X002674Y016158D01*
X017832Y016158D01*
X017831Y016158D02*
X017889Y016149D01*
X017946Y016137D01*
X018002Y016121D01*
X018057Y016102D01*
X018111Y016079D01*
X018163Y016052D01*
X018213Y016023D01*
X018261Y015990D01*
X018307Y015954D01*
X018350Y015915D01*
X018391Y015873D01*
X018429Y015829D01*
X018464Y015782D01*
X018495Y015733D01*
X018524Y015682D01*
X018549Y015630D01*
X018571Y015575D01*
X018589Y015520D01*
X018603Y015463D01*
X018614Y015406D01*
X018621Y015348D01*
X018624Y015290D01*
X018623Y015232D01*
X018619Y015174D01*
X018619Y001394D01*
X018623Y001336D01*
X018624Y001278D01*
X018621Y001220D01*
X018614Y001162D01*
X018603Y001105D01*
X018589Y001048D01*
X018571Y000993D01*
X018549Y000938D01*
X018524Y000886D01*
X018495Y000835D01*
X018464Y000786D01*
X018429Y000739D01*
X018391Y000695D01*
X018350Y000653D01*
X018307Y000614D01*
X018261Y000578D01*
X018213Y000545D01*
X018163Y000516D01*
X018111Y000489D01*
X018057Y000466D01*
X018002Y000447D01*
X017946Y000431D01*
X017889Y000419D01*
X017831Y000410D01*
X017832Y000410D02*
X002674Y000410D01*
X002612Y000412D01*
X002551Y000418D01*
X002490Y000427D01*
X002429Y000441D01*
X002370Y000458D01*
X002312Y000479D01*
X002255Y000504D01*
X002200Y000532D01*
X002147Y000563D01*
X002096Y000598D01*
X002047Y000636D01*
X002000Y000677D01*
X001957Y000720D01*
X001916Y000767D01*
X001878Y000816D01*
X001843Y000867D01*
X001812Y000920D01*
X001784Y000975D01*
X001759Y001032D01*
X001738Y001090D01*
X001721Y001149D01*
X001707Y001210D01*
X001698Y001271D01*
X001692Y001332D01*
X001690Y001394D01*
D12*
X003925Y006453D02*
X004516Y006453D01*
X004319Y006650D01*
X004516Y006847D01*
X003925Y006847D01*
X004023Y007098D02*
X003925Y007196D01*
X003925Y007393D01*
X004023Y007491D01*
X004417Y007491D01*
X004516Y007393D01*
X004516Y007196D01*
X004417Y007098D01*
X004023Y007098D01*
X004516Y007742D02*
X004516Y008136D01*
X004516Y007939D02*
X003925Y007939D01*
X004023Y008387D02*
X003925Y008485D01*
X003925Y008682D01*
X004023Y008780D01*
X004417Y008780D01*
X004516Y008682D01*
X004516Y008485D01*
X004417Y008387D01*
X004023Y008387D01*
X003925Y009031D02*
X004516Y009031D01*
X004516Y009326D01*
X004417Y009425D01*
X004220Y009425D01*
X004122Y009326D01*
X004122Y009031D01*
X004122Y009228D02*
X003925Y009425D01*
X004023Y010320D02*
X003925Y010419D01*
X003925Y010616D01*
X004023Y010714D01*
X004122Y010714D01*
X004220Y010616D01*
X004220Y010419D01*
X004319Y010320D01*
X004417Y010320D01*
X004516Y010419D01*
X004516Y010616D01*
X004417Y010714D01*
X004516Y010965D02*
X003925Y010965D01*
X004220Y010965D02*
X004220Y011359D01*
X003925Y011359D02*
X004516Y011359D01*
X004516Y011609D02*
X004516Y011806D01*
X004516Y011708D02*
X003925Y011708D01*
X003925Y011806D02*
X003925Y011609D01*
X003925Y012039D02*
X003925Y012433D01*
X003925Y012684D02*
X003925Y013077D01*
X003925Y013328D02*
X003925Y013623D01*
X004023Y013722D01*
X004417Y013722D01*
X004516Y013623D01*
X004516Y013328D01*
X003925Y013328D01*
X003925Y012684D02*
X004516Y012684D01*
X004516Y012433D02*
X004516Y012039D01*
X003925Y012039D01*
X004220Y012039D02*
X004220Y012236D01*
D13*
X008133Y013541D03*
D14*
X008133Y013538D03*
D15*
X008133Y013535D03*
X009552Y009008D03*
D16*
X008133Y013532D03*
D17*
X008133Y013529D03*
X009552Y009014D03*
D18*
X009552Y009017D03*
X008133Y013526D03*
D19*
X008133Y013523D03*
D20*
X008133Y013520D03*
D21*
X008133Y013517D03*
X009552Y009026D03*
D22*
X009550Y009029D03*
X009232Y010121D03*
X008134Y013514D03*
D23*
X008133Y013511D03*
X009552Y009032D03*
D24*
X009552Y009035D03*
X008133Y013508D03*
D25*
X008133Y013505D03*
X009552Y009038D03*
D26*
X009552Y009041D03*
X008133Y013502D03*
D27*
X008133Y013499D03*
D28*
X008133Y013496D03*
X009552Y009047D03*
D29*
X009552Y009050D03*
X008133Y013493D03*
D30*
X008133Y013490D03*
X009552Y009053D03*
D31*
X009552Y009056D03*
X008133Y013487D03*
D32*
X008134Y013484D03*
X008452Y012416D03*
X009550Y009059D03*
D33*
X009550Y009062D03*
X008134Y013481D03*
D34*
X008134Y013478D03*
X009550Y009065D03*
D35*
X009549Y009068D03*
X008136Y013475D03*
D36*
X008136Y013472D03*
D37*
X008136Y013469D03*
X009549Y009074D03*
D38*
X009547Y009077D03*
X009232Y010994D03*
X008137Y013466D03*
D39*
X008137Y013463D03*
X009232Y010133D03*
X009547Y009080D03*
D40*
X009546Y009083D03*
X008454Y012410D03*
X008139Y013460D03*
D41*
X008139Y013457D03*
X009546Y009086D03*
D42*
X009232Y010991D03*
X008452Y011552D03*
X008140Y013454D03*
D43*
X008140Y013451D03*
X009232Y010136D03*
D44*
X009543Y009095D03*
X008454Y012407D03*
X008142Y013448D03*
D45*
X008143Y013445D03*
X009541Y009098D03*
D46*
X008143Y013442D03*
D47*
X008145Y013439D03*
X009540Y009104D03*
D48*
X009538Y009107D03*
X009232Y010139D03*
X008452Y012404D03*
X008146Y013436D03*
D49*
X008148Y013433D03*
X009537Y009110D03*
D50*
X009537Y009113D03*
X008148Y013430D03*
D51*
X008149Y013427D03*
X009232Y010985D03*
X009535Y009116D03*
D52*
X009534Y009119D03*
X008151Y013424D03*
D53*
X008152Y013421D03*
X008452Y012401D03*
X009232Y010142D03*
X009532Y009122D03*
D54*
X009531Y009125D03*
X008154Y013418D03*
D55*
X008155Y013415D03*
X009529Y009128D03*
D56*
X009529Y009131D03*
X009232Y010145D03*
X008155Y013412D03*
D57*
X008157Y013409D03*
X009528Y009134D03*
D58*
X009526Y009137D03*
X008452Y012398D03*
X008158Y013406D03*
D59*
X008160Y013403D03*
X009525Y009140D03*
D60*
X009523Y009143D03*
X009232Y010979D03*
X008452Y011564D03*
X008161Y013400D03*
D61*
X008163Y013397D03*
X009522Y011981D03*
X008163Y010562D03*
X009522Y009146D03*
D62*
X009520Y009149D03*
X009232Y010148D03*
X008164Y010559D03*
X008164Y010565D03*
X009520Y011978D03*
X009520Y011984D03*
X008452Y012395D03*
X008164Y013394D03*
D63*
X008166Y013391D03*
X009519Y011987D03*
X009519Y011975D03*
X008166Y010568D03*
X008166Y010556D03*
X009519Y009152D03*
D64*
X009517Y009155D03*
X008167Y010553D03*
X008167Y010571D03*
X008452Y011567D03*
X009232Y010976D03*
X009517Y011972D03*
X009517Y011990D03*
X008167Y013388D03*
D65*
X008169Y013385D03*
X008172Y013382D03*
X009516Y011993D03*
X009516Y011969D03*
X008169Y010574D03*
X008169Y010550D03*
X008172Y010547D03*
X009513Y009161D03*
X009516Y009158D03*
D66*
X009511Y009164D03*
X009232Y010151D03*
X008173Y010544D03*
X008170Y010577D03*
X008173Y010580D03*
X009511Y011963D03*
X009514Y011966D03*
X009514Y011996D03*
X009511Y011999D03*
X008452Y012392D03*
X008173Y013379D03*
D67*
X008176Y013376D03*
X009508Y012005D03*
X009508Y011957D03*
X008452Y011570D03*
X009232Y010973D03*
X008176Y010586D03*
X008176Y010538D03*
X009508Y009170D03*
D68*
X009507Y009173D03*
X008178Y010535D03*
X008178Y010589D03*
X009507Y011954D03*
X009507Y012008D03*
X008178Y013370D03*
X008178Y013373D03*
D69*
X008181Y013367D03*
X008184Y013364D03*
X009501Y012017D03*
X009504Y012014D03*
X009504Y011948D03*
X009501Y011945D03*
X008184Y010598D03*
X008181Y010595D03*
X008181Y010529D03*
X008184Y010526D03*
X009501Y009182D03*
D70*
X009499Y009185D03*
X008185Y010523D03*
X008185Y010601D03*
X008452Y011573D03*
X008452Y012389D03*
X008185Y013361D03*
X009499Y012020D03*
X009499Y011942D03*
D71*
X008187Y010604D03*
X008187Y010520D03*
X008187Y013358D03*
D72*
X008188Y013355D03*
X009493Y012029D03*
X009493Y011933D03*
X008188Y010607D03*
X009493Y009194D03*
D73*
X008191Y010514D03*
X008191Y010610D03*
X009232Y010970D03*
X009496Y011936D03*
X008191Y013352D03*
D74*
X008193Y013349D03*
X009489Y012035D03*
X009492Y012032D03*
X009492Y011930D03*
X009489Y011927D03*
X008196Y010616D03*
X008193Y010613D03*
X008193Y010511D03*
X008196Y010508D03*
X009231Y010157D03*
X009489Y009200D03*
X009492Y009197D03*
D75*
X009487Y009203D03*
X009484Y009206D03*
X008200Y010502D03*
X008197Y010505D03*
X008197Y010619D03*
X008452Y011576D03*
X008452Y012386D03*
X009484Y012041D03*
X009487Y012038D03*
X009487Y011924D03*
X008197Y013343D03*
X008194Y013346D03*
D76*
X008199Y013340D03*
X008202Y013337D03*
X009480Y012047D03*
X009483Y012044D03*
X009486Y011921D03*
X009483Y011918D03*
X008202Y010625D03*
X008199Y010622D03*
X008202Y010499D03*
X008205Y010496D03*
X009480Y009212D03*
X009483Y009209D03*
D77*
X009478Y009215D03*
X009475Y009218D03*
X008206Y010493D03*
X008203Y010628D03*
X008206Y010631D03*
X009232Y010967D03*
X009478Y011912D03*
X009481Y011915D03*
X009478Y012050D03*
X009475Y012053D03*
X008206Y013331D03*
X008203Y013334D03*
D78*
X008208Y013328D03*
X008211Y013325D03*
X009468Y012062D03*
X009471Y012059D03*
X009477Y011909D03*
X009471Y011903D03*
X008211Y010637D03*
X008208Y010634D03*
X008211Y010487D03*
X008217Y010481D03*
X009468Y009227D03*
X009471Y009224D03*
D79*
X009466Y009230D03*
X009463Y009233D03*
X009460Y009236D03*
X009457Y009239D03*
X009454Y009242D03*
X009451Y009245D03*
X009448Y009248D03*
X009445Y009251D03*
X009442Y009254D03*
X009439Y009257D03*
X009436Y009260D03*
X009433Y009263D03*
X009430Y009266D03*
X009427Y009269D03*
X009424Y009272D03*
X009421Y009275D03*
X009418Y009278D03*
X009415Y009281D03*
X009412Y009284D03*
X009409Y009287D03*
X009406Y009290D03*
X009403Y009293D03*
X009400Y009296D03*
X009397Y009299D03*
X009394Y009302D03*
X009391Y009305D03*
X009388Y009308D03*
X009385Y009311D03*
X009382Y009314D03*
X009379Y009317D03*
X009376Y009320D03*
X009373Y009323D03*
X009370Y009326D03*
X009367Y009329D03*
X009364Y009332D03*
X009361Y009335D03*
X009358Y009338D03*
X009355Y009341D03*
X009352Y009344D03*
X009349Y009347D03*
X009346Y009350D03*
X009343Y009353D03*
X009340Y009356D03*
X009337Y009359D03*
X009334Y009362D03*
X009331Y009365D03*
X009328Y009368D03*
X009325Y009371D03*
X009322Y009374D03*
X009319Y009377D03*
X009316Y009380D03*
X009313Y009383D03*
X009310Y009386D03*
X009307Y009389D03*
X009304Y009392D03*
X009301Y009395D03*
X009298Y009398D03*
X009295Y009401D03*
X009292Y009404D03*
X009289Y009407D03*
X009286Y009410D03*
X009283Y009413D03*
X009280Y009416D03*
X009277Y009419D03*
X009274Y009422D03*
X009271Y009425D03*
X009268Y009428D03*
X009265Y009431D03*
X009262Y009434D03*
X009259Y009437D03*
X009256Y009440D03*
X009253Y009443D03*
X009250Y009446D03*
X009247Y009449D03*
X009244Y009452D03*
X009241Y009455D03*
X009238Y009458D03*
X009235Y009461D03*
X009232Y009464D03*
X009229Y009467D03*
X009226Y009470D03*
X009223Y009473D03*
X009220Y009476D03*
X009217Y009479D03*
X009214Y009482D03*
X009211Y009485D03*
X009208Y009488D03*
X009205Y009491D03*
X009202Y009494D03*
X009199Y009497D03*
X009196Y009500D03*
X009193Y009503D03*
X009190Y009506D03*
X009187Y009509D03*
X009184Y009512D03*
X009181Y009515D03*
X009178Y009518D03*
X009175Y009521D03*
X009172Y009524D03*
X009169Y009527D03*
X009166Y009530D03*
X009163Y009533D03*
X009160Y009536D03*
X009157Y009539D03*
X009154Y009542D03*
X009151Y009545D03*
X009148Y009548D03*
X009145Y009551D03*
X009142Y009554D03*
X009139Y009557D03*
X009136Y009560D03*
X009133Y009563D03*
X009130Y009566D03*
X009127Y009569D03*
X009124Y009572D03*
X009121Y009575D03*
X009118Y009578D03*
X009115Y009581D03*
X009112Y009584D03*
X009109Y009587D03*
X009106Y009590D03*
X009103Y009593D03*
X009100Y009596D03*
X009097Y009599D03*
X009094Y009602D03*
X009091Y009605D03*
X009088Y009608D03*
X009085Y009611D03*
X009082Y009614D03*
X009079Y009617D03*
X009076Y009620D03*
X009073Y009623D03*
X009070Y009626D03*
X009067Y009629D03*
X009064Y009632D03*
X009061Y009635D03*
X009058Y009638D03*
X009055Y009641D03*
X009052Y009644D03*
X009049Y009647D03*
X009046Y009650D03*
X009043Y009653D03*
X009040Y009656D03*
X009037Y009659D03*
X009034Y009662D03*
X009031Y009665D03*
X009028Y009668D03*
X009025Y009671D03*
X009022Y009674D03*
X009019Y009677D03*
X009016Y009680D03*
X009013Y009683D03*
X009010Y009686D03*
X009007Y009689D03*
X009004Y009692D03*
X009001Y009695D03*
X008998Y009698D03*
X008995Y009701D03*
X008992Y009704D03*
X008989Y009707D03*
X008986Y009710D03*
X008983Y009713D03*
X008980Y009716D03*
X008977Y009719D03*
X008974Y009722D03*
X008971Y009725D03*
X008968Y009728D03*
X008965Y009731D03*
X008962Y009734D03*
X008959Y009737D03*
X008956Y009740D03*
X008953Y009743D03*
X008950Y009746D03*
X008947Y009749D03*
X008944Y009752D03*
X008941Y009755D03*
X008938Y009758D03*
X008935Y009761D03*
X008932Y009764D03*
X008929Y009767D03*
X008926Y009770D03*
X008923Y009773D03*
X008920Y009776D03*
X008917Y009779D03*
X008914Y009782D03*
X008911Y009785D03*
X008908Y009788D03*
X008905Y009791D03*
X008902Y009794D03*
X008899Y009797D03*
X008896Y009800D03*
X008893Y009803D03*
X008890Y009806D03*
X008887Y009809D03*
X008884Y009812D03*
X008881Y009815D03*
X008878Y009818D03*
X008875Y009821D03*
X008872Y009824D03*
X008869Y009827D03*
X008866Y009830D03*
X008863Y009833D03*
X008860Y009836D03*
X008857Y009839D03*
X008854Y009842D03*
X008851Y009845D03*
X008848Y009848D03*
X008845Y009851D03*
X008842Y009854D03*
X008839Y009857D03*
X008836Y009860D03*
X008833Y009863D03*
X008830Y009866D03*
X008827Y009869D03*
X008824Y009872D03*
X008821Y009875D03*
X008818Y009878D03*
X008815Y009881D03*
X008812Y009884D03*
X008809Y009887D03*
X008806Y009890D03*
X008803Y009893D03*
X008800Y009896D03*
X008797Y009899D03*
X008794Y009902D03*
X008791Y009905D03*
X008788Y009908D03*
X008785Y009911D03*
X008782Y009914D03*
X008779Y009917D03*
X008776Y009920D03*
X008773Y009923D03*
X008770Y009926D03*
X008767Y009929D03*
X008764Y009932D03*
X008761Y009935D03*
X008758Y009938D03*
X008755Y009941D03*
X008752Y009944D03*
X008749Y009947D03*
X008746Y009950D03*
X008743Y009953D03*
X008740Y009956D03*
X008737Y009959D03*
X008734Y009962D03*
X008731Y009965D03*
X008728Y009968D03*
X008725Y009971D03*
X008722Y009974D03*
X008719Y009977D03*
X008716Y009980D03*
X008713Y009983D03*
X008710Y009986D03*
X008707Y009989D03*
X008704Y009992D03*
X008701Y009995D03*
X008698Y009998D03*
X008695Y010001D03*
X008692Y010004D03*
X008689Y010007D03*
X008686Y010010D03*
X008683Y010013D03*
X008680Y010016D03*
X008677Y010019D03*
X008674Y010022D03*
X008671Y010025D03*
X008668Y010028D03*
X008665Y010031D03*
X008662Y010034D03*
X008659Y010037D03*
X008656Y010040D03*
X008653Y010043D03*
X008650Y010046D03*
X008647Y010049D03*
X008644Y010052D03*
X008641Y010055D03*
X008638Y010058D03*
X008635Y010061D03*
X008632Y010064D03*
X008629Y010067D03*
X008626Y010070D03*
X008623Y010073D03*
X008620Y010076D03*
X008617Y010079D03*
X008614Y010082D03*
X008611Y010085D03*
X008608Y010088D03*
X008605Y010091D03*
X008602Y010094D03*
X008599Y010097D03*
X008596Y010100D03*
X008593Y010103D03*
X008590Y010106D03*
X008587Y010109D03*
X008584Y010112D03*
X008581Y010115D03*
X008578Y010118D03*
X008575Y010121D03*
X008572Y010124D03*
X008569Y010127D03*
X008566Y010130D03*
X008563Y010133D03*
X008560Y010136D03*
X008557Y010139D03*
X008554Y010142D03*
X008551Y010145D03*
X008548Y010148D03*
X008545Y010151D03*
X008542Y010154D03*
X008539Y010157D03*
X008536Y010160D03*
X008533Y010163D03*
X008530Y010166D03*
X008527Y010169D03*
X008524Y010172D03*
X008521Y010175D03*
X008518Y010178D03*
X008515Y010181D03*
X008512Y010184D03*
X008509Y010187D03*
X008506Y010190D03*
X008503Y010193D03*
X008500Y010196D03*
X008497Y010199D03*
X008494Y010202D03*
X008491Y010205D03*
X008488Y010208D03*
X008485Y010211D03*
X008482Y010214D03*
X008479Y010217D03*
X008476Y010220D03*
X008473Y010223D03*
X008470Y010226D03*
X008467Y010229D03*
X008464Y010232D03*
X008461Y010235D03*
X008458Y010238D03*
X008455Y010241D03*
X008452Y010244D03*
X008449Y010247D03*
X008446Y010250D03*
X008443Y010253D03*
X008440Y010256D03*
X008437Y010259D03*
X008434Y010262D03*
X008431Y010265D03*
X008428Y010268D03*
X008425Y010271D03*
X008422Y010274D03*
X008419Y010277D03*
X008416Y010280D03*
X008413Y010283D03*
X008410Y010286D03*
X008407Y010289D03*
X008404Y010292D03*
X008401Y010295D03*
X008398Y010298D03*
X008395Y010301D03*
X008392Y010304D03*
X008389Y010307D03*
X008386Y010310D03*
X008383Y010313D03*
X008380Y010316D03*
X008377Y010319D03*
X008374Y010322D03*
X008371Y010325D03*
X008368Y010328D03*
X008365Y010331D03*
X008362Y010334D03*
X008359Y010337D03*
X008356Y010340D03*
X008353Y010343D03*
X008350Y010346D03*
X008347Y010349D03*
X008344Y010352D03*
X008341Y010355D03*
X008338Y010358D03*
X008335Y010361D03*
X008332Y010364D03*
X008329Y010367D03*
X008326Y010370D03*
X008323Y010373D03*
X008320Y010376D03*
X008317Y010379D03*
X008314Y010382D03*
X008311Y010385D03*
X008308Y010388D03*
X008305Y010391D03*
X008302Y010394D03*
X008299Y010397D03*
X008296Y010400D03*
X008293Y010403D03*
X008290Y010406D03*
X008287Y010409D03*
X008284Y010412D03*
X008281Y010415D03*
X008278Y010418D03*
X008275Y010421D03*
X008272Y010424D03*
X008269Y010427D03*
X008266Y010430D03*
X008263Y010433D03*
X008260Y010436D03*
X008257Y010439D03*
X008254Y010442D03*
X008251Y010445D03*
X008248Y010448D03*
X008245Y010451D03*
X008242Y010454D03*
X008239Y010457D03*
X008236Y010460D03*
X008233Y010463D03*
X008230Y010466D03*
X008227Y010469D03*
X008224Y010472D03*
X008221Y010475D03*
X008218Y010478D03*
X008215Y010643D03*
X008218Y010646D03*
X008221Y010649D03*
X009232Y010160D03*
X009460Y011891D03*
X009463Y011894D03*
X009466Y011897D03*
X009469Y011900D03*
X009466Y012065D03*
X009463Y012068D03*
X009460Y012071D03*
X009457Y012074D03*
X009454Y012077D03*
X009301Y012230D03*
X009298Y012233D03*
X009295Y012236D03*
X009292Y012239D03*
X009289Y012242D03*
X009286Y012245D03*
X009283Y012248D03*
X009280Y012251D03*
X009277Y012254D03*
X009274Y012257D03*
X009271Y012260D03*
X009268Y012263D03*
X009265Y012266D03*
X009262Y012269D03*
X009259Y012272D03*
X009256Y012275D03*
X009253Y012278D03*
X009250Y012281D03*
X009247Y012284D03*
X009244Y012287D03*
X009241Y012290D03*
X009238Y012293D03*
X009235Y012296D03*
X009232Y012299D03*
X009229Y012302D03*
X009226Y012305D03*
X009223Y012308D03*
X009220Y012311D03*
X009217Y012314D03*
X009214Y012317D03*
X009211Y012320D03*
X009208Y012323D03*
X009205Y012326D03*
X009202Y012329D03*
X009199Y012332D03*
X009196Y012335D03*
X009193Y012338D03*
X009190Y012341D03*
X009187Y012344D03*
X008452Y012383D03*
X008218Y013316D03*
X008215Y013319D03*
X008212Y013322D03*
D80*
X008220Y013313D03*
X008223Y013310D03*
X008226Y013307D03*
X008229Y013304D03*
X008232Y013301D03*
X008235Y013298D03*
X008238Y013295D03*
X008241Y013292D03*
X008244Y013289D03*
X008247Y013286D03*
X008250Y013283D03*
X008253Y013280D03*
X008256Y013277D03*
X008259Y013274D03*
X008262Y013271D03*
X008265Y013268D03*
X008268Y013265D03*
X008271Y013262D03*
X008274Y013259D03*
X008277Y013256D03*
X008280Y013253D03*
X008283Y013250D03*
X008286Y013247D03*
X008289Y013244D03*
X008292Y013241D03*
X008295Y013238D03*
X008298Y013235D03*
X008301Y013232D03*
X008304Y013229D03*
X008307Y013226D03*
X008310Y013223D03*
X008313Y013220D03*
X008316Y013217D03*
X008319Y013214D03*
X008322Y013211D03*
X008325Y013208D03*
X008328Y013205D03*
X008331Y013202D03*
X008334Y013199D03*
X008337Y013196D03*
X008340Y013193D03*
X008343Y013190D03*
X008346Y013187D03*
X008349Y013184D03*
X008352Y013181D03*
X008355Y013178D03*
X008358Y013175D03*
X008361Y013172D03*
X008364Y013169D03*
X008367Y013166D03*
X008370Y013163D03*
X008373Y013160D03*
X008376Y013157D03*
X008379Y013154D03*
X008382Y013151D03*
X008385Y013148D03*
X008388Y013145D03*
X008391Y013142D03*
X008394Y013139D03*
X008397Y013136D03*
X008400Y013133D03*
X008403Y013130D03*
X008406Y013127D03*
X008409Y013124D03*
X008412Y013121D03*
X008415Y013118D03*
X008418Y013115D03*
X008421Y013112D03*
X008424Y013109D03*
X008427Y013106D03*
X008430Y013103D03*
X008433Y013100D03*
X008436Y013097D03*
X008439Y013094D03*
X008442Y013091D03*
X008445Y013088D03*
X008448Y013085D03*
X008451Y013082D03*
X008454Y013079D03*
X008457Y013076D03*
X008460Y013073D03*
X008463Y013070D03*
X008466Y013067D03*
X008469Y013064D03*
X008472Y013061D03*
X008475Y013058D03*
X008478Y013055D03*
X008481Y013052D03*
X008484Y013049D03*
X008487Y013046D03*
X008490Y013043D03*
X008493Y013040D03*
X008496Y013037D03*
X008499Y013034D03*
X008502Y013031D03*
X008505Y013028D03*
X008508Y013025D03*
X008511Y013022D03*
X008514Y013019D03*
X008517Y013016D03*
X008520Y013013D03*
X008523Y013010D03*
X008526Y013007D03*
X008529Y013004D03*
X008532Y013001D03*
X008535Y012998D03*
X008538Y012995D03*
X008541Y012992D03*
X008544Y012989D03*
X008547Y012986D03*
X008550Y012983D03*
X008553Y012980D03*
X008556Y012977D03*
X008559Y012974D03*
X008562Y012971D03*
X008565Y012968D03*
X008568Y012965D03*
X008571Y012962D03*
X008574Y012959D03*
X008577Y012956D03*
X008580Y012953D03*
X008583Y012950D03*
X008586Y012947D03*
X008589Y012944D03*
X008592Y012941D03*
X008595Y012938D03*
X008598Y012935D03*
X008601Y012932D03*
X008604Y012929D03*
X008607Y012926D03*
X008610Y012923D03*
X008613Y012920D03*
X008616Y012917D03*
X008619Y012914D03*
X008622Y012911D03*
X008625Y012908D03*
X008628Y012905D03*
X008631Y012902D03*
X008634Y012899D03*
X008637Y012896D03*
X008640Y012893D03*
X008643Y012890D03*
X008646Y012887D03*
X008649Y012884D03*
X008652Y012881D03*
X008655Y012878D03*
X008658Y012875D03*
X008661Y012872D03*
X008664Y012869D03*
X008667Y012866D03*
X008670Y012863D03*
X008673Y012860D03*
X008676Y012857D03*
X008679Y012854D03*
X008682Y012851D03*
X008685Y012848D03*
X008688Y012845D03*
X008691Y012842D03*
X008694Y012839D03*
X008697Y012836D03*
X008700Y012833D03*
X008703Y012830D03*
X008706Y012827D03*
X008709Y012824D03*
X008712Y012821D03*
X008715Y012818D03*
X008718Y012815D03*
X008721Y012812D03*
X008724Y012809D03*
X008727Y012806D03*
X008730Y012803D03*
X008733Y012800D03*
X008736Y012797D03*
X008739Y012794D03*
X008742Y012791D03*
X008745Y012788D03*
X008748Y012785D03*
X008751Y012782D03*
X008754Y012779D03*
X008757Y012776D03*
X008760Y012773D03*
X008763Y012770D03*
X008766Y012767D03*
X008769Y012764D03*
X008772Y012761D03*
X008775Y012758D03*
X008778Y012755D03*
X008781Y012752D03*
X008784Y012749D03*
X008787Y012746D03*
X008790Y012743D03*
X008793Y012740D03*
X008796Y012737D03*
X008799Y012734D03*
X008802Y012731D03*
X008805Y012728D03*
X008808Y012725D03*
X008811Y012722D03*
X008814Y012719D03*
X008817Y012716D03*
X008820Y012713D03*
X008823Y012710D03*
X008826Y012707D03*
X008829Y012704D03*
X008832Y012701D03*
X008835Y012698D03*
X008838Y012695D03*
X008841Y012692D03*
X008844Y012689D03*
X008847Y012686D03*
X008850Y012683D03*
X008853Y012680D03*
X008856Y012677D03*
X008859Y012674D03*
X008862Y012671D03*
X008865Y012668D03*
X008868Y012665D03*
X008871Y012662D03*
X008874Y012659D03*
X008877Y012656D03*
X008880Y012653D03*
X008883Y012650D03*
X008886Y012647D03*
X008889Y012644D03*
X008892Y012641D03*
X008895Y012638D03*
X008898Y012635D03*
X008901Y012632D03*
X008904Y012629D03*
X008907Y012626D03*
X008910Y012623D03*
X008913Y012620D03*
X008916Y012617D03*
X008919Y012614D03*
X008922Y012611D03*
X008925Y012608D03*
X008928Y012605D03*
X008931Y012602D03*
X008934Y012599D03*
X008937Y012596D03*
X008940Y012593D03*
X008943Y012590D03*
X008946Y012587D03*
X008949Y012584D03*
X008952Y012581D03*
X008955Y012578D03*
X008958Y012575D03*
X008961Y012572D03*
X008964Y012569D03*
X008967Y012566D03*
X008970Y012563D03*
X008973Y012560D03*
X008976Y012557D03*
X008979Y012554D03*
X008982Y012551D03*
X008985Y012548D03*
X008988Y012545D03*
X008991Y012542D03*
X008994Y012539D03*
X008997Y012536D03*
X009000Y012533D03*
X009003Y012530D03*
X009006Y012527D03*
X009009Y012524D03*
X009012Y012521D03*
X009015Y012518D03*
X009018Y012515D03*
X009021Y012512D03*
X009024Y012509D03*
X009027Y012506D03*
X009030Y012503D03*
X009033Y012500D03*
X009036Y012497D03*
X009039Y012494D03*
X009042Y012491D03*
X009045Y012488D03*
X009048Y012485D03*
X009051Y012482D03*
X009054Y012479D03*
X009057Y012476D03*
X009060Y012473D03*
X009063Y012470D03*
X009066Y012467D03*
X009069Y012464D03*
X009072Y012461D03*
X009075Y012458D03*
X009078Y012455D03*
X009081Y012452D03*
X009084Y012449D03*
X009087Y012446D03*
X009090Y012443D03*
X009093Y012440D03*
X009096Y012437D03*
X009099Y012434D03*
X009102Y012431D03*
X009105Y012428D03*
X009108Y012425D03*
X009111Y012422D03*
X009114Y012419D03*
X009117Y012416D03*
X009120Y012413D03*
X009123Y012410D03*
X009126Y012407D03*
X009129Y012404D03*
X009132Y012401D03*
X009135Y012398D03*
X009138Y012395D03*
X009141Y012392D03*
X009144Y012389D03*
X009147Y012386D03*
X009150Y012383D03*
X009153Y012380D03*
X009156Y012377D03*
X009159Y012374D03*
X009162Y012371D03*
X009165Y012368D03*
X009168Y012365D03*
X009171Y012362D03*
X009174Y012359D03*
X009177Y012356D03*
X009180Y012353D03*
X009183Y012350D03*
X009186Y012347D03*
X009306Y012227D03*
X009309Y012224D03*
X009312Y012221D03*
X009315Y012218D03*
X009318Y012215D03*
X009321Y012212D03*
X009324Y012209D03*
X009327Y012206D03*
X009330Y012203D03*
X009333Y012200D03*
X009336Y012197D03*
X009339Y012194D03*
X009342Y012191D03*
X009345Y012188D03*
X009348Y012185D03*
X009351Y012182D03*
X009354Y012179D03*
X009357Y012176D03*
X009360Y012173D03*
X009363Y012170D03*
X009366Y012167D03*
X009369Y012164D03*
X009372Y012161D03*
X009375Y012158D03*
X009378Y012155D03*
X009381Y012152D03*
X009384Y012149D03*
X009387Y012146D03*
X009390Y012143D03*
X009393Y012140D03*
X009396Y012137D03*
X009399Y012134D03*
X009402Y012131D03*
X009405Y012128D03*
X009408Y012125D03*
X009411Y012122D03*
X009414Y012119D03*
X009417Y012116D03*
X009420Y012113D03*
X009423Y012110D03*
X009426Y012107D03*
X009429Y012104D03*
X009432Y012101D03*
X009435Y012098D03*
X009438Y012095D03*
X009441Y012092D03*
X009444Y012089D03*
X009447Y012086D03*
X009450Y012083D03*
X009453Y012080D03*
X009459Y011888D03*
X009456Y011885D03*
X009453Y011882D03*
X009450Y011879D03*
X009447Y011876D03*
X009444Y011873D03*
X009441Y011870D03*
X009438Y011867D03*
X009435Y011864D03*
X009432Y011861D03*
X009429Y011858D03*
X009426Y011855D03*
X009423Y011852D03*
X009420Y011849D03*
X009417Y011846D03*
X009414Y011843D03*
X009411Y011840D03*
X009408Y011837D03*
X009405Y011834D03*
X009402Y011831D03*
X009399Y011828D03*
X009396Y011825D03*
X009393Y011822D03*
X009390Y011819D03*
X009387Y011816D03*
X009384Y011813D03*
X009381Y011810D03*
X009378Y011807D03*
X009375Y011804D03*
X009372Y011801D03*
X009369Y011798D03*
X009366Y011795D03*
X009363Y011792D03*
X009360Y011789D03*
X009357Y011786D03*
X009354Y011783D03*
X009351Y011780D03*
X009348Y011777D03*
X009345Y011774D03*
X009342Y011771D03*
X009339Y011768D03*
X009336Y011765D03*
X009333Y011762D03*
X009330Y011759D03*
X009327Y011756D03*
X009324Y011753D03*
X009321Y011750D03*
X009318Y011747D03*
X009315Y011744D03*
X009312Y011741D03*
X009309Y011738D03*
X009306Y011735D03*
X009303Y011732D03*
X009300Y011729D03*
X009297Y011726D03*
X009294Y011723D03*
X009291Y011720D03*
X009288Y011717D03*
X009285Y011714D03*
X009282Y011711D03*
X009279Y011708D03*
X009276Y011705D03*
X009273Y011702D03*
X009270Y011699D03*
X009267Y011696D03*
X009264Y011693D03*
X009261Y011690D03*
X009258Y011687D03*
X009255Y011684D03*
X009252Y011681D03*
X009249Y011678D03*
X009246Y011675D03*
X009243Y011672D03*
X009240Y011669D03*
X009237Y011666D03*
X009234Y011663D03*
X009231Y011660D03*
X009228Y011657D03*
X009225Y011654D03*
X009222Y011651D03*
X009219Y011648D03*
X009216Y011645D03*
X009213Y011642D03*
X009210Y011639D03*
X009207Y011636D03*
X009204Y011633D03*
X009201Y011630D03*
X009198Y011627D03*
X009195Y011624D03*
X009192Y011621D03*
X009189Y011618D03*
X009186Y011615D03*
X009183Y011612D03*
X009180Y011609D03*
X009177Y011606D03*
X009174Y011603D03*
X009171Y011600D03*
X009168Y011597D03*
X009165Y011594D03*
X009162Y011591D03*
X009159Y011588D03*
X009156Y011585D03*
X009153Y011582D03*
X009150Y011579D03*
X009147Y011576D03*
X009144Y011573D03*
X009141Y011570D03*
X009138Y011567D03*
X009135Y011564D03*
X009132Y011561D03*
X009129Y011558D03*
X009126Y011555D03*
X009123Y011552D03*
X009120Y011549D03*
X009117Y011546D03*
X009114Y011543D03*
X009111Y011540D03*
X009108Y011537D03*
X009105Y011534D03*
X009102Y011531D03*
X009099Y011528D03*
X009096Y011525D03*
X009093Y011522D03*
X009090Y011519D03*
X009087Y011516D03*
X009084Y011513D03*
X009081Y011510D03*
X009078Y011507D03*
X009075Y011504D03*
X009072Y011501D03*
X009069Y011498D03*
X009066Y011495D03*
X009063Y011492D03*
X009060Y011489D03*
X009057Y011486D03*
X009054Y011483D03*
X009051Y011480D03*
X009048Y011477D03*
X009045Y011474D03*
X009042Y011471D03*
X009039Y011468D03*
X009036Y011465D03*
X009033Y011462D03*
X009030Y011459D03*
X009027Y011456D03*
X009024Y011453D03*
X009021Y011450D03*
X009018Y011447D03*
X009015Y011444D03*
X009012Y011441D03*
X009009Y011438D03*
X009006Y011435D03*
X009003Y011432D03*
X009000Y011429D03*
X008997Y011426D03*
X008994Y011423D03*
X008991Y011420D03*
X008988Y011417D03*
X008985Y011414D03*
X008982Y011411D03*
X008979Y011408D03*
X008976Y011405D03*
X008973Y011402D03*
X008970Y011399D03*
X008967Y011396D03*
X008964Y011393D03*
X008961Y011390D03*
X008958Y011387D03*
X008955Y011384D03*
X008952Y011381D03*
X008949Y011378D03*
X008946Y011375D03*
X008943Y011372D03*
X008940Y011369D03*
X008937Y011366D03*
X008934Y011363D03*
X008931Y011360D03*
X008928Y011357D03*
X008925Y011354D03*
X008922Y011351D03*
X008919Y011348D03*
X008916Y011345D03*
X008913Y011342D03*
X008910Y011339D03*
X008907Y011336D03*
X008904Y011333D03*
X008901Y011330D03*
X008898Y011327D03*
X008895Y011324D03*
X008892Y011321D03*
X008889Y011318D03*
X008886Y011315D03*
X008883Y011312D03*
X008880Y011309D03*
X008877Y011306D03*
X008874Y011303D03*
X008871Y011300D03*
X008868Y011297D03*
X008865Y011294D03*
X008862Y011291D03*
X008859Y011288D03*
X008856Y011285D03*
X008853Y011282D03*
X008850Y011279D03*
X008847Y011276D03*
X008844Y011273D03*
X008841Y011270D03*
X008838Y011267D03*
X008835Y011264D03*
X008832Y011261D03*
X008829Y011258D03*
X008826Y011255D03*
X008823Y011252D03*
X008820Y011249D03*
X008817Y011246D03*
X008814Y011243D03*
X008811Y011240D03*
X008808Y011237D03*
X008805Y011234D03*
X008802Y011231D03*
X008799Y011228D03*
X008796Y011225D03*
X008793Y011222D03*
X008790Y011219D03*
X008787Y011216D03*
X008784Y011213D03*
X008781Y011210D03*
X008778Y011207D03*
X008775Y011204D03*
X008772Y011201D03*
X008769Y011198D03*
X008766Y011195D03*
X008763Y011192D03*
X008760Y011189D03*
X008757Y011186D03*
X008754Y011183D03*
X008751Y011180D03*
X008748Y011177D03*
X008745Y011174D03*
X008742Y011171D03*
X008739Y011168D03*
X008736Y011165D03*
X008733Y011162D03*
X008730Y011159D03*
X008727Y011156D03*
X008724Y011153D03*
X008721Y011150D03*
X008718Y011147D03*
X008715Y011144D03*
X008712Y011141D03*
X008709Y011138D03*
X008706Y011135D03*
X008703Y011132D03*
X008700Y011129D03*
X008697Y011126D03*
X008694Y011123D03*
X008691Y011120D03*
X008688Y011117D03*
X008685Y011114D03*
X008682Y011111D03*
X008679Y011108D03*
X008676Y011105D03*
X008673Y011102D03*
X008670Y011099D03*
X008667Y011096D03*
X008664Y011093D03*
X008661Y011090D03*
X008658Y011087D03*
X008655Y011084D03*
X008652Y011081D03*
X008649Y011078D03*
X008646Y011075D03*
X008643Y011072D03*
X008640Y011069D03*
X008637Y011066D03*
X008634Y011063D03*
X008631Y011060D03*
X008628Y011057D03*
X008625Y011054D03*
X008622Y011051D03*
X008619Y011048D03*
X008616Y011045D03*
X008613Y011042D03*
X008610Y011039D03*
X008607Y011036D03*
X008604Y011033D03*
X008601Y011030D03*
X008598Y011027D03*
X008595Y011024D03*
X008592Y011021D03*
X008589Y011018D03*
X008586Y011015D03*
X008583Y011012D03*
X008580Y011009D03*
X008577Y011006D03*
X008574Y011003D03*
X008571Y011000D03*
X008568Y010997D03*
X008565Y010994D03*
X008562Y010991D03*
X008559Y010988D03*
X008556Y010985D03*
X008553Y010982D03*
X008550Y010979D03*
X008547Y010976D03*
X008544Y010973D03*
X008541Y010970D03*
X008538Y010967D03*
X008535Y010964D03*
X008532Y010961D03*
X008529Y010958D03*
X008526Y010955D03*
X008523Y010952D03*
X008520Y010949D03*
X008517Y010946D03*
X008514Y010943D03*
X008511Y010940D03*
X008508Y010937D03*
X008505Y010934D03*
X008502Y010931D03*
X008499Y010928D03*
X008496Y010925D03*
X008493Y010922D03*
X008490Y010919D03*
X008487Y010916D03*
X008484Y010913D03*
X008481Y010910D03*
X008478Y010907D03*
X008475Y010904D03*
X008472Y010901D03*
X008469Y010898D03*
X008466Y010895D03*
X008463Y010892D03*
X008460Y010889D03*
X008457Y010886D03*
X008454Y010883D03*
X008451Y010880D03*
X008448Y010877D03*
X008445Y010874D03*
X008442Y010871D03*
X008439Y010868D03*
X008436Y010865D03*
X008433Y010862D03*
X008430Y010859D03*
X008427Y010856D03*
X008424Y010853D03*
X008421Y010850D03*
X008418Y010847D03*
X008415Y010844D03*
X008412Y010841D03*
X008409Y010838D03*
X008406Y010835D03*
X008403Y010832D03*
X008400Y010829D03*
X008397Y010826D03*
X008394Y010823D03*
X008391Y010820D03*
X008388Y010817D03*
X008385Y010814D03*
X008382Y010811D03*
X008379Y010808D03*
X008376Y010805D03*
X008373Y010802D03*
X008370Y010799D03*
X008367Y010796D03*
X008364Y010793D03*
X008361Y010790D03*
X008358Y010787D03*
X008355Y010784D03*
X008352Y010781D03*
X008349Y010778D03*
X008346Y010775D03*
X008343Y010772D03*
X008340Y010769D03*
X008337Y010766D03*
X008334Y010763D03*
X008331Y010760D03*
X008328Y010757D03*
X008325Y010754D03*
X008322Y010751D03*
X008319Y010748D03*
X008316Y010745D03*
X008313Y010742D03*
X008310Y010739D03*
X008307Y010736D03*
X008304Y010733D03*
X008301Y010730D03*
X008298Y010727D03*
X008295Y010724D03*
X008292Y010721D03*
X008289Y010718D03*
X008286Y010715D03*
X008283Y010712D03*
X008280Y010709D03*
X008277Y010706D03*
X008274Y010703D03*
X008271Y010700D03*
X008268Y010697D03*
X008265Y010694D03*
X008262Y010691D03*
X008259Y010688D03*
X008256Y010685D03*
X008253Y010682D03*
X008250Y010679D03*
X008247Y010676D03*
X008244Y010673D03*
X008241Y010670D03*
X008238Y010667D03*
X008235Y010664D03*
X008232Y010661D03*
X008229Y010658D03*
X008226Y010655D03*
X008223Y010652D03*
X008454Y011579D03*
D81*
X008452Y012428D03*
D82*
X008452Y012425D03*
X009232Y010118D03*
D83*
X008452Y012422D03*
D84*
X008452Y012419D03*
X009232Y010124D03*
D85*
X009232Y010130D03*
X008452Y012413D03*
D86*
X008452Y012380D03*
X008452Y011582D03*
D87*
X008452Y011585D03*
X008452Y012377D03*
D88*
X008452Y012374D03*
X009232Y010169D03*
D89*
X009232Y010172D03*
X008452Y012371D03*
D90*
X008452Y012368D03*
X009232Y010175D03*
D91*
X009232Y010946D03*
X008452Y011597D03*
X008452Y012365D03*
D92*
X008452Y012362D03*
X009232Y010181D03*
D93*
X009232Y010184D03*
X008452Y011603D03*
X008452Y012359D03*
D94*
X008452Y012356D03*
X009232Y010187D03*
D95*
X009232Y010190D03*
X008452Y011609D03*
X008452Y012353D03*
D96*
X008452Y012350D03*
X009232Y010193D03*
D97*
X009232Y010928D03*
X008452Y011615D03*
X008452Y012347D03*
D98*
X008452Y012344D03*
X009232Y010199D03*
D99*
X009232Y010202D03*
X009232Y010925D03*
X008452Y011618D03*
X008452Y012341D03*
D100*
X008452Y012338D03*
X008452Y011624D03*
X009232Y010919D03*
X009232Y010205D03*
D101*
X009232Y010208D03*
X008452Y012335D03*
D102*
X008452Y012332D03*
X009232Y010916D03*
X009232Y010211D03*
D103*
X008454Y012329D03*
D104*
X008452Y012326D03*
X008452Y011636D03*
X009232Y010907D03*
X009232Y010217D03*
D105*
X009232Y010220D03*
X009232Y010904D03*
X008452Y011639D03*
X008452Y012323D03*
D106*
X008452Y012320D03*
X009232Y010223D03*
D107*
X009232Y010226D03*
X009232Y010901D03*
X008452Y012317D03*
D108*
X008452Y012314D03*
X008452Y011645D03*
X009232Y010898D03*
X009232Y010229D03*
D109*
X009232Y010232D03*
X009232Y010895D03*
X008452Y011648D03*
X008452Y012311D03*
D110*
X008454Y012308D03*
D111*
X008452Y012305D03*
X008452Y011657D03*
X009232Y010886D03*
X009232Y010241D03*
D112*
X009232Y010244D03*
X009232Y010883D03*
X008452Y011660D03*
X008452Y012302D03*
D113*
X008452Y012299D03*
X008452Y011663D03*
X009232Y010880D03*
X009232Y010247D03*
D114*
X009232Y010250D03*
X009232Y010877D03*
X008452Y011666D03*
X008452Y012296D03*
D115*
X008452Y012293D03*
X008452Y011669D03*
X009232Y010874D03*
X009232Y010253D03*
D116*
X008454Y012290D03*
D117*
X008452Y012287D03*
X008452Y011672D03*
X009232Y010871D03*
X009232Y010256D03*
D118*
X009232Y010259D03*
X009232Y010868D03*
X008452Y011675D03*
X008452Y012284D03*
D119*
X008452Y012281D03*
X008452Y011678D03*
X009232Y010865D03*
X009232Y010262D03*
D120*
X009232Y010265D03*
X009232Y010862D03*
X008452Y011681D03*
X008452Y012278D03*
D121*
X008452Y012275D03*
X008452Y011687D03*
X009232Y010859D03*
X009232Y010856D03*
X009232Y010268D03*
D122*
X009232Y010271D03*
X009232Y010853D03*
X008452Y011690D03*
X008452Y012272D03*
D123*
X008452Y012269D03*
X008452Y011693D03*
X009232Y010850D03*
X009232Y010274D03*
D124*
X009232Y010280D03*
X009232Y010847D03*
X008452Y011696D03*
X008452Y012263D03*
X008452Y012266D03*
D125*
X008452Y012260D03*
X008452Y011702D03*
X008452Y011699D03*
X009232Y010844D03*
X009232Y010283D03*
D126*
X009232Y010286D03*
X009232Y010838D03*
X009232Y010841D03*
X008452Y011705D03*
X008452Y012257D03*
D127*
X008452Y012254D03*
X008452Y011708D03*
X009232Y010835D03*
X009232Y010292D03*
X009232Y010289D03*
D128*
X008454Y012251D03*
D129*
X008452Y012248D03*
X008452Y011711D03*
X009232Y010832D03*
X009232Y010295D03*
D130*
X009232Y010298D03*
X009232Y010826D03*
X009232Y010829D03*
X008452Y011717D03*
X008452Y012245D03*
D131*
X008452Y012242D03*
X008452Y012239D03*
X008452Y011720D03*
X009232Y010823D03*
X009232Y010304D03*
X009232Y010301D03*
D132*
X009232Y010307D03*
X009232Y010817D03*
X009232Y010820D03*
X008452Y011723D03*
X008452Y011726D03*
X008452Y012236D03*
D133*
X008452Y012233D03*
X008452Y012230D03*
X008452Y011729D03*
X009232Y010814D03*
X009232Y010313D03*
X009232Y010310D03*
D134*
X009232Y010316D03*
X009232Y010808D03*
X009232Y010811D03*
X008452Y011732D03*
X008452Y011735D03*
X008452Y012227D03*
D135*
X008452Y012224D03*
X008452Y012221D03*
X008452Y011738D03*
X009232Y010805D03*
X009232Y010322D03*
X009232Y010319D03*
D136*
X009232Y010325D03*
X009232Y010799D03*
X009232Y010802D03*
X008452Y011741D03*
X008452Y011744D03*
X008452Y012218D03*
D137*
X008452Y012215D03*
X008452Y012212D03*
X008452Y011750D03*
X008452Y011747D03*
X009232Y010796D03*
X009232Y010331D03*
X009232Y010328D03*
D138*
X009232Y010334D03*
X009232Y010337D03*
X009232Y010790D03*
X008452Y011753D03*
X008452Y012206D03*
X008452Y012209D03*
D139*
X008452Y012203D03*
X008452Y011759D03*
X008452Y011756D03*
X009232Y010787D03*
X009232Y010784D03*
X009232Y010340D03*
D140*
X009232Y010346D03*
X009232Y010778D03*
X009232Y010781D03*
X008452Y011762D03*
X008452Y011765D03*
X008452Y012197D03*
X008452Y012200D03*
D141*
X008452Y012194D03*
X008452Y012191D03*
X008452Y011771D03*
X008452Y011768D03*
X009232Y010775D03*
X009232Y010772D03*
X009232Y010352D03*
X009232Y010349D03*
D142*
X009232Y010355D03*
X009232Y010358D03*
X009232Y010769D03*
X008452Y011774D03*
X008452Y011777D03*
X008452Y012185D03*
X008452Y012188D03*
D143*
X008452Y012182D03*
X008452Y012179D03*
X008452Y011783D03*
X008452Y011780D03*
X009232Y010763D03*
X009232Y010760D03*
X009232Y010364D03*
X009232Y010361D03*
D144*
X009232Y010367D03*
X009232Y010370D03*
X009232Y010754D03*
X009232Y010757D03*
X008452Y011786D03*
X008452Y011789D03*
X008452Y012173D03*
X008452Y012176D03*
D145*
X008452Y012170D03*
X008452Y012167D03*
X008452Y011795D03*
X008452Y011792D03*
X009232Y010751D03*
X009232Y010748D03*
X009232Y010376D03*
X009232Y010373D03*
D146*
X009232Y010379D03*
X009232Y010382D03*
X009232Y010385D03*
X009232Y010742D03*
X009232Y010745D03*
X008452Y011798D03*
X008452Y011801D03*
X008452Y012158D03*
X008452Y012161D03*
X008452Y012164D03*
D147*
X008452Y012155D03*
X008452Y012152D03*
X008452Y011810D03*
X008452Y011807D03*
X008452Y011804D03*
X009232Y010739D03*
X009232Y010736D03*
X009232Y010391D03*
X009232Y010388D03*
D148*
X009232Y010394D03*
X009232Y010397D03*
X009232Y010400D03*
X009232Y010727D03*
X009232Y010730D03*
X008452Y011813D03*
X008452Y011816D03*
X008452Y012146D03*
X008452Y012149D03*
D149*
X008454Y012143D03*
D150*
X008452Y012140D03*
X008452Y012137D03*
X008452Y011825D03*
X008452Y011822D03*
X008452Y011819D03*
X009232Y010724D03*
X009232Y010721D03*
X009232Y010718D03*
X009232Y010406D03*
X009232Y010403D03*
D151*
X009232Y010409D03*
X009232Y010412D03*
X009232Y010415D03*
X009232Y010712D03*
X009232Y010715D03*
X008452Y011828D03*
X008452Y011831D03*
X008452Y011834D03*
X008452Y012128D03*
X008452Y012131D03*
X008452Y012134D03*
D152*
X008452Y012125D03*
X008452Y012122D03*
X008452Y012119D03*
X008452Y011843D03*
X008452Y011840D03*
X008452Y011837D03*
X009232Y010706D03*
X009232Y010703D03*
X009232Y010424D03*
X009232Y010421D03*
X009232Y010418D03*
D153*
X009232Y010427D03*
X009232Y010430D03*
X009232Y010433D03*
X009232Y010691D03*
X009232Y010694D03*
X009232Y010697D03*
X008452Y011846D03*
X008452Y011849D03*
X008452Y011852D03*
X008452Y012110D03*
X008452Y012113D03*
X008452Y012116D03*
D154*
X008452Y012107D03*
X008452Y012104D03*
X008452Y012101D03*
X008452Y012098D03*
X008452Y011861D03*
X008452Y011858D03*
X008452Y011855D03*
X009232Y010688D03*
X009232Y010685D03*
X009232Y010682D03*
X009232Y010445D03*
X009232Y010442D03*
X009232Y010439D03*
X009232Y010436D03*
D155*
X009232Y010448D03*
X009232Y010451D03*
X009232Y010454D03*
X009232Y010457D03*
X009232Y010670D03*
X009232Y010673D03*
X009232Y010676D03*
X009232Y010679D03*
X008452Y011867D03*
X008452Y011870D03*
X008452Y011873D03*
X008452Y012086D03*
X008452Y012089D03*
X008452Y012092D03*
X008452Y012095D03*
D156*
X008452Y012083D03*
X008452Y012080D03*
X008452Y012077D03*
X008452Y012074D03*
X008452Y011888D03*
X008452Y011885D03*
X008452Y011882D03*
X008452Y011879D03*
X008452Y011876D03*
X009232Y010667D03*
X009232Y010664D03*
X009232Y010661D03*
X009232Y010658D03*
X009232Y010655D03*
X009232Y010469D03*
X009232Y010466D03*
X009232Y010463D03*
X009232Y010460D03*
D157*
X009232Y010475D03*
X009232Y010478D03*
X009232Y010481D03*
X009232Y010484D03*
X009232Y010640D03*
X009232Y010643D03*
X009232Y010646D03*
X009232Y010649D03*
X009232Y010652D03*
X008452Y011891D03*
X008452Y011894D03*
X008452Y011897D03*
X008452Y011900D03*
X008452Y011903D03*
X008452Y012059D03*
X008452Y012062D03*
X008452Y012065D03*
X008452Y012068D03*
X008452Y012071D03*
D158*
X009474Y012056D03*
X009474Y011906D03*
X008214Y010640D03*
X008214Y010484D03*
X009474Y009221D03*
D159*
X009231Y010487D03*
X008454Y012056D03*
D160*
X008452Y012053D03*
X008452Y012050D03*
X008452Y012047D03*
X008452Y012044D03*
X008452Y012041D03*
X008452Y012038D03*
X008452Y011924D03*
X008452Y011921D03*
X008452Y011918D03*
X008452Y011915D03*
X008452Y011912D03*
X008452Y011909D03*
X008452Y011906D03*
X009232Y010637D03*
X009232Y010634D03*
X009232Y010631D03*
X009232Y010628D03*
X009232Y010625D03*
X009232Y010622D03*
X009232Y010619D03*
X009232Y010505D03*
X009232Y010502D03*
X009232Y010499D03*
X009232Y010496D03*
X009232Y010493D03*
X009232Y010490D03*
D161*
X009231Y010508D03*
X008454Y012035D03*
D162*
X008452Y012032D03*
X008452Y012029D03*
X008452Y012026D03*
X008452Y012023D03*
X008452Y012020D03*
X008452Y012017D03*
X008452Y012014D03*
X008452Y012011D03*
X008452Y012008D03*
X008452Y012005D03*
X008452Y012002D03*
X008452Y011957D03*
X008452Y011954D03*
X008452Y011951D03*
X008452Y011948D03*
X008452Y011945D03*
X008452Y011942D03*
X008452Y011939D03*
X008452Y011936D03*
X008452Y011933D03*
X008452Y011930D03*
X008452Y011927D03*
X009232Y010616D03*
X009232Y010613D03*
X009232Y010610D03*
X009232Y010607D03*
X009232Y010604D03*
X009232Y010601D03*
X009232Y010598D03*
X009232Y010595D03*
X009232Y010592D03*
X009232Y010589D03*
X009232Y010586D03*
X009232Y010541D03*
X009232Y010538D03*
X009232Y010535D03*
X009232Y010532D03*
X009232Y010529D03*
X009232Y010526D03*
X009232Y010523D03*
X009232Y010520D03*
X009232Y010517D03*
X009232Y010514D03*
X009232Y010511D03*
D163*
X008190Y010517D03*
X009495Y009191D03*
X009498Y009188D03*
X009498Y011939D03*
X009498Y012023D03*
X009495Y012026D03*
D164*
X009505Y012011D03*
X009505Y011951D03*
X008179Y010592D03*
X008179Y010532D03*
X009232Y010154D03*
X009502Y009179D03*
X009505Y009176D03*
D165*
X009510Y009167D03*
X008175Y010541D03*
X008175Y010583D03*
X009510Y011960D03*
X009510Y012002D03*
D166*
X008452Y011999D03*
X008452Y011993D03*
X008452Y011990D03*
X008452Y011987D03*
X008452Y011984D03*
X008452Y011981D03*
X008452Y011978D03*
X008452Y011975D03*
X008452Y011972D03*
X008452Y011969D03*
X008452Y011963D03*
X009232Y010580D03*
X009232Y010574D03*
X009232Y010571D03*
X009232Y010568D03*
X009232Y010565D03*
X009232Y010562D03*
X009232Y010559D03*
X009232Y010556D03*
X009232Y010553D03*
X009232Y010544D03*
D167*
X009231Y010547D03*
X009231Y010550D03*
X009231Y010577D03*
X009231Y010583D03*
X008454Y011960D03*
X008454Y011966D03*
X008454Y011996D03*
D168*
X008454Y011864D03*
D169*
X008454Y011714D03*
D170*
X008454Y011684D03*
D171*
X008452Y011654D03*
X009232Y010889D03*
X009232Y010238D03*
D172*
X009232Y010235D03*
X009232Y010892D03*
X008452Y011651D03*
D173*
X008454Y011642D03*
D174*
X008452Y011633D03*
X009232Y010910D03*
D175*
X009232Y010913D03*
X009232Y010214D03*
X008452Y011630D03*
D176*
X008454Y011627D03*
D177*
X008452Y011621D03*
X009232Y010922D03*
D178*
X009232Y010931D03*
X008452Y011612D03*
D179*
X008452Y011606D03*
X009232Y010937D03*
D180*
X009232Y010943D03*
X008452Y011600D03*
D181*
X008454Y011594D03*
D182*
X008452Y011591D03*
X009232Y010952D03*
D183*
X009232Y010955D03*
X008452Y011588D03*
D184*
X008452Y011561D03*
X009232Y010982D03*
D185*
X008452Y011558D03*
D186*
X008452Y011555D03*
X009232Y010988D03*
X009541Y009101D03*
D187*
X008452Y011549D03*
D188*
X008452Y011546D03*
X009232Y010997D03*
D189*
X009232Y011000D03*
X008452Y011543D03*
D190*
X008452Y011540D03*
X009232Y011003D03*
D191*
X009232Y011006D03*
X008452Y011537D03*
D192*
X008452Y011534D03*
D193*
X008452Y011531D03*
D194*
X009232Y011012D03*
D195*
X009232Y011009D03*
D196*
X009232Y010964D03*
D197*
X009232Y010961D03*
X009232Y010166D03*
D198*
X009231Y010958D03*
D199*
X009232Y010949D03*
X009232Y010178D03*
D200*
X009231Y010940D03*
D201*
X009231Y010934D03*
D202*
X009231Y010793D03*
D203*
X009231Y010766D03*
D204*
X009231Y010733D03*
D205*
X009231Y010709D03*
D206*
X009231Y010700D03*
D207*
X008209Y010490D03*
D208*
X009231Y010472D03*
D209*
X009231Y010343D03*
D210*
X009231Y010277D03*
D211*
X009231Y010196D03*
D212*
X009231Y010163D03*
D213*
X009232Y010127D03*
D214*
X009232Y010115D03*
D215*
X009543Y009092D03*
D216*
X009544Y009089D03*
D217*
X009549Y009071D03*
D218*
X009552Y009044D03*
D219*
X009550Y009023D03*
D220*
X009552Y009020D03*
D221*
X009550Y009011D03*
D222*
X009550Y009005D03*
D223*
X009550Y009002D03*
M02*
