G75*
%MOIN*%
%OFA0B0*%
%FSLAX24Y24*%
%IPPOS*%
%LPD*%
%AMOC8*
5,1,8,0,0,1.08239X$1,22.5*
%
%ADD10C,0.1560*%
%ADD11C,0.2000*%
%ADD12C,0.1080*%
%ADD13C,0.0820*%
%ADD14C,0.0950*%
%ADD15R,0.0950X0.0950*%
%ADD16C,0.1040*%
%ADD17R,0.1100X0.1100*%
%ADD18C,0.1100*%
D10*
X002630Y015269D03*
X017714Y001380D03*
D11*
X003531Y003549D03*
X004713Y001699D03*
X005894Y003549D03*
D12*
X005380Y005916D03*
X009380Y005916D03*
D13*
X010691Y006101D02*
X010691Y005581D01*
X011691Y005581D02*
X011691Y006101D01*
X012691Y006101D02*
X012691Y005581D01*
X013691Y005581D02*
X013691Y006101D01*
X014691Y006101D02*
X014691Y005581D01*
X015691Y005581D02*
X015691Y006101D01*
X016691Y006101D02*
X016691Y005581D01*
X017691Y005581D02*
X017691Y006101D01*
X017691Y003101D02*
X017691Y002581D01*
X016691Y002581D02*
X016691Y003101D01*
X015691Y003101D02*
X015691Y002581D01*
X014691Y002581D02*
X014691Y003101D01*
X013691Y003101D02*
X013691Y002581D01*
X012691Y002581D02*
X012691Y003101D01*
X011691Y003101D02*
X011691Y002581D01*
X010691Y002581D02*
X010691Y003101D01*
D14*
X008901Y002351D03*
D15*
X008901Y001351D03*
D16*
X011303Y001535D03*
X012303Y001535D03*
X013303Y001535D03*
X015032Y001535D03*
X016032Y001535D03*
X015912Y007220D03*
X016912Y007220D03*
X017912Y007220D03*
X017912Y008320D03*
X016912Y008320D03*
X015912Y008320D03*
X014912Y008320D03*
X013912Y008320D03*
X012912Y008320D03*
X011912Y008320D03*
X010912Y008320D03*
X009912Y008320D03*
X008912Y008320D03*
X007912Y008320D03*
X006912Y008320D03*
X005912Y008320D03*
X005912Y007220D03*
X006912Y007220D03*
X007912Y007220D03*
X008912Y007220D03*
X009912Y007220D03*
X010912Y007220D03*
X011912Y007220D03*
X012912Y007220D03*
X013912Y007220D03*
X014912Y007220D03*
X014912Y014320D03*
X013912Y014320D03*
X012912Y014320D03*
X011912Y014320D03*
X010912Y014320D03*
X009912Y014320D03*
X008912Y014320D03*
X007912Y014320D03*
X006912Y014320D03*
X005912Y014320D03*
X005912Y015421D03*
X006912Y015421D03*
X007912Y015421D03*
X008912Y015421D03*
X009912Y015421D03*
X010912Y015421D03*
X011912Y015421D03*
X012912Y015421D03*
X013912Y015421D03*
X014912Y015421D03*
X015912Y015421D03*
X016912Y015421D03*
X017912Y015421D03*
X017912Y014320D03*
X016912Y014320D03*
X015912Y014320D03*
D17*
X002950Y013245D03*
X002950Y008663D03*
D18*
X002950Y006694D03*
X002950Y011276D03*
M02*
