G75*
%MOIN*%
%OFA0B0*%
%FSLAX24Y24*%
%IPPOS*%
%LPD*%
%AMOC8*
5,1,8,0,0,1.08239X$1,22.5*
%
%ADD10OC8,0.0820*%
%ADD11C,0.1780*%
%ADD12C,0.0860*%
%ADD13C,0.0820*%
D10*
X014334Y002000D03*
X015334Y002000D03*
X016334Y002000D03*
X016334Y003000D03*
X015334Y003000D03*
X014334Y003000D03*
X017502Y007838D03*
X018502Y007838D03*
X018502Y008838D03*
X017502Y008838D03*
X017502Y009838D03*
X018502Y009838D03*
X018502Y010838D03*
X017502Y010838D03*
X017502Y011838D03*
X018502Y011838D03*
D11*
X013974Y012084D03*
X012124Y010903D03*
X013974Y009722D03*
D12*
X015328Y006954D03*
X011328Y006954D03*
D13*
X001487Y001260D03*
X001487Y002260D03*
X001487Y003260D03*
X002668Y003260D03*
X002668Y002260D03*
X002668Y001260D03*
X002668Y004260D03*
X002668Y005260D03*
X001487Y005260D03*
X001487Y004260D03*
X001487Y006260D03*
X001487Y007260D03*
X001487Y008260D03*
X002668Y008260D03*
X002668Y007260D03*
X002668Y006260D03*
X002668Y009260D03*
X002668Y010260D03*
X001487Y010260D03*
X001487Y009260D03*
X001487Y011260D03*
X001487Y012260D03*
X001487Y013260D03*
X002668Y013260D03*
X002668Y012260D03*
X002668Y011260D03*
X008668Y011260D03*
X008668Y012260D03*
X008668Y013260D03*
X009847Y013260D03*
X009847Y012260D03*
X009847Y011260D03*
X009847Y010260D03*
X009847Y009260D03*
X008668Y009260D03*
X008668Y010260D03*
X008668Y008260D03*
X008668Y007260D03*
X008668Y006260D03*
X009847Y006260D03*
X009847Y007260D03*
X009847Y008260D03*
X009847Y005260D03*
X009847Y004260D03*
X008668Y004260D03*
X008668Y005260D03*
X008668Y003260D03*
X008668Y002260D03*
X008668Y001260D03*
X009847Y001260D03*
X009847Y002260D03*
X009847Y003260D03*
M02*
