%
M48
M72
T01C0.0394
T02C0.0400
T03C0.1180
%
T01
X11328Y6954
X15328Y6954
T02
X1487Y1260
X1487Y2260
X1487Y3260
X2668Y3260
X2668Y2260
X2668Y1260
X2668Y4260
X2668Y5260
X1487Y5260
X1487Y4260
X1487Y6260
X1487Y7260
X1487Y8260
X2668Y8260
X2668Y7260
X2668Y6260
X2668Y9260
X2668Y10260
X1487Y10260
X1487Y9260
X1487Y11260
X1487Y12260
X1487Y13260
X2668Y13260
X2668Y12260
X2668Y11260
X8668Y11260
X8668Y12260
X8668Y13260
X9847Y13260
X9847Y12260
X9847Y11260
X9847Y10260
X9847Y9260
X8668Y9260
X8668Y10260
X8668Y8260
X8668Y7260
X8668Y6260
X9847Y6260
X9847Y7260
X9847Y8260
X9847Y5260
X9847Y4260
X8668Y4260
X8668Y5260
X8668Y3260
X8668Y2260
X8668Y1260
X9847Y1260
X9847Y2260
X9847Y3260
X14334Y3000
X15334Y3000
X16334Y3000
X16334Y2000
X15334Y2000
X14334Y2000
X17502Y7838
X18502Y7838
X18502Y8838
X17502Y8838
X17502Y9838
X18502Y9838
X18502Y10838
X17502Y10838
X17502Y11838
X18502Y11838
T03
X13974Y12084
X12124Y10903
X13974Y9722
M30
