G75*
%MOIN*%
%OFA0B0*%
%FSLAX24Y24*%
%IPPOS*%
%LPD*%
%AMOC8*
5,1,8,0,0,1.08239X$1,22.5*
%
%ADD10OC8,0.0740*%
%ADD11C,0.1700*%
%ADD12C,0.0780*%
%ADD13C,0.0740*%
%ADD14C,0.0160*%
D10*
X014334Y002000D03*
X015334Y002000D03*
X016334Y002000D03*
X016334Y003000D03*
X015334Y003000D03*
X014334Y003000D03*
X017502Y007838D03*
X018502Y007838D03*
X018502Y008838D03*
X017502Y008838D03*
X017502Y009838D03*
X018502Y009838D03*
X018502Y010838D03*
X017502Y010838D03*
X017502Y011838D03*
X018502Y011838D03*
D11*
X013974Y012084D03*
X012124Y010903D03*
X013974Y009722D03*
D12*
X015328Y006954D03*
X011328Y006954D03*
D13*
X009847Y007260D03*
X009847Y006260D03*
X008668Y006260D03*
X008668Y007260D03*
X008668Y008260D03*
X009847Y008260D03*
X009847Y009260D03*
X009847Y010260D03*
X008668Y010260D03*
X008668Y009260D03*
X008668Y011260D03*
X008668Y012260D03*
X008668Y013260D03*
X009847Y013260D03*
X009847Y012260D03*
X009847Y011260D03*
X002668Y011260D03*
X002668Y012260D03*
X002668Y013260D03*
X001487Y013260D03*
X001487Y012260D03*
X001487Y011260D03*
X001487Y010260D03*
X001487Y009260D03*
X002668Y009260D03*
X002668Y010260D03*
X002668Y008260D03*
X002668Y007260D03*
X002668Y006260D03*
X001487Y006260D03*
X001487Y007260D03*
X001487Y008260D03*
X001487Y005260D03*
X001487Y004260D03*
X002668Y004260D03*
X002668Y005260D03*
X002668Y003260D03*
X002668Y002260D03*
X002668Y001260D03*
X001487Y001260D03*
X001487Y002260D03*
X001487Y003260D03*
X008668Y003260D03*
X008668Y002260D03*
X008668Y001260D03*
X009847Y001260D03*
X009847Y002260D03*
X009847Y003260D03*
X009847Y004260D03*
X009847Y005260D03*
X008668Y005260D03*
X008668Y004260D03*
D14*
X000953Y000710D02*
X000999Y000598D01*
X001085Y000512D01*
X001197Y000466D01*
X001257Y000460D01*
X019367Y000460D01*
X019428Y000466D01*
X019540Y000512D01*
X019626Y000598D01*
X019672Y000710D01*
X019678Y000771D01*
X019678Y014550D01*
X019672Y014611D01*
X019626Y014723D01*
X019540Y014808D01*
X019428Y014855D01*
X019367Y014861D01*
X001257Y014861D01*
X001197Y014855D01*
X001085Y014808D01*
X000999Y014723D01*
X000953Y014611D01*
X000947Y014550D01*
X000947Y013394D01*
X001020Y013572D01*
X001175Y013726D01*
X001377Y013810D01*
X001596Y013810D01*
X001798Y013726D01*
X001953Y013572D01*
X002037Y013369D01*
X002037Y013151D01*
X001953Y012948D01*
X001798Y012794D01*
X001717Y012760D01*
X001775Y012730D01*
X001845Y012680D01*
X001906Y012618D01*
X001957Y012548D01*
X001996Y012471D01*
X002023Y012389D01*
X002037Y012303D01*
X002037Y012280D01*
X001507Y012280D01*
X001507Y012240D01*
X002037Y012240D01*
X002037Y012217D01*
X002023Y012131D01*
X001996Y012049D01*
X001957Y011972D01*
X001906Y011902D01*
X001845Y011840D01*
X001775Y011790D01*
X001717Y011760D01*
X001798Y011726D01*
X001953Y011572D01*
X002037Y011369D01*
X002037Y011151D01*
X001953Y010948D01*
X001798Y010794D01*
X001717Y010760D01*
X001798Y010726D01*
X001953Y010572D01*
X002037Y010369D01*
X002037Y010151D01*
X001953Y009948D01*
X001798Y009794D01*
X001717Y009760D01*
X001798Y009726D01*
X001953Y009572D01*
X002037Y009369D01*
X002037Y009151D01*
X001953Y008948D01*
X001798Y008794D01*
X001717Y008760D01*
X001798Y008726D01*
X001953Y008572D01*
X002037Y008369D01*
X002037Y008151D01*
X001953Y007948D01*
X001798Y007794D01*
X001717Y007760D01*
X001798Y007726D01*
X001953Y007572D01*
X002037Y007369D01*
X002037Y007151D01*
X001953Y006948D01*
X001798Y006794D01*
X001717Y006760D01*
X001798Y006726D01*
X001953Y006572D01*
X002037Y006369D01*
X002037Y006151D01*
X001953Y005948D01*
X001798Y005794D01*
X001717Y005760D01*
X001798Y005726D01*
X001953Y005572D01*
X002037Y005369D01*
X002037Y005151D01*
X001953Y004948D01*
X001798Y004794D01*
X001717Y004760D01*
X001798Y004726D01*
X001953Y004572D01*
X002037Y004369D01*
X002037Y004151D01*
X001953Y003948D01*
X001798Y003794D01*
X001717Y003760D01*
X001798Y003726D01*
X001953Y003572D01*
X002037Y003369D01*
X002037Y003151D01*
X001953Y002948D01*
X001798Y002794D01*
X001717Y002760D01*
X001798Y002726D01*
X001953Y002572D01*
X002037Y002369D01*
X002037Y002151D01*
X001953Y001948D01*
X001798Y001794D01*
X001717Y001760D01*
X001798Y001726D01*
X001953Y001572D01*
X002037Y001369D01*
X002037Y001151D01*
X001953Y000948D01*
X001798Y000794D01*
X001596Y000710D01*
X001377Y000710D01*
X001175Y000794D01*
X001020Y000948D01*
X000947Y001126D01*
X000947Y000771D01*
X000953Y000710D01*
X000975Y000656D02*
X019649Y000656D01*
X019678Y000814D02*
X010178Y000814D01*
X010158Y000794D02*
X010313Y000948D01*
X010397Y001151D01*
X010397Y001369D01*
X010313Y001572D01*
X010158Y001726D01*
X010077Y001760D01*
X010158Y001794D01*
X010313Y001948D01*
X010397Y002151D01*
X010397Y002369D01*
X010313Y002572D01*
X010158Y002726D01*
X010077Y002760D01*
X010158Y002794D01*
X010313Y002948D01*
X010397Y003151D01*
X010397Y003369D01*
X010313Y003572D01*
X010158Y003726D01*
X010077Y003760D01*
X010158Y003794D01*
X010313Y003948D01*
X010397Y004151D01*
X010397Y004369D01*
X010313Y004572D01*
X010158Y004726D01*
X010077Y004760D01*
X010158Y004794D01*
X010313Y004948D01*
X010397Y005151D01*
X010397Y005369D01*
X010313Y005572D01*
X010158Y005726D01*
X010077Y005760D01*
X010158Y005794D01*
X010313Y005948D01*
X010397Y006151D01*
X010397Y006369D01*
X010313Y006572D01*
X010158Y006726D01*
X010077Y006760D01*
X010158Y006794D01*
X010313Y006948D01*
X010397Y007151D01*
X010397Y007369D01*
X010313Y007572D01*
X010158Y007726D01*
X010077Y007760D01*
X010158Y007794D01*
X010313Y007948D01*
X010397Y008151D01*
X010397Y008369D01*
X010313Y008572D01*
X010158Y008726D01*
X010077Y008760D01*
X010158Y008794D01*
X010313Y008948D01*
X010397Y009151D01*
X010397Y009369D01*
X010313Y009572D01*
X010158Y009726D01*
X010077Y009760D01*
X010158Y009794D01*
X010313Y009948D01*
X010397Y010151D01*
X010397Y010369D01*
X010313Y010572D01*
X010158Y010726D01*
X010077Y010760D01*
X010158Y010794D01*
X010313Y010948D01*
X010397Y011151D01*
X010397Y011369D01*
X010313Y011572D01*
X010158Y011726D01*
X010077Y011760D01*
X010135Y011790D01*
X010205Y011840D01*
X010266Y011902D01*
X010317Y011972D01*
X010356Y012049D01*
X010383Y012131D01*
X010397Y012217D01*
X010397Y012240D01*
X009867Y012240D01*
X009867Y012280D01*
X010397Y012280D01*
X010397Y012303D01*
X010383Y012389D01*
X010356Y012471D01*
X010317Y012548D01*
X010266Y012618D01*
X010205Y012680D01*
X010135Y012730D01*
X010077Y012760D01*
X010158Y012794D01*
X010313Y012948D01*
X010397Y013151D01*
X010397Y013369D01*
X010313Y013572D01*
X010158Y013726D01*
X009956Y013810D01*
X009737Y013810D01*
X009535Y013726D01*
X009380Y013572D01*
X009297Y013369D01*
X009297Y013151D01*
X009380Y012948D01*
X009535Y012794D01*
X009617Y012760D01*
X009558Y012730D01*
X009488Y012680D01*
X009427Y012618D01*
X009376Y012548D01*
X009337Y012471D01*
X009310Y012389D01*
X009297Y012303D01*
X009297Y012280D01*
X009827Y012280D01*
X009827Y012240D01*
X009297Y012240D01*
X009297Y012217D01*
X009310Y012131D01*
X009337Y012049D01*
X009376Y011972D01*
X009427Y011902D01*
X009488Y011840D01*
X009558Y011790D01*
X009617Y011760D01*
X009535Y011726D01*
X009380Y011572D01*
X009297Y011369D01*
X009297Y011151D01*
X009380Y010948D01*
X009535Y010794D01*
X009617Y010760D01*
X009535Y010726D01*
X009380Y010572D01*
X009297Y010369D01*
X009297Y010151D01*
X009380Y009948D01*
X009535Y009794D01*
X009617Y009760D01*
X009535Y009726D01*
X009380Y009572D01*
X009297Y009369D01*
X009297Y009151D01*
X009380Y008948D01*
X009535Y008794D01*
X009617Y008760D01*
X009535Y008726D01*
X009380Y008572D01*
X009297Y008369D01*
X009297Y008151D01*
X009380Y007948D01*
X009535Y007794D01*
X009617Y007760D01*
X009535Y007726D01*
X009380Y007572D01*
X009297Y007369D01*
X009297Y007151D01*
X009380Y006948D01*
X009535Y006794D01*
X009617Y006760D01*
X009535Y006726D01*
X009380Y006572D01*
X009297Y006369D01*
X009297Y006151D01*
X009380Y005948D01*
X009535Y005794D01*
X009617Y005760D01*
X009535Y005726D01*
X009380Y005572D01*
X009297Y005369D01*
X009297Y005151D01*
X009380Y004948D01*
X009535Y004794D01*
X009617Y004760D01*
X009535Y004726D01*
X009380Y004572D01*
X009297Y004369D01*
X009297Y004151D01*
X009380Y003948D01*
X009535Y003794D01*
X009617Y003760D01*
X009535Y003726D01*
X009380Y003572D01*
X009297Y003369D01*
X009297Y003151D01*
X009380Y002948D01*
X009535Y002794D01*
X009617Y002760D01*
X009535Y002726D01*
X009380Y002572D01*
X009297Y002369D01*
X009297Y002151D01*
X009380Y001948D01*
X009535Y001794D01*
X009617Y001760D01*
X009535Y001726D01*
X009380Y001572D01*
X009297Y001369D01*
X009297Y001151D01*
X009380Y000948D01*
X009535Y000794D01*
X009737Y000710D01*
X009956Y000710D01*
X010158Y000794D01*
X010323Y000973D02*
X019678Y000973D01*
X019678Y001131D02*
X010389Y001131D01*
X010397Y001290D02*
X019678Y001290D01*
X019678Y001448D02*
X010364Y001448D01*
X010278Y001607D02*
X013950Y001607D01*
X014107Y001450D02*
X013784Y001772D01*
X013784Y001980D01*
X014314Y001980D01*
X014314Y002020D01*
X013784Y002020D01*
X013784Y002228D01*
X014057Y002500D01*
X013784Y002772D01*
X013784Y003228D01*
X014107Y003550D01*
X014562Y003550D01*
X014834Y003278D01*
X015107Y003550D01*
X015562Y003550D01*
X015834Y003278D01*
X016107Y003550D01*
X016562Y003550D01*
X016884Y003228D01*
X016884Y002772D01*
X016612Y002500D01*
X016884Y002228D01*
X016884Y001772D01*
X016562Y001450D01*
X016107Y001450D01*
X015834Y001722D01*
X015562Y001450D01*
X015107Y001450D01*
X014834Y001722D01*
X014562Y001450D01*
X014354Y001450D01*
X014354Y001980D01*
X014314Y001980D01*
X014314Y001450D01*
X014107Y001450D01*
X014314Y001607D02*
X014354Y001607D01*
X014354Y001765D02*
X014314Y001765D01*
X014314Y001924D02*
X014354Y001924D01*
X014719Y001607D02*
X014950Y001607D01*
X015719Y001607D02*
X015950Y001607D01*
X016719Y001607D02*
X019678Y001607D01*
X019678Y001765D02*
X016877Y001765D01*
X016884Y001924D02*
X019678Y001924D01*
X019678Y002082D02*
X016884Y002082D01*
X016872Y002241D02*
X019678Y002241D01*
X019678Y002399D02*
X016713Y002399D01*
X016670Y002558D02*
X019678Y002558D01*
X019678Y002716D02*
X016828Y002716D01*
X016884Y002875D02*
X019678Y002875D01*
X019678Y003033D02*
X016884Y003033D01*
X016884Y003192D02*
X019678Y003192D01*
X019678Y003350D02*
X016762Y003350D01*
X016604Y003509D02*
X019678Y003509D01*
X019678Y003667D02*
X010217Y003667D01*
X010190Y003826D02*
X019678Y003826D01*
X019678Y003984D02*
X010328Y003984D01*
X010393Y004143D02*
X019678Y004143D01*
X019678Y004301D02*
X010397Y004301D01*
X010359Y004460D02*
X019678Y004460D01*
X019678Y004618D02*
X010266Y004618D01*
X010117Y004777D02*
X019678Y004777D01*
X019678Y004935D02*
X010299Y004935D01*
X010373Y005094D02*
X019678Y005094D01*
X019678Y005252D02*
X010397Y005252D01*
X010380Y005411D02*
X019678Y005411D01*
X019678Y005569D02*
X010314Y005569D01*
X010155Y005728D02*
X019678Y005728D01*
X019678Y005886D02*
X010250Y005886D01*
X010353Y006045D02*
X019678Y006045D01*
X019678Y006203D02*
X010397Y006203D01*
X010397Y006362D02*
X019678Y006362D01*
X019678Y006520D02*
X015700Y006520D01*
X015651Y006471D02*
X015811Y006631D01*
X015898Y006840D01*
X015898Y007067D01*
X015811Y007277D01*
X015651Y007437D01*
X015441Y007524D01*
X015214Y007524D01*
X015005Y007437D01*
X014844Y007277D01*
X014758Y007067D01*
X014758Y006840D01*
X014844Y006631D01*
X015005Y006471D01*
X015214Y006384D01*
X015441Y006384D01*
X015651Y006471D01*
X015831Y006679D02*
X019678Y006679D01*
X019678Y006837D02*
X015896Y006837D01*
X015898Y006996D02*
X019678Y006996D01*
X019678Y007154D02*
X015862Y007154D01*
X015775Y007313D02*
X017249Y007313D01*
X017274Y007288D02*
X017730Y007288D01*
X018002Y007560D01*
X018274Y007288D01*
X018482Y007288D01*
X018482Y007818D01*
X018522Y007818D01*
X018522Y007858D01*
X018482Y007858D01*
X018482Y008388D01*
X018482Y008818D01*
X018522Y008818D01*
X018522Y008858D01*
X018482Y008858D01*
X018482Y009388D01*
X018482Y009818D01*
X018522Y009818D01*
X018522Y009858D01*
X018482Y009858D01*
X018482Y010388D01*
X018482Y010818D01*
X018522Y010818D01*
X018522Y010858D01*
X019052Y010858D01*
X019052Y011066D01*
X018780Y011338D01*
X019052Y011610D01*
X019052Y012066D01*
X018730Y012388D01*
X018274Y012388D01*
X018002Y012116D01*
X017730Y012388D01*
X017274Y012388D01*
X016952Y012066D01*
X016952Y011610D01*
X017224Y011338D01*
X016952Y011066D01*
X016952Y010610D01*
X017224Y010338D01*
X016952Y010066D01*
X016952Y009610D01*
X017224Y009338D01*
X016952Y009066D01*
X016952Y008610D01*
X017224Y008338D01*
X016952Y008066D01*
X016952Y007610D01*
X017274Y007288D01*
X017091Y007471D02*
X015568Y007471D01*
X015087Y007471D02*
X011568Y007471D01*
X011651Y007437D02*
X011441Y007524D01*
X011214Y007524D01*
X011005Y007437D01*
X010844Y007277D01*
X010758Y007067D01*
X010758Y006840D01*
X010844Y006631D01*
X011005Y006471D01*
X011214Y006384D01*
X011441Y006384D01*
X011651Y006471D01*
X011811Y006631D01*
X011898Y006840D01*
X011898Y007067D01*
X011811Y007277D01*
X011651Y007437D01*
X011775Y007313D02*
X014880Y007313D01*
X014794Y007154D02*
X011862Y007154D01*
X011898Y006996D02*
X014758Y006996D01*
X014759Y006837D02*
X011896Y006837D01*
X011831Y006679D02*
X014825Y006679D01*
X014955Y006520D02*
X011700Y006520D01*
X010955Y006520D02*
X010334Y006520D01*
X010206Y006679D02*
X010825Y006679D01*
X010759Y006837D02*
X010201Y006837D01*
X010332Y006996D02*
X010758Y006996D01*
X010794Y007154D02*
X010397Y007154D01*
X010397Y007313D02*
X010880Y007313D01*
X011087Y007471D02*
X010355Y007471D01*
X010255Y007630D02*
X016952Y007630D01*
X016952Y007788D02*
X010144Y007788D01*
X010311Y007947D02*
X016952Y007947D01*
X016991Y008105D02*
X010378Y008105D01*
X010397Y008264D02*
X017150Y008264D01*
X017140Y008422D02*
X010375Y008422D01*
X010304Y008581D02*
X016981Y008581D01*
X016952Y008739D02*
X014286Y008739D01*
X014372Y008762D02*
X014606Y008898D01*
X016952Y008898D01*
X016952Y009056D02*
X014765Y009056D01*
X014798Y009089D02*
X014606Y008898D01*
X014372Y008762D02*
X014110Y008692D01*
X013838Y008692D01*
X013576Y008762D01*
X013342Y008898D01*
X010262Y008898D01*
X010357Y009056D02*
X013183Y009056D01*
X013150Y009089D02*
X013342Y008898D01*
X013662Y008739D02*
X010127Y008739D01*
X009566Y008739D02*
X008949Y008739D01*
X008979Y008726D02*
X008898Y008760D01*
X008979Y008794D01*
X009134Y008948D01*
X009218Y009151D01*
X009218Y009369D01*
X009134Y009572D01*
X008979Y009726D01*
X008898Y009760D01*
X008979Y009794D01*
X009134Y009948D01*
X009218Y010151D01*
X009218Y010369D01*
X009134Y010572D01*
X008979Y010726D01*
X008898Y010760D01*
X008979Y010794D01*
X009134Y010948D01*
X009218Y011151D01*
X009218Y011369D01*
X009134Y011572D01*
X008979Y011726D01*
X008898Y011760D01*
X008956Y011790D01*
X009026Y011840D01*
X009087Y011902D01*
X009138Y011972D01*
X009177Y012049D01*
X009204Y012131D01*
X009218Y012217D01*
X009218Y012240D01*
X008688Y012240D01*
X008688Y012280D01*
X009218Y012280D01*
X009218Y012303D01*
X009204Y012389D01*
X009177Y012471D01*
X009138Y012548D01*
X009087Y012618D01*
X009026Y012680D01*
X008956Y012730D01*
X008898Y012760D01*
X008979Y012794D01*
X009134Y012948D01*
X009218Y013151D01*
X009218Y013369D01*
X009134Y013572D01*
X008979Y013726D01*
X008777Y013810D01*
X008558Y013810D01*
X008356Y013726D01*
X008202Y013572D01*
X008118Y013369D01*
X008118Y013151D01*
X008202Y012948D01*
X008356Y012794D01*
X008438Y012760D01*
X008380Y012730D01*
X008309Y012680D01*
X008248Y012618D01*
X008197Y012548D01*
X008158Y012471D01*
X008131Y012389D01*
X008118Y012303D01*
X008118Y012280D01*
X008648Y012280D01*
X008648Y012240D01*
X008118Y012240D01*
X008118Y012217D01*
X008131Y012131D01*
X008158Y012049D01*
X008197Y011972D01*
X008248Y011902D01*
X008309Y011840D01*
X008380Y011790D01*
X008438Y011760D01*
X008356Y011726D01*
X008202Y011572D01*
X008118Y011369D01*
X008118Y011151D01*
X008202Y010948D01*
X008356Y010794D01*
X008438Y010760D01*
X008356Y010726D01*
X008202Y010572D01*
X008118Y010369D01*
X008118Y010151D01*
X008202Y009948D01*
X008356Y009794D01*
X008438Y009760D01*
X008356Y009726D01*
X008202Y009572D01*
X008118Y009369D01*
X008118Y009151D01*
X008202Y008948D01*
X008356Y008794D01*
X008438Y008760D01*
X008356Y008726D01*
X008202Y008572D01*
X008118Y008369D01*
X008118Y008151D01*
X008202Y007948D01*
X008356Y007794D01*
X008438Y007760D01*
X008356Y007726D01*
X008202Y007572D01*
X008118Y007369D01*
X008118Y007151D01*
X008202Y006948D01*
X008356Y006794D01*
X008438Y006760D01*
X008356Y006726D01*
X008202Y006572D01*
X008118Y006369D01*
X008118Y006151D01*
X008202Y005948D01*
X008356Y005794D01*
X008438Y005760D01*
X008356Y005726D01*
X008202Y005572D01*
X008118Y005369D01*
X008118Y005151D01*
X008202Y004948D01*
X008356Y004794D01*
X008438Y004760D01*
X008356Y004726D01*
X008202Y004572D01*
X008118Y004369D01*
X008118Y004151D01*
X008202Y003948D01*
X008356Y003794D01*
X008438Y003760D01*
X008356Y003726D01*
X008202Y003572D01*
X008118Y003369D01*
X008118Y003151D01*
X008202Y002948D01*
X008356Y002794D01*
X008438Y002760D01*
X008356Y002726D01*
X008202Y002572D01*
X008118Y002369D01*
X008118Y002151D01*
X008202Y001948D01*
X008356Y001794D01*
X008438Y001760D01*
X008356Y001726D01*
X008202Y001572D01*
X008118Y001369D01*
X008118Y001151D01*
X008202Y000948D01*
X008356Y000794D01*
X008558Y000710D01*
X008777Y000710D01*
X008979Y000794D01*
X009134Y000948D01*
X009218Y001151D01*
X009218Y001369D01*
X009134Y001572D01*
X008979Y001726D01*
X008898Y001760D01*
X008979Y001794D01*
X009134Y001948D01*
X009218Y002151D01*
X009218Y002369D01*
X009134Y002572D01*
X008979Y002726D01*
X008898Y002760D01*
X008979Y002794D01*
X009134Y002948D01*
X009218Y003151D01*
X009218Y003369D01*
X009134Y003572D01*
X008979Y003726D01*
X008898Y003760D01*
X008979Y003794D01*
X009134Y003948D01*
X009218Y004151D01*
X009218Y004369D01*
X009134Y004572D01*
X008979Y004726D01*
X008898Y004760D01*
X008979Y004794D01*
X009134Y004948D01*
X009218Y005151D01*
X009218Y005369D01*
X009134Y005572D01*
X008979Y005726D01*
X008898Y005760D01*
X008979Y005794D01*
X009134Y005948D01*
X009218Y006151D01*
X009218Y006369D01*
X009134Y006572D01*
X008979Y006726D01*
X008898Y006760D01*
X008979Y006794D01*
X009134Y006948D01*
X009218Y007151D01*
X009218Y007369D01*
X009134Y007572D01*
X008979Y007726D01*
X008898Y007760D01*
X008979Y007794D01*
X009134Y007948D01*
X009218Y008151D01*
X009218Y008369D01*
X009134Y008572D01*
X008979Y008726D01*
X009083Y008898D02*
X009431Y008898D01*
X009336Y009056D02*
X009179Y009056D01*
X009218Y009215D02*
X009297Y009215D01*
X009298Y009373D02*
X009216Y009373D01*
X009151Y009532D02*
X009364Y009532D01*
X009499Y009690D02*
X009016Y009690D01*
X009034Y009849D02*
X009480Y009849D01*
X009356Y010007D02*
X009158Y010007D01*
X009218Y010166D02*
X009297Y010166D01*
X009297Y010324D02*
X009218Y010324D01*
X009171Y010483D02*
X009344Y010483D01*
X009450Y010641D02*
X009065Y010641D01*
X008985Y010800D02*
X009529Y010800D01*
X009376Y010958D02*
X009138Y010958D01*
X009204Y011117D02*
X009311Y011117D01*
X009297Y011275D02*
X009218Y011275D01*
X009191Y011434D02*
X009323Y011434D01*
X009401Y011592D02*
X009114Y011592D01*
X008921Y011751D02*
X009594Y011751D01*
X009422Y011909D02*
X009093Y011909D01*
X009184Y012068D02*
X009331Y012068D01*
X009297Y012226D02*
X009218Y012226D01*
X009205Y012385D02*
X009310Y012385D01*
X009374Y012543D02*
X009141Y012543D01*
X008996Y012702D02*
X009519Y012702D01*
X009469Y012860D02*
X009046Y012860D01*
X009163Y013019D02*
X009351Y013019D01*
X009297Y013177D02*
X009218Y013177D01*
X009218Y013336D02*
X009297Y013336D01*
X009348Y013494D02*
X009166Y013494D01*
X009053Y013653D02*
X009461Y013653D01*
X010232Y013653D02*
X019678Y013653D01*
X019678Y013811D02*
X000947Y013811D01*
X000947Y013653D02*
X001101Y013653D01*
X000988Y013494D02*
X000947Y013494D01*
X000947Y013970D02*
X019678Y013970D01*
X019678Y014128D02*
X000947Y014128D01*
X000947Y014287D02*
X019678Y014287D01*
X019678Y014445D02*
X000947Y014445D01*
X000952Y014604D02*
X019673Y014604D01*
X019586Y014762D02*
X001038Y014762D01*
X001872Y013653D02*
X002282Y013653D01*
X002356Y013726D02*
X002202Y013572D01*
X002118Y013369D01*
X002118Y013151D01*
X002202Y012948D01*
X002356Y012794D01*
X002438Y012760D01*
X002380Y012730D01*
X002309Y012680D01*
X002248Y012618D01*
X002197Y012548D01*
X002158Y012471D01*
X002131Y012389D01*
X002118Y012303D01*
X002118Y012280D01*
X002648Y012280D01*
X002648Y012240D01*
X002118Y012240D01*
X002118Y012217D01*
X002131Y012131D01*
X002158Y012049D01*
X002197Y011972D01*
X002248Y011902D01*
X002309Y011840D01*
X002380Y011790D01*
X002438Y011760D01*
X002356Y011726D01*
X002202Y011572D01*
X002118Y011369D01*
X002118Y011151D01*
X002202Y010948D01*
X002356Y010794D01*
X002438Y010760D01*
X002356Y010726D01*
X002202Y010572D01*
X002118Y010369D01*
X002118Y010151D01*
X002202Y009948D01*
X002356Y009794D01*
X002438Y009760D01*
X002356Y009726D01*
X002202Y009572D01*
X002118Y009369D01*
X002118Y009151D01*
X002202Y008948D01*
X002356Y008794D01*
X002438Y008760D01*
X002356Y008726D01*
X002202Y008572D01*
X002118Y008369D01*
X002118Y008151D01*
X002202Y007948D01*
X002356Y007794D01*
X002438Y007760D01*
X002356Y007726D01*
X002202Y007572D01*
X002118Y007369D01*
X002118Y007151D01*
X002202Y006948D01*
X002356Y006794D01*
X002438Y006760D01*
X002356Y006726D01*
X002202Y006572D01*
X002118Y006369D01*
X002118Y006151D01*
X002202Y005948D01*
X002356Y005794D01*
X002438Y005760D01*
X002356Y005726D01*
X002202Y005572D01*
X002118Y005369D01*
X002118Y005151D01*
X002202Y004948D01*
X002356Y004794D01*
X002438Y004760D01*
X002356Y004726D01*
X002202Y004572D01*
X002118Y004369D01*
X002118Y004151D01*
X002202Y003948D01*
X002356Y003794D01*
X002438Y003760D01*
X002356Y003726D01*
X002202Y003572D01*
X002118Y003369D01*
X002118Y003151D01*
X002202Y002948D01*
X002356Y002794D01*
X002438Y002760D01*
X002356Y002726D01*
X002202Y002572D01*
X002118Y002369D01*
X002118Y002151D01*
X002202Y001948D01*
X002356Y001794D01*
X002438Y001760D01*
X002356Y001726D01*
X002202Y001572D01*
X002118Y001369D01*
X002118Y001151D01*
X002202Y000948D01*
X002356Y000794D01*
X002558Y000710D01*
X002777Y000710D01*
X002979Y000794D01*
X003134Y000948D01*
X003218Y001151D01*
X003218Y001369D01*
X003134Y001572D01*
X002979Y001726D01*
X002898Y001760D01*
X002979Y001794D01*
X003134Y001948D01*
X003218Y002151D01*
X003218Y002369D01*
X003134Y002572D01*
X002979Y002726D01*
X002898Y002760D01*
X002979Y002794D01*
X003134Y002948D01*
X003218Y003151D01*
X003218Y003369D01*
X003134Y003572D01*
X002979Y003726D01*
X002898Y003760D01*
X002979Y003794D01*
X003134Y003948D01*
X003218Y004151D01*
X003218Y004369D01*
X003134Y004572D01*
X002979Y004726D01*
X002898Y004760D01*
X002979Y004794D01*
X003134Y004948D01*
X003218Y005151D01*
X003218Y005369D01*
X003134Y005572D01*
X002979Y005726D01*
X002898Y005760D01*
X002979Y005794D01*
X003134Y005948D01*
X003218Y006151D01*
X003218Y006369D01*
X003134Y006572D01*
X002979Y006726D01*
X002898Y006760D01*
X002979Y006794D01*
X003134Y006948D01*
X003218Y007151D01*
X003218Y007369D01*
X003134Y007572D01*
X002979Y007726D01*
X002898Y007760D01*
X002979Y007794D01*
X003134Y007948D01*
X003218Y008151D01*
X003218Y008369D01*
X003134Y008572D01*
X002979Y008726D01*
X002898Y008760D01*
X002979Y008794D01*
X003134Y008948D01*
X003218Y009151D01*
X003218Y009369D01*
X003134Y009572D01*
X002979Y009726D01*
X002898Y009760D01*
X002979Y009794D01*
X003134Y009948D01*
X003218Y010151D01*
X003218Y010369D01*
X003134Y010572D01*
X002979Y010726D01*
X002898Y010760D01*
X002979Y010794D01*
X003134Y010948D01*
X003218Y011151D01*
X003218Y011369D01*
X003134Y011572D01*
X002979Y011726D01*
X002898Y011760D01*
X002956Y011790D01*
X003026Y011840D01*
X003087Y011902D01*
X003138Y011972D01*
X003177Y012049D01*
X003204Y012131D01*
X003218Y012217D01*
X003218Y012240D01*
X002688Y012240D01*
X002688Y012280D01*
X003218Y012280D01*
X003218Y012303D01*
X003204Y012389D01*
X003177Y012471D01*
X003138Y012548D01*
X003087Y012618D01*
X003026Y012680D01*
X002956Y012730D01*
X002898Y012760D01*
X002979Y012794D01*
X003134Y012948D01*
X003218Y013151D01*
X003218Y013369D01*
X003134Y013572D01*
X002979Y013726D01*
X002777Y013810D01*
X002558Y013810D01*
X002356Y013726D01*
X002169Y013494D02*
X001985Y013494D01*
X002037Y013336D02*
X002118Y013336D01*
X002118Y013177D02*
X002037Y013177D01*
X001982Y013019D02*
X002172Y013019D01*
X002290Y012860D02*
X001865Y012860D01*
X001815Y012702D02*
X002340Y012702D01*
X002195Y012543D02*
X001960Y012543D01*
X002024Y012385D02*
X002131Y012385D01*
X002118Y012226D02*
X002037Y012226D01*
X002002Y012068D02*
X002152Y012068D01*
X002243Y011909D02*
X001911Y011909D01*
X001740Y011751D02*
X002415Y011751D01*
X002222Y011592D02*
X001932Y011592D01*
X002010Y011434D02*
X002144Y011434D01*
X002118Y011275D02*
X002037Y011275D01*
X002023Y011117D02*
X002132Y011117D01*
X002198Y010958D02*
X001957Y010958D01*
X001804Y010800D02*
X002350Y010800D01*
X002271Y010641D02*
X001883Y010641D01*
X001990Y010483D02*
X002165Y010483D01*
X002118Y010324D02*
X002037Y010324D01*
X002037Y010166D02*
X002118Y010166D01*
X002177Y010007D02*
X001977Y010007D01*
X001853Y009849D02*
X002301Y009849D01*
X002320Y009690D02*
X001834Y009690D01*
X001970Y009532D02*
X002185Y009532D01*
X002119Y009373D02*
X002035Y009373D01*
X002037Y009215D02*
X002118Y009215D01*
X002157Y009056D02*
X001997Y009056D01*
X001902Y008898D02*
X002252Y008898D01*
X002387Y008739D02*
X001767Y008739D01*
X001944Y008581D02*
X002210Y008581D01*
X002140Y008422D02*
X002015Y008422D01*
X002037Y008264D02*
X002118Y008264D01*
X002137Y008105D02*
X002018Y008105D01*
X001951Y007947D02*
X002203Y007947D01*
X002370Y007788D02*
X001784Y007788D01*
X001895Y007630D02*
X002259Y007630D01*
X002160Y007471D02*
X001995Y007471D01*
X002037Y007313D02*
X002118Y007313D01*
X002118Y007154D02*
X002037Y007154D01*
X001972Y006996D02*
X002182Y006996D01*
X002313Y006837D02*
X001841Y006837D01*
X001846Y006679D02*
X002308Y006679D01*
X002180Y006520D02*
X001974Y006520D01*
X002037Y006362D02*
X002118Y006362D01*
X002118Y006203D02*
X002037Y006203D01*
X001993Y006045D02*
X002162Y006045D01*
X002264Y005886D02*
X001890Y005886D01*
X001795Y005728D02*
X002359Y005728D01*
X002200Y005569D02*
X001954Y005569D01*
X002020Y005411D02*
X002135Y005411D01*
X002118Y005252D02*
X002037Y005252D01*
X002013Y005094D02*
X002141Y005094D01*
X002215Y004935D02*
X001939Y004935D01*
X001757Y004777D02*
X002398Y004777D01*
X002248Y004618D02*
X001906Y004618D01*
X001999Y004460D02*
X002155Y004460D01*
X002118Y004301D02*
X002037Y004301D01*
X002033Y004143D02*
X002121Y004143D01*
X002187Y003984D02*
X001968Y003984D01*
X001830Y003826D02*
X002324Y003826D01*
X002297Y003667D02*
X001857Y003667D01*
X001979Y003509D02*
X002175Y003509D01*
X002118Y003350D02*
X002037Y003350D01*
X002037Y003192D02*
X002118Y003192D01*
X002166Y003033D02*
X001988Y003033D01*
X001879Y002875D02*
X002275Y002875D01*
X002346Y002716D02*
X001808Y002716D01*
X001959Y002558D02*
X002196Y002558D01*
X002130Y002399D02*
X002024Y002399D01*
X002037Y002241D02*
X002118Y002241D01*
X002146Y002082D02*
X002008Y002082D01*
X001928Y001924D02*
X002226Y001924D01*
X002426Y001765D02*
X001729Y001765D01*
X001918Y001607D02*
X002236Y001607D01*
X002150Y001448D02*
X002004Y001448D01*
X002037Y001290D02*
X002118Y001290D01*
X002126Y001131D02*
X002029Y001131D01*
X001963Y000973D02*
X002192Y000973D01*
X002336Y000814D02*
X001818Y000814D01*
X001155Y000814D02*
X000947Y000814D01*
X000947Y000973D02*
X001010Y000973D01*
X001122Y000497D02*
X019503Y000497D01*
X015907Y003350D02*
X015762Y003350D01*
X015604Y003509D02*
X016065Y003509D01*
X015065Y003509D02*
X014604Y003509D01*
X014762Y003350D02*
X014907Y003350D01*
X014065Y003509D02*
X010339Y003509D01*
X010397Y003350D02*
X013907Y003350D01*
X013784Y003192D02*
X010397Y003192D01*
X010348Y003033D02*
X013784Y003033D01*
X013784Y002875D02*
X010239Y002875D01*
X010168Y002716D02*
X013840Y002716D01*
X013999Y002558D02*
X010319Y002558D01*
X010384Y002399D02*
X013956Y002399D01*
X013797Y002241D02*
X010397Y002241D01*
X010368Y002082D02*
X013784Y002082D01*
X013784Y001924D02*
X010288Y001924D01*
X010089Y001765D02*
X013791Y001765D01*
X009604Y001765D02*
X008910Y001765D01*
X009099Y001607D02*
X009415Y001607D01*
X009329Y001448D02*
X009185Y001448D01*
X009218Y001290D02*
X009297Y001290D01*
X009305Y001131D02*
X009210Y001131D01*
X009144Y000973D02*
X009370Y000973D01*
X009515Y000814D02*
X009000Y000814D01*
X008336Y000814D02*
X003000Y000814D01*
X003144Y000973D02*
X008192Y000973D01*
X008126Y001131D02*
X003210Y001131D01*
X003218Y001290D02*
X008118Y001290D01*
X008150Y001448D02*
X003185Y001448D01*
X003099Y001607D02*
X008236Y001607D01*
X008426Y001765D02*
X002910Y001765D01*
X003109Y001924D02*
X008226Y001924D01*
X008146Y002082D02*
X003189Y002082D01*
X003218Y002241D02*
X008118Y002241D01*
X008130Y002399D02*
X003206Y002399D01*
X003140Y002558D02*
X008196Y002558D01*
X008346Y002716D02*
X002990Y002716D01*
X003060Y002875D02*
X008275Y002875D01*
X008166Y003033D02*
X003169Y003033D01*
X003218Y003192D02*
X008118Y003192D01*
X008118Y003350D02*
X003218Y003350D01*
X003160Y003509D02*
X008175Y003509D01*
X008297Y003667D02*
X003039Y003667D01*
X003011Y003826D02*
X008324Y003826D01*
X008187Y003984D02*
X003149Y003984D01*
X003214Y004143D02*
X008121Y004143D01*
X008118Y004301D02*
X003218Y004301D01*
X003180Y004460D02*
X008155Y004460D01*
X008248Y004618D02*
X003088Y004618D01*
X002938Y004777D02*
X008398Y004777D01*
X008215Y004935D02*
X003121Y004935D01*
X003194Y005094D02*
X008141Y005094D01*
X008118Y005252D02*
X003218Y005252D01*
X003201Y005411D02*
X008135Y005411D01*
X008200Y005569D02*
X003135Y005569D01*
X002976Y005728D02*
X008359Y005728D01*
X008264Y005886D02*
X003072Y005886D01*
X003174Y006045D02*
X008162Y006045D01*
X008118Y006203D02*
X003218Y006203D01*
X003218Y006362D02*
X008118Y006362D01*
X008180Y006520D02*
X003155Y006520D01*
X003027Y006679D02*
X008308Y006679D01*
X008313Y006837D02*
X003023Y006837D01*
X003154Y006996D02*
X008182Y006996D01*
X008118Y007154D02*
X003218Y007154D01*
X003218Y007313D02*
X008118Y007313D01*
X008160Y007471D02*
X003176Y007471D01*
X003076Y007630D02*
X008259Y007630D01*
X008370Y007788D02*
X002966Y007788D01*
X003132Y007947D02*
X008203Y007947D01*
X008137Y008105D02*
X003199Y008105D01*
X003218Y008264D02*
X008118Y008264D01*
X008140Y008422D02*
X003196Y008422D01*
X003125Y008581D02*
X008210Y008581D01*
X008387Y008739D02*
X002949Y008739D01*
X003083Y008898D02*
X008252Y008898D01*
X008157Y009056D02*
X003179Y009056D01*
X003218Y009215D02*
X008118Y009215D01*
X008119Y009373D02*
X003216Y009373D01*
X003151Y009532D02*
X008185Y009532D01*
X008320Y009690D02*
X003016Y009690D01*
X003034Y009849D02*
X008301Y009849D01*
X008177Y010007D02*
X003158Y010007D01*
X003218Y010166D02*
X008118Y010166D01*
X008118Y010324D02*
X003218Y010324D01*
X003171Y010483D02*
X008165Y010483D01*
X008271Y010641D02*
X003065Y010641D01*
X002985Y010800D02*
X008350Y010800D01*
X008198Y010958D02*
X003138Y010958D01*
X003204Y011117D02*
X008132Y011117D01*
X008118Y011275D02*
X003218Y011275D01*
X003191Y011434D02*
X008144Y011434D01*
X008222Y011592D02*
X003114Y011592D01*
X002921Y011751D02*
X008415Y011751D01*
X008243Y011909D02*
X003093Y011909D01*
X003184Y012068D02*
X008152Y012068D01*
X008118Y012226D02*
X003218Y012226D01*
X003205Y012385D02*
X008131Y012385D01*
X008195Y012543D02*
X003141Y012543D01*
X002996Y012702D02*
X008340Y012702D01*
X008290Y012860D02*
X003046Y012860D01*
X003163Y013019D02*
X008172Y013019D01*
X008118Y013177D02*
X003218Y013177D01*
X003218Y013336D02*
X008118Y013336D01*
X008169Y013494D02*
X003166Y013494D01*
X003053Y013653D02*
X008282Y013653D01*
X010225Y012860D02*
X013295Y012860D01*
X013287Y012853D02*
X013205Y012771D01*
X013133Y012681D01*
X013071Y012583D01*
X013021Y012479D01*
X012983Y012370D01*
X012957Y012257D01*
X012946Y012164D01*
X013894Y012164D01*
X013894Y013111D01*
X013801Y013101D01*
X013688Y013075D01*
X013579Y013037D01*
X013475Y012987D01*
X013377Y012925D01*
X013287Y012853D01*
X013149Y012702D02*
X010175Y012702D01*
X010320Y012543D02*
X013052Y012543D01*
X012988Y012385D02*
X010384Y012385D01*
X010397Y012226D02*
X012953Y012226D01*
X012946Y012004D02*
X012957Y011911D01*
X012983Y011798D01*
X013021Y011689D01*
X013071Y011585D01*
X013133Y011487D01*
X013205Y011397D01*
X013287Y011315D01*
X013377Y011243D01*
X013475Y011181D01*
X013579Y011131D01*
X013688Y011093D01*
X013801Y011067D01*
X013894Y011056D01*
X013894Y012004D01*
X012946Y012004D01*
X012957Y011909D02*
X012348Y011909D01*
X012259Y011933D02*
X012521Y011863D01*
X012756Y011727D01*
X012948Y011535D01*
X013083Y011300D01*
X013154Y011038D01*
X013154Y010767D01*
X013083Y010505D01*
X012948Y010270D01*
X012756Y010079D01*
X012521Y009943D01*
X012259Y009873D01*
X011988Y009873D01*
X011726Y009943D01*
X011491Y010079D01*
X011299Y010270D01*
X011164Y010505D01*
X011094Y010767D01*
X011094Y011038D01*
X011164Y011300D01*
X011299Y011535D01*
X011491Y011727D01*
X011726Y011863D01*
X011988Y011933D01*
X012259Y011933D01*
X011899Y011909D02*
X010271Y011909D01*
X010362Y012068D02*
X013894Y012068D01*
X013894Y012004D02*
X013894Y012164D01*
X014054Y012164D01*
X014054Y013111D01*
X014147Y013101D01*
X014260Y013075D01*
X014369Y013037D01*
X014473Y012987D01*
X014571Y012925D01*
X014661Y012853D01*
X014743Y012771D01*
X014815Y012681D01*
X014877Y012583D01*
X014927Y012479D01*
X014965Y012370D01*
X014991Y012257D01*
X015001Y012164D01*
X014054Y012164D01*
X014054Y012004D01*
X015001Y012004D01*
X014991Y011911D01*
X014965Y011798D01*
X014927Y011689D01*
X014877Y011585D01*
X014815Y011487D01*
X014743Y011397D01*
X014661Y011315D01*
X014571Y011243D01*
X014473Y011181D01*
X014369Y011131D01*
X014260Y011093D01*
X014147Y011067D01*
X014054Y011056D01*
X014054Y012004D01*
X013894Y012004D01*
X013894Y011909D02*
X014054Y011909D01*
X014054Y011751D02*
X013894Y011751D01*
X013894Y011592D02*
X014054Y011592D01*
X014054Y011434D02*
X013894Y011434D01*
X013894Y011275D02*
X014054Y011275D01*
X014054Y011117D02*
X013894Y011117D01*
X013620Y011117D02*
X013133Y011117D01*
X013154Y010958D02*
X016952Y010958D01*
X016952Y010800D02*
X013154Y010800D01*
X013120Y010641D02*
X013506Y010641D01*
X013576Y010682D02*
X013342Y010546D01*
X013150Y010354D01*
X013014Y010119D01*
X012944Y009857D01*
X012944Y009586D01*
X013014Y009324D01*
X013150Y009089D01*
X013077Y009215D02*
X010397Y009215D01*
X010395Y009373D02*
X013001Y009373D01*
X012959Y009532D02*
X010330Y009532D01*
X010194Y009690D02*
X012944Y009690D01*
X012944Y009849D02*
X010213Y009849D01*
X010337Y010007D02*
X011615Y010007D01*
X011404Y010166D02*
X010397Y010166D01*
X010397Y010324D02*
X011268Y010324D01*
X011177Y010483D02*
X010350Y010483D01*
X010243Y010641D02*
X011127Y010641D01*
X011094Y010800D02*
X010164Y010800D01*
X010317Y010958D02*
X011094Y010958D01*
X011115Y011117D02*
X010383Y011117D01*
X010397Y011275D02*
X011157Y011275D01*
X011241Y011434D02*
X010370Y011434D01*
X010292Y011592D02*
X011356Y011592D01*
X011532Y011751D02*
X010100Y011751D01*
X010342Y013019D02*
X013541Y013019D01*
X013894Y013019D02*
X014054Y013019D01*
X014054Y012860D02*
X013894Y012860D01*
X013894Y012702D02*
X014054Y012702D01*
X014054Y012543D02*
X013894Y012543D01*
X013894Y012385D02*
X014054Y012385D01*
X014054Y012226D02*
X013894Y012226D01*
X014054Y012068D02*
X016954Y012068D01*
X016952Y011909D02*
X014991Y011909D01*
X014949Y011751D02*
X016952Y011751D01*
X016970Y011592D02*
X014880Y011592D01*
X014773Y011434D02*
X017128Y011434D01*
X017161Y011275D02*
X014612Y011275D01*
X014328Y011117D02*
X017003Y011117D01*
X016952Y010641D02*
X014442Y010641D01*
X014372Y010682D02*
X014110Y010752D01*
X013838Y010752D01*
X013576Y010682D01*
X013278Y010483D02*
X013070Y010483D01*
X013132Y010324D02*
X012979Y010324D01*
X013041Y010166D02*
X012843Y010166D01*
X012984Y010007D02*
X012632Y010007D01*
X013090Y011275D02*
X013336Y011275D01*
X013175Y011434D02*
X013007Y011434D01*
X013068Y011592D02*
X012891Y011592D01*
X012999Y011751D02*
X012715Y011751D01*
X014372Y010682D02*
X014606Y010546D01*
X014798Y010354D01*
X014934Y010119D01*
X015004Y009857D01*
X015004Y009586D01*
X014934Y009324D01*
X014798Y009089D01*
X014870Y009215D02*
X017101Y009215D01*
X017189Y009373D02*
X014947Y009373D01*
X014989Y009532D02*
X017030Y009532D01*
X016952Y009690D02*
X015004Y009690D01*
X015004Y009849D02*
X016952Y009849D01*
X016952Y010007D02*
X014964Y010007D01*
X014907Y010166D02*
X017052Y010166D01*
X017210Y010324D02*
X014816Y010324D01*
X014670Y010483D02*
X017079Y010483D01*
X018482Y010483D02*
X018522Y010483D01*
X018522Y010641D02*
X018482Y010641D01*
X018482Y010800D02*
X018522Y010800D01*
X018522Y010818D02*
X018522Y009858D01*
X019052Y009858D01*
X019052Y010066D01*
X018780Y010338D01*
X019052Y010610D01*
X019052Y010818D01*
X018522Y010818D01*
X018924Y010483D02*
X019678Y010483D01*
X019678Y010641D02*
X019052Y010641D01*
X019052Y010800D02*
X019678Y010800D01*
X019678Y010958D02*
X019052Y010958D01*
X019001Y011117D02*
X019678Y011117D01*
X019678Y011275D02*
X018842Y011275D01*
X018875Y011434D02*
X019678Y011434D01*
X019678Y011592D02*
X019034Y011592D01*
X019052Y011751D02*
X019678Y011751D01*
X019678Y011909D02*
X019052Y011909D01*
X019050Y012068D02*
X019678Y012068D01*
X019678Y012226D02*
X018891Y012226D01*
X018733Y012385D02*
X019678Y012385D01*
X019678Y012543D02*
X014896Y012543D01*
X014960Y012385D02*
X017271Y012385D01*
X017112Y012226D02*
X014994Y012226D01*
X014799Y012702D02*
X019678Y012702D01*
X019678Y012860D02*
X014653Y012860D01*
X014407Y013019D02*
X019678Y013019D01*
X019678Y013177D02*
X010397Y013177D01*
X010397Y013336D02*
X019678Y013336D01*
X019678Y013494D02*
X010345Y013494D01*
X009389Y008581D02*
X009125Y008581D01*
X009196Y008422D02*
X009318Y008422D01*
X009297Y008264D02*
X009218Y008264D01*
X009199Y008105D02*
X009316Y008105D01*
X009382Y007947D02*
X009132Y007947D01*
X008966Y007788D02*
X009549Y007788D01*
X009438Y007630D02*
X009076Y007630D01*
X009176Y007471D02*
X009339Y007471D01*
X009297Y007313D02*
X009218Y007313D01*
X009218Y007154D02*
X009297Y007154D01*
X009361Y006996D02*
X009154Y006996D01*
X009023Y006837D02*
X009492Y006837D01*
X009487Y006679D02*
X009027Y006679D01*
X009155Y006520D02*
X009359Y006520D01*
X009297Y006362D02*
X009218Y006362D01*
X009218Y006203D02*
X009297Y006203D01*
X009341Y006045D02*
X009174Y006045D01*
X009072Y005886D02*
X009443Y005886D01*
X009538Y005728D02*
X008976Y005728D01*
X009135Y005569D02*
X009379Y005569D01*
X009314Y005411D02*
X009201Y005411D01*
X009218Y005252D02*
X009297Y005252D01*
X009320Y005094D02*
X009194Y005094D01*
X009121Y004935D02*
X009394Y004935D01*
X009577Y004777D02*
X008938Y004777D01*
X009088Y004618D02*
X009427Y004618D01*
X009334Y004460D02*
X009180Y004460D01*
X009218Y004301D02*
X009297Y004301D01*
X009300Y004143D02*
X009214Y004143D01*
X009149Y003984D02*
X009366Y003984D01*
X009503Y003826D02*
X009011Y003826D01*
X009039Y003667D02*
X009476Y003667D01*
X009354Y003509D02*
X009160Y003509D01*
X009218Y003350D02*
X009297Y003350D01*
X009297Y003192D02*
X009218Y003192D01*
X009169Y003033D02*
X009345Y003033D01*
X009454Y002875D02*
X009060Y002875D01*
X008990Y002716D02*
X009525Y002716D01*
X009375Y002558D02*
X009140Y002558D01*
X009206Y002399D02*
X009309Y002399D01*
X009297Y002241D02*
X009218Y002241D01*
X009189Y002082D02*
X009325Y002082D01*
X009405Y001924D02*
X009109Y001924D01*
X017754Y007313D02*
X018249Y007313D01*
X018091Y007471D02*
X017913Y007471D01*
X018482Y007471D02*
X018522Y007471D01*
X018522Y007313D02*
X018482Y007313D01*
X018522Y007288D02*
X018730Y007288D01*
X019052Y007610D01*
X019052Y007818D01*
X018522Y007818D01*
X018522Y007288D01*
X018754Y007313D02*
X019678Y007313D01*
X019678Y007471D02*
X018913Y007471D01*
X019052Y007630D02*
X019678Y007630D01*
X019678Y007788D02*
X019052Y007788D01*
X019052Y007858D02*
X019052Y008066D01*
X018780Y008338D01*
X019052Y008610D01*
X019052Y008818D01*
X018522Y008818D01*
X018522Y007858D01*
X019052Y007858D01*
X019052Y007947D02*
X019678Y007947D01*
X019678Y008105D02*
X019012Y008105D01*
X018854Y008264D02*
X019678Y008264D01*
X019678Y008422D02*
X018864Y008422D01*
X019022Y008581D02*
X019678Y008581D01*
X019678Y008739D02*
X019052Y008739D01*
X019052Y008858D02*
X019052Y009066D01*
X018780Y009338D01*
X019052Y009610D01*
X019052Y009818D01*
X018522Y009818D01*
X018522Y008858D01*
X019052Y008858D01*
X019052Y008898D02*
X019678Y008898D01*
X019678Y009056D02*
X019052Y009056D01*
X018903Y009215D02*
X019678Y009215D01*
X019678Y009373D02*
X018815Y009373D01*
X018973Y009532D02*
X019678Y009532D01*
X019678Y009690D02*
X019052Y009690D01*
X019052Y010007D02*
X019678Y010007D01*
X019678Y009849D02*
X018522Y009849D01*
X018522Y010007D02*
X018482Y010007D01*
X018482Y010166D02*
X018522Y010166D01*
X018522Y010324D02*
X018482Y010324D01*
X018793Y010324D02*
X019678Y010324D01*
X019678Y010166D02*
X018952Y010166D01*
X018522Y009690D02*
X018482Y009690D01*
X018482Y009532D02*
X018522Y009532D01*
X018522Y009373D02*
X018482Y009373D01*
X018482Y009215D02*
X018522Y009215D01*
X018522Y009056D02*
X018482Y009056D01*
X018482Y008898D02*
X018522Y008898D01*
X018522Y008739D02*
X018482Y008739D01*
X018482Y008581D02*
X018522Y008581D01*
X018522Y008422D02*
X018482Y008422D01*
X018482Y008264D02*
X018522Y008264D01*
X018522Y008105D02*
X018482Y008105D01*
X018482Y007947D02*
X018522Y007947D01*
X018522Y007788D02*
X018482Y007788D01*
X018482Y007630D02*
X018522Y007630D01*
X018112Y012226D02*
X017891Y012226D01*
X017733Y012385D02*
X018271Y012385D01*
M02*
