%
M48
M72
T01C0.0160
T02C0.0354
T03C0.0400
%
T01
X6088Y2553
X6538Y2083
X8198Y1873
X8198Y2323
X8188Y1043
X10008Y2133
X10678Y2933
X10388Y4513
X9098Y5643
X8928Y5963
X9428Y6513
X9468Y6883
X8928Y6813
X8747Y7592
X8713Y7952
X7998Y7243
X7548Y6593
X7568Y6183
X7658Y5643
X7488Y4443
X7848Y4433
X8578Y4403
X6308Y4283
X7163Y6983
X7208Y7343
X6548Y9183
X7088Y9383
X7628Y9483
X8348Y9343
X8528Y10083
X8448Y10773
X7828Y10603
X7808Y10233
X7838Y11013
X7548Y11943
X8286Y12444
X8868Y11543
X9398Y12583
X9398Y13003
X10728Y12663
X10238Y11253
X10468Y9813
X10283Y9213
X9608Y9343
X9088Y9343
X10298Y8493
X6408Y11683
X6018Y11013
X7118Y12753
T02
X7382Y2463
X9114Y2463
T03
X5248Y1193
X5248Y2193
X5248Y3193
X5248Y4193
X5248Y5193
X5248Y6193
X5248Y7193
X5248Y8193
X5248Y9193
X5248Y10193
X5248Y11193
X5248Y12193
X5248Y13193
X5748Y13972
X6748Y13972
X7748Y13972
X8748Y13972
X9748Y13972
X10748Y13972
X11248Y13193
X11248Y12193
X11248Y11193
X11248Y10193
X11248Y9193
X11248Y8193
X11248Y7193
X11248Y6193
X11248Y5193
X11248Y4193
X11248Y3193
X11248Y2193
X11248Y1193
X10178Y12978
X6318Y12970
M30
