G75*
%MOIN*%
%OFA0B0*%
%FSLAX24Y24*%
%IPPOS*%
%LPD*%
%AMOC8*
5,1,8,0,0,1.08239X$1,22.5*
%
%ADD10R,0.0671X0.0237*%
%ADD11R,0.0277X0.0513*%
%ADD12R,0.0580X0.0330*%
%ADD13R,0.0330X0.0580*%
%ADD14R,0.0395X0.0552*%
%ADD15C,0.0820*%
%ADD16R,0.0867X0.0671*%
%ADD17R,0.0867X0.1576*%
%ADD18C,0.0580*%
%ADD19R,0.0328X0.0407*%
%ADD20C,0.0434*%
D10*
X006961Y002899D03*
X006961Y003155D03*
X006961Y003411D03*
X006961Y003667D03*
X006961Y003923D03*
X006961Y004179D03*
X006961Y004435D03*
X006961Y004691D03*
X006961Y004947D03*
X006961Y005203D03*
X006961Y005459D03*
X006961Y005714D03*
X006961Y005970D03*
X006961Y006226D03*
X009815Y006226D03*
X009815Y005970D03*
X009815Y005714D03*
X009815Y005459D03*
X009815Y005203D03*
X009815Y004947D03*
X009815Y004691D03*
X009815Y004435D03*
X009815Y004179D03*
X009815Y003923D03*
X009815Y003667D03*
X009815Y003411D03*
X009815Y003155D03*
X009815Y002899D03*
D11*
X006850Y006608D03*
X006535Y006608D03*
X006220Y006608D03*
X005905Y006608D03*
X005905Y007277D03*
X006220Y007277D03*
X006535Y007277D03*
X006850Y007277D03*
X007445Y008232D03*
X007760Y008232D03*
X008075Y008232D03*
X008390Y008232D03*
X009030Y008232D03*
X009345Y008232D03*
X009660Y008232D03*
X009975Y008232D03*
X009975Y008901D03*
X009660Y008901D03*
X009345Y008901D03*
X009030Y008901D03*
X008390Y008901D03*
X008075Y008901D03*
X007760Y008901D03*
X007445Y008901D03*
D12*
X006218Y009553D03*
X006218Y009903D03*
X006218Y010253D03*
D13*
X006258Y008393D03*
X006608Y008393D03*
X006958Y008393D03*
D14*
X008544Y001443D03*
X009252Y001443D03*
D15*
X005248Y001193D03*
X005248Y002193D03*
X005248Y003193D03*
X005248Y004193D03*
X005248Y005193D03*
X005248Y006193D03*
X005248Y007193D03*
X005248Y008193D03*
X005248Y009193D03*
X005248Y010193D03*
X005248Y011193D03*
X005248Y012193D03*
X005248Y013193D03*
X005748Y013972D03*
X006748Y013972D03*
X007748Y013972D03*
X008748Y013972D03*
X009748Y013972D03*
X010748Y013972D03*
X011248Y013193D03*
X011248Y012193D03*
X011248Y011193D03*
X011248Y010193D03*
X011248Y009193D03*
X011248Y008193D03*
X011248Y007193D03*
X011248Y006193D03*
X011248Y005193D03*
X011248Y004193D03*
X011248Y003193D03*
X011248Y002193D03*
X011248Y001193D03*
X010178Y012978D03*
X006318Y012970D03*
D16*
X009668Y011698D03*
X009668Y010793D03*
X009668Y009887D03*
D17*
X007188Y010793D03*
D18*
X006218Y003373D03*
D19*
X007015Y001443D03*
X007921Y001443D03*
D20*
X007382Y002463D03*
X009114Y002463D03*
M02*
