G75*
%MOIN*%
%OFA0B0*%
%FSLAX24Y24*%
%IPPOS*%
%LPD*%
%AMOC8*
5,1,8,0,0,1.08239X$1,22.5*
%
%ADD10R,0.0300X0.0580*%
%ADD11R,0.0580X0.0300*%
%ADD12R,0.0530X0.0552*%
%ADD13R,0.0552X0.0530*%
%ADD14R,0.0356X0.0810*%
%ADD15C,0.0820*%
%ADD16R,0.0277X0.1064*%
%ADD17R,0.0867X0.1064*%
%ADD18C,0.0434*%
%ADD19R,0.0867X0.0474*%
D10*
X007145Y005173D03*
X007460Y005173D03*
X007775Y005173D03*
X008090Y005173D03*
X008405Y005173D03*
X008720Y005173D03*
X009035Y005173D03*
X009350Y005173D03*
X009350Y008553D03*
X009035Y008553D03*
X008720Y008553D03*
X008405Y008553D03*
X008090Y008553D03*
X007775Y008553D03*
X007460Y008553D03*
X007145Y008553D03*
D11*
X006558Y007965D03*
X006558Y007650D03*
X006558Y007335D03*
X006558Y007020D03*
X006558Y006705D03*
X006558Y006390D03*
X006558Y006075D03*
X006558Y005760D03*
X009938Y005760D03*
X009938Y006075D03*
X009938Y006390D03*
X009938Y006705D03*
X009938Y007020D03*
X009938Y007335D03*
X009938Y007650D03*
X009938Y007965D03*
D12*
X008738Y012399D03*
X008738Y013226D03*
X007758Y013226D03*
X007758Y012399D03*
D13*
X006941Y012123D03*
X006114Y012123D03*
X009574Y012123D03*
X010401Y012123D03*
D14*
X009890Y004433D03*
X009418Y004433D03*
X008945Y004433D03*
D15*
X005248Y001193D03*
X005248Y002193D03*
X005248Y003193D03*
X005248Y004193D03*
X005248Y005193D03*
X005248Y006193D03*
X005248Y007193D03*
X005248Y008193D03*
X005248Y009193D03*
X005248Y010193D03*
X005248Y011193D03*
X005248Y012193D03*
X005248Y013193D03*
X005748Y013972D03*
X006748Y013972D03*
X007748Y013972D03*
X008748Y013972D03*
X009748Y013972D03*
X010748Y013972D03*
X011248Y013193D03*
X011248Y012193D03*
X011248Y011193D03*
X011248Y010193D03*
X011248Y009193D03*
X011248Y008193D03*
X011248Y007193D03*
X011248Y006193D03*
X011248Y005193D03*
X011248Y004193D03*
X011248Y003193D03*
X011248Y002193D03*
X011248Y001193D03*
X010178Y012978D03*
X006318Y012970D03*
D16*
X007618Y003447D03*
X007933Y003447D03*
X008248Y003447D03*
X008563Y003447D03*
X008878Y003447D03*
D17*
X010019Y003447D03*
X010019Y001282D03*
X006476Y001282D03*
X006476Y003447D03*
D18*
X007382Y002463D03*
X009114Y002463D03*
D19*
X009557Y009805D03*
X009557Y011380D03*
X006998Y011380D03*
X006998Y009805D03*
M02*
