G75*
%MOIN*%
%OFA0B0*%
%FSLAX24Y24*%
%IPPOS*%
%LPD*%
%AMOC8*
5,1,8,0,0,1.08239X$1,22.5*
%
%ADD10C,0.0000*%
%ADD11C,0.0040*%
%ADD12C,0.0060*%
%ADD13C,0.0050*%
%ADD14R,0.0002X0.0018*%
%ADD15R,0.0001X0.0036*%
%ADD16R,0.0001X0.0045*%
%ADD17R,0.0001X0.0054*%
%ADD18R,0.0001X0.0060*%
%ADD19R,0.0002X0.0066*%
%ADD20R,0.0001X0.0072*%
%ADD21R,0.0001X0.0078*%
%ADD22R,0.0001X0.0081*%
%ADD23R,0.0001X0.0085*%
%ADD24R,0.0002X0.0090*%
%ADD25R,0.0001X0.0093*%
%ADD26R,0.0001X0.0096*%
%ADD27R,0.0001X0.0099*%
%ADD28R,0.0001X0.0102*%
%ADD29R,0.0002X0.0105*%
%ADD30R,0.0001X0.0108*%
%ADD31R,0.0001X0.0111*%
%ADD32R,0.0001X0.0114*%
%ADD33R,0.0001X0.0115*%
%ADD34R,0.0002X0.0118*%
%ADD35R,0.0001X0.0122*%
%ADD36R,0.0001X0.0123*%
%ADD37R,0.0001X0.0126*%
%ADD38R,0.0001X0.0129*%
%ADD39R,0.0002X0.0130*%
%ADD40R,0.0001X0.0133*%
%ADD41R,0.0001X0.0135*%
%ADD42R,0.0001X0.0138*%
%ADD43R,0.0001X0.0139*%
%ADD44R,0.0002X0.0143*%
%ADD45R,0.0001X0.0144*%
%ADD46R,0.0001X0.0145*%
%ADD47R,0.0001X0.0148*%
%ADD48R,0.0001X0.0150*%
%ADD49R,0.0002X0.0151*%
%ADD50R,0.0001X0.0153*%
%ADD51R,0.0001X0.0156*%
%ADD52R,0.0001X0.0158*%
%ADD53R,0.0001X0.0159*%
%ADD54R,0.0002X0.0160*%
%ADD55R,0.0001X0.0162*%
%ADD56R,0.0001X0.0163*%
%ADD57R,0.0001X0.0166*%
%ADD58R,0.0001X0.0168*%
%ADD59R,0.0002X0.0169*%
%ADD60R,0.0001X0.0171*%
%ADD61R,0.0001X0.0173*%
%ADD62R,0.0001X0.0174*%
%ADD63R,0.0001X0.0175*%
%ADD64R,0.0002X0.0177*%
%ADD65R,0.0001X0.0178*%
%ADD66R,0.0001X0.0180*%
%ADD67R,0.0001X0.0181*%
%ADD68R,0.0002X0.0185*%
%ADD69R,0.0001X0.0186*%
%ADD70R,0.0001X0.0189*%
%ADD71R,0.0002X0.0190*%
%ADD72R,0.0001X0.0192*%
%ADD73R,0.0001X0.0193*%
%ADD74R,0.0001X0.0195*%
%ADD75R,0.0002X0.0197*%
%ADD76R,0.0001X0.0196*%
%ADD77R,0.0001X0.0198*%
%ADD78R,0.0001X0.0199*%
%ADD79R,0.0002X0.0200*%
%ADD80R,0.0001X0.0201*%
%ADD81R,0.0001X0.0203*%
%ADD82R,0.0002X0.0203*%
%ADD83R,0.0001X0.0204*%
%ADD84R,0.0002X0.0204*%
%ADD85R,0.0001X0.0050*%
%ADD86R,0.0001X0.0070*%
%ADD87R,0.0001X0.0088*%
%ADD88R,0.0001X0.0100*%
%ADD89R,0.0002X0.0115*%
%ADD90R,0.0001X0.0125*%
%ADD91R,0.0001X0.0144*%
%ADD92R,0.0001X0.0151*%
%ADD93R,0.0001X0.0170*%
%ADD94R,0.0001X0.0190*%
%ADD95R,0.0002X0.0196*%
%ADD96R,0.0001X0.0208*%
%ADD97R,0.0001X0.0215*%
%ADD98R,0.0001X0.0217*%
%ADD99R,0.0002X0.0223*%
%ADD100R,0.0001X0.0230*%
%ADD101R,0.0001X0.0235*%
%ADD102R,0.0001X0.0238*%
%ADD103R,0.0001X0.0245*%
%ADD104R,0.0002X0.0248*%
%ADD105R,0.0001X0.0253*%
%ADD106R,0.0001X0.0256*%
%ADD107R,0.0001X0.0262*%
%ADD108R,0.0001X0.0265*%
%ADD109R,0.0002X0.0268*%
%ADD110R,0.0001X0.0275*%
%ADD111R,0.0001X0.0278*%
%ADD112R,0.0001X0.0280*%
%ADD113R,0.0001X0.0285*%
%ADD114R,0.0002X0.0290*%
%ADD115R,0.0001X0.0293*%
%ADD116R,0.0001X0.0295*%
%ADD117R,0.0001X0.0298*%
%ADD118R,0.0001X0.0301*%
%ADD119R,0.0002X0.0305*%
%ADD120R,0.0001X0.0309*%
%ADD121R,0.0001X0.0313*%
%ADD122R,0.0001X0.0316*%
%ADD123R,0.0001X0.0320*%
%ADD124R,0.0002X0.0323*%
%ADD125R,0.0001X0.0325*%
%ADD126R,0.0001X0.0327*%
%ADD127R,0.0001X0.0328*%
%ADD128R,0.0001X0.0331*%
%ADD129R,0.0002X0.0335*%
%ADD130R,0.0001X0.0338*%
%ADD131R,0.0001X0.0340*%
%ADD132R,0.0001X0.0343*%
%ADD133R,0.0001X0.0346*%
%ADD134R,0.0002X0.0350*%
%ADD135R,0.0001X0.0350*%
%ADD136R,0.0001X0.0352*%
%ADD137R,0.0001X0.0355*%
%ADD138R,0.0001X0.0358*%
%ADD139R,0.0002X0.0360*%
%ADD140R,0.0001X0.0361*%
%ADD141R,0.0001X0.0365*%
%ADD142R,0.0001X0.0367*%
%ADD143R,0.0002X0.0370*%
%ADD144R,0.0001X0.0373*%
%ADD145R,0.0001X0.0376*%
%ADD146R,0.0001X0.0380*%
%ADD147R,0.0002X0.0380*%
%ADD148R,0.0001X0.0382*%
%ADD149R,0.0001X0.0385*%
%ADD150R,0.0001X0.0388*%
%ADD151R,0.0002X0.0388*%
%ADD152R,0.0001X0.0391*%
%ADD153R,0.0001X0.0395*%
%ADD154R,0.0001X0.0398*%
%ADD155R,0.0002X0.0398*%
%ADD156R,0.0001X0.0400*%
%ADD157R,0.0001X0.0403*%
%ADD158R,0.0002X0.0406*%
%ADD159R,0.0001X0.0406*%
%ADD160R,0.0001X0.0410*%
%ADD161R,0.0001X0.0413*%
%ADD162R,0.0002X0.0413*%
%ADD163R,0.0001X0.0415*%
%ADD164R,0.0001X0.0418*%
%ADD165R,0.0002X0.0418*%
%ADD166R,0.0001X0.0420*%
%ADD167R,0.0001X0.0421*%
%ADD168R,0.0001X0.0425*%
%ADD169R,0.0002X0.0425*%
%ADD170R,0.0001X0.0428*%
%ADD171R,0.0002X0.0430*%
%ADD172R,0.0001X0.0430*%
%ADD173R,0.0001X0.0433*%
%ADD174R,0.0002X0.0433*%
%ADD175R,0.0001X0.0436*%
%ADD176R,0.0002X0.0436*%
%ADD177R,0.0001X0.0440*%
%ADD178R,0.0002X0.0442*%
%ADD179R,0.0001X0.0442*%
%ADD180R,0.0002X0.0201*%
%ADD181R,0.0002X0.0444*%
%ADD182R,0.0001X0.0445*%
%ADD183R,0.0002X0.0445*%
%ADD184R,0.0001X0.0447*%
%ADD185R,0.0001X0.0448*%
%ADD186R,0.0002X0.0192*%
%ADD187R,0.0002X0.0448*%
%ADD188R,0.0001X0.0192*%
%ADD189R,0.0002X0.0187*%
%ADD190R,0.0001X0.0184*%
%ADD191R,0.0001X0.0183*%
%ADD192R,0.0001X0.0451*%
%ADD193R,0.0002X0.0182*%
%ADD194R,0.0002X0.0450*%
%ADD195R,0.0001X0.0177*%
%ADD196R,0.0002X0.0174*%
%ADD197R,0.0002X0.0451*%
%ADD198R,0.0001X0.0450*%
%ADD199R,0.0002X0.0193*%
%ADD200R,0.0002X0.0198*%
%ADD201R,0.0001X0.0200*%
%ADD202R,0.0002X0.0440*%
%ADD203R,0.0001X0.0435*%
%ADD204R,0.0002X0.0391*%
%ADD205R,0.0002X0.0382*%
%ADD206R,0.0001X0.0370*%
%ADD207R,0.0001X0.0363*%
%ADD208R,0.0002X0.0361*%
%ADD209R,0.0001X0.0339*%
%ADD210R,0.0002X0.0338*%
%ADD211R,0.0001X0.0335*%
%ADD212R,0.0001X0.0310*%
%ADD213R,0.0002X0.0308*%
%ADD214R,0.0001X0.0305*%
%ADD215R,0.0001X0.0297*%
%ADD216R,0.0001X0.0286*%
%ADD217R,0.0001X0.0283*%
%ADD218R,0.0001X0.0279*%
%ADD219R,0.0002X0.0271*%
%ADD220R,0.0001X0.0268*%
%ADD221R,0.0001X0.0260*%
%ADD222R,0.0002X0.0250*%
%ADD223R,0.0001X0.0241*%
%ADD224R,0.0001X0.0231*%
%ADD225R,0.0002X0.0226*%
%ADD226R,0.0001X0.0220*%
%ADD227R,0.0001X0.0185*%
%ADD228R,0.0002X0.0163*%
%ADD229R,0.0001X0.0155*%
%ADD230R,0.0001X0.0140*%
%ADD231R,0.0001X0.0127*%
%ADD232R,0.0001X0.0106*%
%ADD233R,0.0001X0.0095*%
%ADD234R,0.0001X0.0080*%
%ADD235R,0.0001X0.0058*%
%ADD236R,0.0002X0.0025*%
%ADD237R,0.0001X0.0031*%
%ADD238R,0.0001X0.0061*%
%ADD239R,0.0002X0.0080*%
%ADD240R,0.0001X0.0118*%
%ADD241R,0.0001X0.0130*%
%ADD242R,0.0002X0.0140*%
%ADD243R,0.0002X0.0178*%
%ADD244R,0.0001X0.0205*%
%ADD245R,0.0002X0.0211*%
%ADD246R,0.0001X0.0216*%
%ADD247R,0.0001X0.0226*%
%ADD248R,0.0001X0.0233*%
%ADD249R,0.0002X0.0235*%
%ADD250R,0.0001X0.0246*%
%ADD251R,0.0001X0.0250*%
%ADD252R,0.0001X0.0255*%
%ADD253R,0.0002X0.0260*%
%ADD254R,0.0001X0.0271*%
%ADD255R,0.0002X0.0280*%
%ADD256R,0.0001X0.0290*%
%ADD257R,0.0002X0.0298*%
%ADD258R,0.0001X0.0308*%
%ADD259R,0.0002X0.0313*%
%ADD260R,0.0001X0.0323*%
%ADD261R,0.0002X0.0328*%
%ADD262R,0.0002X0.0340*%
%ADD263R,0.0002X0.0355*%
%ADD264R,0.0002X0.0365*%
%ADD265R,0.0002X0.0376*%
%ADD266R,0.0002X0.0385*%
%ADD267R,0.0001X0.0387*%
%ADD268R,0.0002X0.0395*%
%ADD269R,0.0002X0.0402*%
%ADD270R,0.0002X0.0410*%
%ADD271R,0.0002X0.0415*%
%ADD272R,0.0001X0.0417*%
%ADD273R,0.0002X0.0421*%
%ADD274R,0.0001X0.0426*%
%ADD275R,0.0002X0.0428*%
%ADD276R,0.0001X0.0429*%
%ADD277R,0.0002X0.0195*%
%ADD278R,0.0001X0.0187*%
%ADD279R,0.0001X0.0177*%
%ADD280R,0.0002X0.0183*%
%ADD281R,0.0002X0.0189*%
%ADD282R,0.0001X0.0447*%
%ADD283R,0.0001X0.0444*%
%ADD284R,0.0001X0.0441*%
%ADD285R,0.0002X0.0403*%
%ADD286R,0.0001X0.0393*%
%ADD287R,0.0002X0.0367*%
%ADD288R,0.0001X0.0348*%
%ADD289R,0.0002X0.0343*%
%ADD290R,0.0002X0.0261*%
%ADD291R,0.0001X0.0248*%
%ADD292R,0.0002X0.0238*%
%ADD293R,0.0001X0.0223*%
%ADD294R,0.0001X0.0207*%
%ADD295R,0.0002X0.0181*%
%ADD296R,0.0001X0.0160*%
%ADD297R,0.0001X0.0113*%
%ADD298R,0.0002X0.0085*%
%ADD299R,0.0001X0.0046*%
%ADD300R,0.0002X0.0180*%
%ADD301R,0.0002X0.0167*%
%ADD302R,0.0001X0.0162*%
%ADD303R,0.0002X0.0158*%
%ADD304R,0.0002X0.0148*%
%ADD305R,0.0001X0.0141*%
%ADD306R,0.0002X0.0138*%
%ADD307R,0.0002X0.0126*%
%ADD308R,0.0001X0.0121*%
%ADD309R,0.0002X0.0114*%
%ADD310R,0.0001X0.0105*%
%ADD311R,0.0001X0.0102*%
%ADD312R,0.0002X0.0099*%
%ADD313R,0.0001X0.0090*%
%ADD314R,0.0002X0.0081*%
%ADD315R,0.0001X0.0076*%
%ADD316R,0.0001X0.0072*%
%ADD317R,0.0001X0.0066*%
%ADD318R,0.0002X0.0053*%
%ADD319R,0.0001X0.0034*%
%ADD320R,0.0001X0.0016*%
%ADD321C,0.0080*%
%ADD322C,0.0348*%
D10*
X004748Y001063D02*
X004748Y014102D01*
X004750Y014138D01*
X004755Y014174D01*
X004764Y014209D01*
X004776Y014244D01*
X004792Y014276D01*
X004810Y014308D01*
X004832Y014337D01*
X004856Y014364D01*
X004883Y014388D01*
X004912Y014410D01*
X004944Y014428D01*
X004976Y014444D01*
X005011Y014456D01*
X005046Y014465D01*
X005082Y014470D01*
X005118Y014472D01*
X011378Y014472D01*
X011414Y014470D01*
X011450Y014465D01*
X011485Y014456D01*
X011520Y014444D01*
X011552Y014428D01*
X011584Y014410D01*
X011613Y014388D01*
X011640Y014364D01*
X011664Y014337D01*
X011686Y014308D01*
X011704Y014276D01*
X011720Y014244D01*
X011732Y014209D01*
X011741Y014174D01*
X011746Y014138D01*
X011748Y014102D01*
X011748Y001063D01*
X011746Y001027D01*
X011741Y000991D01*
X011732Y000956D01*
X011720Y000921D01*
X011704Y000889D01*
X011686Y000857D01*
X011664Y000828D01*
X011640Y000801D01*
X011613Y000777D01*
X011584Y000755D01*
X011552Y000737D01*
X011520Y000721D01*
X011485Y000709D01*
X011450Y000700D01*
X011414Y000695D01*
X011378Y000693D01*
X005118Y000693D01*
X005082Y000695D01*
X005046Y000700D01*
X005011Y000709D01*
X004976Y000721D01*
X004944Y000737D01*
X004912Y000755D01*
X004883Y000777D01*
X004856Y000801D01*
X004832Y000828D01*
X004810Y000857D01*
X004792Y000889D01*
X004776Y000921D01*
X004764Y000956D01*
X004755Y000991D01*
X004750Y001027D01*
X004748Y001063D01*
X007205Y002463D02*
X007207Y002489D01*
X007213Y002515D01*
X007223Y002540D01*
X007236Y002563D01*
X007252Y002583D01*
X007272Y002601D01*
X007294Y002616D01*
X007317Y002628D01*
X007343Y002636D01*
X007369Y002640D01*
X007395Y002640D01*
X007421Y002636D01*
X007447Y002628D01*
X007471Y002616D01*
X007492Y002601D01*
X007512Y002583D01*
X007528Y002563D01*
X007541Y002540D01*
X007551Y002515D01*
X007557Y002489D01*
X007559Y002463D01*
X007557Y002437D01*
X007551Y002411D01*
X007541Y002386D01*
X007528Y002363D01*
X007512Y002343D01*
X007492Y002325D01*
X007470Y002310D01*
X007447Y002298D01*
X007421Y002290D01*
X007395Y002286D01*
X007369Y002286D01*
X007343Y002290D01*
X007317Y002298D01*
X007293Y002310D01*
X007272Y002325D01*
X007252Y002343D01*
X007236Y002363D01*
X007223Y002386D01*
X007213Y002411D01*
X007207Y002437D01*
X007205Y002463D01*
X008937Y002463D02*
X008939Y002489D01*
X008945Y002515D01*
X008955Y002540D01*
X008968Y002563D01*
X008984Y002583D01*
X009004Y002601D01*
X009026Y002616D01*
X009049Y002628D01*
X009075Y002636D01*
X009101Y002640D01*
X009127Y002640D01*
X009153Y002636D01*
X009179Y002628D01*
X009203Y002616D01*
X009224Y002601D01*
X009244Y002583D01*
X009260Y002563D01*
X009273Y002540D01*
X009283Y002515D01*
X009289Y002489D01*
X009291Y002463D01*
X009289Y002437D01*
X009283Y002411D01*
X009273Y002386D01*
X009260Y002363D01*
X009244Y002343D01*
X009224Y002325D01*
X009202Y002310D01*
X009179Y002298D01*
X009153Y002290D01*
X009127Y002286D01*
X009101Y002286D01*
X009075Y002290D01*
X009049Y002298D01*
X009025Y002310D01*
X009004Y002325D01*
X008984Y002343D01*
X008968Y002363D01*
X008955Y002386D01*
X008945Y002411D01*
X008939Y002437D01*
X008937Y002463D01*
D11*
X006808Y007523D02*
X006568Y007523D01*
X006648Y007523D02*
X006648Y007643D01*
X006688Y007683D01*
X006768Y007683D01*
X006808Y007643D01*
X006808Y007523D01*
X006902Y007643D02*
X006982Y007723D01*
X006942Y007723D02*
X007062Y007723D01*
X007062Y007643D02*
X007062Y007883D01*
X006942Y007883D01*
X006902Y007843D01*
X006902Y007763D01*
X006942Y007723D01*
X007160Y007683D02*
X007160Y007843D01*
X007200Y007883D01*
X007320Y007883D01*
X007320Y007643D01*
X007200Y007643D01*
X007160Y007683D01*
X007418Y007643D02*
X007418Y007883D01*
X007418Y007763D02*
X007578Y007763D01*
X007578Y007643D02*
X007578Y007883D01*
X006728Y007941D02*
X006568Y007781D01*
X006568Y007683D02*
X006648Y007603D01*
X006728Y007781D02*
X006568Y007941D01*
X006458Y007883D02*
X006378Y007803D01*
X006298Y007883D01*
X006298Y007643D01*
X006200Y007683D02*
X006160Y007643D01*
X006080Y007643D01*
X006040Y007683D01*
X005942Y007683D02*
X005902Y007643D01*
X005822Y007643D01*
X005782Y007683D01*
X005782Y007883D01*
X005942Y007883D02*
X005942Y007683D01*
X006040Y007843D02*
X006080Y007883D01*
X006160Y007883D01*
X006200Y007843D01*
X006200Y007683D01*
X006458Y007643D02*
X006458Y007883D01*
X006358Y008993D02*
X006358Y009193D01*
X006291Y009126D01*
X006224Y009193D01*
X006224Y008993D01*
X006137Y009026D02*
X006137Y009160D01*
X006103Y009193D01*
X006037Y009193D01*
X006003Y009160D01*
X005916Y009193D02*
X005916Y009026D01*
X005883Y008993D01*
X005816Y008993D01*
X005782Y009026D01*
X005782Y009193D01*
X006003Y009026D02*
X006037Y008993D01*
X006103Y008993D01*
X006137Y009026D01*
X006710Y009663D02*
X006870Y009823D01*
X006968Y009903D02*
X007128Y009903D01*
X007048Y009903D02*
X007048Y009663D01*
X006870Y009663D02*
X006710Y009823D01*
X006561Y010573D02*
X006561Y010813D01*
X006561Y010693D02*
X006401Y010693D01*
X006401Y010813D02*
X006401Y010573D01*
X006303Y010573D02*
X006303Y010813D01*
X006183Y010813D01*
X006143Y010773D01*
X006143Y010613D01*
X006183Y010573D01*
X006303Y010573D01*
X006046Y010573D02*
X006046Y010813D01*
X005926Y010813D01*
X005886Y010773D01*
X005886Y010693D01*
X005926Y010653D01*
X006046Y010653D01*
X005966Y010653D02*
X005886Y010573D01*
X006640Y013243D02*
X006800Y013483D01*
X006898Y013443D02*
X006898Y013363D01*
X006938Y013323D01*
X007058Y013323D01*
X007058Y013243D02*
X007058Y013483D01*
X006938Y013483D01*
X006898Y013443D01*
X006978Y013323D02*
X006898Y013243D01*
X006800Y013243D02*
X006640Y013483D01*
X007590Y013483D02*
X007750Y013243D01*
X007590Y013243D02*
X007750Y013483D01*
X007848Y013483D02*
X008008Y013483D01*
X007928Y013483D02*
X007928Y013243D01*
X008560Y013323D02*
X008560Y013483D01*
X008720Y013483D02*
X008720Y013323D01*
X008640Y013243D01*
X008560Y013323D01*
X008818Y013363D02*
X008818Y013283D01*
X008858Y013243D01*
X008938Y013243D01*
X008978Y013283D01*
X008978Y013363D02*
X008898Y013403D01*
X008858Y013403D01*
X008818Y013363D01*
X008818Y013483D02*
X008978Y013483D01*
X008978Y013363D01*
X009202Y013323D02*
X009202Y013283D01*
X009242Y013243D01*
X009322Y013243D01*
X009362Y013283D01*
X009322Y013363D02*
X009242Y013363D01*
X009202Y013323D01*
X009202Y013443D02*
X009242Y013483D01*
X009322Y013483D01*
X009362Y013443D01*
X009362Y013403D01*
X009322Y013363D01*
X009460Y013483D02*
X009620Y013483D01*
X009540Y013483D02*
X009540Y013243D01*
X009718Y013283D02*
X009758Y013243D01*
X009838Y013243D01*
X009878Y013283D01*
X009878Y013443D01*
X009838Y013483D01*
X009758Y013483D01*
X009718Y013443D01*
X011318Y013746D02*
X011318Y013813D01*
X011351Y013846D01*
X011418Y013846D01*
X011418Y013780D01*
X011485Y013846D02*
X011518Y013813D01*
X011518Y013746D01*
X011485Y013713D01*
X011351Y013713D01*
X011318Y013746D01*
X011318Y013934D02*
X011518Y013934D01*
X011318Y014067D01*
X011518Y014067D01*
X011518Y014155D02*
X011518Y014255D01*
X011485Y014288D01*
X011351Y014288D01*
X011318Y014255D01*
X011318Y014155D01*
X011518Y014155D01*
X005203Y014155D02*
X005203Y014255D01*
X005170Y014288D01*
X005103Y014288D01*
X005070Y014255D01*
X005070Y014155D01*
X005070Y014222D02*
X005003Y014288D01*
X005003Y014155D02*
X005203Y014155D01*
X005203Y014067D02*
X005203Y013934D01*
X005203Y014001D02*
X005003Y014001D01*
X005036Y013846D02*
X005170Y013846D01*
X005203Y013813D01*
X005203Y013713D01*
X005003Y013713D01*
X005003Y013813D01*
X005036Y013846D01*
D12*
X007639Y012963D02*
X007753Y012963D01*
X007696Y012963D02*
X007696Y012623D01*
X007753Y012623D02*
X007639Y012623D01*
X007894Y012680D02*
X007894Y012906D01*
X007951Y012963D01*
X008121Y012963D01*
X008121Y012623D01*
X007951Y012623D01*
X007894Y012680D01*
X008263Y012963D02*
X008490Y012963D01*
X008376Y012963D02*
X008376Y012623D01*
X008744Y012793D02*
X008858Y012793D01*
X008858Y012623D02*
X008858Y012963D01*
X008631Y012963D01*
X006518Y010503D02*
X005918Y010503D01*
X005901Y010501D01*
X005884Y010497D01*
X005868Y010490D01*
X005854Y010480D01*
X005841Y010467D01*
X005831Y010453D01*
X005824Y010437D01*
X005820Y010420D01*
X005818Y010403D01*
X005818Y009403D01*
X005820Y009386D01*
X005824Y009369D01*
X005831Y009353D01*
X005841Y009339D01*
X005854Y009326D01*
X005868Y009316D01*
X005884Y009309D01*
X005901Y009305D01*
X005918Y009303D01*
X006518Y009303D01*
X006535Y009305D01*
X006552Y009309D01*
X006568Y009316D01*
X006582Y009326D01*
X006595Y009339D01*
X006605Y009353D01*
X006612Y009369D01*
X006616Y009386D01*
X006618Y009403D01*
X006618Y010403D01*
X006616Y010420D01*
X006612Y010437D01*
X006605Y010453D01*
X006595Y010467D01*
X006582Y010480D01*
X006568Y010490D01*
X006552Y010497D01*
X006535Y010501D01*
X006518Y010503D01*
X006108Y008793D02*
X007108Y008793D01*
X007125Y008791D01*
X007142Y008787D01*
X007158Y008780D01*
X007172Y008770D01*
X007185Y008757D01*
X007195Y008743D01*
X007202Y008727D01*
X007206Y008710D01*
X007208Y008693D01*
X007208Y008093D01*
X007206Y008076D01*
X007202Y008059D01*
X007195Y008043D01*
X007185Y008029D01*
X007172Y008016D01*
X007158Y008006D01*
X007142Y007999D01*
X007125Y007995D01*
X007108Y007993D01*
X006108Y007993D01*
X006091Y007995D01*
X006074Y007999D01*
X006058Y008006D01*
X006044Y008016D01*
X006031Y008029D01*
X006021Y008043D01*
X006014Y008059D01*
X006010Y008076D01*
X006008Y008093D01*
X006008Y008693D01*
X006010Y008710D01*
X006014Y008727D01*
X006021Y008743D01*
X006031Y008757D01*
X006044Y008770D01*
X006058Y008780D01*
X006074Y008787D01*
X006091Y008791D01*
X006108Y008793D01*
X008780Y001679D02*
X009016Y001679D01*
X009016Y001207D02*
X008780Y001207D01*
D13*
X006583Y002860D02*
X006541Y002818D01*
X006458Y002818D01*
X006416Y002860D01*
X006416Y002901D01*
X006458Y002943D01*
X006499Y002943D01*
X006458Y002943D02*
X006416Y002985D01*
X006416Y003026D01*
X006458Y003068D01*
X006541Y003068D01*
X006583Y003026D01*
X006307Y003068D02*
X006307Y002901D01*
X006223Y002818D01*
X006140Y002901D01*
X006140Y003068D01*
X006030Y003026D02*
X005989Y003068D01*
X005905Y003068D01*
X005864Y003026D01*
X005864Y002985D01*
X005905Y002943D01*
X005864Y002901D01*
X005864Y002860D01*
X005905Y002818D01*
X005989Y002818D01*
X006030Y002860D01*
X005947Y002943D02*
X005905Y002943D01*
D14*
X010655Y007664D03*
D15*
X010653Y007664D03*
D16*
X010652Y007664D03*
X008388Y006955D03*
D17*
X010650Y007664D03*
D18*
X010649Y007664D03*
X008391Y006955D03*
D19*
X010647Y007664D03*
D20*
X010646Y007664D03*
D21*
X010644Y007664D03*
D22*
X010643Y007664D03*
D23*
X010641Y007663D03*
X008399Y006955D03*
D24*
X010640Y007664D03*
D25*
X010638Y007664D03*
X008402Y006955D03*
D26*
X008403Y006955D03*
X010637Y007664D03*
D27*
X010635Y007664D03*
D28*
X010634Y007664D03*
D29*
X010632Y007664D03*
D30*
X010631Y007664D03*
X008409Y006955D03*
D31*
X008411Y006955D03*
X010629Y007664D03*
D32*
X010628Y007664D03*
D33*
X010626Y007663D03*
X008414Y006955D03*
D34*
X009657Y007504D03*
X010625Y007663D03*
D35*
X010623Y007663D03*
D36*
X010622Y007663D03*
X008418Y006956D03*
D37*
X010620Y007663D03*
D38*
X010619Y007663D03*
X008421Y006956D03*
D39*
X010617Y007662D03*
D40*
X010616Y007662D03*
X008951Y007114D03*
X008424Y006957D03*
D41*
X008426Y006958D03*
X010089Y007504D03*
X010614Y007661D03*
D42*
X010613Y007661D03*
D43*
X010611Y007660D03*
D44*
X010610Y007660D03*
X008952Y007114D03*
D45*
X010608Y007660D03*
D46*
X010607Y007659D03*
X008433Y006960D03*
D47*
X009378Y007114D03*
X009662Y007504D03*
X010605Y007659D03*
D48*
X010604Y007658D03*
X008436Y006961D03*
D49*
X010602Y007657D03*
D50*
X010601Y007657D03*
X008439Y006962D03*
D51*
X008441Y006962D03*
X010599Y007657D03*
D52*
X010598Y007656D03*
X009377Y007114D03*
D53*
X008444Y006964D03*
X010596Y007655D03*
D54*
X010595Y007654D03*
X010085Y007504D03*
D55*
X010593Y007654D03*
D56*
X010592Y007653D03*
X009375Y007114D03*
X008448Y006966D03*
D57*
X008957Y007114D03*
X010590Y007653D03*
D58*
X010589Y007652D03*
X008451Y006967D03*
D59*
X010587Y007651D03*
D60*
X010586Y007651D03*
X008454Y006968D03*
D61*
X008456Y006969D03*
X009374Y007114D03*
X009666Y007504D03*
X010584Y007650D03*
D62*
X010583Y007649D03*
X009165Y007649D03*
D63*
X009164Y007648D03*
X009167Y007648D03*
X008958Y007114D03*
X008459Y006970D03*
X009873Y006970D03*
X009876Y006970D03*
X010082Y007504D03*
X010581Y007648D03*
D64*
X010580Y007648D03*
X009162Y007648D03*
D65*
X009161Y007647D03*
X009668Y007504D03*
X009870Y006972D03*
X009879Y006972D03*
X010578Y007647D03*
X008462Y006972D03*
D66*
X008463Y006973D03*
X009158Y007645D03*
X009159Y007646D03*
X009171Y007646D03*
X009869Y006973D03*
X009881Y006973D03*
X010575Y007645D03*
X010577Y007646D03*
D67*
X010574Y007644D03*
X010080Y007504D03*
X009884Y006975D03*
X009866Y006975D03*
X009174Y007644D03*
X009173Y007645D03*
X009156Y007644D03*
X008466Y006975D03*
D68*
X009177Y007642D03*
X010572Y007642D03*
D69*
X010571Y007642D03*
X010569Y007642D03*
X009888Y006977D03*
X009861Y006977D03*
X009179Y007642D03*
X009152Y007642D03*
X008471Y006977D03*
D70*
X008475Y006980D03*
X009149Y007640D03*
X009182Y007640D03*
X009183Y007639D03*
X009857Y006980D03*
X009858Y006979D03*
X009891Y006979D03*
X009893Y006980D03*
X010566Y007639D03*
X010568Y007640D03*
D71*
X010565Y007638D03*
X009185Y007638D03*
D72*
X009186Y007637D03*
X009144Y007637D03*
X009143Y007636D03*
X010563Y007637D03*
D73*
X010562Y007636D03*
X010560Y007635D03*
X009899Y006984D03*
X009851Y006984D03*
X009369Y007114D03*
X009189Y007635D03*
X009188Y007636D03*
X009141Y007635D03*
X008481Y006984D03*
D74*
X008483Y006985D03*
X008484Y006986D03*
X008963Y007115D03*
X009138Y007633D03*
X009191Y007634D03*
X009848Y006986D03*
X009849Y006985D03*
X009900Y006985D03*
X009902Y006986D03*
X010559Y007634D03*
D75*
X010557Y007633D03*
X009905Y006988D03*
X008487Y006988D03*
D76*
X008486Y006987D03*
X009135Y007630D03*
X009137Y007632D03*
X009194Y007632D03*
X009846Y006987D03*
X009903Y006987D03*
X010556Y007632D03*
D77*
X010554Y007631D03*
X010553Y007630D03*
X009908Y006991D03*
X009906Y006989D03*
X009843Y006989D03*
X009197Y007630D03*
X009195Y007631D03*
X009134Y007630D03*
X008490Y006991D03*
X008489Y006989D03*
D78*
X008492Y006991D03*
X008493Y006993D03*
X009198Y007629D03*
X009840Y006991D03*
X009909Y006991D03*
X009911Y006993D03*
X010551Y007629D03*
D79*
X010550Y007627D03*
X009200Y007627D03*
D80*
X009201Y007627D03*
X009203Y007625D03*
X009204Y007624D03*
X009128Y007625D03*
X009126Y007624D03*
X008498Y006997D03*
X008496Y006995D03*
X009836Y006995D03*
X009839Y006992D03*
X009914Y006995D03*
X009915Y006997D03*
X010547Y007625D03*
X010548Y007627D03*
D81*
X010545Y007624D03*
X010544Y007623D03*
X010076Y007504D03*
X010056Y007137D03*
X010053Y007134D03*
X010052Y007132D03*
X010050Y007131D03*
X010049Y007129D03*
X010046Y007126D03*
X010044Y007125D03*
X010043Y007123D03*
X010041Y007122D03*
X010038Y007119D03*
X010037Y007117D03*
X010035Y007116D03*
X010034Y007114D03*
X010031Y007111D03*
X010029Y007110D03*
X010028Y007108D03*
X010026Y007107D03*
X010023Y007104D03*
X010022Y007102D03*
X010020Y007101D03*
X010019Y007099D03*
X010016Y007096D03*
X010014Y007095D03*
X010013Y007093D03*
X010011Y007092D03*
X010008Y007089D03*
X010007Y007087D03*
X010005Y007086D03*
X010004Y007084D03*
X010001Y007081D03*
X009999Y007080D03*
X009923Y007003D03*
X009921Y007002D03*
X009918Y006999D03*
X009917Y006997D03*
X009834Y006996D03*
X009833Y006997D03*
X009831Y006999D03*
X009209Y007620D03*
X009206Y007623D03*
X009123Y007621D03*
X009122Y007620D03*
X009120Y007618D03*
X009119Y007617D03*
X009116Y007614D03*
X009114Y007612D03*
X009113Y007611D03*
X009111Y007609D03*
X009108Y007606D03*
X009107Y007605D03*
X009105Y007603D03*
X009104Y007602D03*
X009101Y007599D03*
X009099Y007597D03*
X009098Y007596D03*
X009096Y007594D03*
X009093Y007591D03*
X009092Y007590D03*
X009090Y007588D03*
X009089Y007587D03*
X009086Y007584D03*
X009084Y007582D03*
X009083Y007581D03*
X009081Y007579D03*
X009078Y007576D03*
X009077Y007575D03*
X009075Y007573D03*
X009074Y007572D03*
X009071Y007569D03*
X009069Y007567D03*
X009068Y007566D03*
X009066Y007564D03*
X009063Y007561D03*
X009062Y007560D03*
X009060Y007558D03*
X009059Y007557D03*
X009056Y007554D03*
X009054Y007552D03*
X009053Y007551D03*
X009051Y007549D03*
X009048Y007546D03*
X009047Y007545D03*
X009045Y007543D03*
X009044Y007542D03*
X009041Y007539D03*
X009039Y007537D03*
X009038Y007536D03*
X009036Y007534D03*
X009033Y007531D03*
X009032Y007530D03*
X009030Y007528D03*
X009029Y007527D03*
X009026Y007524D03*
X009024Y007522D03*
X009023Y007521D03*
X009021Y007519D03*
X009018Y007516D03*
X009017Y007515D03*
X009015Y007513D03*
X009014Y007512D03*
X009011Y007509D03*
X009009Y007507D03*
X009008Y007506D03*
X009006Y007504D03*
X009003Y007501D03*
X009002Y007500D03*
X009000Y007498D03*
X008999Y007497D03*
X008996Y007494D03*
X008994Y007492D03*
X008993Y007491D03*
X008991Y007489D03*
X008988Y007486D03*
X008987Y007485D03*
X008985Y007483D03*
X008984Y007482D03*
X008981Y007479D03*
X008979Y007477D03*
X008978Y007476D03*
X008976Y007474D03*
X008973Y007471D03*
X008972Y007470D03*
X008970Y007468D03*
X008969Y007467D03*
X008966Y007464D03*
X008964Y007462D03*
X008963Y007461D03*
X008961Y007459D03*
X008958Y007456D03*
X008957Y007455D03*
X008955Y007453D03*
X008954Y007452D03*
X008951Y007449D03*
X008949Y007447D03*
X008948Y007446D03*
X008946Y007444D03*
X008943Y007441D03*
X008942Y007440D03*
X008940Y007438D03*
X008939Y007437D03*
X008936Y007434D03*
X008934Y007432D03*
X008933Y007431D03*
X008931Y007429D03*
X008928Y007426D03*
X008927Y007425D03*
X008925Y007423D03*
X008924Y007422D03*
X008921Y007419D03*
X008919Y007417D03*
X008918Y007416D03*
X008916Y007414D03*
X008913Y007411D03*
X008912Y007410D03*
X008910Y007408D03*
X008909Y007407D03*
X008906Y007404D03*
X008904Y007402D03*
X008903Y007401D03*
X008901Y007399D03*
X008898Y007396D03*
X008897Y007395D03*
X008895Y007393D03*
X008894Y007392D03*
X008891Y007389D03*
X008889Y007387D03*
X008888Y007386D03*
X008886Y007384D03*
X008883Y007381D03*
X008882Y007380D03*
X008880Y007378D03*
X008879Y007377D03*
X008876Y007374D03*
X008874Y007372D03*
X008873Y007371D03*
X008871Y007369D03*
X008868Y007366D03*
X008867Y007365D03*
X008865Y007363D03*
X008864Y007362D03*
X008861Y007359D03*
X008859Y007357D03*
X008858Y007356D03*
X008856Y007354D03*
X008853Y007351D03*
X008852Y007350D03*
X008850Y007348D03*
X008849Y007347D03*
X008846Y007344D03*
X008844Y007342D03*
X008843Y007341D03*
X008841Y007339D03*
X008838Y007336D03*
X008837Y007335D03*
X008835Y007333D03*
X008834Y007332D03*
X008831Y007329D03*
X008829Y007327D03*
X008828Y007326D03*
X008826Y007324D03*
X008823Y007321D03*
X008822Y007320D03*
X008820Y007318D03*
X008819Y007317D03*
X008816Y007314D03*
X008814Y007312D03*
X008813Y007311D03*
X008811Y007309D03*
X008808Y007306D03*
X008807Y007305D03*
X008805Y007303D03*
X008804Y007302D03*
X008801Y007299D03*
X008799Y007297D03*
X008798Y007296D03*
X008796Y007294D03*
X008793Y007291D03*
X008792Y007290D03*
X008790Y007288D03*
X008789Y007287D03*
X008786Y007284D03*
X008784Y007282D03*
X008783Y007281D03*
X008781Y007279D03*
X008778Y007276D03*
X008777Y007275D03*
X008775Y007273D03*
X008774Y007272D03*
X008771Y007269D03*
X008769Y007267D03*
X008768Y007266D03*
X008766Y007264D03*
X008763Y007261D03*
X008762Y007260D03*
X008760Y007258D03*
X008759Y007257D03*
X008756Y007254D03*
X008754Y007252D03*
X008753Y007251D03*
X008751Y007249D03*
X008748Y007246D03*
X008747Y007245D03*
X008745Y007243D03*
X008744Y007242D03*
X008741Y007239D03*
X008739Y007237D03*
X008738Y007236D03*
X008736Y007234D03*
X008733Y007231D03*
X008732Y007230D03*
X008730Y007228D03*
X008729Y007227D03*
X008726Y007224D03*
X008724Y007222D03*
X008723Y007221D03*
X008721Y007219D03*
X008718Y007216D03*
X008717Y007215D03*
X008715Y007213D03*
X008714Y007212D03*
X008711Y007209D03*
X008709Y007207D03*
X008708Y007206D03*
X008706Y007204D03*
X008703Y007201D03*
X008702Y007200D03*
X008700Y007198D03*
X008699Y007197D03*
X008696Y007194D03*
X008694Y007192D03*
X008693Y007191D03*
X008691Y007189D03*
X008688Y007186D03*
X008687Y007185D03*
X008685Y007183D03*
X008684Y007182D03*
X008681Y007179D03*
X008679Y007177D03*
X008678Y007176D03*
X008676Y007174D03*
X008673Y007171D03*
X008672Y007170D03*
X008670Y007168D03*
X008669Y007167D03*
X008666Y007164D03*
X008664Y007162D03*
X008663Y007161D03*
X008661Y007159D03*
X008658Y007156D03*
X008657Y007155D03*
X008655Y007153D03*
X008654Y007152D03*
X008651Y007149D03*
X008649Y007147D03*
X008648Y007146D03*
X008646Y007144D03*
X008643Y007141D03*
X008642Y007140D03*
X008640Y007138D03*
X008639Y007137D03*
X008636Y007134D03*
X008634Y007132D03*
X008633Y007131D03*
X008631Y007129D03*
X008628Y007126D03*
X008627Y007125D03*
X008625Y007123D03*
X008624Y007122D03*
X008621Y007119D03*
X008619Y007117D03*
X008618Y007116D03*
X008616Y007114D03*
X008613Y007111D03*
X008612Y007110D03*
X008610Y007108D03*
X008609Y007107D03*
X008606Y007104D03*
X008604Y007102D03*
X008603Y007101D03*
X008601Y007099D03*
X008598Y007096D03*
X008597Y007095D03*
X008595Y007093D03*
X008594Y007092D03*
X008591Y007089D03*
X008589Y007087D03*
X008588Y007086D03*
X008586Y007084D03*
X008583Y007081D03*
X008582Y007080D03*
X008580Y007078D03*
X008579Y007077D03*
X008576Y007074D03*
X008574Y007072D03*
X008573Y007071D03*
X008571Y007069D03*
X008568Y007066D03*
X008567Y007065D03*
X008565Y007063D03*
X008564Y007062D03*
X008561Y007059D03*
X008559Y007057D03*
X008558Y007056D03*
X008556Y007054D03*
X008553Y007051D03*
X008552Y007050D03*
X008550Y007048D03*
X008549Y007047D03*
X008546Y007044D03*
X008544Y007042D03*
X008543Y007041D03*
X008541Y007039D03*
X008538Y007036D03*
X008537Y007035D03*
X008535Y007033D03*
X008534Y007032D03*
X008531Y007029D03*
X008529Y007027D03*
X008528Y007026D03*
X008526Y007024D03*
X008523Y007021D03*
X008522Y007020D03*
X008520Y007018D03*
X008519Y007017D03*
X008516Y007014D03*
X008514Y007012D03*
X008513Y007011D03*
X008511Y007009D03*
X008508Y007006D03*
X008507Y007005D03*
X008505Y007003D03*
X008504Y007002D03*
X008501Y006999D03*
X008499Y006997D03*
X008964Y007114D03*
D82*
X008787Y007285D03*
X008780Y007278D03*
X008772Y007270D03*
X008765Y007263D03*
X008757Y007255D03*
X008750Y007248D03*
X008742Y007240D03*
X008735Y007233D03*
X008727Y007225D03*
X008720Y007218D03*
X008712Y007210D03*
X008705Y007203D03*
X008697Y007195D03*
X008690Y007188D03*
X008682Y007180D03*
X008675Y007173D03*
X008667Y007165D03*
X008660Y007158D03*
X008652Y007150D03*
X008645Y007143D03*
X008637Y007135D03*
X008630Y007128D03*
X008622Y007120D03*
X008615Y007113D03*
X008607Y007105D03*
X008600Y007098D03*
X008592Y007090D03*
X008585Y007083D03*
X008577Y007075D03*
X008570Y007068D03*
X008562Y007060D03*
X008555Y007053D03*
X008547Y007045D03*
X008540Y007038D03*
X008532Y007030D03*
X008525Y007023D03*
X008517Y007015D03*
X008510Y007008D03*
X008502Y007000D03*
X008795Y007293D03*
X008802Y007300D03*
X008810Y007308D03*
X008817Y007315D03*
X008825Y007323D03*
X008832Y007330D03*
X008840Y007338D03*
X008847Y007345D03*
X008855Y007353D03*
X008862Y007360D03*
X008870Y007368D03*
X008877Y007375D03*
X008885Y007383D03*
X008892Y007390D03*
X008900Y007398D03*
X008907Y007405D03*
X008915Y007413D03*
X008922Y007420D03*
X008930Y007428D03*
X008937Y007435D03*
X008945Y007443D03*
X008952Y007450D03*
X008960Y007458D03*
X008967Y007465D03*
X008975Y007473D03*
X008982Y007480D03*
X008990Y007488D03*
X008997Y007495D03*
X009005Y007503D03*
X009012Y007510D03*
X009020Y007518D03*
X009027Y007525D03*
X009035Y007533D03*
X009042Y007540D03*
X009050Y007548D03*
X009057Y007555D03*
X009065Y007563D03*
X009072Y007570D03*
X009080Y007578D03*
X009087Y007585D03*
X009095Y007593D03*
X009102Y007600D03*
X009110Y007608D03*
X009117Y007615D03*
X009207Y007621D03*
X009830Y007000D03*
X009920Y007000D03*
X010002Y007083D03*
X010010Y007090D03*
X010017Y007098D03*
X010025Y007105D03*
X010032Y007113D03*
X010040Y007120D03*
X010047Y007128D03*
X010055Y007135D03*
X010542Y007621D03*
D83*
X010541Y007621D03*
X010539Y007619D03*
X010538Y007618D03*
X010536Y007616D03*
X010533Y007613D03*
X010532Y007612D03*
X010530Y007610D03*
X010529Y007609D03*
X010526Y007606D03*
X010524Y007604D03*
X010523Y007603D03*
X010521Y007601D03*
X010518Y007598D03*
X010517Y007597D03*
X010515Y007595D03*
X010514Y007594D03*
X010511Y007591D03*
X010509Y007589D03*
X010508Y007588D03*
X010506Y007586D03*
X010503Y007583D03*
X010502Y007582D03*
X010500Y007580D03*
X010499Y007579D03*
X010496Y007576D03*
X010494Y007574D03*
X010493Y007573D03*
X010491Y007571D03*
X010488Y007568D03*
X010487Y007567D03*
X010485Y007565D03*
X010484Y007564D03*
X010481Y007561D03*
X010479Y007559D03*
X010478Y007558D03*
X010476Y007556D03*
X010473Y007553D03*
X010472Y007552D03*
X010470Y007550D03*
X010469Y007549D03*
X010466Y007546D03*
X010464Y007544D03*
X010463Y007543D03*
X010461Y007541D03*
X010458Y007538D03*
X010457Y007537D03*
X010455Y007535D03*
X010454Y007534D03*
X010451Y007531D03*
X010449Y007529D03*
X010448Y007528D03*
X010446Y007526D03*
X010443Y007523D03*
X010442Y007522D03*
X010440Y007520D03*
X010439Y007519D03*
X010436Y007516D03*
X010434Y007514D03*
X010433Y007513D03*
X010431Y007511D03*
X010428Y007508D03*
X010427Y007507D03*
X010425Y007505D03*
X010424Y007504D03*
X010421Y007501D03*
X010419Y007499D03*
X010418Y007498D03*
X010416Y007496D03*
X010413Y007493D03*
X010412Y007492D03*
X010410Y007490D03*
X010409Y007489D03*
X010406Y007486D03*
X010404Y007484D03*
X010403Y007483D03*
X010401Y007481D03*
X010398Y007478D03*
X010397Y007477D03*
X010395Y007475D03*
X010394Y007474D03*
X010391Y007471D03*
X010389Y007469D03*
X010388Y007468D03*
X010386Y007466D03*
X010383Y007463D03*
X010382Y007462D03*
X010380Y007460D03*
X010379Y007459D03*
X010376Y007456D03*
X010374Y007454D03*
X010373Y007453D03*
X010371Y007451D03*
X010368Y007448D03*
X010367Y007447D03*
X010365Y007445D03*
X010364Y007444D03*
X010361Y007441D03*
X010359Y007439D03*
X010358Y007438D03*
X010356Y007436D03*
X010353Y007433D03*
X010352Y007432D03*
X010350Y007430D03*
X010349Y007429D03*
X010346Y007426D03*
X010344Y007424D03*
X010343Y007423D03*
X010341Y007421D03*
X010338Y007418D03*
X010337Y007417D03*
X010335Y007415D03*
X010334Y007414D03*
X010331Y007411D03*
X010329Y007409D03*
X010328Y007408D03*
X010326Y007406D03*
X010323Y007403D03*
X010322Y007402D03*
X010320Y007400D03*
X010319Y007399D03*
X010316Y007396D03*
X010314Y007394D03*
X010313Y007393D03*
X010311Y007391D03*
X010308Y007388D03*
X010307Y007387D03*
X010305Y007385D03*
X010304Y007384D03*
X010301Y007381D03*
X010299Y007379D03*
X010298Y007378D03*
X010296Y007376D03*
X010293Y007373D03*
X010292Y007372D03*
X010290Y007370D03*
X010289Y007369D03*
X010286Y007366D03*
X010284Y007364D03*
X010283Y007363D03*
X010281Y007361D03*
X010278Y007358D03*
X010277Y007357D03*
X010275Y007355D03*
X010274Y007354D03*
X010271Y007351D03*
X010269Y007349D03*
X010268Y007348D03*
X010266Y007346D03*
X010263Y007343D03*
X010262Y007342D03*
X010260Y007340D03*
X010259Y007339D03*
X010256Y007336D03*
X010254Y007334D03*
X010253Y007333D03*
X010251Y007331D03*
X010248Y007328D03*
X010247Y007327D03*
X010245Y007325D03*
X010244Y007324D03*
X010241Y007321D03*
X010239Y007319D03*
X010238Y007318D03*
X010236Y007316D03*
X010233Y007313D03*
X010232Y007312D03*
X010230Y007310D03*
X010229Y007309D03*
X010226Y007306D03*
X010224Y007304D03*
X010223Y007303D03*
X010221Y007301D03*
X010218Y007298D03*
X010217Y007297D03*
X010215Y007295D03*
X010214Y007294D03*
X010211Y007291D03*
X010209Y007289D03*
X010208Y007288D03*
X010206Y007286D03*
X010203Y007283D03*
X010202Y007282D03*
X010200Y007280D03*
X010199Y007279D03*
X010196Y007276D03*
X010194Y007274D03*
X010193Y007273D03*
X010191Y007271D03*
X010188Y007268D03*
X010187Y007267D03*
X010185Y007265D03*
X010184Y007264D03*
X010181Y007261D03*
X010179Y007259D03*
X010178Y007258D03*
X010176Y007256D03*
X010173Y007253D03*
X010172Y007252D03*
X010170Y007250D03*
X010169Y007249D03*
X010166Y007246D03*
X010164Y007244D03*
X010163Y007243D03*
X010161Y007241D03*
X010158Y007238D03*
X010157Y007237D03*
X010155Y007235D03*
X010154Y007234D03*
X010151Y007231D03*
X010149Y007229D03*
X010148Y007228D03*
X010146Y007226D03*
X010143Y007223D03*
X010142Y007222D03*
X010140Y007220D03*
X010139Y007219D03*
X010136Y007216D03*
X010134Y007214D03*
X010133Y007213D03*
X010131Y007211D03*
X010128Y007208D03*
X010127Y007207D03*
X010125Y007205D03*
X010124Y007204D03*
X010121Y007201D03*
X010119Y007199D03*
X010118Y007198D03*
X010116Y007196D03*
X010113Y007193D03*
X010112Y007192D03*
X010110Y007190D03*
X010109Y007189D03*
X010106Y007186D03*
X010104Y007184D03*
X010103Y007183D03*
X010101Y007181D03*
X010098Y007178D03*
X010097Y007177D03*
X010095Y007175D03*
X010094Y007174D03*
X010091Y007171D03*
X010089Y007169D03*
X010088Y007168D03*
X010086Y007166D03*
X010083Y007163D03*
X010082Y007162D03*
X010080Y007160D03*
X010079Y007159D03*
X010076Y007156D03*
X010074Y007154D03*
X010073Y007153D03*
X010071Y007151D03*
X010068Y007148D03*
X010067Y007147D03*
X010065Y007145D03*
X010064Y007144D03*
X010061Y007141D03*
X010059Y007139D03*
X010058Y007138D03*
X009998Y007078D03*
X009996Y007076D03*
X009993Y007073D03*
X009992Y007072D03*
X009990Y007070D03*
X009989Y007069D03*
X009986Y007066D03*
X009984Y007064D03*
X009983Y007063D03*
X009981Y007061D03*
X009978Y007058D03*
X009977Y007057D03*
X009975Y007055D03*
X009974Y007054D03*
X009971Y007051D03*
X009969Y007049D03*
X009968Y007048D03*
X009966Y007046D03*
X009963Y007043D03*
X009962Y007042D03*
X009960Y007040D03*
X009959Y007039D03*
X009956Y007036D03*
X009954Y007034D03*
X009953Y007033D03*
X009951Y007031D03*
X009948Y007028D03*
X009947Y007027D03*
X009945Y007025D03*
X009944Y007024D03*
X009941Y007021D03*
X009939Y007019D03*
X009938Y007018D03*
X009936Y007016D03*
X009933Y007013D03*
X009932Y007012D03*
X009930Y007010D03*
X009929Y007009D03*
X009926Y007006D03*
X009924Y007004D03*
X009828Y007001D03*
X009827Y007003D03*
X009825Y007004D03*
X009824Y007006D03*
X009821Y007009D03*
X009819Y007010D03*
X009818Y007012D03*
X009816Y007013D03*
X009813Y007016D03*
X009812Y007018D03*
X009810Y007019D03*
X009809Y007021D03*
X009806Y007024D03*
X009804Y007025D03*
X009803Y007027D03*
X009801Y007028D03*
X009798Y007031D03*
X009797Y007033D03*
X009795Y007034D03*
X009794Y007036D03*
X009791Y007039D03*
X009789Y007040D03*
X009788Y007042D03*
X009786Y007043D03*
X009783Y007046D03*
X009782Y007048D03*
X009780Y007049D03*
X009779Y007051D03*
X009776Y007054D03*
X009774Y007055D03*
X009773Y007057D03*
X009771Y007058D03*
X009768Y007061D03*
X009767Y007063D03*
X009765Y007064D03*
X009764Y007066D03*
X009761Y007069D03*
X009759Y007070D03*
X009758Y007072D03*
X009756Y007073D03*
X009753Y007076D03*
X009752Y007078D03*
X009750Y007079D03*
X009749Y007081D03*
X009746Y007084D03*
X009744Y007085D03*
X009743Y007087D03*
X009741Y007088D03*
X009738Y007091D03*
X009737Y007093D03*
X009735Y007094D03*
X009734Y007096D03*
X009731Y007099D03*
X009729Y007100D03*
X009728Y007102D03*
X009726Y007103D03*
X009723Y007106D03*
X009722Y007108D03*
X009720Y007109D03*
X009719Y007111D03*
X009716Y007114D03*
X009714Y007115D03*
X009713Y007117D03*
X009711Y007118D03*
X009708Y007121D03*
X009707Y007123D03*
X009705Y007124D03*
X009704Y007126D03*
X009701Y007129D03*
X009699Y007130D03*
X009698Y007132D03*
X009696Y007133D03*
X009693Y007136D03*
X009692Y007138D03*
X009690Y007139D03*
X009689Y007141D03*
X009686Y007144D03*
X009684Y007145D03*
X009683Y007147D03*
X009681Y007148D03*
X009678Y007151D03*
X009677Y007153D03*
X009675Y007154D03*
X009674Y007156D03*
X009671Y007159D03*
X009669Y007160D03*
X009668Y007162D03*
X009666Y007163D03*
X009663Y007166D03*
X009662Y007168D03*
X009660Y007169D03*
X009659Y007171D03*
X009656Y007174D03*
X009654Y007175D03*
X009653Y007177D03*
X009651Y007178D03*
X009648Y007181D03*
X009647Y007183D03*
X009645Y007184D03*
X009644Y007186D03*
X009641Y007189D03*
X009639Y007190D03*
X009638Y007192D03*
X009636Y007193D03*
X009633Y007196D03*
X009632Y007198D03*
X009630Y007199D03*
X009629Y007201D03*
X009626Y007204D03*
X009624Y007205D03*
X009623Y007207D03*
X009621Y007208D03*
X009618Y007211D03*
X009617Y007213D03*
X009615Y007214D03*
X009614Y007216D03*
X009611Y007219D03*
X009609Y007220D03*
X009608Y007222D03*
X009606Y007223D03*
X009603Y007226D03*
X009602Y007228D03*
X009600Y007229D03*
X009599Y007231D03*
X009596Y007234D03*
X009594Y007235D03*
X009593Y007237D03*
X009591Y007238D03*
X009588Y007241D03*
X009587Y007243D03*
X009585Y007244D03*
X009584Y007246D03*
X009581Y007249D03*
X009579Y007250D03*
X009578Y007252D03*
X009576Y007253D03*
X009573Y007256D03*
X009572Y007258D03*
X009570Y007259D03*
X009569Y007261D03*
X009566Y007264D03*
X009564Y007265D03*
X009563Y007267D03*
X009561Y007268D03*
X009558Y007271D03*
X009557Y007273D03*
X009555Y007274D03*
X009554Y007276D03*
X009551Y007279D03*
X009549Y007280D03*
X009548Y007282D03*
X009546Y007283D03*
X009543Y007286D03*
X009542Y007288D03*
X009540Y007289D03*
X009539Y007291D03*
X009536Y007294D03*
X009534Y007295D03*
X009533Y007297D03*
X009531Y007298D03*
X009528Y007301D03*
X009527Y007303D03*
X009525Y007304D03*
X009524Y007306D03*
X009521Y007309D03*
X009519Y007310D03*
X009518Y007312D03*
X009516Y007313D03*
X009513Y007316D03*
X009512Y007318D03*
X009510Y007319D03*
X009509Y007321D03*
X009506Y007324D03*
X009504Y007325D03*
X009503Y007327D03*
X009501Y007328D03*
X009498Y007331D03*
X009497Y007333D03*
X009495Y007334D03*
X009494Y007336D03*
X009491Y007339D03*
X009489Y007340D03*
X009488Y007342D03*
X009486Y007343D03*
X009483Y007346D03*
X009482Y007348D03*
X009480Y007349D03*
X009479Y007351D03*
X009476Y007354D03*
X009474Y007355D03*
X009473Y007357D03*
X009471Y007358D03*
X009468Y007361D03*
X009467Y007363D03*
X009465Y007364D03*
X009464Y007366D03*
X009461Y007369D03*
X009459Y007370D03*
X009458Y007372D03*
X009456Y007373D03*
X009453Y007376D03*
X009452Y007378D03*
X009450Y007379D03*
X009449Y007381D03*
X009446Y007384D03*
X009444Y007385D03*
X009443Y007387D03*
X009441Y007388D03*
X009438Y007391D03*
X009437Y007393D03*
X009435Y007394D03*
X009434Y007396D03*
X009431Y007399D03*
X009429Y007400D03*
X009428Y007402D03*
X009426Y007403D03*
X009423Y007406D03*
X009422Y007408D03*
X009420Y007409D03*
X009419Y007411D03*
X009416Y007414D03*
X009414Y007415D03*
X009413Y007417D03*
X009411Y007418D03*
X009408Y007421D03*
X009407Y007423D03*
X009405Y007424D03*
X009404Y007426D03*
X009401Y007429D03*
X009399Y007430D03*
X009398Y007432D03*
X009396Y007433D03*
X009393Y007436D03*
X009392Y007438D03*
X009390Y007439D03*
X009389Y007441D03*
X009386Y007444D03*
X009384Y007445D03*
X009383Y007447D03*
X009381Y007448D03*
X009378Y007451D03*
X009377Y007453D03*
X009375Y007454D03*
X009374Y007456D03*
X009371Y007459D03*
X009369Y007460D03*
X009368Y007462D03*
X009366Y007463D03*
X009363Y007466D03*
X009362Y007468D03*
X009360Y007469D03*
X009359Y007471D03*
X009356Y007474D03*
X009354Y007475D03*
X009353Y007477D03*
X009351Y007478D03*
X009348Y007481D03*
X009347Y007483D03*
X009345Y007484D03*
X009344Y007486D03*
X009341Y007489D03*
X009339Y007490D03*
X009338Y007492D03*
X009336Y007493D03*
X009333Y007496D03*
X009332Y007498D03*
X009330Y007499D03*
X009329Y007501D03*
X009326Y007504D03*
X009324Y007505D03*
X009323Y007507D03*
X009321Y007508D03*
X009318Y007511D03*
X009317Y007513D03*
X009315Y007514D03*
X009314Y007516D03*
X009311Y007519D03*
X009309Y007520D03*
X009308Y007522D03*
X009306Y007523D03*
X009303Y007526D03*
X009302Y007528D03*
X009300Y007529D03*
X009299Y007531D03*
X009296Y007534D03*
X009294Y007535D03*
X009293Y007537D03*
X009291Y007538D03*
X009288Y007541D03*
X009287Y007543D03*
X009285Y007544D03*
X009284Y007546D03*
X009281Y007549D03*
X009279Y007550D03*
X009278Y007552D03*
X009276Y007553D03*
X009273Y007556D03*
X009272Y007558D03*
X009270Y007559D03*
X009269Y007561D03*
X009266Y007564D03*
X009264Y007565D03*
X009263Y007567D03*
X009261Y007568D03*
X009258Y007571D03*
X009257Y007573D03*
X009255Y007574D03*
X009254Y007576D03*
X009251Y007579D03*
X009249Y007580D03*
X009248Y007582D03*
X009246Y007583D03*
X009243Y007586D03*
X009242Y007588D03*
X009240Y007589D03*
X009239Y007591D03*
X009236Y007594D03*
X009234Y007595D03*
X009233Y007597D03*
X009231Y007598D03*
X009228Y007601D03*
X009227Y007603D03*
X009225Y007604D03*
X009224Y007606D03*
X009221Y007609D03*
X009219Y007610D03*
X009218Y007612D03*
X009216Y007613D03*
X009213Y007616D03*
X009212Y007618D03*
X009210Y007619D03*
X009674Y007504D03*
D84*
X009500Y007330D03*
X009492Y007337D03*
X009485Y007345D03*
X009477Y007352D03*
X009470Y007360D03*
X009462Y007367D03*
X009455Y007375D03*
X009447Y007382D03*
X009440Y007390D03*
X009432Y007397D03*
X009425Y007405D03*
X009417Y007412D03*
X009410Y007420D03*
X009402Y007427D03*
X009395Y007435D03*
X009387Y007442D03*
X009380Y007450D03*
X009372Y007457D03*
X009365Y007465D03*
X009357Y007472D03*
X009350Y007480D03*
X009342Y007487D03*
X009335Y007495D03*
X009327Y007502D03*
X009320Y007510D03*
X009312Y007517D03*
X009305Y007525D03*
X009297Y007532D03*
X009290Y007540D03*
X009282Y007547D03*
X009275Y007555D03*
X009267Y007562D03*
X009260Y007570D03*
X009252Y007577D03*
X009245Y007585D03*
X009237Y007592D03*
X009230Y007600D03*
X009222Y007607D03*
X009215Y007615D03*
X009507Y007322D03*
X009515Y007315D03*
X009522Y007307D03*
X009530Y007300D03*
X009537Y007292D03*
X009545Y007285D03*
X009552Y007277D03*
X009560Y007270D03*
X009567Y007262D03*
X009575Y007255D03*
X009582Y007247D03*
X009590Y007240D03*
X009597Y007232D03*
X009605Y007225D03*
X009612Y007217D03*
X009620Y007210D03*
X009627Y007202D03*
X009635Y007195D03*
X009642Y007187D03*
X009650Y007180D03*
X009657Y007172D03*
X009665Y007165D03*
X009672Y007157D03*
X009680Y007150D03*
X009687Y007142D03*
X009695Y007135D03*
X009702Y007127D03*
X009710Y007120D03*
X009717Y007112D03*
X009725Y007105D03*
X009732Y007097D03*
X009740Y007090D03*
X009747Y007082D03*
X009755Y007075D03*
X009762Y007067D03*
X009770Y007060D03*
X009777Y007052D03*
X009785Y007045D03*
X009792Y007037D03*
X009800Y007030D03*
X009807Y007022D03*
X009815Y007015D03*
X009822Y007007D03*
X009927Y007007D03*
X009935Y007015D03*
X009942Y007022D03*
X009950Y007030D03*
X009957Y007037D03*
X009965Y007045D03*
X009972Y007052D03*
X009980Y007060D03*
X009987Y007067D03*
X009995Y007075D03*
X010062Y007142D03*
X010070Y007150D03*
X010077Y007157D03*
X010085Y007165D03*
X010092Y007172D03*
X010100Y007180D03*
X010107Y007187D03*
X010115Y007195D03*
X010122Y007202D03*
X010130Y007210D03*
X010137Y007217D03*
X010145Y007225D03*
X010152Y007232D03*
X010160Y007240D03*
X010167Y007247D03*
X010175Y007255D03*
X010182Y007262D03*
X010190Y007270D03*
X010197Y007277D03*
X010205Y007285D03*
X010212Y007292D03*
X010220Y007300D03*
X010227Y007307D03*
X010235Y007315D03*
X010242Y007322D03*
X010250Y007330D03*
X010257Y007337D03*
X010265Y007345D03*
X010272Y007352D03*
X010280Y007360D03*
X010287Y007367D03*
X010295Y007375D03*
X010302Y007382D03*
X010310Y007390D03*
X010317Y007397D03*
X010325Y007405D03*
X010332Y007412D03*
X010340Y007420D03*
X010347Y007427D03*
X010355Y007435D03*
X010362Y007442D03*
X010370Y007450D03*
X010377Y007457D03*
X010385Y007465D03*
X010392Y007472D03*
X010400Y007480D03*
X010407Y007487D03*
X010415Y007495D03*
X010422Y007502D03*
X010430Y007510D03*
X010437Y007517D03*
X010445Y007525D03*
X010452Y007532D03*
X010460Y007540D03*
X010467Y007547D03*
X010475Y007555D03*
X010482Y007562D03*
X010490Y007570D03*
X010497Y007577D03*
X010505Y007585D03*
X010512Y007592D03*
X010520Y007600D03*
X010527Y007607D03*
X010535Y007615D03*
D85*
X010098Y007504D03*
D86*
X010097Y007504D03*
X008943Y007114D03*
D87*
X010095Y007504D03*
D88*
X010094Y007504D03*
X008946Y007114D03*
D89*
X010092Y007504D03*
D90*
X010091Y007504D03*
X008949Y007114D03*
D91*
X008432Y006959D03*
X010088Y007504D03*
D92*
X010086Y007504D03*
X008954Y007114D03*
X008438Y006961D03*
D93*
X008453Y006967D03*
X010083Y007504D03*
D94*
X010079Y007504D03*
X009671Y007504D03*
X009855Y006981D03*
X009894Y006981D03*
X009146Y007638D03*
X008477Y006981D03*
D95*
X009672Y007504D03*
X010077Y007504D03*
D96*
X010074Y007504D03*
X009675Y007504D03*
D97*
X009677Y007504D03*
X010073Y007504D03*
D98*
X010071Y007504D03*
X008969Y007114D03*
D99*
X010070Y007504D03*
D100*
X010068Y007504D03*
X008972Y007114D03*
D101*
X009683Y007504D03*
X010067Y007504D03*
D102*
X010065Y007504D03*
D103*
X010064Y007504D03*
X009686Y007504D03*
X008976Y007114D03*
D104*
X010062Y007504D03*
D105*
X010061Y007504D03*
X009689Y007504D03*
X008979Y007114D03*
D106*
X008981Y007114D03*
X010059Y007504D03*
D107*
X010058Y007504D03*
X009692Y007504D03*
X009348Y007114D03*
D108*
X008984Y007114D03*
X010056Y007504D03*
D109*
X010055Y007504D03*
D110*
X010053Y007504D03*
X009696Y007504D03*
X009344Y007114D03*
X008987Y007114D03*
D111*
X008988Y007114D03*
X010052Y007504D03*
D112*
X010050Y007504D03*
D113*
X010049Y007504D03*
D114*
X010047Y007504D03*
X009702Y007504D03*
D115*
X009704Y007504D03*
X010046Y007504D03*
X009336Y007114D03*
X008994Y007114D03*
D116*
X008996Y007114D03*
X010044Y007504D03*
D117*
X010043Y007504D03*
D118*
X010041Y007504D03*
X009707Y007504D03*
X009333Y007114D03*
X008999Y007114D03*
D119*
X010040Y007504D03*
D120*
X010038Y007504D03*
D121*
X010037Y007504D03*
X009713Y007504D03*
D122*
X009714Y007504D03*
X010035Y007504D03*
X009326Y007114D03*
X009006Y007114D03*
D123*
X009008Y007114D03*
X009324Y007114D03*
X009716Y007504D03*
X010034Y007504D03*
D124*
X010032Y007504D03*
X009717Y007504D03*
D125*
X009719Y007504D03*
X010031Y007504D03*
X009321Y007114D03*
X009011Y007114D03*
D126*
X010029Y007504D03*
D127*
X010028Y007504D03*
X009720Y007504D03*
D128*
X009722Y007504D03*
X010026Y007504D03*
X009318Y007114D03*
X009014Y007114D03*
D129*
X010025Y007504D03*
D130*
X010023Y007504D03*
X009315Y007114D03*
X009017Y007114D03*
D131*
X009018Y007114D03*
X009314Y007114D03*
X009728Y007504D03*
X010022Y007504D03*
D132*
X010020Y007504D03*
X009729Y007504D03*
X009311Y007114D03*
D133*
X009309Y007114D03*
X009021Y007114D03*
X009731Y007504D03*
X010019Y007504D03*
D134*
X010017Y007504D03*
X009732Y007504D03*
D135*
X010016Y007504D03*
X009308Y007114D03*
X009024Y007114D03*
D136*
X009026Y007114D03*
X009306Y007114D03*
X009734Y007504D03*
X009735Y007504D03*
X010014Y007504D03*
D137*
X010013Y007504D03*
X009737Y007504D03*
X009303Y007114D03*
D138*
X009302Y007114D03*
X009030Y007114D03*
X009029Y007114D03*
X009738Y007504D03*
X010011Y007504D03*
D139*
X010010Y007504D03*
D140*
X010008Y007504D03*
X009300Y007114D03*
X009032Y007114D03*
D141*
X009033Y007114D03*
X009299Y007114D03*
X009743Y007504D03*
X010007Y007504D03*
D142*
X010005Y007504D03*
X010004Y007504D03*
X009744Y007504D03*
X009296Y007114D03*
X009036Y007114D03*
D143*
X009747Y007504D03*
X010002Y007504D03*
D144*
X010001Y007504D03*
X009999Y007504D03*
X009749Y007504D03*
X009291Y007114D03*
X009041Y007114D03*
X009039Y007114D03*
D145*
X009288Y007114D03*
X009750Y007504D03*
X009752Y007504D03*
X009998Y007504D03*
D146*
X009996Y007504D03*
X009753Y007504D03*
X009287Y007114D03*
X009045Y007114D03*
X009044Y007114D03*
D147*
X009995Y007504D03*
D148*
X009993Y007504D03*
X009756Y007504D03*
X009285Y007114D03*
X009284Y007114D03*
X009047Y007114D03*
D149*
X009048Y007114D03*
X009758Y007504D03*
X009759Y007504D03*
X009990Y007504D03*
X009992Y007504D03*
D150*
X009989Y007504D03*
X009761Y007504D03*
X009279Y007114D03*
X009053Y007114D03*
X009051Y007114D03*
D151*
X009987Y007504D03*
D152*
X009986Y007504D03*
X009764Y007504D03*
X009278Y007114D03*
X009276Y007114D03*
X009054Y007114D03*
D153*
X009273Y007114D03*
X009765Y007504D03*
X009767Y007504D03*
X009983Y007504D03*
X009984Y007504D03*
D154*
X009981Y007504D03*
X009768Y007504D03*
X009272Y007114D03*
X009270Y007114D03*
X009060Y007114D03*
X009059Y007114D03*
D155*
X009770Y007504D03*
X009980Y007504D03*
D156*
X009978Y007504D03*
X009977Y007504D03*
X009773Y007504D03*
X009771Y007504D03*
X009269Y007114D03*
X009063Y007114D03*
X009062Y007114D03*
D157*
X009066Y007114D03*
X009264Y007114D03*
X009266Y007114D03*
X009774Y007504D03*
X009776Y007504D03*
X009974Y007504D03*
X009975Y007504D03*
D158*
X009972Y007504D03*
X009777Y007504D03*
D159*
X009779Y007504D03*
X009971Y007504D03*
X009263Y007114D03*
X009261Y007114D03*
X009069Y007114D03*
X009068Y007114D03*
D160*
X009071Y007114D03*
X009258Y007114D03*
X009780Y007504D03*
X009782Y007504D03*
X009968Y007504D03*
X009969Y007504D03*
D161*
X009966Y007504D03*
X009963Y007504D03*
X009783Y007504D03*
X009257Y007114D03*
X009255Y007114D03*
X009077Y007114D03*
X009075Y007114D03*
X009074Y007114D03*
D162*
X009785Y007504D03*
X009965Y007504D03*
D163*
X009962Y007504D03*
X009960Y007504D03*
X009789Y007504D03*
X009788Y007504D03*
X009786Y007504D03*
X009254Y007114D03*
X009078Y007114D03*
D164*
X009081Y007114D03*
X009083Y007114D03*
X009084Y007114D03*
X009248Y007114D03*
X009249Y007114D03*
X009791Y007504D03*
X009959Y007504D03*
D165*
X009957Y007504D03*
X009792Y007504D03*
D166*
X009956Y007504D03*
D167*
X009954Y007504D03*
X009953Y007504D03*
X009797Y007504D03*
X009795Y007504D03*
X009794Y007504D03*
X009246Y007114D03*
X009243Y007114D03*
X009086Y007114D03*
D168*
X009089Y007114D03*
X009090Y007114D03*
X009092Y007114D03*
X009240Y007114D03*
X009242Y007114D03*
X009798Y007504D03*
X009801Y007504D03*
X009948Y007504D03*
X009951Y007504D03*
D169*
X009950Y007504D03*
X009800Y007504D03*
D170*
X009803Y007504D03*
X009804Y007504D03*
X009806Y007504D03*
X009944Y007504D03*
X009945Y007504D03*
X009947Y007504D03*
X009236Y007114D03*
X009096Y007114D03*
X009093Y007114D03*
D171*
X009230Y007114D03*
X009807Y007504D03*
X009942Y007504D03*
D172*
X009941Y007504D03*
X009939Y007504D03*
X009810Y007504D03*
X009809Y007504D03*
X009233Y007114D03*
X009231Y007114D03*
X009101Y007114D03*
X009099Y007114D03*
X009098Y007114D03*
D173*
X009104Y007114D03*
X009105Y007114D03*
X009107Y007114D03*
X009225Y007114D03*
X009227Y007114D03*
X009228Y007114D03*
X009812Y007504D03*
X009813Y007504D03*
X009933Y007504D03*
X009936Y007504D03*
X009938Y007504D03*
D174*
X009935Y007504D03*
X009815Y007504D03*
X009102Y007114D03*
D175*
X009108Y007114D03*
X009111Y007114D03*
X009113Y007114D03*
X009219Y007114D03*
X009221Y007114D03*
X009224Y007114D03*
X009818Y007504D03*
X009819Y007504D03*
X009821Y007504D03*
X009929Y007504D03*
X009930Y007504D03*
X009932Y007504D03*
D176*
X009927Y007504D03*
X009222Y007114D03*
X009110Y007114D03*
D177*
X009114Y007114D03*
X009116Y007114D03*
X009119Y007114D03*
X009212Y007114D03*
X009213Y007114D03*
X009216Y007114D03*
X009218Y007114D03*
X009824Y007504D03*
X009825Y007504D03*
X009827Y007504D03*
X009828Y007504D03*
X009921Y007504D03*
X009923Y007504D03*
X009924Y007504D03*
X009926Y007504D03*
D178*
X009920Y007504D03*
X009830Y007504D03*
X009207Y007114D03*
X009125Y007114D03*
D179*
X009126Y007114D03*
X009123Y007114D03*
X009122Y007114D03*
X009204Y007114D03*
X009206Y007114D03*
X009209Y007114D03*
X009210Y007114D03*
X009831Y007504D03*
X009833Y007504D03*
X009834Y007504D03*
X009836Y007504D03*
X009914Y007504D03*
X009915Y007504D03*
X009917Y007504D03*
X009918Y007504D03*
D180*
X009912Y006994D03*
X009837Y006994D03*
X009125Y007622D03*
X008495Y006994D03*
D181*
X009912Y007504D03*
D182*
X009911Y007504D03*
X009909Y007504D03*
X009908Y007504D03*
X009906Y007504D03*
X009903Y007504D03*
X009846Y007504D03*
X009843Y007504D03*
X009842Y007504D03*
X009840Y007504D03*
X009839Y007504D03*
X009203Y007114D03*
X009201Y007114D03*
X009198Y007114D03*
X009197Y007114D03*
X009195Y007114D03*
X009194Y007114D03*
X009137Y007114D03*
X009135Y007114D03*
X009134Y007114D03*
X009131Y007114D03*
X009129Y007114D03*
D183*
X009132Y007114D03*
X009200Y007114D03*
X009837Y007504D03*
X009845Y007504D03*
X009905Y007504D03*
D184*
X009902Y007504D03*
D185*
X009900Y007504D03*
X009899Y007504D03*
X009896Y007504D03*
X009894Y007504D03*
X009893Y007504D03*
X009891Y007504D03*
X009888Y007504D03*
X009887Y007504D03*
X009885Y007504D03*
X009863Y007504D03*
X009861Y007504D03*
X009858Y007504D03*
X009857Y007504D03*
X009855Y007504D03*
X009854Y007504D03*
X009851Y007504D03*
X009849Y007504D03*
X009848Y007504D03*
X009191Y007114D03*
X009189Y007114D03*
X009188Y007114D03*
X009186Y007114D03*
X009183Y007114D03*
X009182Y007114D03*
X009180Y007114D03*
X009179Y007114D03*
X009153Y007114D03*
X009152Y007114D03*
X009150Y007114D03*
X009149Y007114D03*
X009146Y007114D03*
X009144Y007114D03*
X009143Y007114D03*
X009141Y007114D03*
D186*
X008480Y006983D03*
X009897Y006983D03*
D187*
X009897Y007504D03*
X009890Y007504D03*
X009860Y007504D03*
X009852Y007504D03*
X009192Y007114D03*
X009185Y007114D03*
X009177Y007114D03*
X009155Y007114D03*
X009147Y007114D03*
X009140Y007114D03*
D188*
X008478Y006982D03*
X009854Y006982D03*
X009896Y006982D03*
D189*
X009890Y006978D03*
X009860Y006978D03*
X008472Y006978D03*
D190*
X008469Y006976D03*
X009863Y006976D03*
X009887Y006976D03*
D191*
X009885Y006976D03*
X009864Y006976D03*
X009176Y007643D03*
X008468Y006976D03*
D192*
X009156Y007114D03*
X009161Y007114D03*
X009164Y007114D03*
X009165Y007114D03*
X009167Y007114D03*
X009168Y007114D03*
X009171Y007114D03*
X009174Y007114D03*
X009866Y007504D03*
X009869Y007504D03*
X009870Y007504D03*
X009872Y007504D03*
X009873Y007504D03*
X009876Y007504D03*
X009878Y007504D03*
X009879Y007504D03*
X009881Y007504D03*
X009884Y007504D03*
D193*
X009882Y006973D03*
X009867Y006973D03*
D194*
X009867Y007504D03*
X009882Y007504D03*
D195*
X009878Y006971D03*
X009872Y006971D03*
X008460Y006971D03*
D196*
X008457Y006970D03*
X009875Y006970D03*
D197*
X009875Y007504D03*
X009170Y007114D03*
X009162Y007114D03*
D198*
X009159Y007115D03*
X009158Y007115D03*
X009173Y007115D03*
X009176Y007115D03*
X009864Y007504D03*
D199*
X009852Y006982D03*
D200*
X009845Y006988D03*
X009132Y007628D03*
D201*
X009131Y007627D03*
X009129Y007626D03*
X009368Y007114D03*
X009842Y006990D03*
D202*
X009822Y007504D03*
X009215Y007114D03*
X009117Y007114D03*
D203*
X009816Y007504D03*
D204*
X009762Y007504D03*
D205*
X009755Y007504D03*
D206*
X009746Y007504D03*
X009294Y007114D03*
X009293Y007114D03*
X009038Y007114D03*
D207*
X009741Y007504D03*
D208*
X009740Y007504D03*
D209*
X009726Y007504D03*
D210*
X009725Y007504D03*
D211*
X009723Y007504D03*
X009317Y007114D03*
X009015Y007114D03*
D212*
X009003Y007114D03*
X009329Y007114D03*
X009711Y007504D03*
D213*
X009710Y007504D03*
D214*
X009708Y007504D03*
X009332Y007114D03*
X009000Y007114D03*
D215*
X009705Y007504D03*
D216*
X009701Y007504D03*
X009339Y007114D03*
D217*
X009341Y007114D03*
X008991Y007114D03*
X009699Y007504D03*
D218*
X009698Y007504D03*
D219*
X009695Y007504D03*
D220*
X009693Y007504D03*
X009347Y007114D03*
X008985Y007114D03*
D221*
X009690Y007504D03*
D222*
X009687Y007504D03*
D223*
X009684Y007504D03*
X009356Y007114D03*
D224*
X009681Y007504D03*
D225*
X009680Y007504D03*
D226*
X009678Y007504D03*
X009362Y007114D03*
D227*
X009371Y007114D03*
X009669Y007504D03*
X009153Y007642D03*
D228*
X009665Y007504D03*
D229*
X009663Y007504D03*
D230*
X009660Y007504D03*
X008429Y006958D03*
D231*
X009659Y007504D03*
D232*
X009656Y007504D03*
X009384Y007114D03*
D233*
X009386Y007114D03*
X009654Y007504D03*
D234*
X009653Y007504D03*
D235*
X009651Y007504D03*
D236*
X009650Y007504D03*
D237*
X009390Y007114D03*
D238*
X009389Y007114D03*
D239*
X009387Y007114D03*
D240*
X009383Y007114D03*
X008415Y006955D03*
D241*
X008423Y006957D03*
X009381Y007114D03*
D242*
X009380Y007114D03*
D243*
X009372Y007114D03*
X009170Y007647D03*
D244*
X009366Y007114D03*
D245*
X009365Y007114D03*
X008967Y007114D03*
D246*
X009363Y007115D03*
D247*
X009360Y007114D03*
D248*
X009359Y007114D03*
X008973Y007114D03*
D249*
X009357Y007114D03*
D250*
X009354Y007115D03*
D251*
X009353Y007114D03*
D252*
X009351Y007115D03*
D253*
X009350Y007114D03*
D254*
X009345Y007114D03*
D255*
X009342Y007114D03*
X008990Y007114D03*
D256*
X008993Y007114D03*
X009338Y007114D03*
D257*
X009335Y007114D03*
X008997Y007114D03*
D258*
X009002Y007114D03*
X009330Y007114D03*
D259*
X009327Y007114D03*
X009005Y007114D03*
D260*
X009009Y007114D03*
X009323Y007114D03*
D261*
X009320Y007114D03*
X009012Y007114D03*
D262*
X009312Y007114D03*
D263*
X009305Y007114D03*
X009027Y007114D03*
D264*
X009297Y007114D03*
D265*
X009290Y007114D03*
X009042Y007114D03*
D266*
X009050Y007114D03*
X009282Y007114D03*
D267*
X009281Y007115D03*
D268*
X009275Y007114D03*
X009057Y007114D03*
D269*
X009267Y007115D03*
D270*
X009260Y007114D03*
X009072Y007114D03*
D271*
X009080Y007114D03*
X009252Y007114D03*
D272*
X009251Y007115D03*
D273*
X009245Y007114D03*
X009087Y007114D03*
D274*
X009239Y007115D03*
D275*
X009237Y007114D03*
X009095Y007114D03*
D276*
X009234Y007115D03*
D277*
X009192Y007633D03*
X009140Y007634D03*
D278*
X009150Y007641D03*
X009180Y007641D03*
X008961Y007114D03*
X008474Y006979D03*
D279*
X009168Y007648D03*
D280*
X009155Y007643D03*
D281*
X009147Y007639D03*
D282*
X009138Y007115D03*
D283*
X009128Y007115D03*
D284*
X009120Y007115D03*
D285*
X009065Y007114D03*
D286*
X009056Y007115D03*
D287*
X009035Y007114D03*
D288*
X009023Y007115D03*
D289*
X009020Y007114D03*
D290*
X008982Y007115D03*
D291*
X008978Y007114D03*
D292*
X008975Y007114D03*
D293*
X008970Y007114D03*
D294*
X008966Y007115D03*
D295*
X008960Y007114D03*
D296*
X008955Y007114D03*
X008445Y006964D03*
D297*
X008948Y007114D03*
D298*
X008945Y007114D03*
D299*
X008942Y007114D03*
D300*
X008465Y006974D03*
D301*
X008450Y006966D03*
D302*
X008447Y006965D03*
D303*
X008442Y006963D03*
D304*
X008435Y006960D03*
D305*
X008430Y006959D03*
D306*
X008427Y006958D03*
D307*
X008420Y006956D03*
D308*
X008417Y006955D03*
D309*
X008412Y006955D03*
D310*
X008408Y006955D03*
D311*
X008406Y006955D03*
D312*
X008405Y006955D03*
D313*
X008400Y006955D03*
D314*
X008397Y006955D03*
D315*
X008396Y006955D03*
D316*
X008394Y006955D03*
D317*
X008393Y006955D03*
D318*
X008390Y006955D03*
D319*
X008387Y006955D03*
D320*
X008385Y006955D03*
D321*
X007364Y006571D02*
X009411Y006571D01*
X009411Y002555D01*
X007364Y002555D01*
X007364Y006571D01*
X007728Y009503D02*
X007728Y012083D01*
X009128Y012083D01*
X009128Y009503D01*
X007728Y009503D01*
X007665Y001699D02*
X007114Y001699D01*
X007114Y001187D02*
X007665Y001187D01*
X007665Y001699D01*
X007822Y001699D01*
X007822Y001187D02*
X007665Y001187D01*
D322*
X009028Y006216D03*
M02*
