G75*
%MOIN*%
%OFA0B0*%
%FSLAX24Y24*%
%IPPOS*%
%LPD*%
%AMOC8*
5,1,8,0,0,1.08239X$1,22.5*
%
%ADD10C,0.0000*%
%ADD11C,0.0040*%
%ADD12C,0.0050*%
%ADD13C,0.0060*%
%ADD14R,0.0118X0.0118*%
%ADD15C,0.0080*%
D10*
X004748Y001063D02*
X004748Y014102D01*
X004750Y014138D01*
X004755Y014174D01*
X004764Y014209D01*
X004776Y014244D01*
X004792Y014276D01*
X004810Y014308D01*
X004832Y014337D01*
X004856Y014364D01*
X004883Y014388D01*
X004912Y014410D01*
X004944Y014428D01*
X004976Y014444D01*
X005011Y014456D01*
X005046Y014465D01*
X005082Y014470D01*
X005118Y014472D01*
X011378Y014472D01*
X011414Y014470D01*
X011450Y014465D01*
X011485Y014456D01*
X011520Y014444D01*
X011552Y014428D01*
X011584Y014410D01*
X011613Y014388D01*
X011640Y014364D01*
X011664Y014337D01*
X011686Y014308D01*
X011704Y014276D01*
X011720Y014244D01*
X011732Y014209D01*
X011741Y014174D01*
X011746Y014138D01*
X011748Y014102D01*
X011748Y001063D01*
X011746Y001027D01*
X011741Y000991D01*
X011732Y000956D01*
X011720Y000921D01*
X011704Y000889D01*
X011686Y000857D01*
X011664Y000828D01*
X011640Y000801D01*
X011613Y000777D01*
X011584Y000755D01*
X011552Y000737D01*
X011520Y000721D01*
X011485Y000709D01*
X011450Y000700D01*
X011414Y000695D01*
X011378Y000693D01*
X005118Y000693D01*
X005082Y000695D01*
X005046Y000700D01*
X005011Y000709D01*
X004976Y000721D01*
X004944Y000737D01*
X004912Y000755D01*
X004883Y000777D01*
X004856Y000801D01*
X004832Y000828D01*
X004810Y000857D01*
X004792Y000889D01*
X004776Y000921D01*
X004764Y000956D01*
X004755Y000991D01*
X004750Y001027D01*
X004748Y001063D01*
X007205Y002463D02*
X007207Y002489D01*
X007213Y002515D01*
X007223Y002540D01*
X007236Y002563D01*
X007252Y002583D01*
X007272Y002601D01*
X007294Y002616D01*
X007317Y002628D01*
X007343Y002636D01*
X007369Y002640D01*
X007395Y002640D01*
X007421Y002636D01*
X007447Y002628D01*
X007471Y002616D01*
X007492Y002601D01*
X007512Y002583D01*
X007528Y002563D01*
X007541Y002540D01*
X007551Y002515D01*
X007557Y002489D01*
X007559Y002463D01*
X007557Y002437D01*
X007551Y002411D01*
X007541Y002386D01*
X007528Y002363D01*
X007512Y002343D01*
X007492Y002325D01*
X007470Y002310D01*
X007447Y002298D01*
X007421Y002290D01*
X007395Y002286D01*
X007369Y002286D01*
X007343Y002290D01*
X007317Y002298D01*
X007293Y002310D01*
X007272Y002325D01*
X007252Y002343D01*
X007236Y002363D01*
X007223Y002386D01*
X007213Y002411D01*
X007207Y002437D01*
X007205Y002463D01*
X008937Y002463D02*
X008939Y002489D01*
X008945Y002515D01*
X008955Y002540D01*
X008968Y002563D01*
X008984Y002583D01*
X009004Y002601D01*
X009026Y002616D01*
X009049Y002628D01*
X009075Y002636D01*
X009101Y002640D01*
X009127Y002640D01*
X009153Y002636D01*
X009179Y002628D01*
X009203Y002616D01*
X009224Y002601D01*
X009244Y002583D01*
X009260Y002563D01*
X009273Y002540D01*
X009283Y002515D01*
X009289Y002489D01*
X009291Y002463D01*
X009289Y002437D01*
X009283Y002411D01*
X009273Y002386D01*
X009260Y002363D01*
X009244Y002343D01*
X009224Y002325D01*
X009202Y002310D01*
X009179Y002298D01*
X009153Y002290D01*
X009127Y002286D01*
X009101Y002286D01*
X009075Y002290D01*
X009049Y002298D01*
X009025Y002310D01*
X009004Y002325D01*
X008984Y002343D01*
X008968Y002363D01*
X008955Y002386D01*
X008945Y002411D01*
X008939Y002437D01*
X008937Y002463D01*
D11*
X009674Y010123D02*
X009674Y010363D01*
X009794Y010363D01*
X009835Y010323D01*
X009835Y010243D01*
X009794Y010203D01*
X009674Y010203D01*
X009754Y010203D02*
X009835Y010123D01*
X009932Y010163D02*
X009972Y010123D01*
X010052Y010123D01*
X010092Y010163D01*
X010092Y010203D01*
X010052Y010243D01*
X009972Y010243D01*
X009932Y010283D01*
X009932Y010323D01*
X009972Y010363D01*
X010052Y010363D01*
X010092Y010323D01*
X010190Y010363D02*
X010350Y010363D01*
X010270Y010363D02*
X010270Y010123D01*
X010300Y010463D02*
X010180Y010463D01*
X010180Y010703D01*
X010300Y010703D01*
X010340Y010663D01*
X010340Y010503D01*
X010300Y010463D01*
X010082Y010463D02*
X010082Y010703D01*
X010010Y010803D02*
X010090Y010883D01*
X010090Y011043D01*
X009930Y011043D02*
X009930Y010883D01*
X010010Y010803D01*
X009922Y010703D02*
X010082Y010463D01*
X009922Y010463D02*
X009922Y010703D01*
X009825Y010663D02*
X009784Y010703D01*
X009704Y010703D01*
X009664Y010663D01*
X009664Y010503D01*
X009704Y010463D01*
X009784Y010463D01*
X009825Y010503D01*
X009825Y010583D01*
X009744Y010583D01*
X009712Y010803D02*
X009672Y010843D01*
X009712Y010803D02*
X009792Y010803D01*
X009832Y010843D01*
X009832Y010923D01*
X009792Y010963D01*
X009752Y010963D01*
X009672Y010923D01*
X009672Y011043D01*
X009832Y011043D01*
X010268Y011563D02*
X010428Y011563D01*
X010526Y011563D02*
X010646Y011563D01*
X010686Y011603D01*
X010686Y011763D01*
X010646Y011803D01*
X010526Y011803D01*
X010526Y011563D01*
X010268Y011563D02*
X010268Y011803D01*
X009228Y012623D02*
X009008Y012623D01*
X009008Y012733D01*
X009044Y012770D01*
X009118Y012770D01*
X009154Y012733D01*
X009154Y012623D01*
X009228Y012862D02*
X009008Y012862D01*
X009008Y013009D02*
X009228Y013009D01*
X009154Y012936D01*
X009228Y012862D01*
X009196Y013213D02*
X009196Y013373D01*
X009276Y013453D01*
X009356Y013373D01*
X009356Y013213D01*
X009453Y013253D02*
X009493Y013213D01*
X009574Y013213D01*
X009614Y013253D01*
X009614Y013293D01*
X009574Y013333D01*
X009453Y013333D01*
X009453Y013253D01*
X009453Y013333D02*
X009534Y013413D01*
X009614Y013453D01*
X009356Y013333D02*
X009196Y013333D01*
X008258Y013009D02*
X008038Y012862D01*
X008074Y012770D02*
X008038Y012733D01*
X008038Y012623D01*
X008258Y012623D01*
X008184Y012623D02*
X008184Y012733D01*
X008148Y012770D01*
X008074Y012770D01*
X008184Y012696D02*
X008258Y012770D01*
X008258Y012862D02*
X008038Y013009D01*
X007305Y013413D02*
X007144Y013253D01*
X007144Y013213D01*
X007047Y013213D02*
X007047Y013373D01*
X006967Y013453D01*
X006887Y013373D01*
X006887Y013213D01*
X006887Y013333D02*
X007047Y013333D01*
X007144Y013453D02*
X007305Y013453D01*
X007305Y013413D01*
X006236Y011803D02*
X006076Y011563D01*
X006236Y011563D02*
X006076Y011803D01*
X005978Y011803D02*
X005818Y011803D01*
X005898Y011803D02*
X005898Y011563D01*
X006290Y011043D02*
X006290Y010883D01*
X006370Y010803D01*
X006450Y010883D01*
X006450Y011043D01*
X006548Y011043D02*
X006628Y011043D01*
X006588Y011043D02*
X006588Y010803D01*
X006548Y010803D02*
X006628Y010803D01*
X006720Y010803D02*
X006720Y011043D01*
X006880Y010803D01*
X006880Y011043D01*
X006840Y010703D02*
X006720Y010703D01*
X006720Y010463D01*
X006840Y010463D01*
X006880Y010503D01*
X006880Y010663D01*
X006840Y010703D01*
X006622Y010703D02*
X006622Y010463D01*
X006462Y010703D01*
X006462Y010463D01*
X006365Y010503D02*
X006365Y010583D01*
X006284Y010583D01*
X006204Y010663D02*
X006204Y010503D01*
X006244Y010463D01*
X006324Y010463D01*
X006365Y010503D01*
X006365Y010663D02*
X006324Y010703D01*
X006244Y010703D01*
X006204Y010663D01*
X006542Y010353D02*
X006462Y010273D01*
X006462Y010113D01*
X006462Y010233D02*
X006622Y010233D01*
X006622Y010273D02*
X006622Y010113D01*
X006720Y010153D02*
X006880Y010313D01*
X006880Y010153D01*
X006840Y010113D01*
X006760Y010113D01*
X006720Y010153D01*
X006720Y010313D01*
X006760Y010353D01*
X006840Y010353D01*
X006880Y010313D01*
X006622Y010273D02*
X006542Y010353D01*
D12*
X006998Y010199D02*
X006998Y010987D01*
X006998Y011813D02*
X009557Y011813D01*
X009557Y010987D02*
X009557Y010199D01*
X009557Y009372D02*
X006998Y009372D01*
X007591Y009168D02*
X007591Y008898D01*
X007591Y008988D02*
X007726Y008988D01*
X007771Y009033D01*
X007771Y009123D01*
X007726Y009168D01*
X007591Y009168D01*
X007681Y008988D02*
X007771Y008898D01*
X007886Y008898D02*
X008066Y008898D01*
X008180Y008943D02*
X008225Y008898D01*
X008315Y008898D01*
X008360Y008943D01*
X008360Y008988D01*
X008315Y009033D01*
X008225Y009033D01*
X008180Y009078D01*
X008180Y009123D01*
X008225Y009168D01*
X008315Y009168D01*
X008360Y009123D01*
X008475Y009168D02*
X008475Y008898D01*
X008655Y008898D01*
X008565Y009033D02*
X008475Y009033D01*
X008475Y009168D02*
X008655Y009168D01*
X008770Y009168D02*
X008950Y009168D01*
X008860Y009168D02*
X008860Y008898D01*
X008066Y009168D02*
X007886Y009168D01*
X007886Y008898D01*
X007886Y009033D02*
X007976Y009033D01*
X006003Y008948D02*
X005823Y008948D01*
X005733Y009038D01*
X005823Y009128D01*
X006003Y009128D01*
X006003Y009242D02*
X005823Y009423D01*
X005778Y009423D01*
X005733Y009378D01*
X005733Y009288D01*
X005778Y009242D01*
X005868Y009128D02*
X005868Y008948D01*
X006003Y009242D02*
X006003Y009423D01*
X006003Y009948D02*
X005823Y009948D01*
X005733Y010038D01*
X005823Y010128D01*
X006003Y010128D01*
X006003Y010242D02*
X006003Y010423D01*
X006003Y010333D02*
X005733Y010333D01*
X005823Y010242D01*
X005868Y010128D02*
X005868Y009948D01*
X005913Y008423D02*
X005868Y008378D01*
X005868Y008333D01*
X005868Y008378D02*
X005823Y008423D01*
X005778Y008423D01*
X005733Y008378D01*
X005733Y008288D01*
X005778Y008242D01*
X005823Y008128D02*
X006003Y008128D01*
X005958Y008242D02*
X006003Y008288D01*
X006003Y008378D01*
X005958Y008423D01*
X005913Y008423D01*
X005868Y008128D02*
X005868Y007948D01*
X005823Y007948D02*
X005733Y008038D01*
X005823Y008128D01*
X005823Y007948D02*
X006003Y007948D01*
X005868Y007423D02*
X005868Y007242D01*
X005733Y007378D01*
X006003Y007378D01*
X006003Y007128D02*
X005823Y007128D01*
X005733Y007038D01*
X005823Y006948D01*
X006003Y006948D01*
X005868Y006948D02*
X005868Y007128D01*
X005868Y006423D02*
X005958Y006423D01*
X006003Y006378D01*
X006003Y006288D01*
X005958Y006242D01*
X005868Y006242D02*
X005823Y006333D01*
X005823Y006378D01*
X005868Y006423D01*
X005733Y006423D02*
X005733Y006242D01*
X005868Y006242D01*
X005868Y006128D02*
X005868Y005948D01*
X005823Y005948D02*
X005733Y006038D01*
X005823Y006128D01*
X006003Y006128D01*
X006003Y005948D02*
X005823Y005948D01*
X005778Y005278D02*
X005958Y005098D01*
X006003Y005143D01*
X006003Y005233D01*
X005958Y005278D01*
X005778Y005278D01*
X005733Y005233D01*
X005733Y005143D01*
X005778Y005098D01*
X005958Y005098D01*
X006003Y004278D02*
X006003Y004098D01*
X006003Y004188D02*
X005733Y004188D01*
X005823Y004098D01*
X005823Y003278D02*
X005778Y003278D01*
X005733Y003233D01*
X005733Y003143D01*
X005778Y003098D01*
X005823Y003278D02*
X006003Y003098D01*
X006003Y003278D01*
X005958Y002278D02*
X006003Y002233D01*
X006003Y002143D01*
X005958Y002098D01*
X005868Y002188D02*
X005868Y002233D01*
X005913Y002278D01*
X005958Y002278D01*
X005868Y002233D02*
X005823Y002278D01*
X005778Y002278D01*
X005733Y002233D01*
X005733Y002143D01*
X005778Y002098D01*
X005868Y001278D02*
X005868Y001098D01*
X005733Y001233D01*
X006003Y001233D01*
X010493Y001212D02*
X010763Y001212D01*
X010763Y001393D01*
X010763Y001507D02*
X010493Y001507D01*
X010493Y001687D01*
X010628Y001597D02*
X010628Y001507D01*
X010493Y001393D02*
X010493Y001212D01*
X010538Y001098D02*
X010493Y001053D01*
X010493Y000918D01*
X010763Y000918D01*
X010673Y000918D02*
X010673Y001053D01*
X010628Y001098D01*
X010538Y001098D01*
X010628Y001212D02*
X010628Y001303D01*
X010763Y001098D02*
X010673Y001008D01*
X010718Y002108D02*
X010763Y002153D01*
X010763Y002243D01*
X010718Y002288D01*
X010628Y002288D01*
X010583Y002243D01*
X010583Y002198D01*
X010628Y002108D01*
X010493Y002108D01*
X010493Y002288D01*
X010628Y003108D02*
X010628Y003243D01*
X010673Y003288D01*
X010718Y003288D01*
X010763Y003243D01*
X010763Y003153D01*
X010718Y003108D01*
X010628Y003108D01*
X010538Y003198D01*
X010493Y003288D01*
X010493Y004108D02*
X010493Y004288D01*
X010538Y004288D01*
X010718Y004108D01*
X010763Y004108D01*
X010718Y005108D02*
X010673Y005108D01*
X010628Y005153D01*
X010628Y005243D01*
X010673Y005288D01*
X010718Y005288D01*
X010763Y005243D01*
X010763Y005153D01*
X010718Y005108D01*
X010628Y005153D02*
X010583Y005108D01*
X010538Y005108D01*
X010493Y005153D01*
X010493Y005243D01*
X010538Y005288D01*
X010583Y005288D01*
X010628Y005243D01*
X010583Y006108D02*
X010628Y006153D01*
X010628Y006288D01*
X010718Y006288D02*
X010538Y006288D01*
X010493Y006243D01*
X010493Y006153D01*
X010538Y006108D01*
X010583Y006108D01*
X010718Y006108D02*
X010763Y006153D01*
X010763Y006243D01*
X010718Y006288D01*
X010763Y006948D02*
X010763Y007128D01*
X010763Y007038D02*
X010493Y007038D01*
X010583Y006948D01*
X010538Y007242D02*
X010493Y007288D01*
X010493Y007378D01*
X010538Y007423D01*
X010718Y007242D01*
X010763Y007288D01*
X010763Y007378D01*
X010718Y007423D01*
X010538Y007423D01*
X010538Y007242D02*
X010718Y007242D01*
X010763Y007948D02*
X010763Y008128D01*
X010763Y008038D02*
X010493Y008038D01*
X010583Y007948D01*
X010583Y008242D02*
X010493Y008333D01*
X010763Y008333D01*
X010763Y008423D02*
X010763Y008242D01*
X010763Y008948D02*
X010763Y009128D01*
X010763Y009038D02*
X010493Y009038D01*
X010583Y008948D01*
X010538Y009242D02*
X010493Y009288D01*
X010493Y009378D01*
X010538Y009423D01*
X010583Y009423D01*
X010763Y009242D01*
X010763Y009423D01*
X010763Y009948D02*
X010763Y010128D01*
X010763Y010038D02*
X010493Y010038D01*
X010583Y009948D01*
X010538Y010242D02*
X010493Y010288D01*
X010493Y010378D01*
X010538Y010423D01*
X010583Y010423D01*
X010628Y010378D01*
X010673Y010423D01*
X010718Y010423D01*
X010763Y010378D01*
X010763Y010288D01*
X010718Y010242D01*
X010628Y010333D02*
X010628Y010378D01*
X011253Y013613D02*
X011253Y013738D01*
X011294Y013780D01*
X011336Y013780D01*
X011378Y013738D01*
X011378Y013613D01*
X011503Y013613D02*
X011503Y013738D01*
X011461Y013780D01*
X011419Y013780D01*
X011378Y013738D01*
X011503Y013613D02*
X011253Y013613D01*
X011253Y013889D02*
X011503Y013889D01*
X011503Y014056D01*
X011503Y014165D02*
X011253Y014165D01*
X011378Y014207D02*
X011503Y014332D01*
X011419Y014165D02*
X011253Y014332D01*
X005223Y014332D02*
X004973Y014332D01*
X004973Y014165D02*
X005223Y014332D01*
X005223Y014165D02*
X004973Y014165D01*
X005014Y014056D02*
X005098Y014056D01*
X005139Y014014D01*
X005139Y013889D01*
X005139Y013972D02*
X005223Y014056D01*
X005223Y013889D02*
X004973Y013889D01*
X004973Y014014D01*
X005014Y014056D01*
X005014Y013780D02*
X004973Y013738D01*
X004973Y013655D01*
X005014Y013613D01*
X005181Y013613D01*
X005223Y013655D01*
X005223Y013738D01*
X005181Y013780D01*
X005098Y013780D01*
X005098Y013696D01*
D13*
X006868Y008243D02*
X006868Y005623D01*
X007008Y005483D01*
X009628Y005483D01*
X009628Y008243D01*
X006868Y008243D01*
X007027Y005783D02*
X007029Y005806D01*
X007035Y005829D01*
X007044Y005850D01*
X007057Y005870D01*
X007073Y005887D01*
X007091Y005901D01*
X007111Y005912D01*
X007133Y005920D01*
X007156Y005924D01*
X007180Y005924D01*
X007203Y005920D01*
X007225Y005912D01*
X007245Y005901D01*
X007263Y005887D01*
X007279Y005870D01*
X007292Y005850D01*
X007301Y005829D01*
X007307Y005806D01*
X007309Y005783D01*
X007307Y005760D01*
X007301Y005737D01*
X007292Y005716D01*
X007279Y005696D01*
X007263Y005679D01*
X007245Y005665D01*
X007225Y005654D01*
X007203Y005646D01*
X007180Y005642D01*
X007156Y005642D01*
X007133Y005646D01*
X007111Y005654D01*
X007091Y005665D01*
X007073Y005679D01*
X007057Y005696D01*
X007044Y005716D01*
X007035Y005737D01*
X007029Y005760D01*
X007027Y005783D01*
D14*
X006469Y012123D03*
X007758Y012754D03*
X008738Y012872D03*
X009929Y012123D03*
D15*
X010127Y004689D02*
X010127Y004177D01*
X009468Y003762D02*
X009114Y003762D01*
X008709Y004177D02*
X008709Y004689D01*
X007382Y003762D02*
X007027Y003762D01*
X006752Y002778D02*
X006752Y001951D01*
X009744Y001951D02*
X009744Y002778D01*
M02*
