G75*
%MOIN*%
%OFA0B0*%
%FSLAX24Y24*%
%IPPOS*%
%LPD*%
%AMOC8*
5,1,8,0,0,1.08239X$1,22.5*
%
%ADD10C,0.0000*%
%ADD11C,0.0100*%
%ADD12C,0.0080*%
%ADD13C,0.0050*%
%ADD14C,0.0230*%
D10*
X006550Y001400D02*
X006552Y001450D01*
X006558Y001500D01*
X006568Y001549D01*
X006582Y001597D01*
X006599Y001644D01*
X006620Y001689D01*
X006645Y001733D01*
X006673Y001774D01*
X006705Y001813D01*
X006739Y001850D01*
X006776Y001884D01*
X006816Y001914D01*
X006858Y001941D01*
X006902Y001965D01*
X006948Y001986D01*
X006995Y002002D01*
X007043Y002015D01*
X007093Y002024D01*
X007142Y002029D01*
X007193Y002030D01*
X007243Y002027D01*
X007292Y002020D01*
X007341Y002009D01*
X007389Y001994D01*
X007435Y001976D01*
X007480Y001954D01*
X007523Y001928D01*
X007564Y001899D01*
X007603Y001867D01*
X007639Y001832D01*
X007671Y001794D01*
X007701Y001754D01*
X007728Y001711D01*
X007751Y001667D01*
X007770Y001621D01*
X007786Y001573D01*
X007798Y001524D01*
X007806Y001475D01*
X007810Y001425D01*
X007810Y001375D01*
X007806Y001325D01*
X007798Y001276D01*
X007786Y001227D01*
X007770Y001179D01*
X007751Y001133D01*
X007728Y001089D01*
X007701Y001046D01*
X007671Y001006D01*
X007639Y000968D01*
X007603Y000933D01*
X007564Y000901D01*
X007523Y000872D01*
X007480Y000846D01*
X007435Y000824D01*
X007389Y000806D01*
X007341Y000791D01*
X007292Y000780D01*
X007243Y000773D01*
X007193Y000770D01*
X007142Y000771D01*
X007093Y000776D01*
X007043Y000785D01*
X006995Y000798D01*
X006948Y000814D01*
X006902Y000835D01*
X006858Y000859D01*
X006816Y000886D01*
X006776Y000916D01*
X006739Y000950D01*
X006705Y000987D01*
X006673Y001026D01*
X006645Y001067D01*
X006620Y001111D01*
X006599Y001156D01*
X006582Y001203D01*
X006568Y001251D01*
X006558Y001300D01*
X006552Y001350D01*
X006550Y001400D01*
X027050Y003400D02*
X027052Y003450D01*
X027058Y003500D01*
X027068Y003549D01*
X027082Y003597D01*
X027099Y003644D01*
X027120Y003689D01*
X027145Y003733D01*
X027173Y003774D01*
X027205Y003813D01*
X027239Y003850D01*
X027276Y003884D01*
X027316Y003914D01*
X027358Y003941D01*
X027402Y003965D01*
X027448Y003986D01*
X027495Y004002D01*
X027543Y004015D01*
X027593Y004024D01*
X027642Y004029D01*
X027693Y004030D01*
X027743Y004027D01*
X027792Y004020D01*
X027841Y004009D01*
X027889Y003994D01*
X027935Y003976D01*
X027980Y003954D01*
X028023Y003928D01*
X028064Y003899D01*
X028103Y003867D01*
X028139Y003832D01*
X028171Y003794D01*
X028201Y003754D01*
X028228Y003711D01*
X028251Y003667D01*
X028270Y003621D01*
X028286Y003573D01*
X028298Y003524D01*
X028306Y003475D01*
X028310Y003425D01*
X028310Y003375D01*
X028306Y003325D01*
X028298Y003276D01*
X028286Y003227D01*
X028270Y003179D01*
X028251Y003133D01*
X028228Y003089D01*
X028201Y003046D01*
X028171Y003006D01*
X028139Y002968D01*
X028103Y002933D01*
X028064Y002901D01*
X028023Y002872D01*
X027980Y002846D01*
X027935Y002824D01*
X027889Y002806D01*
X027841Y002791D01*
X027792Y002780D01*
X027743Y002773D01*
X027693Y002770D01*
X027642Y002771D01*
X027593Y002776D01*
X027543Y002785D01*
X027495Y002798D01*
X027448Y002814D01*
X027402Y002835D01*
X027358Y002859D01*
X027316Y002886D01*
X027276Y002916D01*
X027239Y002950D01*
X027205Y002987D01*
X027173Y003026D01*
X027145Y003067D01*
X027120Y003111D01*
X027099Y003156D01*
X027082Y003203D01*
X027068Y003251D01*
X027058Y003300D01*
X027052Y003350D01*
X027050Y003400D01*
X027050Y014400D02*
X027052Y014450D01*
X027058Y014500D01*
X027068Y014549D01*
X027082Y014597D01*
X027099Y014644D01*
X027120Y014689D01*
X027145Y014733D01*
X027173Y014774D01*
X027205Y014813D01*
X027239Y014850D01*
X027276Y014884D01*
X027316Y014914D01*
X027358Y014941D01*
X027402Y014965D01*
X027448Y014986D01*
X027495Y015002D01*
X027543Y015015D01*
X027593Y015024D01*
X027642Y015029D01*
X027693Y015030D01*
X027743Y015027D01*
X027792Y015020D01*
X027841Y015009D01*
X027889Y014994D01*
X027935Y014976D01*
X027980Y014954D01*
X028023Y014928D01*
X028064Y014899D01*
X028103Y014867D01*
X028139Y014832D01*
X028171Y014794D01*
X028201Y014754D01*
X028228Y014711D01*
X028251Y014667D01*
X028270Y014621D01*
X028286Y014573D01*
X028298Y014524D01*
X028306Y014475D01*
X028310Y014425D01*
X028310Y014375D01*
X028306Y014325D01*
X028298Y014276D01*
X028286Y014227D01*
X028270Y014179D01*
X028251Y014133D01*
X028228Y014089D01*
X028201Y014046D01*
X028171Y014006D01*
X028139Y013968D01*
X028103Y013933D01*
X028064Y013901D01*
X028023Y013872D01*
X027980Y013846D01*
X027935Y013824D01*
X027889Y013806D01*
X027841Y013791D01*
X027792Y013780D01*
X027743Y013773D01*
X027693Y013770D01*
X027642Y013771D01*
X027593Y013776D01*
X027543Y013785D01*
X027495Y013798D01*
X027448Y013814D01*
X027402Y013835D01*
X027358Y013859D01*
X027316Y013886D01*
X027276Y013916D01*
X027239Y013950D01*
X027205Y013987D01*
X027173Y014026D01*
X027145Y014067D01*
X027120Y014111D01*
X027099Y014156D01*
X027082Y014203D01*
X027068Y014251D01*
X027058Y014300D01*
X027052Y014350D01*
X027050Y014400D01*
X007050Y020400D02*
X007052Y020450D01*
X007058Y020500D01*
X007068Y020549D01*
X007082Y020597D01*
X007099Y020644D01*
X007120Y020689D01*
X007145Y020733D01*
X007173Y020774D01*
X007205Y020813D01*
X007239Y020850D01*
X007276Y020884D01*
X007316Y020914D01*
X007358Y020941D01*
X007402Y020965D01*
X007448Y020986D01*
X007495Y021002D01*
X007543Y021015D01*
X007593Y021024D01*
X007642Y021029D01*
X007693Y021030D01*
X007743Y021027D01*
X007792Y021020D01*
X007841Y021009D01*
X007889Y020994D01*
X007935Y020976D01*
X007980Y020954D01*
X008023Y020928D01*
X008064Y020899D01*
X008103Y020867D01*
X008139Y020832D01*
X008171Y020794D01*
X008201Y020754D01*
X008228Y020711D01*
X008251Y020667D01*
X008270Y020621D01*
X008286Y020573D01*
X008298Y020524D01*
X008306Y020475D01*
X008310Y020425D01*
X008310Y020375D01*
X008306Y020325D01*
X008298Y020276D01*
X008286Y020227D01*
X008270Y020179D01*
X008251Y020133D01*
X008228Y020089D01*
X008201Y020046D01*
X008171Y020006D01*
X008139Y019968D01*
X008103Y019933D01*
X008064Y019901D01*
X008023Y019872D01*
X007980Y019846D01*
X007935Y019824D01*
X007889Y019806D01*
X007841Y019791D01*
X007792Y019780D01*
X007743Y019773D01*
X007693Y019770D01*
X007642Y019771D01*
X007593Y019776D01*
X007543Y019785D01*
X007495Y019798D01*
X007448Y019814D01*
X007402Y019835D01*
X007358Y019859D01*
X007316Y019886D01*
X007276Y019916D01*
X007239Y019950D01*
X007205Y019987D01*
X007173Y020026D01*
X007145Y020067D01*
X007120Y020111D01*
X007099Y020156D01*
X007082Y020203D01*
X007068Y020251D01*
X007058Y020300D01*
X007052Y020350D01*
X007050Y020400D01*
D11*
X001680Y021006D02*
X001680Y000794D01*
X001682Y000755D01*
X001688Y000717D01*
X001697Y000680D01*
X001710Y000643D01*
X001727Y000608D01*
X001746Y000575D01*
X001769Y000544D01*
X001795Y000515D01*
X001824Y000489D01*
X001855Y000466D01*
X001888Y000447D01*
X001923Y000430D01*
X001960Y000417D01*
X001997Y000408D01*
X002035Y000402D01*
X002074Y000400D01*
X027680Y000400D01*
X028829Y001549D01*
X037704Y001549D01*
X037704Y001548D02*
X037743Y001550D01*
X037781Y001556D01*
X037818Y001565D01*
X037855Y001578D01*
X037890Y001595D01*
X037923Y001614D01*
X037954Y001637D01*
X037983Y001663D01*
X038009Y001692D01*
X038032Y001723D01*
X038051Y001756D01*
X038068Y001791D01*
X038081Y001828D01*
X038090Y001865D01*
X038096Y001903D01*
X038098Y001942D01*
X038097Y001942D02*
X038097Y015636D01*
X038098Y015636D02*
X038096Y015675D01*
X038090Y015713D01*
X038081Y015750D01*
X038068Y015787D01*
X038051Y015822D01*
X038032Y015855D01*
X038009Y015886D01*
X037983Y015915D01*
X037954Y015941D01*
X037923Y015964D01*
X037890Y015983D01*
X037855Y016000D01*
X037818Y016013D01*
X037781Y016022D01*
X037743Y016028D01*
X037704Y016030D01*
X028829Y016030D01*
X027680Y017179D01*
X027680Y020800D01*
X027080Y021400D01*
X002074Y021400D01*
X002035Y021398D01*
X001997Y021392D01*
X001960Y021383D01*
X001923Y021370D01*
X001888Y021353D01*
X001855Y021334D01*
X001824Y021311D01*
X001795Y021285D01*
X001769Y021256D01*
X001746Y021225D01*
X001727Y021192D01*
X001710Y021157D01*
X001697Y021120D01*
X001688Y021083D01*
X001682Y021045D01*
X001680Y021006D01*
X009044Y010619D02*
X009044Y010369D01*
X008544Y010369D01*
X008544Y009869D01*
X009544Y009869D01*
X009544Y010369D01*
X009044Y010369D01*
X009544Y009869D02*
X009544Y007869D01*
X009044Y007869D01*
X009044Y007619D01*
X009044Y007869D02*
X008544Y007869D01*
X008544Y009869D01*
X003434Y008870D02*
X003060Y008870D01*
X003247Y009057D02*
X003247Y008683D01*
X003280Y006096D02*
X003280Y005722D01*
D12*
X003522Y006388D02*
X003022Y006388D01*
X002772Y006638D01*
X002772Y007138D01*
X003022Y007388D01*
X002772Y007638D01*
X002772Y008138D01*
X003022Y008388D01*
X003522Y008388D01*
X003772Y008138D01*
X003772Y007638D01*
X003522Y007388D01*
X003772Y007138D01*
X003772Y006638D01*
X003522Y006388D01*
X004270Y006872D02*
X004690Y006872D01*
X004690Y007153D02*
X004270Y006872D01*
X004270Y007153D02*
X004690Y007153D01*
X004690Y007319D02*
X004690Y007460D01*
X004690Y007390D02*
X004270Y007390D01*
X004270Y007460D02*
X004270Y007319D01*
X004410Y007640D02*
X004690Y007640D01*
X004410Y007640D02*
X004270Y007780D01*
X004410Y007920D01*
X004690Y007920D01*
X006930Y007900D02*
X006930Y009900D01*
X007930Y009900D01*
X007930Y007900D01*
X006930Y007900D01*
X007180Y008900D02*
X007680Y008900D01*
X005622Y011980D02*
X003042Y011980D01*
X003042Y013380D01*
X005622Y013380D01*
X005622Y011980D01*
X005970Y017060D02*
X005970Y017560D01*
X005190Y017810D02*
X005192Y017881D01*
X005198Y017952D01*
X005208Y018023D01*
X005222Y018092D01*
X005239Y018161D01*
X005261Y018229D01*
X005286Y018296D01*
X005315Y018361D01*
X005347Y018424D01*
X005383Y018486D01*
X005422Y018545D01*
X005465Y018602D01*
X005510Y018657D01*
X005559Y018709D01*
X005610Y018758D01*
X005664Y018804D01*
X005721Y018848D01*
X005779Y018888D01*
X005840Y018924D01*
X005903Y018958D01*
X005968Y018987D01*
X006034Y019013D01*
X006102Y019036D01*
X006170Y019054D01*
X006240Y019069D01*
X006310Y019080D01*
X006381Y019087D01*
X006452Y019090D01*
X006523Y019089D01*
X006594Y019084D01*
X006665Y019075D01*
X006735Y019062D01*
X006804Y019046D01*
X006872Y019025D01*
X006939Y019001D01*
X007005Y018973D01*
X007068Y018941D01*
X007130Y018906D01*
X007190Y018868D01*
X007248Y018826D01*
X007303Y018782D01*
X007356Y018734D01*
X007406Y018683D01*
X007453Y018630D01*
X007497Y018574D01*
X007538Y018516D01*
X007576Y018455D01*
X007610Y018393D01*
X007640Y018328D01*
X007667Y018263D01*
X007691Y018195D01*
X007710Y018127D01*
X007726Y018058D01*
X007738Y017987D01*
X007746Y017917D01*
X007750Y017846D01*
X007750Y017774D01*
X007746Y017703D01*
X007738Y017633D01*
X007726Y017562D01*
X007710Y017493D01*
X007691Y017425D01*
X007667Y017357D01*
X007640Y017292D01*
X007610Y017227D01*
X007576Y017165D01*
X007538Y017104D01*
X007497Y017046D01*
X007453Y016990D01*
X007406Y016937D01*
X007356Y016886D01*
X007303Y016838D01*
X007248Y016794D01*
X007190Y016752D01*
X007130Y016714D01*
X007068Y016679D01*
X007005Y016647D01*
X006939Y016619D01*
X006872Y016595D01*
X006804Y016574D01*
X006735Y016558D01*
X006665Y016545D01*
X006594Y016536D01*
X006523Y016531D01*
X006452Y016530D01*
X006381Y016533D01*
X006310Y016540D01*
X006240Y016551D01*
X006170Y016566D01*
X006102Y016584D01*
X006034Y016607D01*
X005968Y016633D01*
X005903Y016662D01*
X005840Y016696D01*
X005779Y016732D01*
X005721Y016772D01*
X005664Y016816D01*
X005610Y016862D01*
X005559Y016911D01*
X005510Y016963D01*
X005465Y017018D01*
X005422Y017075D01*
X005383Y017134D01*
X005347Y017196D01*
X005315Y017259D01*
X005286Y017324D01*
X005261Y017391D01*
X005239Y017459D01*
X005222Y017528D01*
X005208Y017597D01*
X005198Y017668D01*
X005192Y017739D01*
X005190Y017810D01*
X001930Y017810D02*
X001932Y017881D01*
X001938Y017952D01*
X001948Y018023D01*
X001962Y018092D01*
X001979Y018161D01*
X002001Y018229D01*
X002026Y018296D01*
X002055Y018361D01*
X002087Y018424D01*
X002123Y018486D01*
X002162Y018545D01*
X002205Y018602D01*
X002250Y018657D01*
X002299Y018709D01*
X002350Y018758D01*
X002404Y018804D01*
X002461Y018848D01*
X002519Y018888D01*
X002580Y018924D01*
X002643Y018958D01*
X002708Y018987D01*
X002774Y019013D01*
X002842Y019036D01*
X002910Y019054D01*
X002980Y019069D01*
X003050Y019080D01*
X003121Y019087D01*
X003192Y019090D01*
X003263Y019089D01*
X003334Y019084D01*
X003405Y019075D01*
X003475Y019062D01*
X003544Y019046D01*
X003612Y019025D01*
X003679Y019001D01*
X003745Y018973D01*
X003808Y018941D01*
X003870Y018906D01*
X003930Y018868D01*
X003988Y018826D01*
X004043Y018782D01*
X004096Y018734D01*
X004146Y018683D01*
X004193Y018630D01*
X004237Y018574D01*
X004278Y018516D01*
X004316Y018455D01*
X004350Y018393D01*
X004380Y018328D01*
X004407Y018263D01*
X004431Y018195D01*
X004450Y018127D01*
X004466Y018058D01*
X004478Y017987D01*
X004486Y017917D01*
X004490Y017846D01*
X004490Y017774D01*
X004486Y017703D01*
X004478Y017633D01*
X004466Y017562D01*
X004450Y017493D01*
X004431Y017425D01*
X004407Y017357D01*
X004380Y017292D01*
X004350Y017227D01*
X004316Y017165D01*
X004278Y017104D01*
X004237Y017046D01*
X004193Y016990D01*
X004146Y016937D01*
X004096Y016886D01*
X004043Y016838D01*
X003988Y016794D01*
X003930Y016752D01*
X003870Y016714D01*
X003808Y016679D01*
X003745Y016647D01*
X003679Y016619D01*
X003612Y016595D01*
X003544Y016574D01*
X003475Y016558D01*
X003405Y016545D01*
X003334Y016536D01*
X003263Y016531D01*
X003192Y016530D01*
X003121Y016533D01*
X003050Y016540D01*
X002980Y016551D01*
X002910Y016566D01*
X002842Y016584D01*
X002774Y016607D01*
X002708Y016633D01*
X002643Y016662D01*
X002580Y016696D01*
X002519Y016732D01*
X002461Y016772D01*
X002404Y016816D01*
X002350Y016862D01*
X002299Y016911D01*
X002250Y016963D01*
X002205Y017018D01*
X002162Y017075D01*
X002123Y017134D01*
X002087Y017196D01*
X002055Y017259D01*
X002026Y017324D01*
X002001Y017391D01*
X001979Y017459D01*
X001962Y017528D01*
X001948Y017597D01*
X001938Y017668D01*
X001932Y017739D01*
X001930Y017810D01*
X002710Y017560D02*
X002710Y017060D01*
X008580Y020150D02*
X008580Y020650D01*
X009290Y019311D02*
X009290Y019031D01*
X008870Y019031D01*
X008940Y018851D02*
X008870Y018781D01*
X008870Y018640D01*
X008940Y018570D01*
X009220Y018570D01*
X009290Y018640D01*
X009290Y018781D01*
X009220Y018851D01*
X009220Y018390D02*
X009290Y018320D01*
X009290Y018180D01*
X009220Y018110D01*
X009080Y018180D02*
X009080Y018320D01*
X009150Y018390D01*
X009220Y018390D01*
X009080Y018180D02*
X009010Y018110D01*
X008940Y018110D01*
X008870Y018180D01*
X008870Y018320D01*
X008940Y018390D01*
X009870Y018320D02*
X009870Y018180D01*
X009940Y018110D01*
X010010Y018110D01*
X010080Y018180D01*
X010080Y018320D01*
X010150Y018390D01*
X010220Y018390D01*
X010290Y018320D01*
X010290Y018180D01*
X010220Y018110D01*
X009940Y018390D02*
X009870Y018320D01*
X009870Y018570D02*
X009870Y018781D01*
X009940Y018851D01*
X010220Y018851D01*
X010290Y018781D01*
X010290Y018570D01*
X009870Y018570D01*
X010010Y019031D02*
X009870Y019171D01*
X010010Y019311D01*
X010290Y019311D01*
X010080Y019311D02*
X010080Y019031D01*
X010010Y019031D02*
X010290Y019031D01*
X010870Y019031D02*
X010870Y019311D01*
X011080Y019171D02*
X011080Y019031D01*
X011290Y019031D02*
X010870Y019031D01*
X010870Y018851D02*
X010870Y018571D01*
X011290Y018571D01*
X011290Y018851D01*
X011080Y018711D02*
X011080Y018571D01*
X011080Y018391D02*
X010940Y018391D01*
X010870Y018321D01*
X010870Y018110D01*
X011290Y018110D01*
X011150Y018110D02*
X011150Y018321D01*
X011080Y018391D01*
X011150Y018251D02*
X011290Y018391D01*
X011290Y017930D02*
X011010Y017930D01*
X010870Y017790D01*
X011010Y017650D01*
X011290Y017650D01*
X011080Y017650D02*
X011080Y017930D01*
X011870Y018180D02*
X011870Y018320D01*
X011940Y018390D01*
X012080Y018390D02*
X012080Y018250D01*
X012080Y018390D02*
X012220Y018390D01*
X012290Y018320D01*
X012290Y018180D01*
X012220Y018110D01*
X011940Y018110D01*
X011870Y018180D01*
X011870Y018570D02*
X012290Y018851D01*
X011870Y018851D01*
X011870Y019031D02*
X011870Y019241D01*
X011940Y019311D01*
X012220Y019311D01*
X012290Y019241D01*
X012290Y019031D01*
X011870Y019031D01*
X011870Y018570D02*
X012290Y018570D01*
X012870Y018710D02*
X013290Y018710D01*
X013290Y018570D02*
X013290Y018850D01*
X013220Y019030D02*
X013290Y019100D01*
X013290Y019241D01*
X013220Y019311D01*
X013150Y019311D01*
X013080Y019241D01*
X013080Y019171D01*
X013080Y019241D02*
X013010Y019311D01*
X012940Y019311D01*
X012870Y019241D01*
X012870Y019100D01*
X012940Y019030D01*
X012870Y018710D02*
X013010Y018570D01*
X013870Y018710D02*
X014010Y018570D01*
X013870Y018710D02*
X014290Y018710D01*
X014290Y018570D02*
X014290Y018850D01*
X014290Y019030D02*
X014010Y019311D01*
X013940Y019311D01*
X013870Y019241D01*
X013870Y019100D01*
X013940Y019030D01*
X014290Y019030D02*
X014290Y019311D01*
X014870Y019171D02*
X015290Y019171D01*
X015290Y019311D02*
X015290Y019030D01*
X015290Y018850D02*
X015290Y018570D01*
X015290Y018710D02*
X014870Y018710D01*
X015010Y018570D01*
X015010Y019030D02*
X014870Y019171D01*
X015870Y019241D02*
X015940Y019311D01*
X016220Y019030D01*
X016290Y019100D01*
X016290Y019241D01*
X016220Y019311D01*
X015940Y019311D01*
X015870Y019241D02*
X015870Y019100D01*
X015940Y019030D01*
X016220Y019030D01*
X016290Y018850D02*
X016290Y018570D01*
X016290Y018710D02*
X015870Y018710D01*
X016010Y018570D01*
X016870Y019100D02*
X016940Y019030D01*
X017010Y019030D01*
X017080Y019100D01*
X017080Y019310D01*
X017220Y019310D02*
X016940Y019310D01*
X016870Y019240D01*
X016870Y019100D01*
X017220Y019030D02*
X017290Y019100D01*
X017290Y019240D01*
X017220Y019310D01*
X017870Y019240D02*
X017940Y019310D01*
X018010Y019310D01*
X018080Y019240D01*
X018080Y019100D01*
X018010Y019030D01*
X017940Y019030D01*
X017870Y019100D01*
X017870Y019240D01*
X018080Y019240D02*
X018150Y019310D01*
X018220Y019310D01*
X018290Y019240D01*
X018290Y019100D01*
X018220Y019030D01*
X018150Y019030D01*
X018080Y019100D01*
X019470Y019030D02*
X019470Y019310D01*
X019540Y019310D01*
X019820Y019030D01*
X019890Y019030D01*
X020470Y019310D02*
X020540Y019170D01*
X020680Y019030D01*
X020680Y019240D01*
X020750Y019310D01*
X020820Y019310D01*
X020890Y019240D01*
X020890Y019100D01*
X020820Y019030D01*
X020680Y019030D01*
X021470Y019030D02*
X021680Y019030D01*
X021610Y019170D01*
X021610Y019240D01*
X021680Y019310D01*
X021820Y019310D01*
X021890Y019240D01*
X021890Y019100D01*
X021820Y019030D01*
X021470Y019030D02*
X021470Y019310D01*
X022470Y019240D02*
X022680Y019030D01*
X022680Y019310D01*
X022890Y019240D02*
X022470Y019240D01*
X023470Y019240D02*
X023540Y019310D01*
X023610Y019310D01*
X023680Y019240D01*
X023750Y019310D01*
X023820Y019310D01*
X023890Y019240D01*
X023890Y019100D01*
X023820Y019030D01*
X023680Y019170D02*
X023680Y019240D01*
X023470Y019240D02*
X023470Y019100D01*
X023540Y019030D01*
X024470Y019100D02*
X024540Y019030D01*
X024470Y019100D02*
X024470Y019240D01*
X024540Y019310D01*
X024610Y019310D01*
X024890Y019030D01*
X024890Y019310D01*
X025470Y019170D02*
X025890Y019170D01*
X025890Y019030D02*
X025890Y019310D01*
X025610Y019030D02*
X025470Y019170D01*
X026470Y019100D02*
X026540Y019030D01*
X026820Y019030D01*
X026540Y019310D01*
X026820Y019310D01*
X026890Y019240D01*
X026890Y019100D01*
X026820Y019030D01*
X026470Y019100D02*
X026470Y019240D01*
X026540Y019310D01*
X027180Y020150D02*
X027180Y020650D01*
X019180Y020650D02*
X019180Y020150D01*
X018580Y020150D02*
X018580Y020650D01*
X030799Y015410D02*
X030799Y014990D01*
X030799Y015130D02*
X031009Y015130D01*
X031079Y015200D01*
X031079Y015340D01*
X031009Y015410D01*
X030799Y015410D01*
X030939Y015130D02*
X031079Y014990D01*
X031259Y014990D02*
X031539Y014990D01*
X031720Y014990D02*
X031720Y015410D01*
X032000Y015410D01*
X031860Y015200D02*
X031720Y015200D01*
X031539Y015410D02*
X031259Y015410D01*
X031259Y014990D01*
X031259Y015200D02*
X031399Y015200D01*
X032759Y015060D02*
X032829Y014990D01*
X032969Y014990D01*
X033039Y015060D01*
X033039Y015410D01*
X033219Y015340D02*
X033219Y015270D01*
X033289Y015200D01*
X033429Y015200D01*
X033499Y015130D01*
X033499Y015060D01*
X033429Y014990D01*
X033289Y014990D01*
X033219Y015060D01*
X032759Y015060D02*
X032759Y015410D01*
X033219Y015340D02*
X033289Y015410D01*
X033429Y015410D01*
X033499Y015340D01*
X033680Y015410D02*
X033890Y015410D01*
X033960Y015340D01*
X033960Y015270D01*
X033890Y015200D01*
X033680Y015200D01*
X033890Y015200D02*
X033960Y015130D01*
X033960Y015060D01*
X033890Y014990D01*
X033680Y014990D01*
X033680Y015410D01*
X035470Y015200D02*
X035750Y015200D01*
X035680Y014990D02*
X035680Y015410D01*
X035470Y015200D01*
X035540Y014410D02*
X035680Y014410D01*
X035750Y014340D01*
X035750Y014270D01*
X035680Y014200D01*
X035750Y014130D01*
X035750Y014060D01*
X035680Y013990D01*
X035540Y013990D01*
X035470Y014060D01*
X035610Y014200D02*
X035680Y014200D01*
X035470Y014340D02*
X035540Y014410D01*
X035540Y013410D02*
X035470Y013340D01*
X035540Y013410D02*
X035680Y013410D01*
X035750Y013340D01*
X035750Y013270D01*
X035470Y012990D01*
X035750Y012990D01*
X035610Y012410D02*
X035610Y011990D01*
X035470Y011990D02*
X035750Y011990D01*
X035470Y012270D02*
X035610Y012410D01*
X035680Y011410D02*
X035750Y011340D01*
X035470Y011060D01*
X035540Y010990D01*
X035680Y010990D01*
X035750Y011060D01*
X035750Y011340D01*
X035680Y011410D02*
X035540Y011410D01*
X035470Y011340D01*
X035470Y011060D01*
X035470Y010410D02*
X035470Y010200D01*
X035610Y010270D01*
X035680Y010270D01*
X035750Y010200D01*
X035750Y010060D01*
X035680Y009990D01*
X035540Y009990D01*
X035470Y010060D01*
X035289Y009990D02*
X035289Y010270D01*
X035149Y010410D01*
X035009Y010270D01*
X035009Y009990D01*
X035009Y010200D02*
X035289Y010200D01*
X035470Y010410D02*
X035750Y010410D01*
X035680Y009410D02*
X035470Y009200D01*
X035750Y009200D01*
X035680Y008990D02*
X035680Y009410D01*
X035289Y009270D02*
X035289Y008990D01*
X035289Y009200D02*
X035009Y009200D01*
X035009Y009270D02*
X035149Y009410D01*
X035289Y009270D01*
X035009Y009270D02*
X035009Y008990D01*
X035149Y008410D02*
X035289Y008270D01*
X035289Y007990D01*
X035470Y008060D02*
X035540Y007990D01*
X035680Y007990D01*
X035750Y008060D01*
X035750Y008130D01*
X035680Y008200D01*
X035610Y008200D01*
X035680Y008200D02*
X035750Y008270D01*
X035750Y008340D01*
X035680Y008410D01*
X035540Y008410D01*
X035470Y008340D01*
X035289Y008200D02*
X035009Y008200D01*
X035009Y008270D02*
X035009Y007990D01*
X035009Y008270D02*
X035149Y008410D01*
X035149Y007410D02*
X035289Y007270D01*
X035289Y006990D01*
X035470Y006990D02*
X035750Y007270D01*
X035750Y007340D01*
X035680Y007410D01*
X035540Y007410D01*
X035470Y007340D01*
X035289Y007200D02*
X035009Y007200D01*
X035009Y007270D02*
X035149Y007410D01*
X035009Y007270D02*
X035009Y006990D01*
X035470Y006990D02*
X035750Y006990D01*
X035610Y006410D02*
X035610Y005990D01*
X035470Y005990D02*
X035750Y005990D01*
X035289Y005990D02*
X035289Y006270D01*
X035149Y006410D01*
X035009Y006270D01*
X035009Y005990D01*
X035009Y006200D02*
X035289Y006200D01*
X035470Y006270D02*
X035610Y006410D01*
X035680Y005410D02*
X035750Y005340D01*
X035470Y005060D01*
X035540Y004990D01*
X035680Y004990D01*
X035750Y005060D01*
X035750Y005340D01*
X035680Y005410D02*
X035540Y005410D01*
X035470Y005340D01*
X035470Y005060D01*
X035289Y004990D02*
X035289Y005270D01*
X035149Y005410D01*
X035009Y005270D01*
X035009Y004990D01*
X035009Y005200D02*
X035289Y005200D01*
X035289Y004410D02*
X035289Y003990D01*
X035009Y004410D01*
X035009Y003990D01*
X034829Y004060D02*
X034829Y004200D01*
X034689Y004200D01*
X034829Y004060D02*
X034759Y003990D01*
X034619Y003990D01*
X034549Y004060D01*
X034549Y004340D01*
X034619Y004410D01*
X034759Y004410D01*
X034829Y004340D01*
X035470Y004410D02*
X035470Y003990D01*
X035680Y003990D01*
X035750Y004060D01*
X035750Y004340D01*
X035680Y004410D01*
X035470Y004410D01*
X035470Y003410D02*
X035750Y002990D01*
X035750Y003410D01*
X035470Y003410D02*
X035470Y002990D01*
X035303Y002990D02*
X035163Y002990D01*
X035233Y002990D02*
X035233Y003410D01*
X035163Y003410D02*
X035303Y003410D01*
X034983Y003410D02*
X034983Y003130D01*
X034842Y002990D01*
X034702Y003130D01*
X034702Y003410D01*
X032000Y004060D02*
X031930Y003990D01*
X031720Y003990D01*
X031720Y004410D01*
X031930Y004410D01*
X032000Y004340D01*
X032000Y004060D01*
X031539Y003990D02*
X031539Y004410D01*
X031259Y004410D02*
X031539Y003990D01*
X031259Y003990D02*
X031259Y004410D01*
X031079Y004340D02*
X031009Y004410D01*
X030869Y004410D01*
X030799Y004340D01*
X030799Y004060D01*
X030869Y003990D01*
X031009Y003990D01*
X031079Y004060D01*
X031079Y004200D01*
X030939Y004200D01*
X031069Y003410D02*
X030789Y003410D01*
X030789Y003200D01*
X030929Y003270D01*
X030999Y003270D01*
X031069Y003200D01*
X031069Y003060D01*
X030999Y002990D01*
X030859Y002990D01*
X030789Y003060D01*
X031250Y003130D02*
X031390Y002990D01*
X031530Y003130D01*
X031530Y003410D01*
X031250Y003410D02*
X031250Y003130D01*
X031329Y004990D02*
X031259Y005060D01*
X031329Y004990D02*
X031469Y004990D01*
X031539Y005060D01*
X031539Y005130D01*
X031469Y005200D01*
X031329Y005200D01*
X031259Y005270D01*
X031259Y005340D01*
X031329Y005410D01*
X031469Y005410D01*
X031539Y005340D01*
X031720Y005410D02*
X032000Y005410D01*
X031860Y005410D02*
X031860Y004990D01*
X031079Y004990D02*
X030939Y005130D01*
X031009Y005130D02*
X030799Y005130D01*
X030799Y004990D02*
X030799Y005410D01*
X031009Y005410D01*
X031079Y005340D01*
X031079Y005200D01*
X031009Y005130D01*
X031039Y005990D02*
X030759Y005990D01*
X030899Y005990D02*
X030899Y006410D01*
X030759Y006270D01*
X031220Y006340D02*
X031290Y006410D01*
X031430Y006410D01*
X031500Y006340D01*
X031500Y006270D01*
X031430Y006200D01*
X031500Y006130D01*
X031500Y006060D01*
X031430Y005990D01*
X031290Y005990D01*
X031220Y006060D01*
X031360Y006200D02*
X031430Y006200D01*
X031500Y006990D02*
X031220Y006990D01*
X031500Y007270D01*
X031500Y007340D01*
X031430Y007410D01*
X031290Y007410D01*
X031220Y007340D01*
X030899Y007410D02*
X030759Y007270D01*
X030899Y007410D02*
X030899Y006990D01*
X030759Y006990D02*
X031039Y006990D01*
X031039Y007990D02*
X030759Y007990D01*
X030899Y007990D02*
X030899Y008410D01*
X030759Y008270D01*
X031220Y008270D02*
X031360Y008410D01*
X031360Y007990D01*
X031220Y007990D02*
X031500Y007990D01*
X031430Y008990D02*
X031290Y008990D01*
X031220Y009060D01*
X031500Y009340D01*
X031500Y009060D01*
X031430Y008990D01*
X031220Y009060D02*
X031220Y009340D01*
X031290Y009410D01*
X031430Y009410D01*
X031500Y009340D01*
X031039Y008990D02*
X030759Y008990D01*
X030899Y008990D02*
X030899Y009410D01*
X030759Y009270D01*
X030890Y009990D02*
X031030Y009990D01*
X031100Y010060D01*
X031100Y010340D01*
X031030Y010410D01*
X030890Y010410D01*
X030820Y010340D01*
X030820Y010270D01*
X030890Y010200D01*
X031100Y010200D01*
X030890Y009990D02*
X030820Y010060D01*
X030890Y010990D02*
X030820Y011060D01*
X030820Y011130D01*
X030890Y011200D01*
X031030Y011200D01*
X031100Y011130D01*
X031100Y011060D01*
X031030Y010990D01*
X030890Y010990D01*
X030890Y011200D02*
X030820Y011270D01*
X030820Y011340D01*
X030890Y011410D01*
X031030Y011410D01*
X031100Y011340D01*
X031100Y011270D01*
X031030Y011200D01*
X030820Y011990D02*
X030820Y012060D01*
X031100Y012340D01*
X031100Y012410D01*
X030820Y012410D01*
X030890Y012990D02*
X031030Y012990D01*
X031100Y013060D01*
X031100Y013130D01*
X031030Y013200D01*
X030820Y013200D01*
X030820Y013060D01*
X030890Y012990D01*
X030820Y013200D02*
X030960Y013340D01*
X031100Y013410D01*
X031030Y013990D02*
X030890Y013990D01*
X030820Y014060D01*
X030820Y014200D02*
X030960Y014270D01*
X031030Y014270D01*
X031100Y014200D01*
X031100Y014060D01*
X031030Y013990D01*
X030820Y014200D02*
X030820Y014410D01*
X031100Y014410D01*
X014890Y004472D02*
X014470Y004472D01*
X014470Y004332D02*
X014470Y004612D01*
X014470Y004151D02*
X014470Y003871D01*
X014890Y003871D01*
X014890Y004151D01*
X014680Y004011D02*
X014680Y003871D01*
X014750Y003691D02*
X014820Y003691D01*
X014890Y003621D01*
X014890Y003481D01*
X014820Y003411D01*
X014680Y003481D02*
X014680Y003621D01*
X014750Y003691D01*
X014540Y003691D02*
X014470Y003621D01*
X014470Y003481D01*
X014540Y003411D01*
X014610Y003411D01*
X014680Y003481D01*
X014890Y003231D02*
X014890Y002950D01*
X014470Y002950D01*
X014470Y003231D01*
X014680Y003091D02*
X014680Y002950D01*
X014680Y002770D02*
X014750Y002700D01*
X014750Y002490D01*
X014890Y002490D02*
X014470Y002490D01*
X014470Y002700D01*
X014540Y002770D01*
X014680Y002770D01*
X014750Y002630D02*
X014890Y002770D01*
X015470Y002700D02*
X015470Y002560D01*
X015540Y002490D01*
X015680Y002630D02*
X015680Y002700D01*
X015750Y002770D01*
X015820Y002770D01*
X015890Y002700D01*
X015890Y002560D01*
X015820Y002490D01*
X015680Y002700D02*
X015610Y002770D01*
X015540Y002770D01*
X015470Y002700D01*
X015820Y002950D02*
X015820Y003020D01*
X015890Y003020D01*
X015890Y002950D01*
X015820Y002950D01*
X015820Y003181D02*
X015890Y003251D01*
X015890Y003391D01*
X015820Y003461D01*
X015750Y003461D01*
X015680Y003391D01*
X015680Y003321D01*
X015680Y003391D02*
X015610Y003461D01*
X015540Y003461D01*
X015470Y003391D01*
X015470Y003251D01*
X015540Y003181D01*
X015470Y003641D02*
X015750Y003641D01*
X015890Y003781D01*
X015750Y003921D01*
X015470Y003921D01*
X016470Y003921D02*
X016750Y003921D01*
X016890Y003781D01*
X016750Y003641D01*
X016470Y003641D01*
X016540Y003461D02*
X016820Y003181D01*
X016890Y003251D01*
X016890Y003391D01*
X016820Y003461D01*
X016540Y003461D01*
X016470Y003391D01*
X016470Y003251D01*
X016540Y003181D01*
X016820Y003181D01*
X016820Y003020D02*
X016890Y003020D01*
X016890Y002950D01*
X016820Y002950D01*
X016820Y003020D01*
X016820Y002770D02*
X016890Y002700D01*
X016890Y002560D01*
X016820Y002490D01*
X016680Y002490D02*
X016610Y002630D01*
X016610Y002700D01*
X016680Y002770D01*
X016820Y002770D01*
X016680Y002490D02*
X016470Y002490D01*
X016470Y002770D01*
X017470Y002700D02*
X017470Y002560D01*
X017540Y002490D01*
X017820Y002490D01*
X017890Y002560D01*
X017890Y002700D01*
X017820Y002770D01*
X017680Y002770D01*
X017680Y002630D01*
X017540Y002770D02*
X017470Y002700D01*
X017470Y002950D02*
X017890Y003231D01*
X017470Y003231D01*
X017470Y003411D02*
X017470Y003621D01*
X017540Y003691D01*
X017820Y003691D01*
X017890Y003621D01*
X017890Y003411D01*
X017470Y003411D01*
X017470Y002950D02*
X017890Y002950D01*
X018470Y002950D02*
X018890Y003231D01*
X018470Y003231D01*
X018470Y003411D02*
X018470Y003621D01*
X018540Y003691D01*
X018820Y003691D01*
X018890Y003621D01*
X018890Y003411D01*
X018470Y003411D01*
X018470Y002950D02*
X018890Y002950D01*
X018820Y002770D02*
X018680Y002770D01*
X018680Y002630D01*
X018820Y002490D02*
X018890Y002560D01*
X018890Y002700D01*
X018820Y002770D01*
X018820Y002490D02*
X018540Y002490D01*
X018470Y002560D01*
X018470Y002700D01*
X018540Y002770D01*
X019470Y002770D02*
X019750Y002770D01*
X019890Y002630D01*
X019750Y002490D01*
X019470Y002490D01*
X019470Y002950D02*
X019470Y003091D01*
X019470Y003020D02*
X019890Y003020D01*
X019890Y002950D02*
X019890Y003091D01*
X019890Y003257D02*
X019470Y003257D01*
X019890Y003538D01*
X019470Y003538D01*
X021450Y003161D02*
X021450Y003020D01*
X021520Y002950D01*
X021800Y002950D01*
X021520Y003231D01*
X021800Y003231D01*
X021870Y003161D01*
X021870Y003020D01*
X021800Y002950D01*
X021870Y002770D02*
X021590Y002770D01*
X021450Y002630D01*
X021590Y002490D01*
X021870Y002490D01*
X021660Y002490D02*
X021660Y002770D01*
X021450Y003161D02*
X021520Y003231D01*
X022470Y003091D02*
X022890Y003091D01*
X022890Y003231D02*
X022890Y002950D01*
X022890Y002770D02*
X022610Y002770D01*
X022470Y002630D01*
X022610Y002490D01*
X022890Y002490D01*
X022680Y002490D02*
X022680Y002770D01*
X022610Y002950D02*
X022470Y003091D01*
X023470Y003161D02*
X023470Y003020D01*
X023540Y002950D01*
X023610Y002770D02*
X023890Y002770D01*
X023890Y002950D02*
X023610Y003231D01*
X023540Y003231D01*
X023470Y003161D01*
X023890Y003231D02*
X023890Y002950D01*
X023680Y002770D02*
X023680Y002490D01*
X023610Y002490D02*
X023470Y002630D01*
X023610Y002770D01*
X023610Y002490D02*
X023890Y002490D01*
X024470Y002630D02*
X024610Y002770D01*
X024890Y002770D01*
X024820Y002950D02*
X024890Y003020D01*
X024890Y003161D01*
X024820Y003231D01*
X024750Y003231D01*
X024680Y003161D01*
X024680Y003091D01*
X024680Y003161D02*
X024610Y003231D01*
X024540Y003231D01*
X024470Y003161D01*
X024470Y003020D01*
X024540Y002950D01*
X024680Y002770D02*
X024680Y002490D01*
X024610Y002490D02*
X024470Y002630D01*
X024610Y002490D02*
X024890Y002490D01*
X025470Y002630D02*
X025610Y002770D01*
X025890Y002770D01*
X025680Y002770D02*
X025680Y002490D01*
X025610Y002490D02*
X025470Y002630D01*
X025610Y002490D02*
X025890Y002490D01*
X026470Y002630D02*
X026610Y002770D01*
X026890Y002770D01*
X026820Y002950D02*
X026890Y003020D01*
X026890Y003161D01*
X026820Y003231D01*
X026680Y003231D01*
X026610Y003161D01*
X026610Y003091D01*
X026680Y002950D01*
X026470Y002950D01*
X026470Y003231D01*
X025890Y003161D02*
X025470Y003161D01*
X025680Y002950D01*
X025680Y003231D01*
X026470Y002630D02*
X026610Y002490D01*
X026890Y002490D01*
X026680Y002490D02*
X026680Y002770D01*
X027180Y001650D02*
X027180Y001150D01*
X021180Y001150D02*
X021180Y001650D01*
X020180Y001650D02*
X020180Y001150D01*
X013890Y002560D02*
X013820Y002490D01*
X013890Y002560D02*
X013890Y002700D01*
X013820Y002770D01*
X013680Y002770D01*
X013610Y002700D01*
X013610Y002630D01*
X013680Y002490D01*
X013470Y002490D01*
X013470Y002770D01*
X013820Y002950D02*
X013820Y003020D01*
X013890Y003020D01*
X013890Y002950D01*
X013820Y002950D01*
X013820Y003181D02*
X013540Y003181D01*
X013470Y003251D01*
X013470Y003391D01*
X013540Y003461D01*
X013820Y003181D01*
X013890Y003251D01*
X013890Y003391D01*
X013820Y003461D01*
X013540Y003461D01*
X013470Y003641D02*
X013750Y003641D01*
X013890Y003781D01*
X013750Y003921D01*
X013470Y003921D01*
X012020Y004310D02*
X012020Y004450D01*
X011950Y004520D01*
X011810Y004520D01*
X011810Y004380D01*
X011950Y004240D02*
X012020Y004310D01*
X011950Y004240D02*
X011670Y004240D01*
X011600Y004310D01*
X011600Y004450D01*
X011670Y004520D01*
X011600Y004700D02*
X012020Y004981D01*
X011600Y004981D01*
X011600Y005161D02*
X011600Y005371D01*
X011670Y005441D01*
X011950Y005441D01*
X012020Y005371D01*
X012020Y005161D01*
X011600Y005161D01*
X011280Y005080D02*
X011280Y004580D01*
X011030Y004330D01*
X010530Y004330D01*
X010280Y004580D01*
X010030Y004330D01*
X009530Y004330D01*
X009280Y004580D01*
X009280Y005080D01*
X009530Y005330D01*
X010030Y005330D01*
X010280Y005080D01*
X010530Y005330D01*
X011030Y005330D01*
X011280Y005080D01*
X011600Y004700D02*
X012020Y004700D01*
X008970Y004690D02*
X008970Y004620D01*
X008900Y004620D01*
X008900Y004690D01*
X008970Y004690D01*
X008900Y004851D02*
X008970Y004921D01*
X008970Y005061D01*
X008900Y005131D01*
X008830Y005131D01*
X008760Y005061D01*
X008760Y004991D01*
X008760Y005061D02*
X008690Y005131D01*
X008620Y005131D01*
X008550Y005061D01*
X008550Y004921D01*
X008620Y004851D01*
X008620Y004440D02*
X008690Y004440D01*
X008760Y004370D01*
X008830Y004440D01*
X008900Y004440D01*
X008970Y004370D01*
X008970Y004230D01*
X008900Y004160D01*
X008760Y004300D02*
X008760Y004370D01*
X008620Y004440D02*
X008550Y004370D01*
X008550Y004230D01*
X008620Y004160D01*
X008550Y003131D02*
X008830Y003131D01*
X008970Y002991D01*
X008830Y002851D01*
X008550Y002851D01*
X008620Y002671D02*
X008900Y002391D01*
X008970Y002461D01*
X008970Y002601D01*
X008900Y002671D01*
X008620Y002671D01*
X008550Y002601D01*
X008550Y002461D01*
X008620Y002391D01*
X008900Y002391D01*
X008900Y002230D02*
X008970Y002230D01*
X008970Y002160D01*
X008900Y002160D01*
X008900Y002230D01*
X009280Y002000D02*
X009530Y001750D01*
X010030Y001750D01*
X010280Y002000D01*
X010530Y001750D01*
X011030Y001750D01*
X011280Y002000D01*
X011280Y002500D01*
X011030Y002750D01*
X010530Y002750D01*
X010280Y002500D01*
X010030Y002750D01*
X009530Y002750D01*
X009280Y002500D01*
X009280Y002000D01*
X008970Y001910D02*
X008970Y001770D01*
X008900Y001700D01*
X008760Y001700D02*
X008690Y001840D01*
X008690Y001910D01*
X008760Y001980D01*
X008900Y001980D01*
X008970Y001910D01*
X008760Y001700D02*
X008550Y001700D01*
X008550Y001980D01*
X005894Y001778D02*
X005618Y001778D01*
X005894Y001778D02*
X005894Y002604D01*
X003768Y001778D02*
X001681Y001778D01*
X001681Y005321D01*
X005894Y005321D01*
X005894Y004494D01*
X008550Y005311D02*
X008830Y005311D01*
X008970Y005451D01*
X008830Y005591D01*
X008550Y005591D01*
X011600Y002791D02*
X011600Y002581D01*
X012020Y002581D01*
X012020Y002791D01*
X011950Y002861D01*
X011670Y002861D01*
X011600Y002791D01*
X011600Y002401D02*
X012020Y002401D01*
X011600Y002120D01*
X012020Y002120D01*
X011950Y001940D02*
X011810Y001940D01*
X011810Y001800D01*
X011670Y001660D02*
X011950Y001660D01*
X012020Y001730D01*
X012020Y001870D01*
X011950Y001940D01*
X011670Y001940D02*
X011600Y001870D01*
X011600Y001730D01*
X011670Y001660D01*
X012180Y001650D02*
X012180Y001150D01*
D13*
X029890Y001920D02*
X036890Y001920D01*
X036890Y015700D01*
X034390Y015700D01*
X034390Y014700D01*
X032390Y014700D01*
X032390Y015700D01*
X029890Y015700D01*
X029890Y001920D01*
X032390Y015700D02*
X034390Y015700D01*
D14*
X034275Y011281D02*
X033428Y010434D01*
X034275Y010434D02*
X033428Y011281D01*
X033639Y009900D02*
X033851Y009900D01*
X033851Y009053D01*
X034063Y009053D02*
X033639Y009053D01*
X033428Y009264D01*
X033428Y009688D01*
X033639Y009900D01*
X034275Y009688D02*
X034275Y009264D01*
X034063Y009053D01*
X034275Y008519D02*
X033639Y008519D01*
X033428Y008307D01*
X033428Y007671D01*
X034275Y007671D01*
X033639Y007138D02*
X033639Y006290D01*
X033639Y005756D02*
X034063Y005756D01*
X034275Y005545D01*
X034275Y005333D01*
X034063Y005121D01*
X034487Y005121D01*
X034699Y004909D01*
X034063Y005121D02*
X033639Y005121D01*
M02*
