G75*
%MOIN*%
%OFA0B0*%
%FSLAX24Y24*%
%IPPOS*%
%LPD*%
%AMOC8*
5,1,8,0,0,1.08239X$1,22.5*
%
%ADD10C,0.1700*%
%ADD11C,0.0780*%
%ADD12C,0.0740*%
%ADD13C,0.0650*%
%ADD14R,0.0650X0.0650*%
%ADD15C,0.0740*%
%ADD16C,0.0500*%
%ADD17C,0.0400*%
%ADD18C,0.0200*%
%ADD19C,0.0280*%
%ADD20C,0.0100*%
%ADD21C,0.0320*%
%ADD22C,0.0450*%
%ADD23C,0.0120*%
%ADD24C,0.0160*%
%ADD25R,0.0356X0.0356*%
%ADD26C,0.0356*%
D10*
X004713Y001699D03*
X005894Y003549D03*
X003531Y003549D03*
D11*
X009044Y007119D03*
X009044Y011119D03*
D12*
X009080Y020030D02*
X009080Y020770D01*
X010080Y020770D02*
X010080Y020030D01*
X011080Y020030D02*
X011080Y020770D01*
X012080Y020770D02*
X012080Y020030D01*
X013080Y020030D02*
X013080Y020770D01*
X014080Y020770D02*
X014080Y020030D01*
X015080Y020030D02*
X015080Y020770D01*
X016080Y020770D02*
X016080Y020030D01*
X017080Y020030D02*
X017080Y020770D01*
X018080Y020770D02*
X018080Y020030D01*
X019680Y020030D02*
X019680Y020770D01*
X020680Y020770D02*
X020680Y020030D01*
X021680Y020030D02*
X021680Y020770D01*
X022680Y020770D02*
X022680Y020030D01*
X023680Y020030D02*
X023680Y020770D01*
X024680Y020770D02*
X024680Y020030D01*
X025680Y020030D02*
X025680Y020770D01*
X026680Y020770D02*
X026680Y020030D01*
X026680Y001770D02*
X026680Y001030D01*
X025680Y001030D02*
X025680Y001770D01*
X024680Y001770D02*
X024680Y001030D01*
X023680Y001030D02*
X023680Y001770D01*
X022680Y001770D02*
X022680Y001030D01*
X021680Y001030D02*
X021680Y001770D01*
X019680Y001770D02*
X019680Y001030D01*
X018680Y001030D02*
X018680Y001770D01*
X017680Y001770D02*
X017680Y001030D01*
X016680Y001030D02*
X016680Y001770D01*
X015680Y001770D02*
X015680Y001030D01*
X014680Y001030D02*
X014680Y001770D01*
X013680Y001770D02*
X013680Y001030D01*
X012680Y001030D02*
X012680Y001770D01*
D13*
X007430Y008400D03*
X007430Y009400D03*
X006470Y017310D03*
X003210Y017310D03*
D14*
X003210Y018310D03*
X006470Y018310D03*
D15*
X003272Y007888D03*
X003272Y006888D03*
X009780Y004830D03*
X010780Y004830D03*
X010780Y002250D03*
X009780Y002250D03*
X029320Y003200D03*
X030390Y003200D03*
X030390Y004200D03*
X029320Y004200D03*
X029320Y005200D03*
X030390Y005200D03*
X030390Y006200D03*
X029320Y006200D03*
X029320Y007200D03*
X030390Y007200D03*
X030390Y008200D03*
X029320Y008200D03*
X029320Y009200D03*
X030390Y009200D03*
X030390Y010200D03*
X029320Y010200D03*
X029320Y011200D03*
X030390Y011200D03*
X030390Y012200D03*
X029320Y012200D03*
X029320Y013200D03*
X030390Y013200D03*
X030390Y014200D03*
X029320Y014200D03*
X029320Y015200D03*
X030390Y015200D03*
X036390Y015200D03*
X037460Y015200D03*
X037460Y014200D03*
X036390Y014200D03*
X036390Y013200D03*
X037460Y013200D03*
X037460Y012200D03*
X036390Y012200D03*
X036390Y011200D03*
X037460Y011200D03*
X037460Y010200D03*
X036390Y010200D03*
X036390Y009200D03*
X037460Y009200D03*
X037460Y008200D03*
X036390Y008200D03*
X036390Y007200D03*
X037460Y007200D03*
X037460Y006200D03*
X036390Y006200D03*
X036390Y005200D03*
X037460Y005200D03*
X037460Y004200D03*
X036390Y004200D03*
X036390Y003200D03*
X037460Y003200D03*
D16*
X015690Y004880D02*
X015690Y001410D01*
X015680Y001400D01*
X013670Y001410D02*
X013670Y002860D01*
X013110Y003420D01*
X010080Y003420D01*
X009760Y003100D01*
X009760Y002270D01*
X009780Y002250D01*
X005894Y003549D02*
X005894Y005354D01*
X007660Y007120D01*
X009043Y007120D01*
X009044Y007119D01*
X010220Y006010D02*
X009770Y005560D01*
X009770Y004840D01*
X009780Y004830D01*
X010220Y006010D02*
X014560Y006010D01*
X015690Y004880D01*
X009044Y011119D02*
X006503Y011119D01*
X003272Y007888D01*
X003320Y007936D01*
X003320Y009440D01*
X002400Y010360D01*
X002400Y014930D01*
X004100Y016630D01*
X004100Y018030D01*
X003800Y018330D01*
X003230Y018330D01*
X003210Y018310D01*
D17*
X029320Y015200D02*
X030390Y015200D01*
X030390Y014200D02*
X029320Y014200D01*
X029320Y013200D02*
X030390Y013200D01*
X030390Y012200D02*
X029320Y012200D01*
X029320Y011200D02*
X030390Y011200D01*
X030390Y010200D02*
X029320Y010200D01*
X029320Y009200D02*
X029530Y009200D01*
X030390Y009200D01*
X030390Y008200D02*
X029320Y008200D01*
X029320Y007200D02*
X030390Y007200D01*
X030390Y006200D02*
X029320Y006200D01*
X029320Y005200D02*
X030390Y005200D01*
X030390Y003200D02*
X029320Y003200D01*
X036390Y003200D02*
X037460Y003200D01*
X037460Y005200D02*
X036390Y005200D01*
X036390Y006200D02*
X037460Y006200D01*
X037460Y007200D02*
X036390Y007200D01*
X036390Y008200D02*
X037460Y008200D01*
X037460Y009200D02*
X036390Y009200D01*
X036390Y010200D02*
X036390Y010220D01*
X036370Y010220D01*
X036390Y010200D02*
X037460Y010200D01*
X037460Y011200D02*
X036390Y011200D01*
X036390Y012200D02*
X037460Y012200D01*
X037460Y013200D02*
X036390Y013200D01*
X036370Y014180D02*
X036370Y014200D01*
X036390Y014200D01*
X037460Y014200D01*
X037460Y015200D02*
X036390Y015200D01*
X018680Y001400D02*
X017680Y001400D01*
D18*
X016680Y001400D02*
X016680Y002710D01*
X017320Y003350D01*
X020800Y003350D01*
X020900Y002630D02*
X021820Y003550D01*
X023040Y003550D01*
X022550Y004040D01*
X017450Y004040D01*
X014800Y006690D01*
X010640Y006690D01*
X009044Y008286D01*
X009044Y011119D01*
X019680Y017270D02*
X025420Y011530D01*
X028020Y011530D01*
X028690Y012200D01*
X029320Y012200D01*
X029320Y011200D02*
X024910Y011200D01*
X018070Y018040D01*
X018070Y020390D01*
X018080Y020400D01*
X017090Y020350D02*
X017080Y020400D01*
X017090Y020350D02*
X017110Y018540D01*
X024770Y010870D01*
X028120Y010870D01*
X028790Y010200D01*
X029320Y010200D01*
X028920Y009520D02*
X029420Y009020D01*
X029420Y009090D01*
X029530Y009200D01*
X029320Y009200D02*
X029140Y009200D01*
X028920Y009520D02*
X024830Y009520D01*
X016050Y018300D01*
X016050Y020370D01*
X016080Y020400D01*
X015080Y020400D02*
X015080Y017320D01*
X023300Y009100D01*
X028420Y009100D01*
X029320Y008200D01*
X029320Y007200D02*
X027847Y008673D01*
X023187Y008673D01*
X014090Y017770D01*
X014090Y020390D01*
X014080Y020400D01*
X013110Y020370D02*
X013080Y020400D01*
X013090Y020390D01*
X013110Y020370D02*
X013110Y018270D01*
X023100Y008280D01*
X027240Y008280D01*
X029320Y006200D01*
X025960Y003540D02*
X027000Y002500D01*
X035690Y002500D01*
X036390Y003200D01*
X020900Y002630D02*
X020900Y001820D01*
X020480Y001400D01*
X019680Y001400D01*
X014680Y001400D02*
X014680Y004440D01*
X014370Y004750D01*
X025550Y012040D02*
X027750Y012040D01*
X028900Y013190D01*
X029310Y013190D01*
X029320Y013200D01*
X029320Y014200D02*
X027640Y012520D01*
X025760Y012520D01*
X021700Y016580D01*
X021700Y020380D01*
X021680Y020400D01*
X020690Y020390D02*
X020680Y020400D01*
X020690Y020390D02*
X020690Y016900D01*
X025550Y012040D01*
X025880Y013110D02*
X027670Y013110D01*
X028640Y014080D01*
X028640Y015010D01*
X028870Y015240D01*
X029280Y015240D01*
X029320Y015200D01*
X025880Y013110D02*
X024880Y014110D01*
X024880Y014320D01*
X019680Y017270D02*
X019680Y020400D01*
X019690Y020390D01*
X015080Y020400D02*
X015070Y020390D01*
X011080Y020400D02*
X010860Y020180D01*
X010850Y018150D01*
D19*
X010850Y018150D03*
X013120Y017130D03*
X017220Y016100D03*
X017780Y017230D03*
X018930Y018460D03*
X023100Y017330D03*
X026200Y017100D03*
X026600Y016550D03*
X026630Y015130D03*
X024880Y014320D03*
X026130Y013720D03*
X031970Y015200D03*
X033620Y013870D03*
X033150Y013440D03*
X032220Y013700D03*
X034400Y014180D03*
X034530Y013370D03*
X035010Y008560D03*
X034700Y007140D03*
X034880Y005690D03*
X035410Y003870D03*
X034490Y003350D03*
X033040Y003930D03*
X026350Y004080D03*
X025960Y003540D03*
X023040Y003550D03*
X020800Y003350D03*
X020450Y002840D03*
X018200Y005430D03*
X014370Y004750D03*
X011720Y008740D03*
X015890Y012960D03*
X011140Y013140D03*
D20*
X002180Y010014D02*
X002180Y000900D01*
X004097Y000900D01*
X003865Y001132D01*
X003713Y001500D01*
X003713Y001898D01*
X003865Y002265D01*
X004146Y002547D01*
X004514Y002699D01*
X004912Y002699D01*
X005279Y002547D01*
X005560Y002265D01*
X005713Y001898D01*
X005713Y001500D01*
X005560Y001132D01*
X005328Y000900D01*
X006222Y000900D01*
X006174Y000983D01*
X006100Y001258D01*
X006100Y001542D01*
X006174Y001817D01*
X006316Y002063D01*
X006517Y002264D01*
X006763Y002406D01*
X007038Y002480D01*
X007322Y002480D01*
X007597Y002406D01*
X007843Y002264D01*
X008044Y002063D01*
X008186Y001817D01*
X008260Y001542D01*
X008260Y001258D01*
X008186Y000983D01*
X008138Y000900D01*
X012171Y000900D01*
X012160Y000927D01*
X012160Y001873D01*
X012239Y002065D01*
X012385Y002211D01*
X012577Y002290D01*
X012783Y002290D01*
X012975Y002211D01*
X013121Y002065D01*
X013180Y001922D01*
X013239Y002065D01*
X013270Y002095D01*
X013270Y002694D01*
X012944Y003020D01*
X010246Y003020D01*
X010160Y002934D01*
X010160Y002605D01*
X010221Y002545D01*
X010281Y002398D01*
X010298Y002450D01*
X010335Y002523D01*
X010383Y002589D01*
X010441Y002647D01*
X010507Y002695D01*
X010580Y002732D01*
X010658Y002757D01*
X010730Y002769D01*
X010730Y002300D01*
X010830Y002300D01*
X010830Y002769D01*
X010902Y002757D01*
X010980Y002732D01*
X011053Y002695D01*
X011119Y002647D01*
X011177Y002589D01*
X011225Y002523D01*
X011262Y002450D01*
X011287Y002372D01*
X011299Y002300D01*
X010830Y002300D01*
X010830Y002200D01*
X011299Y002200D01*
X011287Y002128D01*
X011262Y002050D01*
X011225Y001977D01*
X011177Y001911D01*
X011119Y001853D01*
X011053Y001805D01*
X010980Y001768D01*
X010902Y001743D01*
X010830Y001731D01*
X010830Y002200D01*
X010730Y002200D01*
X010730Y001731D01*
X010658Y001743D01*
X010580Y001768D01*
X010507Y001805D01*
X010441Y001853D01*
X010383Y001911D01*
X010335Y001977D01*
X010298Y002050D01*
X010281Y002102D01*
X010221Y001955D01*
X010075Y001809D01*
X009883Y001730D01*
X009677Y001730D01*
X009485Y001809D01*
X009339Y001955D01*
X009260Y002147D01*
X009260Y002353D01*
X009339Y002545D01*
X009360Y002565D01*
X009360Y003180D01*
X009421Y003327D01*
X009533Y003439D01*
X009853Y003759D01*
X010000Y003820D01*
X013190Y003820D01*
X013337Y003759D01*
X013449Y003647D01*
X014009Y003087D01*
X014070Y002940D01*
X014070Y002115D01*
X014121Y002065D01*
X014180Y001922D01*
X014239Y002065D01*
X014385Y002211D01*
X014430Y002229D01*
X014430Y004336D01*
X014302Y004464D01*
X014206Y004504D01*
X014124Y004586D01*
X014080Y004692D01*
X014080Y004808D01*
X014124Y004914D01*
X014206Y004996D01*
X014312Y005040D01*
X014428Y005040D01*
X014534Y004996D01*
X014616Y004914D01*
X014656Y004818D01*
X014892Y004582D01*
X014930Y004490D01*
X014930Y002229D01*
X014975Y002211D01*
X015121Y002065D01*
X015180Y001922D01*
X015239Y002065D01*
X015290Y002115D01*
X015290Y004714D01*
X014394Y005610D01*
X010386Y005610D01*
X010170Y005394D01*
X010170Y005175D01*
X010221Y005125D01*
X010281Y004978D01*
X010298Y005030D01*
X010335Y005103D01*
X010383Y005169D01*
X010441Y005227D01*
X010507Y005275D01*
X010580Y005312D01*
X010658Y005337D01*
X010730Y005349D01*
X010730Y004880D01*
X010830Y004880D01*
X010830Y005349D01*
X010902Y005337D01*
X010980Y005312D01*
X011053Y005275D01*
X011119Y005227D01*
X011177Y005169D01*
X011225Y005103D01*
X011262Y005030D01*
X011287Y004952D01*
X011299Y004880D01*
X010830Y004880D01*
X010830Y004780D01*
X011299Y004780D01*
X011287Y004708D01*
X011262Y004630D01*
X011225Y004557D01*
X011177Y004491D01*
X011119Y004433D01*
X011053Y004385D01*
X010980Y004348D01*
X010902Y004323D01*
X010830Y004311D01*
X010830Y004780D01*
X010730Y004780D01*
X010730Y004311D01*
X010658Y004323D01*
X010580Y004348D01*
X010507Y004385D01*
X010441Y004433D01*
X010383Y004491D01*
X010335Y004557D01*
X010298Y004630D01*
X010281Y004682D01*
X010221Y004535D01*
X010075Y004389D01*
X009883Y004310D01*
X009677Y004310D01*
X009485Y004389D01*
X009339Y004535D01*
X009260Y004727D01*
X009260Y004933D01*
X009339Y005125D01*
X009370Y005155D01*
X009370Y005640D01*
X009431Y005787D01*
X009543Y005899D01*
X009993Y006349D01*
X010140Y006410D01*
X014640Y006410D01*
X014787Y006349D01*
X014899Y006237D01*
X015917Y005219D01*
X016029Y005107D01*
X016090Y004960D01*
X016090Y002095D01*
X016121Y002065D01*
X016180Y001922D01*
X016239Y002065D01*
X016385Y002211D01*
X016430Y002229D01*
X016430Y002760D01*
X016468Y002852D01*
X016538Y002922D01*
X017178Y003562D01*
X017270Y003600D01*
X020646Y003600D01*
X020742Y003640D01*
X020858Y003640D01*
X020964Y003596D01*
X021046Y003514D01*
X021090Y003408D01*
X021090Y003292D01*
X021046Y003186D01*
X020964Y003104D01*
X020858Y003060D01*
X020742Y003060D01*
X020646Y003100D01*
X017424Y003100D01*
X016930Y002606D01*
X016930Y002229D01*
X016975Y002211D01*
X017121Y002065D01*
X017181Y001918D01*
X017198Y001970D01*
X017235Y002043D01*
X017283Y002109D01*
X017341Y002167D01*
X017407Y002215D01*
X017480Y002252D01*
X017558Y002277D01*
X017630Y002289D01*
X017630Y001450D01*
X017730Y001450D01*
X018630Y001450D01*
X018630Y002289D01*
X018558Y002277D01*
X018480Y002252D01*
X018407Y002215D01*
X018341Y002167D01*
X018283Y002109D01*
X018235Y002043D01*
X018198Y001970D01*
X018180Y001914D01*
X018162Y001970D01*
X018125Y002043D01*
X018077Y002109D01*
X018019Y002167D01*
X017953Y002215D01*
X017880Y002252D01*
X017802Y002277D01*
X017730Y002289D01*
X017730Y001450D01*
X017730Y001350D01*
X018200Y001350D01*
X018630Y001350D01*
X018630Y001450D01*
X018730Y001450D01*
X018730Y002289D01*
X018802Y002277D01*
X018880Y002252D01*
X018953Y002215D01*
X019019Y002167D01*
X019077Y002109D01*
X019125Y002043D01*
X019162Y001970D01*
X019179Y001918D01*
X019239Y002065D01*
X019385Y002211D01*
X019577Y002290D01*
X019783Y002290D01*
X019975Y002211D01*
X020121Y002065D01*
X020200Y001873D01*
X020200Y001650D01*
X020376Y001650D01*
X020650Y001924D01*
X020650Y002680D01*
X020688Y002772D01*
X021608Y003692D01*
X021608Y003692D01*
X021678Y003762D01*
X021746Y003790D01*
X017400Y003790D01*
X017308Y003828D01*
X017238Y003898D01*
X014696Y006440D01*
X010590Y006440D01*
X010498Y006478D01*
X010428Y006548D01*
X008832Y008145D01*
X008794Y008236D01*
X008794Y010638D01*
X008738Y010661D01*
X008680Y010719D01*
X006669Y010719D01*
X003792Y007842D01*
X003792Y007785D01*
X003713Y007593D01*
X003567Y007447D01*
X003420Y007387D01*
X003472Y007370D01*
X003545Y007333D01*
X003611Y007285D01*
X003669Y007227D01*
X003717Y007161D01*
X003754Y007088D01*
X003779Y007010D01*
X003791Y006938D01*
X003322Y006938D01*
X003322Y006838D01*
X003791Y006838D01*
X003779Y006766D01*
X003754Y006688D01*
X003717Y006615D01*
X003669Y006549D01*
X003611Y006491D01*
X003545Y006443D01*
X003472Y006406D01*
X003394Y006381D01*
X003322Y006369D01*
X003322Y006838D01*
X003222Y006838D01*
X003222Y006369D01*
X003150Y006381D01*
X003072Y006406D01*
X002999Y006443D01*
X002933Y006491D01*
X002875Y006549D01*
X002827Y006615D01*
X002790Y006688D01*
X002765Y006766D01*
X002753Y006838D01*
X003222Y006838D01*
X003222Y006938D01*
X002753Y006938D01*
X002765Y007010D01*
X002790Y007088D01*
X002827Y007161D01*
X002875Y007227D01*
X002933Y007285D01*
X002999Y007333D01*
X003072Y007370D01*
X003124Y007387D01*
X002977Y007447D01*
X002831Y007593D01*
X002752Y007785D01*
X002752Y007991D01*
X002831Y008183D01*
X002920Y008271D01*
X002920Y009274D01*
X002180Y010014D01*
X002180Y009955D02*
X002240Y009955D01*
X002180Y009856D02*
X002338Y009856D01*
X002437Y009758D02*
X002180Y009758D01*
X002180Y009659D02*
X002535Y009659D01*
X002634Y009561D02*
X002180Y009561D01*
X002180Y009462D02*
X002732Y009462D01*
X002831Y009364D02*
X002180Y009364D01*
X002180Y009265D02*
X002920Y009265D01*
X002920Y009167D02*
X002180Y009167D01*
X002180Y009068D02*
X002920Y009068D01*
X002920Y008970D02*
X002180Y008970D01*
X002180Y008871D02*
X002920Y008871D01*
X002920Y008773D02*
X002180Y008773D01*
X002180Y008674D02*
X002920Y008674D01*
X002920Y008576D02*
X002180Y008576D01*
X002180Y008477D02*
X002920Y008477D01*
X002920Y008379D02*
X002180Y008379D01*
X002180Y008280D02*
X002920Y008280D01*
X002831Y008182D02*
X002180Y008182D01*
X002180Y008083D02*
X002790Y008083D01*
X002752Y007985D02*
X002180Y007985D01*
X002180Y007886D02*
X002752Y007886D01*
X002752Y007788D02*
X002180Y007788D01*
X002180Y007689D02*
X002792Y007689D01*
X002834Y007591D02*
X002180Y007591D01*
X002180Y007492D02*
X002933Y007492D01*
X002948Y007295D02*
X002180Y007295D01*
X002180Y007197D02*
X002853Y007197D01*
X002795Y007098D02*
X002180Y007098D01*
X002180Y007000D02*
X002763Y007000D01*
X002759Y006803D02*
X002180Y006803D01*
X002180Y006901D02*
X003222Y006901D01*
X003222Y006803D02*
X003322Y006803D01*
X003322Y006901D02*
X006875Y006901D01*
X006777Y006803D02*
X003785Y006803D01*
X003759Y006704D02*
X006678Y006704D01*
X006580Y006606D02*
X003710Y006606D01*
X003626Y006507D02*
X006481Y006507D01*
X006383Y006409D02*
X003476Y006409D01*
X003322Y006409D02*
X003222Y006409D01*
X003222Y006507D02*
X003322Y006507D01*
X003322Y006606D02*
X003222Y006606D01*
X003222Y006704D02*
X003322Y006704D01*
X002918Y006507D02*
X002180Y006507D01*
X002180Y006409D02*
X003068Y006409D01*
X002834Y006606D02*
X002180Y006606D01*
X002180Y006704D02*
X002785Y006704D01*
X002180Y006310D02*
X006284Y006310D01*
X006186Y006212D02*
X002180Y006212D01*
X002180Y006113D02*
X006087Y006113D01*
X005989Y006015D02*
X002180Y006015D01*
X002180Y005916D02*
X005890Y005916D01*
X005792Y005818D02*
X002180Y005818D01*
X002180Y005719D02*
X005693Y005719D01*
X005595Y005621D02*
X002180Y005621D01*
X002180Y005522D02*
X005530Y005522D01*
X005555Y005580D02*
X005494Y005433D01*
X005494Y004466D01*
X005327Y004397D01*
X005046Y004116D01*
X004894Y003748D01*
X004894Y003350D01*
X005046Y002983D01*
X005327Y002701D01*
X005695Y002549D01*
X006093Y002549D01*
X006460Y002701D01*
X006741Y002983D01*
X006894Y003350D01*
X006894Y003748D01*
X006741Y004116D01*
X006460Y004397D01*
X006294Y004466D01*
X006294Y005188D01*
X007826Y006720D01*
X008679Y006720D01*
X008738Y006661D01*
X008936Y006579D01*
X009151Y006579D01*
X009350Y006661D01*
X009502Y006813D01*
X009584Y007012D01*
X009584Y007226D01*
X009502Y007425D01*
X009350Y007577D01*
X009151Y007659D01*
X008936Y007659D01*
X008738Y007577D01*
X008681Y007520D01*
X007580Y007520D01*
X007433Y007459D01*
X007321Y007347D01*
X005555Y005580D01*
X005494Y005424D02*
X002180Y005424D01*
X002180Y005325D02*
X005494Y005325D01*
X005494Y005227D02*
X002180Y005227D01*
X002180Y005128D02*
X005494Y005128D01*
X005494Y005030D02*
X002180Y005030D01*
X002180Y004931D02*
X005494Y004931D01*
X005494Y004833D02*
X002180Y004833D01*
X002180Y004734D02*
X005494Y004734D01*
X005494Y004636D02*
X002180Y004636D01*
X002180Y004537D02*
X003367Y004537D01*
X003364Y004537D02*
X003254Y004512D01*
X003148Y004475D01*
X003047Y004426D01*
X002952Y004366D01*
X002864Y004296D01*
X002785Y004217D01*
X002715Y004129D01*
X002655Y004034D01*
X002606Y003932D01*
X002569Y003826D01*
X002544Y003717D01*
X002531Y003605D01*
X002531Y003599D01*
X003481Y003599D01*
X003481Y003499D01*
X002531Y003499D01*
X002531Y003493D01*
X002544Y003381D01*
X002569Y003272D01*
X002606Y003166D01*
X002655Y003065D01*
X002715Y002970D01*
X002785Y002882D01*
X002864Y002802D01*
X002952Y002732D01*
X003047Y002673D01*
X003148Y002624D01*
X003254Y002587D01*
X003364Y002562D01*
X003475Y002549D01*
X003481Y002549D01*
X003481Y003499D01*
X003581Y003499D01*
X003581Y002549D01*
X003588Y002549D01*
X003699Y002562D01*
X003809Y002587D01*
X003915Y002624D01*
X004016Y002673D01*
X004111Y002732D01*
X004199Y002802D01*
X004278Y002882D01*
X004348Y002970D01*
X004408Y003065D01*
X004457Y003166D01*
X004494Y003272D01*
X004519Y003381D01*
X004531Y003493D01*
X004531Y003499D01*
X003582Y003499D01*
X003582Y003599D01*
X004531Y003599D01*
X004531Y003605D01*
X004519Y003717D01*
X004494Y003826D01*
X004457Y003932D01*
X004408Y004034D01*
X004348Y004129D01*
X004278Y004217D01*
X004199Y004296D01*
X004111Y004366D01*
X004016Y004426D01*
X003915Y004475D01*
X003809Y004512D01*
X003699Y004537D01*
X003588Y004549D01*
X003581Y004549D01*
X003581Y003599D01*
X003481Y003599D01*
X003481Y004549D01*
X003475Y004549D01*
X003364Y004537D01*
X003481Y004537D02*
X003581Y004537D01*
X003581Y004439D02*
X003481Y004439D01*
X003481Y004340D02*
X003581Y004340D01*
X003581Y004242D02*
X003481Y004242D01*
X003481Y004143D02*
X003581Y004143D01*
X003581Y004045D02*
X003481Y004045D01*
X003481Y003946D02*
X003581Y003946D01*
X003581Y003848D02*
X003481Y003848D01*
X003481Y003749D02*
X003581Y003749D01*
X003581Y003651D02*
X003481Y003651D01*
X003481Y003552D02*
X002180Y003552D01*
X002180Y003454D02*
X002536Y003454D01*
X002550Y003355D02*
X002180Y003355D01*
X002180Y003257D02*
X002574Y003257D01*
X002610Y003158D02*
X002180Y003158D01*
X002180Y003060D02*
X002658Y003060D01*
X002722Y002961D02*
X002180Y002961D01*
X002180Y002863D02*
X002804Y002863D01*
X002912Y002764D02*
X002180Y002764D01*
X002180Y002666D02*
X003062Y002666D01*
X003341Y002567D02*
X002180Y002567D01*
X002180Y002469D02*
X004068Y002469D01*
X003970Y002370D02*
X002180Y002370D01*
X002180Y002272D02*
X003871Y002272D01*
X003827Y002173D02*
X002180Y002173D01*
X002180Y002075D02*
X003786Y002075D01*
X003745Y001976D02*
X002180Y001976D01*
X002180Y001878D02*
X003713Y001878D01*
X003713Y001779D02*
X002180Y001779D01*
X002180Y001681D02*
X003713Y001681D01*
X003713Y001582D02*
X002180Y001582D01*
X002180Y001484D02*
X003719Y001484D01*
X003760Y001385D02*
X002180Y001385D01*
X002180Y001287D02*
X003801Y001287D01*
X003842Y001188D02*
X002180Y001188D01*
X002180Y001090D02*
X003908Y001090D01*
X004006Y000991D02*
X002180Y000991D01*
X003481Y002567D02*
X003581Y002567D01*
X003581Y002666D02*
X003481Y002666D01*
X003481Y002764D02*
X003581Y002764D01*
X003581Y002863D02*
X003481Y002863D01*
X003481Y002961D02*
X003581Y002961D01*
X003581Y003060D02*
X003481Y003060D01*
X003481Y003158D02*
X003581Y003158D01*
X003581Y003257D02*
X003481Y003257D01*
X003481Y003355D02*
X003581Y003355D01*
X003581Y003454D02*
X003481Y003454D01*
X003582Y003552D02*
X004894Y003552D01*
X004894Y003454D02*
X004527Y003454D01*
X004513Y003355D02*
X004894Y003355D01*
X004933Y003257D02*
X004489Y003257D01*
X004453Y003158D02*
X004973Y003158D01*
X005014Y003060D02*
X004405Y003060D01*
X004341Y002961D02*
X005068Y002961D01*
X005166Y002863D02*
X004259Y002863D01*
X004151Y002764D02*
X005265Y002764D01*
X005414Y002666D02*
X004992Y002666D01*
X005230Y002567D02*
X005652Y002567D01*
X005456Y002370D02*
X006700Y002370D01*
X006530Y002272D02*
X005554Y002272D01*
X005599Y002173D02*
X006426Y002173D01*
X006327Y002075D02*
X005639Y002075D01*
X005680Y001976D02*
X006266Y001976D01*
X006209Y001878D02*
X005713Y001878D01*
X005713Y001779D02*
X006164Y001779D01*
X006137Y001681D02*
X005713Y001681D01*
X005713Y001582D02*
X006111Y001582D01*
X006100Y001484D02*
X005706Y001484D01*
X005665Y001385D02*
X006100Y001385D01*
X006100Y001287D02*
X005624Y001287D01*
X005583Y001188D02*
X006119Y001188D01*
X006145Y001090D02*
X005517Y001090D01*
X005419Y000991D02*
X006172Y000991D01*
X008188Y000991D02*
X012160Y000991D01*
X012160Y001090D02*
X008215Y001090D01*
X008241Y001188D02*
X012160Y001188D01*
X012160Y001287D02*
X008260Y001287D01*
X008260Y001385D02*
X012160Y001385D01*
X012160Y001484D02*
X008260Y001484D01*
X008249Y001582D02*
X012160Y001582D01*
X012160Y001681D02*
X008223Y001681D01*
X008196Y001779D02*
X009558Y001779D01*
X009417Y001878D02*
X008151Y001878D01*
X008094Y001976D02*
X009331Y001976D01*
X009290Y002075D02*
X008033Y002075D01*
X007934Y002173D02*
X009260Y002173D01*
X009260Y002272D02*
X007830Y002272D01*
X007660Y002370D02*
X009267Y002370D01*
X009308Y002469D02*
X007365Y002469D01*
X006995Y002469D02*
X005357Y002469D01*
X006136Y002567D02*
X009360Y002567D01*
X009360Y002666D02*
X006373Y002666D01*
X006523Y002764D02*
X009360Y002764D01*
X009360Y002863D02*
X006621Y002863D01*
X006720Y002961D02*
X009360Y002961D01*
X009360Y003060D02*
X006773Y003060D01*
X006814Y003158D02*
X009360Y003158D01*
X009392Y003257D02*
X006855Y003257D01*
X006894Y003355D02*
X009449Y003355D01*
X009548Y003454D02*
X006894Y003454D01*
X006894Y003552D02*
X009646Y003552D01*
X009745Y003651D02*
X006894Y003651D01*
X006893Y003749D02*
X009843Y003749D01*
X009956Y004340D02*
X010605Y004340D01*
X010730Y004340D02*
X010830Y004340D01*
X010830Y004439D02*
X010730Y004439D01*
X010730Y004537D02*
X010830Y004537D01*
X010830Y004636D02*
X010730Y004636D01*
X010730Y004734D02*
X010830Y004734D01*
X010830Y004833D02*
X014090Y004833D01*
X014080Y004734D02*
X011291Y004734D01*
X011264Y004636D02*
X014104Y004636D01*
X014173Y004537D02*
X011210Y004537D01*
X011124Y004439D02*
X014328Y004439D01*
X014426Y004340D02*
X010955Y004340D01*
X010436Y004439D02*
X010124Y004439D01*
X010221Y004537D02*
X010350Y004537D01*
X010296Y004636D02*
X010262Y004636D01*
X010260Y005030D02*
X010298Y005030D01*
X010354Y005128D02*
X010217Y005128D01*
X010170Y005227D02*
X010441Y005227D01*
X010621Y005325D02*
X010170Y005325D01*
X010199Y005424D02*
X014581Y005424D01*
X014482Y005522D02*
X010298Y005522D01*
X010730Y005325D02*
X010830Y005325D01*
X010830Y005227D02*
X010730Y005227D01*
X010730Y005128D02*
X010830Y005128D01*
X010830Y005030D02*
X010730Y005030D01*
X010730Y004931D02*
X010830Y004931D01*
X010939Y005325D02*
X014679Y005325D01*
X014778Y005227D02*
X011119Y005227D01*
X011206Y005128D02*
X014876Y005128D01*
X014975Y005030D02*
X014453Y005030D01*
X014287Y005030D02*
X011262Y005030D01*
X011290Y004931D02*
X014141Y004931D01*
X014599Y004931D02*
X015073Y004931D01*
X015172Y004833D02*
X014650Y004833D01*
X014740Y004734D02*
X015270Y004734D01*
X015290Y004636D02*
X014838Y004636D01*
X014910Y004537D02*
X015290Y004537D01*
X015290Y004439D02*
X014930Y004439D01*
X014930Y004340D02*
X015290Y004340D01*
X015290Y004242D02*
X014930Y004242D01*
X014930Y004143D02*
X015290Y004143D01*
X015290Y004045D02*
X014930Y004045D01*
X014930Y003946D02*
X015290Y003946D01*
X015290Y003848D02*
X014930Y003848D01*
X014930Y003749D02*
X015290Y003749D01*
X015290Y003651D02*
X014930Y003651D01*
X014930Y003552D02*
X015290Y003552D01*
X015290Y003454D02*
X014930Y003454D01*
X014930Y003355D02*
X015290Y003355D01*
X015290Y003257D02*
X014930Y003257D01*
X014930Y003158D02*
X015290Y003158D01*
X015290Y003060D02*
X014930Y003060D01*
X014930Y002961D02*
X015290Y002961D01*
X015290Y002863D02*
X014930Y002863D01*
X014930Y002764D02*
X015290Y002764D01*
X015290Y002666D02*
X014930Y002666D01*
X014930Y002567D02*
X015290Y002567D01*
X015290Y002469D02*
X014930Y002469D01*
X014930Y002370D02*
X015290Y002370D01*
X015290Y002272D02*
X014930Y002272D01*
X015012Y002173D02*
X015290Y002173D01*
X015249Y002075D02*
X015111Y002075D01*
X015158Y001976D02*
X015202Y001976D01*
X014430Y002272D02*
X014070Y002272D01*
X014070Y002370D02*
X014430Y002370D01*
X014430Y002469D02*
X014070Y002469D01*
X014070Y002567D02*
X014430Y002567D01*
X014430Y002666D02*
X014070Y002666D01*
X014070Y002764D02*
X014430Y002764D01*
X014430Y002863D02*
X014070Y002863D01*
X014061Y002961D02*
X014430Y002961D01*
X014430Y003060D02*
X014020Y003060D01*
X013938Y003158D02*
X014430Y003158D01*
X014430Y003257D02*
X013839Y003257D01*
X013741Y003355D02*
X014430Y003355D01*
X014430Y003454D02*
X013642Y003454D01*
X013544Y003552D02*
X014430Y003552D01*
X014430Y003651D02*
X013445Y003651D01*
X013347Y003749D02*
X014430Y003749D01*
X014430Y003848D02*
X006853Y003848D01*
X006812Y003946D02*
X014430Y003946D01*
X014430Y004045D02*
X006771Y004045D01*
X006714Y004143D02*
X014430Y004143D01*
X014430Y004242D02*
X006616Y004242D01*
X006517Y004340D02*
X009604Y004340D01*
X009436Y004439D02*
X006360Y004439D01*
X006294Y004537D02*
X009339Y004537D01*
X009298Y004636D02*
X006294Y004636D01*
X006294Y004734D02*
X009260Y004734D01*
X009260Y004833D02*
X006294Y004833D01*
X006294Y004931D02*
X009260Y004931D01*
X009300Y005030D02*
X006294Y005030D01*
X006294Y005128D02*
X009343Y005128D01*
X009370Y005227D02*
X006332Y005227D01*
X006431Y005325D02*
X009370Y005325D01*
X009370Y005424D02*
X006529Y005424D01*
X006628Y005522D02*
X009370Y005522D01*
X009370Y005621D02*
X006726Y005621D01*
X006825Y005719D02*
X009403Y005719D01*
X009462Y005818D02*
X006923Y005818D01*
X007022Y005916D02*
X009560Y005916D01*
X009659Y006015D02*
X007120Y006015D01*
X007219Y006113D02*
X009757Y006113D01*
X009856Y006212D02*
X007317Y006212D01*
X007416Y006310D02*
X009954Y006310D01*
X010137Y006409D02*
X007514Y006409D01*
X007613Y006507D02*
X010469Y006507D01*
X010371Y006606D02*
X009215Y006606D01*
X009392Y006704D02*
X010272Y006704D01*
X010174Y006803D02*
X009491Y006803D01*
X009538Y006901D02*
X010075Y006901D01*
X009977Y007000D02*
X009579Y007000D01*
X009584Y007098D02*
X009878Y007098D01*
X009780Y007197D02*
X009584Y007197D01*
X009555Y007295D02*
X009681Y007295D01*
X009583Y007394D02*
X009515Y007394D01*
X009484Y007492D02*
X009434Y007492D01*
X009386Y007591D02*
X009316Y007591D01*
X009287Y007689D02*
X003752Y007689D01*
X003792Y007788D02*
X009189Y007788D01*
X009090Y007886D02*
X003836Y007886D01*
X003934Y007985D02*
X007199Y007985D01*
X007181Y007994D02*
X007248Y007960D01*
X007319Y007937D01*
X007393Y007925D01*
X007411Y007925D01*
X007411Y008381D01*
X006955Y008381D01*
X006955Y008363D01*
X006967Y008289D01*
X006990Y008218D01*
X007024Y008151D01*
X007068Y008091D01*
X007121Y008038D01*
X007181Y007994D01*
X007075Y008083D02*
X004033Y008083D01*
X004131Y008182D02*
X007008Y008182D01*
X006970Y008280D02*
X004230Y008280D01*
X004328Y008379D02*
X006955Y008379D01*
X006955Y008419D02*
X007411Y008419D01*
X007411Y008875D01*
X007393Y008875D01*
X007319Y008863D01*
X007248Y008840D01*
X007181Y008806D01*
X007121Y008762D01*
X007068Y008709D01*
X007024Y008649D01*
X006990Y008582D01*
X006967Y008511D01*
X006955Y008437D01*
X006955Y008419D01*
X006961Y008477D02*
X004427Y008477D01*
X004525Y008576D02*
X006988Y008576D01*
X007042Y008674D02*
X004624Y008674D01*
X004722Y008773D02*
X007135Y008773D01*
X007228Y008970D02*
X004919Y008970D01*
X005018Y009068D02*
X007090Y009068D01*
X007027Y009131D02*
X007161Y008997D01*
X007336Y008925D01*
X007524Y008925D01*
X007699Y008997D01*
X007833Y009131D01*
X007905Y009306D01*
X007905Y009494D01*
X007833Y009669D01*
X007699Y009803D01*
X007524Y009875D01*
X007336Y009875D01*
X007161Y009803D01*
X007027Y009669D01*
X006955Y009494D01*
X006955Y009306D01*
X007027Y009131D01*
X007013Y009167D02*
X005116Y009167D01*
X005215Y009265D02*
X006972Y009265D01*
X006955Y009364D02*
X005313Y009364D01*
X005412Y009462D02*
X006955Y009462D01*
X006982Y009561D02*
X005510Y009561D01*
X005609Y009659D02*
X007023Y009659D01*
X007116Y009758D02*
X005707Y009758D01*
X005806Y009856D02*
X007290Y009856D01*
X007570Y009856D02*
X008794Y009856D01*
X008794Y009758D02*
X007744Y009758D01*
X007837Y009659D02*
X008794Y009659D01*
X008794Y009561D02*
X007878Y009561D01*
X007905Y009462D02*
X008794Y009462D01*
X008794Y009364D02*
X007905Y009364D01*
X007888Y009265D02*
X008794Y009265D01*
X008794Y009167D02*
X007847Y009167D01*
X007770Y009068D02*
X008794Y009068D01*
X008794Y008970D02*
X007632Y008970D01*
X007612Y008840D02*
X007541Y008863D01*
X007467Y008875D01*
X007449Y008875D01*
X007449Y008419D01*
X007411Y008419D01*
X007411Y008381D01*
X007449Y008381D01*
X007449Y008419D01*
X007905Y008419D01*
X007905Y008437D01*
X007893Y008511D01*
X007870Y008582D01*
X007836Y008649D01*
X007792Y008709D01*
X007739Y008762D01*
X007679Y008806D01*
X007612Y008840D01*
X007492Y008871D02*
X008794Y008871D01*
X008794Y008773D02*
X007725Y008773D01*
X007818Y008674D02*
X008794Y008674D01*
X008794Y008576D02*
X007872Y008576D01*
X007899Y008477D02*
X008794Y008477D01*
X008794Y008379D02*
X007905Y008379D01*
X007905Y008381D02*
X007449Y008381D01*
X007449Y007925D01*
X007467Y007925D01*
X007541Y007937D01*
X007612Y007960D01*
X007679Y007994D01*
X007739Y008038D01*
X007792Y008091D01*
X007836Y008151D01*
X007870Y008218D01*
X007893Y008289D01*
X007905Y008363D01*
X007905Y008381D01*
X007890Y008280D02*
X008794Y008280D01*
X008817Y008182D02*
X007852Y008182D01*
X007785Y008083D02*
X008893Y008083D01*
X008992Y007985D02*
X007661Y007985D01*
X007449Y007985D02*
X007411Y007985D01*
X007411Y008083D02*
X007449Y008083D01*
X007449Y008182D02*
X007411Y008182D01*
X007411Y008280D02*
X007449Y008280D01*
X007449Y008379D02*
X007411Y008379D01*
X007411Y008477D02*
X007449Y008477D01*
X007449Y008576D02*
X007411Y008576D01*
X007411Y008674D02*
X007449Y008674D01*
X007449Y008773D02*
X007411Y008773D01*
X007411Y008871D02*
X007449Y008871D01*
X007368Y008871D02*
X004821Y008871D01*
X004083Y009265D02*
X003720Y009265D01*
X003720Y009167D02*
X003985Y009167D01*
X003886Y009068D02*
X003720Y009068D01*
X003720Y008970D02*
X003788Y008970D01*
X003720Y008902D02*
X003720Y009520D01*
X003659Y009667D01*
X003547Y009779D01*
X002800Y010526D01*
X002800Y014764D01*
X004327Y016291D01*
X004439Y016403D01*
X004500Y016550D01*
X004500Y018110D01*
X004439Y018257D01*
X004139Y018557D01*
X004027Y018669D01*
X003880Y018730D01*
X003652Y018730D01*
X003597Y018785D01*
X002823Y018785D01*
X002735Y018697D01*
X002735Y017923D01*
X002823Y017835D01*
X003597Y017835D01*
X003663Y017901D01*
X003700Y017864D01*
X003700Y016796D01*
X002180Y015276D01*
X002180Y020900D01*
X006722Y020900D01*
X006674Y020817D01*
X006600Y020542D01*
X006600Y020258D01*
X006674Y019983D01*
X006816Y019737D01*
X007017Y019536D01*
X007263Y019394D01*
X007538Y019320D01*
X007822Y019320D01*
X008097Y019394D01*
X008343Y019536D01*
X008544Y019737D01*
X008599Y019832D01*
X008639Y019735D01*
X008785Y019589D01*
X008890Y019546D01*
X008890Y017967D01*
X009007Y017850D01*
X022567Y004290D01*
X022500Y004290D01*
X017554Y004290D01*
X014942Y006902D01*
X014850Y006940D01*
X010744Y006940D01*
X009294Y008390D01*
X009294Y010638D01*
X009350Y010661D01*
X009502Y010813D01*
X009584Y011012D01*
X009584Y011226D01*
X009502Y011425D01*
X009350Y011577D01*
X009151Y011659D01*
X008936Y011659D01*
X008738Y011577D01*
X008680Y011519D01*
X006423Y011519D01*
X006276Y011458D01*
X003720Y008902D01*
X003720Y009364D02*
X004182Y009364D01*
X004280Y009462D02*
X003720Y009462D01*
X003703Y009561D02*
X004379Y009561D01*
X004477Y009659D02*
X003662Y009659D01*
X003568Y009758D02*
X004576Y009758D01*
X004674Y009856D02*
X003470Y009856D01*
X003371Y009955D02*
X004773Y009955D01*
X004871Y010053D02*
X003273Y010053D01*
X003174Y010152D02*
X004970Y010152D01*
X005068Y010250D02*
X003076Y010250D01*
X002977Y010349D02*
X005167Y010349D01*
X005265Y010447D02*
X002879Y010447D01*
X002800Y010546D02*
X005364Y010546D01*
X005462Y010644D02*
X002800Y010644D01*
X002800Y010743D02*
X005561Y010743D01*
X005659Y010841D02*
X002800Y010841D01*
X002800Y010940D02*
X005758Y010940D01*
X005856Y011038D02*
X002800Y011038D01*
X002800Y011137D02*
X005955Y011137D01*
X006053Y011235D02*
X002800Y011235D01*
X002800Y011334D02*
X006152Y011334D01*
X006250Y011432D02*
X002800Y011432D01*
X002800Y011531D02*
X008692Y011531D01*
X008864Y011629D02*
X002800Y011629D01*
X002800Y011728D02*
X015130Y011728D01*
X015031Y011826D02*
X002800Y011826D01*
X002800Y011925D02*
X014933Y011925D01*
X014834Y012023D02*
X002800Y012023D01*
X002800Y012122D02*
X014736Y012122D01*
X014637Y012220D02*
X002800Y012220D01*
X002800Y012319D02*
X014539Y012319D01*
X014440Y012417D02*
X002800Y012417D01*
X002800Y012516D02*
X014342Y012516D01*
X014243Y012614D02*
X002800Y012614D01*
X002800Y012713D02*
X014145Y012713D01*
X014046Y012811D02*
X002800Y012811D01*
X002800Y012910D02*
X013948Y012910D01*
X013849Y013008D02*
X002800Y013008D01*
X002800Y013107D02*
X013751Y013107D01*
X013652Y013205D02*
X002800Y013205D01*
X002800Y013304D02*
X013554Y013304D01*
X013455Y013402D02*
X002800Y013402D01*
X002800Y013501D02*
X013357Y013501D01*
X013258Y013599D02*
X002800Y013599D01*
X002800Y013698D02*
X013160Y013698D01*
X013061Y013796D02*
X002800Y013796D01*
X002800Y013895D02*
X012963Y013895D01*
X012864Y013993D02*
X002800Y013993D01*
X002800Y014092D02*
X012766Y014092D01*
X012667Y014190D02*
X002800Y014190D01*
X002800Y014289D02*
X012569Y014289D01*
X012470Y014387D02*
X002800Y014387D01*
X002800Y014486D02*
X012372Y014486D01*
X012273Y014584D02*
X002800Y014584D01*
X002800Y014683D02*
X012175Y014683D01*
X012076Y014781D02*
X002817Y014781D01*
X002915Y014880D02*
X011978Y014880D01*
X011879Y014978D02*
X003014Y014978D01*
X003112Y015077D02*
X011781Y015077D01*
X011682Y015175D02*
X003211Y015175D01*
X003309Y015274D02*
X011584Y015274D01*
X011485Y015372D02*
X003408Y015372D01*
X003506Y015471D02*
X011387Y015471D01*
X011288Y015569D02*
X003605Y015569D01*
X003703Y015668D02*
X011190Y015668D01*
X011091Y015766D02*
X003802Y015766D01*
X003900Y015865D02*
X010993Y015865D01*
X010894Y015963D02*
X003999Y015963D01*
X004097Y016062D02*
X010796Y016062D01*
X010697Y016160D02*
X004196Y016160D01*
X004294Y016259D02*
X010599Y016259D01*
X010500Y016357D02*
X004393Y016357D01*
X004461Y016456D02*
X010402Y016456D01*
X010303Y016554D02*
X004500Y016554D01*
X004500Y016653D02*
X010205Y016653D01*
X010106Y016751D02*
X004500Y016751D01*
X004500Y016850D02*
X006350Y016850D01*
X006359Y016847D02*
X006433Y016835D01*
X006451Y016835D01*
X006451Y017291D01*
X005995Y017291D01*
X005995Y017273D01*
X006007Y017199D01*
X006030Y017128D01*
X006064Y017061D01*
X006108Y017001D01*
X006161Y016948D01*
X006221Y016904D01*
X006288Y016870D01*
X006359Y016847D01*
X006451Y016850D02*
X006489Y016850D01*
X006489Y016835D02*
X006507Y016835D01*
X006581Y016847D01*
X006652Y016870D01*
X006719Y016904D01*
X006779Y016948D01*
X006832Y017001D01*
X006876Y017061D01*
X006910Y017128D01*
X006933Y017199D01*
X006945Y017273D01*
X006945Y017291D01*
X006489Y017291D01*
X006489Y017329D01*
X006451Y017329D01*
X006451Y017785D01*
X006433Y017785D01*
X006359Y017773D01*
X006288Y017750D01*
X006221Y017716D01*
X006161Y017672D01*
X006108Y017619D01*
X006064Y017559D01*
X006030Y017492D01*
X006007Y017421D01*
X005995Y017347D01*
X005995Y017329D01*
X006451Y017329D01*
X006451Y017291D01*
X006489Y017291D01*
X006489Y016835D01*
X006590Y016850D02*
X010008Y016850D01*
X009909Y016948D02*
X006780Y016948D01*
X006866Y017047D02*
X009811Y017047D01*
X009712Y017145D02*
X006916Y017145D01*
X006940Y017244D02*
X009614Y017244D01*
X009515Y017342D02*
X006945Y017342D01*
X006945Y017347D02*
X006933Y017421D01*
X006910Y017492D01*
X006876Y017559D01*
X006832Y017619D01*
X006779Y017672D01*
X006719Y017716D01*
X006652Y017750D01*
X006581Y017773D01*
X006507Y017785D01*
X006489Y017785D01*
X006489Y017329D01*
X006945Y017329D01*
X006945Y017347D01*
X006927Y017441D02*
X009417Y017441D01*
X009318Y017539D02*
X006886Y017539D01*
X006814Y017638D02*
X009220Y017638D01*
X009121Y017736D02*
X006680Y017736D01*
X006489Y017736D02*
X006451Y017736D01*
X006451Y017638D02*
X006489Y017638D01*
X006489Y017539D02*
X006451Y017539D01*
X006451Y017441D02*
X006489Y017441D01*
X006489Y017342D02*
X006451Y017342D01*
X006451Y017244D02*
X006489Y017244D01*
X006489Y017145D02*
X006451Y017145D01*
X006451Y017047D02*
X006489Y017047D01*
X006489Y016948D02*
X006451Y016948D01*
X006160Y016948D02*
X004500Y016948D01*
X004500Y017047D02*
X006074Y017047D01*
X006024Y017145D02*
X004500Y017145D01*
X004500Y017244D02*
X006000Y017244D01*
X005995Y017342D02*
X004500Y017342D01*
X004500Y017441D02*
X006013Y017441D01*
X006054Y017539D02*
X004500Y017539D01*
X004500Y017638D02*
X006126Y017638D01*
X006260Y017736D02*
X004500Y017736D01*
X004500Y017835D02*
X009023Y017835D01*
X008924Y017933D02*
X006945Y017933D01*
X006945Y017923D02*
X006945Y018697D01*
X006857Y018785D01*
X006083Y018785D01*
X005995Y018697D01*
X005995Y017923D01*
X006083Y017835D01*
X006857Y017835D01*
X006945Y017923D01*
X006945Y018032D02*
X008890Y018032D01*
X008890Y018130D02*
X006945Y018130D01*
X006945Y018229D02*
X008890Y018229D01*
X008890Y018327D02*
X006945Y018327D01*
X006945Y018426D02*
X008890Y018426D01*
X008890Y018524D02*
X006945Y018524D01*
X006945Y018623D02*
X008890Y018623D01*
X008890Y018721D02*
X006921Y018721D01*
X006019Y018721D02*
X003901Y018721D01*
X004073Y018623D02*
X005995Y018623D01*
X005995Y018524D02*
X004172Y018524D01*
X004270Y018426D02*
X005995Y018426D01*
X005995Y018327D02*
X004369Y018327D01*
X004451Y018229D02*
X005995Y018229D01*
X005995Y018130D02*
X004492Y018130D01*
X004500Y018032D02*
X005995Y018032D01*
X005995Y017933D02*
X004500Y017933D01*
X003700Y017835D02*
X002180Y017835D01*
X002180Y017933D02*
X002735Y017933D01*
X002735Y018032D02*
X002180Y018032D01*
X002180Y018130D02*
X002735Y018130D01*
X002735Y018229D02*
X002180Y018229D01*
X002180Y018327D02*
X002735Y018327D01*
X002735Y018426D02*
X002180Y018426D01*
X002180Y018524D02*
X002735Y018524D01*
X002735Y018623D02*
X002180Y018623D01*
X002180Y018721D02*
X002759Y018721D01*
X002180Y018820D02*
X008890Y018820D01*
X008890Y018918D02*
X002180Y018918D01*
X002180Y019017D02*
X008890Y019017D01*
X008890Y019115D02*
X002180Y019115D01*
X002180Y019214D02*
X008890Y019214D01*
X008890Y019312D02*
X002180Y019312D01*
X002180Y019411D02*
X007234Y019411D01*
X007063Y019509D02*
X002180Y019509D01*
X002180Y019608D02*
X006945Y019608D01*
X006847Y019706D02*
X002180Y019706D01*
X002180Y019805D02*
X006777Y019805D01*
X006720Y019903D02*
X002180Y019903D01*
X002180Y020002D02*
X006669Y020002D01*
X006642Y020100D02*
X002180Y020100D01*
X002180Y020199D02*
X006616Y020199D01*
X006600Y020297D02*
X002180Y020297D01*
X002180Y020396D02*
X006600Y020396D01*
X006600Y020494D02*
X002180Y020494D01*
X002180Y020593D02*
X006614Y020593D01*
X006640Y020691D02*
X002180Y020691D01*
X002180Y020790D02*
X006666Y020790D01*
X006715Y020888D02*
X002180Y020888D01*
X003099Y017773D02*
X003028Y017750D01*
X002961Y017716D01*
X002901Y017672D01*
X002848Y017619D01*
X002804Y017559D01*
X002770Y017492D01*
X002747Y017421D01*
X002735Y017347D01*
X002735Y017329D01*
X003191Y017329D01*
X003191Y017785D01*
X003173Y017785D01*
X003099Y017773D01*
X003191Y017736D02*
X003229Y017736D01*
X003229Y017785D02*
X003229Y017329D01*
X003191Y017329D01*
X003191Y017291D01*
X002735Y017291D01*
X002735Y017273D01*
X002747Y017199D01*
X002770Y017128D01*
X002804Y017061D01*
X002848Y017001D01*
X002901Y016948D01*
X002961Y016904D01*
X003028Y016870D01*
X003099Y016847D01*
X003173Y016835D01*
X003191Y016835D01*
X003191Y017291D01*
X003229Y017291D01*
X003229Y017329D01*
X003685Y017329D01*
X003685Y017347D01*
X003673Y017421D01*
X003650Y017492D01*
X003616Y017559D01*
X003572Y017619D01*
X003519Y017672D01*
X003459Y017716D01*
X003392Y017750D01*
X003321Y017773D01*
X003247Y017785D01*
X003229Y017785D01*
X003229Y017638D02*
X003191Y017638D01*
X003191Y017539D02*
X003229Y017539D01*
X003229Y017441D02*
X003191Y017441D01*
X003191Y017342D02*
X003229Y017342D01*
X003229Y017291D02*
X003685Y017291D01*
X003685Y017273D01*
X003673Y017199D01*
X003650Y017128D01*
X003616Y017061D01*
X003572Y017001D01*
X003519Y016948D01*
X003459Y016904D01*
X003392Y016870D01*
X003321Y016847D01*
X003247Y016835D01*
X003229Y016835D01*
X003229Y017291D01*
X003229Y017244D02*
X003191Y017244D01*
X003191Y017145D02*
X003229Y017145D01*
X003229Y017047D02*
X003191Y017047D01*
X003191Y016948D02*
X003229Y016948D01*
X003229Y016850D02*
X003191Y016850D01*
X003090Y016850D02*
X002180Y016850D01*
X002180Y016948D02*
X002900Y016948D01*
X002814Y017047D02*
X002180Y017047D01*
X002180Y017145D02*
X002764Y017145D01*
X002740Y017244D02*
X002180Y017244D01*
X002180Y017342D02*
X002735Y017342D01*
X002753Y017441D02*
X002180Y017441D01*
X002180Y017539D02*
X002794Y017539D01*
X002866Y017638D02*
X002180Y017638D01*
X002180Y017736D02*
X003000Y017736D01*
X003420Y017736D02*
X003700Y017736D01*
X003700Y017638D02*
X003554Y017638D01*
X003626Y017539D02*
X003700Y017539D01*
X003700Y017441D02*
X003667Y017441D01*
X003685Y017342D02*
X003700Y017342D01*
X003700Y017244D02*
X003680Y017244D01*
X003656Y017145D02*
X003700Y017145D01*
X003700Y017047D02*
X003606Y017047D01*
X003520Y016948D02*
X003700Y016948D01*
X003700Y016850D02*
X003330Y016850D01*
X003557Y016653D02*
X002180Y016653D01*
X002180Y016751D02*
X003655Y016751D01*
X003458Y016554D02*
X002180Y016554D01*
X002180Y016456D02*
X003360Y016456D01*
X003261Y016357D02*
X002180Y016357D01*
X002180Y016259D02*
X003163Y016259D01*
X003064Y016160D02*
X002180Y016160D01*
X002180Y016062D02*
X002966Y016062D01*
X002867Y015963D02*
X002180Y015963D01*
X002180Y015865D02*
X002769Y015865D01*
X002670Y015766D02*
X002180Y015766D01*
X002180Y015668D02*
X002572Y015668D01*
X002473Y015569D02*
X002180Y015569D01*
X002180Y015471D02*
X002375Y015471D01*
X002276Y015372D02*
X002180Y015372D01*
X008126Y019411D02*
X008890Y019411D01*
X008890Y019509D02*
X008297Y019509D01*
X008415Y019608D02*
X008767Y019608D01*
X008669Y019706D02*
X008513Y019706D01*
X008583Y019805D02*
X008611Y019805D01*
X009090Y020390D02*
X009080Y020400D01*
X009090Y020390D02*
X009090Y018050D01*
X023320Y003820D01*
X023320Y002300D01*
X023200Y002180D01*
X023680Y002660D02*
X023680Y003920D01*
X023580Y004020D01*
X010120Y017460D01*
X010090Y020390D01*
X010080Y020400D01*
X010580Y019878D02*
X010608Y019810D01*
X010601Y018306D01*
X010560Y018208D01*
X010560Y018092D01*
X010604Y017986D01*
X010686Y017904D01*
X010792Y017860D01*
X010908Y017860D01*
X011014Y017904D01*
X011096Y017986D01*
X011140Y018092D01*
X011140Y018208D01*
X011101Y018302D01*
X011107Y019510D01*
X011183Y019510D01*
X011375Y019589D01*
X011521Y019735D01*
X011581Y019882D01*
X011598Y019830D01*
X011635Y019757D01*
X011683Y019691D01*
X011741Y019633D01*
X011807Y019585D01*
X011880Y019548D01*
X011958Y019523D01*
X012030Y019511D01*
X012030Y020350D01*
X012130Y020350D01*
X012130Y019511D01*
X012202Y019523D01*
X012280Y019548D01*
X012353Y019585D01*
X012419Y019633D01*
X012477Y019691D01*
X012525Y019757D01*
X012562Y019830D01*
X012579Y019882D01*
X012639Y019735D01*
X012785Y019589D01*
X012860Y019558D01*
X012860Y018220D01*
X012898Y018128D01*
X012968Y018058D01*
X022888Y008138D01*
X022958Y008068D01*
X023050Y008030D01*
X027136Y008030D01*
X028818Y006348D01*
X028800Y006303D01*
X028800Y006097D01*
X028879Y005905D01*
X028885Y005900D01*
X028857Y005900D01*
X028037Y005080D01*
X025307Y005080D01*
X023937Y003710D01*
X023880Y003653D01*
X023880Y004003D01*
X023780Y004103D01*
X023780Y004103D01*
X023721Y004162D01*
X023663Y004220D01*
X023663Y004220D01*
X010319Y017544D01*
X010299Y019558D01*
X010375Y019589D01*
X010521Y019735D01*
X010580Y019878D01*
X010608Y019805D02*
X010549Y019805D01*
X010491Y019706D02*
X010608Y019706D01*
X010607Y019608D02*
X010393Y019608D01*
X010299Y019509D02*
X010607Y019509D01*
X010606Y019411D02*
X010300Y019411D01*
X010301Y019312D02*
X010606Y019312D01*
X010605Y019214D02*
X010302Y019214D01*
X010303Y019115D02*
X010605Y019115D01*
X010604Y019017D02*
X010304Y019017D01*
X010305Y018918D02*
X010604Y018918D01*
X010603Y018820D02*
X010306Y018820D01*
X010307Y018721D02*
X010603Y018721D01*
X010602Y018623D02*
X010308Y018623D01*
X010309Y018524D02*
X010602Y018524D01*
X010601Y018426D02*
X010310Y018426D01*
X010311Y018327D02*
X010601Y018327D01*
X010569Y018229D02*
X010312Y018229D01*
X010313Y018130D02*
X010560Y018130D01*
X010585Y018032D02*
X010314Y018032D01*
X010315Y017933D02*
X010657Y017933D01*
X010316Y017835D02*
X013192Y017835D01*
X013093Y017933D02*
X011043Y017933D01*
X011115Y018032D02*
X012995Y018032D01*
X012897Y018130D02*
X011140Y018130D01*
X011131Y018229D02*
X012860Y018229D01*
X012860Y018327D02*
X011101Y018327D01*
X011101Y018426D02*
X012860Y018426D01*
X012860Y018524D02*
X011102Y018524D01*
X011102Y018623D02*
X012860Y018623D01*
X012860Y018721D02*
X011103Y018721D01*
X011103Y018820D02*
X012860Y018820D01*
X012860Y018918D02*
X011104Y018918D01*
X011104Y019017D02*
X012860Y019017D01*
X012860Y019115D02*
X011105Y019115D01*
X011105Y019214D02*
X012860Y019214D01*
X012860Y019312D02*
X011106Y019312D01*
X011106Y019411D02*
X012860Y019411D01*
X012860Y019509D02*
X011107Y019509D01*
X011393Y019608D02*
X011777Y019608D01*
X011673Y019706D02*
X011491Y019706D01*
X011549Y019805D02*
X011611Y019805D01*
X012030Y019805D02*
X012130Y019805D01*
X012130Y019903D02*
X012030Y019903D01*
X012030Y020002D02*
X012130Y020002D01*
X012130Y020100D02*
X012030Y020100D01*
X012030Y020199D02*
X012130Y020199D01*
X012130Y020297D02*
X012030Y020297D01*
X012549Y019805D02*
X012611Y019805D01*
X012669Y019706D02*
X012487Y019706D01*
X012383Y019608D02*
X012767Y019608D01*
X012130Y019608D02*
X012030Y019608D01*
X012030Y019706D02*
X012130Y019706D01*
X013290Y017736D02*
X010317Y017736D01*
X010318Y017638D02*
X013389Y017638D01*
X013487Y017539D02*
X010324Y017539D01*
X010423Y017441D02*
X013586Y017441D01*
X013684Y017342D02*
X010521Y017342D01*
X010620Y017244D02*
X013783Y017244D01*
X013881Y017145D02*
X010718Y017145D01*
X010817Y017047D02*
X013980Y017047D01*
X014078Y016948D02*
X010916Y016948D01*
X011014Y016850D02*
X014177Y016850D01*
X014275Y016751D02*
X011113Y016751D01*
X011212Y016653D02*
X014374Y016653D01*
X014472Y016554D02*
X011310Y016554D01*
X011409Y016456D02*
X014571Y016456D01*
X014669Y016357D02*
X011508Y016357D01*
X011606Y016259D02*
X014768Y016259D01*
X014866Y016160D02*
X011705Y016160D01*
X011804Y016062D02*
X014965Y016062D01*
X015063Y015963D02*
X011902Y015963D01*
X012001Y015865D02*
X015162Y015865D01*
X015260Y015766D02*
X012100Y015766D01*
X012198Y015668D02*
X015359Y015668D01*
X015457Y015569D02*
X012297Y015569D01*
X012395Y015471D02*
X015556Y015471D01*
X015654Y015372D02*
X012494Y015372D01*
X012593Y015274D02*
X015753Y015274D01*
X015851Y015175D02*
X012691Y015175D01*
X012790Y015077D02*
X015950Y015077D01*
X016048Y014978D02*
X012889Y014978D01*
X012987Y014880D02*
X016147Y014880D01*
X016245Y014781D02*
X013086Y014781D01*
X013185Y014683D02*
X016344Y014683D01*
X016442Y014584D02*
X013283Y014584D01*
X013382Y014486D02*
X016541Y014486D01*
X016639Y014387D02*
X013481Y014387D01*
X013579Y014289D02*
X016738Y014289D01*
X016836Y014190D02*
X013678Y014190D01*
X013777Y014092D02*
X016935Y014092D01*
X017033Y013993D02*
X013875Y013993D01*
X013974Y013895D02*
X017132Y013895D01*
X017230Y013796D02*
X014072Y013796D01*
X014171Y013698D02*
X017329Y013698D01*
X017427Y013599D02*
X014270Y013599D01*
X014368Y013501D02*
X017526Y013501D01*
X017624Y013402D02*
X014467Y013402D01*
X014566Y013304D02*
X017723Y013304D01*
X017821Y013205D02*
X014664Y013205D01*
X014763Y013107D02*
X017920Y013107D01*
X018018Y013008D02*
X014862Y013008D01*
X014960Y012910D02*
X018117Y012910D01*
X018215Y012811D02*
X015059Y012811D01*
X015158Y012713D02*
X018314Y012713D01*
X018412Y012614D02*
X015256Y012614D01*
X015355Y012516D02*
X018511Y012516D01*
X018609Y012417D02*
X015454Y012417D01*
X015552Y012319D02*
X018708Y012319D01*
X018806Y012220D02*
X015651Y012220D01*
X015749Y012122D02*
X018905Y012122D01*
X019003Y012023D02*
X015848Y012023D01*
X015947Y011925D02*
X019102Y011925D01*
X019200Y011826D02*
X016045Y011826D01*
X016144Y011728D02*
X019299Y011728D01*
X019397Y011629D02*
X016243Y011629D01*
X016341Y011531D02*
X019496Y011531D01*
X019594Y011432D02*
X016440Y011432D01*
X016539Y011334D02*
X019693Y011334D01*
X019791Y011235D02*
X016637Y011235D01*
X016736Y011137D02*
X019890Y011137D01*
X019988Y011038D02*
X016835Y011038D01*
X016933Y010940D02*
X020087Y010940D01*
X020185Y010841D02*
X017032Y010841D01*
X017131Y010743D02*
X020284Y010743D01*
X020382Y010644D02*
X017229Y010644D01*
X017328Y010546D02*
X020481Y010546D01*
X020579Y010447D02*
X017426Y010447D01*
X017525Y010349D02*
X020678Y010349D01*
X020776Y010250D02*
X017624Y010250D01*
X017722Y010152D02*
X020875Y010152D01*
X020973Y010053D02*
X017821Y010053D01*
X017920Y009955D02*
X021072Y009955D01*
X021170Y009856D02*
X018018Y009856D01*
X018117Y009758D02*
X021269Y009758D01*
X021367Y009659D02*
X018216Y009659D01*
X018314Y009561D02*
X021466Y009561D01*
X021564Y009462D02*
X018413Y009462D01*
X018512Y009364D02*
X021663Y009364D01*
X021761Y009265D02*
X018610Y009265D01*
X018709Y009167D02*
X021860Y009167D01*
X021958Y009068D02*
X018808Y009068D01*
X018906Y008970D02*
X022057Y008970D01*
X022155Y008871D02*
X019005Y008871D01*
X019103Y008773D02*
X022254Y008773D01*
X022352Y008674D02*
X019202Y008674D01*
X019301Y008576D02*
X022451Y008576D01*
X022549Y008477D02*
X019399Y008477D01*
X019498Y008379D02*
X022648Y008379D01*
X022746Y008280D02*
X019597Y008280D01*
X019695Y008182D02*
X022845Y008182D01*
X022943Y008083D02*
X019794Y008083D01*
X019893Y007985D02*
X027182Y007985D01*
X027280Y007886D02*
X019991Y007886D01*
X020090Y007788D02*
X027379Y007788D01*
X027477Y007689D02*
X020189Y007689D01*
X020287Y007591D02*
X027576Y007591D01*
X027674Y007492D02*
X020386Y007492D01*
X020485Y007394D02*
X027773Y007394D01*
X027871Y007295D02*
X020583Y007295D01*
X020682Y007197D02*
X027970Y007197D01*
X028068Y007098D02*
X020780Y007098D01*
X020879Y007000D02*
X028167Y007000D01*
X028265Y006901D02*
X020978Y006901D01*
X021076Y006803D02*
X028364Y006803D01*
X028462Y006704D02*
X021175Y006704D01*
X021274Y006606D02*
X028561Y006606D01*
X028659Y006507D02*
X021372Y006507D01*
X021471Y006409D02*
X028758Y006409D01*
X028803Y006310D02*
X021570Y006310D01*
X021668Y006212D02*
X028800Y006212D01*
X028800Y006113D02*
X021767Y006113D01*
X021866Y006015D02*
X028834Y006015D01*
X028875Y005916D02*
X021964Y005916D01*
X022063Y005818D02*
X028775Y005818D01*
X028676Y005719D02*
X022162Y005719D01*
X022260Y005621D02*
X028578Y005621D01*
X028479Y005522D02*
X022359Y005522D01*
X022457Y005424D02*
X028381Y005424D01*
X028282Y005325D02*
X022556Y005325D01*
X022655Y005227D02*
X028184Y005227D01*
X028085Y005128D02*
X022753Y005128D01*
X022852Y005030D02*
X025257Y005030D01*
X025158Y004931D02*
X022951Y004931D01*
X023049Y004833D02*
X025060Y004833D01*
X024961Y004734D02*
X023148Y004734D01*
X023247Y004636D02*
X024863Y004636D01*
X024764Y004537D02*
X023345Y004537D01*
X023444Y004439D02*
X024666Y004439D01*
X024567Y004340D02*
X023543Y004340D01*
X023641Y004242D02*
X024469Y004242D01*
X024370Y004143D02*
X023740Y004143D01*
X023838Y004045D02*
X024272Y004045D01*
X024173Y003946D02*
X023880Y003946D01*
X023880Y003848D02*
X024075Y003848D01*
X023976Y003749D02*
X023880Y003749D01*
X024020Y003510D02*
X024020Y001740D01*
X023680Y001400D01*
X024680Y001400D02*
X024680Y003810D01*
X025570Y004700D01*
X030990Y004700D01*
X031680Y005410D01*
X033600Y005410D01*
X036390Y008200D01*
X035909Y008002D02*
X034990Y007083D01*
X034990Y007198D01*
X034946Y007304D01*
X034864Y007386D01*
X034758Y007430D01*
X034642Y007430D01*
X034536Y007386D01*
X034454Y007304D01*
X034410Y007198D01*
X034410Y007133D01*
X033177Y005900D01*
X030825Y005900D01*
X030831Y005905D01*
X030910Y006097D01*
X030910Y006303D01*
X030831Y006495D01*
X030685Y006641D01*
X030542Y006700D01*
X030685Y006759D01*
X030831Y006905D01*
X030910Y007097D01*
X030910Y007303D01*
X030831Y007495D01*
X030685Y007641D01*
X030542Y007700D01*
X030685Y007759D01*
X030831Y007905D01*
X030910Y008097D01*
X030910Y008303D01*
X030831Y008495D01*
X030685Y008641D01*
X030542Y008700D01*
X030685Y008759D01*
X030831Y008905D01*
X030910Y009097D01*
X030910Y009303D01*
X030831Y009495D01*
X030685Y009641D01*
X030542Y009700D01*
X030685Y009759D01*
X030831Y009905D01*
X030910Y010097D01*
X030910Y010303D01*
X030831Y010495D01*
X030685Y010641D01*
X030542Y010700D01*
X030685Y010759D01*
X030831Y010905D01*
X030910Y011097D01*
X030910Y011303D01*
X030831Y011495D01*
X030685Y011641D01*
X030542Y011700D01*
X030685Y011759D01*
X030831Y011905D01*
X030910Y012097D01*
X030910Y012303D01*
X030831Y012495D01*
X030685Y012641D01*
X030542Y012700D01*
X030685Y012759D01*
X030831Y012905D01*
X030910Y013097D01*
X030910Y013303D01*
X030831Y013495D01*
X030685Y013641D01*
X030542Y013700D01*
X030685Y013759D01*
X030831Y013905D01*
X030910Y014097D01*
X030910Y014303D01*
X030831Y014495D01*
X030685Y014641D01*
X030542Y014700D01*
X030685Y014759D01*
X030831Y014905D01*
X030910Y015097D01*
X030910Y015303D01*
X030831Y015495D01*
X030795Y015530D01*
X035763Y015530D01*
X035905Y015388D01*
X035870Y015303D01*
X035870Y015097D01*
X035949Y014905D01*
X036095Y014759D01*
X036238Y014700D01*
X036095Y014641D01*
X035949Y014495D01*
X035902Y014380D01*
X034610Y014380D01*
X034564Y014426D01*
X034458Y014470D01*
X034342Y014470D01*
X034236Y014426D01*
X034154Y014344D01*
X034123Y014270D01*
X033610Y014783D01*
X033493Y014900D01*
X033272Y014900D01*
X033192Y014902D01*
X033190Y014900D01*
X033187Y014900D01*
X033130Y014843D01*
X032234Y013990D01*
X032162Y013990D01*
X032056Y013946D01*
X031974Y013864D01*
X031930Y013758D01*
X031930Y013642D01*
X031974Y013536D01*
X032056Y013454D01*
X032162Y013410D01*
X032278Y013410D01*
X032384Y013454D01*
X032466Y013536D01*
X032510Y013642D01*
X032510Y013700D01*
X033338Y014489D01*
X034277Y013550D01*
X034957Y013550D01*
X035302Y013205D01*
X030910Y013205D01*
X030910Y013107D02*
X035302Y013107D01*
X035302Y013205D02*
X035302Y013000D01*
X035390Y012912D01*
X035870Y012912D01*
X035924Y012966D01*
X035949Y012905D01*
X036095Y012759D01*
X036238Y012700D01*
X036095Y012641D01*
X035949Y012495D01*
X035870Y012303D01*
X035870Y012097D01*
X035949Y011905D01*
X036095Y011759D01*
X036238Y011700D01*
X036095Y011641D01*
X035949Y011495D01*
X035870Y011303D01*
X035870Y011097D01*
X035949Y010905D01*
X036095Y010759D01*
X036238Y010700D01*
X036095Y010641D01*
X035949Y010495D01*
X035918Y010420D01*
X035507Y010420D01*
X035390Y010303D01*
X034810Y009723D01*
X034810Y008770D01*
X034764Y008724D01*
X034720Y008618D01*
X034720Y008502D01*
X034764Y008396D01*
X034846Y008314D01*
X034952Y008270D01*
X035068Y008270D01*
X035174Y008314D01*
X035256Y008396D01*
X035300Y008502D01*
X035300Y008618D01*
X035256Y008724D01*
X035210Y008770D01*
X035210Y009557D01*
X035673Y010020D01*
X035902Y010020D01*
X035949Y009905D01*
X036095Y009759D01*
X036238Y009700D01*
X036095Y009641D01*
X035949Y009495D01*
X035870Y009303D01*
X035870Y009097D01*
X035949Y008905D01*
X036095Y008759D01*
X036238Y008700D01*
X036095Y008641D01*
X035949Y008495D01*
X035870Y008303D01*
X035870Y008097D01*
X035909Y008002D01*
X035892Y007985D02*
X030864Y007985D01*
X030904Y008083D02*
X035876Y008083D01*
X035870Y008182D02*
X030910Y008182D01*
X030910Y008280D02*
X034928Y008280D01*
X035092Y008280D02*
X035870Y008280D01*
X035901Y008379D02*
X035239Y008379D01*
X035290Y008477D02*
X035942Y008477D01*
X036030Y008576D02*
X035300Y008576D01*
X035277Y008674D02*
X036176Y008674D01*
X036082Y008773D02*
X035210Y008773D01*
X035210Y008871D02*
X035984Y008871D01*
X035923Y008970D02*
X035210Y008970D01*
X035210Y009068D02*
X035882Y009068D01*
X035870Y009167D02*
X035210Y009167D01*
X035210Y009265D02*
X035870Y009265D01*
X035895Y009364D02*
X035210Y009364D01*
X035210Y009462D02*
X035936Y009462D01*
X036015Y009561D02*
X035213Y009561D01*
X035312Y009659D02*
X036139Y009659D01*
X036099Y009758D02*
X035410Y009758D01*
X035509Y009856D02*
X035999Y009856D01*
X035929Y009955D02*
X035607Y009955D01*
X035590Y010220D02*
X035010Y009640D01*
X035010Y008560D01*
X034743Y008674D02*
X030604Y008674D01*
X030698Y008773D02*
X034810Y008773D01*
X034810Y008871D02*
X030796Y008871D01*
X030857Y008970D02*
X034810Y008970D01*
X034810Y009068D02*
X030898Y009068D01*
X030910Y009167D02*
X034810Y009167D01*
X034810Y009265D02*
X030910Y009265D01*
X030885Y009364D02*
X034810Y009364D01*
X034810Y009462D02*
X030844Y009462D01*
X030765Y009561D02*
X034810Y009561D01*
X034810Y009659D02*
X030641Y009659D01*
X030681Y009758D02*
X034845Y009758D01*
X034943Y009856D02*
X030781Y009856D01*
X030851Y009955D02*
X035042Y009955D01*
X035140Y010053D02*
X030892Y010053D01*
X030910Y010152D02*
X035239Y010152D01*
X035337Y010250D02*
X030910Y010250D01*
X030891Y010349D02*
X035436Y010349D01*
X035590Y010220D02*
X036370Y010220D01*
X036000Y010546D02*
X030780Y010546D01*
X030851Y010447D02*
X035929Y010447D01*
X036103Y010644D02*
X030677Y010644D01*
X030644Y010743D02*
X036136Y010743D01*
X036014Y010841D02*
X030766Y010841D01*
X030845Y010940D02*
X035935Y010940D01*
X035894Y011038D02*
X030886Y011038D01*
X030910Y011137D02*
X035870Y011137D01*
X035870Y011235D02*
X030910Y011235D01*
X030898Y011334D02*
X035882Y011334D01*
X035923Y011432D02*
X030857Y011432D01*
X030795Y011531D02*
X035985Y011531D01*
X036084Y011629D02*
X030696Y011629D01*
X030608Y011728D02*
X036172Y011728D01*
X036029Y011826D02*
X030751Y011826D01*
X030839Y011925D02*
X035941Y011925D01*
X035900Y012023D02*
X030880Y012023D01*
X030910Y012122D02*
X035870Y012122D01*
X035870Y012220D02*
X030910Y012220D01*
X030904Y012319D02*
X035876Y012319D01*
X035917Y012417D02*
X030863Y012417D01*
X030810Y012516D02*
X035970Y012516D01*
X036069Y012614D02*
X030711Y012614D01*
X030572Y012713D02*
X036208Y012713D01*
X036044Y012811D02*
X030736Y012811D01*
X030833Y012910D02*
X035947Y012910D01*
X035630Y013240D02*
X035550Y013240D01*
X035040Y013750D01*
X034360Y013750D01*
X033410Y014700D01*
X033270Y014700D01*
X032220Y013700D01*
X032510Y013698D02*
X034130Y013698D01*
X034031Y013796D02*
X032611Y013796D01*
X032714Y013895D02*
X033933Y013895D01*
X033834Y013993D02*
X032818Y013993D01*
X032921Y014092D02*
X033736Y014092D01*
X033637Y014190D02*
X033025Y014190D01*
X033128Y014289D02*
X033539Y014289D01*
X033440Y014387D02*
X033231Y014387D01*
X033335Y014486D02*
X033342Y014486D01*
X033612Y014781D02*
X036074Y014781D01*
X035975Y014880D02*
X033513Y014880D01*
X033710Y014683D02*
X036196Y014683D01*
X036039Y014584D02*
X033809Y014584D01*
X033907Y014486D02*
X035945Y014486D01*
X035905Y014387D02*
X034603Y014387D01*
X034400Y014180D02*
X036370Y014180D01*
X035105Y013402D02*
X030869Y013402D01*
X030910Y013304D02*
X035204Y013304D01*
X035007Y013501D02*
X032431Y013501D01*
X032492Y013599D02*
X034228Y013599D01*
X034131Y014289D02*
X034104Y014289D01*
X034197Y014387D02*
X034006Y014387D01*
X033065Y014781D02*
X030706Y014781D01*
X030805Y014880D02*
X033167Y014880D01*
X032962Y014683D02*
X030584Y014683D01*
X030741Y014584D02*
X032858Y014584D01*
X032755Y014486D02*
X030835Y014486D01*
X030875Y014387D02*
X032651Y014387D01*
X032548Y014289D02*
X030910Y014289D01*
X030910Y014190D02*
X032445Y014190D01*
X032341Y014092D02*
X030908Y014092D01*
X030867Y013993D02*
X032238Y013993D01*
X032004Y013895D02*
X030820Y013895D01*
X030721Y013796D02*
X031946Y013796D01*
X031930Y013698D02*
X030548Y013698D01*
X030726Y013599D02*
X031948Y013599D01*
X032009Y013501D02*
X030825Y013501D01*
X030873Y013008D02*
X035302Y013008D01*
X035919Y014978D02*
X030861Y014978D01*
X030902Y015077D02*
X035878Y015077D01*
X035870Y015175D02*
X030910Y015175D01*
X030910Y015274D02*
X035870Y015274D01*
X035898Y015372D02*
X030882Y015372D01*
X030841Y015471D02*
X035822Y015471D01*
X028915Y015530D02*
X028879Y015495D01*
X028877Y015490D01*
X028820Y015490D01*
X028728Y015452D01*
X028658Y015382D01*
X028442Y015165D01*
X028343Y015264D01*
X028097Y015406D01*
X027822Y015480D01*
X027538Y015480D01*
X027263Y015406D01*
X027017Y015264D01*
X026920Y015167D01*
X026920Y015188D01*
X026876Y015294D01*
X026794Y015376D01*
X026688Y015420D01*
X026572Y015420D01*
X026466Y015376D01*
X026384Y015294D01*
X026340Y015188D01*
X026340Y015123D01*
X025930Y014713D01*
X025930Y013930D01*
X025884Y013884D01*
X025840Y013778D01*
X025840Y013662D01*
X025884Y013556D01*
X025966Y013474D01*
X026072Y013430D01*
X026188Y013430D01*
X026294Y013474D01*
X026376Y013556D01*
X026420Y013662D01*
X026420Y013778D01*
X026376Y013884D01*
X026330Y013930D01*
X026330Y014547D01*
X026623Y014840D01*
X026687Y014840D01*
X026674Y014817D01*
X026600Y014542D01*
X026600Y014258D01*
X026674Y013983D01*
X026816Y013737D01*
X027017Y013536D01*
X027263Y013394D01*
X027389Y013360D01*
X025984Y013360D01*
X025144Y014200D01*
X025170Y014262D01*
X025170Y014378D01*
X025126Y014484D01*
X025044Y014566D01*
X024938Y014610D01*
X024822Y014610D01*
X024716Y014566D01*
X024634Y014484D01*
X024590Y014378D01*
X024590Y014262D01*
X024630Y014166D01*
X024630Y014060D01*
X024668Y013968D01*
X025668Y012968D01*
X025738Y012898D01*
X025830Y012860D01*
X027626Y012860D01*
X027536Y012770D01*
X025864Y012770D01*
X021950Y016684D01*
X021950Y019579D01*
X021975Y019589D01*
X022121Y019735D01*
X022180Y019878D01*
X022239Y019735D01*
X022385Y019589D01*
X022460Y019558D01*
X022460Y019197D01*
X022460Y019197D01*
X022460Y019110D01*
X022460Y019023D01*
X022460Y019023D01*
X022460Y019023D01*
X022521Y018962D01*
X022583Y018900D01*
X022583Y018900D01*
X025892Y015601D01*
X025953Y015540D01*
X025953Y015540D01*
X025953Y015540D01*
X026040Y015540D01*
X028705Y015540D01*
X028729Y015530D01*
X028915Y015530D01*
X028773Y015471D02*
X027857Y015471D01*
X028156Y015372D02*
X028648Y015372D01*
X028550Y015274D02*
X028327Y015274D01*
X028432Y015175D02*
X028451Y015175D01*
X027503Y015471D02*
X023163Y015471D01*
X023065Y015569D02*
X025924Y015569D01*
X025825Y015668D02*
X022966Y015668D01*
X022868Y015766D02*
X025726Y015766D01*
X025628Y015865D02*
X022769Y015865D01*
X022671Y015963D02*
X025529Y015963D01*
X025430Y016062D02*
X022572Y016062D01*
X022474Y016160D02*
X025331Y016160D01*
X025233Y016259D02*
X022375Y016259D01*
X022277Y016357D02*
X025134Y016357D01*
X025035Y016456D02*
X022178Y016456D01*
X022080Y016554D02*
X024936Y016554D01*
X024837Y016653D02*
X021981Y016653D01*
X021950Y016751D02*
X024739Y016751D01*
X024640Y016850D02*
X021950Y016850D01*
X021950Y016948D02*
X024541Y016948D01*
X024442Y017047D02*
X021950Y017047D01*
X021950Y017145D02*
X024343Y017145D01*
X024245Y017244D02*
X021950Y017244D01*
X021950Y017342D02*
X024146Y017342D01*
X024047Y017441D02*
X021950Y017441D01*
X021950Y017539D02*
X023948Y017539D01*
X023849Y017638D02*
X021950Y017638D01*
X021950Y017736D02*
X023751Y017736D01*
X023652Y017835D02*
X021950Y017835D01*
X021950Y017933D02*
X023553Y017933D01*
X023454Y018032D02*
X021950Y018032D01*
X021950Y018130D02*
X023355Y018130D01*
X023257Y018229D02*
X021950Y018229D01*
X021950Y018327D02*
X023158Y018327D01*
X023059Y018426D02*
X021950Y018426D01*
X021950Y018524D02*
X022960Y018524D01*
X022861Y018623D02*
X021950Y018623D01*
X021950Y018721D02*
X022763Y018721D01*
X022664Y018820D02*
X021950Y018820D01*
X021950Y018918D02*
X022565Y018918D01*
X022466Y019017D02*
X021950Y019017D01*
X021950Y019115D02*
X022460Y019115D01*
X022460Y019214D02*
X021950Y019214D01*
X021950Y019312D02*
X022460Y019312D01*
X022460Y019411D02*
X021950Y019411D01*
X021950Y019509D02*
X022460Y019509D01*
X022367Y019608D02*
X021993Y019608D01*
X022091Y019706D02*
X022269Y019706D01*
X022211Y019805D02*
X022149Y019805D01*
X019430Y019571D02*
X019430Y017220D01*
X019468Y017128D01*
X025146Y011450D01*
X025014Y011450D01*
X018320Y018144D01*
X018320Y019567D01*
X018375Y019589D01*
X018521Y019735D01*
X018600Y019927D01*
X018600Y020873D01*
X018589Y020900D01*
X019171Y020900D01*
X019160Y020873D01*
X019160Y019927D01*
X019239Y019735D01*
X019385Y019589D01*
X019430Y019571D01*
X019430Y019509D02*
X018320Y019509D01*
X018320Y019411D02*
X019430Y019411D01*
X019430Y019312D02*
X018320Y019312D01*
X018320Y019214D02*
X019430Y019214D01*
X019430Y019115D02*
X018320Y019115D01*
X018320Y019017D02*
X019430Y019017D01*
X019430Y018918D02*
X018320Y018918D01*
X018320Y018820D02*
X019430Y018820D01*
X019430Y018721D02*
X018320Y018721D01*
X018320Y018623D02*
X019430Y018623D01*
X019430Y018524D02*
X018320Y018524D01*
X018320Y018426D02*
X019430Y018426D01*
X019430Y018327D02*
X018320Y018327D01*
X018320Y018229D02*
X019430Y018229D01*
X019430Y018130D02*
X018334Y018130D01*
X018432Y018032D02*
X019430Y018032D01*
X019430Y017933D02*
X018531Y017933D01*
X018629Y017835D02*
X019430Y017835D01*
X019430Y017736D02*
X018728Y017736D01*
X018826Y017638D02*
X019430Y017638D01*
X019430Y017539D02*
X018925Y017539D01*
X019023Y017441D02*
X019430Y017441D01*
X019430Y017342D02*
X019122Y017342D01*
X019220Y017244D02*
X019430Y017244D01*
X019461Y017145D02*
X019319Y017145D01*
X019417Y017047D02*
X019550Y017047D01*
X019516Y016948D02*
X019648Y016948D01*
X019614Y016850D02*
X019747Y016850D01*
X019713Y016751D02*
X019845Y016751D01*
X019811Y016653D02*
X019944Y016653D01*
X019910Y016554D02*
X020042Y016554D01*
X020008Y016456D02*
X020141Y016456D01*
X020107Y016357D02*
X020239Y016357D01*
X020205Y016259D02*
X020338Y016259D01*
X020304Y016160D02*
X020436Y016160D01*
X020402Y016062D02*
X020535Y016062D01*
X020501Y015963D02*
X020633Y015963D01*
X020599Y015865D02*
X020732Y015865D01*
X020698Y015766D02*
X020830Y015766D01*
X020796Y015668D02*
X020929Y015668D01*
X020895Y015569D02*
X021027Y015569D01*
X020993Y015471D02*
X021126Y015471D01*
X021092Y015372D02*
X021224Y015372D01*
X021190Y015274D02*
X021323Y015274D01*
X021289Y015175D02*
X021421Y015175D01*
X021387Y015077D02*
X021520Y015077D01*
X021486Y014978D02*
X021618Y014978D01*
X021584Y014880D02*
X021717Y014880D01*
X021683Y014781D02*
X021815Y014781D01*
X021781Y014683D02*
X021914Y014683D01*
X021880Y014584D02*
X022012Y014584D01*
X021978Y014486D02*
X022111Y014486D01*
X022077Y014387D02*
X022209Y014387D01*
X022175Y014289D02*
X022308Y014289D01*
X022274Y014190D02*
X022406Y014190D01*
X022372Y014092D02*
X022505Y014092D01*
X022471Y013993D02*
X022603Y013993D01*
X022569Y013895D02*
X022702Y013895D01*
X022668Y013796D02*
X022800Y013796D01*
X022766Y013698D02*
X022899Y013698D01*
X022865Y013599D02*
X022997Y013599D01*
X022963Y013501D02*
X023096Y013501D01*
X023062Y013402D02*
X023194Y013402D01*
X023160Y013304D02*
X023293Y013304D01*
X023259Y013205D02*
X023391Y013205D01*
X023357Y013107D02*
X023490Y013107D01*
X023456Y013008D02*
X023588Y013008D01*
X023554Y012910D02*
X023687Y012910D01*
X023653Y012811D02*
X023785Y012811D01*
X023751Y012713D02*
X023884Y012713D01*
X023850Y012614D02*
X023982Y012614D01*
X023948Y012516D02*
X024081Y012516D01*
X024047Y012417D02*
X024179Y012417D01*
X024145Y012319D02*
X024278Y012319D01*
X024244Y012220D02*
X024376Y012220D01*
X024342Y012122D02*
X024475Y012122D01*
X024441Y012023D02*
X024573Y012023D01*
X024539Y011925D02*
X024672Y011925D01*
X024638Y011826D02*
X024770Y011826D01*
X024736Y011728D02*
X024869Y011728D01*
X024835Y011629D02*
X024967Y011629D01*
X024933Y011531D02*
X025066Y011531D01*
X024347Y010940D02*
X023764Y010940D01*
X023666Y011038D02*
X024249Y011038D01*
X024150Y011137D02*
X023567Y011137D01*
X023469Y011235D02*
X024052Y011235D01*
X023954Y011334D02*
X023370Y011334D01*
X023272Y011432D02*
X023855Y011432D01*
X023757Y011531D02*
X023173Y011531D01*
X023075Y011629D02*
X023659Y011629D01*
X023560Y011728D02*
X022976Y011728D01*
X022878Y011826D02*
X023462Y011826D01*
X023364Y011925D02*
X022779Y011925D01*
X022681Y012023D02*
X023265Y012023D01*
X023167Y012122D02*
X022582Y012122D01*
X022484Y012220D02*
X023068Y012220D01*
X022970Y012319D02*
X022385Y012319D01*
X022287Y012417D02*
X022872Y012417D01*
X022773Y012516D02*
X022188Y012516D01*
X022090Y012614D02*
X022675Y012614D01*
X022577Y012713D02*
X021991Y012713D01*
X021893Y012811D02*
X022478Y012811D01*
X022380Y012910D02*
X021794Y012910D01*
X021696Y013008D02*
X022281Y013008D01*
X022183Y013107D02*
X021597Y013107D01*
X021499Y013205D02*
X022085Y013205D01*
X021986Y013304D02*
X021400Y013304D01*
X021302Y013402D02*
X021888Y013402D01*
X021790Y013501D02*
X021203Y013501D01*
X021105Y013599D02*
X021691Y013599D01*
X021593Y013698D02*
X021006Y013698D01*
X020908Y013796D02*
X021494Y013796D01*
X021396Y013895D02*
X020809Y013895D01*
X020711Y013993D02*
X021298Y013993D01*
X021199Y014092D02*
X020612Y014092D01*
X020514Y014190D02*
X021101Y014190D01*
X021003Y014289D02*
X020415Y014289D01*
X020317Y014387D02*
X020904Y014387D01*
X020806Y014486D02*
X020218Y014486D01*
X020120Y014584D02*
X020707Y014584D01*
X020609Y014683D02*
X020021Y014683D01*
X019923Y014781D02*
X020511Y014781D01*
X020412Y014880D02*
X019824Y014880D01*
X019726Y014978D02*
X020314Y014978D01*
X020216Y015077D02*
X019627Y015077D01*
X019529Y015175D02*
X020117Y015175D01*
X020019Y015274D02*
X019430Y015274D01*
X019332Y015372D02*
X019921Y015372D01*
X019822Y015471D02*
X019233Y015471D01*
X019135Y015569D02*
X019724Y015569D01*
X019625Y015668D02*
X019036Y015668D01*
X018938Y015766D02*
X019527Y015766D01*
X019429Y015865D02*
X018839Y015865D01*
X018741Y015963D02*
X019330Y015963D01*
X019232Y016062D02*
X018642Y016062D01*
X018544Y016160D02*
X019134Y016160D01*
X019035Y016259D02*
X018445Y016259D01*
X018347Y016357D02*
X018937Y016357D01*
X018838Y016456D02*
X018248Y016456D01*
X018150Y016554D02*
X018740Y016554D01*
X018642Y016653D02*
X018051Y016653D01*
X017953Y016751D02*
X018543Y016751D01*
X018445Y016850D02*
X017854Y016850D01*
X017756Y016948D02*
X018347Y016948D01*
X018248Y017047D02*
X017657Y017047D01*
X017559Y017145D02*
X018150Y017145D01*
X018051Y017244D02*
X017460Y017244D01*
X017362Y017342D02*
X017953Y017342D01*
X017855Y017441D02*
X017263Y017441D01*
X017165Y017539D02*
X017756Y017539D01*
X017658Y017638D02*
X017066Y017638D01*
X016968Y017736D02*
X017560Y017736D01*
X017461Y017835D02*
X016869Y017835D01*
X016771Y017933D02*
X017363Y017933D01*
X017264Y018032D02*
X016672Y018032D01*
X016574Y018130D02*
X017166Y018130D01*
X017068Y018229D02*
X016475Y018229D01*
X016377Y018327D02*
X016969Y018327D01*
X016934Y018362D02*
X024558Y010728D01*
X024593Y010693D01*
X024628Y010658D01*
X024628Y010658D01*
X024628Y010658D01*
X024674Y010639D01*
X024720Y010620D01*
X024720Y010620D01*
X024720Y010620D01*
X024770Y010620D01*
X024820Y010620D01*
X028016Y010620D01*
X028648Y009988D01*
X028740Y009950D01*
X028840Y009950D01*
X028861Y009950D01*
X028879Y009905D01*
X029025Y009759D01*
X029168Y009700D01*
X029115Y009678D01*
X029062Y009732D01*
X028970Y009770D01*
X024934Y009770D01*
X016300Y018404D01*
X016300Y019558D01*
X016375Y019589D01*
X016521Y019735D01*
X016580Y019878D01*
X016639Y019735D01*
X016785Y019589D01*
X016849Y019563D01*
X016860Y018539D01*
X016860Y018490D01*
X016861Y018489D01*
X016861Y018488D01*
X016880Y018443D01*
X016898Y018399D01*
X016899Y018397D01*
X016900Y018396D01*
X016934Y018362D01*
X016887Y018426D02*
X016300Y018426D01*
X016300Y018524D02*
X016860Y018524D01*
X016859Y018623D02*
X016300Y018623D01*
X016300Y018721D02*
X016858Y018721D01*
X016857Y018820D02*
X016300Y018820D01*
X016300Y018918D02*
X016856Y018918D01*
X016855Y019017D02*
X016300Y019017D01*
X016300Y019115D02*
X016854Y019115D01*
X016853Y019214D02*
X016300Y019214D01*
X016300Y019312D02*
X016851Y019312D01*
X016850Y019411D02*
X016300Y019411D01*
X016300Y019509D02*
X016849Y019509D01*
X016767Y019608D02*
X016393Y019608D01*
X016491Y019706D02*
X016669Y019706D01*
X016611Y019805D02*
X016549Y019805D01*
X015800Y019583D02*
X015800Y018250D01*
X015838Y018158D01*
X015908Y018088D01*
X024618Y009378D01*
X024646Y009350D01*
X023404Y009350D01*
X015330Y017424D01*
X015330Y019571D01*
X015375Y019589D01*
X015521Y019735D01*
X015580Y019878D01*
X015639Y019735D01*
X015785Y019589D01*
X015800Y019583D01*
X015767Y019608D02*
X015393Y019608D01*
X015330Y019509D02*
X015800Y019509D01*
X015800Y019411D02*
X015330Y019411D01*
X015330Y019312D02*
X015800Y019312D01*
X015800Y019214D02*
X015330Y019214D01*
X015330Y019115D02*
X015800Y019115D01*
X015800Y019017D02*
X015330Y019017D01*
X015330Y018918D02*
X015800Y018918D01*
X015800Y018820D02*
X015330Y018820D01*
X015330Y018721D02*
X015800Y018721D01*
X015800Y018623D02*
X015330Y018623D01*
X015330Y018524D02*
X015800Y018524D01*
X015800Y018426D02*
X015330Y018426D01*
X015330Y018327D02*
X015800Y018327D01*
X015809Y018229D02*
X015330Y018229D01*
X015330Y018130D02*
X015866Y018130D01*
X015965Y018032D02*
X015330Y018032D01*
X015330Y017933D02*
X016063Y017933D01*
X016162Y017835D02*
X015330Y017835D01*
X015330Y017736D02*
X016260Y017736D01*
X016359Y017638D02*
X015330Y017638D01*
X015330Y017539D02*
X016457Y017539D01*
X016556Y017441D02*
X015330Y017441D01*
X015412Y017342D02*
X016654Y017342D01*
X016753Y017244D02*
X015510Y017244D01*
X015609Y017145D02*
X016851Y017145D01*
X016950Y017047D02*
X015707Y017047D01*
X015806Y016948D02*
X017048Y016948D01*
X017147Y016850D02*
X015904Y016850D01*
X016003Y016751D02*
X017245Y016751D01*
X017344Y016653D02*
X016101Y016653D01*
X016200Y016554D02*
X017442Y016554D01*
X017541Y016456D02*
X016298Y016456D01*
X016397Y016357D02*
X017639Y016357D01*
X017738Y016259D02*
X016495Y016259D01*
X016594Y016160D02*
X017836Y016160D01*
X017935Y016062D02*
X016692Y016062D01*
X016791Y015963D02*
X018033Y015963D01*
X018132Y015865D02*
X016889Y015865D01*
X016988Y015766D02*
X018230Y015766D01*
X018329Y015668D02*
X017086Y015668D01*
X017185Y015569D02*
X018427Y015569D01*
X018526Y015471D02*
X017283Y015471D01*
X017382Y015372D02*
X018624Y015372D01*
X018723Y015274D02*
X017480Y015274D01*
X017579Y015175D02*
X018821Y015175D01*
X018920Y015077D02*
X017677Y015077D01*
X017776Y014978D02*
X019018Y014978D01*
X019117Y014880D02*
X017874Y014880D01*
X017973Y014781D02*
X019215Y014781D01*
X019314Y014683D02*
X018071Y014683D01*
X018170Y014584D02*
X019412Y014584D01*
X019511Y014486D02*
X018268Y014486D01*
X018367Y014387D02*
X019609Y014387D01*
X019708Y014289D02*
X018465Y014289D01*
X018564Y014190D02*
X019806Y014190D01*
X019905Y014092D02*
X018662Y014092D01*
X018761Y013993D02*
X020003Y013993D01*
X020102Y013895D02*
X018859Y013895D01*
X018958Y013796D02*
X020200Y013796D01*
X020299Y013698D02*
X019056Y013698D01*
X019155Y013599D02*
X020397Y013599D01*
X020496Y013501D02*
X019253Y013501D01*
X019352Y013402D02*
X020594Y013402D01*
X020693Y013304D02*
X019450Y013304D01*
X019549Y013205D02*
X020791Y013205D01*
X020890Y013107D02*
X019647Y013107D01*
X019746Y013008D02*
X020988Y013008D01*
X021087Y012910D02*
X019844Y012910D01*
X019943Y012811D02*
X021185Y012811D01*
X021284Y012713D02*
X020041Y012713D01*
X020140Y012614D02*
X021382Y012614D01*
X021481Y012516D02*
X020238Y012516D01*
X020337Y012417D02*
X021579Y012417D01*
X021678Y012319D02*
X020435Y012319D01*
X020534Y012220D02*
X021776Y012220D01*
X021875Y012122D02*
X020632Y012122D01*
X020731Y012023D02*
X021973Y012023D01*
X022072Y011925D02*
X020829Y011925D01*
X020928Y011826D02*
X022170Y011826D01*
X022269Y011728D02*
X021026Y011728D01*
X021125Y011629D02*
X022367Y011629D01*
X022466Y011531D02*
X021223Y011531D01*
X021322Y011432D02*
X022564Y011432D01*
X022663Y011334D02*
X021420Y011334D01*
X021519Y011235D02*
X022761Y011235D01*
X022860Y011137D02*
X021617Y011137D01*
X021716Y011038D02*
X022958Y011038D01*
X023057Y010940D02*
X021814Y010940D01*
X021913Y010841D02*
X023155Y010841D01*
X023254Y010743D02*
X022011Y010743D01*
X022110Y010644D02*
X023352Y010644D01*
X023451Y010546D02*
X022208Y010546D01*
X022307Y010447D02*
X023549Y010447D01*
X023648Y010349D02*
X022405Y010349D01*
X022504Y010250D02*
X023746Y010250D01*
X023845Y010152D02*
X022602Y010152D01*
X022701Y010053D02*
X023943Y010053D01*
X024042Y009955D02*
X022799Y009955D01*
X022898Y009856D02*
X024140Y009856D01*
X024239Y009758D02*
X022996Y009758D01*
X023095Y009659D02*
X024337Y009659D01*
X024436Y009561D02*
X023193Y009561D01*
X023292Y009462D02*
X024534Y009462D01*
X024618Y009378D02*
X024618Y009378D01*
X024633Y009364D02*
X023390Y009364D01*
X024552Y010152D02*
X028485Y010152D01*
X028386Y010250D02*
X024454Y010250D01*
X024355Y010349D02*
X028288Y010349D01*
X028189Y010447D02*
X024257Y010447D01*
X024158Y010546D02*
X028091Y010546D01*
X028583Y010053D02*
X024651Y010053D01*
X024749Y009955D02*
X028729Y009955D01*
X028929Y009856D02*
X024848Y009856D01*
X024820Y010620D02*
X024820Y010620D01*
X024662Y010644D02*
X024060Y010644D01*
X023961Y010743D02*
X024544Y010743D01*
X024558Y010728D02*
X024558Y010728D01*
X024446Y010841D02*
X023863Y010841D01*
X025823Y012811D02*
X027577Y012811D01*
X027249Y013402D02*
X025942Y013402D01*
X025939Y013501D02*
X025843Y013501D01*
X025866Y013599D02*
X025745Y013599D01*
X025840Y013698D02*
X025646Y013698D01*
X025548Y013796D02*
X025848Y013796D01*
X025894Y013895D02*
X025449Y013895D01*
X025351Y013993D02*
X025930Y013993D01*
X025930Y014092D02*
X025252Y014092D01*
X025154Y014190D02*
X025930Y014190D01*
X025930Y014289D02*
X025170Y014289D01*
X025166Y014387D02*
X025930Y014387D01*
X025930Y014486D02*
X025125Y014486D01*
X025000Y014584D02*
X025930Y014584D01*
X025930Y014683D02*
X023951Y014683D01*
X023853Y014781D02*
X025998Y014781D01*
X026097Y014880D02*
X023754Y014880D01*
X023656Y014978D02*
X026195Y014978D01*
X026294Y015077D02*
X023557Y015077D01*
X023459Y015175D02*
X026340Y015175D01*
X026376Y015274D02*
X023360Y015274D01*
X023262Y015372D02*
X026462Y015372D01*
X026630Y015130D02*
X026130Y014630D01*
X026130Y013720D01*
X026394Y013599D02*
X026954Y013599D01*
X026855Y013698D02*
X026420Y013698D01*
X026412Y013796D02*
X026782Y013796D01*
X026725Y013895D02*
X026366Y013895D01*
X026330Y013993D02*
X026671Y013993D01*
X026645Y014092D02*
X026330Y014092D01*
X026330Y014190D02*
X026618Y014190D01*
X026600Y014289D02*
X026330Y014289D01*
X026330Y014387D02*
X026600Y014387D01*
X026600Y014486D02*
X026330Y014486D01*
X026367Y014584D02*
X026611Y014584D01*
X026638Y014683D02*
X026465Y014683D01*
X026564Y014781D02*
X026664Y014781D01*
X026920Y015175D02*
X026928Y015175D01*
X026884Y015274D02*
X027033Y015274D01*
X027204Y015372D02*
X026798Y015372D01*
X026600Y016550D02*
X026600Y020320D01*
X026680Y020400D01*
X019367Y019608D02*
X018393Y019608D01*
X018491Y019706D02*
X019269Y019706D01*
X019211Y019805D02*
X018549Y019805D01*
X018590Y019903D02*
X019170Y019903D01*
X019160Y020002D02*
X018600Y020002D01*
X018600Y020100D02*
X019160Y020100D01*
X019160Y020199D02*
X018600Y020199D01*
X018600Y020297D02*
X019160Y020297D01*
X019160Y020396D02*
X018600Y020396D01*
X018600Y020494D02*
X019160Y020494D01*
X019160Y020593D02*
X018600Y020593D01*
X018600Y020691D02*
X019160Y020691D01*
X019160Y020790D02*
X018600Y020790D01*
X018594Y020888D02*
X019166Y020888D01*
X015669Y019706D02*
X015491Y019706D01*
X015549Y019805D02*
X015611Y019805D01*
X024050Y014584D02*
X024760Y014584D01*
X024635Y014486D02*
X024148Y014486D01*
X024247Y014387D02*
X024594Y014387D01*
X024590Y014289D02*
X024345Y014289D01*
X024444Y014190D02*
X024620Y014190D01*
X024630Y014092D02*
X024542Y014092D01*
X024641Y013993D02*
X024658Y013993D01*
X024739Y013895D02*
X024742Y013895D01*
X024838Y013796D02*
X024840Y013796D01*
X024936Y013698D02*
X024939Y013698D01*
X025035Y013599D02*
X025037Y013599D01*
X025133Y013501D02*
X025136Y013501D01*
X025232Y013402D02*
X025234Y013402D01*
X025330Y013304D02*
X025333Y013304D01*
X025429Y013205D02*
X025431Y013205D01*
X025527Y013107D02*
X025530Y013107D01*
X025626Y013008D02*
X025628Y013008D01*
X025724Y012910D02*
X025727Y012910D01*
X026321Y013501D02*
X027078Y013501D01*
X029000Y009758D02*
X029029Y009758D01*
X030750Y008576D02*
X034720Y008576D01*
X034730Y008477D02*
X030838Y008477D01*
X030879Y008379D02*
X034781Y008379D01*
X035498Y007591D02*
X030735Y007591D01*
X030832Y007492D02*
X035399Y007492D01*
X035301Y007394D02*
X034846Y007394D01*
X034950Y007295D02*
X035202Y007295D01*
X035104Y007197D02*
X034990Y007197D01*
X034990Y007098D02*
X035005Y007098D01*
X034700Y007140D02*
X033260Y005700D01*
X028940Y005700D01*
X028120Y004880D01*
X025390Y004880D01*
X024020Y003510D01*
X022517Y004340D02*
X017504Y004340D01*
X017405Y004439D02*
X022419Y004439D01*
X022320Y004537D02*
X017307Y004537D01*
X017208Y004636D02*
X022222Y004636D01*
X022123Y004734D02*
X017110Y004734D01*
X017011Y004833D02*
X022025Y004833D01*
X021926Y004931D02*
X016913Y004931D01*
X016814Y005030D02*
X021828Y005030D01*
X021729Y005128D02*
X016716Y005128D01*
X016617Y005227D02*
X021631Y005227D01*
X021532Y005325D02*
X016519Y005325D01*
X016420Y005424D02*
X021434Y005424D01*
X021335Y005522D02*
X016322Y005522D01*
X016223Y005621D02*
X021237Y005621D01*
X021138Y005719D02*
X016125Y005719D01*
X016026Y005818D02*
X021040Y005818D01*
X020941Y005916D02*
X015928Y005916D01*
X015829Y006015D02*
X020843Y006015D01*
X020744Y006113D02*
X015731Y006113D01*
X015632Y006212D02*
X020646Y006212D01*
X020547Y006310D02*
X015534Y006310D01*
X015435Y006409D02*
X020449Y006409D01*
X020350Y006507D02*
X015337Y006507D01*
X015238Y006606D02*
X020252Y006606D01*
X020153Y006704D02*
X015140Y006704D01*
X015041Y006803D02*
X020055Y006803D01*
X019956Y006901D02*
X014943Y006901D01*
X014728Y006409D02*
X014643Y006409D01*
X014826Y006310D02*
X014826Y006310D01*
X014924Y006212D02*
X014925Y006212D01*
X015023Y006113D02*
X015023Y006113D01*
X015121Y006015D02*
X015122Y006015D01*
X015220Y005916D02*
X015220Y005916D01*
X015318Y005818D02*
X015319Y005818D01*
X015417Y005719D02*
X015417Y005719D01*
X015515Y005621D02*
X015516Y005621D01*
X015614Y005522D02*
X015614Y005522D01*
X015712Y005424D02*
X015713Y005424D01*
X015811Y005325D02*
X015811Y005325D01*
X015909Y005227D02*
X015910Y005227D01*
X016008Y005128D02*
X016008Y005128D01*
X016061Y005030D02*
X016107Y005030D01*
X016090Y004931D02*
X016205Y004931D01*
X016304Y004833D02*
X016090Y004833D01*
X016090Y004734D02*
X016402Y004734D01*
X016501Y004636D02*
X016090Y004636D01*
X016090Y004537D02*
X016599Y004537D01*
X016698Y004439D02*
X016090Y004439D01*
X016090Y004340D02*
X016796Y004340D01*
X016895Y004242D02*
X016090Y004242D01*
X016090Y004143D02*
X016993Y004143D01*
X017092Y004045D02*
X016090Y004045D01*
X016090Y003946D02*
X017190Y003946D01*
X017289Y003848D02*
X016090Y003848D01*
X016090Y003749D02*
X021665Y003749D01*
X021567Y003651D02*
X016090Y003651D01*
X016090Y003552D02*
X017168Y003552D01*
X017070Y003454D02*
X016090Y003454D01*
X016090Y003355D02*
X016971Y003355D01*
X016873Y003257D02*
X016090Y003257D01*
X016090Y003158D02*
X016774Y003158D01*
X016676Y003060D02*
X016090Y003060D01*
X016090Y002961D02*
X016577Y002961D01*
X016479Y002863D02*
X016090Y002863D01*
X016090Y002764D02*
X016432Y002764D01*
X016430Y002666D02*
X016090Y002666D01*
X016090Y002567D02*
X016430Y002567D01*
X016430Y002469D02*
X016090Y002469D01*
X016090Y002370D02*
X016430Y002370D01*
X016430Y002272D02*
X016090Y002272D01*
X016090Y002173D02*
X016348Y002173D01*
X016249Y002075D02*
X016111Y002075D01*
X016158Y001976D02*
X016202Y001976D01*
X016730Y001450D02*
X016680Y001400D01*
X017158Y001976D02*
X017201Y001976D01*
X017258Y002075D02*
X017111Y002075D01*
X017012Y002173D02*
X017350Y002173D01*
X017541Y002272D02*
X016930Y002272D01*
X016930Y002370D02*
X020650Y002370D01*
X020650Y002272D02*
X019828Y002272D01*
X020012Y002173D02*
X020650Y002173D01*
X020650Y002075D02*
X020111Y002075D01*
X020158Y001976D02*
X020650Y001976D01*
X020604Y001878D02*
X020198Y001878D01*
X020200Y001779D02*
X020505Y001779D01*
X020407Y001681D02*
X020200Y001681D01*
X019348Y002173D02*
X019010Y002173D01*
X019102Y002075D02*
X019249Y002075D01*
X019202Y001976D02*
X019159Y001976D01*
X018730Y001976D02*
X018630Y001976D01*
X018630Y001878D02*
X018730Y001878D01*
X018730Y001779D02*
X018630Y001779D01*
X018630Y001681D02*
X018730Y001681D01*
X018730Y001582D02*
X018630Y001582D01*
X018630Y001484D02*
X018730Y001484D01*
X018680Y001400D02*
X018530Y001550D01*
X018630Y001385D02*
X017730Y001385D01*
X017730Y001484D02*
X017630Y001484D01*
X017630Y001582D02*
X017730Y001582D01*
X017730Y001681D02*
X017630Y001681D01*
X017630Y001779D02*
X017730Y001779D01*
X017730Y001878D02*
X017630Y001878D01*
X017630Y001976D02*
X017730Y001976D01*
X017730Y002075D02*
X017630Y002075D01*
X017630Y002173D02*
X017730Y002173D01*
X017730Y002272D02*
X017630Y002272D01*
X017819Y002272D02*
X018541Y002272D01*
X018630Y002272D02*
X018730Y002272D01*
X018819Y002272D02*
X019532Y002272D01*
X018730Y002173D02*
X018630Y002173D01*
X018630Y002075D02*
X018730Y002075D01*
X018350Y002173D02*
X018010Y002173D01*
X018102Y002075D02*
X018258Y002075D01*
X018201Y001976D02*
X018159Y001976D01*
X016930Y002469D02*
X020650Y002469D01*
X020650Y002567D02*
X016930Y002567D01*
X016989Y002666D02*
X020650Y002666D01*
X020685Y002764D02*
X017088Y002764D01*
X017186Y002863D02*
X020779Y002863D01*
X020877Y002961D02*
X017285Y002961D01*
X017383Y003060D02*
X020976Y003060D01*
X021018Y003158D02*
X021074Y003158D01*
X021075Y003257D02*
X021173Y003257D01*
X021090Y003355D02*
X021271Y003355D01*
X021370Y003454D02*
X021071Y003454D01*
X021008Y003552D02*
X021468Y003552D01*
X025230Y002410D02*
X026160Y002410D01*
X026680Y001890D01*
X026680Y001400D01*
X028920Y003700D02*
X028260Y004360D01*
X026630Y004360D01*
X026350Y004080D01*
X028403Y004500D02*
X028895Y004500D01*
X028875Y004473D01*
X028838Y004400D01*
X028813Y004322D01*
X028801Y004250D01*
X029270Y004250D01*
X029270Y004150D01*
X028801Y004150D01*
X028811Y004092D01*
X028460Y004443D01*
X028403Y004500D01*
X028464Y004439D02*
X028858Y004439D01*
X028819Y004340D02*
X028563Y004340D01*
X028661Y004242D02*
X029270Y004242D01*
X029370Y004242D02*
X030340Y004242D01*
X030340Y004250D02*
X030340Y004150D01*
X029871Y004150D01*
X029883Y004078D01*
X029908Y004000D01*
X029945Y003927D01*
X029965Y003900D01*
X029745Y003900D01*
X029765Y003927D01*
X029802Y004000D01*
X029827Y004078D01*
X029839Y004150D01*
X029370Y004150D01*
X029370Y004250D01*
X029839Y004250D01*
X029827Y004322D01*
X029802Y004400D01*
X029765Y004473D01*
X029745Y004500D01*
X029965Y004500D01*
X029945Y004473D01*
X029908Y004400D01*
X029883Y004322D01*
X029871Y004250D01*
X030340Y004250D01*
X030440Y004250D02*
X030909Y004250D01*
X030897Y004322D01*
X030872Y004400D01*
X030835Y004473D01*
X030815Y004500D01*
X030909Y004500D01*
X030910Y004499D01*
X030991Y004500D01*
X031073Y004500D01*
X031074Y004501D01*
X031076Y004501D01*
X031132Y004560D01*
X031190Y004617D01*
X031190Y004619D01*
X031765Y005210D01*
X032037Y005210D01*
X030893Y004066D01*
X030897Y004078D01*
X030909Y004150D01*
X030440Y004150D01*
X030440Y004250D01*
X030440Y004242D02*
X031069Y004242D01*
X031167Y004340D02*
X030891Y004340D01*
X030852Y004439D02*
X031266Y004439D01*
X031364Y004537D02*
X031110Y004537D01*
X031206Y004636D02*
X031463Y004636D01*
X031561Y004734D02*
X031302Y004734D01*
X031398Y004833D02*
X031660Y004833D01*
X031758Y004931D02*
X031493Y004931D01*
X031589Y005030D02*
X031857Y005030D01*
X031955Y005128D02*
X031685Y005128D01*
X032240Y005130D02*
X033660Y005130D01*
X035040Y006510D01*
X036080Y006510D01*
X036390Y006200D01*
X035870Y006212D02*
X035024Y006212D01*
X035123Y006310D02*
X034772Y005959D01*
X034822Y005980D01*
X034938Y005980D01*
X035044Y005936D01*
X035126Y005854D01*
X035170Y005748D01*
X035170Y005683D01*
X035610Y005243D01*
X035610Y004080D01*
X035656Y004034D01*
X035700Y003928D01*
X035700Y003812D01*
X035656Y003706D01*
X035574Y003624D01*
X035468Y003580D01*
X035352Y003580D01*
X035246Y003624D01*
X035164Y003706D01*
X035120Y003812D01*
X035120Y003928D01*
X035164Y004034D01*
X035210Y004080D01*
X035210Y005077D01*
X034887Y005400D01*
X034822Y005400D01*
X034716Y005444D01*
X034634Y005526D01*
X034590Y005632D01*
X034590Y005748D01*
X034611Y005798D01*
X033743Y004930D01*
X032323Y004930D01*
X031010Y003617D01*
X031010Y003617D01*
X030893Y003500D01*
X030825Y003500D01*
X030831Y003495D01*
X030910Y003303D01*
X030910Y003097D01*
X030831Y002905D01*
X030685Y002759D01*
X030662Y002750D01*
X035586Y002750D01*
X035888Y003052D01*
X035870Y003097D01*
X035870Y003303D01*
X035949Y003495D01*
X036095Y003641D01*
X036242Y003701D01*
X036190Y003718D01*
X036117Y003755D01*
X036051Y003803D01*
X035993Y003861D01*
X035945Y003927D01*
X035908Y004000D01*
X035883Y004078D01*
X035871Y004150D01*
X036340Y004150D01*
X036340Y004250D01*
X035871Y004250D01*
X035883Y004322D01*
X035908Y004400D01*
X035945Y004473D01*
X035993Y004539D01*
X036051Y004597D01*
X036117Y004645D01*
X036190Y004682D01*
X036242Y004699D01*
X036095Y004759D01*
X035949Y004905D01*
X035870Y005097D01*
X035870Y005303D01*
X035949Y005495D01*
X036095Y005641D01*
X036238Y005700D01*
X036095Y005759D01*
X035949Y005905D01*
X035870Y006097D01*
X035870Y006303D01*
X035873Y006310D01*
X035123Y006310D01*
X034926Y006113D02*
X035870Y006113D01*
X035904Y006015D02*
X034827Y006015D01*
X035064Y005916D02*
X035945Y005916D01*
X036037Y005818D02*
X035141Y005818D01*
X035170Y005719D02*
X036192Y005719D01*
X036075Y005621D02*
X035232Y005621D01*
X035331Y005522D02*
X035977Y005522D01*
X035920Y005424D02*
X035429Y005424D01*
X035528Y005325D02*
X035879Y005325D01*
X035870Y005227D02*
X035610Y005227D01*
X035610Y005128D02*
X035870Y005128D01*
X035898Y005030D02*
X035610Y005030D01*
X035610Y004931D02*
X035939Y004931D01*
X036022Y004833D02*
X035610Y004833D01*
X035610Y004734D02*
X036156Y004734D01*
X036105Y004636D02*
X035610Y004636D01*
X035610Y004537D02*
X035992Y004537D01*
X035928Y004439D02*
X035610Y004439D01*
X035610Y004340D02*
X035889Y004340D01*
X035873Y004143D02*
X035610Y004143D01*
X035610Y004242D02*
X036340Y004242D01*
X036440Y004242D02*
X037410Y004242D01*
X037410Y004250D02*
X037410Y004150D01*
X036941Y004150D01*
X036953Y004078D01*
X036978Y004000D01*
X037015Y003927D01*
X037063Y003861D01*
X037121Y003803D01*
X037187Y003755D01*
X037260Y003718D01*
X037312Y003701D01*
X037165Y003641D01*
X037075Y003550D01*
X036775Y003550D01*
X036685Y003641D01*
X036538Y003701D01*
X036590Y003718D01*
X036663Y003755D01*
X036729Y003803D01*
X036787Y003861D01*
X036835Y003927D01*
X036872Y004000D01*
X036897Y004078D01*
X036909Y004150D01*
X036440Y004150D01*
X036440Y004250D01*
X036909Y004250D01*
X036897Y004322D01*
X036872Y004400D01*
X036835Y004473D01*
X036787Y004539D01*
X036729Y004597D01*
X036663Y004645D01*
X036590Y004682D01*
X036538Y004699D01*
X036685Y004759D01*
X036775Y004850D01*
X037075Y004850D01*
X037165Y004759D01*
X037312Y004699D01*
X037260Y004682D01*
X037187Y004645D01*
X037121Y004597D01*
X037063Y004539D01*
X037015Y004473D01*
X036978Y004400D01*
X036953Y004322D01*
X036941Y004250D01*
X037410Y004250D01*
X037062Y004537D02*
X036788Y004537D01*
X036852Y004439D02*
X036998Y004439D01*
X036959Y004340D02*
X036891Y004340D01*
X036907Y004143D02*
X036943Y004143D01*
X036964Y004045D02*
X036886Y004045D01*
X036844Y003946D02*
X037006Y003946D01*
X037077Y003848D02*
X036773Y003848D01*
X036650Y003749D02*
X037200Y003749D01*
X037189Y003651D02*
X036661Y003651D01*
X036773Y003552D02*
X037077Y003552D01*
X036119Y003651D02*
X035601Y003651D01*
X035674Y003749D02*
X036130Y003749D01*
X036007Y003848D02*
X035700Y003848D01*
X035692Y003946D02*
X035936Y003946D01*
X035894Y004045D02*
X035646Y004045D01*
X035410Y003870D02*
X035410Y005160D01*
X034880Y005690D01*
X034766Y005424D02*
X034236Y005424D01*
X034335Y005522D02*
X034638Y005522D01*
X034595Y005621D02*
X034433Y005621D01*
X034532Y005719D02*
X034590Y005719D01*
X034962Y005325D02*
X034138Y005325D01*
X034039Y005227D02*
X035061Y005227D01*
X035159Y005128D02*
X033941Y005128D01*
X033842Y005030D02*
X035210Y005030D01*
X035210Y004931D02*
X033744Y004931D01*
X033204Y004176D02*
X033098Y004220D01*
X032982Y004220D01*
X032876Y004176D01*
X032794Y004094D01*
X032750Y003988D01*
X032750Y003872D01*
X032794Y003766D01*
X032876Y003684D01*
X032982Y003640D01*
X033047Y003640D01*
X033537Y003150D01*
X034280Y003150D01*
X034326Y003104D01*
X034432Y003060D01*
X034548Y003060D01*
X034654Y003104D01*
X034736Y003186D01*
X034780Y003292D01*
X034780Y003408D01*
X034736Y003514D01*
X034654Y003596D01*
X034548Y003640D01*
X034432Y003640D01*
X034326Y003596D01*
X034280Y003550D01*
X033703Y003550D01*
X033330Y003923D01*
X033330Y003988D01*
X033286Y004094D01*
X033204Y004176D01*
X033237Y004143D02*
X035210Y004143D01*
X035210Y004242D02*
X031634Y004242D01*
X031733Y004340D02*
X035210Y004340D01*
X035210Y004439D02*
X031831Y004439D01*
X031930Y004537D02*
X035210Y004537D01*
X035210Y004636D02*
X032028Y004636D01*
X032127Y004734D02*
X035210Y004734D01*
X035210Y004833D02*
X032225Y004833D01*
X032240Y005130D02*
X030810Y003700D01*
X028920Y003700D01*
X028803Y004143D02*
X028760Y004143D01*
X029774Y003946D02*
X029936Y003946D01*
X029894Y004045D02*
X029816Y004045D01*
X029837Y004143D02*
X029873Y004143D01*
X029889Y004340D02*
X029821Y004340D01*
X029782Y004439D02*
X029928Y004439D01*
X030907Y004143D02*
X030970Y004143D01*
X031240Y003848D02*
X032760Y003848D01*
X032750Y003946D02*
X031339Y003946D01*
X031437Y004045D02*
X032774Y004045D01*
X032843Y004143D02*
X031536Y004143D01*
X031142Y003749D02*
X032811Y003749D01*
X032957Y003651D02*
X031043Y003651D01*
X030945Y003552D02*
X033135Y003552D01*
X033234Y003454D02*
X030848Y003454D01*
X030889Y003355D02*
X033332Y003355D01*
X033431Y003257D02*
X030910Y003257D01*
X030910Y003158D02*
X033529Y003158D01*
X033620Y003350D02*
X033040Y003930D01*
X033306Y004045D02*
X035174Y004045D01*
X035128Y003946D02*
X033330Y003946D01*
X033405Y003848D02*
X035120Y003848D01*
X035146Y003749D02*
X033504Y003749D01*
X033602Y003651D02*
X035219Y003651D01*
X034761Y003454D02*
X035932Y003454D01*
X035891Y003355D02*
X034780Y003355D01*
X034765Y003257D02*
X035870Y003257D01*
X035870Y003158D02*
X034708Y003158D01*
X034490Y003350D02*
X033620Y003350D01*
X033701Y003552D02*
X034282Y003552D01*
X034698Y003552D02*
X036007Y003552D01*
X035885Y003060D02*
X030895Y003060D01*
X030854Y002961D02*
X035797Y002961D01*
X035699Y002863D02*
X030788Y002863D01*
X030689Y002764D02*
X035600Y002764D01*
X036675Y004636D02*
X037175Y004636D01*
X037226Y004734D02*
X036624Y004734D01*
X036758Y004833D02*
X037092Y004833D01*
X033883Y006606D02*
X030720Y006606D01*
X030818Y006507D02*
X033784Y006507D01*
X033686Y006409D02*
X030866Y006409D01*
X030907Y006310D02*
X033587Y006310D01*
X033489Y006212D02*
X030910Y006212D01*
X030910Y006113D02*
X033390Y006113D01*
X033292Y006015D02*
X030876Y006015D01*
X030835Y005916D02*
X033193Y005916D01*
X033981Y006704D02*
X030551Y006704D01*
X030728Y006803D02*
X034080Y006803D01*
X034178Y006901D02*
X030826Y006901D01*
X030870Y007000D02*
X034277Y007000D01*
X034375Y007098D02*
X030910Y007098D01*
X030910Y007197D02*
X034410Y007197D01*
X034450Y007295D02*
X030910Y007295D01*
X030873Y007394D02*
X034554Y007394D01*
X035596Y007689D02*
X030568Y007689D01*
X030713Y007788D02*
X035695Y007788D01*
X035793Y007886D02*
X030811Y007886D01*
X019858Y007000D02*
X010684Y007000D01*
X010586Y007098D02*
X019759Y007098D01*
X019661Y007197D02*
X010487Y007197D01*
X010389Y007295D02*
X019562Y007295D01*
X019464Y007394D02*
X010290Y007394D01*
X010192Y007492D02*
X019365Y007492D01*
X019267Y007591D02*
X010093Y007591D01*
X009995Y007689D02*
X019168Y007689D01*
X019070Y007788D02*
X009896Y007788D01*
X009798Y007886D02*
X018971Y007886D01*
X018873Y007985D02*
X009699Y007985D01*
X009601Y008083D02*
X018774Y008083D01*
X018676Y008182D02*
X009502Y008182D01*
X009404Y008280D02*
X018577Y008280D01*
X018479Y008379D02*
X009305Y008379D01*
X009294Y008477D02*
X018380Y008477D01*
X018282Y008576D02*
X009294Y008576D01*
X009294Y008674D02*
X018183Y008674D01*
X018085Y008773D02*
X009294Y008773D01*
X009294Y008871D02*
X017986Y008871D01*
X017888Y008970D02*
X009294Y008970D01*
X009294Y009068D02*
X017789Y009068D01*
X017691Y009167D02*
X009294Y009167D01*
X009294Y009265D02*
X017592Y009265D01*
X017494Y009364D02*
X009294Y009364D01*
X009294Y009462D02*
X017395Y009462D01*
X017297Y009561D02*
X009294Y009561D01*
X009294Y009659D02*
X017198Y009659D01*
X017100Y009758D02*
X009294Y009758D01*
X009294Y009856D02*
X017001Y009856D01*
X016903Y009955D02*
X009294Y009955D01*
X009294Y010053D02*
X016804Y010053D01*
X016706Y010152D02*
X009294Y010152D01*
X009294Y010250D02*
X016607Y010250D01*
X016509Y010349D02*
X009294Y010349D01*
X009294Y010447D02*
X016410Y010447D01*
X016312Y010546D02*
X009294Y010546D01*
X009308Y010644D02*
X016213Y010644D01*
X016115Y010743D02*
X009431Y010743D01*
X009513Y010841D02*
X016016Y010841D01*
X015918Y010940D02*
X009554Y010940D01*
X009584Y011038D02*
X015819Y011038D01*
X015721Y011137D02*
X009584Y011137D01*
X009580Y011235D02*
X015622Y011235D01*
X015524Y011334D02*
X009539Y011334D01*
X009494Y011432D02*
X015425Y011432D01*
X015327Y011531D02*
X009396Y011531D01*
X009223Y011629D02*
X015228Y011629D01*
X008779Y010644D02*
X006594Y010644D01*
X006495Y010546D02*
X008794Y010546D01*
X008794Y010447D02*
X006397Y010447D01*
X006298Y010349D02*
X008794Y010349D01*
X008794Y010250D02*
X006200Y010250D01*
X006101Y010152D02*
X008794Y010152D01*
X008794Y010053D02*
X006003Y010053D01*
X005904Y009955D02*
X008794Y009955D01*
X008771Y007591D02*
X003710Y007591D01*
X003611Y007492D02*
X007513Y007492D01*
X007368Y007394D02*
X003437Y007394D01*
X003596Y007295D02*
X007269Y007295D01*
X007171Y007197D02*
X003691Y007197D01*
X003749Y007098D02*
X007072Y007098D01*
X006974Y007000D02*
X003781Y007000D01*
X003107Y007394D02*
X002180Y007394D01*
X003696Y004537D02*
X005494Y004537D01*
X005428Y004439D02*
X003990Y004439D01*
X004144Y004340D02*
X005270Y004340D01*
X005172Y004242D02*
X004253Y004242D01*
X004337Y004143D02*
X005073Y004143D01*
X005016Y004045D02*
X004401Y004045D01*
X004450Y003946D02*
X004976Y003946D01*
X004935Y003848D02*
X004487Y003848D01*
X004512Y003749D02*
X004894Y003749D01*
X004894Y003651D02*
X004526Y003651D01*
X004433Y002666D02*
X004001Y002666D01*
X004195Y002567D02*
X003722Y002567D01*
X002537Y003651D02*
X002180Y003651D01*
X002180Y003749D02*
X002551Y003749D01*
X002576Y003848D02*
X002180Y003848D01*
X002180Y003946D02*
X002613Y003946D01*
X002662Y004045D02*
X002180Y004045D01*
X002180Y004143D02*
X002726Y004143D01*
X002810Y004242D02*
X002180Y004242D01*
X002180Y004340D02*
X002919Y004340D01*
X003073Y004439D02*
X002180Y004439D01*
X007711Y006606D02*
X008872Y006606D01*
X008695Y006704D02*
X007810Y006704D01*
X010187Y002961D02*
X013003Y002961D01*
X013102Y002863D02*
X010160Y002863D01*
X010160Y002764D02*
X010701Y002764D01*
X010730Y002764D02*
X010830Y002764D01*
X010859Y002764D02*
X013200Y002764D01*
X013270Y002666D02*
X011093Y002666D01*
X011192Y002567D02*
X013270Y002567D01*
X013270Y002469D02*
X011252Y002469D01*
X011287Y002370D02*
X013270Y002370D01*
X013270Y002272D02*
X012828Y002272D01*
X013012Y002173D02*
X013270Y002173D01*
X013249Y002075D02*
X013111Y002075D01*
X013158Y001976D02*
X013202Y001976D01*
X012532Y002272D02*
X010830Y002272D01*
X010830Y002370D02*
X010730Y002370D01*
X010730Y002469D02*
X010830Y002469D01*
X010830Y002567D02*
X010730Y002567D01*
X010730Y002666D02*
X010830Y002666D01*
X010467Y002666D02*
X010160Y002666D01*
X010198Y002567D02*
X010368Y002567D01*
X010308Y002469D02*
X010252Y002469D01*
X010270Y002075D02*
X010290Y002075D01*
X010336Y001976D02*
X010229Y001976D01*
X010143Y001878D02*
X010417Y001878D01*
X010559Y001779D02*
X010002Y001779D01*
X010730Y001779D02*
X010830Y001779D01*
X010830Y001878D02*
X010730Y001878D01*
X010730Y001976D02*
X010830Y001976D01*
X010830Y002075D02*
X010730Y002075D01*
X010730Y002173D02*
X010830Y002173D01*
X011001Y001779D02*
X012160Y001779D01*
X012162Y001878D02*
X011143Y001878D01*
X011224Y001976D02*
X012202Y001976D01*
X012249Y002075D02*
X011270Y002075D01*
X011294Y002173D02*
X012348Y002173D01*
X014070Y002173D02*
X014348Y002173D01*
X014249Y002075D02*
X014111Y002075D01*
X014158Y001976D02*
X014202Y001976D01*
D21*
X018680Y001400D02*
X018720Y001440D01*
X018720Y002570D01*
X018990Y002840D01*
X020450Y002840D01*
D22*
X013680Y001400D02*
X013670Y001410D01*
D23*
X035840Y015750D02*
X036390Y015200D01*
X035840Y015750D02*
X026040Y015750D01*
X022670Y019110D01*
X022670Y020390D01*
X022680Y020400D01*
X023680Y020400D02*
X023740Y020340D01*
X023740Y018440D01*
X025080Y017100D01*
X026200Y017100D01*
D24*
X021680Y020400D02*
X021660Y020380D01*
D25*
X035630Y013240D03*
D26*
X023680Y002660D03*
X023200Y002180D03*
X025230Y002410D03*
M02*
