G75*
%MOIN*%
%OFA0B0*%
%FSLAX24Y24*%
%IPPOS*%
%LPD*%
%AMOC8*
5,1,8,0,0,1.08239X$1,22.5*
%
%ADD10C,0.0000*%
%ADD11C,0.0100*%
%ADD12C,0.0110*%
%ADD13R,0.0048X0.0004*%
%ADD14R,0.0096X0.0004*%
%ADD15R,0.0120X0.0004*%
%ADD16R,0.0144X0.0004*%
%ADD17R,0.0160X0.0004*%
%ADD18R,0.0176X0.0004*%
%ADD19R,0.0192X0.0004*%
%ADD20R,0.0208X0.0004*%
%ADD21R,0.0216X0.0004*%
%ADD22R,0.0228X0.0004*%
%ADD23R,0.0240X0.0004*%
%ADD24R,0.0248X0.0004*%
%ADD25R,0.0256X0.0004*%
%ADD26R,0.0264X0.0004*%
%ADD27R,0.0272X0.0004*%
%ADD28R,0.0280X0.0004*%
%ADD29R,0.0288X0.0004*%
%ADD30R,0.0296X0.0004*%
%ADD31R,0.0304X0.0004*%
%ADD32R,0.0308X0.0004*%
%ADD33R,0.0316X0.0004*%
%ADD34R,0.0324X0.0004*%
%ADD35R,0.0328X0.0004*%
%ADD36R,0.0336X0.0004*%
%ADD37R,0.0344X0.0004*%
%ADD38R,0.0348X0.0004*%
%ADD39R,0.0356X0.0004*%
%ADD40R,0.0360X0.0004*%
%ADD41R,0.0368X0.0004*%
%ADD42R,0.0372X0.0004*%
%ADD43R,0.0380X0.0004*%
%ADD44R,0.0384X0.0004*%
%ADD45R,0.0388X0.0004*%
%ADD46R,0.0396X0.0004*%
%ADD47R,0.0400X0.0004*%
%ADD48R,0.0404X0.0004*%
%ADD49R,0.0408X0.0004*%
%ADD50R,0.0416X0.0004*%
%ADD51R,0.0420X0.0004*%
%ADD52R,0.0424X0.0004*%
%ADD53R,0.0428X0.0004*%
%ADD54R,0.0432X0.0004*%
%ADD55R,0.0436X0.0004*%
%ADD56R,0.0444X0.0004*%
%ADD57R,0.0448X0.0004*%
%ADD58R,0.0452X0.0004*%
%ADD59R,0.0456X0.0004*%
%ADD60R,0.0460X0.0004*%
%ADD61R,0.0464X0.0004*%
%ADD62R,0.0468X0.0004*%
%ADD63R,0.0472X0.0004*%
%ADD64R,0.0476X0.0004*%
%ADD65R,0.0480X0.0004*%
%ADD66R,0.0484X0.0004*%
%ADD67R,0.0492X0.0004*%
%ADD68R,0.0496X0.0004*%
%ADD69R,0.0504X0.0004*%
%ADD70R,0.0508X0.0004*%
%ADD71R,0.0512X0.0004*%
%ADD72R,0.0516X0.0004*%
%ADD73R,0.0520X0.0004*%
%ADD74R,0.0524X0.0004*%
%ADD75R,0.0524X0.0004*%
%ADD76R,0.0528X0.0004*%
%ADD77R,0.0532X0.0004*%
%ADD78R,0.0532X0.0004*%
%ADD79R,0.0536X0.0004*%
%ADD80R,0.0540X0.0004*%
%ADD81R,0.0540X0.0004*%
%ADD82R,0.0544X0.0004*%
%ADD83R,0.0544X0.0004*%
%ADD84R,0.0132X0.0004*%
%ADD85R,0.0188X0.0004*%
%ADD86R,0.0236X0.0004*%
%ADD87R,0.0268X0.0004*%
%ADD88R,0.0308X0.0004*%
%ADD89R,0.0332X0.0004*%
%ADD90R,0.0384X0.0004*%
%ADD91R,0.0404X0.0004*%
%ADD92R,0.0452X0.0004*%
%ADD93R,0.0508X0.0004*%
%ADD94R,0.0524X0.0004*%
%ADD95R,0.0556X0.0004*%
%ADD96R,0.0572X0.0004*%
%ADD97R,0.0580X0.0004*%
%ADD98R,0.0596X0.0004*%
%ADD99R,0.0612X0.0004*%
%ADD100R,0.0628X0.0004*%
%ADD101R,0.0636X0.0004*%
%ADD102R,0.0652X0.0004*%
%ADD103R,0.0660X0.0004*%
%ADD104R,0.0676X0.0004*%
%ADD105R,0.0684X0.0004*%
%ADD106R,0.0700X0.0004*%
%ADD107R,0.0708X0.0004*%
%ADD108R,0.0716X0.0004*%
%ADD109R,0.0732X0.0004*%
%ADD110R,0.0740X0.0004*%
%ADD111R,0.0748X0.0004*%
%ADD112R,0.0760X0.0004*%
%ADD113R,0.0772X0.0004*%
%ADD114R,0.0780X0.0004*%
%ADD115R,0.0788X0.0004*%
%ADD116R,0.0796X0.0004*%
%ADD117R,0.0804X0.0004*%
%ADD118R,0.0812X0.0004*%
%ADD119R,0.0824X0.0004*%
%ADD120R,0.0836X0.0004*%
%ADD121R,0.0844X0.0004*%
%ADD122R,0.0852X0.0004*%
%ADD123R,0.0860X0.0004*%
%ADD124R,0.0868X0.0004*%
%ADD125R,0.0872X0.0004*%
%ADD126R,0.0876X0.0004*%
%ADD127R,0.0884X0.0004*%
%ADD128R,0.0892X0.0004*%
%ADD129R,0.0900X0.0004*%
%ADD130R,0.0908X0.0004*%
%ADD131R,0.0916X0.0004*%
%ADD132R,0.0924X0.0004*%
%ADD133R,0.0932X0.0004*%
%ADD134R,0.0932X0.0004*%
%ADD135R,0.0940X0.0004*%
%ADD136R,0.0948X0.0004*%
%ADD137R,0.0956X0.0004*%
%ADD138R,0.0960X0.0004*%
%ADD139R,0.0964X0.0004*%
%ADD140R,0.0972X0.0004*%
%ADD141R,0.0980X0.0004*%
%ADD142R,0.0988X0.0004*%
%ADD143R,0.0996X0.0004*%
%ADD144R,0.1004X0.0004*%
%ADD145R,0.1012X0.0004*%
%ADD146R,0.1012X0.0004*%
%ADD147R,0.1020X0.0004*%
%ADD148R,0.1028X0.0004*%
%ADD149R,0.1036X0.0004*%
%ADD150R,0.1036X0.0004*%
%ADD151R,0.1044X0.0004*%
%ADD152R,0.1052X0.0004*%
%ADD153R,0.1060X0.0004*%
%ADD154R,0.1060X0.0004*%
%ADD155R,0.1068X0.0004*%
%ADD156R,0.1076X0.0004*%
%ADD157R,0.1084X0.0004*%
%ADD158R,0.1084X0.0004*%
%ADD159R,0.1092X0.0004*%
%ADD160R,0.1100X0.0004*%
%ADD161R,0.1100X0.0004*%
%ADD162R,0.1108X0.0004*%
%ADD163R,0.1116X0.0004*%
%ADD164R,0.1116X0.0004*%
%ADD165R,0.1120X0.0004*%
%ADD166R,0.1124X0.0004*%
%ADD167R,0.1132X0.0004*%
%ADD168R,0.1132X0.0004*%
%ADD169R,0.1140X0.0004*%
%ADD170R,0.1148X0.0004*%
%ADD171R,0.1148X0.0004*%
%ADD172R,0.1156X0.0004*%
%ADD173R,0.1156X0.0004*%
%ADD174R,0.1164X0.0004*%
%ADD175R,0.1164X0.0004*%
%ADD176R,0.1172X0.0004*%
%ADD177R,0.1180X0.0004*%
%ADD178R,0.1180X0.0004*%
%ADD179R,0.0536X0.0004*%
%ADD180R,0.1184X0.0004*%
%ADD181R,0.1188X0.0004*%
%ADD182R,0.1188X0.0004*%
%ADD183R,0.1192X0.0004*%
%ADD184R,0.1196X0.0004*%
%ADD185R,0.0512X0.0004*%
%ADD186R,0.1196X0.0004*%
%ADD187R,0.0512X0.0004*%
%ADD188R,0.0500X0.0004*%
%ADD189R,0.0492X0.0004*%
%ADD190R,0.0488X0.0004*%
%ADD191R,0.1204X0.0004*%
%ADD192R,0.0484X0.0004*%
%ADD193R,0.1200X0.0004*%
%ADD194R,0.0472X0.0004*%
%ADD195R,0.0464X0.0004*%
%ADD196R,0.1204X0.0004*%
%ADD197R,0.1200X0.0004*%
%ADD198R,0.0516X0.0004*%
%ADD199R,0.0528X0.0004*%
%ADD200R,0.0532X0.0004*%
%ADD201R,0.1172X0.0004*%
%ADD202R,0.1160X0.0004*%
%ADD203R,0.1044X0.0004*%
%ADD204R,0.1020X0.0004*%
%ADD205R,0.0988X0.0004*%
%ADD206R,0.0968X0.0004*%
%ADD207R,0.0964X0.0004*%
%ADD208R,0.0904X0.0004*%
%ADD209R,0.0900X0.0004*%
%ADD210R,0.0892X0.0004*%
%ADD211R,0.0828X0.0004*%
%ADD212R,0.0820X0.0004*%
%ADD213R,0.0812X0.0004*%
%ADD214R,0.0792X0.0004*%
%ADD215R,0.0764X0.0004*%
%ADD216R,0.0756X0.0004*%
%ADD217R,0.0744X0.0004*%
%ADD218R,0.0724X0.0004*%
%ADD219R,0.0716X0.0004*%
%ADD220R,0.0692X0.0004*%
%ADD221R,0.0668X0.0004*%
%ADD222R,0.0644X0.0004*%
%ADD223R,0.0616X0.0004*%
%ADD224R,0.0604X0.0004*%
%ADD225R,0.0588X0.0004*%
%ADD226R,0.0492X0.0004*%
%ADD227R,0.0436X0.0004*%
%ADD228R,0.0412X0.0004*%
%ADD229R,0.0372X0.0004*%
%ADD230R,0.0340X0.0004*%
%ADD231R,0.0284X0.0004*%
%ADD232R,0.0252X0.0004*%
%ADD233R,0.0212X0.0004*%
%ADD234R,0.0156X0.0004*%
%ADD235R,0.0068X0.0004*%
%ADD236R,0.0084X0.0004*%
%ADD237R,0.0164X0.0004*%
%ADD238R,0.0212X0.0004*%
%ADD239R,0.0316X0.0004*%
%ADD240R,0.0348X0.0004*%
%ADD241R,0.0372X0.0004*%
%ADD242R,0.0476X0.0004*%
%ADD243R,0.0548X0.0004*%
%ADD244R,0.0564X0.0004*%
%ADD245R,0.0576X0.0004*%
%ADD246R,0.0604X0.0004*%
%ADD247R,0.0620X0.0004*%
%ADD248R,0.0628X0.0004*%
%ADD249R,0.0656X0.0004*%
%ADD250R,0.0668X0.0004*%
%ADD251R,0.0680X0.0004*%
%ADD252R,0.0692X0.0004*%
%ADD253R,0.0724X0.0004*%
%ADD254R,0.0748X0.0004*%
%ADD255R,0.0772X0.0004*%
%ADD256R,0.0796X0.0004*%
%ADD257R,0.0820X0.0004*%
%ADD258R,0.0836X0.0004*%
%ADD259R,0.0860X0.0004*%
%ADD260R,0.0876X0.0004*%
%ADD261R,0.0908X0.0004*%
%ADD262R,0.0948X0.0004*%
%ADD263R,0.0972X0.0004*%
%ADD264R,0.1004X0.0004*%
%ADD265R,0.1028X0.0004*%
%ADD266R,0.1032X0.0004*%
%ADD267R,0.1052X0.0004*%
%ADD268R,0.1072X0.0004*%
%ADD269R,0.1092X0.0004*%
%ADD270R,0.1108X0.0004*%
%ADD271R,0.1112X0.0004*%
%ADD272R,0.1124X0.0004*%
%ADD273R,0.1136X0.0004*%
%ADD274R,0.1140X0.0004*%
%ADD275R,0.1144X0.0004*%
%ADD276R,0.0520X0.0004*%
%ADD277R,0.0500X0.0004*%
%ADD278R,0.0472X0.0004*%
%ADD279R,0.0488X0.0004*%
%ADD280R,0.0504X0.0004*%
%ADD281R,0.1192X0.0004*%
%ADD282R,0.1184X0.0004*%
%ADD283R,0.1176X0.0004*%
%ADD284R,0.1076X0.0004*%
%ADD285R,0.1048X0.0004*%
%ADD286R,0.0980X0.0004*%
%ADD287R,0.0928X0.0004*%
%ADD288R,0.0916X0.0004*%
%ADD289R,0.0696X0.0004*%
%ADD290R,0.0660X0.0004*%
%ADD291R,0.0636X0.0004*%
%ADD292R,0.0596X0.0004*%
%ADD293R,0.0552X0.0004*%
%ADD294R,0.0484X0.0004*%
%ADD295R,0.0428X0.0004*%
%ADD296R,0.0300X0.0004*%
%ADD297R,0.0228X0.0004*%
%ADD298R,0.0124X0.0004*%
%ADD299R,0.0480X0.0004*%
%ADD300R,0.0444X0.0004*%
%ADD301R,0.0432X0.0004*%
%ADD302R,0.0420X0.0004*%
%ADD303R,0.0396X0.0004*%
%ADD304R,0.0376X0.0004*%
%ADD305R,0.0368X0.0004*%
%ADD306R,0.0336X0.0004*%
%ADD307R,0.0324X0.0004*%
%ADD308R,0.0304X0.0004*%
%ADD309R,0.0280X0.0004*%
%ADD310R,0.0272X0.0004*%
%ADD311R,0.0264X0.0004*%
%ADD312R,0.0240X0.0004*%
%ADD313R,0.0216X0.0004*%
%ADD314R,0.0204X0.0004*%
%ADD315R,0.0192X0.0004*%
%ADD316R,0.0176X0.0004*%
%ADD317R,0.0140X0.0004*%
%ADD318R,0.0092X0.0004*%
%ADD319R,0.0044X0.0004*%
D10*
X006550Y001400D02*
X006552Y001450D01*
X006558Y001500D01*
X006568Y001549D01*
X006582Y001597D01*
X006599Y001644D01*
X006620Y001689D01*
X006645Y001733D01*
X006673Y001774D01*
X006705Y001813D01*
X006739Y001850D01*
X006776Y001884D01*
X006816Y001914D01*
X006858Y001941D01*
X006902Y001965D01*
X006948Y001986D01*
X006995Y002002D01*
X007043Y002015D01*
X007093Y002024D01*
X007142Y002029D01*
X007193Y002030D01*
X007243Y002027D01*
X007292Y002020D01*
X007341Y002009D01*
X007389Y001994D01*
X007435Y001976D01*
X007480Y001954D01*
X007523Y001928D01*
X007564Y001899D01*
X007603Y001867D01*
X007639Y001832D01*
X007671Y001794D01*
X007701Y001754D01*
X007728Y001711D01*
X007751Y001667D01*
X007770Y001621D01*
X007786Y001573D01*
X007798Y001524D01*
X007806Y001475D01*
X007810Y001425D01*
X007810Y001375D01*
X007806Y001325D01*
X007798Y001276D01*
X007786Y001227D01*
X007770Y001179D01*
X007751Y001133D01*
X007728Y001089D01*
X007701Y001046D01*
X007671Y001006D01*
X007639Y000968D01*
X007603Y000933D01*
X007564Y000901D01*
X007523Y000872D01*
X007480Y000846D01*
X007435Y000824D01*
X007389Y000806D01*
X007341Y000791D01*
X007292Y000780D01*
X007243Y000773D01*
X007193Y000770D01*
X007142Y000771D01*
X007093Y000776D01*
X007043Y000785D01*
X006995Y000798D01*
X006948Y000814D01*
X006902Y000835D01*
X006858Y000859D01*
X006816Y000886D01*
X006776Y000916D01*
X006739Y000950D01*
X006705Y000987D01*
X006673Y001026D01*
X006645Y001067D01*
X006620Y001111D01*
X006599Y001156D01*
X006582Y001203D01*
X006568Y001251D01*
X006558Y001300D01*
X006552Y001350D01*
X006550Y001400D01*
X027050Y003400D02*
X027052Y003450D01*
X027058Y003500D01*
X027068Y003549D01*
X027082Y003597D01*
X027099Y003644D01*
X027120Y003689D01*
X027145Y003733D01*
X027173Y003774D01*
X027205Y003813D01*
X027239Y003850D01*
X027276Y003884D01*
X027316Y003914D01*
X027358Y003941D01*
X027402Y003965D01*
X027448Y003986D01*
X027495Y004002D01*
X027543Y004015D01*
X027593Y004024D01*
X027642Y004029D01*
X027693Y004030D01*
X027743Y004027D01*
X027792Y004020D01*
X027841Y004009D01*
X027889Y003994D01*
X027935Y003976D01*
X027980Y003954D01*
X028023Y003928D01*
X028064Y003899D01*
X028103Y003867D01*
X028139Y003832D01*
X028171Y003794D01*
X028201Y003754D01*
X028228Y003711D01*
X028251Y003667D01*
X028270Y003621D01*
X028286Y003573D01*
X028298Y003524D01*
X028306Y003475D01*
X028310Y003425D01*
X028310Y003375D01*
X028306Y003325D01*
X028298Y003276D01*
X028286Y003227D01*
X028270Y003179D01*
X028251Y003133D01*
X028228Y003089D01*
X028201Y003046D01*
X028171Y003006D01*
X028139Y002968D01*
X028103Y002933D01*
X028064Y002901D01*
X028023Y002872D01*
X027980Y002846D01*
X027935Y002824D01*
X027889Y002806D01*
X027841Y002791D01*
X027792Y002780D01*
X027743Y002773D01*
X027693Y002770D01*
X027642Y002771D01*
X027593Y002776D01*
X027543Y002785D01*
X027495Y002798D01*
X027448Y002814D01*
X027402Y002835D01*
X027358Y002859D01*
X027316Y002886D01*
X027276Y002916D01*
X027239Y002950D01*
X027205Y002987D01*
X027173Y003026D01*
X027145Y003067D01*
X027120Y003111D01*
X027099Y003156D01*
X027082Y003203D01*
X027068Y003251D01*
X027058Y003300D01*
X027052Y003350D01*
X027050Y003400D01*
X027050Y014400D02*
X027052Y014450D01*
X027058Y014500D01*
X027068Y014549D01*
X027082Y014597D01*
X027099Y014644D01*
X027120Y014689D01*
X027145Y014733D01*
X027173Y014774D01*
X027205Y014813D01*
X027239Y014850D01*
X027276Y014884D01*
X027316Y014914D01*
X027358Y014941D01*
X027402Y014965D01*
X027448Y014986D01*
X027495Y015002D01*
X027543Y015015D01*
X027593Y015024D01*
X027642Y015029D01*
X027693Y015030D01*
X027743Y015027D01*
X027792Y015020D01*
X027841Y015009D01*
X027889Y014994D01*
X027935Y014976D01*
X027980Y014954D01*
X028023Y014928D01*
X028064Y014899D01*
X028103Y014867D01*
X028139Y014832D01*
X028171Y014794D01*
X028201Y014754D01*
X028228Y014711D01*
X028251Y014667D01*
X028270Y014621D01*
X028286Y014573D01*
X028298Y014524D01*
X028306Y014475D01*
X028310Y014425D01*
X028310Y014375D01*
X028306Y014325D01*
X028298Y014276D01*
X028286Y014227D01*
X028270Y014179D01*
X028251Y014133D01*
X028228Y014089D01*
X028201Y014046D01*
X028171Y014006D01*
X028139Y013968D01*
X028103Y013933D01*
X028064Y013901D01*
X028023Y013872D01*
X027980Y013846D01*
X027935Y013824D01*
X027889Y013806D01*
X027841Y013791D01*
X027792Y013780D01*
X027743Y013773D01*
X027693Y013770D01*
X027642Y013771D01*
X027593Y013776D01*
X027543Y013785D01*
X027495Y013798D01*
X027448Y013814D01*
X027402Y013835D01*
X027358Y013859D01*
X027316Y013886D01*
X027276Y013916D01*
X027239Y013950D01*
X027205Y013987D01*
X027173Y014026D01*
X027145Y014067D01*
X027120Y014111D01*
X027099Y014156D01*
X027082Y014203D01*
X027068Y014251D01*
X027058Y014300D01*
X027052Y014350D01*
X027050Y014400D01*
X007050Y020400D02*
X007052Y020450D01*
X007058Y020500D01*
X007068Y020549D01*
X007082Y020597D01*
X007099Y020644D01*
X007120Y020689D01*
X007145Y020733D01*
X007173Y020774D01*
X007205Y020813D01*
X007239Y020850D01*
X007276Y020884D01*
X007316Y020914D01*
X007358Y020941D01*
X007402Y020965D01*
X007448Y020986D01*
X007495Y021002D01*
X007543Y021015D01*
X007593Y021024D01*
X007642Y021029D01*
X007693Y021030D01*
X007743Y021027D01*
X007792Y021020D01*
X007841Y021009D01*
X007889Y020994D01*
X007935Y020976D01*
X007980Y020954D01*
X008023Y020928D01*
X008064Y020899D01*
X008103Y020867D01*
X008139Y020832D01*
X008171Y020794D01*
X008201Y020754D01*
X008228Y020711D01*
X008251Y020667D01*
X008270Y020621D01*
X008286Y020573D01*
X008298Y020524D01*
X008306Y020475D01*
X008310Y020425D01*
X008310Y020375D01*
X008306Y020325D01*
X008298Y020276D01*
X008286Y020227D01*
X008270Y020179D01*
X008251Y020133D01*
X008228Y020089D01*
X008201Y020046D01*
X008171Y020006D01*
X008139Y019968D01*
X008103Y019933D01*
X008064Y019901D01*
X008023Y019872D01*
X007980Y019846D01*
X007935Y019824D01*
X007889Y019806D01*
X007841Y019791D01*
X007792Y019780D01*
X007743Y019773D01*
X007693Y019770D01*
X007642Y019771D01*
X007593Y019776D01*
X007543Y019785D01*
X007495Y019798D01*
X007448Y019814D01*
X007402Y019835D01*
X007358Y019859D01*
X007316Y019886D01*
X007276Y019916D01*
X007239Y019950D01*
X007205Y019987D01*
X007173Y020026D01*
X007145Y020067D01*
X007120Y020111D01*
X007099Y020156D01*
X007082Y020203D01*
X007068Y020251D01*
X007058Y020300D01*
X007052Y020350D01*
X007050Y020400D01*
D11*
X001680Y021006D02*
X001680Y000794D01*
X001682Y000755D01*
X001688Y000717D01*
X001697Y000680D01*
X001710Y000643D01*
X001727Y000608D01*
X001746Y000575D01*
X001769Y000544D01*
X001795Y000515D01*
X001824Y000489D01*
X001855Y000466D01*
X001888Y000447D01*
X001923Y000430D01*
X001960Y000417D01*
X001997Y000408D01*
X002035Y000402D01*
X002074Y000400D01*
X027680Y000400D01*
X028829Y001549D01*
X037704Y001549D01*
X037704Y001548D02*
X037743Y001550D01*
X037781Y001556D01*
X037818Y001565D01*
X037855Y001578D01*
X037890Y001595D01*
X037923Y001614D01*
X037954Y001637D01*
X037983Y001663D01*
X038009Y001692D01*
X038032Y001723D01*
X038051Y001756D01*
X038068Y001791D01*
X038081Y001828D01*
X038090Y001865D01*
X038096Y001903D01*
X038098Y001942D01*
X038097Y001942D02*
X038097Y015636D01*
X038098Y015636D02*
X038096Y015675D01*
X038090Y015713D01*
X038081Y015750D01*
X038068Y015787D01*
X038051Y015822D01*
X038032Y015855D01*
X038009Y015886D01*
X037983Y015915D01*
X037954Y015941D01*
X037923Y015964D01*
X037890Y015983D01*
X037855Y016000D01*
X037818Y016013D01*
X037781Y016022D01*
X037743Y016028D01*
X037704Y016030D01*
X028829Y016030D01*
X027680Y017179D01*
X027680Y020800D01*
X027080Y021400D01*
X002074Y021400D01*
X002035Y021398D01*
X001997Y021392D01*
X001960Y021383D01*
X001923Y021370D01*
X001888Y021353D01*
X001855Y021334D01*
X001824Y021311D01*
X001795Y021285D01*
X001769Y021256D01*
X001746Y021225D01*
X001727Y021192D01*
X001710Y021157D01*
X001697Y021120D01*
X001688Y021083D01*
X001682Y021045D01*
X001680Y021006D01*
D12*
X002353Y016798D02*
X002255Y016700D01*
X002255Y016404D01*
X002846Y016404D01*
X002846Y016700D01*
X002747Y016798D01*
X002353Y016798D01*
X002255Y016154D02*
X002255Y015760D01*
X002846Y015760D01*
X002846Y015509D02*
X002846Y015115D01*
X002255Y015115D01*
X002255Y015509D01*
X002550Y015312D02*
X002550Y015115D01*
X002255Y014882D02*
X002255Y014686D01*
X002255Y014784D02*
X002846Y014784D01*
X002846Y014686D02*
X002846Y014882D01*
X002846Y014435D02*
X002255Y014435D01*
X002550Y014435D02*
X002550Y014041D01*
X002452Y013790D02*
X002353Y013790D01*
X002255Y013692D01*
X002255Y013495D01*
X002353Y013397D01*
X002550Y013495D02*
X002550Y013692D01*
X002452Y013790D01*
X002747Y013790D02*
X002846Y013692D01*
X002846Y013495D01*
X002747Y013397D01*
X002649Y013397D01*
X002550Y013495D01*
X002255Y014041D02*
X002846Y014041D01*
X002747Y012501D02*
X002353Y012501D01*
X002255Y012403D01*
X002255Y012206D01*
X002353Y012107D01*
X002747Y012107D01*
X002846Y012206D01*
X002846Y012403D01*
X002747Y012501D01*
X002846Y011857D02*
X002255Y011857D01*
X002846Y011463D01*
X002255Y011463D01*
X002255Y011230D02*
X002255Y011033D01*
X002255Y011132D02*
X002846Y011132D01*
X002846Y011230D02*
X002846Y011033D01*
X002846Y010782D02*
X002353Y010782D01*
X002255Y010684D01*
X002255Y010487D01*
X002353Y010389D01*
X002846Y010389D01*
X002747Y010138D02*
X002353Y010138D01*
X002255Y010039D01*
X002255Y009744D01*
X002846Y009744D01*
X002846Y010039D01*
X002747Y010138D01*
X002747Y009493D02*
X002550Y009493D01*
X002452Y009395D01*
X002452Y009100D01*
X002452Y009296D02*
X002255Y009493D01*
X002255Y009100D02*
X002846Y009100D01*
X002846Y009395D01*
X002747Y009493D01*
X002649Y008849D02*
X002255Y008849D01*
X002550Y008849D02*
X002550Y008455D01*
X002649Y008455D02*
X002846Y008652D01*
X002649Y008849D01*
X002649Y008455D02*
X002255Y008455D01*
D13*
X034518Y006084D03*
D14*
X034518Y006088D03*
D15*
X034518Y006092D03*
X032626Y012128D03*
D16*
X034518Y006096D03*
D17*
X034518Y006100D03*
X032626Y012120D03*
D18*
X034518Y006104D03*
D19*
X034518Y006108D03*
D20*
X034518Y006112D03*
D21*
X034518Y006116D03*
D22*
X034516Y006120D03*
X032628Y012100D03*
D23*
X034518Y006124D03*
D24*
X034518Y006128D03*
X032626Y012092D03*
D25*
X032626Y012088D03*
X034518Y006132D03*
D26*
X034518Y006136D03*
D27*
X034518Y006140D03*
D28*
X034518Y006144D03*
D29*
X034518Y006148D03*
X032626Y012072D03*
D30*
X032626Y012068D03*
X034518Y006152D03*
D31*
X034518Y006156D03*
D32*
X034516Y006160D03*
X032628Y012060D03*
D33*
X034092Y008744D03*
X034516Y006164D03*
D34*
X034516Y006168D03*
D35*
X034514Y006172D03*
X032630Y012048D03*
D36*
X034514Y006176D03*
D37*
X034514Y006180D03*
X032630Y012040D03*
D38*
X034512Y006184D03*
D39*
X034512Y006188D03*
X033052Y010628D03*
X032632Y012032D03*
D40*
X032634Y012028D03*
X034090Y007592D03*
X034510Y006192D03*
D41*
X034510Y006196D03*
D42*
X034508Y006200D03*
D43*
X034508Y006204D03*
X033052Y010624D03*
D44*
X034506Y006208D03*
D45*
X034504Y006212D03*
X032640Y012008D03*
D46*
X033052Y009488D03*
X034092Y008732D03*
X034504Y006216D03*
D47*
X034502Y006220D03*
X032642Y012000D03*
D48*
X034500Y006224D03*
D49*
X034498Y006228D03*
X032646Y011992D03*
D50*
X032646Y011988D03*
X034498Y006232D03*
D51*
X034496Y006236D03*
X033052Y009492D03*
D52*
X032650Y011980D03*
X034494Y006240D03*
D53*
X034492Y006244D03*
X034092Y007604D03*
D54*
X034490Y006248D03*
D55*
X034488Y006252D03*
X033052Y009496D03*
X032656Y011968D03*
D56*
X033052Y010612D03*
X034488Y006256D03*
D57*
X034486Y006260D03*
X032658Y011960D03*
D58*
X034484Y006264D03*
D59*
X034482Y006268D03*
X032662Y011952D03*
D60*
X032664Y011948D03*
X033052Y009500D03*
X034092Y008720D03*
X034480Y006272D03*
D61*
X034478Y006276D03*
X034478Y010056D03*
D62*
X034476Y010060D03*
X034476Y010052D03*
X033052Y010608D03*
X032668Y011940D03*
X032668Y008168D03*
X032668Y008160D03*
X034092Y007612D03*
X034476Y006280D03*
D63*
X034474Y006284D03*
X034474Y010064D03*
D64*
X034472Y010068D03*
X034092Y008716D03*
X032672Y008176D03*
X032672Y008152D03*
X034472Y006288D03*
X032672Y011932D03*
D65*
X032674Y011928D03*
X034466Y010076D03*
X034470Y010072D03*
X034470Y010040D03*
X032674Y008180D03*
X032674Y008148D03*
X034466Y006296D03*
X034470Y006292D03*
D66*
X034464Y006300D03*
X034092Y007616D03*
X032680Y008140D03*
X032680Y008188D03*
X034464Y010032D03*
X034468Y010036D03*
X034464Y010080D03*
X032680Y011920D03*
D67*
X034460Y010024D03*
X034460Y006304D03*
D68*
X034458Y006308D03*
X034458Y006312D03*
X032686Y008128D03*
X032686Y008200D03*
X034458Y010020D03*
X034458Y010092D03*
X032686Y011908D03*
D69*
X032694Y011896D03*
X034454Y010100D03*
X034454Y010012D03*
X034450Y010008D03*
X032694Y008212D03*
X032690Y008208D03*
X032690Y008120D03*
X032694Y008116D03*
X034450Y006320D03*
X034454Y006316D03*
D70*
X034448Y006324D03*
X034448Y010004D03*
D71*
X034446Y010000D03*
X034446Y010112D03*
X034442Y010116D03*
X034446Y006328D03*
D72*
X034444Y006332D03*
X034440Y006336D03*
X032704Y008100D03*
X032704Y008228D03*
X033052Y009512D03*
X034440Y009992D03*
X034444Y009996D03*
X034440Y010120D03*
X032704Y011880D03*
D73*
X032706Y011876D03*
X032710Y011872D03*
X033054Y010596D03*
X034434Y010128D03*
X034438Y009988D03*
X032710Y008236D03*
X032706Y008232D03*
X032706Y008096D03*
X032710Y008092D03*
X034438Y006340D03*
D74*
X034436Y006344D03*
X032716Y008084D03*
X032716Y011864D03*
D75*
X032712Y011868D03*
X034428Y010136D03*
X034432Y010132D03*
X034432Y009980D03*
X032712Y008240D03*
X032712Y008088D03*
X034432Y006348D03*
D76*
X034430Y006352D03*
X034426Y006356D03*
X032722Y008076D03*
X032718Y008080D03*
X032718Y008248D03*
X034426Y009972D03*
X034430Y009976D03*
X034426Y010140D03*
X032722Y011856D03*
X032718Y011860D03*
D77*
X032724Y011852D03*
X032728Y011848D03*
X034424Y009968D03*
X032724Y008256D03*
X032724Y008072D03*
X032728Y008068D03*
X034424Y006360D03*
D78*
X034420Y006364D03*
X034420Y009964D03*
D79*
X034418Y009960D03*
X034414Y009956D03*
X034410Y009952D03*
X034414Y010156D03*
X034410Y010160D03*
X032738Y011836D03*
X032734Y011840D03*
X032734Y008268D03*
X032726Y008260D03*
X032734Y008060D03*
X032738Y008056D03*
X034414Y006372D03*
X034418Y006368D03*
D80*
X034412Y006376D03*
X034408Y006380D03*
X034092Y007628D03*
X033112Y007680D03*
X033104Y007688D03*
X033100Y007692D03*
X033096Y007696D03*
X033092Y007700D03*
X033084Y007708D03*
X033080Y007712D03*
X033076Y007716D03*
X033072Y007720D03*
X033064Y007728D03*
X033060Y007732D03*
X033056Y007736D03*
X033052Y007740D03*
X033044Y007748D03*
X033040Y007752D03*
X033036Y007756D03*
X033032Y007760D03*
X033024Y007768D03*
X033020Y007772D03*
X033016Y007776D03*
X033012Y007780D03*
X033004Y007788D03*
X033000Y007792D03*
X032996Y007796D03*
X032992Y007800D03*
X032984Y007808D03*
X032980Y007812D03*
X032976Y007816D03*
X032972Y007820D03*
X032964Y007828D03*
X032960Y007832D03*
X032756Y008036D03*
X032752Y008040D03*
X032744Y008048D03*
X032740Y008052D03*
X032736Y008272D03*
X032740Y008276D03*
X032744Y008280D03*
X034400Y009940D03*
X034408Y009948D03*
X034404Y010168D03*
X034400Y010172D03*
X034396Y010176D03*
X034392Y010180D03*
X034384Y010188D03*
X034380Y010192D03*
X034376Y010196D03*
X034372Y010200D03*
X034364Y010208D03*
X034360Y010212D03*
X034356Y010216D03*
X034352Y010220D03*
X034344Y010228D03*
X034340Y010232D03*
X034336Y010236D03*
X034332Y010240D03*
X034324Y010248D03*
X034320Y010252D03*
X034316Y010256D03*
X034312Y010260D03*
X034304Y010268D03*
X034300Y010272D03*
X034296Y010276D03*
X034292Y010280D03*
X034284Y010288D03*
X034280Y010292D03*
X034276Y010296D03*
X034272Y010300D03*
X034264Y010308D03*
X034260Y010312D03*
X034256Y010316D03*
X034252Y010320D03*
X034244Y010328D03*
X034240Y010332D03*
X034236Y010336D03*
X034232Y010340D03*
X034224Y010348D03*
X034220Y010352D03*
X034216Y010356D03*
X034212Y010360D03*
X034204Y010368D03*
X034200Y010372D03*
X034196Y010376D03*
X034192Y010380D03*
X034184Y010388D03*
X034180Y010392D03*
X034176Y010396D03*
X034172Y010400D03*
X034164Y010408D03*
X034160Y010412D03*
X034156Y010416D03*
X034152Y010420D03*
X034144Y010428D03*
X034140Y010432D03*
X034136Y010436D03*
X034132Y010440D03*
X034124Y010448D03*
X034120Y010452D03*
X034116Y010456D03*
X034112Y010460D03*
X034104Y010468D03*
X034100Y010472D03*
X034096Y010476D03*
X034092Y010480D03*
X034084Y010488D03*
X034080Y010492D03*
X034076Y010496D03*
X034072Y010500D03*
X034064Y010508D03*
X034060Y010512D03*
X034056Y010516D03*
X034052Y010520D03*
X034044Y010528D03*
X034040Y010532D03*
X034036Y010536D03*
X034032Y010540D03*
X034024Y010548D03*
X034020Y010552D03*
X034016Y010556D03*
X034012Y010560D03*
X034004Y010568D03*
X034000Y010572D03*
X033996Y010576D03*
X033992Y010580D03*
X033984Y010588D03*
X033980Y010592D03*
X033976Y010596D03*
X033972Y010600D03*
X033964Y010608D03*
X033960Y010612D03*
X033956Y010616D03*
X033952Y010620D03*
X033944Y010628D03*
X033940Y010632D03*
X033936Y010636D03*
X033932Y010640D03*
X033924Y010648D03*
X033920Y010652D03*
X033916Y010656D03*
X033912Y010660D03*
X033904Y010668D03*
X033900Y010672D03*
X033896Y010676D03*
X033892Y010680D03*
X033884Y010688D03*
X033880Y010692D03*
X033876Y010696D03*
X033872Y010700D03*
X033864Y010708D03*
X033860Y010712D03*
X033856Y010716D03*
X033852Y010720D03*
X033844Y010728D03*
X033840Y010732D03*
X033836Y010736D03*
X033832Y010740D03*
X033824Y010748D03*
X033820Y010752D03*
X033816Y010756D03*
X033812Y010760D03*
X033804Y010768D03*
X033800Y010772D03*
X033796Y010776D03*
X033792Y010780D03*
X033784Y010788D03*
X033780Y010792D03*
X033776Y010796D03*
X033772Y010800D03*
X033764Y010808D03*
X033760Y010812D03*
X033756Y010816D03*
X033752Y010820D03*
X033744Y010828D03*
X033740Y010832D03*
X033736Y010836D03*
X033732Y010840D03*
X033724Y010848D03*
X033720Y010852D03*
X033716Y010856D03*
X033712Y010860D03*
X033704Y010868D03*
X033700Y010872D03*
X033696Y010876D03*
X033692Y010880D03*
X033684Y010888D03*
X033680Y010892D03*
X033676Y010896D03*
X033672Y010900D03*
X033664Y010908D03*
X033660Y010912D03*
X033656Y010916D03*
X033652Y010920D03*
X033644Y010928D03*
X033640Y010932D03*
X033636Y010936D03*
X033632Y010940D03*
X033624Y010948D03*
X033620Y010952D03*
X033616Y010956D03*
X033612Y010960D03*
X033604Y010968D03*
X033600Y010972D03*
X033596Y010976D03*
X033592Y010980D03*
X033584Y010988D03*
X033580Y010992D03*
X033576Y010996D03*
X033572Y011000D03*
X033564Y011008D03*
X033560Y011012D03*
X033556Y011016D03*
X033552Y011020D03*
X033544Y011028D03*
X033540Y011032D03*
X033536Y011036D03*
X033532Y011040D03*
X033524Y011048D03*
X033520Y011052D03*
X033516Y011056D03*
X033512Y011060D03*
X033504Y011068D03*
X033500Y011072D03*
X033496Y011076D03*
X033492Y011080D03*
X033484Y011088D03*
X033480Y011092D03*
X033476Y011096D03*
X033472Y011100D03*
X033464Y011108D03*
X033460Y011112D03*
X033456Y011116D03*
X033452Y011120D03*
X033444Y011128D03*
X033440Y011132D03*
X033436Y011136D03*
X033432Y011140D03*
X033424Y011148D03*
X033420Y011152D03*
X033416Y011156D03*
X033412Y011160D03*
X033404Y011168D03*
X033400Y011172D03*
X033396Y011176D03*
X033392Y011180D03*
X033384Y011188D03*
X033380Y011192D03*
X033376Y011196D03*
X033372Y011200D03*
X033364Y011208D03*
X033360Y011212D03*
X033356Y011216D03*
X033352Y011220D03*
X033344Y011228D03*
X033340Y011232D03*
X033336Y011236D03*
X033332Y011240D03*
X033324Y011248D03*
X033320Y011252D03*
X033316Y011256D03*
X033312Y011260D03*
X033304Y011268D03*
X033300Y011272D03*
X033296Y011276D03*
X033292Y011280D03*
X033284Y011288D03*
X033280Y011292D03*
X033276Y011296D03*
X033272Y011300D03*
X033264Y011308D03*
X033260Y011312D03*
X033256Y011316D03*
X033252Y011320D03*
X033244Y011328D03*
X033240Y011332D03*
X033236Y011336D03*
X033232Y011340D03*
X033224Y011348D03*
X033220Y011352D03*
X033216Y011356D03*
X033212Y011360D03*
X033204Y011368D03*
X033200Y011372D03*
X033196Y011376D03*
X033192Y011380D03*
X033184Y011388D03*
X033180Y011392D03*
X033176Y011396D03*
X033172Y011400D03*
X033164Y011408D03*
X033160Y011412D03*
X033156Y011416D03*
X033152Y011420D03*
X033144Y011428D03*
X033140Y011432D03*
X033136Y011436D03*
X033132Y011440D03*
X033124Y011448D03*
X033120Y011452D03*
X033116Y011456D03*
X033112Y011460D03*
X033104Y011468D03*
X033100Y011472D03*
X033096Y011476D03*
X033092Y011480D03*
X033084Y011488D03*
X033080Y011492D03*
X033076Y011496D03*
X033072Y011500D03*
X033064Y011508D03*
X033060Y011512D03*
X033056Y011516D03*
X033052Y011520D03*
X033044Y011528D03*
X033040Y011532D03*
X033036Y011536D03*
X033032Y011540D03*
X033024Y011548D03*
X033020Y011552D03*
X033016Y011556D03*
X033012Y011560D03*
X033004Y011568D03*
X033000Y011572D03*
X032996Y011576D03*
X032992Y011580D03*
X032984Y011588D03*
X032980Y011592D03*
X032976Y011596D03*
X032972Y011600D03*
X032964Y011608D03*
X032960Y011612D03*
X032956Y011616D03*
X032952Y011620D03*
X032944Y011628D03*
X032940Y011632D03*
X032936Y011636D03*
X032932Y011640D03*
X032924Y011648D03*
X032920Y011652D03*
X032916Y011656D03*
X032912Y011660D03*
X032904Y011668D03*
X032900Y011672D03*
X032896Y011676D03*
X032892Y011680D03*
X032884Y011688D03*
X032880Y011692D03*
X032876Y011696D03*
X032872Y011700D03*
X032864Y011708D03*
X032860Y011712D03*
X032856Y011716D03*
X032852Y011720D03*
X032844Y011728D03*
X032840Y011732D03*
X032836Y011736D03*
X032832Y011740D03*
X032824Y011748D03*
X032820Y011752D03*
X032816Y011756D03*
X032812Y011760D03*
X032804Y011768D03*
X032800Y011772D03*
X032796Y011776D03*
X032792Y011780D03*
X032784Y011788D03*
X032780Y011792D03*
X032776Y011796D03*
X032772Y011800D03*
X032764Y011808D03*
X032760Y011812D03*
X032756Y011816D03*
X032752Y011820D03*
X032744Y011828D03*
X032740Y011832D03*
X033052Y010592D03*
D81*
X033708Y010864D03*
X033688Y010884D03*
X033668Y010904D03*
X033648Y010924D03*
X033628Y010944D03*
X033608Y010964D03*
X033588Y010984D03*
X033568Y011004D03*
X033548Y011024D03*
X033528Y011044D03*
X033508Y011064D03*
X033488Y011084D03*
X033468Y011104D03*
X033448Y011124D03*
X033428Y011144D03*
X033408Y011164D03*
X033388Y011184D03*
X033368Y011204D03*
X033348Y011224D03*
X033328Y011244D03*
X033308Y011264D03*
X033288Y011284D03*
X033268Y011304D03*
X033248Y011324D03*
X033228Y011344D03*
X033208Y011364D03*
X033188Y011384D03*
X033168Y011404D03*
X033148Y011424D03*
X033128Y011444D03*
X033108Y011464D03*
X033088Y011484D03*
X033068Y011504D03*
X033048Y011524D03*
X033028Y011544D03*
X033008Y011564D03*
X032988Y011584D03*
X032968Y011604D03*
X032948Y011624D03*
X032928Y011644D03*
X032908Y011664D03*
X032888Y011684D03*
X032868Y011704D03*
X032848Y011724D03*
X032828Y011744D03*
X032808Y011764D03*
X032788Y011784D03*
X032768Y011804D03*
X032748Y011824D03*
X033728Y010844D03*
X033748Y010824D03*
X033768Y010804D03*
X033788Y010784D03*
X033808Y010764D03*
X033828Y010744D03*
X033848Y010724D03*
X033868Y010704D03*
X033888Y010684D03*
X033908Y010664D03*
X033928Y010644D03*
X033948Y010624D03*
X033968Y010604D03*
X033988Y010584D03*
X034008Y010564D03*
X034028Y010544D03*
X034048Y010524D03*
X034068Y010504D03*
X034088Y010484D03*
X034108Y010464D03*
X034128Y010444D03*
X034148Y010424D03*
X034168Y010404D03*
X034188Y010384D03*
X034208Y010364D03*
X034228Y010344D03*
X034248Y010324D03*
X034268Y010304D03*
X034288Y010284D03*
X034308Y010264D03*
X034328Y010244D03*
X034348Y010224D03*
X034368Y010204D03*
X034388Y010184D03*
X034404Y009944D03*
X032748Y008284D03*
X032748Y008044D03*
X032968Y007824D03*
X032988Y007804D03*
X033008Y007784D03*
X033028Y007764D03*
X033048Y007744D03*
X033068Y007724D03*
X033088Y007704D03*
X033108Y007684D03*
X034404Y006384D03*
D82*
X034402Y006388D03*
X034398Y006392D03*
X034394Y006396D03*
X034390Y006400D03*
X034382Y006408D03*
X034378Y006412D03*
X034374Y006416D03*
X034370Y006420D03*
X034362Y006428D03*
X034358Y006432D03*
X034354Y006436D03*
X034350Y006440D03*
X034342Y006448D03*
X034338Y006452D03*
X034334Y006456D03*
X034330Y006460D03*
X034322Y006468D03*
X034318Y006472D03*
X034314Y006476D03*
X034310Y006480D03*
X034302Y006488D03*
X034298Y006492D03*
X034294Y006496D03*
X034290Y006500D03*
X034282Y006508D03*
X034278Y006512D03*
X034274Y006516D03*
X034270Y006520D03*
X034262Y006528D03*
X034258Y006532D03*
X034254Y006536D03*
X034250Y006540D03*
X034242Y006548D03*
X034238Y006552D03*
X034234Y006556D03*
X034230Y006560D03*
X034222Y006568D03*
X034218Y006572D03*
X034214Y006576D03*
X034210Y006580D03*
X034202Y006588D03*
X034198Y006592D03*
X034194Y006596D03*
X034190Y006600D03*
X034182Y006608D03*
X034178Y006612D03*
X034174Y006616D03*
X034170Y006620D03*
X034162Y006628D03*
X034158Y006632D03*
X034154Y006636D03*
X034150Y006640D03*
X034142Y006648D03*
X034138Y006652D03*
X034134Y006656D03*
X034130Y006660D03*
X034122Y006668D03*
X034118Y006672D03*
X034114Y006676D03*
X034110Y006680D03*
X034102Y006688D03*
X034098Y006692D03*
X034094Y006696D03*
X034090Y006700D03*
X034082Y006708D03*
X034078Y006712D03*
X034074Y006716D03*
X034070Y006720D03*
X034062Y006728D03*
X034058Y006732D03*
X034054Y006736D03*
X034050Y006740D03*
X034042Y006748D03*
X034038Y006752D03*
X034034Y006756D03*
X034030Y006760D03*
X034022Y006768D03*
X034018Y006772D03*
X034014Y006776D03*
X034010Y006780D03*
X034002Y006788D03*
X033998Y006792D03*
X033994Y006796D03*
X033990Y006800D03*
X033982Y006808D03*
X033978Y006812D03*
X033974Y006816D03*
X033970Y006820D03*
X033962Y006828D03*
X033958Y006832D03*
X033954Y006836D03*
X033950Y006840D03*
X033942Y006848D03*
X033938Y006852D03*
X033934Y006856D03*
X033930Y006860D03*
X033922Y006868D03*
X033918Y006872D03*
X033914Y006876D03*
X033910Y006880D03*
X033902Y006888D03*
X033898Y006892D03*
X033894Y006896D03*
X033890Y006900D03*
X033882Y006908D03*
X033878Y006912D03*
X033874Y006916D03*
X033870Y006920D03*
X033862Y006928D03*
X033858Y006932D03*
X033854Y006936D03*
X033850Y006940D03*
X033842Y006948D03*
X033838Y006952D03*
X033834Y006956D03*
X033830Y006960D03*
X033822Y006968D03*
X033818Y006972D03*
X033814Y006976D03*
X033810Y006980D03*
X033802Y006988D03*
X033798Y006992D03*
X033794Y006996D03*
X033790Y007000D03*
X033782Y007008D03*
X033778Y007012D03*
X033774Y007016D03*
X033770Y007020D03*
X033762Y007028D03*
X033758Y007032D03*
X033754Y007036D03*
X033750Y007040D03*
X033742Y007048D03*
X033738Y007052D03*
X033734Y007056D03*
X033730Y007060D03*
X033722Y007068D03*
X033718Y007072D03*
X033714Y007076D03*
X033710Y007080D03*
X033702Y007088D03*
X033698Y007092D03*
X033694Y007096D03*
X033690Y007100D03*
X033682Y007108D03*
X033678Y007112D03*
X033674Y007116D03*
X033670Y007120D03*
X033662Y007128D03*
X033658Y007132D03*
X033654Y007136D03*
X033650Y007140D03*
X033642Y007148D03*
X033638Y007152D03*
X033634Y007156D03*
X033630Y007160D03*
X033622Y007168D03*
X033618Y007172D03*
X033614Y007176D03*
X033610Y007180D03*
X033602Y007188D03*
X033598Y007192D03*
X033594Y007196D03*
X033590Y007200D03*
X033582Y007208D03*
X033578Y007212D03*
X033574Y007216D03*
X033570Y007220D03*
X033562Y007228D03*
X033558Y007232D03*
X033554Y007236D03*
X033550Y007240D03*
X033542Y007248D03*
X033538Y007252D03*
X033534Y007256D03*
X033530Y007260D03*
X033522Y007268D03*
X033518Y007272D03*
X033514Y007276D03*
X033510Y007280D03*
X033502Y007288D03*
X033498Y007292D03*
X033494Y007296D03*
X033490Y007300D03*
X033482Y007308D03*
X033478Y007312D03*
X033474Y007316D03*
X033470Y007320D03*
X033462Y007328D03*
X033458Y007332D03*
X033454Y007336D03*
X033450Y007340D03*
X033442Y007348D03*
X033438Y007352D03*
X033434Y007356D03*
X033430Y007360D03*
X033422Y007368D03*
X033418Y007372D03*
X033414Y007376D03*
X033410Y007380D03*
X033402Y007388D03*
X033398Y007392D03*
X033394Y007396D03*
X033390Y007400D03*
X033382Y007408D03*
X033378Y007412D03*
X033374Y007416D03*
X033370Y007420D03*
X033362Y007428D03*
X033358Y007432D03*
X033354Y007436D03*
X033350Y007440D03*
X033342Y007448D03*
X033338Y007452D03*
X033334Y007456D03*
X033330Y007460D03*
X033322Y007468D03*
X033318Y007472D03*
X033314Y007476D03*
X033310Y007480D03*
X033302Y007488D03*
X033298Y007492D03*
X033294Y007496D03*
X033290Y007500D03*
X033282Y007508D03*
X033278Y007512D03*
X033274Y007516D03*
X033270Y007520D03*
X033262Y007528D03*
X033258Y007532D03*
X033254Y007536D03*
X033250Y007540D03*
X033242Y007548D03*
X033238Y007552D03*
X033234Y007556D03*
X033230Y007560D03*
X033222Y007568D03*
X033218Y007572D03*
X033214Y007576D03*
X033210Y007580D03*
X033202Y007588D03*
X033198Y007592D03*
X033194Y007596D03*
X033190Y007600D03*
X033182Y007608D03*
X033178Y007612D03*
X033174Y007616D03*
X033170Y007620D03*
X033162Y007628D03*
X033158Y007632D03*
X033154Y007636D03*
X033150Y007640D03*
X033142Y007648D03*
X033138Y007652D03*
X033134Y007656D03*
X033130Y007660D03*
X033122Y007668D03*
X033118Y007672D03*
X033114Y007676D03*
X032954Y007836D03*
X032950Y007840D03*
X032942Y007848D03*
X032938Y007852D03*
X032934Y007856D03*
X032930Y007860D03*
X032922Y007868D03*
X032918Y007872D03*
X032914Y007876D03*
X032910Y007880D03*
X032902Y007888D03*
X032898Y007892D03*
X032894Y007896D03*
X032890Y007900D03*
X032882Y007908D03*
X032878Y007912D03*
X032874Y007916D03*
X032870Y007920D03*
X032862Y007928D03*
X032858Y007932D03*
X032854Y007936D03*
X032850Y007940D03*
X032842Y007948D03*
X032838Y007952D03*
X032834Y007956D03*
X032830Y007960D03*
X032822Y007968D03*
X032818Y007972D03*
X032814Y007976D03*
X032810Y007980D03*
X032802Y007988D03*
X032798Y007992D03*
X032794Y007996D03*
X032790Y008000D03*
X032782Y008008D03*
X032778Y008012D03*
X032774Y008016D03*
X032770Y008020D03*
X032762Y008028D03*
X032758Y008032D03*
X032750Y008288D03*
X032754Y008292D03*
X032758Y008296D03*
X032762Y008300D03*
X032770Y008308D03*
X032774Y008312D03*
X032778Y008316D03*
X032782Y008320D03*
X032790Y008328D03*
X032794Y008332D03*
X032798Y008336D03*
X032802Y008340D03*
X032810Y008348D03*
X032814Y008352D03*
X032818Y008356D03*
X032822Y008360D03*
X032830Y008368D03*
X032834Y008372D03*
X032838Y008376D03*
X032842Y008380D03*
X032850Y008388D03*
X032854Y008392D03*
X032858Y008396D03*
X032862Y008400D03*
X032870Y008408D03*
X032874Y008412D03*
X032878Y008416D03*
X032882Y008420D03*
X032890Y008428D03*
X032894Y008432D03*
X032898Y008436D03*
X032902Y008440D03*
X032910Y008448D03*
X032914Y008452D03*
X032918Y008456D03*
X032922Y008460D03*
X032930Y008468D03*
X032934Y008472D03*
X032938Y008476D03*
X032942Y008480D03*
X032950Y008488D03*
X032954Y008492D03*
X032958Y008496D03*
X032962Y008500D03*
X032970Y008508D03*
X032974Y008512D03*
X032978Y008516D03*
X032982Y008520D03*
X032990Y008528D03*
X032994Y008532D03*
X032998Y008536D03*
X033002Y008540D03*
X033010Y008548D03*
X033014Y008552D03*
X033018Y008556D03*
X033022Y008560D03*
X033030Y008568D03*
X033034Y008572D03*
X033038Y008576D03*
X033042Y008580D03*
X033050Y008588D03*
X033054Y008592D03*
X033058Y008596D03*
X033062Y008600D03*
X033070Y008608D03*
X033074Y008612D03*
X033078Y008616D03*
X033082Y008620D03*
X033090Y008628D03*
X033094Y008632D03*
X033098Y008636D03*
X033102Y008640D03*
X033110Y008648D03*
X033114Y008652D03*
X033118Y008656D03*
X033122Y008660D03*
X033130Y008668D03*
X033134Y008672D03*
X033138Y008676D03*
X033142Y008680D03*
X033150Y008688D03*
X033154Y008692D03*
X033158Y008696D03*
X033162Y008700D03*
X033170Y008708D03*
X033174Y008712D03*
X033178Y008716D03*
X033182Y008720D03*
X033190Y008728D03*
X033194Y008732D03*
X033198Y008736D03*
X033202Y008740D03*
X033210Y008748D03*
X033214Y008752D03*
X033218Y008756D03*
X033222Y008760D03*
X033230Y008768D03*
X033234Y008772D03*
X033238Y008776D03*
X033242Y008780D03*
X033250Y008788D03*
X033254Y008792D03*
X033258Y008796D03*
X033262Y008800D03*
X033270Y008808D03*
X033274Y008812D03*
X033278Y008816D03*
X033282Y008820D03*
X033290Y008828D03*
X033294Y008832D03*
X033298Y008836D03*
X033302Y008840D03*
X033310Y008848D03*
X033314Y008852D03*
X033318Y008856D03*
X033322Y008860D03*
X033330Y008868D03*
X033334Y008872D03*
X033338Y008876D03*
X033342Y008880D03*
X033350Y008888D03*
X033354Y008892D03*
X033358Y008896D03*
X033362Y008900D03*
X033370Y008908D03*
X033374Y008912D03*
X033378Y008916D03*
X033382Y008920D03*
X033390Y008928D03*
X033394Y008932D03*
X033398Y008936D03*
X033402Y008940D03*
X033410Y008948D03*
X033414Y008952D03*
X033418Y008956D03*
X033422Y008960D03*
X033430Y008968D03*
X033434Y008972D03*
X033438Y008976D03*
X033442Y008980D03*
X033450Y008988D03*
X033454Y008992D03*
X033458Y008996D03*
X033462Y009000D03*
X033470Y009008D03*
X033474Y009012D03*
X033478Y009016D03*
X033482Y009020D03*
X033490Y009028D03*
X033494Y009032D03*
X033498Y009036D03*
X033502Y009040D03*
X033510Y009048D03*
X033514Y009052D03*
X033518Y009056D03*
X033522Y009060D03*
X033530Y009068D03*
X033534Y009072D03*
X033538Y009076D03*
X033542Y009080D03*
X033550Y009088D03*
X033554Y009092D03*
X033558Y009096D03*
X033562Y009100D03*
X033570Y009108D03*
X033574Y009112D03*
X033578Y009116D03*
X033582Y009120D03*
X033590Y009128D03*
X033594Y009132D03*
X033598Y009136D03*
X033602Y009140D03*
X033610Y009148D03*
X033614Y009152D03*
X033618Y009156D03*
X033622Y009160D03*
X033630Y009168D03*
X033634Y009172D03*
X033638Y009176D03*
X033642Y009180D03*
X033650Y009188D03*
X033654Y009192D03*
X033658Y009196D03*
X033662Y009200D03*
X033670Y009208D03*
X033674Y009212D03*
X033678Y009216D03*
X033682Y009220D03*
X033690Y009228D03*
X033694Y009232D03*
X033698Y009236D03*
X033702Y009240D03*
X033710Y009248D03*
X033714Y009252D03*
X033718Y009256D03*
X033722Y009260D03*
X033730Y009268D03*
X033734Y009272D03*
X033738Y009276D03*
X033742Y009280D03*
X033750Y009288D03*
X033754Y009292D03*
X033758Y009296D03*
X033762Y009300D03*
X033770Y009308D03*
X033774Y009312D03*
X033778Y009316D03*
X033782Y009320D03*
X033790Y009328D03*
X033794Y009332D03*
X033798Y009336D03*
X033802Y009340D03*
X033810Y009348D03*
X033814Y009352D03*
X033818Y009356D03*
X033822Y009360D03*
X033830Y009368D03*
X033834Y009372D03*
X033838Y009376D03*
X033842Y009380D03*
X033850Y009388D03*
X033854Y009392D03*
X033858Y009396D03*
X033862Y009400D03*
X033870Y009408D03*
X033874Y009412D03*
X033878Y009416D03*
X033882Y009420D03*
X033890Y009428D03*
X033894Y009432D03*
X033898Y009436D03*
X033902Y009440D03*
X033910Y009448D03*
X033914Y009452D03*
X033918Y009456D03*
X033922Y009460D03*
X033930Y009468D03*
X033934Y009472D03*
X033938Y009476D03*
X033942Y009480D03*
X033950Y009488D03*
X033954Y009492D03*
X033958Y009496D03*
X033962Y009500D03*
X033970Y009508D03*
X033974Y009512D03*
X033978Y009516D03*
X033982Y009520D03*
X033990Y009528D03*
X033994Y009532D03*
X033998Y009536D03*
X034002Y009540D03*
X034010Y009548D03*
X034014Y009552D03*
X034018Y009556D03*
X034022Y009560D03*
X034030Y009568D03*
X034034Y009572D03*
X034038Y009576D03*
X034042Y009580D03*
X034050Y009588D03*
X034054Y009592D03*
X034058Y009596D03*
X034062Y009600D03*
X034070Y009608D03*
X034074Y009612D03*
X034078Y009616D03*
X034082Y009620D03*
X034090Y009628D03*
X034094Y009632D03*
X034098Y009636D03*
X034102Y009640D03*
X034110Y009648D03*
X034114Y009652D03*
X034118Y009656D03*
X034122Y009660D03*
X034130Y009668D03*
X034134Y009672D03*
X034138Y009676D03*
X034142Y009680D03*
X034150Y009688D03*
X034154Y009692D03*
X034158Y009696D03*
X034162Y009700D03*
X034170Y009708D03*
X034174Y009712D03*
X034178Y009716D03*
X034182Y009720D03*
X034190Y009728D03*
X034194Y009732D03*
X034198Y009736D03*
X034202Y009740D03*
X034210Y009748D03*
X034214Y009752D03*
X034218Y009756D03*
X034222Y009760D03*
X034230Y009768D03*
X034234Y009772D03*
X034238Y009776D03*
X034242Y009780D03*
X034250Y009788D03*
X034254Y009792D03*
X034258Y009796D03*
X034262Y009800D03*
X034270Y009808D03*
X034274Y009812D03*
X034278Y009816D03*
X034282Y009820D03*
X034290Y009828D03*
X034294Y009832D03*
X034298Y009836D03*
X034302Y009840D03*
X034310Y009848D03*
X034314Y009852D03*
X034318Y009856D03*
X034322Y009860D03*
X034330Y009868D03*
X034334Y009872D03*
X034338Y009876D03*
X034342Y009880D03*
X034350Y009888D03*
X034354Y009892D03*
X034358Y009896D03*
X034362Y009900D03*
X034370Y009908D03*
X034374Y009912D03*
X034378Y009916D03*
X034382Y009920D03*
X034390Y009928D03*
X034394Y009932D03*
X034398Y009936D03*
X034090Y008700D03*
D83*
X033546Y009084D03*
X033526Y009064D03*
X033506Y009044D03*
X033486Y009024D03*
X033466Y009004D03*
X033446Y008984D03*
X033426Y008964D03*
X033406Y008944D03*
X033386Y008924D03*
X033366Y008904D03*
X033346Y008884D03*
X033326Y008864D03*
X033306Y008844D03*
X033286Y008824D03*
X033266Y008804D03*
X033246Y008784D03*
X033226Y008764D03*
X033206Y008744D03*
X033186Y008724D03*
X033166Y008704D03*
X033146Y008684D03*
X033126Y008664D03*
X033106Y008644D03*
X033086Y008624D03*
X033066Y008604D03*
X033046Y008584D03*
X033026Y008564D03*
X033006Y008544D03*
X032986Y008524D03*
X032966Y008504D03*
X032946Y008484D03*
X032926Y008464D03*
X032906Y008444D03*
X032886Y008424D03*
X032866Y008404D03*
X032846Y008384D03*
X032826Y008364D03*
X032806Y008344D03*
X032786Y008324D03*
X032766Y008304D03*
X032766Y008024D03*
X032786Y008004D03*
X032806Y007984D03*
X032826Y007964D03*
X032846Y007944D03*
X032866Y007924D03*
X032886Y007904D03*
X032906Y007884D03*
X032926Y007864D03*
X032946Y007844D03*
X033126Y007664D03*
X033146Y007644D03*
X033166Y007624D03*
X033186Y007604D03*
X033206Y007584D03*
X033226Y007564D03*
X033246Y007544D03*
X033266Y007524D03*
X033286Y007504D03*
X033306Y007484D03*
X033326Y007464D03*
X033346Y007444D03*
X033366Y007424D03*
X033386Y007404D03*
X033406Y007384D03*
X033426Y007364D03*
X033446Y007344D03*
X033466Y007324D03*
X033486Y007304D03*
X033506Y007284D03*
X033526Y007264D03*
X033546Y007244D03*
X033566Y007224D03*
X033586Y007204D03*
X033606Y007184D03*
X033626Y007164D03*
X033646Y007144D03*
X033666Y007124D03*
X033686Y007104D03*
X033706Y007084D03*
X033726Y007064D03*
X033746Y007044D03*
X033766Y007024D03*
X033786Y007004D03*
X033806Y006984D03*
X033826Y006964D03*
X033846Y006944D03*
X033866Y006924D03*
X033886Y006904D03*
X033906Y006884D03*
X033926Y006864D03*
X033946Y006844D03*
X033966Y006824D03*
X033986Y006804D03*
X034006Y006784D03*
X034026Y006764D03*
X034046Y006744D03*
X034066Y006724D03*
X034086Y006704D03*
X034106Y006684D03*
X034126Y006664D03*
X034146Y006644D03*
X034166Y006624D03*
X034186Y006604D03*
X034206Y006584D03*
X034226Y006564D03*
X034246Y006544D03*
X034266Y006524D03*
X034286Y006504D03*
X034306Y006484D03*
X034326Y006464D03*
X034346Y006444D03*
X034366Y006424D03*
X034386Y006404D03*
X033566Y009104D03*
X033586Y009124D03*
X033606Y009144D03*
X033626Y009164D03*
X033646Y009184D03*
X033666Y009204D03*
X033686Y009224D03*
X033706Y009244D03*
X033726Y009264D03*
X033746Y009284D03*
X033766Y009304D03*
X033786Y009324D03*
X033806Y009344D03*
X033826Y009364D03*
X033846Y009384D03*
X033866Y009404D03*
X033886Y009424D03*
X033906Y009444D03*
X033926Y009464D03*
X033946Y009484D03*
X033966Y009504D03*
X033986Y009524D03*
X034006Y009544D03*
X034026Y009564D03*
X034046Y009584D03*
X034066Y009604D03*
X034086Y009624D03*
X034106Y009644D03*
X034126Y009664D03*
X034146Y009684D03*
X034166Y009704D03*
X034186Y009724D03*
X034206Y009744D03*
X034226Y009764D03*
X034246Y009784D03*
X034266Y009804D03*
X034286Y009824D03*
X034306Y009844D03*
X034326Y009864D03*
X034346Y009884D03*
X034366Y009904D03*
X034386Y009924D03*
D84*
X034092Y007568D03*
D85*
X034092Y007572D03*
X033052Y010648D03*
D86*
X034092Y007576D03*
D87*
X034092Y007580D03*
X033052Y010640D03*
D88*
X034092Y007584D03*
D89*
X034092Y007588D03*
X033052Y010632D03*
D90*
X032638Y012012D03*
X034090Y007596D03*
D91*
X034092Y007600D03*
X033052Y010620D03*
X032644Y011996D03*
D92*
X032660Y011956D03*
X034092Y007608D03*
D93*
X034092Y007620D03*
X032696Y008112D03*
X032696Y008216D03*
X034092Y008708D03*
X034448Y010108D03*
X032696Y011892D03*
D94*
X034092Y008704D03*
X034092Y007624D03*
D95*
X034092Y007632D03*
X034092Y008696D03*
D96*
X034092Y008692D03*
X034092Y007636D03*
D97*
X034092Y007640D03*
X033052Y010580D03*
D98*
X034092Y007644D03*
D99*
X034092Y007648D03*
X033052Y010572D03*
D100*
X034092Y008676D03*
X034092Y007652D03*
D101*
X034092Y007656D03*
D102*
X034092Y007660D03*
X034092Y008668D03*
X033052Y010560D03*
D103*
X034092Y007664D03*
D104*
X034092Y007668D03*
X034092Y008660D03*
X033052Y010552D03*
D105*
X033052Y010548D03*
X034092Y007672D03*
D106*
X034092Y007676D03*
X034092Y008652D03*
X033052Y009568D03*
D107*
X033052Y010540D03*
X034092Y007680D03*
D108*
X034092Y007684D03*
D109*
X034092Y007688D03*
X034092Y008640D03*
X033052Y009580D03*
X033052Y010532D03*
D110*
X033052Y010528D03*
X034092Y007692D03*
D111*
X034092Y007696D03*
D112*
X034090Y007700D03*
D113*
X034092Y007704D03*
X034092Y008624D03*
D114*
X034092Y008620D03*
X034092Y007708D03*
X033052Y009600D03*
X033052Y010512D03*
D115*
X033052Y010508D03*
X034092Y007712D03*
D116*
X034092Y007716D03*
D117*
X034092Y007720D03*
X034092Y008612D03*
X033052Y009608D03*
X033052Y010500D03*
D118*
X034092Y007724D03*
D119*
X034090Y007728D03*
D120*
X034092Y007732D03*
X034092Y008596D03*
D121*
X034092Y008592D03*
X034092Y007736D03*
X033052Y009628D03*
X033052Y010480D03*
D122*
X033052Y010476D03*
X033052Y009632D03*
X034092Y008588D03*
X034092Y007740D03*
D123*
X034092Y007744D03*
X034092Y008584D03*
D124*
X034092Y008580D03*
X034092Y007748D03*
X033052Y009640D03*
X033052Y010468D03*
D125*
X034090Y007752D03*
D126*
X034092Y007756D03*
X034092Y008576D03*
D127*
X034092Y008572D03*
X034092Y007760D03*
X033052Y009648D03*
X033052Y010460D03*
D128*
X034092Y007764D03*
D129*
X034092Y007768D03*
X033052Y009656D03*
X033052Y010452D03*
D130*
X033052Y010448D03*
X033052Y009660D03*
X034092Y008556D03*
X034092Y007772D03*
D131*
X034092Y007776D03*
X034092Y008552D03*
X033052Y009668D03*
D132*
X033052Y009672D03*
X033052Y010440D03*
X034092Y008548D03*
X034092Y007780D03*
D133*
X034092Y007784D03*
X034092Y008544D03*
D134*
X034092Y007788D03*
X033052Y009676D03*
X033052Y010432D03*
D135*
X033052Y010428D03*
X033052Y009680D03*
X034092Y008540D03*
X034092Y008536D03*
X034092Y007792D03*
D136*
X034092Y007796D03*
X034092Y008532D03*
X033052Y009688D03*
D137*
X033052Y009692D03*
X033052Y010416D03*
X033052Y010420D03*
X034092Y008528D03*
X034092Y007800D03*
D138*
X034090Y007804D03*
D139*
X034092Y007808D03*
X033052Y009696D03*
X033052Y010412D03*
D140*
X033052Y010408D03*
X033052Y009700D03*
X034092Y008516D03*
X034092Y007812D03*
D141*
X034092Y007816D03*
X034092Y007820D03*
X034092Y008512D03*
X033052Y009708D03*
X033052Y010400D03*
D142*
X034092Y008504D03*
X034092Y007824D03*
D143*
X034092Y007828D03*
X034092Y007832D03*
X034092Y008500D03*
X033052Y009720D03*
X033052Y010388D03*
X033052Y010392D03*
D144*
X033052Y009728D03*
X034092Y008496D03*
X034092Y008492D03*
X034092Y007836D03*
D145*
X034092Y007840D03*
X034092Y008488D03*
X033052Y009732D03*
X033052Y010376D03*
X033052Y010380D03*
D146*
X034092Y007844D03*
D147*
X034092Y007848D03*
X034092Y008480D03*
X033052Y009736D03*
X033052Y009740D03*
X033052Y010372D03*
D148*
X033052Y010368D03*
X034092Y008476D03*
X034092Y008472D03*
X034092Y007856D03*
X034092Y007852D03*
D149*
X034092Y007860D03*
X034092Y008468D03*
X033052Y009752D03*
X033052Y010356D03*
X033052Y010360D03*
D150*
X034092Y007864D03*
D151*
X034092Y007868D03*
X034092Y008460D03*
X033052Y009756D03*
X033052Y009760D03*
X033052Y010352D03*
D152*
X033052Y009768D03*
X034092Y008456D03*
X034092Y008452D03*
X034092Y007876D03*
X034092Y007872D03*
D153*
X034092Y007880D03*
X034092Y008448D03*
X033052Y009772D03*
X033052Y009776D03*
X033052Y010336D03*
X033052Y010340D03*
D154*
X034092Y008444D03*
X034092Y007884D03*
D155*
X034092Y007888D03*
X034092Y007892D03*
X034092Y008436D03*
X034092Y008440D03*
X033052Y009780D03*
X033052Y010328D03*
X033052Y010332D03*
D156*
X033052Y010320D03*
X033052Y009792D03*
X033052Y009788D03*
X034092Y008432D03*
X034092Y008428D03*
X034092Y007900D03*
X034092Y007896D03*
D157*
X034092Y007904D03*
X034092Y008424D03*
D158*
X034092Y008420D03*
X034092Y007908D03*
X033052Y009796D03*
X033052Y009800D03*
X033052Y010312D03*
X033052Y010316D03*
D159*
X033052Y010308D03*
X033052Y009808D03*
X034092Y008416D03*
X034092Y008412D03*
X034092Y007916D03*
X034092Y007912D03*
D160*
X034092Y007920D03*
X034092Y007928D03*
X034092Y008408D03*
X033052Y009812D03*
X033052Y009816D03*
X033052Y010292D03*
X033052Y010296D03*
X033052Y010300D03*
D161*
X034092Y008404D03*
X034092Y007924D03*
D162*
X034092Y007932D03*
X034092Y007936D03*
X034092Y008392D03*
X034092Y008396D03*
X034092Y008400D03*
X033052Y009820D03*
X033052Y010288D03*
D163*
X033052Y010280D03*
X033052Y010276D03*
X033052Y010272D03*
X033052Y009836D03*
X033052Y009832D03*
X034092Y008388D03*
X034092Y007940D03*
D164*
X034092Y007944D03*
X034092Y008384D03*
D165*
X034090Y007948D03*
D166*
X034092Y007952D03*
X034092Y007956D03*
X034092Y008372D03*
X034092Y008376D03*
X034092Y008380D03*
X033052Y009840D03*
X033052Y009848D03*
X033052Y010268D03*
D167*
X033052Y010260D03*
X033052Y010256D03*
X033052Y010252D03*
X033052Y009856D03*
X033052Y009852D03*
X034092Y008368D03*
X034092Y008360D03*
X034092Y007968D03*
X034092Y007960D03*
D168*
X034092Y007964D03*
X034092Y008364D03*
D169*
X034092Y008356D03*
X034092Y008352D03*
X034092Y008348D03*
X034092Y007980D03*
X034092Y007976D03*
X034092Y007972D03*
X033052Y009868D03*
X033052Y010240D03*
X033052Y010248D03*
D170*
X033052Y009884D03*
X034092Y008344D03*
X034092Y007984D03*
D171*
X034092Y007988D03*
X034092Y007992D03*
X034092Y008336D03*
X034092Y008340D03*
X033052Y009876D03*
X033052Y009880D03*
X033052Y010228D03*
X033052Y010232D03*
X033052Y010236D03*
D172*
X033052Y010220D03*
X033052Y010216D03*
X033052Y010212D03*
X033052Y009896D03*
X033052Y009892D03*
X033052Y009888D03*
X034092Y008332D03*
X034092Y008328D03*
X034092Y008008D03*
X034092Y008000D03*
X034092Y007996D03*
D173*
X034092Y008004D03*
X034092Y008324D03*
X033052Y010224D03*
D174*
X033052Y010208D03*
X033052Y010200D03*
X033052Y010196D03*
X033052Y009912D03*
X033052Y009908D03*
X033052Y009900D03*
X034092Y008316D03*
X034092Y008312D03*
X034092Y008308D03*
X034092Y008020D03*
X034092Y008016D03*
X034092Y008012D03*
D175*
X034092Y008024D03*
X033052Y009904D03*
X033052Y010204D03*
D176*
X033052Y010192D03*
X033052Y010188D03*
X033052Y010180D03*
X033052Y009932D03*
X033052Y009928D03*
X033052Y009920D03*
X033052Y009916D03*
X034092Y008300D03*
X034092Y008296D03*
X034092Y008292D03*
X034092Y008288D03*
X034092Y008040D03*
X034092Y008036D03*
X034092Y008032D03*
X034092Y008028D03*
D177*
X034092Y008044D03*
X034092Y008284D03*
X033052Y009944D03*
X033052Y010164D03*
D178*
X033052Y010160D03*
X033052Y010168D03*
X033052Y010172D03*
X033052Y009952D03*
X033052Y009948D03*
X033052Y009940D03*
X033052Y009936D03*
X034092Y008280D03*
X034092Y008276D03*
X034092Y008272D03*
X034092Y008268D03*
X034092Y008060D03*
X034092Y008056D03*
X034092Y008052D03*
X034092Y008048D03*
D179*
X032730Y008064D03*
X032730Y008264D03*
X034406Y010164D03*
X032730Y011844D03*
D180*
X034090Y008064D03*
D181*
X034092Y008068D03*
X034092Y008072D03*
X034092Y008076D03*
X034092Y008080D03*
X034092Y008088D03*
X034092Y008240D03*
X034092Y008248D03*
X034092Y008252D03*
X034092Y008256D03*
X034092Y008260D03*
X033052Y009956D03*
X033052Y009960D03*
X033052Y009968D03*
X033052Y009972D03*
X033052Y009976D03*
X033052Y009980D03*
X033052Y010132D03*
X033052Y010136D03*
X033052Y010140D03*
X033052Y010148D03*
X033052Y010152D03*
D182*
X033052Y010144D03*
X033052Y009964D03*
X034092Y008264D03*
X034092Y008244D03*
X034092Y008084D03*
D183*
X034090Y008092D03*
D184*
X034092Y008096D03*
X034092Y008100D03*
X034092Y008108D03*
X034092Y008112D03*
X034092Y008116D03*
X034092Y008120D03*
X034092Y008128D03*
X034092Y008132D03*
X034092Y008136D03*
X034092Y008196D03*
X034092Y008200D03*
X034092Y008208D03*
X034092Y008212D03*
X034092Y008216D03*
X034092Y008220D03*
X034092Y008228D03*
X034092Y008232D03*
X034092Y008236D03*
X033052Y009988D03*
X033052Y009992D03*
X033052Y009996D03*
X033052Y010000D03*
X033052Y010008D03*
X033052Y010012D03*
X033052Y010016D03*
X033052Y010020D03*
X033052Y010088D03*
X033052Y010092D03*
X033052Y010096D03*
X033052Y010100D03*
X033052Y010108D03*
X033052Y010112D03*
X033052Y010116D03*
X033052Y010120D03*
D185*
X032702Y011884D03*
X032702Y008104D03*
D186*
X034092Y008104D03*
X034092Y008124D03*
X034092Y008204D03*
X034092Y008224D03*
X033052Y009984D03*
X033052Y010004D03*
X033052Y010024D03*
X033052Y010084D03*
X033052Y010104D03*
X033052Y010124D03*
D187*
X032698Y011888D03*
X032698Y008220D03*
X032698Y008108D03*
D188*
X032688Y008124D03*
X032688Y008204D03*
X032688Y011904D03*
D189*
X032684Y011912D03*
X032684Y008196D03*
X032684Y008132D03*
D190*
X032682Y008136D03*
X032682Y008192D03*
X034462Y010028D03*
X032682Y011916D03*
D191*
X033052Y010080D03*
X033052Y010068D03*
X033052Y010060D03*
X033052Y010056D03*
X033052Y010052D03*
X033052Y010048D03*
X033052Y010040D03*
X033052Y010032D03*
X034092Y008188D03*
X034092Y008180D03*
X034092Y008176D03*
X034092Y008172D03*
X034092Y008168D03*
X034092Y008160D03*
X034092Y008156D03*
X034092Y008152D03*
X034092Y008148D03*
X034092Y008140D03*
D192*
X032676Y008144D03*
X032676Y008184D03*
D193*
X034090Y008184D03*
X034090Y008144D03*
D194*
X032670Y008156D03*
X032670Y008172D03*
X032670Y011936D03*
D195*
X032666Y011944D03*
X032666Y008164D03*
D196*
X034092Y008164D03*
X033052Y010044D03*
X033052Y010064D03*
D197*
X033054Y010072D03*
X033054Y010076D03*
X033054Y010036D03*
X033054Y010028D03*
X034090Y008192D03*
D198*
X032700Y008224D03*
D199*
X032714Y008244D03*
X034422Y010144D03*
D200*
X034420Y010148D03*
X034416Y010152D03*
X033052Y009516D03*
X032720Y008252D03*
D201*
X034092Y008304D03*
X033052Y009924D03*
X033052Y010184D03*
D202*
X034090Y008320D03*
D203*
X034092Y008464D03*
D204*
X034092Y008484D03*
D205*
X034092Y008508D03*
X033052Y009712D03*
X033052Y009716D03*
X033052Y010396D03*
D206*
X034090Y008520D03*
D207*
X034092Y008524D03*
D208*
X034090Y008560D03*
D209*
X034092Y008564D03*
D210*
X034092Y008568D03*
X033052Y009652D03*
X033052Y010456D03*
D211*
X033052Y010488D03*
X033052Y009620D03*
X034092Y008600D03*
D212*
X034092Y008604D03*
D213*
X034092Y008608D03*
X033052Y009612D03*
X033052Y010496D03*
D214*
X034090Y008616D03*
D215*
X034092Y008628D03*
X033052Y009592D03*
D216*
X033052Y009588D03*
X033052Y010520D03*
X034092Y008632D03*
D217*
X034090Y008636D03*
D218*
X034092Y008644D03*
D219*
X034092Y008648D03*
X033052Y009572D03*
X033052Y010536D03*
D220*
X034092Y008656D03*
D221*
X034092Y008664D03*
D222*
X034092Y008672D03*
X033052Y009548D03*
D223*
X034090Y008680D03*
D224*
X034092Y008684D03*
D225*
X034092Y008688D03*
X033052Y009532D03*
D226*
X033052Y009508D03*
X034092Y008712D03*
X034460Y010088D03*
D227*
X034092Y008724D03*
D228*
X034092Y008728D03*
D229*
X034092Y008736D03*
X032636Y012020D03*
D230*
X034092Y008740D03*
D231*
X034092Y008748D03*
X033052Y009472D03*
D232*
X033052Y009468D03*
X034092Y008752D03*
D233*
X034092Y008756D03*
D234*
X034092Y008760D03*
D235*
X034092Y008764D03*
D236*
X033052Y009456D03*
D237*
X033052Y009460D03*
D238*
X033052Y009464D03*
D239*
X033052Y009476D03*
X032628Y012056D03*
D240*
X032632Y012036D03*
X033052Y009480D03*
D241*
X033052Y009484D03*
D242*
X033052Y009504D03*
X034472Y010044D03*
D243*
X033052Y009520D03*
D244*
X033052Y009524D03*
X033052Y010584D03*
D245*
X033054Y009528D03*
D246*
X033052Y009536D03*
D247*
X033052Y009540D03*
X033052Y010568D03*
D248*
X033052Y009544D03*
D249*
X033054Y009552D03*
D250*
X033052Y009556D03*
D251*
X033054Y009560D03*
D252*
X033052Y009564D03*
D253*
X033052Y009576D03*
D254*
X033052Y009584D03*
X033052Y010524D03*
D255*
X033052Y010516D03*
X033052Y009596D03*
D256*
X033052Y009604D03*
X033052Y010504D03*
D257*
X033052Y010492D03*
X033052Y009616D03*
D258*
X033052Y009624D03*
X033052Y010484D03*
D259*
X033052Y010472D03*
X033052Y009636D03*
D260*
X033052Y009644D03*
X033052Y010464D03*
D261*
X033052Y009664D03*
D262*
X033052Y009684D03*
X033052Y010424D03*
D263*
X033052Y009704D03*
D264*
X033052Y009724D03*
X033052Y010384D03*
D265*
X033052Y010364D03*
X033052Y009744D03*
D266*
X033054Y009748D03*
D267*
X033052Y009764D03*
X033052Y010344D03*
D268*
X033054Y009784D03*
D269*
X033052Y009804D03*
X033052Y010304D03*
D270*
X033052Y010284D03*
X033052Y009824D03*
D271*
X033054Y009828D03*
D272*
X033052Y009844D03*
X033052Y010264D03*
D273*
X033054Y009860D03*
D274*
X033052Y009864D03*
X033052Y010244D03*
D275*
X033054Y009872D03*
D276*
X034434Y009984D03*
X034438Y010124D03*
D277*
X034456Y010096D03*
X034456Y010016D03*
X033052Y010600D03*
X032692Y011900D03*
D278*
X034474Y010048D03*
D279*
X034462Y010084D03*
D280*
X034450Y010104D03*
D281*
X033054Y010128D03*
D282*
X033054Y010156D03*
D283*
X033054Y010176D03*
D284*
X033052Y010324D03*
D285*
X033054Y010348D03*
D286*
X033052Y010404D03*
D287*
X033054Y010436D03*
D288*
X033052Y010444D03*
D289*
X033054Y010544D03*
D290*
X033052Y010556D03*
D291*
X033052Y010564D03*
D292*
X033052Y010576D03*
D293*
X033054Y010588D03*
D294*
X033052Y010604D03*
D295*
X033052Y010616D03*
X032652Y011976D03*
D296*
X033052Y010636D03*
D297*
X033052Y010644D03*
D298*
X033052Y010652D03*
D299*
X032678Y011924D03*
D300*
X032656Y011964D03*
D301*
X032654Y011972D03*
D302*
X032648Y011984D03*
D303*
X032640Y012004D03*
D304*
X032638Y012016D03*
D305*
X032634Y012024D03*
D306*
X032630Y012044D03*
D307*
X032628Y012052D03*
D308*
X032626Y012064D03*
D309*
X032626Y012076D03*
D310*
X032626Y012080D03*
D311*
X032626Y012084D03*
D312*
X032626Y012096D03*
D313*
X032626Y012104D03*
D314*
X032628Y012108D03*
D315*
X032626Y012112D03*
D316*
X032626Y012116D03*
D317*
X032628Y012124D03*
D318*
X032628Y012132D03*
D319*
X032628Y012136D03*
M02*
