G75*
%MOIN*%
%OFA0B0*%
%FSLAX24Y24*%
%IPPOS*%
%LPD*%
%AMOC8*
5,1,8,0,0,1.08239X$1,22.5*
%
%ADD10C,0.1700*%
%ADD11C,0.0780*%
%ADD12C,0.0740*%
%ADD13C,0.0650*%
%ADD14R,0.0650X0.0650*%
%ADD15C,0.0740*%
%ADD16R,0.0591X0.0787*%
%ADD17R,0.1496X0.0787*%
%ADD18C,0.0280*%
%ADD19C,0.0200*%
%ADD20C,0.0500*%
%ADD21C,0.0100*%
%ADD22C,0.0120*%
%ADD23R,0.0356X0.0356*%
%ADD24C,0.0400*%
%ADD25C,0.0356*%
D10*
X004713Y001699D03*
X005894Y003549D03*
X003531Y003549D03*
D11*
X009044Y007119D03*
X009044Y011119D03*
D12*
X009080Y020030D02*
X009080Y020770D01*
X010080Y020770D02*
X010080Y020030D01*
X011080Y020030D02*
X011080Y020770D01*
X012080Y020770D02*
X012080Y020030D01*
X013080Y020030D02*
X013080Y020770D01*
X014080Y020770D02*
X014080Y020030D01*
X015080Y020030D02*
X015080Y020770D01*
X016080Y020770D02*
X016080Y020030D01*
X017080Y020030D02*
X017080Y020770D01*
X018080Y020770D02*
X018080Y020030D01*
X019680Y020030D02*
X019680Y020770D01*
X020680Y020770D02*
X020680Y020030D01*
X021680Y020030D02*
X021680Y020770D01*
X022680Y020770D02*
X022680Y020030D01*
X023680Y020030D02*
X023680Y020770D01*
X024680Y020770D02*
X024680Y020030D01*
X025680Y020030D02*
X025680Y020770D01*
X026680Y020770D02*
X026680Y020030D01*
X026680Y001770D02*
X026680Y001030D01*
X025680Y001030D02*
X025680Y001770D01*
X024680Y001770D02*
X024680Y001030D01*
X023680Y001030D02*
X023680Y001770D01*
X022680Y001770D02*
X022680Y001030D01*
X021680Y001030D02*
X021680Y001770D01*
X019680Y001770D02*
X019680Y001030D01*
X018680Y001030D02*
X018680Y001770D01*
X017680Y001770D02*
X017680Y001030D01*
X016680Y001030D02*
X016680Y001770D01*
X015680Y001770D02*
X015680Y001030D01*
X014680Y001030D02*
X014680Y001770D01*
X013680Y001770D02*
X013680Y001030D01*
X012680Y001030D02*
X012680Y001770D01*
D13*
X007430Y008400D03*
X007430Y009400D03*
X006470Y017310D03*
X003210Y017310D03*
D14*
X003210Y018310D03*
X006470Y018310D03*
D15*
X003272Y007888D03*
X003272Y006888D03*
X009780Y004830D03*
X010780Y004830D03*
X010780Y002250D03*
X009780Y002250D03*
X029320Y003200D03*
X030390Y003200D03*
X030390Y004200D03*
X029320Y004200D03*
X029320Y005200D03*
X030390Y005200D03*
X030390Y006200D03*
X029320Y006200D03*
X029320Y007200D03*
X030390Y007200D03*
X030390Y008200D03*
X029320Y008200D03*
X029320Y009200D03*
X030390Y009200D03*
X030390Y010200D03*
X029320Y010200D03*
X029320Y011200D03*
X030390Y011200D03*
X030390Y012200D03*
X029320Y012200D03*
X029320Y013200D03*
X030390Y013200D03*
X030390Y014200D03*
X029320Y014200D03*
X029320Y015200D03*
X030390Y015200D03*
X036390Y015200D03*
X037460Y015200D03*
X037460Y014200D03*
X036390Y014200D03*
X036390Y013200D03*
X037460Y013200D03*
X037460Y012200D03*
X036390Y012200D03*
X036390Y011200D03*
X037460Y011200D03*
X037460Y010200D03*
X036390Y010200D03*
X036390Y009200D03*
X037460Y009200D03*
X037460Y008200D03*
X036390Y008200D03*
X036390Y007200D03*
X037460Y007200D03*
X037460Y006200D03*
X036390Y006200D03*
X036390Y005200D03*
X037460Y005200D03*
X037460Y004200D03*
X036390Y004200D03*
X036390Y003200D03*
X037460Y003200D03*
D16*
X005238Y011440D03*
X004332Y011440D03*
X003426Y011440D03*
D17*
X004332Y013920D03*
D18*
X011140Y013140D03*
X015890Y012960D03*
X017220Y016100D03*
X017780Y017230D03*
X018930Y018460D03*
X023100Y017330D03*
X026200Y017100D03*
X026600Y016550D03*
X026630Y015130D03*
X024880Y014320D03*
X026130Y013720D03*
X031970Y015200D03*
X033620Y013870D03*
X033150Y013440D03*
X032220Y013700D03*
X034400Y014180D03*
X034530Y013370D03*
X035010Y008560D03*
X034700Y007140D03*
X034880Y005690D03*
X035410Y003870D03*
X034490Y003350D03*
X033040Y003930D03*
X026350Y004080D03*
X025960Y003540D03*
X023040Y003550D03*
X020800Y003350D03*
X020450Y002840D03*
X018200Y005430D03*
X014370Y004750D03*
X011720Y008740D03*
X013120Y017130D03*
X010850Y018150D03*
D19*
X010860Y016250D01*
X012130Y014980D01*
X024220Y014980D01*
X024880Y014320D01*
X012080Y020390D02*
X012080Y020400D01*
X020860Y005510D02*
X020100Y004750D01*
X014370Y004750D01*
X020450Y003670D02*
X020450Y002840D01*
X020800Y003350D02*
X022320Y004870D01*
X027990Y004870D01*
X028680Y004180D01*
X028680Y003460D01*
X028950Y003190D01*
X029310Y003190D01*
X029320Y003200D01*
X029320Y004200D02*
X029170Y004200D01*
X028180Y005190D01*
X021970Y005190D01*
X020450Y003670D01*
X023040Y003550D02*
X023050Y003540D01*
X025960Y003540D01*
X029320Y004200D02*
X030390Y004200D01*
X029320Y005200D02*
X029010Y005510D01*
X020860Y005510D01*
D20*
X016680Y003100D02*
X016380Y003400D01*
X014010Y003400D01*
X013680Y003070D01*
X013680Y001400D01*
X016680Y001400D02*
X016680Y003100D01*
X009780Y004830D02*
X009770Y004820D01*
X007840Y004820D01*
X006330Y006330D01*
X006330Y009070D01*
X006650Y009390D01*
X007420Y009390D01*
X007430Y009400D01*
X006180Y010650D01*
X006180Y013740D01*
X006000Y013920D01*
X004332Y013920D01*
X006180Y013740D02*
X006180Y015700D01*
X005230Y016650D01*
X005230Y017970D01*
X005530Y018270D01*
X006430Y018270D01*
X006470Y018310D01*
X005238Y011440D02*
X005238Y009854D01*
X003272Y007888D01*
D21*
X002180Y000900D02*
X002180Y020900D01*
X006722Y020900D01*
X006674Y020817D01*
X006600Y020542D01*
X006600Y020258D01*
X006674Y019983D01*
X006816Y019737D01*
X007017Y019536D01*
X007263Y019394D01*
X007538Y019320D01*
X007822Y019320D01*
X008097Y019394D01*
X008343Y019536D01*
X008544Y019737D01*
X008599Y019832D01*
X008639Y019735D01*
X008785Y019589D01*
X008977Y019510D01*
X009183Y019510D01*
X009375Y019589D01*
X009521Y019735D01*
X009580Y019878D01*
X009639Y019735D01*
X009785Y019589D01*
X009977Y019510D01*
X010183Y019510D01*
X010375Y019589D01*
X010521Y019735D01*
X010580Y019878D01*
X010639Y019735D01*
X010785Y019589D01*
X010977Y019510D01*
X011183Y019510D01*
X011375Y019589D01*
X011521Y019735D01*
X011581Y019882D01*
X011598Y019830D01*
X011635Y019757D01*
X011683Y019691D01*
X011741Y019633D01*
X011807Y019585D01*
X011880Y019548D01*
X011958Y019523D01*
X012030Y019511D01*
X012030Y020350D01*
X012130Y020350D01*
X012130Y019511D01*
X012202Y019523D01*
X012280Y019548D01*
X012353Y019585D01*
X012419Y019633D01*
X012477Y019691D01*
X012525Y019757D01*
X012562Y019830D01*
X012579Y019882D01*
X012639Y019735D01*
X012785Y019589D01*
X012977Y019510D01*
X013183Y019510D01*
X013375Y019589D01*
X013521Y019735D01*
X013580Y019878D01*
X013639Y019735D01*
X013785Y019589D01*
X013977Y019510D01*
X014183Y019510D01*
X014375Y019589D01*
X014521Y019735D01*
X014580Y019878D01*
X014639Y019735D01*
X014785Y019589D01*
X014977Y019510D01*
X015183Y019510D01*
X015375Y019589D01*
X015521Y019735D01*
X015580Y019878D01*
X015639Y019735D01*
X015785Y019589D01*
X015977Y019510D01*
X016183Y019510D01*
X016375Y019589D01*
X016521Y019735D01*
X016580Y019878D01*
X016639Y019735D01*
X016785Y019589D01*
X016977Y019510D01*
X017183Y019510D01*
X017375Y019589D01*
X017521Y019735D01*
X017580Y019878D01*
X017639Y019735D01*
X017785Y019589D01*
X017977Y019510D01*
X018183Y019510D01*
X018375Y019589D01*
X018521Y019735D01*
X018600Y019927D01*
X018600Y020873D01*
X018589Y020900D01*
X019171Y020900D01*
X019160Y020873D01*
X019160Y019927D01*
X019239Y019735D01*
X019385Y019589D01*
X019577Y019510D01*
X019783Y019510D01*
X019975Y019589D01*
X020121Y019735D01*
X020180Y019878D01*
X020239Y019735D01*
X020385Y019589D01*
X020577Y019510D01*
X020783Y019510D01*
X020975Y019589D01*
X021121Y019735D01*
X021180Y019878D01*
X021239Y019735D01*
X021385Y019589D01*
X021577Y019510D01*
X021783Y019510D01*
X021975Y019589D01*
X022121Y019735D01*
X022180Y019878D01*
X022239Y019735D01*
X022385Y019589D01*
X022577Y019510D01*
X022783Y019510D01*
X022975Y019589D01*
X023121Y019735D01*
X023180Y019878D01*
X023239Y019735D01*
X023385Y019589D01*
X023577Y019510D01*
X023783Y019510D01*
X023975Y019589D01*
X024121Y019735D01*
X024180Y019878D01*
X024239Y019735D01*
X024385Y019589D01*
X024480Y019550D01*
X024480Y015747D01*
X024827Y015400D01*
X024932Y015295D01*
X026238Y013989D01*
X026188Y014010D01*
X026072Y014010D01*
X025966Y013966D01*
X025884Y013884D01*
X025840Y013778D01*
X025840Y013662D01*
X025884Y013556D01*
X025930Y013510D01*
X025930Y012887D01*
X026047Y012770D01*
X027317Y011500D01*
X028885Y011500D01*
X028879Y011495D01*
X028800Y011303D01*
X028800Y011097D01*
X028879Y010905D01*
X029025Y010759D01*
X029168Y010700D01*
X029025Y010641D01*
X028879Y010495D01*
X028800Y010303D01*
X028800Y010097D01*
X028879Y009905D01*
X029025Y009759D01*
X029168Y009700D01*
X029025Y009641D01*
X028879Y009495D01*
X028800Y009303D01*
X028800Y009097D01*
X028879Y008905D01*
X029025Y008759D01*
X029168Y008700D01*
X029025Y008641D01*
X028879Y008495D01*
X028800Y008303D01*
X028800Y008097D01*
X028879Y007905D01*
X029025Y007759D01*
X029168Y007700D01*
X029025Y007641D01*
X028879Y007495D01*
X028800Y007303D01*
X028800Y007097D01*
X028879Y006905D01*
X029025Y006759D01*
X029168Y006700D01*
X029025Y006641D01*
X028879Y006495D01*
X028800Y006303D01*
X028800Y006097D01*
X028879Y005905D01*
X029025Y005760D01*
X020810Y005760D01*
X020718Y005722D01*
X019996Y005000D01*
X014524Y005000D01*
X014428Y005040D01*
X014312Y005040D01*
X014206Y004996D01*
X014124Y004914D01*
X014080Y004808D01*
X014080Y004692D01*
X014124Y004586D01*
X014206Y004504D01*
X014312Y004460D01*
X014428Y004460D01*
X014524Y004500D01*
X020150Y004500D01*
X020242Y004538D01*
X020312Y004608D01*
X020964Y005260D01*
X028800Y005260D01*
X028800Y005097D01*
X028879Y004905D01*
X029025Y004759D01*
X029172Y004699D01*
X029120Y004682D01*
X029047Y004645D01*
X028981Y004597D01*
X028923Y004539D01*
X028875Y004473D01*
X028838Y004400D01*
X028832Y004381D01*
X028822Y004392D01*
X028132Y005082D01*
X028040Y005120D01*
X022270Y005120D01*
X022178Y005082D01*
X022108Y005012D01*
X020732Y003636D01*
X020636Y003596D01*
X020554Y003514D01*
X020510Y003408D01*
X020510Y003292D01*
X020554Y003186D01*
X020636Y003104D01*
X020742Y003060D01*
X020858Y003060D01*
X020964Y003104D01*
X021046Y003186D01*
X021086Y003282D01*
X022424Y004620D01*
X022577Y004620D01*
X022510Y004553D01*
X021480Y003523D01*
X021480Y002250D01*
X021385Y002211D01*
X021239Y002065D01*
X021160Y001873D01*
X021160Y000927D01*
X021171Y000900D01*
X020189Y000900D01*
X020200Y000927D01*
X020200Y001873D01*
X020121Y002065D01*
X019975Y002211D01*
X019783Y002290D01*
X019577Y002290D01*
X019385Y002211D01*
X019239Y002065D01*
X019179Y001918D01*
X019162Y001970D01*
X019125Y002043D01*
X019077Y002109D01*
X019019Y002167D01*
X018953Y002215D01*
X018880Y002252D01*
X018802Y002277D01*
X018730Y002289D01*
X018730Y001450D01*
X018630Y001450D01*
X018630Y002289D01*
X018558Y002277D01*
X018480Y002252D01*
X018407Y002215D01*
X018341Y002167D01*
X018283Y002109D01*
X018235Y002043D01*
X018198Y001970D01*
X018180Y001914D01*
X018162Y001970D01*
X018125Y002043D01*
X018077Y002109D01*
X018019Y002167D01*
X017953Y002215D01*
X017880Y002252D01*
X017802Y002277D01*
X017730Y002289D01*
X017730Y001450D01*
X018630Y001450D01*
X018630Y001350D01*
X018200Y001350D01*
X017730Y001350D01*
X017730Y001450D01*
X017630Y001450D01*
X017630Y002289D01*
X017558Y002277D01*
X017480Y002252D01*
X017407Y002215D01*
X017341Y002167D01*
X017283Y002109D01*
X017235Y002043D01*
X017198Y001970D01*
X017181Y001918D01*
X017121Y002065D01*
X017080Y002105D01*
X017080Y003180D01*
X017019Y003327D01*
X016719Y003627D01*
X016607Y003739D01*
X016460Y003800D01*
X013930Y003800D01*
X013783Y003739D01*
X013671Y003627D01*
X013341Y003297D01*
X013280Y003150D01*
X013280Y002105D01*
X013239Y002065D01*
X013180Y001922D01*
X013121Y002065D01*
X012975Y002211D01*
X012783Y002290D01*
X012577Y002290D01*
X012385Y002211D01*
X012239Y002065D01*
X012160Y001873D01*
X012160Y000927D01*
X012171Y000900D01*
X008138Y000900D01*
X008186Y000983D01*
X008260Y001258D01*
X008260Y001542D01*
X008186Y001817D01*
X008044Y002063D01*
X007843Y002264D01*
X007597Y002406D01*
X007322Y002480D01*
X007038Y002480D01*
X006763Y002406D01*
X006517Y002264D01*
X006316Y002063D01*
X006174Y001817D01*
X006100Y001542D01*
X006100Y001258D01*
X006174Y000983D01*
X006222Y000900D01*
X005328Y000900D01*
X005560Y001132D01*
X005713Y001500D01*
X005713Y001898D01*
X005560Y002265D01*
X005279Y002547D01*
X004912Y002699D01*
X004514Y002699D01*
X004146Y002547D01*
X003865Y002265D01*
X003713Y001898D01*
X003713Y001500D01*
X003865Y001132D01*
X004097Y000900D01*
X002180Y000900D01*
X002180Y000991D02*
X004006Y000991D01*
X003908Y001090D02*
X002180Y001090D01*
X002180Y001188D02*
X003842Y001188D01*
X003801Y001287D02*
X002180Y001287D01*
X002180Y001385D02*
X003760Y001385D01*
X003719Y001484D02*
X002180Y001484D01*
X002180Y001582D02*
X003713Y001582D01*
X003713Y001681D02*
X002180Y001681D01*
X002180Y001779D02*
X003713Y001779D01*
X003713Y001878D02*
X002180Y001878D01*
X002180Y001976D02*
X003745Y001976D01*
X003786Y002075D02*
X002180Y002075D01*
X002180Y002173D02*
X003827Y002173D01*
X003871Y002272D02*
X002180Y002272D01*
X002180Y002370D02*
X003970Y002370D01*
X004068Y002469D02*
X002180Y002469D01*
X002180Y002567D02*
X003341Y002567D01*
X003364Y002562D02*
X003475Y002549D01*
X003481Y002549D01*
X003481Y003499D01*
X002531Y003499D01*
X002531Y003493D01*
X002544Y003381D01*
X002569Y003272D01*
X002606Y003166D01*
X002655Y003065D01*
X002715Y002970D01*
X002785Y002882D01*
X002864Y002802D01*
X002952Y002732D01*
X003047Y002673D01*
X003148Y002624D01*
X003254Y002587D01*
X003364Y002562D01*
X003481Y002567D02*
X003581Y002567D01*
X003581Y002549D02*
X003588Y002549D01*
X003699Y002562D01*
X003809Y002587D01*
X003915Y002624D01*
X004016Y002673D01*
X004111Y002732D01*
X004199Y002802D01*
X004278Y002882D01*
X004348Y002970D01*
X004408Y003065D01*
X004457Y003166D01*
X004494Y003272D01*
X004519Y003381D01*
X004531Y003493D01*
X004531Y003499D01*
X003582Y003499D01*
X003582Y003599D01*
X004531Y003599D01*
X004531Y003605D01*
X004519Y003717D01*
X004494Y003826D01*
X004457Y003932D01*
X004408Y004034D01*
X004348Y004129D01*
X004278Y004217D01*
X004199Y004296D01*
X004111Y004366D01*
X004016Y004426D01*
X003915Y004475D01*
X003809Y004512D01*
X003699Y004537D01*
X003588Y004549D01*
X003581Y004549D01*
X003581Y003599D01*
X003481Y003599D01*
X003481Y003499D01*
X003581Y003499D01*
X003581Y002549D01*
X003581Y002666D02*
X003481Y002666D01*
X003481Y002764D02*
X003581Y002764D01*
X003581Y002863D02*
X003481Y002863D01*
X003481Y002961D02*
X003581Y002961D01*
X003581Y003060D02*
X003481Y003060D01*
X003481Y003158D02*
X003581Y003158D01*
X003581Y003257D02*
X003481Y003257D01*
X003481Y003355D02*
X003581Y003355D01*
X003581Y003454D02*
X003481Y003454D01*
X003481Y003552D02*
X002180Y003552D01*
X002180Y003454D02*
X002536Y003454D01*
X002550Y003355D02*
X002180Y003355D01*
X002180Y003257D02*
X002574Y003257D01*
X002610Y003158D02*
X002180Y003158D01*
X002180Y003060D02*
X002658Y003060D01*
X002722Y002961D02*
X002180Y002961D01*
X002180Y002863D02*
X002804Y002863D01*
X002912Y002764D02*
X002180Y002764D01*
X002180Y002666D02*
X003062Y002666D01*
X003722Y002567D02*
X004195Y002567D01*
X004151Y002764D02*
X005265Y002764D01*
X005327Y002701D02*
X005695Y002549D01*
X006093Y002549D01*
X006460Y002701D01*
X006741Y002983D01*
X006894Y003350D01*
X006894Y003748D01*
X006741Y004116D01*
X006460Y004397D01*
X006093Y004549D01*
X005695Y004549D01*
X005327Y004397D01*
X005046Y004116D01*
X004894Y003748D01*
X004894Y003350D01*
X005046Y002983D01*
X005327Y002701D01*
X005414Y002666D02*
X004992Y002666D01*
X005230Y002567D02*
X005652Y002567D01*
X005456Y002370D02*
X006700Y002370D01*
X006530Y002272D02*
X005554Y002272D01*
X005599Y002173D02*
X006426Y002173D01*
X006327Y002075D02*
X005639Y002075D01*
X005680Y001976D02*
X006266Y001976D01*
X006209Y001878D02*
X005713Y001878D01*
X005713Y001779D02*
X006164Y001779D01*
X006137Y001681D02*
X005713Y001681D01*
X005713Y001582D02*
X006111Y001582D01*
X006100Y001484D02*
X005706Y001484D01*
X005665Y001385D02*
X006100Y001385D01*
X006100Y001287D02*
X005624Y001287D01*
X005583Y001188D02*
X006119Y001188D01*
X006145Y001090D02*
X005517Y001090D01*
X005419Y000991D02*
X006172Y000991D01*
X008188Y000991D02*
X012160Y000991D01*
X012160Y001090D02*
X008215Y001090D01*
X008241Y001188D02*
X012160Y001188D01*
X012160Y001287D02*
X008260Y001287D01*
X008260Y001385D02*
X012160Y001385D01*
X012160Y001484D02*
X008260Y001484D01*
X008249Y001582D02*
X012160Y001582D01*
X012160Y001681D02*
X008223Y001681D01*
X008196Y001779D02*
X009558Y001779D01*
X009485Y001809D02*
X009677Y001730D01*
X009883Y001730D01*
X010075Y001809D01*
X010221Y001955D01*
X010281Y002102D01*
X010298Y002050D01*
X010335Y001977D01*
X010383Y001911D01*
X010441Y001853D01*
X010507Y001805D01*
X010580Y001768D01*
X010658Y001743D01*
X010730Y001731D01*
X010730Y002200D01*
X010830Y002200D01*
X010830Y002300D01*
X010730Y002300D01*
X010730Y002769D01*
X010658Y002757D01*
X010580Y002732D01*
X010507Y002695D01*
X010441Y002647D01*
X010383Y002589D01*
X010335Y002523D01*
X010298Y002450D01*
X010281Y002398D01*
X010221Y002545D01*
X010075Y002691D01*
X009883Y002770D01*
X009677Y002770D01*
X009485Y002691D01*
X009339Y002545D01*
X009260Y002353D01*
X009260Y002147D01*
X009339Y001955D01*
X009485Y001809D01*
X009417Y001878D02*
X008151Y001878D01*
X008094Y001976D02*
X009331Y001976D01*
X009290Y002075D02*
X008033Y002075D01*
X007934Y002173D02*
X009260Y002173D01*
X009260Y002272D02*
X007830Y002272D01*
X007660Y002370D02*
X009267Y002370D01*
X009308Y002469D02*
X007365Y002469D01*
X006995Y002469D02*
X005357Y002469D01*
X005166Y002863D02*
X004259Y002863D01*
X004341Y002961D02*
X005068Y002961D01*
X005014Y003060D02*
X004405Y003060D01*
X004453Y003158D02*
X004973Y003158D01*
X004933Y003257D02*
X004489Y003257D01*
X004513Y003355D02*
X004894Y003355D01*
X004894Y003454D02*
X004527Y003454D01*
X004526Y003651D02*
X004894Y003651D01*
X004894Y003749D02*
X004512Y003749D01*
X004487Y003848D02*
X004935Y003848D01*
X004976Y003946D02*
X004450Y003946D01*
X004401Y004045D02*
X005016Y004045D01*
X005073Y004143D02*
X004337Y004143D01*
X004253Y004242D02*
X005172Y004242D01*
X005270Y004340D02*
X004144Y004340D01*
X003990Y004439D02*
X005428Y004439D01*
X005665Y004537D02*
X003696Y004537D01*
X003581Y004537D02*
X003481Y004537D01*
X003481Y004549D02*
X003475Y004549D01*
X003364Y004537D01*
X003254Y004512D01*
X003148Y004475D01*
X003047Y004426D01*
X002952Y004366D01*
X002864Y004296D01*
X002785Y004217D01*
X002715Y004129D01*
X002655Y004034D01*
X002606Y003932D01*
X002569Y003826D01*
X002544Y003717D01*
X002531Y003605D01*
X002531Y003599D01*
X003481Y003599D01*
X003481Y004549D01*
X003481Y004439D02*
X003581Y004439D01*
X003581Y004340D02*
X003481Y004340D01*
X003481Y004242D02*
X003581Y004242D01*
X003581Y004143D02*
X003481Y004143D01*
X003481Y004045D02*
X003581Y004045D01*
X003581Y003946D02*
X003481Y003946D01*
X003481Y003848D02*
X003581Y003848D01*
X003581Y003749D02*
X003481Y003749D01*
X003481Y003651D02*
X003581Y003651D01*
X003582Y003552D02*
X004894Y003552D01*
X004433Y002666D02*
X004001Y002666D01*
X002537Y003651D02*
X002180Y003651D01*
X002180Y003749D02*
X002551Y003749D01*
X002576Y003848D02*
X002180Y003848D01*
X002180Y003946D02*
X002613Y003946D01*
X002662Y004045D02*
X002180Y004045D01*
X002180Y004143D02*
X002726Y004143D01*
X002810Y004242D02*
X002180Y004242D01*
X002180Y004340D02*
X002919Y004340D01*
X003073Y004439D02*
X002180Y004439D01*
X002180Y004537D02*
X003367Y004537D01*
X002180Y004636D02*
X007459Y004636D01*
X007501Y004593D02*
X007613Y004481D01*
X007760Y004420D01*
X009455Y004420D01*
X009485Y004389D01*
X009677Y004310D01*
X009883Y004310D01*
X010075Y004389D01*
X010221Y004535D01*
X010281Y004682D01*
X010298Y004630D01*
X010335Y004557D01*
X010383Y004491D01*
X010441Y004433D01*
X010507Y004385D01*
X010580Y004348D01*
X010658Y004323D01*
X010730Y004311D01*
X010730Y004780D01*
X010830Y004780D01*
X010830Y004880D01*
X010730Y004880D01*
X010730Y005349D01*
X010658Y005337D01*
X010580Y005312D01*
X010507Y005275D01*
X010441Y005227D01*
X010383Y005169D01*
X010335Y005103D01*
X010298Y005030D01*
X010281Y004978D01*
X010221Y005125D01*
X010075Y005271D01*
X009883Y005350D01*
X009677Y005350D01*
X009485Y005271D01*
X009435Y005220D01*
X008006Y005220D01*
X006730Y006496D01*
X006730Y008904D01*
X006816Y008990D01*
X007179Y008990D01*
X007336Y008925D01*
X007524Y008925D01*
X007699Y008997D01*
X007833Y009131D01*
X007905Y009306D01*
X007905Y009494D01*
X007833Y009669D01*
X007699Y009803D01*
X007524Y009875D01*
X007521Y009875D01*
X006580Y010816D01*
X006580Y015780D01*
X006519Y015927D01*
X006407Y016039D01*
X006407Y016039D01*
X005630Y016816D01*
X005630Y017804D01*
X005696Y017870D01*
X006048Y017870D01*
X006083Y017835D01*
X006857Y017835D01*
X006945Y017923D01*
X006945Y018697D01*
X006857Y018785D01*
X006083Y018785D01*
X005995Y018697D01*
X005995Y018670D01*
X005450Y018670D01*
X005303Y018609D01*
X005191Y018497D01*
X004891Y018197D01*
X004830Y018050D01*
X004830Y016570D01*
X004891Y016423D01*
X005003Y016311D01*
X005003Y016311D01*
X005780Y015534D01*
X005780Y014320D01*
X005230Y014320D01*
X005230Y014376D01*
X005142Y014464D01*
X003522Y014464D01*
X003434Y014376D01*
X003434Y013464D01*
X003522Y013376D01*
X005142Y013376D01*
X005230Y013464D01*
X005230Y013520D01*
X005780Y013520D01*
X005780Y010570D01*
X005841Y010423D01*
X006502Y009762D01*
X006423Y009729D01*
X006311Y009617D01*
X005991Y009297D01*
X005930Y009150D01*
X005930Y006250D01*
X005991Y006103D01*
X007501Y004593D01*
X007557Y004537D02*
X006122Y004537D01*
X006360Y004439D02*
X007716Y004439D01*
X007360Y004734D02*
X002180Y004734D01*
X002180Y004833D02*
X007262Y004833D01*
X007163Y004931D02*
X002180Y004931D01*
X002180Y005030D02*
X007065Y005030D01*
X006966Y005128D02*
X002180Y005128D01*
X002180Y005227D02*
X006868Y005227D01*
X006769Y005325D02*
X002180Y005325D01*
X002180Y005424D02*
X006671Y005424D01*
X006572Y005522D02*
X002180Y005522D01*
X002180Y005621D02*
X006474Y005621D01*
X006375Y005719D02*
X002180Y005719D01*
X002180Y005818D02*
X006277Y005818D01*
X006178Y005916D02*
X002180Y005916D01*
X002180Y006015D02*
X006080Y006015D01*
X005987Y006113D02*
X002180Y006113D01*
X002180Y006212D02*
X005946Y006212D01*
X005930Y006310D02*
X002180Y006310D01*
X002180Y006409D02*
X003068Y006409D01*
X003072Y006406D02*
X003150Y006381D01*
X003222Y006369D01*
X003222Y006838D01*
X003322Y006838D01*
X003322Y006938D01*
X003791Y006938D01*
X003779Y007010D01*
X003754Y007088D01*
X003717Y007161D01*
X003669Y007227D01*
X003611Y007285D01*
X003545Y007333D01*
X003472Y007370D01*
X003420Y007387D01*
X003567Y007447D01*
X003713Y007593D01*
X003792Y007785D01*
X003792Y007842D01*
X005577Y009627D01*
X005638Y009774D01*
X005638Y010939D01*
X005683Y010984D01*
X005683Y011896D01*
X005595Y011984D01*
X004880Y011984D01*
X004792Y011896D01*
X004792Y010984D01*
X004838Y010939D01*
X004838Y010019D01*
X003226Y008408D01*
X003169Y008408D01*
X002977Y008329D01*
X002831Y008183D01*
X002752Y007991D01*
X002752Y007785D01*
X002831Y007593D01*
X002977Y007447D01*
X003124Y007387D01*
X003072Y007370D01*
X002999Y007333D01*
X002933Y007285D01*
X002875Y007227D01*
X002827Y007161D01*
X002790Y007088D01*
X002765Y007010D01*
X002753Y006938D01*
X003222Y006938D01*
X003222Y006838D01*
X002753Y006838D01*
X002765Y006766D01*
X002790Y006688D01*
X002827Y006615D01*
X002875Y006549D01*
X002933Y006491D01*
X002999Y006443D01*
X003072Y006406D01*
X003222Y006409D02*
X003322Y006409D01*
X003322Y006369D02*
X003394Y006381D01*
X003472Y006406D01*
X003545Y006443D01*
X003611Y006491D01*
X003669Y006549D01*
X003717Y006615D01*
X003754Y006688D01*
X003779Y006766D01*
X003791Y006838D01*
X003322Y006838D01*
X003322Y006369D01*
X003322Y006507D02*
X003222Y006507D01*
X003222Y006606D02*
X003322Y006606D01*
X003322Y006704D02*
X003222Y006704D01*
X003222Y006803D02*
X003322Y006803D01*
X003322Y006901D02*
X005930Y006901D01*
X005930Y006803D02*
X003785Y006803D01*
X003759Y006704D02*
X005930Y006704D01*
X005930Y006606D02*
X003710Y006606D01*
X003626Y006507D02*
X005930Y006507D01*
X005930Y006409D02*
X003476Y006409D01*
X002918Y006507D02*
X002180Y006507D01*
X002180Y006606D02*
X002834Y006606D01*
X002785Y006704D02*
X002180Y006704D01*
X002180Y006803D02*
X002759Y006803D01*
X002763Y007000D02*
X002180Y007000D01*
X002180Y007098D02*
X002795Y007098D01*
X002853Y007197D02*
X002180Y007197D01*
X002180Y007295D02*
X002948Y007295D01*
X003107Y007394D02*
X002180Y007394D01*
X002180Y007492D02*
X002933Y007492D01*
X002834Y007591D02*
X002180Y007591D01*
X002180Y007689D02*
X002792Y007689D01*
X002752Y007788D02*
X002180Y007788D01*
X002180Y007886D02*
X002752Y007886D01*
X002752Y007985D02*
X002180Y007985D01*
X002180Y008083D02*
X002790Y008083D01*
X002831Y008182D02*
X002180Y008182D01*
X002180Y008280D02*
X002929Y008280D01*
X003097Y008379D02*
X002180Y008379D01*
X002180Y008477D02*
X003295Y008477D01*
X003394Y008576D02*
X002180Y008576D01*
X002180Y008674D02*
X003492Y008674D01*
X003591Y008773D02*
X002180Y008773D01*
X002180Y008871D02*
X003689Y008871D01*
X003788Y008970D02*
X002180Y008970D01*
X002180Y009068D02*
X003886Y009068D01*
X003985Y009167D02*
X002180Y009167D01*
X002180Y009265D02*
X004083Y009265D01*
X004182Y009364D02*
X002180Y009364D01*
X002180Y009462D02*
X004280Y009462D01*
X004379Y009561D02*
X002180Y009561D01*
X002180Y009659D02*
X004477Y009659D01*
X004576Y009758D02*
X002180Y009758D01*
X002180Y009856D02*
X004674Y009856D01*
X004773Y009955D02*
X002180Y009955D01*
X002180Y010053D02*
X004838Y010053D01*
X004838Y010152D02*
X002180Y010152D01*
X002180Y010250D02*
X004838Y010250D01*
X004838Y010349D02*
X002180Y010349D01*
X002180Y010447D02*
X004838Y010447D01*
X004838Y010546D02*
X002180Y010546D01*
X002180Y010644D02*
X004838Y010644D01*
X004838Y010743D02*
X002180Y010743D01*
X002180Y010841D02*
X004838Y010841D01*
X004837Y010940D02*
X004733Y010940D01*
X004689Y010896D02*
X004777Y010984D01*
X004777Y011896D01*
X004689Y011984D01*
X003975Y011984D01*
X003887Y011896D01*
X003887Y010984D01*
X003975Y010896D01*
X004689Y010896D01*
X004777Y011038D02*
X004792Y011038D01*
X004792Y011137D02*
X004777Y011137D01*
X004777Y011235D02*
X004792Y011235D01*
X004792Y011334D02*
X004777Y011334D01*
X004777Y011432D02*
X004792Y011432D01*
X004792Y011531D02*
X004777Y011531D01*
X004777Y011629D02*
X004792Y011629D01*
X004792Y011728D02*
X004777Y011728D01*
X004777Y011826D02*
X004792Y011826D01*
X004821Y011925D02*
X004748Y011925D01*
X005654Y011925D02*
X005780Y011925D01*
X005780Y012023D02*
X002180Y012023D01*
X002180Y011925D02*
X003011Y011925D01*
X003011Y011926D02*
X002991Y011891D01*
X002981Y011853D01*
X002981Y011490D01*
X003376Y011490D01*
X003376Y011390D01*
X002981Y011390D01*
X002981Y011026D01*
X002991Y010988D01*
X003011Y010954D01*
X003039Y010926D01*
X003073Y010906D01*
X003111Y010896D01*
X003376Y010896D01*
X003376Y011390D01*
X003476Y011390D01*
X003476Y010896D01*
X003742Y010896D01*
X003780Y010906D01*
X003814Y010926D01*
X003842Y010954D01*
X003862Y010988D01*
X003872Y011026D01*
X003872Y011390D01*
X003476Y011390D01*
X003476Y011490D01*
X003376Y011490D01*
X003376Y011984D01*
X003111Y011984D01*
X003073Y011973D01*
X003039Y011954D01*
X003011Y011926D01*
X002981Y011826D02*
X002180Y011826D01*
X002180Y011728D02*
X002981Y011728D01*
X002981Y011629D02*
X002180Y011629D01*
X002180Y011531D02*
X002981Y011531D01*
X002981Y011334D02*
X002180Y011334D01*
X002180Y011432D02*
X003376Y011432D01*
X003376Y011334D02*
X003476Y011334D01*
X003476Y011432D02*
X003887Y011432D01*
X003872Y011490D02*
X003872Y011853D01*
X003862Y011891D01*
X003842Y011926D01*
X003814Y011954D01*
X003780Y011973D01*
X003742Y011984D01*
X003476Y011984D01*
X003476Y011490D01*
X003872Y011490D01*
X003872Y011531D02*
X003887Y011531D01*
X003887Y011629D02*
X003872Y011629D01*
X003872Y011728D02*
X003887Y011728D01*
X003887Y011826D02*
X003872Y011826D01*
X003842Y011925D02*
X003916Y011925D01*
X003476Y011925D02*
X003376Y011925D01*
X003376Y011826D02*
X003476Y011826D01*
X003476Y011728D02*
X003376Y011728D01*
X003376Y011629D02*
X003476Y011629D01*
X003476Y011531D02*
X003376Y011531D01*
X003376Y011235D02*
X003476Y011235D01*
X003476Y011137D02*
X003376Y011137D01*
X003376Y011038D02*
X003476Y011038D01*
X003476Y010940D02*
X003376Y010940D01*
X003026Y010940D02*
X002180Y010940D01*
X002180Y011038D02*
X002981Y011038D01*
X002981Y011137D02*
X002180Y011137D01*
X002180Y011235D02*
X002981Y011235D01*
X003872Y011235D02*
X003887Y011235D01*
X003887Y011137D02*
X003872Y011137D01*
X003872Y011038D02*
X003887Y011038D01*
X003931Y010940D02*
X003827Y010940D01*
X003872Y011334D02*
X003887Y011334D01*
X002180Y012122D02*
X005780Y012122D01*
X005780Y012220D02*
X002180Y012220D01*
X002180Y012319D02*
X005780Y012319D01*
X005780Y012417D02*
X002180Y012417D01*
X002180Y012516D02*
X005780Y012516D01*
X005780Y012614D02*
X002180Y012614D01*
X002180Y012713D02*
X005780Y012713D01*
X005780Y012811D02*
X002180Y012811D01*
X002180Y012910D02*
X005780Y012910D01*
X005780Y013008D02*
X002180Y013008D01*
X002180Y013107D02*
X005780Y013107D01*
X005780Y013205D02*
X002180Y013205D01*
X002180Y013304D02*
X005780Y013304D01*
X005780Y013402D02*
X005168Y013402D01*
X005230Y013501D02*
X005780Y013501D01*
X006580Y013501D02*
X025930Y013501D01*
X025930Y013402D02*
X006580Y013402D01*
X006580Y013304D02*
X025930Y013304D01*
X025930Y013205D02*
X006580Y013205D01*
X006580Y013107D02*
X025930Y013107D01*
X025930Y013008D02*
X006580Y013008D01*
X006580Y012910D02*
X025930Y012910D01*
X026006Y012811D02*
X006580Y012811D01*
X006580Y012713D02*
X026105Y012713D01*
X026203Y012614D02*
X006580Y012614D01*
X006580Y012516D02*
X026302Y012516D01*
X026400Y012417D02*
X006580Y012417D01*
X006580Y012319D02*
X026499Y012319D01*
X026597Y012220D02*
X006580Y012220D01*
X006580Y012122D02*
X026696Y012122D01*
X026794Y012023D02*
X006580Y012023D01*
X006580Y011925D02*
X026893Y011925D01*
X026991Y011826D02*
X006580Y011826D01*
X006580Y011728D02*
X027090Y011728D01*
X027188Y011629D02*
X009223Y011629D01*
X009151Y011659D02*
X008936Y011659D01*
X008738Y011577D01*
X008586Y011425D01*
X008504Y011226D01*
X008504Y011012D01*
X008586Y010813D01*
X008738Y010661D01*
X008936Y010579D01*
X009151Y010579D01*
X009350Y010661D01*
X009502Y010813D01*
X009584Y011012D01*
X009584Y011226D01*
X009502Y011425D01*
X009350Y011577D01*
X009151Y011659D01*
X009396Y011531D02*
X027287Y011531D01*
X027400Y011700D02*
X026130Y012970D01*
X026130Y013720D01*
X025866Y013599D02*
X006580Y013599D01*
X006580Y013698D02*
X025840Y013698D01*
X025848Y013796D02*
X006580Y013796D01*
X006580Y013895D02*
X025894Y013895D01*
X026031Y013993D02*
X006580Y013993D01*
X006580Y014092D02*
X024698Y014092D01*
X024716Y014074D02*
X024634Y014156D01*
X024594Y014252D01*
X024116Y014730D01*
X012080Y014730D01*
X011988Y014768D01*
X011918Y014838D01*
X010684Y016073D01*
X010649Y016107D01*
X010649Y016108D01*
X010648Y016108D01*
X010629Y016154D01*
X010610Y016199D01*
X010610Y016200D01*
X010610Y016200D01*
X010610Y016249D01*
X010601Y017994D01*
X010560Y018092D01*
X010560Y018208D01*
X010604Y018314D01*
X010686Y018396D01*
X010792Y018440D01*
X010908Y018440D01*
X011014Y018396D01*
X011096Y018314D01*
X011140Y018208D01*
X011140Y018092D01*
X011101Y017998D01*
X011109Y016354D01*
X012234Y015230D01*
X024270Y015230D01*
X024362Y015192D01*
X024948Y014606D01*
X025044Y014566D01*
X025126Y014484D01*
X025170Y014378D01*
X025170Y014262D01*
X025126Y014156D01*
X025044Y014074D01*
X024938Y014030D01*
X024822Y014030D01*
X024716Y014074D01*
X024620Y014190D02*
X006580Y014190D01*
X006580Y014289D02*
X024558Y014289D01*
X024459Y014387D02*
X006580Y014387D01*
X006580Y014486D02*
X024361Y014486D01*
X024262Y014584D02*
X006580Y014584D01*
X006580Y014683D02*
X024164Y014683D01*
X024477Y015077D02*
X025151Y015077D01*
X025052Y015175D02*
X024379Y015175D01*
X024576Y014978D02*
X025249Y014978D01*
X025348Y014880D02*
X024674Y014880D01*
X024773Y014781D02*
X025446Y014781D01*
X025545Y014683D02*
X024871Y014683D01*
X025000Y014584D02*
X025643Y014584D01*
X025742Y014486D02*
X025125Y014486D01*
X025166Y014387D02*
X025840Y014387D01*
X025939Y014289D02*
X025170Y014289D01*
X025140Y014190D02*
X026037Y014190D01*
X026136Y014092D02*
X025062Y014092D01*
X026229Y013993D02*
X026234Y013993D01*
X026630Y015130D02*
X026630Y016520D01*
X026600Y016550D01*
X026520Y017100D02*
X026200Y017100D01*
X026520Y017100D02*
X028930Y014700D01*
X033880Y014700D01*
X034400Y014180D01*
X034669Y014289D02*
X034970Y014289D01*
X034970Y014387D02*
X034603Y014387D01*
X034564Y014426D02*
X034458Y014470D01*
X034393Y014470D01*
X033963Y014900D01*
X030825Y014900D01*
X030831Y014905D01*
X030910Y015097D01*
X030910Y015303D01*
X030831Y015495D01*
X030795Y015530D01*
X034903Y015530D01*
X034970Y015463D01*
X034970Y012793D01*
X035680Y012083D01*
X035803Y011960D01*
X035927Y011960D01*
X035949Y011905D01*
X036095Y011759D01*
X036238Y011700D01*
X036095Y011641D01*
X035949Y011495D01*
X035910Y011400D01*
X031693Y011400D01*
X031193Y011900D01*
X030825Y011900D01*
X030831Y011905D01*
X030910Y012097D01*
X030910Y012303D01*
X030831Y012495D01*
X030685Y012641D01*
X030542Y012700D01*
X030685Y012759D01*
X030831Y012905D01*
X030910Y013097D01*
X030910Y013303D01*
X030831Y013495D01*
X030825Y013500D01*
X032010Y013500D01*
X032056Y013454D01*
X032162Y013410D01*
X032278Y013410D01*
X032384Y013454D01*
X032466Y013536D01*
X032510Y013642D01*
X032510Y013758D01*
X032466Y013864D01*
X032384Y013946D01*
X032278Y013990D01*
X032162Y013990D01*
X032056Y013946D01*
X032010Y013900D01*
X030825Y013900D01*
X030831Y013905D01*
X030910Y014097D01*
X030910Y014303D01*
X030831Y014495D01*
X030825Y014500D01*
X033797Y014500D01*
X034110Y014187D01*
X034110Y014122D01*
X034154Y014016D01*
X034236Y013934D01*
X034342Y013890D01*
X034458Y013890D01*
X034564Y013934D01*
X034646Y014016D01*
X034690Y014122D01*
X034690Y014238D01*
X034646Y014344D01*
X034564Y014426D01*
X034377Y014486D02*
X034970Y014486D01*
X034970Y014584D02*
X034279Y014584D01*
X034180Y014683D02*
X034970Y014683D01*
X034970Y014781D02*
X034082Y014781D01*
X033983Y014880D02*
X034970Y014880D01*
X034970Y014978D02*
X030861Y014978D01*
X030902Y015077D02*
X034970Y015077D01*
X034970Y015175D02*
X030910Y015175D01*
X030910Y015274D02*
X034970Y015274D01*
X034970Y015372D02*
X030882Y015372D01*
X030841Y015471D02*
X034962Y015471D01*
X033812Y014486D02*
X030835Y014486D01*
X030875Y014387D02*
X033910Y014387D01*
X034009Y014289D02*
X030910Y014289D01*
X030910Y014190D02*
X034107Y014190D01*
X034123Y014092D02*
X030908Y014092D01*
X030867Y013993D02*
X034177Y013993D01*
X034331Y013895D02*
X032436Y013895D01*
X032494Y013796D02*
X034970Y013796D01*
X034970Y013698D02*
X032510Y013698D01*
X032492Y013599D02*
X034970Y013599D01*
X034970Y013501D02*
X032431Y013501D01*
X032220Y013700D02*
X028740Y013700D01*
X028070Y013030D01*
X027480Y013030D01*
X025015Y015495D01*
X024910Y015600D01*
X024680Y015830D01*
X024680Y020400D01*
X024211Y019805D02*
X024149Y019805D01*
X024091Y019706D02*
X024269Y019706D01*
X024367Y019608D02*
X023993Y019608D01*
X024480Y019509D02*
X008297Y019509D01*
X008415Y019608D02*
X008767Y019608D01*
X008669Y019706D02*
X008513Y019706D01*
X008583Y019805D02*
X008611Y019805D01*
X008126Y019411D02*
X024480Y019411D01*
X024480Y019312D02*
X002180Y019312D01*
X002180Y019214D02*
X024480Y019214D01*
X024480Y019115D02*
X002180Y019115D01*
X002180Y019017D02*
X024480Y019017D01*
X024480Y018918D02*
X002180Y018918D01*
X002180Y018820D02*
X024480Y018820D01*
X024480Y018721D02*
X006921Y018721D01*
X006945Y018623D02*
X024480Y018623D01*
X024480Y018524D02*
X006945Y018524D01*
X006945Y018426D02*
X010757Y018426D01*
X010617Y018327D02*
X006945Y018327D01*
X006945Y018229D02*
X010569Y018229D01*
X010560Y018130D02*
X006945Y018130D01*
X006945Y018032D02*
X010585Y018032D01*
X010601Y017933D02*
X006945Y017933D01*
X006779Y017672D02*
X006719Y017716D01*
X006652Y017750D01*
X006581Y017773D01*
X006507Y017785D01*
X006489Y017785D01*
X006489Y017329D01*
X006451Y017329D01*
X006451Y017785D01*
X006433Y017785D01*
X006359Y017773D01*
X006288Y017750D01*
X006221Y017716D01*
X006161Y017672D01*
X006108Y017619D01*
X006064Y017559D01*
X006030Y017492D01*
X006007Y017421D01*
X005995Y017347D01*
X005995Y017329D01*
X006451Y017329D01*
X006451Y017291D01*
X005995Y017291D01*
X005995Y017273D01*
X006007Y017199D01*
X006030Y017128D01*
X006064Y017061D01*
X006108Y017001D01*
X006161Y016948D01*
X006221Y016904D01*
X006288Y016870D01*
X006359Y016847D01*
X006433Y016835D01*
X006451Y016835D01*
X006451Y017291D01*
X006489Y017291D01*
X006489Y017329D01*
X006945Y017329D01*
X006945Y017347D01*
X006933Y017421D01*
X006910Y017492D01*
X006876Y017559D01*
X006832Y017619D01*
X006779Y017672D01*
X006814Y017638D02*
X010603Y017638D01*
X010602Y017736D02*
X006680Y017736D01*
X006489Y017736D02*
X006451Y017736D01*
X006451Y017638D02*
X006489Y017638D01*
X006489Y017539D02*
X006451Y017539D01*
X006451Y017441D02*
X006489Y017441D01*
X006489Y017342D02*
X006451Y017342D01*
X006489Y017291D02*
X006945Y017291D01*
X006945Y017273D01*
X006933Y017199D01*
X006910Y017128D01*
X006876Y017061D01*
X006832Y017001D01*
X006779Y016948D01*
X006719Y016904D01*
X006652Y016870D01*
X006581Y016847D01*
X006507Y016835D01*
X006489Y016835D01*
X006489Y017291D01*
X006489Y017244D02*
X006451Y017244D01*
X006451Y017145D02*
X006489Y017145D01*
X006489Y017047D02*
X006451Y017047D01*
X006451Y016948D02*
X006489Y016948D01*
X006489Y016850D02*
X006451Y016850D01*
X006350Y016850D02*
X005630Y016850D01*
X005630Y016948D02*
X006160Y016948D01*
X006074Y017047D02*
X005630Y017047D01*
X005630Y017145D02*
X006024Y017145D01*
X006000Y017244D02*
X005630Y017244D01*
X005630Y017342D02*
X005995Y017342D01*
X006013Y017441D02*
X005630Y017441D01*
X005630Y017539D02*
X006054Y017539D01*
X006126Y017638D02*
X005630Y017638D01*
X005630Y017736D02*
X006260Y017736D01*
X005660Y017835D02*
X010602Y017835D01*
X010603Y017539D02*
X006886Y017539D01*
X006927Y017441D02*
X010604Y017441D01*
X010604Y017342D02*
X006945Y017342D01*
X006940Y017244D02*
X010605Y017244D01*
X010605Y017145D02*
X006916Y017145D01*
X006866Y017047D02*
X010606Y017047D01*
X010606Y016948D02*
X006780Y016948D01*
X006590Y016850D02*
X010607Y016850D01*
X010607Y016751D02*
X005695Y016751D01*
X005793Y016653D02*
X010608Y016653D01*
X010608Y016554D02*
X005892Y016554D01*
X005990Y016456D02*
X010609Y016456D01*
X010609Y016357D02*
X006089Y016357D01*
X006187Y016259D02*
X010610Y016259D01*
X010627Y016160D02*
X006286Y016160D01*
X006384Y016062D02*
X010695Y016062D01*
X010793Y015963D02*
X006483Y015963D01*
X006545Y015865D02*
X010892Y015865D01*
X010990Y015766D02*
X006580Y015766D01*
X006580Y015668D02*
X011089Y015668D01*
X011187Y015569D02*
X006580Y015569D01*
X006580Y015471D02*
X011286Y015471D01*
X011384Y015372D02*
X006580Y015372D01*
X006580Y015274D02*
X011483Y015274D01*
X011581Y015175D02*
X006580Y015175D01*
X006580Y015077D02*
X011680Y015077D01*
X011778Y014978D02*
X006580Y014978D01*
X006580Y014880D02*
X011877Y014880D01*
X011975Y014781D02*
X006580Y014781D01*
X005780Y014781D02*
X002180Y014781D01*
X002180Y014683D02*
X005780Y014683D01*
X005780Y014584D02*
X002180Y014584D01*
X002180Y014486D02*
X005780Y014486D01*
X005780Y014387D02*
X005219Y014387D01*
X005780Y014880D02*
X002180Y014880D01*
X002180Y014978D02*
X005780Y014978D01*
X005780Y015077D02*
X002180Y015077D01*
X002180Y015175D02*
X005780Y015175D01*
X005780Y015274D02*
X002180Y015274D01*
X002180Y015372D02*
X005780Y015372D01*
X005780Y015471D02*
X002180Y015471D01*
X002180Y015569D02*
X005745Y015569D01*
X005647Y015668D02*
X002180Y015668D01*
X002180Y015766D02*
X005548Y015766D01*
X005450Y015865D02*
X002180Y015865D01*
X002180Y015963D02*
X005351Y015963D01*
X005253Y016062D02*
X002180Y016062D01*
X002180Y016160D02*
X005154Y016160D01*
X005056Y016259D02*
X002180Y016259D01*
X002180Y016357D02*
X004957Y016357D01*
X004878Y016456D02*
X002180Y016456D01*
X002180Y016554D02*
X004837Y016554D01*
X004830Y016653D02*
X002180Y016653D01*
X002180Y016751D02*
X004830Y016751D01*
X004830Y016850D02*
X003330Y016850D01*
X003321Y016847D02*
X003392Y016870D01*
X003459Y016904D01*
X003519Y016948D01*
X003572Y017001D01*
X003616Y017061D01*
X003650Y017128D01*
X003673Y017199D01*
X003685Y017273D01*
X003685Y017291D01*
X003229Y017291D01*
X003229Y017329D01*
X003191Y017329D01*
X003191Y017785D01*
X003173Y017785D01*
X003099Y017773D01*
X003028Y017750D01*
X002961Y017716D01*
X002901Y017672D01*
X002848Y017619D01*
X002804Y017559D01*
X002770Y017492D01*
X002747Y017421D01*
X002735Y017347D01*
X002735Y017329D01*
X003191Y017329D01*
X003191Y017291D01*
X002735Y017291D01*
X002735Y017273D01*
X002747Y017199D01*
X002770Y017128D01*
X002804Y017061D01*
X002848Y017001D01*
X002901Y016948D01*
X002961Y016904D01*
X003028Y016870D01*
X003099Y016847D01*
X003173Y016835D01*
X003191Y016835D01*
X003191Y017291D01*
X003229Y017291D01*
X003229Y016835D01*
X003247Y016835D01*
X003321Y016847D01*
X003229Y016850D02*
X003191Y016850D01*
X003191Y016948D02*
X003229Y016948D01*
X003229Y017047D02*
X003191Y017047D01*
X003191Y017145D02*
X003229Y017145D01*
X003229Y017244D02*
X003191Y017244D01*
X003229Y017329D02*
X003685Y017329D01*
X003685Y017347D01*
X003673Y017421D01*
X003650Y017492D01*
X003616Y017559D01*
X003572Y017619D01*
X003519Y017672D01*
X003459Y017716D01*
X003392Y017750D01*
X003321Y017773D01*
X003247Y017785D01*
X003229Y017785D01*
X003229Y017329D01*
X003229Y017342D02*
X003191Y017342D01*
X003191Y017441D02*
X003229Y017441D01*
X003229Y017539D02*
X003191Y017539D01*
X003191Y017638D02*
X003229Y017638D01*
X003229Y017736D02*
X003191Y017736D01*
X003000Y017736D02*
X002180Y017736D01*
X002180Y017638D02*
X002866Y017638D01*
X002794Y017539D02*
X002180Y017539D01*
X002180Y017441D02*
X002753Y017441D01*
X002735Y017342D02*
X002180Y017342D01*
X002180Y017244D02*
X002740Y017244D01*
X002764Y017145D02*
X002180Y017145D01*
X002180Y017047D02*
X002814Y017047D01*
X002900Y016948D02*
X002180Y016948D01*
X002180Y016850D02*
X003090Y016850D01*
X003520Y016948D02*
X004830Y016948D01*
X004830Y017047D02*
X003606Y017047D01*
X003656Y017145D02*
X004830Y017145D01*
X004830Y017244D02*
X003680Y017244D01*
X003685Y017342D02*
X004830Y017342D01*
X004830Y017441D02*
X003667Y017441D01*
X003626Y017539D02*
X004830Y017539D01*
X004830Y017638D02*
X003554Y017638D01*
X003420Y017736D02*
X004830Y017736D01*
X004830Y017835D02*
X002180Y017835D01*
X002180Y017933D02*
X002735Y017933D01*
X002735Y017923D02*
X002823Y017835D01*
X003597Y017835D01*
X003685Y017923D01*
X003685Y018697D01*
X003597Y018785D01*
X002823Y018785D01*
X002735Y018697D01*
X002735Y017923D01*
X002735Y018032D02*
X002180Y018032D01*
X002180Y018130D02*
X002735Y018130D01*
X002735Y018229D02*
X002180Y018229D01*
X002180Y018327D02*
X002735Y018327D01*
X002735Y018426D02*
X002180Y018426D01*
X002180Y018524D02*
X002735Y018524D01*
X002735Y018623D02*
X002180Y018623D01*
X002180Y018721D02*
X002759Y018721D01*
X003661Y018721D02*
X006019Y018721D01*
X005336Y018623D02*
X003685Y018623D01*
X003685Y018524D02*
X005218Y018524D01*
X005120Y018426D02*
X003685Y018426D01*
X003685Y018327D02*
X005021Y018327D01*
X004923Y018229D02*
X003685Y018229D01*
X003685Y018130D02*
X004863Y018130D01*
X004830Y018032D02*
X003685Y018032D01*
X003685Y017933D02*
X004830Y017933D01*
X007063Y019509D02*
X002180Y019509D01*
X002180Y019411D02*
X007234Y019411D01*
X006945Y019608D02*
X002180Y019608D01*
X002180Y019706D02*
X006847Y019706D01*
X006777Y019805D02*
X002180Y019805D01*
X002180Y019903D02*
X006720Y019903D01*
X006669Y020002D02*
X002180Y020002D01*
X002180Y020100D02*
X006642Y020100D01*
X006616Y020199D02*
X002180Y020199D01*
X002180Y020297D02*
X006600Y020297D01*
X006600Y020396D02*
X002180Y020396D01*
X002180Y020494D02*
X006600Y020494D01*
X006614Y020593D02*
X002180Y020593D01*
X002180Y020691D02*
X006640Y020691D01*
X006666Y020790D02*
X002180Y020790D01*
X002180Y020888D02*
X006715Y020888D01*
X009393Y019608D02*
X009767Y019608D01*
X009669Y019706D02*
X009491Y019706D01*
X009549Y019805D02*
X009611Y019805D01*
X010393Y019608D02*
X010767Y019608D01*
X010669Y019706D02*
X010491Y019706D01*
X010549Y019805D02*
X010611Y019805D01*
X011393Y019608D02*
X011777Y019608D01*
X011673Y019706D02*
X011491Y019706D01*
X011549Y019805D02*
X011611Y019805D01*
X012030Y019805D02*
X012130Y019805D01*
X012130Y019903D02*
X012030Y019903D01*
X012030Y020002D02*
X012130Y020002D01*
X012130Y020100D02*
X012030Y020100D01*
X012030Y020199D02*
X012130Y020199D01*
X012130Y020297D02*
X012030Y020297D01*
X012549Y019805D02*
X012611Y019805D01*
X012669Y019706D02*
X012487Y019706D01*
X012383Y019608D02*
X012767Y019608D01*
X013393Y019608D02*
X013767Y019608D01*
X013669Y019706D02*
X013491Y019706D01*
X013549Y019805D02*
X013611Y019805D01*
X014393Y019608D02*
X014767Y019608D01*
X014669Y019706D02*
X014491Y019706D01*
X014549Y019805D02*
X014611Y019805D01*
X015393Y019608D02*
X015767Y019608D01*
X015669Y019706D02*
X015491Y019706D01*
X015549Y019805D02*
X015611Y019805D01*
X016393Y019608D02*
X016767Y019608D01*
X016669Y019706D02*
X016491Y019706D01*
X016549Y019805D02*
X016611Y019805D01*
X017393Y019608D02*
X017767Y019608D01*
X017669Y019706D02*
X017491Y019706D01*
X017549Y019805D02*
X017611Y019805D01*
X018393Y019608D02*
X019367Y019608D01*
X019269Y019706D02*
X018491Y019706D01*
X018549Y019805D02*
X019211Y019805D01*
X019170Y019903D02*
X018590Y019903D01*
X018600Y020002D02*
X019160Y020002D01*
X019160Y020100D02*
X018600Y020100D01*
X018600Y020199D02*
X019160Y020199D01*
X019160Y020297D02*
X018600Y020297D01*
X018600Y020396D02*
X019160Y020396D01*
X019160Y020494D02*
X018600Y020494D01*
X018600Y020593D02*
X019160Y020593D01*
X019160Y020691D02*
X018600Y020691D01*
X018600Y020790D02*
X019160Y020790D01*
X019166Y020888D02*
X018594Y020888D01*
X020149Y019805D02*
X020211Y019805D01*
X020269Y019706D02*
X020091Y019706D01*
X019993Y019608D02*
X020367Y019608D01*
X020993Y019608D02*
X021367Y019608D01*
X021269Y019706D02*
X021091Y019706D01*
X021149Y019805D02*
X021211Y019805D01*
X021993Y019608D02*
X022367Y019608D01*
X022269Y019706D02*
X022091Y019706D01*
X022149Y019805D02*
X022211Y019805D01*
X022993Y019608D02*
X023367Y019608D01*
X023269Y019706D02*
X023091Y019706D01*
X023149Y019805D02*
X023211Y019805D01*
X024480Y018426D02*
X010943Y018426D01*
X011083Y018327D02*
X024480Y018327D01*
X024480Y018229D02*
X011131Y018229D01*
X011140Y018130D02*
X024480Y018130D01*
X024480Y018032D02*
X011115Y018032D01*
X011101Y017933D02*
X024480Y017933D01*
X024480Y017835D02*
X011102Y017835D01*
X011102Y017736D02*
X024480Y017736D01*
X024480Y017638D02*
X011103Y017638D01*
X011103Y017539D02*
X024480Y017539D01*
X024480Y017441D02*
X011104Y017441D01*
X011104Y017342D02*
X024480Y017342D01*
X024480Y017244D02*
X011105Y017244D01*
X011105Y017145D02*
X024480Y017145D01*
X024480Y017047D02*
X011106Y017047D01*
X011106Y016948D02*
X024480Y016948D01*
X024480Y016850D02*
X011107Y016850D01*
X011107Y016751D02*
X024480Y016751D01*
X024480Y016653D02*
X011108Y016653D01*
X011108Y016554D02*
X024480Y016554D01*
X024480Y016456D02*
X011109Y016456D01*
X011109Y016357D02*
X024480Y016357D01*
X024480Y016259D02*
X011205Y016259D01*
X011304Y016160D02*
X024480Y016160D01*
X024480Y016062D02*
X011402Y016062D01*
X011501Y015963D02*
X024480Y015963D01*
X024480Y015865D02*
X011599Y015865D01*
X011698Y015766D02*
X024480Y015766D01*
X024560Y015668D02*
X011796Y015668D01*
X011895Y015569D02*
X024658Y015569D01*
X024757Y015471D02*
X011993Y015471D01*
X012092Y015372D02*
X024855Y015372D01*
X024954Y015274D02*
X012190Y015274D01*
X008864Y011629D02*
X006580Y011629D01*
X006580Y011531D02*
X008692Y011531D01*
X008593Y011432D02*
X006580Y011432D01*
X006580Y011334D02*
X008548Y011334D01*
X008507Y011235D02*
X006580Y011235D01*
X006580Y011137D02*
X008504Y011137D01*
X008504Y011038D02*
X006580Y011038D01*
X006580Y010940D02*
X008534Y010940D01*
X008574Y010841D02*
X006580Y010841D01*
X006653Y010743D02*
X008657Y010743D01*
X008779Y010644D02*
X006752Y010644D01*
X006850Y010546D02*
X028930Y010546D01*
X028859Y010447D02*
X006949Y010447D01*
X007047Y010349D02*
X028819Y010349D01*
X028800Y010250D02*
X007146Y010250D01*
X007244Y010152D02*
X028800Y010152D01*
X028818Y010053D02*
X007343Y010053D01*
X007441Y009955D02*
X028859Y009955D01*
X028929Y009856D02*
X007570Y009856D01*
X007744Y009758D02*
X029029Y009758D01*
X029069Y009659D02*
X007837Y009659D01*
X007878Y009561D02*
X028945Y009561D01*
X028866Y009462D02*
X007905Y009462D01*
X007905Y009364D02*
X028825Y009364D01*
X028800Y009265D02*
X007888Y009265D01*
X007847Y009167D02*
X028800Y009167D01*
X028812Y009068D02*
X007770Y009068D01*
X007632Y008970D02*
X028853Y008970D01*
X028914Y008871D02*
X007492Y008871D01*
X007467Y008875D02*
X007449Y008875D01*
X007449Y008419D01*
X007411Y008419D01*
X007411Y008875D01*
X007393Y008875D01*
X007319Y008863D01*
X007248Y008840D01*
X007181Y008806D01*
X007121Y008762D01*
X007068Y008709D01*
X007024Y008649D01*
X006990Y008582D01*
X006967Y008511D01*
X006955Y008437D01*
X006955Y008419D01*
X007411Y008419D01*
X007411Y008381D01*
X006955Y008381D01*
X006955Y008363D01*
X006967Y008289D01*
X006990Y008218D01*
X007024Y008151D01*
X007068Y008091D01*
X007121Y008038D01*
X007181Y007994D01*
X007248Y007960D01*
X007319Y007937D01*
X007393Y007925D01*
X007411Y007925D01*
X007411Y008381D01*
X007449Y008381D01*
X007449Y008419D01*
X007905Y008419D01*
X007905Y008437D01*
X007893Y008511D01*
X007870Y008582D01*
X007836Y008649D01*
X007792Y008709D01*
X007739Y008762D01*
X007679Y008806D01*
X007612Y008840D01*
X007541Y008863D01*
X007467Y008875D01*
X007449Y008871D02*
X007411Y008871D01*
X007368Y008871D02*
X006730Y008871D01*
X006730Y008773D02*
X007135Y008773D01*
X007042Y008674D02*
X006730Y008674D01*
X006730Y008576D02*
X006988Y008576D01*
X006961Y008477D02*
X006730Y008477D01*
X006730Y008379D02*
X006955Y008379D01*
X006970Y008280D02*
X006730Y008280D01*
X006730Y008182D02*
X007008Y008182D01*
X007075Y008083D02*
X006730Y008083D01*
X006730Y007985D02*
X007199Y007985D01*
X007411Y007985D02*
X007449Y007985D01*
X007449Y007925D02*
X007467Y007925D01*
X007541Y007937D01*
X007612Y007960D01*
X007679Y007994D01*
X007739Y008038D01*
X007792Y008091D01*
X007836Y008151D01*
X007870Y008218D01*
X007893Y008289D01*
X007905Y008363D01*
X007905Y008381D01*
X007449Y008381D01*
X007449Y007925D01*
X007449Y008083D02*
X007411Y008083D01*
X007411Y008182D02*
X007449Y008182D01*
X007449Y008280D02*
X007411Y008280D01*
X007411Y008379D02*
X007449Y008379D01*
X007449Y008477D02*
X007411Y008477D01*
X007411Y008576D02*
X007449Y008576D01*
X007449Y008674D02*
X007411Y008674D01*
X007411Y008773D02*
X007449Y008773D01*
X007725Y008773D02*
X029012Y008773D01*
X029106Y008674D02*
X007818Y008674D01*
X007872Y008576D02*
X028960Y008576D01*
X028872Y008477D02*
X007899Y008477D01*
X007905Y008379D02*
X028831Y008379D01*
X028800Y008280D02*
X007890Y008280D01*
X007852Y008182D02*
X028800Y008182D01*
X028806Y008083D02*
X007785Y008083D01*
X007661Y007985D02*
X028846Y007985D01*
X028899Y007886D02*
X006730Y007886D01*
X006730Y007788D02*
X028997Y007788D01*
X029142Y007689D02*
X006730Y007689D01*
X006730Y007591D02*
X008771Y007591D01*
X008738Y007577D02*
X008586Y007425D01*
X008504Y007226D01*
X008504Y007012D01*
X008586Y006813D01*
X008738Y006661D01*
X008936Y006579D01*
X009151Y006579D01*
X009350Y006661D01*
X009502Y006813D01*
X009584Y007012D01*
X009584Y007226D01*
X009502Y007425D01*
X009350Y007577D01*
X009151Y007659D01*
X008936Y007659D01*
X008738Y007577D01*
X008653Y007492D02*
X006730Y007492D01*
X006730Y007394D02*
X008573Y007394D01*
X008532Y007295D02*
X006730Y007295D01*
X006730Y007197D02*
X008504Y007197D01*
X008504Y007098D02*
X006730Y007098D01*
X006730Y007000D02*
X008509Y007000D01*
X008550Y006901D02*
X006730Y006901D01*
X006730Y006803D02*
X008597Y006803D01*
X008695Y006704D02*
X006730Y006704D01*
X006730Y006606D02*
X008872Y006606D01*
X009215Y006606D02*
X028990Y006606D01*
X028892Y006507D02*
X006730Y006507D01*
X006817Y006409D02*
X028844Y006409D01*
X028803Y006310D02*
X006916Y006310D01*
X007014Y006212D02*
X028800Y006212D01*
X028800Y006113D02*
X007113Y006113D01*
X007211Y006015D02*
X028834Y006015D01*
X028875Y005916D02*
X007310Y005916D01*
X007408Y005818D02*
X028967Y005818D01*
X029472Y005700D02*
X029615Y005759D01*
X029761Y005905D01*
X029840Y006097D01*
X029840Y006303D01*
X029761Y006495D01*
X029615Y006641D01*
X029472Y006700D01*
X029615Y006759D01*
X029761Y006905D01*
X029840Y007097D01*
X029840Y007303D01*
X029761Y007495D01*
X029615Y007641D01*
X029472Y007700D01*
X029615Y007759D01*
X029761Y007905D01*
X029840Y008097D01*
X029840Y008303D01*
X029761Y008495D01*
X029615Y008641D01*
X029472Y008700D01*
X029615Y008759D01*
X029761Y008905D01*
X029840Y009097D01*
X029840Y009303D01*
X029761Y009495D01*
X029615Y009641D01*
X029472Y009700D01*
X029615Y009759D01*
X029761Y009905D01*
X029840Y010097D01*
X029840Y010303D01*
X029761Y010495D01*
X029615Y010641D01*
X029472Y010700D01*
X029615Y010759D01*
X029761Y010905D01*
X029840Y011097D01*
X029840Y011303D01*
X029761Y011495D01*
X029755Y011500D01*
X029955Y011500D01*
X029949Y011495D01*
X029870Y011303D01*
X029870Y011097D01*
X029949Y010905D01*
X030095Y010759D01*
X030238Y010700D01*
X030095Y010641D01*
X029949Y010495D01*
X029870Y010303D01*
X029870Y010097D01*
X029949Y009905D01*
X030095Y009759D01*
X030238Y009700D01*
X030095Y009641D01*
X029949Y009495D01*
X029870Y009303D01*
X029870Y009097D01*
X029949Y008905D01*
X030095Y008759D01*
X030238Y008700D01*
X030095Y008641D01*
X029949Y008495D01*
X029870Y008303D01*
X029870Y008097D01*
X029949Y007905D01*
X030095Y007759D01*
X030238Y007700D01*
X030095Y007641D01*
X029949Y007495D01*
X029870Y007303D01*
X029870Y007097D01*
X029949Y006905D01*
X030095Y006759D01*
X030238Y006700D01*
X030095Y006641D01*
X029949Y006495D01*
X029870Y006303D01*
X029870Y006097D01*
X029949Y005905D01*
X030095Y005759D01*
X030238Y005700D01*
X030095Y005641D01*
X029949Y005495D01*
X029870Y005303D01*
X029870Y005097D01*
X029949Y004905D01*
X030095Y004759D01*
X030242Y004699D01*
X030190Y004682D01*
X030117Y004645D01*
X030051Y004597D01*
X029993Y004539D01*
X029945Y004473D01*
X029908Y004400D01*
X029883Y004322D01*
X029871Y004250D01*
X030340Y004250D01*
X030340Y004150D01*
X029871Y004150D01*
X029883Y004078D01*
X029908Y004000D01*
X029945Y003927D01*
X029993Y003861D01*
X030051Y003803D01*
X030117Y003755D01*
X030190Y003718D01*
X030242Y003701D01*
X030095Y003641D01*
X029949Y003495D01*
X029870Y003303D01*
X029870Y003097D01*
X029949Y002905D01*
X030095Y002759D01*
X030118Y002750D01*
X029592Y002750D01*
X029615Y002759D01*
X029761Y002905D01*
X029840Y003097D01*
X029840Y003303D01*
X029761Y003495D01*
X029615Y003641D01*
X029468Y003701D01*
X029520Y003718D01*
X029593Y003755D01*
X029659Y003803D01*
X029717Y003861D01*
X029765Y003927D01*
X029802Y004000D01*
X029827Y004078D01*
X029839Y004150D01*
X029370Y004150D01*
X029370Y004250D01*
X029839Y004250D01*
X029827Y004322D01*
X029802Y004400D01*
X029765Y004473D01*
X029717Y004539D01*
X029659Y004597D01*
X029593Y004645D01*
X029520Y004682D01*
X029468Y004699D01*
X029615Y004759D01*
X029761Y004905D01*
X029840Y005097D01*
X029840Y005303D01*
X029761Y005495D01*
X029615Y005641D01*
X029472Y005700D01*
X029518Y005719D02*
X030192Y005719D01*
X030075Y005621D02*
X029635Y005621D01*
X029733Y005522D02*
X029977Y005522D01*
X029920Y005424D02*
X029790Y005424D01*
X029831Y005325D02*
X029879Y005325D01*
X029870Y005227D02*
X029840Y005227D01*
X029840Y005128D02*
X029870Y005128D01*
X029898Y005030D02*
X029812Y005030D01*
X029771Y004931D02*
X029939Y004931D01*
X030022Y004833D02*
X029688Y004833D01*
X029554Y004734D02*
X030156Y004734D01*
X030105Y004636D02*
X029605Y004636D01*
X029718Y004537D02*
X029992Y004537D01*
X029928Y004439D02*
X029782Y004439D01*
X029821Y004340D02*
X029889Y004340D01*
X029873Y004143D02*
X029837Y004143D01*
X029816Y004045D02*
X029894Y004045D01*
X029936Y003946D02*
X029774Y003946D01*
X029703Y003848D02*
X030007Y003848D01*
X030130Y003749D02*
X029580Y003749D01*
X029591Y003651D02*
X030119Y003651D01*
X030007Y003552D02*
X029703Y003552D01*
X029778Y003454D02*
X029932Y003454D01*
X029891Y003355D02*
X029819Y003355D01*
X029840Y003257D02*
X029870Y003257D01*
X029870Y003158D02*
X029840Y003158D01*
X029825Y003060D02*
X029885Y003060D01*
X029926Y002961D02*
X029784Y002961D01*
X029718Y002863D02*
X029992Y002863D01*
X030091Y002764D02*
X029619Y002764D01*
X030662Y002750D02*
X030685Y002759D01*
X030831Y002905D01*
X030910Y003097D01*
X030910Y003303D01*
X030831Y003495D01*
X030685Y003641D01*
X030538Y003701D01*
X030590Y003718D01*
X030663Y003755D01*
X030729Y003803D01*
X030787Y003861D01*
X030835Y003927D01*
X030872Y004000D01*
X030897Y004078D01*
X030909Y004150D01*
X030440Y004150D01*
X030440Y004250D01*
X030909Y004250D01*
X030897Y004322D01*
X030872Y004400D01*
X030835Y004473D01*
X030787Y004539D01*
X030729Y004597D01*
X030663Y004645D01*
X030590Y004682D01*
X030538Y004699D01*
X030685Y004759D01*
X030831Y004905D01*
X030910Y005097D01*
X030910Y005303D01*
X030831Y005495D01*
X030685Y005641D01*
X030542Y005700D01*
X030685Y005759D01*
X030831Y005905D01*
X030910Y006097D01*
X030910Y006303D01*
X030831Y006495D01*
X030685Y006641D01*
X030542Y006700D01*
X030685Y006759D01*
X030831Y006905D01*
X030910Y007097D01*
X030910Y007303D01*
X030831Y007495D01*
X030685Y007641D01*
X030542Y007700D01*
X030685Y007759D01*
X030831Y007905D01*
X030910Y008097D01*
X030910Y008303D01*
X030831Y008495D01*
X030685Y008641D01*
X030542Y008700D01*
X030685Y008759D01*
X030831Y008905D01*
X030910Y009097D01*
X030910Y009303D01*
X030831Y009495D01*
X030685Y009641D01*
X030542Y009700D01*
X030685Y009759D01*
X030831Y009905D01*
X030910Y010097D01*
X030910Y010303D01*
X030831Y010495D01*
X030685Y010641D01*
X030542Y010700D01*
X030685Y010759D01*
X030831Y010905D01*
X030910Y011097D01*
X030910Y011303D01*
X030831Y011495D01*
X030825Y011500D01*
X031027Y011500D01*
X031527Y011000D01*
X035910Y011000D01*
X035949Y010905D01*
X036095Y010759D01*
X036238Y010700D01*
X036095Y010641D01*
X035949Y010495D01*
X035870Y010303D01*
X035870Y010097D01*
X035949Y009905D01*
X036095Y009759D01*
X036238Y009700D01*
X036095Y009641D01*
X035949Y009495D01*
X035906Y009390D01*
X034267Y009390D01*
X034150Y009273D01*
X032840Y007963D01*
X032840Y004140D01*
X032794Y004094D01*
X032750Y003988D01*
X032750Y003872D01*
X032794Y003766D01*
X032876Y003684D01*
X032982Y003640D01*
X033098Y003640D01*
X033204Y003684D01*
X033286Y003766D01*
X033330Y003872D01*
X033330Y003988D01*
X033286Y004094D01*
X033240Y004140D01*
X033240Y007797D01*
X034433Y008990D01*
X035914Y008990D01*
X035949Y008905D01*
X036095Y008759D01*
X036238Y008700D01*
X036095Y008641D01*
X035949Y008495D01*
X035870Y008303D01*
X035870Y008097D01*
X035949Y007905D01*
X036095Y007759D01*
X036238Y007700D01*
X036095Y007641D01*
X035949Y007495D01*
X035914Y007410D01*
X034806Y007410D01*
X034758Y007430D01*
X034642Y007430D01*
X034536Y007386D01*
X034454Y007304D01*
X034410Y007198D01*
X034410Y007082D01*
X034454Y006976D01*
X034536Y006894D01*
X034642Y006850D01*
X034758Y006850D01*
X034864Y006894D01*
X034946Y006976D01*
X034960Y007010D01*
X035906Y007010D01*
X035949Y006905D01*
X036095Y006759D01*
X036238Y006700D01*
X036095Y006641D01*
X035949Y006495D01*
X035870Y006303D01*
X035870Y006097D01*
X035949Y005905D01*
X036095Y005759D01*
X036238Y005700D01*
X036095Y005641D01*
X035949Y005495D01*
X035906Y005390D01*
X035537Y005390D01*
X035420Y005273D01*
X032897Y002750D01*
X030662Y002750D01*
X030689Y002764D02*
X032911Y002764D01*
X033010Y002863D02*
X030788Y002863D01*
X030854Y002961D02*
X033108Y002961D01*
X033207Y003060D02*
X030895Y003060D01*
X030910Y003158D02*
X033305Y003158D01*
X033404Y003257D02*
X030910Y003257D01*
X030889Y003355D02*
X033502Y003355D01*
X033601Y003454D02*
X030848Y003454D01*
X030773Y003552D02*
X033699Y003552D01*
X033798Y003651D02*
X033123Y003651D01*
X032957Y003651D02*
X030661Y003651D01*
X030650Y003749D02*
X032811Y003749D01*
X032760Y003848D02*
X030773Y003848D01*
X030844Y003946D02*
X032750Y003946D01*
X032774Y004045D02*
X030886Y004045D01*
X030907Y004143D02*
X032840Y004143D01*
X032840Y004242D02*
X030440Y004242D01*
X030390Y004200D02*
X031480Y004200D01*
X032290Y003390D01*
X033310Y003390D01*
X035620Y005700D01*
X036830Y005700D01*
X036940Y005590D01*
X036940Y004720D01*
X037460Y004200D01*
X037410Y004242D02*
X036440Y004242D01*
X036440Y004250D02*
X036909Y004250D01*
X036897Y004322D01*
X036872Y004400D01*
X036835Y004473D01*
X036787Y004539D01*
X036729Y004597D01*
X036663Y004645D01*
X036590Y004682D01*
X036538Y004699D01*
X036685Y004759D01*
X036831Y004905D01*
X036910Y005097D01*
X036910Y005303D01*
X036831Y005495D01*
X036685Y005641D01*
X036542Y005700D01*
X036685Y005759D01*
X036831Y005905D01*
X036910Y006097D01*
X036910Y006303D01*
X036831Y006495D01*
X036685Y006641D01*
X036542Y006700D01*
X036685Y006759D01*
X036831Y006905D01*
X036910Y007097D01*
X036910Y007303D01*
X036831Y007495D01*
X036685Y007641D01*
X036542Y007700D01*
X036685Y007759D01*
X036831Y007905D01*
X036910Y008097D01*
X036910Y008303D01*
X036831Y008495D01*
X036685Y008641D01*
X036542Y008700D01*
X036685Y008759D01*
X036831Y008905D01*
X036910Y009097D01*
X036910Y009303D01*
X036831Y009495D01*
X036685Y009641D01*
X036542Y009700D01*
X036685Y009759D01*
X036831Y009905D01*
X036910Y010097D01*
X036910Y010303D01*
X036831Y010495D01*
X036685Y010641D01*
X036542Y010700D01*
X036685Y010759D01*
X036831Y010905D01*
X036910Y011097D01*
X036910Y011303D01*
X036831Y011495D01*
X036685Y011641D01*
X036542Y011700D01*
X036685Y011759D01*
X036831Y011905D01*
X036910Y012097D01*
X036910Y012303D01*
X036831Y012495D01*
X036685Y012641D01*
X036542Y012700D01*
X036685Y012759D01*
X036831Y012905D01*
X036910Y013097D01*
X036910Y013303D01*
X036831Y013495D01*
X036685Y013641D01*
X036542Y013700D01*
X036685Y013759D01*
X036831Y013905D01*
X036910Y014097D01*
X036910Y014303D01*
X036831Y014495D01*
X036685Y014641D01*
X036542Y014700D01*
X036685Y014759D01*
X036831Y014905D01*
X036910Y015097D01*
X036910Y015303D01*
X036831Y015495D01*
X036795Y015530D01*
X037055Y015530D01*
X037019Y015495D01*
X036940Y015303D01*
X036940Y015097D01*
X037019Y014905D01*
X037165Y014759D01*
X037308Y014700D01*
X037165Y014641D01*
X037019Y014495D01*
X036940Y014303D01*
X036940Y014097D01*
X037019Y013905D01*
X037165Y013759D01*
X037308Y013700D01*
X037165Y013641D01*
X037019Y013495D01*
X036940Y013303D01*
X036940Y013097D01*
X037019Y012905D01*
X037165Y012759D01*
X037308Y012700D01*
X037165Y012641D01*
X037019Y012495D01*
X036940Y012303D01*
X036940Y012097D01*
X037019Y011905D01*
X037165Y011759D01*
X037308Y011700D01*
X037165Y011641D01*
X037019Y011495D01*
X036940Y011303D01*
X036940Y011097D01*
X037019Y010905D01*
X037165Y010759D01*
X037308Y010700D01*
X037165Y010641D01*
X037019Y010495D01*
X036940Y010303D01*
X036940Y010097D01*
X037019Y009905D01*
X037165Y009759D01*
X037308Y009700D01*
X037165Y009641D01*
X037019Y009495D01*
X036940Y009303D01*
X036940Y009097D01*
X037019Y008905D01*
X037165Y008759D01*
X037308Y008700D01*
X037165Y008641D01*
X037019Y008495D01*
X036940Y008303D01*
X036940Y008097D01*
X037019Y007905D01*
X037165Y007759D01*
X037308Y007700D01*
X037165Y007641D01*
X037019Y007495D01*
X036940Y007303D01*
X036940Y007097D01*
X037019Y006905D01*
X037165Y006759D01*
X037308Y006700D01*
X037165Y006641D01*
X037019Y006495D01*
X036940Y006303D01*
X036940Y006097D01*
X037019Y005905D01*
X037165Y005759D01*
X037308Y005700D01*
X037165Y005641D01*
X037019Y005495D01*
X036940Y005303D01*
X036940Y005097D01*
X037019Y004905D01*
X037165Y004759D01*
X037312Y004699D01*
X037260Y004682D01*
X037187Y004645D01*
X037121Y004597D01*
X037063Y004539D01*
X037015Y004473D01*
X036978Y004400D01*
X036953Y004322D01*
X036941Y004250D01*
X037410Y004250D01*
X037410Y004150D01*
X036941Y004150D01*
X036953Y004078D01*
X036978Y004000D01*
X037015Y003927D01*
X037063Y003861D01*
X037121Y003803D01*
X037187Y003755D01*
X037260Y003718D01*
X037312Y003701D01*
X037165Y003641D01*
X037019Y003495D01*
X036940Y003303D01*
X036940Y003097D01*
X037019Y002905D01*
X037165Y002759D01*
X037357Y002680D01*
X037563Y002680D01*
X037597Y002694D01*
X037597Y002049D01*
X035572Y002049D01*
X035610Y002087D01*
X035610Y003660D01*
X035656Y003706D01*
X035700Y003812D01*
X035700Y003928D01*
X035656Y004034D01*
X035574Y004116D01*
X035468Y004160D01*
X035352Y004160D01*
X035246Y004116D01*
X035164Y004034D01*
X035120Y003928D01*
X035120Y003812D01*
X035164Y003706D01*
X035210Y003660D01*
X035210Y002253D01*
X035006Y002049D01*
X028729Y002049D01*
X028708Y002040D01*
X028327Y002040D01*
X028210Y001923D01*
X027887Y001600D01*
X027200Y001600D01*
X027200Y001873D01*
X027121Y002065D01*
X027045Y002140D01*
X033563Y002140D01*
X034483Y003060D01*
X034548Y003060D01*
X034654Y003104D01*
X034736Y003186D01*
X034780Y003292D01*
X034780Y003408D01*
X034736Y003514D01*
X034654Y003596D01*
X034548Y003640D01*
X034432Y003640D01*
X034326Y003596D01*
X034244Y003514D01*
X034200Y003408D01*
X034200Y003343D01*
X033397Y002540D01*
X033253Y002540D01*
X035703Y004990D01*
X035914Y004990D01*
X035949Y004905D01*
X036095Y004759D01*
X036242Y004699D01*
X036190Y004682D01*
X036117Y004645D01*
X036051Y004597D01*
X035993Y004539D01*
X035945Y004473D01*
X035908Y004400D01*
X035883Y004322D01*
X035871Y004250D01*
X036340Y004250D01*
X036340Y004150D01*
X035871Y004150D01*
X035883Y004078D01*
X035908Y004000D01*
X035945Y003927D01*
X035993Y003861D01*
X036051Y003803D01*
X036117Y003755D01*
X036190Y003718D01*
X036242Y003701D01*
X036095Y003641D01*
X035949Y003495D01*
X035870Y003303D01*
X035870Y003097D01*
X035949Y002905D01*
X036095Y002759D01*
X036287Y002680D01*
X036493Y002680D01*
X036685Y002759D01*
X036831Y002905D01*
X036910Y003097D01*
X036910Y003303D01*
X036831Y003495D01*
X036685Y003641D01*
X036538Y003701D01*
X036590Y003718D01*
X036663Y003755D01*
X036729Y003803D01*
X036787Y003861D01*
X036835Y003927D01*
X036872Y004000D01*
X036897Y004078D01*
X036909Y004150D01*
X036440Y004150D01*
X036440Y004250D01*
X036340Y004242D02*
X034954Y004242D01*
X035053Y004340D02*
X035889Y004340D01*
X035928Y004439D02*
X035151Y004439D01*
X035250Y004537D02*
X035992Y004537D01*
X036105Y004636D02*
X035348Y004636D01*
X035447Y004734D02*
X036156Y004734D01*
X036022Y004833D02*
X035545Y004833D01*
X035644Y004931D02*
X035939Y004931D01*
X035620Y005190D02*
X036380Y005190D01*
X036390Y005200D01*
X035920Y005424D02*
X034994Y005424D01*
X035044Y005444D02*
X035126Y005526D01*
X035170Y005632D01*
X035170Y005748D01*
X035126Y005854D01*
X035044Y005936D01*
X034938Y005980D01*
X034873Y005980D01*
X034240Y006613D01*
X034240Y007637D01*
X034896Y008293D01*
X034952Y008270D01*
X035068Y008270D01*
X035174Y008314D01*
X035256Y008396D01*
X035300Y008502D01*
X035300Y008618D01*
X035256Y008724D01*
X035174Y008806D01*
X035068Y008850D01*
X034952Y008850D01*
X034846Y008806D01*
X034800Y008760D01*
X034797Y008760D01*
X033957Y007920D01*
X033840Y007803D01*
X033840Y006447D01*
X034590Y005697D01*
X034590Y005632D01*
X034634Y005526D01*
X034716Y005444D01*
X034822Y005400D01*
X034938Y005400D01*
X035044Y005444D01*
X035122Y005522D02*
X035977Y005522D01*
X036075Y005621D02*
X035165Y005621D01*
X035170Y005719D02*
X036192Y005719D01*
X036037Y005818D02*
X035141Y005818D01*
X035064Y005916D02*
X035945Y005916D01*
X035904Y006015D02*
X034838Y006015D01*
X034740Y006113D02*
X035870Y006113D01*
X035870Y006212D02*
X034641Y006212D01*
X034543Y006310D02*
X035873Y006310D01*
X035914Y006409D02*
X034444Y006409D01*
X034346Y006507D02*
X035962Y006507D01*
X036060Y006606D02*
X034247Y006606D01*
X034240Y006704D02*
X036229Y006704D01*
X036052Y006803D02*
X034240Y006803D01*
X034240Y006901D02*
X034529Y006901D01*
X034444Y007000D02*
X034240Y007000D01*
X034240Y007098D02*
X034410Y007098D01*
X034410Y007197D02*
X034240Y007197D01*
X034240Y007295D02*
X034450Y007295D01*
X034554Y007394D02*
X034240Y007394D01*
X034240Y007492D02*
X035948Y007492D01*
X036045Y007591D02*
X034240Y007591D01*
X034292Y007689D02*
X036212Y007689D01*
X036067Y007788D02*
X034390Y007788D01*
X034489Y007886D02*
X035969Y007886D01*
X035916Y007985D02*
X034587Y007985D01*
X034686Y008083D02*
X035876Y008083D01*
X035870Y008182D02*
X034784Y008182D01*
X034883Y008280D02*
X034928Y008280D01*
X035092Y008280D02*
X035870Y008280D01*
X035901Y008379D02*
X035239Y008379D01*
X035290Y008477D02*
X035942Y008477D01*
X036030Y008576D02*
X035300Y008576D01*
X035277Y008674D02*
X036176Y008674D01*
X036082Y008773D02*
X035208Y008773D01*
X035010Y008560D02*
X034880Y008560D01*
X034040Y007720D01*
X034040Y006530D01*
X034880Y005690D01*
X034766Y005424D02*
X033240Y005424D01*
X033240Y005522D02*
X034638Y005522D01*
X034595Y005621D02*
X033240Y005621D01*
X033240Y005719D02*
X034568Y005719D01*
X034470Y005818D02*
X033240Y005818D01*
X033240Y005916D02*
X034371Y005916D01*
X034273Y006015D02*
X033240Y006015D01*
X033240Y006113D02*
X034174Y006113D01*
X034076Y006212D02*
X033240Y006212D01*
X033240Y006310D02*
X033977Y006310D01*
X033879Y006409D02*
X033240Y006409D01*
X033240Y006507D02*
X033840Y006507D01*
X033840Y006606D02*
X033240Y006606D01*
X033240Y006704D02*
X033840Y006704D01*
X033840Y006803D02*
X033240Y006803D01*
X033240Y006901D02*
X033840Y006901D01*
X033840Y007000D02*
X033240Y007000D01*
X033240Y007098D02*
X033840Y007098D01*
X033840Y007197D02*
X033240Y007197D01*
X033240Y007295D02*
X033840Y007295D01*
X033840Y007394D02*
X033240Y007394D01*
X033240Y007492D02*
X033840Y007492D01*
X033840Y007591D02*
X033240Y007591D01*
X033240Y007689D02*
X033840Y007689D01*
X033840Y007788D02*
X033240Y007788D01*
X033329Y007886D02*
X033923Y007886D01*
X034022Y007985D02*
X033427Y007985D01*
X033526Y008083D02*
X034120Y008083D01*
X034219Y008182D02*
X033624Y008182D01*
X033723Y008280D02*
X034317Y008280D01*
X034416Y008379D02*
X033821Y008379D01*
X033920Y008477D02*
X034514Y008477D01*
X034613Y008576D02*
X034018Y008576D01*
X034117Y008674D02*
X034711Y008674D01*
X034812Y008773D02*
X034215Y008773D01*
X034314Y008871D02*
X035984Y008871D01*
X035923Y008970D02*
X034412Y008970D01*
X034350Y009190D02*
X036380Y009190D01*
X035936Y009462D02*
X030844Y009462D01*
X030885Y009364D02*
X034241Y009364D01*
X034142Y009265D02*
X030910Y009265D01*
X030910Y009167D02*
X034044Y009167D01*
X033945Y009068D02*
X030898Y009068D01*
X030857Y008970D02*
X033847Y008970D01*
X033748Y008871D02*
X030796Y008871D01*
X030698Y008773D02*
X033650Y008773D01*
X033551Y008674D02*
X030604Y008674D01*
X030750Y008576D02*
X033453Y008576D01*
X033354Y008477D02*
X030838Y008477D01*
X030879Y008379D02*
X033256Y008379D01*
X033157Y008280D02*
X030910Y008280D01*
X030910Y008182D02*
X033059Y008182D01*
X032960Y008083D02*
X030904Y008083D01*
X030864Y007985D02*
X032862Y007985D01*
X032840Y007886D02*
X030811Y007886D01*
X030713Y007788D02*
X032840Y007788D01*
X032840Y007689D02*
X030568Y007689D01*
X030735Y007591D02*
X032840Y007591D01*
X032840Y007492D02*
X030832Y007492D01*
X030873Y007394D02*
X032840Y007394D01*
X032840Y007295D02*
X030910Y007295D01*
X030910Y007197D02*
X032840Y007197D01*
X032840Y007098D02*
X030910Y007098D01*
X030870Y007000D02*
X032840Y007000D01*
X032840Y006901D02*
X030826Y006901D01*
X030728Y006803D02*
X032840Y006803D01*
X032840Y006704D02*
X030551Y006704D01*
X030720Y006606D02*
X032840Y006606D01*
X032840Y006507D02*
X030818Y006507D01*
X030866Y006409D02*
X032840Y006409D01*
X032840Y006310D02*
X030907Y006310D01*
X030910Y006212D02*
X032840Y006212D01*
X032840Y006113D02*
X030910Y006113D01*
X030876Y006015D02*
X032840Y006015D01*
X032840Y005916D02*
X030835Y005916D01*
X030743Y005818D02*
X032840Y005818D01*
X032840Y005719D02*
X030588Y005719D01*
X030705Y005621D02*
X032840Y005621D01*
X032840Y005522D02*
X030803Y005522D01*
X030860Y005424D02*
X032840Y005424D01*
X032840Y005325D02*
X030901Y005325D01*
X030910Y005227D02*
X032840Y005227D01*
X032840Y005128D02*
X030910Y005128D01*
X030882Y005030D02*
X032840Y005030D01*
X032840Y004931D02*
X030841Y004931D01*
X030758Y004833D02*
X032840Y004833D01*
X032840Y004734D02*
X030624Y004734D01*
X030675Y004636D02*
X032840Y004636D01*
X032840Y004537D02*
X030788Y004537D01*
X030852Y004439D02*
X032840Y004439D01*
X032840Y004340D02*
X030891Y004340D01*
X030340Y004242D02*
X029370Y004242D01*
X029270Y004242D02*
X028925Y004242D01*
X028922Y004250D02*
X029270Y004250D01*
X029270Y004150D01*
X028930Y004150D01*
X028930Y004230D01*
X028922Y004250D01*
X028858Y004439D02*
X028775Y004439D01*
X028677Y004537D02*
X028922Y004537D01*
X029035Y004636D02*
X028578Y004636D01*
X028480Y004734D02*
X029086Y004734D01*
X028952Y004833D02*
X028381Y004833D01*
X028283Y004931D02*
X028869Y004931D01*
X028828Y005030D02*
X028184Y005030D01*
X028800Y005128D02*
X020832Y005128D01*
X020930Y005227D02*
X028800Y005227D01*
X029673Y005818D02*
X030037Y005818D01*
X029945Y005916D02*
X029765Y005916D01*
X029806Y006015D02*
X029904Y006015D01*
X029870Y006113D02*
X029840Y006113D01*
X029840Y006212D02*
X029870Y006212D01*
X029873Y006310D02*
X029837Y006310D01*
X029796Y006409D02*
X029914Y006409D01*
X029962Y006507D02*
X029748Y006507D01*
X029650Y006606D02*
X030060Y006606D01*
X030229Y006704D02*
X029481Y006704D01*
X029658Y006803D02*
X030052Y006803D01*
X029954Y006901D02*
X029756Y006901D01*
X029800Y007000D02*
X029910Y007000D01*
X029870Y007098D02*
X029840Y007098D01*
X029840Y007197D02*
X029870Y007197D01*
X029870Y007295D02*
X029840Y007295D01*
X029803Y007394D02*
X029907Y007394D01*
X029948Y007492D02*
X029762Y007492D01*
X029665Y007591D02*
X030045Y007591D01*
X030212Y007689D02*
X029498Y007689D01*
X029643Y007788D02*
X030067Y007788D01*
X029969Y007886D02*
X029741Y007886D01*
X029794Y007985D02*
X029916Y007985D01*
X029876Y008083D02*
X029834Y008083D01*
X029840Y008182D02*
X029870Y008182D01*
X029870Y008280D02*
X029840Y008280D01*
X029809Y008379D02*
X029901Y008379D01*
X029942Y008477D02*
X029768Y008477D01*
X029680Y008576D02*
X030030Y008576D01*
X030176Y008674D02*
X029534Y008674D01*
X029628Y008773D02*
X030082Y008773D01*
X029984Y008871D02*
X029726Y008871D01*
X029787Y008970D02*
X029923Y008970D01*
X029882Y009068D02*
X029828Y009068D01*
X029840Y009167D02*
X029870Y009167D01*
X029870Y009265D02*
X029840Y009265D01*
X029815Y009364D02*
X029895Y009364D01*
X029936Y009462D02*
X029774Y009462D01*
X029695Y009561D02*
X030015Y009561D01*
X030139Y009659D02*
X029571Y009659D01*
X029611Y009758D02*
X030099Y009758D01*
X029999Y009856D02*
X029711Y009856D01*
X029781Y009955D02*
X029929Y009955D01*
X029888Y010053D02*
X029822Y010053D01*
X029840Y010152D02*
X029870Y010152D01*
X029870Y010250D02*
X029840Y010250D01*
X029821Y010349D02*
X029889Y010349D01*
X029929Y010447D02*
X029781Y010447D01*
X029710Y010546D02*
X030000Y010546D01*
X030103Y010644D02*
X029607Y010644D01*
X029574Y010743D02*
X030136Y010743D01*
X030014Y010841D02*
X029696Y010841D01*
X029775Y010940D02*
X029935Y010940D01*
X029894Y011038D02*
X029816Y011038D01*
X029840Y011137D02*
X029870Y011137D01*
X029870Y011235D02*
X029840Y011235D01*
X029828Y011334D02*
X029882Y011334D01*
X029923Y011432D02*
X029787Y011432D01*
X028853Y011432D02*
X009494Y011432D01*
X009539Y011334D02*
X028812Y011334D01*
X028800Y011235D02*
X009580Y011235D01*
X009584Y011137D02*
X028800Y011137D01*
X028824Y011038D02*
X009584Y011038D01*
X009554Y010940D02*
X028865Y010940D01*
X028944Y010841D02*
X009513Y010841D01*
X009431Y010743D02*
X029066Y010743D01*
X029033Y010644D02*
X009308Y010644D01*
X007228Y008970D02*
X006795Y008970D01*
X006156Y009462D02*
X005412Y009462D01*
X005510Y009561D02*
X006255Y009561D01*
X006353Y009659D02*
X005590Y009659D01*
X005631Y009758D02*
X006492Y009758D01*
X006408Y009856D02*
X005638Y009856D01*
X005638Y009955D02*
X006310Y009955D01*
X006211Y010053D02*
X005638Y010053D01*
X005638Y010152D02*
X006113Y010152D01*
X006014Y010250D02*
X005638Y010250D01*
X005638Y010349D02*
X005916Y010349D01*
X005831Y010447D02*
X005638Y010447D01*
X005638Y010546D02*
X005790Y010546D01*
X005780Y010644D02*
X005638Y010644D01*
X005638Y010743D02*
X005780Y010743D01*
X005780Y010841D02*
X005638Y010841D01*
X005638Y010940D02*
X005780Y010940D01*
X005780Y011038D02*
X005683Y011038D01*
X005683Y011137D02*
X005780Y011137D01*
X005780Y011235D02*
X005683Y011235D01*
X005683Y011334D02*
X005780Y011334D01*
X005780Y011432D02*
X005683Y011432D01*
X005683Y011531D02*
X005780Y011531D01*
X005780Y011629D02*
X005683Y011629D01*
X005683Y011728D02*
X005780Y011728D01*
X005780Y011826D02*
X005683Y011826D01*
X003496Y013402D02*
X002180Y013402D01*
X002180Y013501D02*
X003434Y013501D01*
X003434Y013599D02*
X002180Y013599D01*
X002180Y013698D02*
X003434Y013698D01*
X003434Y013796D02*
X002180Y013796D01*
X002180Y013895D02*
X003434Y013895D01*
X003434Y013993D02*
X002180Y013993D01*
X002180Y014092D02*
X003434Y014092D01*
X003434Y014190D02*
X002180Y014190D01*
X002180Y014289D02*
X003434Y014289D01*
X003445Y014387D02*
X002180Y014387D01*
X005313Y009364D02*
X006058Y009364D01*
X005978Y009265D02*
X005215Y009265D01*
X005116Y009167D02*
X005937Y009167D01*
X005930Y009068D02*
X005018Y009068D01*
X004919Y008970D02*
X005930Y008970D01*
X005930Y008871D02*
X004821Y008871D01*
X004722Y008773D02*
X005930Y008773D01*
X005930Y008674D02*
X004624Y008674D01*
X004525Y008576D02*
X005930Y008576D01*
X005930Y008477D02*
X004427Y008477D01*
X004328Y008379D02*
X005930Y008379D01*
X005930Y008280D02*
X004230Y008280D01*
X004131Y008182D02*
X005930Y008182D01*
X005930Y008083D02*
X004033Y008083D01*
X003934Y007985D02*
X005930Y007985D01*
X005930Y007886D02*
X003836Y007886D01*
X003792Y007788D02*
X005930Y007788D01*
X005930Y007689D02*
X003752Y007689D01*
X003710Y007591D02*
X005930Y007591D01*
X005930Y007492D02*
X003611Y007492D01*
X003596Y007295D02*
X005930Y007295D01*
X005930Y007197D02*
X003691Y007197D01*
X003749Y007098D02*
X005930Y007098D01*
X005930Y007000D02*
X003781Y007000D01*
X003222Y006901D02*
X002180Y006901D01*
X003437Y007394D02*
X005930Y007394D01*
X007507Y005719D02*
X020715Y005719D01*
X020617Y005621D02*
X007605Y005621D01*
X007704Y005522D02*
X020518Y005522D01*
X020420Y005424D02*
X007802Y005424D01*
X007901Y005325D02*
X009616Y005325D01*
X009441Y005227D02*
X007999Y005227D01*
X006616Y004242D02*
X021338Y004242D01*
X021436Y004340D02*
X010955Y004340D01*
X010980Y004348D02*
X010902Y004323D01*
X010830Y004311D01*
X010830Y004780D01*
X011299Y004780D01*
X011287Y004708D01*
X011262Y004630D01*
X011225Y004557D01*
X011177Y004491D01*
X011119Y004433D01*
X011053Y004385D01*
X010980Y004348D01*
X010830Y004340D02*
X010730Y004340D01*
X010730Y004439D02*
X010830Y004439D01*
X010830Y004537D02*
X010730Y004537D01*
X010730Y004636D02*
X010830Y004636D01*
X010830Y004734D02*
X010730Y004734D01*
X010830Y004833D02*
X014090Y004833D01*
X014080Y004734D02*
X011291Y004734D01*
X011264Y004636D02*
X014104Y004636D01*
X014173Y004537D02*
X011210Y004537D01*
X011124Y004439D02*
X021535Y004439D01*
X021633Y004537D02*
X020239Y004537D01*
X020339Y004636D02*
X021732Y004636D01*
X021830Y004734D02*
X020438Y004734D01*
X020536Y004833D02*
X021929Y004833D01*
X022027Y004931D02*
X020635Y004931D01*
X020733Y005030D02*
X022126Y005030D01*
X022341Y004537D02*
X022494Y004537D01*
X022396Y004439D02*
X022242Y004439D01*
X022297Y004340D02*
X022144Y004340D01*
X022199Y004242D02*
X022045Y004242D01*
X022100Y004143D02*
X021947Y004143D01*
X022002Y004045D02*
X021848Y004045D01*
X021903Y003946D02*
X021750Y003946D01*
X021805Y003848D02*
X021651Y003848D01*
X021706Y003749D02*
X021553Y003749D01*
X021608Y003651D02*
X021454Y003651D01*
X021509Y003552D02*
X021356Y003552D01*
X021257Y003454D02*
X021480Y003454D01*
X021480Y003355D02*
X021159Y003355D01*
X021075Y003257D02*
X021480Y003257D01*
X021480Y003158D02*
X021018Y003158D01*
X020582Y003158D02*
X017080Y003158D01*
X017080Y003060D02*
X021480Y003060D01*
X021480Y002961D02*
X017080Y002961D01*
X017080Y002863D02*
X021480Y002863D01*
X021480Y002764D02*
X017080Y002764D01*
X017080Y002666D02*
X021480Y002666D01*
X021480Y002567D02*
X017080Y002567D01*
X017080Y002469D02*
X021480Y002469D01*
X021480Y002370D02*
X017080Y002370D01*
X017080Y002272D02*
X017541Y002272D01*
X017630Y002272D02*
X017730Y002272D01*
X017819Y002272D02*
X018541Y002272D01*
X018630Y002272D02*
X018730Y002272D01*
X018819Y002272D02*
X019532Y002272D01*
X019348Y002173D02*
X019010Y002173D01*
X019102Y002075D02*
X019249Y002075D01*
X019202Y001976D02*
X019159Y001976D01*
X018730Y001976D02*
X018630Y001976D01*
X018630Y001878D02*
X018730Y001878D01*
X018730Y001779D02*
X018630Y001779D01*
X018630Y001681D02*
X018730Y001681D01*
X018730Y001582D02*
X018630Y001582D01*
X018630Y001484D02*
X018730Y001484D01*
X018630Y001385D02*
X017730Y001385D01*
X017730Y001484D02*
X017630Y001484D01*
X017630Y001582D02*
X017730Y001582D01*
X017730Y001681D02*
X017630Y001681D01*
X017630Y001779D02*
X017730Y001779D01*
X017730Y001878D02*
X017630Y001878D01*
X017630Y001976D02*
X017730Y001976D01*
X017730Y002075D02*
X017630Y002075D01*
X017630Y002173D02*
X017730Y002173D01*
X018010Y002173D02*
X018350Y002173D01*
X018258Y002075D02*
X018102Y002075D01*
X018159Y001976D02*
X018201Y001976D01*
X018630Y002075D02*
X018730Y002075D01*
X018730Y002173D02*
X018630Y002173D01*
X019828Y002272D02*
X021480Y002272D01*
X021348Y002173D02*
X020012Y002173D01*
X020111Y002075D02*
X021249Y002075D01*
X021202Y001976D02*
X020158Y001976D01*
X020198Y001878D02*
X021162Y001878D01*
X021160Y001779D02*
X020200Y001779D01*
X020200Y001681D02*
X021160Y001681D01*
X021160Y001582D02*
X020200Y001582D01*
X020200Y001484D02*
X021160Y001484D01*
X021160Y001385D02*
X020200Y001385D01*
X020200Y001287D02*
X021160Y001287D01*
X021160Y001188D02*
X020200Y001188D01*
X020200Y001090D02*
X021160Y001090D01*
X021160Y000991D02*
X020200Y000991D01*
X021680Y001400D02*
X021680Y003440D01*
X022710Y004470D01*
X026470Y004470D01*
X026790Y004150D01*
X026790Y003000D01*
X027240Y002550D01*
X032980Y002550D01*
X035620Y005190D01*
X035472Y005325D02*
X033240Y005325D01*
X033240Y005227D02*
X035374Y005227D01*
X035275Y005128D02*
X033240Y005128D01*
X033240Y005030D02*
X035177Y005030D01*
X035078Y004931D02*
X033240Y004931D01*
X033240Y004833D02*
X034980Y004833D01*
X034881Y004734D02*
X033240Y004734D01*
X033240Y004636D02*
X034783Y004636D01*
X034684Y004537D02*
X033240Y004537D01*
X033240Y004439D02*
X034586Y004439D01*
X034487Y004340D02*
X033240Y004340D01*
X033240Y004242D02*
X034389Y004242D01*
X034290Y004143D02*
X033240Y004143D01*
X033306Y004045D02*
X034192Y004045D01*
X034093Y003946D02*
X033330Y003946D01*
X033320Y003848D02*
X033995Y003848D01*
X033896Y003749D02*
X033269Y003749D01*
X033040Y003930D02*
X033040Y007880D01*
X034350Y009190D01*
X036015Y009561D02*
X030765Y009561D01*
X030641Y009659D02*
X036139Y009659D01*
X036099Y009758D02*
X030681Y009758D01*
X030781Y009856D02*
X035999Y009856D01*
X035929Y009955D02*
X030851Y009955D01*
X030892Y010053D02*
X035888Y010053D01*
X035870Y010152D02*
X030910Y010152D01*
X030910Y010250D02*
X035870Y010250D01*
X035889Y010349D02*
X030891Y010349D01*
X030851Y010447D02*
X035929Y010447D01*
X036000Y010546D02*
X030780Y010546D01*
X030677Y010644D02*
X036103Y010644D01*
X036136Y010743D02*
X030644Y010743D01*
X030766Y010841D02*
X036014Y010841D01*
X035935Y010940D02*
X030845Y010940D01*
X030886Y011038D02*
X031489Y011038D01*
X031391Y011137D02*
X030910Y011137D01*
X030910Y011235D02*
X031292Y011235D01*
X031194Y011334D02*
X030898Y011334D01*
X030857Y011432D02*
X031095Y011432D01*
X031110Y011700D02*
X031610Y011200D01*
X036390Y011200D01*
X035923Y011432D02*
X031661Y011432D01*
X031562Y011531D02*
X035985Y011531D01*
X036084Y011629D02*
X031464Y011629D01*
X031365Y011728D02*
X036172Y011728D01*
X036029Y011826D02*
X031267Y011826D01*
X031110Y011700D02*
X027400Y011700D01*
X030572Y012713D02*
X035050Y012713D01*
X034970Y012811D02*
X030736Y012811D01*
X030833Y012910D02*
X034970Y012910D01*
X034970Y013008D02*
X030873Y013008D01*
X030910Y013107D02*
X034970Y013107D01*
X034970Y013205D02*
X030910Y013205D01*
X030910Y013304D02*
X034970Y013304D01*
X034970Y013402D02*
X030869Y013402D01*
X030711Y012614D02*
X035149Y012614D01*
X035247Y012516D02*
X030810Y012516D01*
X030863Y012417D02*
X035346Y012417D01*
X035444Y012319D02*
X030904Y012319D01*
X030910Y012220D02*
X035543Y012220D01*
X035641Y012122D02*
X030910Y012122D01*
X030880Y012023D02*
X035740Y012023D01*
X035941Y011925D02*
X030839Y011925D01*
X034469Y013895D02*
X034970Y013895D01*
X034970Y013993D02*
X034623Y013993D01*
X034677Y014092D02*
X034970Y014092D01*
X034970Y014190D02*
X034690Y014190D01*
X034530Y013370D02*
X034530Y012330D01*
X035160Y011700D01*
X036730Y011700D01*
X036930Y011500D01*
X036930Y010880D01*
X037005Y010940D02*
X036845Y010940D01*
X036886Y011038D02*
X036964Y011038D01*
X036940Y011137D02*
X036910Y011137D01*
X036910Y011235D02*
X036940Y011235D01*
X036952Y011334D02*
X036898Y011334D01*
X036857Y011432D02*
X036993Y011432D01*
X037055Y011531D02*
X036795Y011531D01*
X036696Y011629D02*
X037154Y011629D01*
X037242Y011728D02*
X036608Y011728D01*
X036751Y011826D02*
X037099Y011826D01*
X037011Y011925D02*
X036839Y011925D01*
X036880Y012023D02*
X036970Y012023D01*
X036940Y012122D02*
X036910Y012122D01*
X036910Y012220D02*
X036940Y012220D01*
X036946Y012319D02*
X036904Y012319D01*
X036863Y012417D02*
X036987Y012417D01*
X037040Y012516D02*
X036810Y012516D01*
X036711Y012614D02*
X037139Y012614D01*
X037278Y012713D02*
X036572Y012713D01*
X036736Y012811D02*
X037114Y012811D01*
X037017Y012910D02*
X036833Y012910D01*
X036873Y013008D02*
X036977Y013008D01*
X036940Y013107D02*
X036910Y013107D01*
X036910Y013205D02*
X036940Y013205D01*
X036940Y013304D02*
X036910Y013304D01*
X036869Y013402D02*
X036981Y013402D01*
X037025Y013501D02*
X036825Y013501D01*
X036726Y013599D02*
X037124Y013599D01*
X037129Y013796D02*
X036721Y013796D01*
X036820Y013895D02*
X037030Y013895D01*
X036983Y013993D02*
X036867Y013993D01*
X036908Y014092D02*
X036942Y014092D01*
X036940Y014190D02*
X036910Y014190D01*
X036910Y014289D02*
X036940Y014289D01*
X036975Y014387D02*
X036875Y014387D01*
X036835Y014486D02*
X037015Y014486D01*
X037109Y014584D02*
X036741Y014584D01*
X036584Y014683D02*
X037266Y014683D01*
X037144Y014781D02*
X036706Y014781D01*
X036805Y014880D02*
X037045Y014880D01*
X036989Y014978D02*
X036861Y014978D01*
X036902Y015077D02*
X036948Y015077D01*
X036940Y015175D02*
X036910Y015175D01*
X036910Y015274D02*
X036940Y015274D01*
X036968Y015372D02*
X036882Y015372D01*
X036841Y015471D02*
X037009Y015471D01*
X037302Y013698D02*
X036548Y013698D01*
X036390Y013200D02*
X035670Y013200D01*
X035630Y013240D01*
X036766Y010841D02*
X037084Y010841D01*
X037206Y010743D02*
X036644Y010743D01*
X036677Y010644D02*
X037173Y010644D01*
X037070Y010546D02*
X036780Y010546D01*
X036851Y010447D02*
X036999Y010447D01*
X036959Y010349D02*
X036891Y010349D01*
X036910Y010250D02*
X036940Y010250D01*
X036940Y010152D02*
X036910Y010152D01*
X036892Y010053D02*
X036958Y010053D01*
X036999Y009955D02*
X036851Y009955D01*
X036781Y009856D02*
X037069Y009856D01*
X037169Y009758D02*
X036681Y009758D01*
X036641Y009659D02*
X037209Y009659D01*
X037085Y009561D02*
X036765Y009561D01*
X036844Y009462D02*
X037006Y009462D01*
X036965Y009364D02*
X036885Y009364D01*
X036910Y009265D02*
X036940Y009265D01*
X036940Y009167D02*
X036910Y009167D01*
X036898Y009068D02*
X036952Y009068D01*
X036993Y008970D02*
X036857Y008970D01*
X036796Y008871D02*
X037054Y008871D01*
X037152Y008773D02*
X036698Y008773D01*
X036604Y008674D02*
X037246Y008674D01*
X037100Y008576D02*
X036750Y008576D01*
X036838Y008477D02*
X037012Y008477D01*
X036971Y008379D02*
X036879Y008379D01*
X036910Y008280D02*
X036940Y008280D01*
X036940Y008182D02*
X036910Y008182D01*
X036904Y008083D02*
X036946Y008083D01*
X036986Y007985D02*
X036864Y007985D01*
X036811Y007886D02*
X037039Y007886D01*
X037137Y007788D02*
X036713Y007788D01*
X036568Y007689D02*
X037282Y007689D01*
X037115Y007591D02*
X036735Y007591D01*
X036832Y007492D02*
X037018Y007492D01*
X036977Y007394D02*
X036873Y007394D01*
X036910Y007295D02*
X036940Y007295D01*
X036940Y007197D02*
X036910Y007197D01*
X036910Y007098D02*
X036940Y007098D01*
X036980Y007000D02*
X036870Y007000D01*
X036826Y006901D02*
X037024Y006901D01*
X037122Y006803D02*
X036728Y006803D01*
X036720Y006606D02*
X037130Y006606D01*
X037032Y006507D02*
X036818Y006507D01*
X036866Y006409D02*
X036984Y006409D01*
X036943Y006310D02*
X036907Y006310D01*
X036910Y006212D02*
X036940Y006212D01*
X036940Y006113D02*
X036910Y006113D01*
X036876Y006015D02*
X036974Y006015D01*
X037015Y005916D02*
X036835Y005916D01*
X036743Y005818D02*
X037107Y005818D01*
X037262Y005719D02*
X036588Y005719D01*
X036705Y005621D02*
X037145Y005621D01*
X037047Y005522D02*
X036803Y005522D01*
X036860Y005424D02*
X036990Y005424D01*
X036949Y005325D02*
X036901Y005325D01*
X036910Y005227D02*
X036940Y005227D01*
X036940Y005128D02*
X036910Y005128D01*
X036882Y005030D02*
X036968Y005030D01*
X037009Y004931D02*
X036841Y004931D01*
X036758Y004833D02*
X037092Y004833D01*
X037226Y004734D02*
X036624Y004734D01*
X036675Y004636D02*
X037175Y004636D01*
X037062Y004537D02*
X036788Y004537D01*
X036852Y004439D02*
X036998Y004439D01*
X036959Y004340D02*
X036891Y004340D01*
X036907Y004143D02*
X036943Y004143D01*
X036964Y004045D02*
X036886Y004045D01*
X036844Y003946D02*
X037006Y003946D01*
X037077Y003848D02*
X036773Y003848D01*
X036650Y003749D02*
X037200Y003749D01*
X037189Y003651D02*
X036661Y003651D01*
X036773Y003552D02*
X037077Y003552D01*
X037002Y003454D02*
X036848Y003454D01*
X036889Y003355D02*
X036961Y003355D01*
X036940Y003257D02*
X036910Y003257D01*
X036910Y003158D02*
X036940Y003158D01*
X036955Y003060D02*
X036895Y003060D01*
X036854Y002961D02*
X036996Y002961D01*
X037062Y002863D02*
X036788Y002863D01*
X036689Y002764D02*
X037161Y002764D01*
X037597Y002666D02*
X035610Y002666D01*
X035610Y002764D02*
X036091Y002764D01*
X035992Y002863D02*
X035610Y002863D01*
X035610Y002961D02*
X035926Y002961D01*
X035885Y003060D02*
X035610Y003060D01*
X035610Y003158D02*
X035870Y003158D01*
X035870Y003257D02*
X035610Y003257D01*
X035610Y003355D02*
X035891Y003355D01*
X035932Y003454D02*
X035610Y003454D01*
X035610Y003552D02*
X036007Y003552D01*
X036119Y003651D02*
X035610Y003651D01*
X035674Y003749D02*
X036130Y003749D01*
X036007Y003848D02*
X035700Y003848D01*
X035692Y003946D02*
X035936Y003946D01*
X035894Y004045D02*
X035646Y004045D01*
X035509Y004143D02*
X035873Y004143D01*
X035410Y003870D02*
X035410Y002170D01*
X035080Y001840D01*
X028410Y001840D01*
X027970Y001400D01*
X026680Y001400D01*
X027200Y001681D02*
X027968Y001681D01*
X028066Y001779D02*
X027200Y001779D01*
X027198Y001878D02*
X028165Y001878D01*
X028263Y001976D02*
X027158Y001976D01*
X027111Y002075D02*
X035032Y002075D01*
X035130Y002173D02*
X033596Y002173D01*
X033694Y002272D02*
X035210Y002272D01*
X035210Y002370D02*
X033793Y002370D01*
X033891Y002469D02*
X035210Y002469D01*
X035210Y002567D02*
X033990Y002567D01*
X034088Y002666D02*
X035210Y002666D01*
X035210Y002764D02*
X034187Y002764D01*
X034285Y002863D02*
X035210Y002863D01*
X035210Y002961D02*
X034384Y002961D01*
X034482Y003060D02*
X035210Y003060D01*
X035210Y003158D02*
X034708Y003158D01*
X034765Y003257D02*
X035210Y003257D01*
X035210Y003355D02*
X034780Y003355D01*
X034761Y003454D02*
X035210Y003454D01*
X035210Y003552D02*
X034698Y003552D01*
X034490Y003350D02*
X033480Y002340D01*
X026200Y002340D01*
X025760Y002780D01*
X025040Y002780D01*
X024920Y002660D01*
X023680Y002660D01*
X023330Y002300D02*
X025120Y002300D01*
X025230Y002410D01*
X025680Y001880D02*
X025680Y001400D01*
X025680Y001880D02*
X026200Y002340D01*
X025830Y003000D02*
X026350Y003520D01*
X026350Y004080D01*
X025830Y003000D02*
X023130Y003000D01*
X022670Y002540D01*
X022670Y001410D01*
X022680Y001400D01*
X023200Y002180D02*
X023210Y002180D01*
X023330Y002300D01*
X020845Y003749D02*
X016583Y003749D01*
X016695Y003651D02*
X020747Y003651D01*
X020592Y003552D02*
X016794Y003552D01*
X016719Y003627D02*
X016719Y003627D01*
X016892Y003454D02*
X020529Y003454D01*
X020510Y003355D02*
X016991Y003355D01*
X017048Y003257D02*
X020525Y003257D01*
X020944Y003848D02*
X006853Y003848D01*
X006812Y003946D02*
X021042Y003946D01*
X021141Y004045D02*
X006771Y004045D01*
X006714Y004143D02*
X021239Y004143D01*
X020026Y005030D02*
X014453Y005030D01*
X014287Y005030D02*
X011262Y005030D01*
X011225Y005103D01*
X011177Y005169D01*
X011119Y005227D01*
X011053Y005275D01*
X010980Y005312D01*
X010902Y005337D01*
X010830Y005349D01*
X010830Y004880D01*
X011299Y004880D01*
X011287Y004952D01*
X011262Y005030D01*
X011290Y004931D02*
X014141Y004931D01*
X013807Y003749D02*
X006893Y003749D01*
X006894Y003651D02*
X013695Y003651D01*
X013596Y003552D02*
X006894Y003552D01*
X006894Y003454D02*
X013498Y003454D01*
X013399Y003355D02*
X006894Y003355D01*
X006855Y003257D02*
X013324Y003257D01*
X013283Y003158D02*
X006814Y003158D01*
X006773Y003060D02*
X013280Y003060D01*
X013280Y002961D02*
X006720Y002961D01*
X006621Y002863D02*
X013280Y002863D01*
X013280Y002764D02*
X010859Y002764D01*
X010830Y002764D02*
X010730Y002764D01*
X010701Y002764D02*
X009898Y002764D01*
X010100Y002666D02*
X010467Y002666D01*
X010368Y002567D02*
X010198Y002567D01*
X010252Y002469D02*
X010308Y002469D01*
X010730Y002469D02*
X010830Y002469D01*
X010830Y002567D02*
X010730Y002567D01*
X010730Y002666D02*
X010830Y002666D01*
X010830Y002769D02*
X010830Y002300D01*
X011299Y002300D01*
X011287Y002372D01*
X011262Y002450D01*
X011225Y002523D01*
X011177Y002589D01*
X011119Y002647D01*
X011053Y002695D01*
X010980Y002732D01*
X010902Y002757D01*
X010830Y002769D01*
X011093Y002666D02*
X013280Y002666D01*
X013280Y002567D02*
X011192Y002567D01*
X011252Y002469D02*
X013280Y002469D01*
X013280Y002370D02*
X011287Y002370D01*
X011299Y002200D02*
X010830Y002200D01*
X010830Y001731D01*
X010902Y001743D01*
X010980Y001768D01*
X011053Y001805D01*
X011119Y001853D01*
X011177Y001911D01*
X011225Y001977D01*
X011262Y002050D01*
X011287Y002128D01*
X011299Y002200D01*
X011294Y002173D02*
X012348Y002173D01*
X012249Y002075D02*
X011270Y002075D01*
X011224Y001976D02*
X012202Y001976D01*
X012162Y001878D02*
X011143Y001878D01*
X011001Y001779D02*
X012160Y001779D01*
X012532Y002272D02*
X010830Y002272D01*
X010830Y002370D02*
X010730Y002370D01*
X010730Y002173D02*
X010830Y002173D01*
X010830Y002075D02*
X010730Y002075D01*
X010730Y001976D02*
X010830Y001976D01*
X010830Y001878D02*
X010730Y001878D01*
X010730Y001779D02*
X010830Y001779D01*
X010559Y001779D02*
X010002Y001779D01*
X010143Y001878D02*
X010417Y001878D01*
X010336Y001976D02*
X010229Y001976D01*
X010270Y002075D02*
X010290Y002075D01*
X009662Y002764D02*
X006523Y002764D01*
X006373Y002666D02*
X009460Y002666D01*
X009362Y002567D02*
X006136Y002567D01*
X006517Y004340D02*
X009604Y004340D01*
X009956Y004340D02*
X010605Y004340D01*
X010436Y004439D02*
X010124Y004439D01*
X010221Y004537D02*
X010350Y004537D01*
X010296Y004636D02*
X010262Y004636D01*
X010260Y005030D02*
X010298Y005030D01*
X010354Y005128D02*
X010217Y005128D01*
X010119Y005227D02*
X010441Y005227D01*
X010621Y005325D02*
X009944Y005325D01*
X010730Y005325D02*
X010830Y005325D01*
X010830Y005227D02*
X010730Y005227D01*
X010730Y005128D02*
X010830Y005128D01*
X010830Y005030D02*
X010730Y005030D01*
X010730Y004931D02*
X010830Y004931D01*
X010939Y005325D02*
X020321Y005325D01*
X020223Y005227D02*
X011119Y005227D01*
X011206Y005128D02*
X020124Y005128D01*
X017350Y002173D02*
X017080Y002173D01*
X017111Y002075D02*
X017258Y002075D01*
X017201Y001976D02*
X017158Y001976D01*
X013280Y002173D02*
X013012Y002173D01*
X013111Y002075D02*
X013249Y002075D01*
X013202Y001976D02*
X013158Y001976D01*
X013280Y002272D02*
X012828Y002272D01*
X009392Y006704D02*
X029159Y006704D01*
X028982Y006803D02*
X009491Y006803D01*
X009538Y006901D02*
X028884Y006901D01*
X028840Y007000D02*
X009579Y007000D01*
X009584Y007098D02*
X028800Y007098D01*
X028800Y007197D02*
X009584Y007197D01*
X009555Y007295D02*
X028800Y007295D01*
X028837Y007394D02*
X009515Y007394D01*
X009434Y007492D02*
X028878Y007492D01*
X028975Y007591D02*
X009316Y007591D01*
X012030Y019608D02*
X012130Y019608D01*
X012130Y019706D02*
X012030Y019706D01*
X034700Y007140D02*
X034770Y007210D01*
X036380Y007210D01*
X036390Y007200D01*
X035910Y007000D02*
X034956Y007000D01*
X034871Y006901D02*
X035954Y006901D01*
X036551Y006704D02*
X037299Y006704D01*
X035311Y004143D02*
X034856Y004143D01*
X034757Y004045D02*
X035174Y004045D01*
X035128Y003946D02*
X034659Y003946D01*
X034560Y003848D02*
X035120Y003848D01*
X035146Y003749D02*
X034462Y003749D01*
X034363Y003651D02*
X035210Y003651D01*
X034282Y003552D02*
X034265Y003552D01*
X034219Y003454D02*
X034166Y003454D01*
X034200Y003355D02*
X034068Y003355D01*
X034114Y003257D02*
X033969Y003257D01*
X034015Y003158D02*
X033871Y003158D01*
X033917Y003060D02*
X033772Y003060D01*
X033818Y002961D02*
X033674Y002961D01*
X033720Y002863D02*
X033575Y002863D01*
X033621Y002764D02*
X033477Y002764D01*
X033523Y002666D02*
X033378Y002666D01*
X033424Y002567D02*
X033280Y002567D01*
X035610Y002567D02*
X037597Y002567D01*
X037597Y002469D02*
X035610Y002469D01*
X035610Y002370D02*
X037597Y002370D01*
X037597Y002272D02*
X035610Y002272D01*
X035610Y002173D02*
X037597Y002173D01*
X037597Y002075D02*
X035597Y002075D01*
D22*
X035890Y012170D02*
X036360Y012170D01*
X036390Y012200D01*
X035890Y012170D02*
X035180Y012880D01*
X035180Y015550D01*
X034980Y015750D01*
X028580Y015750D01*
X027000Y017330D01*
X027000Y018180D01*
X025670Y019510D01*
X025670Y020390D01*
X025680Y020400D01*
D23*
X035630Y013240D03*
D24*
X036390Y009200D02*
X036390Y009190D01*
X036380Y009190D01*
D25*
X025230Y002410D03*
X023680Y002660D03*
X023200Y002180D03*
M02*
