G75*
%MOIN*%
%OFA0B0*%
%FSLAX24Y24*%
%IPPOS*%
%LPD*%
%AMOC8*
5,1,8,0,0,1.08239X$1,22.5*
%
%ADD10C,0.1340*%
%ADD11C,0.1780*%
%ADD12C,0.0860*%
%ADD13C,0.0820*%
%ADD14C,0.0730*%
%ADD15R,0.0730X0.0730*%
%ADD16C,0.0820*%
%ADD17C,0.0707*%
%ADD18C,0.0721*%
%ADD19R,0.0436X0.0436*%
%ADD20C,0.0436*%
D10*
X007180Y001400D03*
X027680Y003400D03*
X027680Y014400D03*
X007680Y020400D03*
D11*
X004713Y001699D03*
X005894Y003549D03*
X003531Y003549D03*
D12*
X009044Y007119D03*
X009044Y011119D03*
D13*
X009080Y020030D02*
X009080Y020770D01*
X010080Y020770D02*
X010080Y020030D01*
X011080Y020030D02*
X011080Y020770D01*
X012080Y020770D02*
X012080Y020030D01*
X013080Y020030D02*
X013080Y020770D01*
X014080Y020770D02*
X014080Y020030D01*
X015080Y020030D02*
X015080Y020770D01*
X016080Y020770D02*
X016080Y020030D01*
X017080Y020030D02*
X017080Y020770D01*
X018080Y020770D02*
X018080Y020030D01*
X019680Y020030D02*
X019680Y020770D01*
X020680Y020770D02*
X020680Y020030D01*
X021680Y020030D02*
X021680Y020770D01*
X022680Y020770D02*
X022680Y020030D01*
X023680Y020030D02*
X023680Y020770D01*
X024680Y020770D02*
X024680Y020030D01*
X025680Y020030D02*
X025680Y020770D01*
X026680Y020770D02*
X026680Y020030D01*
X026680Y001770D02*
X026680Y001030D01*
X025680Y001030D02*
X025680Y001770D01*
X024680Y001770D02*
X024680Y001030D01*
X023680Y001030D02*
X023680Y001770D01*
X022680Y001770D02*
X022680Y001030D01*
X021680Y001030D02*
X021680Y001770D01*
X019680Y001770D02*
X019680Y001030D01*
X018680Y001030D02*
X018680Y001770D01*
X017680Y001770D02*
X017680Y001030D01*
X016680Y001030D02*
X016680Y001770D01*
X015680Y001770D02*
X015680Y001030D01*
X014680Y001030D02*
X014680Y001770D01*
X013680Y001770D02*
X013680Y001030D01*
X012680Y001030D02*
X012680Y001770D01*
D14*
X006470Y017310D03*
X003210Y017310D03*
D15*
X003210Y018310D03*
X006470Y018310D03*
D16*
X003272Y007888D03*
X003272Y006888D03*
X009780Y004830D03*
X010780Y004830D03*
X010780Y002250D03*
X009780Y002250D03*
X029320Y003200D03*
X030390Y003200D03*
X030390Y004200D03*
X029320Y004200D03*
X029320Y005200D03*
X030390Y005200D03*
X030390Y006200D03*
X029320Y006200D03*
X029320Y007200D03*
X030390Y007200D03*
X030390Y008200D03*
X029320Y008200D03*
X029320Y009200D03*
X030390Y009200D03*
X030390Y010200D03*
X029320Y010200D03*
X029320Y011200D03*
X030390Y011200D03*
X030390Y012200D03*
X029320Y012200D03*
X029320Y013200D03*
X030390Y013200D03*
X030390Y014200D03*
X029320Y014200D03*
X029320Y015200D03*
X030390Y015200D03*
X036390Y015200D03*
X037460Y015200D03*
X037460Y014200D03*
X036390Y014200D03*
X036390Y013200D03*
X037460Y013200D03*
X037460Y012200D03*
X036390Y012200D03*
X036390Y011200D03*
X037460Y011200D03*
X037460Y010200D03*
X036390Y010200D03*
X036390Y009200D03*
X037460Y009200D03*
X037460Y008200D03*
X036390Y008200D03*
X036390Y007200D03*
X037460Y007200D03*
X037460Y006200D03*
X036390Y006200D03*
X036390Y005200D03*
X037460Y005200D03*
X037460Y004200D03*
X036390Y004200D03*
X036390Y003200D03*
X037460Y003200D03*
D17*
X007430Y009400D03*
D18*
X007430Y008400D03*
D19*
X035630Y013240D03*
D20*
X023680Y002660D03*
X023200Y002180D03*
X025230Y002410D03*
M02*
