%
M48
M72
T01C0.0160
T02C0.0236
T03C0.0276
T04C0.0394
T05C0.0400
T06C0.0440
T07C0.1180
T08C0.1260
%
T01
X14370Y4750
X18200Y5430
X20800Y3350
X20450Y2840
X23040Y3550
X25960Y3540
X26350Y4080
X33040Y3930
X34490Y3350
X35410Y3870
X34880Y5690
X34700Y7140
X35010Y8560
X34530Y13370
X34400Y14180
X33620Y13870
X33150Y13440
X32220Y13700
X31970Y15200
X26630Y15130
X24880Y14320
X26130Y13720
X26600Y16550
X26200Y17100
X23100Y17330
X18930Y18460
X17780Y17230
X17220Y16100
X13120Y17130
X10850Y18150
X11140Y13140
X15890Y12960
X11720Y8740
T02
X23200Y2180
X23680Y2660
X25230Y2410
X35630Y13240
T03
X7430Y9400
X7430Y8400
X6470Y17310
X6470Y18310
X3210Y18310
X3210Y17310
T04
X9044Y11119
X9044Y7119
T05
X9780Y4830
X10780Y4830
X10780Y2250
X9780Y2250
X3272Y6888
X3272Y7888
X29320Y8200
X30390Y8200
X30390Y7200
X29320Y7200
X29320Y6200
X30390Y6200
X30390Y5200
X29320Y5200
X29320Y4200
X30390Y4200
X30390Y3200
X29320Y3200
X36390Y3200
X37460Y3200
X37460Y4200
X36390Y4200
X36390Y5200
X37460Y5200
X37460Y6200
X36390Y6200
X36390Y7200
X37460Y7200
X37460Y8200
X36390Y8200
X36390Y9200
X37460Y9200
X37460Y10200
X36390Y10200
X36390Y11200
X37460Y11200
X37460Y12200
X36390Y12200
X36390Y13200
X37460Y13200
X37460Y14200
X36390Y14200
X36390Y15200
X37460Y15200
X30390Y15200
X29320Y15200
X29320Y14200
X30390Y14200
X30390Y13200
X29320Y13200
X29320Y12200
X30390Y12200
X30390Y11200
X29320Y11200
X29320Y10200
X30390Y10200
X30390Y9200
X29320Y9200
T06
X26680Y1400
X25680Y1400
X24680Y1400
X23680Y1400
X22680Y1400
X21680Y1400
X19680Y1400
X18680Y1400
X17680Y1400
X16680Y1400
X15680Y1400
X14680Y1400
X13680Y1400
X12680Y1400
X13080Y20400
X14080Y20400
X15080Y20400
X16080Y20400
X17080Y20400
X18080Y20400
X19680Y20400
X20680Y20400
X21680Y20400
X22680Y20400
X23680Y20400
X24680Y20400
X25680Y20400
X26680Y20400
X12080Y20400
X11080Y20400
X10080Y20400
X9080Y20400
T07
X4713Y1699
X5894Y3549
X3531Y3549
T08
X7180Y1400
X27680Y3400
X27680Y14400
X7680Y20400
M30
