%
M48
M72
T01C0.0276
T02C0.0320
T03C0.0354
T04C0.0394
T05C0.0400
T06C0.0512
T07C0.0520
T08C0.1180
T09C0.1260
%
T01
X5241Y6659
X6241Y6659
X4100Y9680
X4100Y10680
T02
X3150Y6900
X2650Y6150
X3650Y6150
T03
X5630Y11200
X5630Y15200
T04
X2556Y12000
X2556Y8000
X11870Y860
X15870Y860
T05
X16335Y8880
X15335Y8880
X14335Y8880
X13335Y8880
X12335Y8880
X11335Y8880
X10335Y8880
X9335Y8880
X8335Y8880
X7335Y8880
X6335Y8880
X6332Y9980
X7332Y9980
X8332Y9980
X9332Y9980
X10332Y9980
X11332Y9980
X12332Y9980
X13332Y9980
X14332Y9980
X15332Y9980
X16332Y9980
X17332Y9980
X18332Y9980
X18335Y8880
X17335Y8880
X17332Y15980
X18332Y15980
X16332Y15980
X15332Y15980
X14332Y15980
X13332Y15980
X12332Y15980
X11332Y15980
X10332Y15980
X9332Y15980
X8332Y15980
X7332Y15980
X6332Y15980
X6335Y17081
X7335Y17081
X8335Y17081
X9335Y17081
X10335Y17081
X11335Y17081
X12335Y17081
X13335Y17081
X14335Y17081
X15335Y17081
X16335Y17081
X17335Y17081
X18335Y17081
X2870Y15000
X2870Y14000
T06
X18310Y6977
X18310Y5009
X18310Y3040
T07
X15000Y4770
X14200Y2420
X9400Y2420
X9400Y7120
X14200Y7120
T08
X4713Y1489
X5894Y3339
X3531Y3339
T09
X18422Y1184
X2674Y16932
M30
