G75*
%MOIN*%
%OFA0B0*%
%FSLAX24Y24*%
%IPPOS*%
%LPD*%
%AMOC8*
5,1,8,0,0,1.08239X$1,22.5*
%
%ADD10C,0.1700*%
%ADD11C,0.0780*%
%ADD12C,0.0650*%
%ADD13R,0.0650X0.0650*%
%ADD14C,0.0740*%
%ADD15C,0.0780*%
%ADD16R,0.0950X0.0950*%
%ADD17C,0.0950*%
%ADD18C,0.0240*%
%ADD19C,0.0500*%
%ADD20C,0.0100*%
D10*
X004713Y001489D03*
X005894Y003339D03*
X003531Y003339D03*
D11*
X011870Y000860D03*
X015870Y000860D03*
X002556Y008000D03*
X002556Y012000D03*
D12*
X004100Y010680D03*
X004100Y009680D03*
X006241Y006659D03*
D13*
X005241Y006659D03*
D14*
X003650Y006150D03*
X002650Y006150D03*
X003150Y006900D03*
X006335Y008880D03*
X007335Y008880D03*
X008335Y008880D03*
X009335Y008880D03*
X010335Y008880D03*
X011335Y008880D03*
X012335Y008880D03*
X013335Y008880D03*
X014335Y008880D03*
X015335Y008880D03*
X016335Y008880D03*
X017335Y008880D03*
X018335Y008880D03*
X018332Y009980D03*
X017332Y009980D03*
X016332Y009980D03*
X015332Y009980D03*
X014332Y009980D03*
X013332Y009980D03*
X012332Y009980D03*
X011332Y009980D03*
X010332Y009980D03*
X009332Y009980D03*
X008332Y009980D03*
X007332Y009980D03*
X006332Y009980D03*
X005630Y011200D03*
X002870Y014000D03*
X002870Y015000D03*
X005630Y015200D03*
X006332Y015980D03*
X007332Y015980D03*
X008332Y015980D03*
X009332Y015980D03*
X010332Y015980D03*
X011332Y015980D03*
X012332Y015980D03*
X013332Y015980D03*
X014332Y015980D03*
X015332Y015980D03*
X016332Y015980D03*
X017332Y015980D03*
X018332Y015980D03*
X018335Y017081D03*
X017335Y017081D03*
X016335Y017081D03*
X015335Y017081D03*
X014335Y017081D03*
X013335Y017081D03*
X012335Y017081D03*
X011335Y017081D03*
X010335Y017081D03*
X009335Y017081D03*
X008335Y017081D03*
X007335Y017081D03*
X006335Y017081D03*
D15*
X009010Y007120D02*
X009790Y007120D01*
X013810Y007120D02*
X014590Y007120D01*
X014610Y004770D02*
X015390Y004770D01*
X014590Y002420D02*
X013810Y002420D01*
X009790Y002420D02*
X009010Y002420D01*
D16*
X018310Y003040D03*
D17*
X018310Y005009D03*
X018310Y006977D03*
D18*
X006330Y009986D02*
X006330Y011640D01*
X005970Y012000D01*
X002556Y012000D01*
X003310Y011250D02*
X003630Y011570D01*
X005260Y011570D01*
X005630Y011200D01*
X003310Y011250D02*
X003310Y007920D01*
X003150Y007760D01*
X003150Y006900D01*
D19*
X003650Y006150D02*
X003650Y005910D01*
X004100Y005460D01*
X006640Y005460D01*
X008300Y003800D01*
X010510Y003800D01*
X012210Y002100D01*
X012510Y002400D01*
X014180Y002400D01*
X014200Y002420D01*
X015290Y003420D02*
X012680Y003420D01*
X011980Y004120D01*
X011980Y005460D01*
X011790Y005650D01*
X011770Y005650D01*
X011710Y005590D01*
X008610Y005590D01*
X006670Y007530D01*
X005530Y007530D01*
X005241Y007241D01*
X005241Y006659D01*
X004100Y007800D01*
X004100Y009680D01*
X006330Y009982D02*
X006332Y009980D01*
X006332Y008883D01*
X006335Y008880D01*
X006330Y009982D02*
X006330Y009986D01*
X008332Y009980D02*
X008332Y008883D01*
X008335Y008880D01*
X009332Y008883D02*
X009335Y008880D01*
X009332Y008883D02*
X009332Y009980D01*
X010332Y009980D02*
X010332Y008883D01*
X010335Y008880D01*
X011332Y008883D02*
X011335Y008880D01*
X011332Y008883D02*
X011332Y009980D01*
X012332Y009980D02*
X012332Y008883D01*
X012335Y008880D01*
X013332Y008883D02*
X013335Y008880D01*
X013332Y008883D02*
X013332Y009980D01*
X014332Y009980D02*
X014332Y008883D01*
X014335Y008880D01*
X015332Y008883D02*
X015335Y008880D01*
X015332Y008883D02*
X015332Y009980D01*
X016332Y009980D02*
X016332Y008883D01*
X016335Y008880D01*
X017332Y008883D02*
X017335Y008880D01*
X017332Y008883D02*
X017332Y009980D01*
X018332Y009980D02*
X018332Y008883D01*
X018335Y008880D01*
X014200Y007120D02*
X012490Y007120D01*
X011980Y006610D01*
X011980Y005460D01*
X015290Y003420D02*
X015860Y002850D01*
X015860Y000870D01*
X015870Y000860D01*
X012210Y002100D02*
X011870Y001760D01*
X011870Y000860D01*
X012332Y015980D02*
X012332Y017077D01*
X012335Y017081D01*
X013332Y017077D02*
X013335Y017081D01*
X013332Y017077D02*
X013332Y015980D01*
X014332Y015980D02*
X014332Y017077D01*
X014335Y017081D01*
X015332Y017077D02*
X015335Y017081D01*
X015332Y017077D02*
X015332Y015980D01*
X016332Y015980D02*
X016332Y017077D01*
X016335Y017081D01*
X017332Y017077D02*
X017335Y017081D01*
X017332Y017077D02*
X017332Y015980D01*
X018332Y015980D02*
X018332Y017077D01*
X018335Y017081D01*
X011335Y017081D02*
X011332Y017077D01*
X011332Y015980D01*
X010332Y015980D02*
X010332Y017077D01*
X010335Y017081D01*
X009335Y017081D02*
X009332Y017077D01*
X009332Y015980D01*
X008332Y015980D02*
X008332Y017077D01*
X008335Y017081D01*
X006335Y017081D02*
X006332Y017077D01*
X006332Y015980D01*
D20*
X001989Y001076D02*
X002056Y000869D01*
X002183Y000693D01*
X002359Y000566D01*
X002566Y000499D01*
X002674Y000490D01*
X004511Y000490D01*
X004146Y000641D01*
X003865Y000922D01*
X003713Y001290D01*
X003713Y001688D01*
X003865Y002055D01*
X004146Y002337D01*
X004514Y002489D01*
X004912Y002489D01*
X005279Y002337D01*
X005560Y002055D01*
X005713Y001688D01*
X005713Y001290D01*
X005560Y000922D01*
X005279Y000641D01*
X004914Y000490D01*
X011477Y000490D01*
X011413Y000554D01*
X011330Y000753D01*
X011330Y000967D01*
X011413Y001166D01*
X011470Y001224D01*
X011470Y001840D01*
X011531Y001987D01*
X011644Y002100D01*
X011644Y002100D01*
X010344Y003400D01*
X008220Y003400D01*
X008073Y003461D01*
X007961Y003573D01*
X006474Y005060D01*
X004020Y005060D01*
X003873Y005121D01*
X003311Y005683D01*
X003261Y005803D01*
X003209Y005855D01*
X003149Y006002D01*
X003132Y005950D01*
X003095Y005877D01*
X003047Y005811D01*
X002989Y005753D01*
X002923Y005705D01*
X002850Y005668D01*
X002772Y005643D01*
X002691Y005630D01*
X002680Y005630D01*
X002680Y006120D01*
X002620Y006120D01*
X002620Y005630D01*
X002609Y005630D01*
X002528Y005643D01*
X002450Y005668D01*
X002377Y005705D01*
X002311Y005753D01*
X002253Y005811D01*
X002205Y005877D01*
X002168Y005950D01*
X002143Y006028D01*
X002130Y006109D01*
X002130Y006120D01*
X002620Y006120D01*
X002620Y006180D01*
X002620Y006670D01*
X002609Y006670D01*
X002528Y006657D01*
X002450Y006632D01*
X002377Y006595D01*
X002311Y006547D01*
X002253Y006489D01*
X002205Y006423D01*
X002168Y006350D01*
X002143Y006272D01*
X002130Y006191D01*
X002130Y006180D01*
X002620Y006180D01*
X002680Y006180D01*
X002680Y006670D01*
X002682Y006670D01*
X002630Y006797D01*
X002630Y007003D01*
X002709Y007195D01*
X002855Y007341D01*
X002880Y007351D01*
X002880Y007561D01*
X002862Y007543D01*
X002663Y007460D01*
X002448Y007460D01*
X002250Y007543D01*
X002098Y007695D01*
X002016Y007893D01*
X002016Y008108D01*
X002098Y008306D01*
X002250Y008458D01*
X002448Y008540D01*
X002663Y008540D01*
X002862Y008458D01*
X003013Y008306D01*
X003040Y008242D01*
X003040Y011304D01*
X003081Y011403D01*
X003401Y011723D01*
X003409Y011730D01*
X003028Y011730D01*
X003013Y011695D01*
X002862Y011543D01*
X002663Y011460D01*
X002448Y011460D01*
X002250Y011543D01*
X002098Y011695D01*
X002016Y011893D01*
X002016Y012108D01*
X002098Y012306D01*
X002250Y012458D01*
X002448Y012540D01*
X002663Y012540D01*
X002862Y012458D01*
X003013Y012306D01*
X003028Y012270D01*
X006023Y012270D01*
X006122Y012229D01*
X006483Y011869D01*
X006559Y011793D01*
X006600Y011694D01*
X006600Y010432D01*
X006626Y010421D01*
X006773Y010275D01*
X006833Y010128D01*
X006850Y010180D01*
X006887Y010253D01*
X006935Y010319D01*
X006993Y010377D01*
X007059Y010425D01*
X007132Y010462D01*
X007210Y010487D01*
X007282Y010499D01*
X007282Y010030D01*
X007382Y010030D01*
X007382Y010499D01*
X007453Y010487D01*
X007531Y010462D01*
X007604Y010425D01*
X007670Y010377D01*
X007728Y010319D01*
X007776Y010253D01*
X007814Y010180D01*
X007830Y010128D01*
X007891Y010275D01*
X008037Y010421D01*
X008228Y010500D01*
X008435Y010500D01*
X008626Y010421D01*
X008773Y010275D01*
X008832Y010132D01*
X008891Y010275D01*
X009037Y010421D01*
X009228Y010500D01*
X009435Y010500D01*
X009626Y010421D01*
X009773Y010275D01*
X009832Y010132D01*
X009891Y010275D01*
X010037Y010421D01*
X010228Y010500D01*
X010435Y010500D01*
X010626Y010421D01*
X010773Y010275D01*
X010832Y010132D01*
X010891Y010275D01*
X011037Y010421D01*
X011228Y010500D01*
X011435Y010500D01*
X011626Y010421D01*
X011773Y010275D01*
X011832Y010132D01*
X011891Y010275D01*
X012037Y010421D01*
X012228Y010500D01*
X012435Y010500D01*
X012626Y010421D01*
X012773Y010275D01*
X012832Y010132D01*
X012891Y010275D01*
X013037Y010421D01*
X013228Y010500D01*
X013435Y010500D01*
X013626Y010421D01*
X013773Y010275D01*
X013832Y010132D01*
X013891Y010275D01*
X014037Y010421D01*
X014228Y010500D01*
X014435Y010500D01*
X014626Y010421D01*
X014773Y010275D01*
X014832Y010132D01*
X014891Y010275D01*
X015037Y010421D01*
X015228Y010500D01*
X015435Y010500D01*
X015626Y010421D01*
X015773Y010275D01*
X015832Y010132D01*
X015891Y010275D01*
X016037Y010421D01*
X016228Y010500D01*
X016435Y010500D01*
X016626Y010421D01*
X016773Y010275D01*
X016832Y010132D01*
X016891Y010275D01*
X017037Y010421D01*
X017228Y010500D01*
X017435Y010500D01*
X017626Y010421D01*
X017773Y010275D01*
X017832Y010132D01*
X017891Y010275D01*
X018037Y010421D01*
X018228Y010500D01*
X018435Y010500D01*
X018626Y010421D01*
X018773Y010275D01*
X018852Y010083D01*
X018852Y009877D01*
X018773Y009685D01*
X018732Y009645D01*
X018732Y009219D01*
X018776Y009174D01*
X018855Y008983D01*
X018855Y008776D01*
X018776Y008585D01*
X018630Y008439D01*
X018439Y008360D01*
X018232Y008360D01*
X018041Y008439D01*
X017895Y008585D01*
X017835Y008728D01*
X017776Y008585D01*
X017630Y008439D01*
X017439Y008360D01*
X017232Y008360D01*
X017041Y008439D01*
X016895Y008585D01*
X016835Y008728D01*
X016776Y008585D01*
X016630Y008439D01*
X016439Y008360D01*
X016232Y008360D01*
X016041Y008439D01*
X015895Y008585D01*
X015835Y008728D01*
X015776Y008585D01*
X015630Y008439D01*
X015439Y008360D01*
X015232Y008360D01*
X015041Y008439D01*
X014895Y008585D01*
X014835Y008728D01*
X014776Y008585D01*
X014630Y008439D01*
X014439Y008360D01*
X014232Y008360D01*
X014041Y008439D01*
X013895Y008585D01*
X013835Y008728D01*
X013776Y008585D01*
X013630Y008439D01*
X013439Y008360D01*
X013232Y008360D01*
X013041Y008439D01*
X012895Y008585D01*
X012835Y008728D01*
X012776Y008585D01*
X012630Y008439D01*
X012439Y008360D01*
X012232Y008360D01*
X012041Y008439D01*
X011895Y008585D01*
X011835Y008728D01*
X011776Y008585D01*
X011630Y008439D01*
X011439Y008360D01*
X011232Y008360D01*
X011041Y008439D01*
X010895Y008585D01*
X010835Y008728D01*
X010776Y008585D01*
X010630Y008439D01*
X010439Y008360D01*
X010232Y008360D01*
X010041Y008439D01*
X009895Y008585D01*
X009835Y008728D01*
X009776Y008585D01*
X009630Y008439D01*
X009439Y008360D01*
X009232Y008360D01*
X009041Y008439D01*
X008895Y008585D01*
X008835Y008728D01*
X008776Y008585D01*
X008630Y008439D01*
X008439Y008360D01*
X008232Y008360D01*
X008041Y008439D01*
X007895Y008585D01*
X007834Y008731D01*
X007817Y008680D01*
X007780Y008607D01*
X007732Y008541D01*
X007674Y008483D01*
X007608Y008435D01*
X007535Y008398D01*
X007457Y008373D01*
X007385Y008361D01*
X007385Y008830D01*
X007285Y008830D01*
X007285Y008361D01*
X007214Y008373D01*
X007136Y008398D01*
X007063Y008435D01*
X006997Y008483D01*
X006939Y008541D01*
X006891Y008607D01*
X006854Y008680D01*
X006837Y008731D01*
X006776Y008585D01*
X006630Y008439D01*
X006439Y008360D01*
X006232Y008360D01*
X006041Y008439D01*
X005895Y008585D01*
X005815Y008776D01*
X005815Y008983D01*
X005895Y009174D01*
X005932Y009211D01*
X005932Y009645D01*
X005891Y009685D01*
X005812Y009877D01*
X005812Y010083D01*
X005891Y010275D01*
X006037Y010421D01*
X006060Y010430D01*
X006060Y010895D01*
X005925Y010759D01*
X005733Y010680D01*
X005527Y010680D01*
X005335Y010759D01*
X005189Y010905D01*
X005110Y011097D01*
X005110Y011300D01*
X003742Y011300D01*
X003580Y011138D01*
X003580Y007866D01*
X003539Y007767D01*
X003463Y007691D01*
X003420Y007648D01*
X003420Y007351D01*
X003445Y007341D01*
X003591Y007195D01*
X003670Y007003D01*
X003670Y006797D01*
X003618Y006670D01*
X003753Y006670D01*
X003945Y006591D01*
X004091Y006445D01*
X004170Y006253D01*
X004170Y006047D01*
X004143Y005982D01*
X004266Y005860D01*
X006720Y005860D01*
X006867Y005799D01*
X008466Y004200D01*
X010590Y004200D01*
X010737Y004139D01*
X012210Y002666D01*
X012283Y002739D01*
X012430Y002800D01*
X013426Y002800D01*
X013504Y002878D01*
X013703Y002960D01*
X014697Y002960D01*
X014896Y002878D01*
X015048Y002726D01*
X015130Y002527D01*
X015130Y002313D01*
X015048Y002114D01*
X014896Y001962D01*
X014697Y001880D01*
X013703Y001880D01*
X013504Y001962D01*
X013466Y002000D01*
X012676Y002000D01*
X012549Y001873D01*
X012549Y001873D01*
X012437Y001761D01*
X012437Y001761D01*
X012270Y001595D01*
X012270Y001224D01*
X012328Y001166D01*
X012410Y000967D01*
X012410Y000753D01*
X012328Y000554D01*
X012264Y000490D01*
X015477Y000490D01*
X015413Y000554D01*
X015330Y000753D01*
X015330Y000967D01*
X015413Y001166D01*
X015460Y001213D01*
X015460Y002684D01*
X015124Y003020D01*
X012600Y003020D01*
X012453Y003081D01*
X012341Y003193D01*
X011641Y003893D01*
X011580Y004040D01*
X011580Y005190D01*
X008530Y005190D01*
X008383Y005251D01*
X008271Y005363D01*
X006504Y007130D01*
X006304Y007130D01*
X006353Y007122D01*
X006424Y007099D01*
X006490Y007065D01*
X006551Y007021D01*
X006604Y006968D01*
X006648Y006908D01*
X006682Y006841D01*
X006705Y006770D01*
X006716Y006696D01*
X006716Y006678D01*
X006260Y006678D01*
X006260Y006640D01*
X006260Y006184D01*
X006279Y006184D01*
X006353Y006196D01*
X006424Y006219D01*
X006490Y006253D01*
X006551Y006297D01*
X006604Y006350D01*
X006648Y006410D01*
X006682Y006477D01*
X006705Y006548D01*
X006716Y006622D01*
X006716Y006640D01*
X006260Y006640D01*
X006223Y006640D01*
X006223Y006184D01*
X006204Y006184D01*
X006130Y006196D01*
X006059Y006219D01*
X005992Y006253D01*
X005932Y006297D01*
X005879Y006350D01*
X005835Y006410D01*
X005801Y006477D01*
X005778Y006548D01*
X005766Y006622D01*
X005766Y006640D01*
X006223Y006640D01*
X006223Y006678D01*
X005766Y006678D01*
X005766Y006696D01*
X005778Y006770D01*
X005801Y006841D01*
X005835Y006908D01*
X005879Y006968D01*
X005932Y007021D01*
X005992Y007065D01*
X006059Y007099D01*
X006130Y007122D01*
X006179Y007130D01*
X005696Y007130D01*
X005664Y007098D01*
X005716Y007046D01*
X005716Y006272D01*
X005629Y006184D01*
X004854Y006184D01*
X004766Y006272D01*
X004766Y006568D01*
X003761Y007574D01*
X003700Y007721D01*
X003700Y009408D01*
X003697Y009411D01*
X003625Y009586D01*
X003625Y009774D01*
X003697Y009949D01*
X003831Y010083D01*
X004006Y010155D01*
X004194Y010155D01*
X004369Y010083D01*
X004503Y009949D01*
X004575Y009774D01*
X004575Y009586D01*
X004503Y009411D01*
X004500Y009408D01*
X004500Y007966D01*
X004950Y007516D01*
X005191Y007757D01*
X005303Y007869D01*
X005450Y007930D01*
X006750Y007930D01*
X006897Y007869D01*
X008776Y005990D01*
X011546Y005990D01*
X011580Y006004D01*
X011580Y006690D01*
X011641Y006837D01*
X012263Y007459D01*
X012410Y007520D01*
X013446Y007520D01*
X013504Y007578D01*
X013703Y007660D01*
X014697Y007660D01*
X014896Y007578D01*
X015048Y007426D01*
X015130Y007227D01*
X015130Y007013D01*
X015048Y006814D01*
X014896Y006662D01*
X014697Y006580D01*
X013703Y006580D01*
X013504Y006662D01*
X013446Y006720D01*
X012656Y006720D01*
X012380Y006444D01*
X012380Y004286D01*
X012846Y003820D01*
X015370Y003820D01*
X015517Y003759D01*
X016087Y003189D01*
X016199Y003077D01*
X016260Y002930D01*
X016260Y001234D01*
X016328Y001166D01*
X016410Y000967D01*
X016410Y000753D01*
X016328Y000554D01*
X016264Y000490D01*
X017929Y000490D01*
X017710Y000708D01*
X017582Y001017D01*
X017582Y001351D01*
X017710Y001660D01*
X017947Y001896D01*
X018255Y002024D01*
X018589Y002024D01*
X018898Y001896D01*
X019117Y001678D01*
X019117Y016932D01*
X019108Y017041D01*
X019041Y017247D01*
X018913Y017423D01*
X018737Y017551D01*
X018531Y017618D01*
X018422Y017627D01*
X003168Y017627D01*
X003386Y017408D01*
X003514Y017099D01*
X003514Y016765D01*
X003386Y016457D01*
X003150Y016220D01*
X002841Y016092D01*
X002507Y016092D01*
X002198Y016220D01*
X001980Y016439D01*
X001980Y001184D01*
X001989Y001076D01*
X001988Y001087D02*
X003797Y001087D01*
X003756Y001185D02*
X001980Y001185D01*
X001980Y001284D02*
X003715Y001284D01*
X003713Y001382D02*
X001980Y001382D01*
X001980Y001481D02*
X003713Y001481D01*
X003713Y001579D02*
X001980Y001579D01*
X001980Y001678D02*
X003713Y001678D01*
X003749Y001776D02*
X001980Y001776D01*
X001980Y001875D02*
X003790Y001875D01*
X003831Y001973D02*
X001980Y001973D01*
X001980Y002072D02*
X003881Y002072D01*
X003980Y002170D02*
X001980Y002170D01*
X001980Y002269D02*
X004078Y002269D01*
X004220Y002367D02*
X003766Y002367D01*
X003809Y002377D02*
X003915Y002414D01*
X004016Y002463D01*
X004111Y002522D01*
X004199Y002592D01*
X004278Y002672D01*
X004348Y002760D01*
X004408Y002855D01*
X004457Y002956D01*
X004494Y003062D01*
X004519Y003171D01*
X004531Y003283D01*
X004531Y003289D01*
X003582Y003289D01*
X003582Y003389D01*
X004531Y003389D01*
X004531Y003395D01*
X004519Y003507D01*
X004494Y003616D01*
X004457Y003722D01*
X004408Y003824D01*
X004348Y003919D01*
X004278Y004007D01*
X004199Y004086D01*
X004111Y004156D01*
X004016Y004216D01*
X003915Y004265D01*
X003809Y004302D01*
X003699Y004327D01*
X003588Y004339D01*
X003581Y004339D01*
X003581Y003389D01*
X003481Y003389D01*
X003481Y003289D01*
X002531Y003289D01*
X002531Y003283D01*
X002544Y003171D01*
X002569Y003062D01*
X002606Y002956D01*
X002655Y002855D01*
X002715Y002760D01*
X002785Y002672D01*
X002864Y002592D01*
X002952Y002522D01*
X003047Y002463D01*
X003148Y002414D01*
X003254Y002377D01*
X003364Y002352D01*
X003475Y002339D01*
X003481Y002339D01*
X003481Y003289D01*
X003581Y003289D01*
X003581Y002339D01*
X003588Y002339D01*
X003699Y002352D01*
X003809Y002377D01*
X003581Y002367D02*
X003481Y002367D01*
X003481Y002466D02*
X003581Y002466D01*
X003581Y002564D02*
X003481Y002564D01*
X003481Y002663D02*
X003581Y002663D01*
X003581Y002761D02*
X003481Y002761D01*
X003481Y002860D02*
X003581Y002860D01*
X003581Y002958D02*
X003481Y002958D01*
X003481Y003057D02*
X003581Y003057D01*
X003581Y003155D02*
X003481Y003155D01*
X003481Y003254D02*
X003581Y003254D01*
X003582Y003352D02*
X004894Y003352D01*
X004894Y003254D02*
X004528Y003254D01*
X004515Y003155D02*
X004894Y003155D01*
X004894Y003140D02*
X005046Y002773D01*
X005327Y002491D01*
X005695Y002339D01*
X006093Y002339D01*
X006460Y002491D01*
X006741Y002773D01*
X006894Y003140D01*
X006894Y003538D01*
X006741Y003906D01*
X006460Y004187D01*
X006093Y004339D01*
X005695Y004339D01*
X005327Y004187D01*
X005046Y003906D01*
X004894Y003538D01*
X004894Y003140D01*
X004928Y003057D02*
X004492Y003057D01*
X004458Y002958D02*
X004969Y002958D01*
X005010Y002860D02*
X004410Y002860D01*
X004349Y002761D02*
X005058Y002761D01*
X005156Y002663D02*
X004269Y002663D01*
X004163Y002564D02*
X005255Y002564D01*
X005390Y002466D02*
X004968Y002466D01*
X005206Y002367D02*
X005628Y002367D01*
X005446Y002170D02*
X008529Y002170D01*
X008552Y002114D02*
X008470Y002313D01*
X008470Y002527D01*
X008552Y002726D01*
X008704Y002878D01*
X008903Y002960D01*
X009897Y002960D01*
X010096Y002878D01*
X010248Y002726D01*
X010330Y002527D01*
X010330Y002313D01*
X010248Y002114D01*
X010096Y001962D01*
X009897Y001880D01*
X008903Y001880D01*
X008704Y001962D01*
X008552Y002114D01*
X008595Y002072D02*
X005544Y002072D01*
X005594Y001973D02*
X008693Y001973D01*
X008488Y002269D02*
X005347Y002269D01*
X005635Y001875D02*
X011485Y001875D01*
X011470Y001776D02*
X005676Y001776D01*
X005713Y001678D02*
X011470Y001678D01*
X011470Y001579D02*
X005713Y001579D01*
X005713Y001481D02*
X011470Y001481D01*
X011470Y001382D02*
X005713Y001382D01*
X005710Y001284D02*
X011470Y001284D01*
X011432Y001185D02*
X005669Y001185D01*
X005628Y001087D02*
X011380Y001087D01*
X011339Y000988D02*
X005588Y000988D01*
X005527Y000890D02*
X011330Y000890D01*
X011330Y000791D02*
X005429Y000791D01*
X005330Y000693D02*
X011355Y000693D01*
X011396Y000594D02*
X005165Y000594D01*
X004928Y000496D02*
X011471Y000496D01*
X012270Y000496D02*
X015471Y000496D01*
X015396Y000594D02*
X012345Y000594D01*
X012386Y000693D02*
X015355Y000693D01*
X015330Y000791D02*
X012410Y000791D01*
X012410Y000890D02*
X015330Y000890D01*
X015339Y000988D02*
X012402Y000988D01*
X012361Y001087D02*
X015380Y001087D01*
X015432Y001185D02*
X012309Y001185D01*
X012270Y001284D02*
X015460Y001284D01*
X015460Y001382D02*
X012270Y001382D01*
X012270Y001481D02*
X015460Y001481D01*
X015460Y001579D02*
X012270Y001579D01*
X012353Y001678D02*
X015460Y001678D01*
X015460Y001776D02*
X012452Y001776D01*
X012550Y001875D02*
X015460Y001875D01*
X015460Y001973D02*
X014907Y001973D01*
X015005Y002072D02*
X015460Y002072D01*
X015460Y002170D02*
X015071Y002170D01*
X015112Y002269D02*
X015460Y002269D01*
X015460Y002367D02*
X015130Y002367D01*
X015130Y002466D02*
X015460Y002466D01*
X015460Y002564D02*
X015115Y002564D01*
X015074Y002663D02*
X015460Y002663D01*
X015383Y002761D02*
X015013Y002761D01*
X014914Y002860D02*
X015285Y002860D01*
X015186Y002958D02*
X014702Y002958D01*
X013698Y002958D02*
X011918Y002958D01*
X012016Y002860D02*
X013486Y002860D01*
X012512Y003057D02*
X011819Y003057D01*
X011721Y003155D02*
X012379Y003155D01*
X012281Y003254D02*
X011622Y003254D01*
X011524Y003352D02*
X012182Y003352D01*
X012084Y003451D02*
X011425Y003451D01*
X011327Y003549D02*
X011985Y003549D01*
X011887Y003648D02*
X011228Y003648D01*
X011130Y003746D02*
X011788Y003746D01*
X011690Y003845D02*
X011031Y003845D01*
X010933Y003943D02*
X011620Y003943D01*
X011580Y004042D02*
X010834Y004042D01*
X010734Y004140D02*
X011580Y004140D01*
X011580Y004239D02*
X008427Y004239D01*
X008329Y004337D02*
X011580Y004337D01*
X011580Y004436D02*
X008230Y004436D01*
X008132Y004534D02*
X011580Y004534D01*
X011580Y004633D02*
X008033Y004633D01*
X007935Y004731D02*
X011580Y004731D01*
X011580Y004830D02*
X007836Y004830D01*
X007738Y004928D02*
X011580Y004928D01*
X011580Y005027D02*
X007639Y005027D01*
X007541Y005125D02*
X011580Y005125D01*
X012380Y005125D02*
X014201Y005125D01*
X014152Y005076D02*
X014070Y004877D01*
X014070Y004663D01*
X014152Y004464D01*
X014304Y004312D01*
X014503Y004230D01*
X015497Y004230D01*
X015696Y004312D01*
X015848Y004464D01*
X015930Y004663D01*
X015930Y004877D01*
X015848Y005076D01*
X015696Y005228D01*
X015497Y005310D01*
X014503Y005310D01*
X014304Y005228D01*
X014152Y005076D01*
X014132Y005027D02*
X012380Y005027D01*
X012380Y004928D02*
X014091Y004928D01*
X014070Y004830D02*
X012380Y004830D01*
X012380Y004731D02*
X014070Y004731D01*
X014082Y004633D02*
X012380Y004633D01*
X012380Y004534D02*
X014123Y004534D01*
X014181Y004436D02*
X012380Y004436D01*
X012380Y004337D02*
X014279Y004337D01*
X014482Y004239D02*
X012427Y004239D01*
X012526Y004140D02*
X019117Y004140D01*
X019117Y004042D02*
X012624Y004042D01*
X012723Y003943D02*
X019117Y003943D01*
X019117Y003845D02*
X012821Y003845D01*
X010885Y002860D02*
X010114Y002860D01*
X010213Y002761D02*
X010983Y002761D01*
X011082Y002663D02*
X010274Y002663D01*
X010315Y002564D02*
X011180Y002564D01*
X011279Y002466D02*
X010330Y002466D01*
X010330Y002367D02*
X011377Y002367D01*
X011476Y002269D02*
X010312Y002269D01*
X010271Y002170D02*
X011574Y002170D01*
X011644Y002100D02*
X011644Y002100D01*
X011616Y002072D02*
X010205Y002072D01*
X010107Y001973D02*
X011526Y001973D01*
X012115Y002761D02*
X012336Y002761D01*
X012649Y001973D02*
X013493Y001973D01*
X015924Y003352D02*
X017685Y003352D01*
X017685Y003254D02*
X016022Y003254D01*
X016121Y003155D02*
X017685Y003155D01*
X017685Y003057D02*
X016207Y003057D01*
X016248Y002958D02*
X017685Y002958D01*
X017685Y002860D02*
X016260Y002860D01*
X016260Y002761D02*
X017685Y002761D01*
X017685Y002663D02*
X016260Y002663D01*
X016260Y002564D02*
X017685Y002564D01*
X017685Y002503D02*
X017773Y002415D01*
X018847Y002415D01*
X018935Y002503D01*
X018935Y003577D01*
X018847Y003665D01*
X017773Y003665D01*
X017685Y003577D01*
X017685Y002503D01*
X017722Y002466D02*
X016260Y002466D01*
X016260Y002367D02*
X019117Y002367D01*
X019117Y002269D02*
X016260Y002269D01*
X016260Y002170D02*
X019117Y002170D01*
X019117Y002072D02*
X016260Y002072D01*
X016260Y001973D02*
X018132Y001973D01*
X017925Y001875D02*
X016260Y001875D01*
X016260Y001776D02*
X017826Y001776D01*
X017728Y001678D02*
X016260Y001678D01*
X016260Y001579D02*
X017677Y001579D01*
X017636Y001481D02*
X016260Y001481D01*
X016260Y001382D02*
X017595Y001382D01*
X017582Y001284D02*
X016260Y001284D01*
X016309Y001185D02*
X017582Y001185D01*
X017582Y001087D02*
X016361Y001087D01*
X016402Y000988D02*
X017594Y000988D01*
X017635Y000890D02*
X016410Y000890D01*
X016410Y000791D02*
X017676Y000791D01*
X017726Y000693D02*
X016386Y000693D01*
X016345Y000594D02*
X017825Y000594D01*
X017923Y000496D02*
X016270Y000496D01*
X018713Y001973D02*
X019117Y001973D01*
X019117Y001875D02*
X018920Y001875D01*
X019018Y001776D02*
X019117Y001776D01*
X019117Y002466D02*
X018898Y002466D01*
X018935Y002564D02*
X019117Y002564D01*
X019117Y002663D02*
X018935Y002663D01*
X018935Y002761D02*
X019117Y002761D01*
X019117Y002860D02*
X018935Y002860D01*
X018935Y002958D02*
X019117Y002958D01*
X019117Y003057D02*
X018935Y003057D01*
X018935Y003155D02*
X019117Y003155D01*
X019117Y003254D02*
X018935Y003254D01*
X018935Y003352D02*
X019117Y003352D01*
X019117Y003451D02*
X018935Y003451D01*
X018935Y003549D02*
X019117Y003549D01*
X019117Y003648D02*
X018865Y003648D01*
X019117Y003746D02*
X015530Y003746D01*
X015628Y003648D02*
X017755Y003648D01*
X017685Y003549D02*
X015727Y003549D01*
X015825Y003451D02*
X017685Y003451D01*
X018060Y004436D02*
X015819Y004436D01*
X015877Y004534D02*
X017901Y004534D01*
X017956Y004479D02*
X017780Y004654D01*
X017685Y004884D01*
X017685Y005133D01*
X017780Y005363D01*
X017956Y005538D01*
X018186Y005634D01*
X018434Y005634D01*
X018664Y005538D01*
X018840Y005363D01*
X018935Y005133D01*
X018935Y004884D01*
X018840Y004654D01*
X018664Y004479D01*
X018434Y004384D01*
X018186Y004384D01*
X017956Y004479D01*
X017802Y004633D02*
X015918Y004633D01*
X015930Y004731D02*
X017748Y004731D01*
X017708Y004830D02*
X015930Y004830D01*
X015909Y004928D02*
X017685Y004928D01*
X017685Y005027D02*
X015868Y005027D01*
X015799Y005125D02*
X017685Y005125D01*
X017723Y005224D02*
X015700Y005224D01*
X014300Y005224D02*
X012380Y005224D01*
X012380Y005322D02*
X017763Y005322D01*
X017838Y005421D02*
X012380Y005421D01*
X012380Y005519D02*
X017937Y005519D01*
X018147Y005618D02*
X012380Y005618D01*
X012380Y005716D02*
X019117Y005716D01*
X019117Y005618D02*
X018473Y005618D01*
X018683Y005519D02*
X019117Y005519D01*
X019117Y005421D02*
X018782Y005421D01*
X018857Y005322D02*
X019117Y005322D01*
X019117Y005224D02*
X018897Y005224D01*
X018935Y005125D02*
X019117Y005125D01*
X019117Y005027D02*
X018935Y005027D01*
X018935Y004928D02*
X019117Y004928D01*
X019117Y004830D02*
X018912Y004830D01*
X018872Y004731D02*
X019117Y004731D01*
X019117Y004633D02*
X018818Y004633D01*
X018719Y004534D02*
X019117Y004534D01*
X019117Y004436D02*
X018560Y004436D01*
X019117Y004337D02*
X015721Y004337D01*
X015518Y004239D02*
X019117Y004239D01*
X019117Y005815D02*
X012380Y005815D01*
X012380Y005913D02*
X019117Y005913D01*
X019117Y006012D02*
X012380Y006012D01*
X012380Y006110D02*
X019117Y006110D01*
X019117Y006209D02*
X012380Y006209D01*
X012380Y006307D02*
X019117Y006307D01*
X019117Y006406D02*
X018563Y006406D01*
X018664Y006447D02*
X018840Y006623D01*
X018935Y006853D01*
X018935Y007101D01*
X018840Y007331D01*
X018664Y007507D01*
X018434Y007602D01*
X018186Y007602D01*
X017956Y007507D01*
X017780Y007331D01*
X017685Y007101D01*
X017685Y006853D01*
X017780Y006623D01*
X017956Y006447D01*
X018186Y006352D01*
X018434Y006352D01*
X018664Y006447D01*
X018721Y006504D02*
X019117Y006504D01*
X019117Y006603D02*
X018819Y006603D01*
X018872Y006701D02*
X019117Y006701D01*
X019117Y006800D02*
X018913Y006800D01*
X018935Y006898D02*
X019117Y006898D01*
X019117Y006997D02*
X018935Y006997D01*
X018935Y007095D02*
X019117Y007095D01*
X019117Y007194D02*
X018897Y007194D01*
X018856Y007292D02*
X019117Y007292D01*
X019117Y007391D02*
X018780Y007391D01*
X018682Y007489D02*
X019117Y007489D01*
X019117Y007588D02*
X018469Y007588D01*
X018151Y007588D02*
X014872Y007588D01*
X014985Y007489D02*
X017938Y007489D01*
X017840Y007391D02*
X015062Y007391D01*
X015103Y007292D02*
X017764Y007292D01*
X017723Y007194D02*
X015130Y007194D01*
X015130Y007095D02*
X017685Y007095D01*
X017685Y006997D02*
X015123Y006997D01*
X015083Y006898D02*
X017685Y006898D01*
X017707Y006800D02*
X015033Y006800D01*
X014935Y006701D02*
X017748Y006701D01*
X017801Y006603D02*
X014752Y006603D01*
X013648Y006603D02*
X012538Y006603D01*
X012637Y006701D02*
X013465Y006701D01*
X012440Y006504D02*
X017899Y006504D01*
X018056Y006406D02*
X012380Y006406D01*
X011580Y006406D02*
X008360Y006406D01*
X008262Y006504D02*
X011580Y006504D01*
X011580Y006603D02*
X009952Y006603D01*
X009897Y006580D02*
X010096Y006662D01*
X010248Y006814D01*
X010330Y007013D01*
X010330Y007227D01*
X010248Y007426D01*
X010096Y007578D01*
X009897Y007660D01*
X008903Y007660D01*
X008704Y007578D01*
X008552Y007426D01*
X008470Y007227D01*
X008470Y007013D01*
X008552Y006814D01*
X008704Y006662D01*
X008903Y006580D01*
X009897Y006580D01*
X010135Y006701D02*
X011585Y006701D01*
X011626Y006800D02*
X010233Y006800D01*
X010283Y006898D02*
X011702Y006898D01*
X011801Y006997D02*
X010323Y006997D01*
X010330Y007095D02*
X011899Y007095D01*
X011998Y007194D02*
X010330Y007194D01*
X010303Y007292D02*
X012096Y007292D01*
X012195Y007391D02*
X010262Y007391D01*
X010185Y007489D02*
X012336Y007489D01*
X013528Y007588D02*
X010072Y007588D01*
X010194Y008376D02*
X009477Y008376D01*
X009665Y008474D02*
X010006Y008474D01*
X009907Y008573D02*
X009764Y008573D01*
X009812Y008671D02*
X009859Y008671D01*
X010477Y008376D02*
X011194Y008376D01*
X011006Y008474D02*
X010665Y008474D01*
X010764Y008573D02*
X010907Y008573D01*
X010859Y008671D02*
X010812Y008671D01*
X011477Y008376D02*
X012194Y008376D01*
X012006Y008474D02*
X011665Y008474D01*
X011764Y008573D02*
X011907Y008573D01*
X011859Y008671D02*
X011812Y008671D01*
X012477Y008376D02*
X013194Y008376D01*
X013006Y008474D02*
X012665Y008474D01*
X012764Y008573D02*
X012907Y008573D01*
X012859Y008671D02*
X012812Y008671D01*
X013477Y008376D02*
X014194Y008376D01*
X014006Y008474D02*
X013665Y008474D01*
X013764Y008573D02*
X013907Y008573D01*
X013859Y008671D02*
X013812Y008671D01*
X014477Y008376D02*
X015194Y008376D01*
X015006Y008474D02*
X014665Y008474D01*
X014764Y008573D02*
X014907Y008573D01*
X014859Y008671D02*
X014812Y008671D01*
X015477Y008376D02*
X016194Y008376D01*
X016006Y008474D02*
X015665Y008474D01*
X015764Y008573D02*
X015907Y008573D01*
X015859Y008671D02*
X015812Y008671D01*
X016477Y008376D02*
X017194Y008376D01*
X017006Y008474D02*
X016665Y008474D01*
X016764Y008573D02*
X016907Y008573D01*
X016859Y008671D02*
X016812Y008671D01*
X017477Y008376D02*
X018194Y008376D01*
X018006Y008474D02*
X017665Y008474D01*
X017764Y008573D02*
X017907Y008573D01*
X017859Y008671D02*
X017812Y008671D01*
X018477Y008376D02*
X019117Y008376D01*
X019117Y008474D02*
X018665Y008474D01*
X018764Y008573D02*
X019117Y008573D01*
X019117Y008671D02*
X018812Y008671D01*
X018853Y008770D02*
X019117Y008770D01*
X019117Y008868D02*
X018855Y008868D01*
X018855Y008967D02*
X019117Y008967D01*
X019117Y009065D02*
X018822Y009065D01*
X018781Y009164D02*
X019117Y009164D01*
X019117Y009262D02*
X018732Y009262D01*
X018732Y009361D02*
X019117Y009361D01*
X019117Y009459D02*
X018732Y009459D01*
X018732Y009558D02*
X019117Y009558D01*
X019117Y009656D02*
X018743Y009656D01*
X018801Y009755D02*
X019117Y009755D01*
X019117Y009853D02*
X018842Y009853D01*
X018852Y009952D02*
X019117Y009952D01*
X019117Y010050D02*
X018852Y010050D01*
X018825Y010149D02*
X019117Y010149D01*
X019117Y010247D02*
X018784Y010247D01*
X018702Y010346D02*
X019117Y010346D01*
X019117Y010444D02*
X018570Y010444D01*
X018093Y010444D02*
X017570Y010444D01*
X017702Y010346D02*
X017962Y010346D01*
X017879Y010247D02*
X017784Y010247D01*
X017825Y010149D02*
X017839Y010149D01*
X017093Y010444D02*
X016570Y010444D01*
X016702Y010346D02*
X016962Y010346D01*
X016879Y010247D02*
X016784Y010247D01*
X016825Y010149D02*
X016839Y010149D01*
X016093Y010444D02*
X015570Y010444D01*
X015702Y010346D02*
X015962Y010346D01*
X015879Y010247D02*
X015784Y010247D01*
X015825Y010149D02*
X015839Y010149D01*
X015093Y010444D02*
X014570Y010444D01*
X014702Y010346D02*
X014962Y010346D01*
X014879Y010247D02*
X014784Y010247D01*
X014825Y010149D02*
X014839Y010149D01*
X014093Y010444D02*
X013570Y010444D01*
X013702Y010346D02*
X013962Y010346D01*
X013879Y010247D02*
X013784Y010247D01*
X013825Y010149D02*
X013839Y010149D01*
X013093Y010444D02*
X012570Y010444D01*
X012702Y010346D02*
X012962Y010346D01*
X012879Y010247D02*
X012784Y010247D01*
X012825Y010149D02*
X012839Y010149D01*
X012093Y010444D02*
X011570Y010444D01*
X011702Y010346D02*
X011962Y010346D01*
X011879Y010247D02*
X011784Y010247D01*
X011825Y010149D02*
X011839Y010149D01*
X011093Y010444D02*
X010570Y010444D01*
X010702Y010346D02*
X010962Y010346D01*
X010879Y010247D02*
X010784Y010247D01*
X010825Y010149D02*
X010839Y010149D01*
X010093Y010444D02*
X009570Y010444D01*
X009702Y010346D02*
X009962Y010346D01*
X009879Y010247D02*
X009784Y010247D01*
X009825Y010149D02*
X009839Y010149D01*
X009093Y010444D02*
X008570Y010444D01*
X008702Y010346D02*
X008962Y010346D01*
X008879Y010247D02*
X008784Y010247D01*
X008825Y010149D02*
X008839Y010149D01*
X008093Y010444D02*
X007566Y010444D01*
X007702Y010346D02*
X007962Y010346D01*
X007879Y010247D02*
X007779Y010247D01*
X007824Y010149D02*
X007839Y010149D01*
X007830Y009832D02*
X007891Y009685D01*
X007932Y009645D01*
X007932Y009211D01*
X007895Y009174D01*
X007834Y009028D01*
X007817Y009079D01*
X007780Y009152D01*
X007732Y009219D01*
X007674Y009276D01*
X007608Y009325D01*
X007535Y009362D01*
X007457Y009387D01*
X007385Y009398D01*
X007385Y008930D01*
X007285Y008930D01*
X007285Y009398D01*
X007214Y009387D01*
X007136Y009362D01*
X007063Y009325D01*
X006997Y009276D01*
X006939Y009219D01*
X006891Y009152D01*
X006854Y009079D01*
X006837Y009028D01*
X006776Y009174D01*
X006732Y009219D01*
X006732Y009645D01*
X006773Y009685D01*
X006833Y009832D01*
X006850Y009780D01*
X006887Y009707D01*
X006935Y009641D01*
X006993Y009583D01*
X007059Y009535D01*
X007132Y009498D01*
X007210Y009473D01*
X007282Y009461D01*
X007282Y009930D01*
X007382Y009930D01*
X007382Y009461D01*
X007453Y009473D01*
X007531Y009498D01*
X007604Y009535D01*
X007670Y009583D01*
X007728Y009641D01*
X007776Y009707D01*
X007814Y009780D01*
X007830Y009832D01*
X007800Y009755D02*
X007862Y009755D01*
X007920Y009656D02*
X007739Y009656D01*
X007635Y009558D02*
X007932Y009558D01*
X007932Y009459D02*
X006732Y009459D01*
X006732Y009361D02*
X007134Y009361D01*
X007285Y009361D02*
X007385Y009361D01*
X007385Y009262D02*
X007285Y009262D01*
X007285Y009164D02*
X007385Y009164D01*
X007385Y009065D02*
X007285Y009065D01*
X007285Y008967D02*
X007385Y008967D01*
X007385Y008770D02*
X007285Y008770D01*
X007285Y008671D02*
X007385Y008671D01*
X007385Y008573D02*
X007285Y008573D01*
X007285Y008474D02*
X007385Y008474D01*
X007385Y008376D02*
X007285Y008376D01*
X007205Y008376D02*
X006477Y008376D01*
X006665Y008474D02*
X007009Y008474D01*
X006916Y008573D02*
X006764Y008573D01*
X006812Y008671D02*
X006858Y008671D01*
X006194Y008376D02*
X004500Y008376D01*
X004500Y008474D02*
X006006Y008474D01*
X005907Y008573D02*
X004500Y008573D01*
X004500Y008671D02*
X005859Y008671D01*
X005818Y008770D02*
X004500Y008770D01*
X004500Y008868D02*
X005815Y008868D01*
X005815Y008967D02*
X004500Y008967D01*
X004500Y009065D02*
X005849Y009065D01*
X005890Y009164D02*
X004500Y009164D01*
X004500Y009262D02*
X005932Y009262D01*
X005932Y009361D02*
X004500Y009361D01*
X004523Y009459D02*
X005932Y009459D01*
X005932Y009558D02*
X004563Y009558D01*
X004575Y009656D02*
X005920Y009656D01*
X005862Y009755D02*
X004575Y009755D01*
X004542Y009853D02*
X005821Y009853D01*
X005812Y009952D02*
X004500Y009952D01*
X004402Y010050D02*
X005812Y010050D01*
X005839Y010149D02*
X004210Y010149D01*
X004211Y010217D02*
X004282Y010240D01*
X004349Y010274D01*
X004409Y010318D01*
X004462Y010371D01*
X004506Y010431D01*
X004540Y010498D01*
X004563Y010569D01*
X004575Y010643D01*
X004575Y010661D01*
X004119Y010661D01*
X004119Y010699D01*
X004081Y010699D01*
X004081Y011155D01*
X004063Y011155D01*
X003989Y011143D01*
X003918Y011120D01*
X003851Y011086D01*
X003791Y011042D01*
X003738Y010989D01*
X003694Y010929D01*
X003660Y010862D01*
X003637Y010791D01*
X003625Y010717D01*
X003625Y010699D01*
X004081Y010699D01*
X004081Y010661D01*
X003625Y010661D01*
X003625Y010643D01*
X003637Y010569D01*
X003660Y010498D01*
X003694Y010431D01*
X003738Y010371D01*
X003791Y010318D01*
X003851Y010274D01*
X003918Y010240D01*
X003989Y010217D01*
X004063Y010205D01*
X004081Y010205D01*
X004081Y010661D01*
X004119Y010661D01*
X004119Y010205D01*
X004137Y010205D01*
X004211Y010217D01*
X004297Y010247D02*
X005879Y010247D01*
X005962Y010346D02*
X004437Y010346D01*
X004513Y010444D02*
X006060Y010444D01*
X006060Y010543D02*
X004555Y010543D01*
X004575Y010641D02*
X006060Y010641D01*
X006060Y010740D02*
X005877Y010740D01*
X006003Y010838D02*
X006060Y010838D01*
X006600Y010838D02*
X019117Y010838D01*
X019117Y010740D02*
X006600Y010740D01*
X006600Y010641D02*
X019117Y010641D01*
X019117Y010543D02*
X006600Y010543D01*
X006600Y010444D02*
X007097Y010444D01*
X006962Y010346D02*
X006702Y010346D01*
X006784Y010247D02*
X006884Y010247D01*
X006840Y010149D02*
X006825Y010149D01*
X007282Y010149D02*
X007382Y010149D01*
X007382Y010247D02*
X007282Y010247D01*
X007282Y010346D02*
X007382Y010346D01*
X007382Y010444D02*
X007282Y010444D01*
X007282Y010050D02*
X007382Y010050D01*
X007382Y009853D02*
X007282Y009853D01*
X007282Y009755D02*
X007382Y009755D01*
X007382Y009656D02*
X007282Y009656D01*
X007282Y009558D02*
X007382Y009558D01*
X007537Y009361D02*
X007932Y009361D01*
X007932Y009262D02*
X007689Y009262D01*
X007772Y009164D02*
X007890Y009164D01*
X007849Y009065D02*
X007822Y009065D01*
X007813Y008671D02*
X007859Y008671D01*
X007907Y008573D02*
X007755Y008573D01*
X007662Y008474D02*
X008006Y008474D01*
X008194Y008376D02*
X007466Y008376D01*
X006981Y007785D02*
X019117Y007785D01*
X019117Y007883D02*
X006863Y007883D01*
X007080Y007686D02*
X019117Y007686D01*
X019117Y007982D02*
X004500Y007982D01*
X004500Y008080D02*
X019117Y008080D01*
X019117Y008179D02*
X004500Y008179D01*
X004500Y008277D02*
X019117Y008277D01*
X019117Y010937D02*
X006600Y010937D01*
X006600Y011035D02*
X019117Y011035D01*
X019117Y011134D02*
X006600Y011134D01*
X006600Y011232D02*
X019117Y011232D01*
X019117Y011331D02*
X006600Y011331D01*
X006600Y011429D02*
X019117Y011429D01*
X019117Y011528D02*
X006600Y011528D01*
X006600Y011626D02*
X019117Y011626D01*
X019117Y011725D02*
X006587Y011725D01*
X006529Y011823D02*
X019117Y011823D01*
X019117Y011922D02*
X006430Y011922D01*
X006332Y012020D02*
X019117Y012020D01*
X019117Y012119D02*
X006233Y012119D01*
X006135Y012217D02*
X019117Y012217D01*
X019117Y012316D02*
X003004Y012316D01*
X002906Y012414D02*
X019117Y012414D01*
X019117Y012513D02*
X002731Y012513D01*
X002381Y012513D02*
X001980Y012513D01*
X001980Y012611D02*
X019117Y012611D01*
X019117Y012710D02*
X001980Y012710D01*
X001980Y012808D02*
X019117Y012808D01*
X019117Y012907D02*
X001980Y012907D01*
X001980Y013005D02*
X019117Y013005D01*
X019117Y013104D02*
X001980Y013104D01*
X001980Y013202D02*
X019117Y013202D01*
X019117Y013301D02*
X001980Y013301D01*
X001980Y013399D02*
X019117Y013399D01*
X019117Y013498D02*
X003006Y013498D01*
X002992Y013493D02*
X003070Y013518D01*
X003143Y013555D01*
X003209Y013603D01*
X003267Y013661D01*
X003315Y013727D01*
X003352Y013800D01*
X003377Y013878D01*
X003389Y013950D01*
X002920Y013950D01*
X002920Y014050D01*
X003389Y014050D01*
X003377Y014122D01*
X003352Y014200D01*
X003315Y014273D01*
X003267Y014339D01*
X003209Y014397D01*
X003143Y014445D01*
X003070Y014482D01*
X003018Y014499D01*
X003165Y014559D01*
X003311Y014705D01*
X003390Y014897D01*
X003390Y015103D01*
X003311Y015295D01*
X003165Y015441D01*
X002973Y015520D01*
X002767Y015520D01*
X002575Y015441D01*
X002429Y015295D01*
X002350Y015103D01*
X002350Y014897D01*
X002429Y014705D01*
X002575Y014559D01*
X002722Y014499D01*
X002670Y014482D01*
X002597Y014445D01*
X002531Y014397D01*
X002473Y014339D01*
X002425Y014273D01*
X002388Y014200D01*
X002363Y014122D01*
X002351Y014050D01*
X002820Y014050D01*
X002820Y013950D01*
X002351Y013950D01*
X002363Y013878D01*
X002388Y013800D01*
X002425Y013727D01*
X002473Y013661D01*
X002531Y013603D01*
X002597Y013555D01*
X002670Y013518D01*
X002748Y013493D01*
X002820Y013481D01*
X002820Y013950D01*
X002920Y013950D01*
X002920Y013481D01*
X002992Y013493D01*
X002920Y013498D02*
X002820Y013498D01*
X002734Y013498D02*
X001980Y013498D01*
X001980Y013596D02*
X002541Y013596D01*
X002449Y013695D02*
X001980Y013695D01*
X001980Y013793D02*
X002392Y013793D01*
X002361Y013892D02*
X001980Y013892D01*
X001980Y013990D02*
X002820Y013990D01*
X002820Y013892D02*
X002920Y013892D01*
X002920Y013990D02*
X019117Y013990D01*
X019117Y013892D02*
X003379Y013892D01*
X003348Y013793D02*
X019117Y013793D01*
X019117Y013695D02*
X003291Y013695D01*
X003199Y013596D02*
X019117Y013596D01*
X019117Y014089D02*
X003382Y014089D01*
X003356Y014187D02*
X019117Y014187D01*
X019117Y014286D02*
X003305Y014286D01*
X003221Y014384D02*
X019117Y014384D01*
X019117Y014483D02*
X003068Y014483D01*
X003186Y014581D02*
X019117Y014581D01*
X019117Y014680D02*
X003285Y014680D01*
X003341Y014778D02*
X005317Y014778D01*
X005335Y014759D02*
X005527Y014680D01*
X005733Y014680D01*
X005925Y014759D01*
X006071Y014905D01*
X006150Y015097D01*
X006150Y015303D01*
X006071Y015495D01*
X005925Y015641D01*
X005733Y015720D01*
X005527Y015720D01*
X005335Y015641D01*
X005189Y015495D01*
X005110Y015303D01*
X005110Y015097D01*
X005189Y014905D01*
X005335Y014759D01*
X005218Y014877D02*
X003382Y014877D01*
X003390Y014975D02*
X005160Y014975D01*
X005120Y015074D02*
X003390Y015074D01*
X003362Y015172D02*
X005110Y015172D01*
X005110Y015271D02*
X003321Y015271D01*
X003236Y015369D02*
X005137Y015369D01*
X005178Y015468D02*
X003100Y015468D01*
X002640Y015468D02*
X001980Y015468D01*
X001980Y015566D02*
X005261Y015566D01*
X005393Y015665D02*
X001980Y015665D01*
X001980Y015763D02*
X005859Y015763D01*
X005891Y015685D02*
X006037Y015539D01*
X006228Y015460D01*
X006435Y015460D01*
X006626Y015539D01*
X006773Y015685D01*
X006833Y015832D01*
X006850Y015780D01*
X006887Y015707D01*
X006935Y015641D01*
X006993Y015583D01*
X007059Y015535D01*
X007132Y015498D01*
X007210Y015473D01*
X007282Y015461D01*
X007282Y015930D01*
X007382Y015930D01*
X007382Y015461D01*
X007453Y015473D01*
X007531Y015498D01*
X007604Y015535D01*
X007670Y015583D01*
X007728Y015641D01*
X007776Y015707D01*
X007814Y015780D01*
X007830Y015832D01*
X007891Y015685D01*
X008037Y015539D01*
X008228Y015460D01*
X008435Y015460D01*
X008626Y015539D01*
X008773Y015685D01*
X008832Y015828D01*
X008891Y015685D01*
X009037Y015539D01*
X009228Y015460D01*
X009435Y015460D01*
X009626Y015539D01*
X009773Y015685D01*
X009832Y015828D01*
X009891Y015685D01*
X010037Y015539D01*
X010228Y015460D01*
X010435Y015460D01*
X010626Y015539D01*
X010773Y015685D01*
X010832Y015828D01*
X010891Y015685D01*
X011037Y015539D01*
X011228Y015460D01*
X011435Y015460D01*
X011626Y015539D01*
X011773Y015685D01*
X011832Y015828D01*
X011891Y015685D01*
X012037Y015539D01*
X012228Y015460D01*
X012435Y015460D01*
X012626Y015539D01*
X012773Y015685D01*
X012832Y015828D01*
X012891Y015685D01*
X013037Y015539D01*
X013228Y015460D01*
X013435Y015460D01*
X013626Y015539D01*
X013773Y015685D01*
X013832Y015828D01*
X013891Y015685D01*
X014037Y015539D01*
X014228Y015460D01*
X014435Y015460D01*
X014626Y015539D01*
X014773Y015685D01*
X014832Y015828D01*
X014891Y015685D01*
X015037Y015539D01*
X015228Y015460D01*
X015435Y015460D01*
X015626Y015539D01*
X015773Y015685D01*
X015832Y015828D01*
X015891Y015685D01*
X016037Y015539D01*
X016228Y015460D01*
X016435Y015460D01*
X016626Y015539D01*
X016773Y015685D01*
X016832Y015828D01*
X016891Y015685D01*
X017037Y015539D01*
X017228Y015460D01*
X017435Y015460D01*
X017626Y015539D01*
X017773Y015685D01*
X017832Y015828D01*
X017891Y015685D01*
X018037Y015539D01*
X018228Y015460D01*
X018435Y015460D01*
X018626Y015539D01*
X018773Y015685D01*
X018852Y015877D01*
X018852Y016083D01*
X018773Y016275D01*
X018732Y016315D01*
X018732Y016742D01*
X018776Y016786D01*
X018855Y016977D01*
X018855Y017184D01*
X018776Y017375D01*
X018630Y017521D01*
X018439Y017601D01*
X018232Y017601D01*
X018041Y017521D01*
X017895Y017375D01*
X017835Y017232D01*
X017776Y017375D01*
X017630Y017521D01*
X017439Y017601D01*
X017232Y017601D01*
X017041Y017521D01*
X016895Y017375D01*
X016835Y017232D01*
X016776Y017375D01*
X016630Y017521D01*
X016439Y017601D01*
X016232Y017601D01*
X016041Y017521D01*
X015895Y017375D01*
X015835Y017232D01*
X015776Y017375D01*
X015630Y017521D01*
X015439Y017601D01*
X015232Y017601D01*
X015041Y017521D01*
X014895Y017375D01*
X014835Y017232D01*
X014776Y017375D01*
X014630Y017521D01*
X014439Y017601D01*
X014232Y017601D01*
X014041Y017521D01*
X013895Y017375D01*
X013835Y017232D01*
X013776Y017375D01*
X013630Y017521D01*
X013439Y017601D01*
X013232Y017601D01*
X013041Y017521D01*
X012895Y017375D01*
X012835Y017232D01*
X012776Y017375D01*
X012630Y017521D01*
X012439Y017601D01*
X012232Y017601D01*
X012041Y017521D01*
X011895Y017375D01*
X011835Y017232D01*
X011776Y017375D01*
X011630Y017521D01*
X011439Y017601D01*
X011232Y017601D01*
X011041Y017521D01*
X010895Y017375D01*
X010835Y017232D01*
X010776Y017375D01*
X010630Y017521D01*
X010439Y017601D01*
X010232Y017601D01*
X010041Y017521D01*
X009895Y017375D01*
X009835Y017232D01*
X009776Y017375D01*
X009630Y017521D01*
X009439Y017601D01*
X009232Y017601D01*
X009041Y017521D01*
X008895Y017375D01*
X008835Y017232D01*
X008776Y017375D01*
X008630Y017521D01*
X008439Y017601D01*
X008232Y017601D01*
X008041Y017521D01*
X007895Y017375D01*
X007834Y017229D01*
X007817Y017280D01*
X007780Y017353D01*
X007732Y017419D01*
X007674Y017477D01*
X007608Y017525D01*
X007535Y017563D01*
X007457Y017588D01*
X007385Y017599D01*
X007385Y017131D01*
X007285Y017131D01*
X007285Y017599D01*
X007214Y017588D01*
X007136Y017563D01*
X007063Y017525D01*
X006997Y017477D01*
X006939Y017419D01*
X006891Y017353D01*
X006854Y017280D01*
X006837Y017229D01*
X006776Y017375D01*
X006630Y017521D01*
X006439Y017601D01*
X006232Y017601D01*
X006041Y017521D01*
X005895Y017375D01*
X005815Y017184D01*
X005815Y016977D01*
X005895Y016786D01*
X005932Y016749D01*
X005932Y016315D01*
X005891Y016275D01*
X005812Y016083D01*
X005812Y015877D01*
X005891Y015685D01*
X005912Y015665D02*
X005867Y015665D01*
X005999Y015566D02*
X006010Y015566D01*
X006082Y015468D02*
X006210Y015468D01*
X006123Y015369D02*
X019117Y015369D01*
X019117Y015271D02*
X006150Y015271D01*
X006150Y015172D02*
X019117Y015172D01*
X019117Y015074D02*
X006140Y015074D01*
X006100Y014975D02*
X019117Y014975D01*
X019117Y014877D02*
X006042Y014877D01*
X005943Y014778D02*
X019117Y014778D01*
X019117Y015468D02*
X018453Y015468D01*
X018653Y015566D02*
X019117Y015566D01*
X019117Y015665D02*
X018752Y015665D01*
X018805Y015763D02*
X019117Y015763D01*
X019117Y015862D02*
X018846Y015862D01*
X018852Y015960D02*
X019117Y015960D01*
X019117Y016059D02*
X018852Y016059D01*
X018821Y016157D02*
X019117Y016157D01*
X019117Y016256D02*
X018780Y016256D01*
X018732Y016354D02*
X019117Y016354D01*
X019117Y016453D02*
X018732Y016453D01*
X018732Y016551D02*
X019117Y016551D01*
X019117Y016650D02*
X018732Y016650D01*
X018738Y016748D02*
X019117Y016748D01*
X019117Y016847D02*
X018801Y016847D01*
X018842Y016945D02*
X019116Y016945D01*
X019107Y017044D02*
X018855Y017044D01*
X018855Y017142D02*
X019075Y017142D01*
X019043Y017241D02*
X018832Y017241D01*
X018791Y017339D02*
X018974Y017339D01*
X018893Y017438D02*
X018714Y017438D01*
X018758Y017536D02*
X018595Y017536D01*
X018076Y017536D02*
X017595Y017536D01*
X017714Y017438D02*
X017957Y017438D01*
X017880Y017339D02*
X017791Y017339D01*
X017832Y017241D02*
X017839Y017241D01*
X017076Y017536D02*
X016595Y017536D01*
X016714Y017438D02*
X016957Y017438D01*
X016880Y017339D02*
X016791Y017339D01*
X016832Y017241D02*
X016839Y017241D01*
X016076Y017536D02*
X015595Y017536D01*
X015714Y017438D02*
X015957Y017438D01*
X015880Y017339D02*
X015791Y017339D01*
X015832Y017241D02*
X015839Y017241D01*
X015076Y017536D02*
X014595Y017536D01*
X014714Y017438D02*
X014957Y017438D01*
X014880Y017339D02*
X014791Y017339D01*
X014832Y017241D02*
X014839Y017241D01*
X014076Y017536D02*
X013595Y017536D01*
X013714Y017438D02*
X013957Y017438D01*
X013880Y017339D02*
X013791Y017339D01*
X013832Y017241D02*
X013839Y017241D01*
X013076Y017536D02*
X012595Y017536D01*
X012714Y017438D02*
X012957Y017438D01*
X012880Y017339D02*
X012791Y017339D01*
X012832Y017241D02*
X012839Y017241D01*
X012076Y017536D02*
X011595Y017536D01*
X011714Y017438D02*
X011957Y017438D01*
X011880Y017339D02*
X011791Y017339D01*
X011832Y017241D02*
X011839Y017241D01*
X011076Y017536D02*
X010595Y017536D01*
X010714Y017438D02*
X010957Y017438D01*
X010880Y017339D02*
X010791Y017339D01*
X010832Y017241D02*
X010839Y017241D01*
X010076Y017536D02*
X009595Y017536D01*
X009714Y017438D02*
X009957Y017438D01*
X009880Y017339D02*
X009791Y017339D01*
X009832Y017241D02*
X009839Y017241D01*
X009076Y017536D02*
X008595Y017536D01*
X008714Y017438D02*
X008957Y017438D01*
X008880Y017339D02*
X008791Y017339D01*
X008832Y017241D02*
X008839Y017241D01*
X008076Y017536D02*
X007587Y017536D01*
X007714Y017438D02*
X007957Y017438D01*
X007880Y017339D02*
X007787Y017339D01*
X007830Y017241D02*
X007839Y017241D01*
X007834Y016932D02*
X007895Y016786D01*
X007932Y016749D01*
X007932Y016315D01*
X007891Y016275D01*
X007830Y016128D01*
X007814Y016180D01*
X007776Y016253D01*
X007728Y016319D01*
X007670Y016377D01*
X007604Y016425D01*
X007531Y016462D01*
X007453Y016487D01*
X007382Y016499D01*
X007382Y016030D01*
X007282Y016030D01*
X007282Y016499D01*
X007210Y016487D01*
X007132Y016462D01*
X007059Y016425D01*
X006993Y016377D01*
X006935Y016319D01*
X006887Y016253D01*
X006850Y016180D01*
X006833Y016128D01*
X006773Y016275D01*
X006732Y016315D01*
X006732Y016742D01*
X006776Y016786D01*
X006837Y016932D01*
X006854Y016881D01*
X006891Y016808D01*
X006939Y016742D01*
X006997Y016684D01*
X007063Y016636D01*
X007136Y016599D01*
X007214Y016573D01*
X007285Y016562D01*
X007285Y017031D01*
X007385Y017031D01*
X007385Y016562D01*
X007457Y016573D01*
X007535Y016599D01*
X007608Y016636D01*
X007674Y016684D01*
X007732Y016742D01*
X007780Y016808D01*
X007817Y016881D01*
X007834Y016932D01*
X007800Y016847D02*
X007870Y016847D01*
X007932Y016748D02*
X007737Y016748D01*
X007627Y016650D02*
X007932Y016650D01*
X007932Y016551D02*
X006732Y016551D01*
X006732Y016453D02*
X007114Y016453D01*
X007282Y016453D02*
X007382Y016453D01*
X007382Y016354D02*
X007282Y016354D01*
X007282Y016256D02*
X007382Y016256D01*
X007382Y016157D02*
X007282Y016157D01*
X007282Y016059D02*
X007382Y016059D01*
X007382Y015862D02*
X007282Y015862D01*
X007282Y015763D02*
X007382Y015763D01*
X007382Y015665D02*
X007282Y015665D01*
X007282Y015566D02*
X007382Y015566D01*
X007382Y015468D02*
X007282Y015468D01*
X007243Y015468D02*
X006453Y015468D01*
X006653Y015566D02*
X007017Y015566D01*
X006918Y015665D02*
X006752Y015665D01*
X006805Y015763D02*
X006859Y015763D01*
X006842Y016157D02*
X006821Y016157D01*
X006780Y016256D02*
X006889Y016256D01*
X006970Y016354D02*
X006732Y016354D01*
X006732Y016650D02*
X007044Y016650D01*
X006934Y016748D02*
X006738Y016748D01*
X006801Y016847D02*
X006871Y016847D01*
X007285Y016847D02*
X007385Y016847D01*
X007385Y016945D02*
X007285Y016945D01*
X007285Y016748D02*
X007385Y016748D01*
X007385Y016650D02*
X007285Y016650D01*
X007550Y016453D02*
X007932Y016453D01*
X007932Y016354D02*
X007693Y016354D01*
X007774Y016256D02*
X007883Y016256D01*
X007842Y016157D02*
X007821Y016157D01*
X007805Y015763D02*
X007859Y015763D01*
X007912Y015665D02*
X007745Y015665D01*
X007647Y015566D02*
X008010Y015566D01*
X008210Y015468D02*
X007420Y015468D01*
X008453Y015468D02*
X009210Y015468D01*
X009010Y015566D02*
X008653Y015566D01*
X008752Y015665D02*
X008912Y015665D01*
X008859Y015763D02*
X008805Y015763D01*
X009453Y015468D02*
X010210Y015468D01*
X010010Y015566D02*
X009653Y015566D01*
X009752Y015665D02*
X009912Y015665D01*
X009859Y015763D02*
X009805Y015763D01*
X010453Y015468D02*
X011210Y015468D01*
X011010Y015566D02*
X010653Y015566D01*
X010752Y015665D02*
X010912Y015665D01*
X010859Y015763D02*
X010805Y015763D01*
X011453Y015468D02*
X012210Y015468D01*
X012010Y015566D02*
X011653Y015566D01*
X011752Y015665D02*
X011912Y015665D01*
X011859Y015763D02*
X011805Y015763D01*
X012453Y015468D02*
X013210Y015468D01*
X013010Y015566D02*
X012653Y015566D01*
X012752Y015665D02*
X012912Y015665D01*
X012859Y015763D02*
X012805Y015763D01*
X013453Y015468D02*
X014210Y015468D01*
X014010Y015566D02*
X013653Y015566D01*
X013752Y015665D02*
X013912Y015665D01*
X013859Y015763D02*
X013805Y015763D01*
X014453Y015468D02*
X015210Y015468D01*
X015010Y015566D02*
X014653Y015566D01*
X014752Y015665D02*
X014912Y015665D01*
X014859Y015763D02*
X014805Y015763D01*
X015453Y015468D02*
X016210Y015468D01*
X016010Y015566D02*
X015653Y015566D01*
X015752Y015665D02*
X015912Y015665D01*
X015859Y015763D02*
X015805Y015763D01*
X016453Y015468D02*
X017210Y015468D01*
X017010Y015566D02*
X016653Y015566D01*
X016752Y015665D02*
X016912Y015665D01*
X016859Y015763D02*
X016805Y015763D01*
X017453Y015468D02*
X018210Y015468D01*
X018010Y015566D02*
X017653Y015566D01*
X017752Y015665D02*
X017912Y015665D01*
X017859Y015763D02*
X017805Y015763D01*
X007385Y017142D02*
X007285Y017142D01*
X007285Y017241D02*
X007385Y017241D01*
X007385Y017339D02*
X007285Y017339D01*
X007285Y017438D02*
X007385Y017438D01*
X007385Y017536D02*
X007285Y017536D01*
X007084Y017536D02*
X006595Y017536D01*
X006714Y017438D02*
X006957Y017438D01*
X006883Y017339D02*
X006791Y017339D01*
X006832Y017241D02*
X006841Y017241D01*
X006076Y017536D02*
X003258Y017536D01*
X003357Y017438D02*
X005957Y017438D01*
X005880Y017339D02*
X003415Y017339D01*
X003456Y017241D02*
X005839Y017241D01*
X005815Y017142D02*
X003496Y017142D01*
X003514Y017044D02*
X005815Y017044D01*
X005829Y016945D02*
X003514Y016945D01*
X003514Y016847D02*
X005870Y016847D01*
X005932Y016748D02*
X003507Y016748D01*
X003466Y016650D02*
X005932Y016650D01*
X005932Y016551D02*
X003425Y016551D01*
X003382Y016453D02*
X005932Y016453D01*
X005932Y016354D02*
X003284Y016354D01*
X003185Y016256D02*
X005883Y016256D01*
X005842Y016157D02*
X002997Y016157D01*
X002351Y016157D02*
X001980Y016157D01*
X001980Y016059D02*
X005812Y016059D01*
X005812Y015960D02*
X001980Y015960D01*
X001980Y015862D02*
X005818Y015862D01*
X002504Y015369D02*
X001980Y015369D01*
X001980Y015271D02*
X002419Y015271D01*
X002378Y015172D02*
X001980Y015172D01*
X001980Y015074D02*
X002350Y015074D01*
X002350Y014975D02*
X001980Y014975D01*
X001980Y014877D02*
X002358Y014877D01*
X002399Y014778D02*
X001980Y014778D01*
X001980Y014680D02*
X002455Y014680D01*
X002554Y014581D02*
X001980Y014581D01*
X001980Y014483D02*
X002672Y014483D01*
X002519Y014384D02*
X001980Y014384D01*
X001980Y014286D02*
X002435Y014286D01*
X002384Y014187D02*
X001980Y014187D01*
X001980Y014089D02*
X002358Y014089D01*
X002820Y013793D02*
X002920Y013793D01*
X002920Y013695D02*
X002820Y013695D01*
X002820Y013596D02*
X002920Y013596D01*
X002206Y012414D02*
X001980Y012414D01*
X001980Y012316D02*
X002107Y012316D01*
X002061Y012217D02*
X001980Y012217D01*
X001980Y012119D02*
X002020Y012119D01*
X002016Y012020D02*
X001980Y012020D01*
X001980Y011922D02*
X002016Y011922D01*
X002045Y011823D02*
X001980Y011823D01*
X001980Y011725D02*
X002085Y011725D01*
X002166Y011626D02*
X001980Y011626D01*
X001980Y011528D02*
X002286Y011528D01*
X001980Y011429D02*
X003107Y011429D01*
X003051Y011331D02*
X001980Y011331D01*
X001980Y011232D02*
X003040Y011232D01*
X003040Y011134D02*
X001980Y011134D01*
X001980Y011035D02*
X003040Y011035D01*
X003040Y010937D02*
X001980Y010937D01*
X001980Y010838D02*
X003040Y010838D01*
X003040Y010740D02*
X001980Y010740D01*
X001980Y010641D02*
X003040Y010641D01*
X003040Y010543D02*
X001980Y010543D01*
X001980Y010444D02*
X003040Y010444D01*
X003040Y010346D02*
X001980Y010346D01*
X001980Y010247D02*
X003040Y010247D01*
X003040Y010149D02*
X001980Y010149D01*
X001980Y010050D02*
X003040Y010050D01*
X003040Y009952D02*
X001980Y009952D01*
X001980Y009853D02*
X003040Y009853D01*
X003040Y009755D02*
X001980Y009755D01*
X001980Y009656D02*
X003040Y009656D01*
X003040Y009558D02*
X001980Y009558D01*
X001980Y009459D02*
X003040Y009459D01*
X003040Y009361D02*
X001980Y009361D01*
X001980Y009262D02*
X003040Y009262D01*
X003040Y009164D02*
X001980Y009164D01*
X001980Y009065D02*
X003040Y009065D01*
X003040Y008967D02*
X001980Y008967D01*
X001980Y008868D02*
X003040Y008868D01*
X003040Y008770D02*
X001980Y008770D01*
X001980Y008671D02*
X003040Y008671D01*
X003040Y008573D02*
X001980Y008573D01*
X001980Y008474D02*
X002288Y008474D01*
X002167Y008376D02*
X001980Y008376D01*
X001980Y008277D02*
X002086Y008277D01*
X002045Y008179D02*
X001980Y008179D01*
X001980Y008080D02*
X002016Y008080D01*
X002016Y007982D02*
X001980Y007982D01*
X001980Y007883D02*
X002020Y007883D01*
X001980Y007785D02*
X002061Y007785D01*
X002106Y007686D02*
X001980Y007686D01*
X001980Y007588D02*
X002205Y007588D01*
X002379Y007489D02*
X001980Y007489D01*
X001980Y007391D02*
X002880Y007391D01*
X002880Y007489D02*
X002732Y007489D01*
X002807Y007292D02*
X001980Y007292D01*
X001980Y007194D02*
X002709Y007194D01*
X002668Y007095D02*
X001980Y007095D01*
X001980Y006997D02*
X002630Y006997D01*
X002630Y006898D02*
X001980Y006898D01*
X001980Y006800D02*
X002630Y006800D01*
X002670Y006701D02*
X001980Y006701D01*
X001980Y006603D02*
X002393Y006603D01*
X002269Y006504D02*
X001980Y006504D01*
X001980Y006406D02*
X002197Y006406D01*
X002154Y006307D02*
X001980Y006307D01*
X001980Y006209D02*
X002133Y006209D01*
X002130Y006110D02*
X001980Y006110D01*
X001980Y006012D02*
X002148Y006012D01*
X002187Y005913D02*
X001980Y005913D01*
X001980Y005815D02*
X002251Y005815D01*
X002363Y005716D02*
X001980Y005716D01*
X001980Y005618D02*
X003377Y005618D01*
X003297Y005716D02*
X002937Y005716D01*
X003049Y005815D02*
X003250Y005815D01*
X003185Y005913D02*
X003113Y005913D01*
X002680Y005913D02*
X002620Y005913D01*
X002620Y005815D02*
X002680Y005815D01*
X002680Y005716D02*
X002620Y005716D01*
X001980Y005519D02*
X003475Y005519D01*
X003574Y005421D02*
X001980Y005421D01*
X001980Y005322D02*
X003672Y005322D01*
X003771Y005224D02*
X001980Y005224D01*
X001980Y005125D02*
X003869Y005125D01*
X004213Y005913D02*
X007721Y005913D01*
X007623Y006012D02*
X004155Y006012D01*
X004170Y006110D02*
X007524Y006110D01*
X007426Y006209D02*
X006392Y006209D01*
X006260Y006209D02*
X006223Y006209D01*
X006223Y006307D02*
X006260Y006307D01*
X006260Y006406D02*
X006223Y006406D01*
X006223Y006504D02*
X006260Y006504D01*
X006260Y006603D02*
X006223Y006603D01*
X006091Y006209D02*
X005653Y006209D01*
X005716Y006307D02*
X005922Y006307D01*
X005838Y006406D02*
X005716Y006406D01*
X005716Y006504D02*
X005792Y006504D01*
X005769Y006603D02*
X005716Y006603D01*
X005716Y006701D02*
X005767Y006701D01*
X005788Y006800D02*
X005716Y006800D01*
X005716Y006898D02*
X005830Y006898D01*
X005907Y006997D02*
X005716Y006997D01*
X005668Y007095D02*
X006051Y007095D01*
X006432Y007095D02*
X006539Y007095D01*
X006576Y006997D02*
X006638Y006997D01*
X006653Y006898D02*
X006736Y006898D01*
X006695Y006800D02*
X006835Y006800D01*
X006933Y006701D02*
X006716Y006701D01*
X006713Y006603D02*
X007032Y006603D01*
X007130Y006504D02*
X006691Y006504D01*
X006644Y006406D02*
X007229Y006406D01*
X007327Y006307D02*
X006561Y006307D01*
X006829Y005815D02*
X007820Y005815D01*
X007918Y005716D02*
X006950Y005716D01*
X007048Y005618D02*
X008017Y005618D01*
X008115Y005519D02*
X007147Y005519D01*
X007245Y005421D02*
X008214Y005421D01*
X008312Y005322D02*
X007344Y005322D01*
X007442Y005224D02*
X008450Y005224D01*
X007000Y004534D02*
X001980Y004534D01*
X001980Y004436D02*
X007099Y004436D01*
X007197Y004337D02*
X006098Y004337D01*
X006336Y004239D02*
X007296Y004239D01*
X007394Y004140D02*
X006507Y004140D01*
X006606Y004042D02*
X007493Y004042D01*
X007591Y003943D02*
X006704Y003943D01*
X006767Y003845D02*
X007690Y003845D01*
X007788Y003746D02*
X006808Y003746D01*
X006848Y003648D02*
X007887Y003648D01*
X007985Y003549D02*
X006889Y003549D01*
X006894Y003451D02*
X008098Y003451D01*
X008686Y002860D02*
X006777Y002860D01*
X006818Y002958D02*
X008898Y002958D01*
X008587Y002761D02*
X006730Y002761D01*
X006631Y002663D02*
X008526Y002663D01*
X008485Y002564D02*
X006533Y002564D01*
X006398Y002466D02*
X008470Y002466D01*
X008470Y002367D02*
X006160Y002367D01*
X006859Y003057D02*
X010688Y003057D01*
X010589Y003155D02*
X006894Y003155D01*
X006894Y003254D02*
X010491Y003254D01*
X010392Y003352D02*
X006894Y003352D01*
X005452Y004239D02*
X003969Y004239D01*
X004131Y004140D02*
X005280Y004140D01*
X005182Y004042D02*
X004243Y004042D01*
X004329Y003943D02*
X005083Y003943D01*
X005021Y003845D02*
X004395Y003845D01*
X004446Y003746D02*
X004980Y003746D01*
X004939Y003648D02*
X004483Y003648D01*
X004509Y003549D02*
X004898Y003549D01*
X004894Y003451D02*
X004525Y003451D01*
X003581Y003451D02*
X003481Y003451D01*
X003481Y003389D02*
X003481Y004339D01*
X003475Y004339D01*
X003364Y004327D01*
X003254Y004302D01*
X003148Y004265D01*
X003047Y004216D01*
X002952Y004156D01*
X002864Y004086D01*
X002785Y004007D01*
X002715Y003919D01*
X002655Y003824D01*
X002606Y003722D01*
X002569Y003616D01*
X002544Y003507D01*
X002531Y003395D01*
X002531Y003389D01*
X003481Y003389D01*
X003481Y003352D02*
X001980Y003352D01*
X001980Y003254D02*
X002535Y003254D01*
X002548Y003155D02*
X001980Y003155D01*
X001980Y003057D02*
X002571Y003057D01*
X002605Y002958D02*
X001980Y002958D01*
X001980Y002860D02*
X002653Y002860D01*
X002714Y002761D02*
X001980Y002761D01*
X001980Y002663D02*
X002794Y002663D01*
X002900Y002564D02*
X001980Y002564D01*
X001980Y002466D02*
X003042Y002466D01*
X003297Y002367D02*
X001980Y002367D01*
X001980Y003451D02*
X002538Y003451D01*
X002554Y003549D02*
X001980Y003549D01*
X001980Y003648D02*
X002580Y003648D01*
X002617Y003746D02*
X001980Y003746D01*
X001980Y003845D02*
X002668Y003845D01*
X002734Y003943D02*
X001980Y003943D01*
X001980Y004042D02*
X002820Y004042D01*
X002932Y004140D02*
X001980Y004140D01*
X001980Y004239D02*
X003094Y004239D01*
X003456Y004337D02*
X001980Y004337D01*
X001980Y004633D02*
X006902Y004633D01*
X006803Y004731D02*
X001980Y004731D01*
X001980Y004830D02*
X006705Y004830D01*
X006606Y004928D02*
X001980Y004928D01*
X001980Y005027D02*
X006508Y005027D01*
X005689Y004337D02*
X003607Y004337D01*
X003581Y004337D02*
X003481Y004337D01*
X003481Y004239D02*
X003581Y004239D01*
X003581Y004140D02*
X003481Y004140D01*
X003481Y004042D02*
X003581Y004042D01*
X003581Y003943D02*
X003481Y003943D01*
X003481Y003845D02*
X003581Y003845D01*
X003581Y003746D02*
X003481Y003746D01*
X003481Y003648D02*
X003581Y003648D01*
X003581Y003549D02*
X003481Y003549D01*
X004021Y002466D02*
X004457Y002466D01*
X003838Y000988D02*
X002017Y000988D01*
X002049Y000890D02*
X003898Y000890D01*
X003996Y000791D02*
X002112Y000791D01*
X002184Y000693D02*
X004095Y000693D01*
X004260Y000594D02*
X002320Y000594D01*
X002604Y000496D02*
X004498Y000496D01*
X009902Y002958D02*
X010786Y002958D01*
X011580Y006012D02*
X008754Y006012D01*
X008656Y006110D02*
X011580Y006110D01*
X011580Y006209D02*
X008557Y006209D01*
X008459Y006307D02*
X011580Y006307D01*
X008848Y006603D02*
X008163Y006603D01*
X008065Y006701D02*
X008665Y006701D01*
X008567Y006800D02*
X007966Y006800D01*
X007868Y006898D02*
X008517Y006898D01*
X008477Y006997D02*
X007769Y006997D01*
X007671Y007095D02*
X008470Y007095D01*
X008470Y007194D02*
X007572Y007194D01*
X007474Y007292D02*
X008497Y007292D01*
X008538Y007391D02*
X007375Y007391D01*
X007277Y007489D02*
X008615Y007489D01*
X008728Y007588D02*
X007178Y007588D01*
X008477Y008376D02*
X009194Y008376D01*
X009006Y008474D02*
X008665Y008474D01*
X008764Y008573D02*
X008907Y008573D01*
X008859Y008671D02*
X008812Y008671D01*
X006982Y009262D02*
X006732Y009262D01*
X006781Y009164D02*
X006899Y009164D01*
X006849Y009065D02*
X006822Y009065D01*
X006732Y009558D02*
X007029Y009558D01*
X006924Y009656D02*
X006743Y009656D01*
X006801Y009755D02*
X006863Y009755D01*
X005383Y010740D02*
X004571Y010740D01*
X004575Y010717D02*
X004563Y010791D01*
X004540Y010862D01*
X004506Y010929D01*
X004462Y010989D01*
X004409Y011042D01*
X004349Y011086D01*
X004282Y011120D01*
X004211Y011143D01*
X004137Y011155D01*
X004119Y011155D01*
X004119Y010699D01*
X004575Y010699D01*
X004575Y010717D01*
X004548Y010838D02*
X005257Y010838D01*
X005176Y010937D02*
X004501Y010937D01*
X004417Y011035D02*
X005135Y011035D01*
X005110Y011134D02*
X004241Y011134D01*
X004119Y011134D02*
X004081Y011134D01*
X004081Y011035D02*
X004119Y011035D01*
X004119Y010937D02*
X004081Y010937D01*
X004081Y010838D02*
X004119Y010838D01*
X004119Y010740D02*
X004081Y010740D01*
X004081Y010641D02*
X004119Y010641D01*
X004119Y010543D02*
X004081Y010543D01*
X004081Y010444D02*
X004119Y010444D01*
X004119Y010346D02*
X004081Y010346D01*
X004081Y010247D02*
X004119Y010247D01*
X003990Y010149D02*
X003580Y010149D01*
X003580Y010247D02*
X003903Y010247D01*
X003763Y010346D02*
X003580Y010346D01*
X003580Y010444D02*
X003687Y010444D01*
X003645Y010543D02*
X003580Y010543D01*
X003580Y010641D02*
X003625Y010641D01*
X003629Y010740D02*
X003580Y010740D01*
X003580Y010838D02*
X003652Y010838D01*
X003699Y010937D02*
X003580Y010937D01*
X003580Y011035D02*
X003783Y011035D01*
X003959Y011134D02*
X003580Y011134D01*
X003674Y011232D02*
X005110Y011232D01*
X003798Y010050D02*
X003580Y010050D01*
X003580Y009952D02*
X003700Y009952D01*
X003658Y009853D02*
X003580Y009853D01*
X003580Y009755D02*
X003625Y009755D01*
X003625Y009656D02*
X003580Y009656D01*
X003580Y009558D02*
X003637Y009558D01*
X003677Y009459D02*
X003580Y009459D01*
X003580Y009361D02*
X003700Y009361D01*
X003700Y009262D02*
X003580Y009262D01*
X003580Y009164D02*
X003700Y009164D01*
X003700Y009065D02*
X003580Y009065D01*
X003580Y008967D02*
X003700Y008967D01*
X003700Y008868D02*
X003580Y008868D01*
X003580Y008770D02*
X003700Y008770D01*
X003700Y008671D02*
X003580Y008671D01*
X003580Y008573D02*
X003700Y008573D01*
X003700Y008474D02*
X003580Y008474D01*
X003580Y008376D02*
X003700Y008376D01*
X003700Y008277D02*
X003580Y008277D01*
X003580Y008179D02*
X003700Y008179D01*
X003700Y008080D02*
X003580Y008080D01*
X003580Y007982D02*
X003700Y007982D01*
X003700Y007883D02*
X003580Y007883D01*
X003546Y007785D02*
X003700Y007785D01*
X003714Y007686D02*
X003458Y007686D01*
X003420Y007588D02*
X003755Y007588D01*
X003846Y007489D02*
X003420Y007489D01*
X003420Y007391D02*
X003944Y007391D01*
X004043Y007292D02*
X003493Y007292D01*
X003591Y007194D02*
X004141Y007194D01*
X004240Y007095D02*
X003632Y007095D01*
X003670Y006997D02*
X004338Y006997D01*
X004437Y006898D02*
X003670Y006898D01*
X003670Y006800D02*
X004535Y006800D01*
X004634Y006701D02*
X003630Y006701D01*
X003916Y006603D02*
X004732Y006603D01*
X004766Y006504D02*
X004031Y006504D01*
X004107Y006406D02*
X004766Y006406D01*
X004766Y006307D02*
X004148Y006307D01*
X004170Y006209D02*
X004830Y006209D01*
X004879Y007588D02*
X005022Y007588D01*
X005120Y007686D02*
X004780Y007686D01*
X004682Y007785D02*
X005219Y007785D01*
X005337Y007883D02*
X004583Y007883D01*
X003040Y008277D02*
X003026Y008277D01*
X003040Y008376D02*
X002944Y008376D01*
X003040Y008474D02*
X002824Y008474D01*
X002680Y006603D02*
X002620Y006603D01*
X002620Y006504D02*
X002680Y006504D01*
X002680Y006406D02*
X002620Y006406D01*
X002620Y006307D02*
X002680Y006307D01*
X002680Y006209D02*
X002620Y006209D01*
X002620Y006110D02*
X002680Y006110D01*
X002680Y006012D02*
X002620Y006012D01*
X002825Y011528D02*
X003206Y011528D01*
X003304Y011626D02*
X002945Y011626D01*
X003026Y011725D02*
X003403Y011725D01*
X002163Y016256D02*
X001980Y016256D01*
X001980Y016354D02*
X002065Y016354D01*
M02*
