G75*
%MOIN*%
%OFA0B0*%
%FSLAX24Y24*%
%IPPOS*%
%LPD*%
%AMOC8*
5,1,8,0,0,1.08239X$1,22.5*
%
%ADD10C,0.0000*%
%ADD11C,0.0160*%
%ADD12C,0.0080*%
%ADD13C,0.0100*%
%ADD14C,0.0060*%
%ADD15C,0.0050*%
%ADD16C,0.0230*%
D10*
X017792Y001184D02*
X017794Y001234D01*
X017800Y001284D01*
X017810Y001333D01*
X017824Y001381D01*
X017841Y001428D01*
X017862Y001473D01*
X017887Y001517D01*
X017915Y001558D01*
X017947Y001597D01*
X017981Y001634D01*
X018018Y001668D01*
X018058Y001698D01*
X018100Y001725D01*
X018144Y001749D01*
X018190Y001770D01*
X018237Y001786D01*
X018285Y001799D01*
X018335Y001808D01*
X018384Y001813D01*
X018435Y001814D01*
X018485Y001811D01*
X018534Y001804D01*
X018583Y001793D01*
X018631Y001778D01*
X018677Y001760D01*
X018722Y001738D01*
X018765Y001712D01*
X018806Y001683D01*
X018845Y001651D01*
X018881Y001616D01*
X018913Y001578D01*
X018943Y001538D01*
X018970Y001495D01*
X018993Y001451D01*
X019012Y001405D01*
X019028Y001357D01*
X019040Y001308D01*
X019048Y001259D01*
X019052Y001209D01*
X019052Y001159D01*
X019048Y001109D01*
X019040Y001060D01*
X019028Y001011D01*
X019012Y000963D01*
X018993Y000917D01*
X018970Y000873D01*
X018943Y000830D01*
X018913Y000790D01*
X018881Y000752D01*
X018845Y000717D01*
X018806Y000685D01*
X018765Y000656D01*
X018722Y000630D01*
X018677Y000608D01*
X018631Y000590D01*
X018583Y000575D01*
X018534Y000564D01*
X018485Y000557D01*
X018435Y000554D01*
X018384Y000555D01*
X018335Y000560D01*
X018285Y000569D01*
X018237Y000582D01*
X018190Y000598D01*
X018144Y000619D01*
X018100Y000643D01*
X018058Y000670D01*
X018018Y000700D01*
X017981Y000734D01*
X017947Y000771D01*
X017915Y000810D01*
X017887Y000851D01*
X017862Y000895D01*
X017841Y000940D01*
X017824Y000987D01*
X017810Y001035D01*
X017800Y001084D01*
X017794Y001134D01*
X017792Y001184D01*
X002044Y016932D02*
X002046Y016982D01*
X002052Y017032D01*
X002062Y017081D01*
X002076Y017129D01*
X002093Y017176D01*
X002114Y017221D01*
X002139Y017265D01*
X002167Y017306D01*
X002199Y017345D01*
X002233Y017382D01*
X002270Y017416D01*
X002310Y017446D01*
X002352Y017473D01*
X002396Y017497D01*
X002442Y017518D01*
X002489Y017534D01*
X002537Y017547D01*
X002587Y017556D01*
X002636Y017561D01*
X002687Y017562D01*
X002737Y017559D01*
X002786Y017552D01*
X002835Y017541D01*
X002883Y017526D01*
X002929Y017508D01*
X002974Y017486D01*
X003017Y017460D01*
X003058Y017431D01*
X003097Y017399D01*
X003133Y017364D01*
X003165Y017326D01*
X003195Y017286D01*
X003222Y017243D01*
X003245Y017199D01*
X003264Y017153D01*
X003280Y017105D01*
X003292Y017056D01*
X003300Y017007D01*
X003304Y016957D01*
X003304Y016907D01*
X003300Y016857D01*
X003292Y016808D01*
X003280Y016759D01*
X003264Y016711D01*
X003245Y016665D01*
X003222Y016621D01*
X003195Y016578D01*
X003165Y016538D01*
X003133Y016500D01*
X003097Y016465D01*
X003058Y016433D01*
X003017Y016404D01*
X002974Y016378D01*
X002929Y016356D01*
X002883Y016338D01*
X002835Y016323D01*
X002786Y016312D01*
X002737Y016305D01*
X002687Y016302D01*
X002636Y016303D01*
X002587Y016308D01*
X002537Y016317D01*
X002489Y016330D01*
X002442Y016346D01*
X002396Y016367D01*
X002352Y016391D01*
X002310Y016418D01*
X002270Y016448D01*
X002233Y016482D01*
X002199Y016519D01*
X002167Y016558D01*
X002139Y016599D01*
X002114Y016643D01*
X002093Y016688D01*
X002076Y016735D01*
X002062Y016783D01*
X002052Y016832D01*
X002046Y016882D01*
X002044Y016932D01*
D11*
X001690Y016932D02*
X001690Y001184D01*
X001692Y001122D01*
X001698Y001061D01*
X001707Y001000D01*
X001721Y000939D01*
X001738Y000880D01*
X001759Y000822D01*
X001784Y000765D01*
X001812Y000710D01*
X001843Y000657D01*
X001878Y000606D01*
X001916Y000557D01*
X001957Y000510D01*
X002000Y000467D01*
X002047Y000426D01*
X002096Y000388D01*
X002147Y000353D01*
X002200Y000322D01*
X002255Y000294D01*
X002312Y000269D01*
X002370Y000248D01*
X002429Y000231D01*
X002490Y000217D01*
X002551Y000208D01*
X002612Y000202D01*
X002674Y000200D01*
X018422Y000200D01*
X018484Y000202D01*
X018545Y000208D01*
X018606Y000217D01*
X018667Y000231D01*
X018726Y000248D01*
X018784Y000269D01*
X018841Y000294D01*
X018896Y000322D01*
X018949Y000353D01*
X019000Y000388D01*
X019049Y000426D01*
X019096Y000467D01*
X019139Y000510D01*
X019180Y000557D01*
X019218Y000606D01*
X019253Y000657D01*
X019284Y000710D01*
X019312Y000765D01*
X019337Y000822D01*
X019358Y000880D01*
X019375Y000939D01*
X019389Y001000D01*
X019398Y001061D01*
X019404Y001122D01*
X019406Y001184D01*
X019407Y001184D02*
X019407Y016932D01*
X019406Y016932D02*
X019404Y016994D01*
X019398Y017055D01*
X019389Y017116D01*
X019375Y017177D01*
X019358Y017236D01*
X019337Y017294D01*
X019312Y017351D01*
X019284Y017406D01*
X019253Y017459D01*
X019218Y017510D01*
X019180Y017559D01*
X019139Y017606D01*
X019096Y017649D01*
X019049Y017690D01*
X019000Y017728D01*
X018949Y017763D01*
X018896Y017794D01*
X018841Y017822D01*
X018784Y017847D01*
X018726Y017868D01*
X018667Y017885D01*
X018606Y017899D01*
X018545Y017908D01*
X018484Y017914D01*
X018422Y017916D01*
X018422Y017917D02*
X002674Y017917D01*
X002674Y017916D02*
X002612Y017914D01*
X002551Y017908D01*
X002490Y017899D01*
X002429Y017885D01*
X002370Y017868D01*
X002312Y017847D01*
X002255Y017822D01*
X002200Y017794D01*
X002147Y017763D01*
X002096Y017728D01*
X002047Y017690D01*
X002000Y017649D01*
X001957Y017606D01*
X001916Y017559D01*
X001878Y017510D01*
X001843Y017459D01*
X001812Y017406D01*
X001784Y017351D01*
X001759Y017294D01*
X001738Y017236D01*
X001721Y017177D01*
X001707Y017116D01*
X001698Y017055D01*
X001692Y016994D01*
X001690Y016932D01*
D12*
X002870Y016030D02*
X002870Y015710D01*
X002710Y015870D02*
X003030Y015870D01*
X003120Y015500D02*
X002620Y015500D01*
X002370Y015250D01*
X002370Y014750D01*
X002620Y014500D01*
X002370Y014250D01*
X002370Y013750D01*
X002620Y013500D01*
X003120Y013500D01*
X003370Y013750D01*
X003370Y014250D01*
X003120Y014500D01*
X003370Y014750D01*
X003370Y015250D01*
X003120Y015500D01*
X003820Y014890D02*
X003960Y015030D01*
X004240Y015030D01*
X004240Y014750D02*
X003960Y014750D01*
X003820Y014890D01*
X003820Y014570D02*
X003820Y014429D01*
X003820Y014500D02*
X004100Y014500D01*
X004100Y014570D01*
X004240Y014500D02*
X004310Y014500D01*
X004100Y014263D02*
X004100Y014053D01*
X004030Y013982D01*
X003820Y013982D01*
X003820Y014263D02*
X004100Y014263D01*
X005158Y014440D02*
X005158Y011960D01*
X006102Y011960D01*
X006102Y014440D01*
X005158Y014440D01*
X006121Y014740D02*
X006332Y014740D01*
X006261Y014880D01*
X006261Y014950D01*
X006332Y015020D01*
X006472Y015020D01*
X006542Y014950D01*
X006542Y014810D01*
X006472Y014740D01*
X006121Y014740D02*
X006121Y015020D01*
X006121Y015200D02*
X006402Y015200D01*
X006542Y015341D01*
X006402Y015481D01*
X006121Y015481D01*
X007121Y015401D02*
X007121Y015191D01*
X007542Y015191D01*
X007542Y015401D01*
X007472Y015471D01*
X007191Y015471D01*
X007121Y015401D01*
X007121Y015011D02*
X007542Y015011D01*
X007121Y014730D01*
X007542Y014730D01*
X007472Y014550D02*
X007332Y014550D01*
X007332Y014410D01*
X007472Y014270D02*
X007542Y014340D01*
X007542Y014480D01*
X007472Y014550D01*
X007191Y014550D02*
X007121Y014480D01*
X007121Y014340D01*
X007191Y014270D01*
X007472Y014270D01*
X008121Y014270D02*
X008121Y014480D01*
X008191Y014550D01*
X008332Y014550D01*
X008402Y014480D01*
X008402Y014270D01*
X008542Y014270D02*
X008121Y014270D01*
X008402Y014410D02*
X008542Y014550D01*
X008472Y014730D02*
X008542Y014800D01*
X008542Y014941D01*
X008472Y015011D01*
X008402Y015011D01*
X008332Y014941D01*
X008332Y014800D01*
X008261Y014730D01*
X008191Y014730D01*
X008121Y014800D01*
X008121Y014941D01*
X008191Y015011D01*
X008121Y015191D02*
X008121Y015471D01*
X008121Y015331D02*
X008542Y015331D01*
X009121Y015300D02*
X009121Y015441D01*
X009191Y015511D01*
X009261Y015511D01*
X009332Y015441D01*
X009402Y015511D01*
X009472Y015511D01*
X009542Y015441D01*
X009542Y015300D01*
X009472Y015230D01*
X009542Y015050D02*
X009542Y014770D01*
X009542Y014910D02*
X009121Y014910D01*
X009261Y014770D01*
X009191Y015230D02*
X009121Y015300D01*
X009332Y015371D02*
X009332Y015441D01*
X010121Y015441D02*
X010121Y015300D01*
X010191Y015230D01*
X010121Y015441D02*
X010191Y015511D01*
X010261Y015511D01*
X010542Y015230D01*
X010542Y015511D01*
X011121Y015371D02*
X011542Y015371D01*
X011542Y015511D02*
X011542Y015230D01*
X011542Y015050D02*
X011542Y014770D01*
X011542Y014910D02*
X011121Y014910D01*
X011261Y014770D01*
X011261Y015230D02*
X011121Y015371D01*
X010542Y015050D02*
X010542Y014770D01*
X010542Y014910D02*
X010121Y014910D01*
X010261Y014770D01*
X012121Y014910D02*
X012542Y014910D01*
X012542Y014770D02*
X012542Y015050D01*
X012472Y015230D02*
X012191Y015230D01*
X012121Y015300D01*
X012121Y015441D01*
X012191Y015511D01*
X012472Y015230D01*
X012542Y015300D01*
X012542Y015441D01*
X012472Y015511D01*
X012191Y015511D01*
X012121Y014910D02*
X012261Y014770D01*
X013121Y015240D02*
X013121Y015380D01*
X013191Y015450D01*
X013472Y015450D01*
X013542Y015380D01*
X013542Y015240D01*
X013472Y015170D01*
X013332Y015240D02*
X013332Y015450D01*
X013332Y015240D02*
X013261Y015170D01*
X013191Y015170D01*
X013121Y015240D01*
X014121Y015240D02*
X014121Y015380D01*
X014191Y015450D01*
X014261Y015450D01*
X014332Y015380D01*
X014332Y015240D01*
X014261Y015170D01*
X014191Y015170D01*
X014121Y015240D01*
X014332Y015240D02*
X014402Y015170D01*
X014472Y015170D01*
X014542Y015240D01*
X014542Y015380D01*
X014472Y015450D01*
X014402Y015450D01*
X014332Y015380D01*
X015121Y015450D02*
X015121Y015170D01*
X015121Y015450D02*
X015191Y015450D01*
X015472Y015170D01*
X015542Y015170D01*
X016121Y015450D02*
X016191Y015310D01*
X016332Y015170D01*
X016332Y015380D01*
X016402Y015450D01*
X016472Y015450D01*
X016542Y015380D01*
X016542Y015240D01*
X016472Y015170D01*
X016332Y015170D01*
X017121Y015170D02*
X017332Y015170D01*
X017261Y015310D01*
X017261Y015380D01*
X017332Y015450D01*
X017472Y015450D01*
X017542Y015380D01*
X017542Y015240D01*
X017472Y015170D01*
X017121Y015170D02*
X017121Y015450D01*
X018121Y015471D02*
X018121Y015191D01*
X018542Y015191D01*
X018542Y015011D02*
X018542Y014730D01*
X018121Y014730D01*
X018121Y015011D01*
X018332Y014871D02*
X018332Y014730D01*
X018332Y014550D02*
X018402Y014480D01*
X018402Y014270D01*
X018542Y014270D02*
X018121Y014270D01*
X018121Y014480D01*
X018191Y014550D01*
X018332Y014550D01*
X018402Y014410D02*
X018542Y014550D01*
X018332Y015191D02*
X018332Y015331D01*
X018402Y013511D02*
X018472Y013511D01*
X018542Y013441D01*
X018542Y013231D01*
X018121Y013231D01*
X018121Y013441D01*
X018191Y013511D01*
X018261Y013511D01*
X018332Y013441D01*
X018332Y013231D01*
X018402Y013051D02*
X018472Y013051D01*
X018542Y012981D01*
X018542Y012840D01*
X018472Y012770D01*
X018332Y012840D02*
X018332Y012981D01*
X018402Y013051D01*
X018191Y013051D02*
X018121Y012981D01*
X018121Y012840D01*
X018191Y012770D01*
X018261Y012770D01*
X018332Y012840D01*
X018472Y012590D02*
X018121Y012590D01*
X018121Y012310D02*
X018472Y012310D01*
X018542Y012380D01*
X018542Y012520D01*
X018472Y012590D01*
X018332Y013441D02*
X018402Y013511D01*
X013542Y011191D02*
X013542Y011050D01*
X013472Y010980D01*
X013332Y010980D02*
X013261Y011121D01*
X013261Y011191D01*
X013332Y011261D01*
X013472Y011261D01*
X013542Y011191D01*
X013332Y010980D02*
X013121Y010980D01*
X013121Y011261D01*
X013261Y010800D02*
X013542Y010800D01*
X013332Y010800D02*
X013332Y010520D01*
X013261Y010520D02*
X013121Y010660D01*
X013261Y010800D01*
X013261Y010520D02*
X013542Y010520D01*
X014121Y010590D02*
X014121Y010730D01*
X014191Y010800D01*
X014472Y010520D01*
X014542Y010590D01*
X014542Y010730D01*
X014472Y010800D01*
X014191Y010800D01*
X014121Y010590D02*
X014191Y010520D01*
X014472Y010520D01*
X015121Y010660D02*
X015542Y010660D01*
X015542Y010520D02*
X015542Y010800D01*
X015261Y010520D02*
X015121Y010660D01*
X016121Y010590D02*
X016191Y010520D01*
X016121Y010590D02*
X016121Y010730D01*
X016191Y010800D01*
X016261Y010800D01*
X016542Y010520D01*
X016542Y010800D01*
X017121Y010730D02*
X017121Y010590D01*
X017191Y010520D01*
X017332Y010660D02*
X017332Y010730D01*
X017402Y010800D01*
X017472Y010800D01*
X017542Y010730D01*
X017542Y010590D01*
X017472Y010520D01*
X017332Y010730D02*
X017261Y010800D01*
X017191Y010800D01*
X017121Y010730D01*
X018121Y010730D02*
X018332Y010520D01*
X018332Y010800D01*
X018542Y010730D02*
X018121Y010730D01*
X019216Y008197D02*
X016656Y008197D01*
X016656Y001820D01*
X019216Y001820D01*
X019216Y008197D01*
X019609Y008197D01*
X019609Y001820D01*
X019216Y001820D01*
X016570Y002580D02*
X016090Y002580D01*
X016570Y002900D01*
X016090Y002900D01*
X016170Y003096D02*
X016090Y003176D01*
X016090Y003336D01*
X016170Y003416D01*
X016490Y003416D02*
X016570Y003336D01*
X016570Y003176D01*
X016490Y003096D01*
X016170Y003096D01*
X016170Y004350D02*
X016090Y004430D01*
X016090Y004590D01*
X016170Y004670D01*
X016330Y004590D02*
X016410Y004670D01*
X016490Y004670D01*
X016570Y004590D01*
X016570Y004430D01*
X016490Y004350D01*
X016330Y004430D02*
X016330Y004590D01*
X016330Y004430D02*
X016250Y004350D01*
X016170Y004350D01*
X016090Y004866D02*
X016090Y005026D01*
X016090Y004946D02*
X016570Y004946D01*
X016570Y004866D02*
X016570Y005026D01*
X016490Y005209D02*
X016570Y005289D01*
X016570Y005450D01*
X016490Y005530D01*
X016330Y005530D01*
X016330Y005370D01*
X016170Y005530D02*
X016090Y005450D01*
X016090Y005289D01*
X016170Y005209D01*
X016490Y005209D01*
X016580Y006590D02*
X016100Y006590D01*
X016580Y006910D01*
X016100Y006910D01*
X016180Y007106D02*
X016100Y007186D01*
X016100Y007346D01*
X016180Y007426D01*
X016500Y007426D01*
X016580Y007346D01*
X016580Y007186D01*
X016500Y007106D01*
X016180Y007106D01*
X012542Y010520D02*
X012261Y010520D01*
X012121Y010660D01*
X012261Y010800D01*
X012542Y010800D01*
X012332Y010800D02*
X012332Y010520D01*
X012332Y010980D02*
X012332Y011261D01*
X012542Y011191D02*
X012121Y011191D01*
X012332Y010980D01*
X011542Y011050D02*
X011472Y010980D01*
X011542Y011050D02*
X011542Y011191D01*
X011472Y011261D01*
X011402Y011261D01*
X011332Y011191D01*
X011332Y011121D01*
X011332Y011191D02*
X011261Y011261D01*
X011191Y011261D01*
X011121Y011191D01*
X011121Y011050D01*
X011191Y010980D01*
X011261Y010800D02*
X011542Y010800D01*
X011332Y010800D02*
X011332Y010520D01*
X011261Y010520D02*
X011121Y010660D01*
X011261Y010800D01*
X011261Y010520D02*
X011542Y010520D01*
X010542Y010520D02*
X010261Y010520D01*
X010121Y010660D01*
X010261Y010800D01*
X010542Y010800D01*
X010542Y010980D02*
X010261Y011261D01*
X010191Y011261D01*
X010121Y011191D01*
X010121Y011050D01*
X010191Y010980D01*
X010332Y010800D02*
X010332Y010520D01*
X010542Y010980D02*
X010542Y011261D01*
X009542Y011261D02*
X009542Y010980D01*
X009542Y011121D02*
X009121Y011121D01*
X009261Y010980D01*
X009261Y010800D02*
X009542Y010800D01*
X009332Y010800D02*
X009332Y010520D01*
X009261Y010520D02*
X009121Y010660D01*
X009261Y010800D01*
X009261Y010520D02*
X009542Y010520D01*
X008542Y010520D02*
X008261Y010520D01*
X008121Y010660D01*
X008261Y010800D01*
X008542Y010800D01*
X008472Y010980D02*
X008191Y010980D01*
X008121Y011050D01*
X008121Y011191D01*
X008191Y011261D01*
X008472Y010980D01*
X008542Y011050D01*
X008542Y011191D01*
X008472Y011261D01*
X008191Y011261D01*
X008332Y010800D02*
X008332Y010520D01*
X007542Y010590D02*
X007542Y010730D01*
X007472Y010800D01*
X007332Y010800D01*
X007332Y010660D01*
X007472Y010520D02*
X007542Y010590D01*
X007472Y010520D02*
X007191Y010520D01*
X007121Y010590D01*
X007121Y010730D01*
X007191Y010800D01*
X007121Y010980D02*
X007542Y011261D01*
X007121Y011261D01*
X007121Y011441D02*
X007121Y011651D01*
X007191Y011721D01*
X007472Y011721D01*
X007542Y011651D01*
X007542Y011441D01*
X007121Y011441D01*
X006542Y011568D02*
X006121Y011568D01*
X006121Y011287D02*
X006542Y011568D01*
X006542Y011287D02*
X006121Y011287D01*
X006121Y011121D02*
X006121Y010980D01*
X006121Y011050D02*
X006542Y011050D01*
X006542Y010980D02*
X006542Y011121D01*
X007121Y010980D02*
X007542Y010980D01*
X006542Y010660D02*
X006402Y010800D01*
X006121Y010800D01*
X006121Y010520D02*
X006402Y010520D01*
X006542Y010660D01*
X004600Y011180D02*
X004600Y009180D01*
X003600Y009180D01*
X003600Y011180D01*
X004600Y011180D01*
X004350Y010180D02*
X003850Y010180D01*
X002860Y012804D02*
X002860Y013125D01*
X004461Y006659D02*
X004463Y006730D01*
X004469Y006801D01*
X004479Y006872D01*
X004493Y006941D01*
X004510Y007010D01*
X004532Y007078D01*
X004557Y007145D01*
X004586Y007210D01*
X004618Y007273D01*
X004654Y007335D01*
X004693Y007394D01*
X004736Y007451D01*
X004781Y007506D01*
X004830Y007558D01*
X004881Y007607D01*
X004935Y007653D01*
X004992Y007697D01*
X005050Y007737D01*
X005111Y007773D01*
X005174Y007807D01*
X005239Y007836D01*
X005305Y007862D01*
X005373Y007885D01*
X005441Y007903D01*
X005511Y007918D01*
X005581Y007929D01*
X005652Y007936D01*
X005723Y007939D01*
X005794Y007938D01*
X005865Y007933D01*
X005936Y007924D01*
X006006Y007911D01*
X006075Y007895D01*
X006143Y007874D01*
X006210Y007850D01*
X006276Y007822D01*
X006339Y007790D01*
X006401Y007755D01*
X006461Y007717D01*
X006519Y007675D01*
X006574Y007631D01*
X006627Y007583D01*
X006677Y007532D01*
X006724Y007479D01*
X006768Y007423D01*
X006809Y007365D01*
X006847Y007304D01*
X006881Y007242D01*
X006911Y007177D01*
X006938Y007112D01*
X006962Y007044D01*
X006981Y006976D01*
X006997Y006907D01*
X007009Y006836D01*
X007017Y006766D01*
X007021Y006695D01*
X007021Y006623D01*
X007017Y006552D01*
X007009Y006482D01*
X006997Y006411D01*
X006981Y006342D01*
X006962Y006274D01*
X006938Y006206D01*
X006911Y006141D01*
X006881Y006076D01*
X006847Y006014D01*
X006809Y005953D01*
X006768Y005895D01*
X006724Y005839D01*
X006677Y005786D01*
X006627Y005735D01*
X006574Y005687D01*
X006519Y005643D01*
X006461Y005601D01*
X006401Y005563D01*
X006339Y005528D01*
X006276Y005496D01*
X006210Y005468D01*
X006143Y005444D01*
X006075Y005423D01*
X006006Y005407D01*
X005936Y005394D01*
X005865Y005385D01*
X005794Y005380D01*
X005723Y005379D01*
X005652Y005382D01*
X005581Y005389D01*
X005511Y005400D01*
X005441Y005415D01*
X005373Y005433D01*
X005305Y005456D01*
X005239Y005482D01*
X005174Y005511D01*
X005111Y005545D01*
X005050Y005581D01*
X004992Y005621D01*
X004935Y005665D01*
X004881Y005711D01*
X004830Y005760D01*
X004781Y005812D01*
X004736Y005867D01*
X004693Y005924D01*
X004654Y005983D01*
X004618Y006045D01*
X004586Y006108D01*
X004557Y006173D01*
X004532Y006240D01*
X004510Y006308D01*
X004493Y006377D01*
X004479Y006446D01*
X004469Y006517D01*
X004463Y006588D01*
X004461Y006659D01*
X004195Y006050D02*
X004037Y006050D01*
X003263Y006050D02*
X003037Y006050D01*
X003975Y005500D02*
X004012Y005551D01*
X004047Y005604D01*
X004079Y005660D01*
X004107Y005717D01*
X004131Y005776D01*
X004152Y005836D01*
X004169Y005897D01*
X004183Y005959D01*
X004192Y006022D01*
X004198Y006085D01*
X004200Y006149D01*
X004198Y006213D01*
X004192Y006276D01*
X004183Y006339D01*
X004170Y006401D01*
X004152Y006462D01*
X004132Y006522D01*
X004107Y006581D01*
X004080Y006638D01*
X004048Y006694D01*
X004014Y006747D01*
X003976Y006798D01*
X003935Y006847D01*
X003891Y006893D01*
X003845Y006937D01*
X003796Y006978D01*
X003745Y007015D01*
X003691Y007050D01*
X003636Y007081D01*
X003579Y007109D01*
X003520Y007133D01*
X003460Y007153D01*
X002840Y007153D02*
X002780Y007133D01*
X002721Y007109D01*
X002664Y007081D01*
X002609Y007050D01*
X002555Y007015D01*
X002504Y006978D01*
X002455Y006937D01*
X002409Y006893D01*
X002365Y006847D01*
X002324Y006798D01*
X002286Y006747D01*
X002252Y006694D01*
X002221Y006638D01*
X002193Y006581D01*
X002168Y006522D01*
X002148Y006462D01*
X002130Y006401D01*
X002117Y006339D01*
X002108Y006276D01*
X002102Y006213D01*
X002100Y006149D01*
X002102Y006085D01*
X002108Y006022D01*
X002117Y005959D01*
X002131Y005897D01*
X002148Y005836D01*
X002169Y005776D01*
X002193Y005717D01*
X002221Y005660D01*
X002253Y005604D01*
X002288Y005551D01*
X002325Y005500D01*
X003975Y005500D01*
X002263Y006050D02*
X002105Y006050D01*
X001681Y005111D02*
X001681Y001568D01*
X003768Y001568D01*
X005618Y001568D02*
X005894Y001568D01*
X005894Y002394D01*
X005894Y004284D02*
X005894Y005111D01*
X001681Y005111D01*
X005991Y006159D02*
X006491Y006159D01*
D13*
X009270Y004400D02*
X009400Y004520D01*
X009650Y004770D01*
X012500Y004520D02*
X013000Y004520D01*
X013500Y004520D01*
X013500Y005020D02*
X013000Y005020D01*
X012500Y005020D01*
X012500Y004520D01*
X012620Y001360D02*
X012620Y000860D01*
X012370Y000860D01*
X012620Y000860D02*
X012620Y000360D01*
X014620Y000360D01*
X014620Y001360D01*
X012620Y001360D01*
X014620Y001360D02*
X015120Y001360D01*
X015120Y000860D01*
X015370Y000860D01*
X015120Y000860D02*
X015120Y000360D01*
X014620Y000360D01*
X002556Y008500D02*
X002556Y008750D01*
X003056Y008750D01*
X003056Y010750D01*
X002056Y010750D01*
X002056Y008750D01*
X002556Y008750D01*
X003056Y010750D02*
X003056Y011250D01*
X002556Y011250D01*
X002556Y011500D01*
X002556Y011250D02*
X002056Y011250D01*
X002056Y010750D01*
D14*
X007100Y008020D02*
X016000Y008020D01*
X016000Y001520D01*
X007100Y001520D01*
X007100Y008020D01*
X009400Y006250D02*
X009400Y005020D01*
X009650Y004770D02*
X012250Y004770D01*
X012500Y004520D02*
X013500Y005020D01*
X013500Y004520D01*
X013750Y004770D02*
X014150Y004770D01*
X013000Y004520D02*
X013000Y002420D01*
X013250Y002420D01*
X009400Y003300D02*
X009400Y004520D01*
X013000Y005020D02*
X013000Y007120D01*
X013250Y007120D01*
D15*
X018832Y009480D02*
X005052Y009480D01*
X005052Y016480D01*
X018832Y016480D01*
X018832Y013980D01*
X017832Y013980D01*
X017832Y011980D01*
X018832Y011980D01*
X018832Y013980D01*
X018832Y011980D02*
X018832Y009480D01*
X006675Y013886D02*
X006405Y013886D01*
X006405Y014021D01*
X006450Y014066D01*
X006540Y014066D01*
X006585Y014021D01*
X006585Y013886D01*
X006585Y013976D02*
X006675Y014066D01*
X006675Y014180D02*
X006675Y014361D01*
X006675Y014270D02*
X006405Y014270D01*
X006495Y014180D01*
D16*
X008253Y012731D02*
X008253Y012307D01*
X008253Y011883D01*
X008041Y011671D01*
X008465Y012095D02*
X008676Y012095D01*
X008888Y012307D01*
X008888Y012731D01*
X009422Y012731D02*
X010269Y012731D01*
X010803Y012942D02*
X011439Y012942D01*
X011651Y012731D01*
X011651Y012095D01*
X012184Y012307D02*
X012184Y012731D01*
X012396Y012942D01*
X012820Y012942D01*
X013032Y012731D01*
X013032Y012519D01*
X012184Y012519D01*
X012184Y012307D02*
X012396Y012095D01*
X012820Y012095D01*
X013566Y012095D02*
X014413Y012942D01*
X013566Y012942D02*
X014413Y012095D01*
X010803Y012095D02*
X010803Y012942D01*
X008465Y012095D02*
X008253Y012307D01*
M02*
